	.include "MPlayDef.s"

	.section .rodata

	@********************** Track  1 **********************@

	.align 2
	.global song0055_1
song0055_1:	@ 0x08C7E3C8
	.byte	KEYSH	, 0
song0055_1_2:
	.byte	TEMPO	, 57
	.byte	VOICE	, 54
	.byte	VOL	, v100
	.byte	PAN	, c_v
	.byte		N08	, Cn2, v127
	.byte	W12
	.byte			Gn1
	.byte	W12
	.byte			An1
	.byte	W12
	.byte			As1
	.byte	W08
	.byte			Cn2
	.byte	W12
	.byte		N08	
	.byte	W04
	.byte			Gn1
	.byte	W12
	.byte			An1
	.byte	W12
	.byte			As1
	.byte	W12
song0055_1_1:
	.byte		N08	, Cn2, v127
	.byte	W12
	.byte			Gn1
	.byte	W12
	.byte			An1
	.byte	W12
	.byte			As1
	.byte	W08
	.byte			Cn2
	.byte	W12
	.byte		N08	
	.byte	W04
	.byte			Gn1
	.byte	W12
	.byte			An1
	.byte	W12
	.byte			As1
	.byte	W12
	.byte	PEND
	.byte	PATT	
		.word	song0055_1_1
	.byte		N11	, Cn2, v127
	.byte	W12
	.byte		N06	, Fn2
	.byte	W12
	.byte		N08	, En2
	.byte	W12
	.byte		N04	, As2
	.byte	W08
	.byte		N05	, An2
	.byte	W12
	.byte		N04	, Fn2
	.byte	W04
	.byte			Ds2
	.byte	W12
	.byte			As1
	.byte	W12
	.byte			An1
	.byte	W12
	.byte		N11	, Cn2
	.byte	W12
	.byte		N06	, Gn1
	.byte	W12
	.byte		N08	, An1
	.byte	W12
	.byte		N04	, Fn1
	.byte	W08
	.byte		N05	, Cn2
	.byte	W12
	.byte		N04	
	.byte	W04
	.byte			Gn1
	.byte	W12
	.byte			An1
	.byte	W12
	.byte			Fn1
	.byte	W12
	.byte		N11	, Cn2
	.byte	W12
	.byte		N06	, Gn1
	.byte	W12
	.byte		N08	, An1
	.byte	W12
	.byte		N04	, Fn1
	.byte	W08
	.byte		N05	, Cn2
	.byte	W12
	.byte		N04	
	.byte	W04
	.byte			Gn1
	.byte	W12
	.byte			An1
	.byte	W12
	.byte			Fn1
	.byte	W08
	.byte		N11	, Cn2
	.byte	W04
	.byte	W12
	.byte		N06	, Gs1
	.byte	W12
	.byte		N08	, As1
	.byte	W12
	.byte		N04	, Cn2
	.byte	W08
	.byte		N05	, Ds2
	.byte	W12
	.byte		N04	
	.byte	W04
	.byte			Gs1
	.byte	W12
	.byte			As1
	.byte	W12
	.byte			Cn2
	.byte	W08
	.byte		N11	, Dn2
	.byte	W04
	.byte	W12
	.byte		N06	, As1
	.byte	W12
	.byte		N08	, Cn2
	.byte	W12
	.byte		N04	, Dn2
	.byte	W08
	.byte		N05	, Fn2
	.byte	W12
	.byte		N04	
	.byte	W04
	.byte			As1
	.byte	W12
	.byte			Dn2
	.byte	W12
	.byte			As1
	.byte	W08
	.byte		N11	, Ds2
	.byte	W04
	.byte	W12
	.byte		N06	, Cn2
	.byte	W12
	.byte		N08	, Dn2
	.byte	W12
	.byte		N04	, Ds2
	.byte	W08
	.byte		N05	, Gs2
	.byte	W12
	.byte		N04	
	.byte	W04
	.byte			Cn3
	.byte	W12
	.byte			As2
	.byte	W12
	.byte			Gs2
	.byte	W08
	.byte		N11	, Gn1
	.byte	W04
	.byte	W12
	.byte		N06	, As1
	.byte	W12
	.byte		N08	, Dn2
	.byte	W12
	.byte		N04	, Fn2
	.byte	W08
	.byte		N05	, Gn2
	.byte	W12
	.byte		N04	
	.byte	W08
	.byte		N04	
	.byte	W08
	.byte		N04	
	.byte	W24
	.byte	GOTO	
		.word	song0055_1_2
	.byte	FINE

	@********************** Track  2 **********************@

	.global song0055_2
song0055_2:	@ 0x08C7E4AB
	.byte	KEYSH	, 0
song0055_2_1:
	.byte	VOICE	, 64
	.byte	VOL	, v081
	.byte	PAN	, c_v
	.byte	W96
	.byte	W96
	.byte	W96
	.byte		N04	, Cn3, v116
	.byte	W04
	.byte			En3
	.byte	W04
	.byte			Dn3
	.byte	W04
	.byte			As3
	.byte	W04
	.byte			Gn3
	.byte	W04
	.byte			Cn4
	.byte	W04
	.byte			As3
	.byte	W04
	.byte			Fn4
	.byte	W04
	.byte			En4
	.byte	W04
	.byte			As4
	.byte	W04
	.byte			Cn5
	.byte	W04
	.byte			En5
	.byte	W04
	.byte			Gn5
	.byte	W04
	.byte			Fn5
	.byte	W04
	.byte			En5
	.byte	W04
	.byte			Cn5
	.byte	W04
	.byte			Gn4
	.byte	W04
	.byte			Fn4
	.byte	W04
	.byte			En4
	.byte	W04
	.byte			Fn4
	.byte	W04
	.byte			Gn4
	.byte	W04
	.byte			An4
	.byte	W04
	.byte			Bn4
	.byte	W04
	.byte			Cn5
	.byte	W04
	.byte			As4, v120
	.byte	W04
	.byte			Fn4, v116
	.byte	W04
	.byte			Dn4, v112
	.byte	W04
	.byte			As3, v108
	.byte	W04
	.byte			Fn3, v104
	.byte	W04
	.byte			Dn3, v100
	.byte	W04
	.byte			As4, v092
	.byte	W04
	.byte			Fn4, v088
	.byte	W04
	.byte			Dn4, v084
	.byte	W04
	.byte			As3, v080
	.byte	W04
	.byte			Fn3, v076
	.byte	W04
	.byte			Dn3, v072
	.byte	W04
	.byte			As4, v068
	.byte	W04
	.byte			Fn4, v064
	.byte	W04
	.byte			Dn4, v060
	.byte	W04
	.byte			As3, v056
	.byte	W04
	.byte			Fn3, v052
	.byte	W04
	.byte			Dn3, v048
	.byte	W04
	.byte			As4, v044
	.byte	W04
	.byte			Fn4, v040
	.byte	W04
	.byte			Dn4, v036
	.byte	W04
	.byte			As3, v032
	.byte	W04
	.byte			Fn3, v028
	.byte	W04
	.byte			Dn3, v024
	.byte	W04
	.byte	W96
	.byte	W48
	.byte			Gs1, v116
	.byte	W04
	.byte			As1
	.byte	W04
	.byte			Cn2
	.byte	W04
	.byte			Ds2
	.byte	W04
	.byte			Gs2
	.byte	W04
	.byte			Cn3
	.byte	W04
	.byte			Ds3
	.byte	W04
	.byte			Gs3
	.byte	W04
	.byte			Cn4
	.byte	W04
	.byte			Ds4
	.byte	W04
	.byte			Gs4
	.byte	W04
	.byte			Cn5
	.byte	W04
	.byte	W48
	.byte			As1
	.byte	W04
	.byte			Cn2
	.byte	W04
	.byte			Dn2
	.byte	W04
	.byte			Fn2
	.byte	W04
	.byte			As2
	.byte	W04
	.byte			Dn3
	.byte	W04
	.byte			Fn3
	.byte	W04
	.byte			As3
	.byte	W04
	.byte			Dn4
	.byte	W04
	.byte			Fn4
	.byte	W04
	.byte			As4
	.byte	W04
	.byte			Dn5
	.byte	W04
	.byte	W48
	.byte			Cn2
	.byte	W04
	.byte			Dn2
	.byte	W04
	.byte			Ds2
	.byte	W04
	.byte			Gs2
	.byte	W04
	.byte			Cn3
	.byte	W04
	.byte			Ds3
	.byte	W04
	.byte			Gs3
	.byte	W04
	.byte			Cn4
	.byte	W04
	.byte			Ds4
	.byte	W04
	.byte			Fn4
	.byte	W04
	.byte			Gn4
	.byte	W04
	.byte			Gs4
	.byte	W04
	.byte	W56
	.byte			Gn4
	.byte	W08
	.byte		N04	
	.byte	W08
	.byte		N04	
	.byte	W24
	.byte	GOTO	
		.word	song0055_2_1
	.byte	FINE

	@********************** Track  3 **********************@

	.global song0055_3
song0055_3:	@ 0x08C7E58A
	.byte	KEYSH	, 0
song0055_3_1:
	.byte	VOICE	, 62
	.byte	VOL	, v081
	.byte	PAN	, c_v
	.byte		N14	, Gn2, v100
	.byte		N15	, Cn3, v116
	.byte		N14	, En3, v108
	.byte	W20
	.byte		N72	, Fn2
	.byte		N72	, As2, v116
	.byte		N72	, Dn3, v100
	.byte	W76
	.byte	W96
	.byte		N08	, Fn2, v104
	.byte		N10	, As2, v100
	.byte		N11	, Dn3
	.byte	W20
	.byte		N72	, Gn2
	.byte		N72	, Cn3
	.byte		N72	, En3, v108
	.byte	W76
	.byte	W96
	.byte		N05	, Gn2, v104
	.byte		N04	, Cn3, v108
	.byte		N05	, En3, v116
	.byte	W20
	.byte		N72	, Fn2
	.byte		N72	, As2, v104
	.byte		N72	, Dn3, v100
	.byte	W76
	.byte	W92
	.byte		N12	, Fn2, v108
	.byte		N15	, As2, v116
	.byte		N13	, Dn3, v108
	.byte	W04
	.byte	W12
	.byte		N72	, Ds2
	.byte		N72	, Gs2, v100
	.byte		N72	, Cn3
	.byte	W80
	.byte		N10	, Ds2
	.byte		N16	, Gs2
	.byte		N16	, Cn3
	.byte	W04
	.byte	W12
	.byte		N72	, Fn2, v116
	.byte		N72	, As2, v100
	.byte		N72	, Dn3
	.byte	W80
	.byte		N12	, Fn2
	.byte		N13	, As2
	.byte		N12	, Dn3
	.byte	W04
	.byte	W12
	.byte		N72	, Gs2
	.byte		N72	, Cn3, v108
	.byte		N72	, Ds3, v100
	.byte	W80
	.byte		N09	, Gs2, v108
	.byte		N09	, Cn3, v100
	.byte		N11	, Ds3
	.byte	W04
	.byte	W12
	.byte		N40	, Gn2
	.byte		N40	, As2
	.byte		N40	, Dn3
	.byte		N42	, Fn3, v108
	.byte	W44
	.byte		N05	, Gn2, v116
	.byte		N05	, As2, v104
	.byte		N05	, Dn3, v108
	.byte		N06	, Fn3, v104
	.byte	W08
	.byte		N05	, Gn2, v108
	.byte		N05	, As2, v104
	.byte		N05	, Dn3, v108
	.byte		N06	, Fn3, v100
	.byte	W08
	.byte		N07	, Gn2, v116
	.byte		N06	, As2, v104
	.byte		N06	, Dn3, v116
	.byte		N07	, Fn3, v104
	.byte	W24
	.byte	GOTO	
		.word	song0055_3_1
	.byte	FINE

	@********************** Track  4 **********************@

	.global song0055_4
song0055_4:	@ 0x08C7E642
	.byte	KEYSH	, 0
song0055_4_2:
	.byte	VOICE	, 55
	.byte	VOL	, v064
	.byte	PAN	, c_v
	.byte	W48
	.byte		N52	, Gn2, v108
	.byte	W48
song0055_4_1:
	.byte		N48	, Cn3, v096
	.byte	W44
	.byte	W02
	.byte		N04	, Fs3, v076
	.byte	W02
	.byte		N24	, Gn3, v104
	.byte	W22
	.byte		N04	, Bn3, v076
	.byte	W02
	.byte		N24	, Cn4, v088
	.byte	W24
	.byte	PEND
	.byte		N23	, Gn3, v104
	.byte	W20
	.byte		N78	, Cn3, v108
	.byte	W76
	.byte		N44	, As2
	.byte	W48
	.byte			An2
	.byte	W48
	.byte	W48
	.byte		N52	, Gn2
	.byte	W48
	.byte	PATT	
		.word	song0055_4_1
	.byte	W40
	.byte	W01
	.byte		N04	, Gn3, v096
	.byte	W03
	.byte		N15	, Gs3
	.byte	W15
	.byte		N12	, Gn3, v108
	.byte	W12
	.byte		N10	, Fn3, v104
	.byte	W08
	.byte		N08	, Ds3
	.byte	W09
	.byte		N09	, Cn3, v127
	.byte	W08
	.byte	W32
	.byte	W02
	.byte		N05	, Gs3, v080
	.byte	W02
	.byte		N23	, As3
	.byte	W23
	.byte		N13	, Gs3, v096
	.byte	W12
	.byte		N08	, Gn3, v088
	.byte	W08
	.byte			Fn3, v080
	.byte	W08
	.byte		N05	, Dn3, v100
	.byte	W09
	.byte	W32
	.byte	W02
	.byte		N04	, As3, v092
	.byte	W02
	.byte		N23	, Cn4, v100
	.byte	W24
	.byte		N12	, Gs3, v108
	.byte	W11
	.byte		N08	, Gn3, v092
	.byte	W08
	.byte		N09	, Fn3, v080
	.byte	W09
	.byte		N08	, Ds3, v108
	.byte	W08
	.byte	W96
	.byte	GOTO	
		.word	song0055_4_2
	.byte	FINE

	@********************** Track  5 **********************@

	.global song0055_5
song0055_5:	@ 0x08C7E6CC
	.byte	KEYSH	, 0
song0055_5_1:
	.byte	VOICE	, 56
	.byte	VOL	, v048
	.byte	PAN	, c_v
	.byte		N14	, En4, v116
	.byte	W20
	.byte		TIE	, Dn4
	.byte	W76
	.byte	W92
	.byte		EOT	
	.byte	W04
	.byte		N11	
	.byte	W20
	.byte		TIE	, En4
	.byte	W76
	.byte	W88
	.byte		EOT	
	.byte	W08
	.byte		N05	
	.byte	W20
	.byte		TIE	, Dn4
	.byte	W76
	.byte	W84
	.byte	W03
	.byte		EOT	
	.byte	W05
	.byte		N13	
	.byte	W04
	.byte	W12
	.byte		N72	, Cn4
	.byte	W80
	.byte		N16	
	.byte	W04
	.byte	W12
	.byte		N72	, Dn4
	.byte	W80
	.byte		N12	
	.byte	W04
	.byte	W12
	.byte		N76	, Ds4
	.byte	W80
	.byte		N11	
	.byte	W04
	.byte	W12
	.byte		N42	, Fn4
	.byte	W44
	.byte		N06	
	.byte	W08
	.byte		N06	
	.byte	W08
	.byte		N07	
	.byte	W24
	.byte	GOTO	
		.word	song0055_5_1
	.byte	FINE

	@********************** Track  6 **********************@

	.global song0055_6
song0055_6:	@ 0x08C7E713
	.byte	KEYSH	, 0
song0055_6_3:
	.byte	VOICE	, 127
	.byte	VOL	, v094
	.byte		N04	, Cn1, v127
	.byte		N01	, Dn1, v044
	.byte		N90	, Cs2, v120
	.byte	W12
	.byte		N03	, Cs1, v104
	.byte		N01	, Dn1, v044
	.byte	W12
	.byte		N06	, Cn1, v116
	.byte		N01	, Dn1, v044
	.byte	W12
	.byte		N04	, Cs1, v096
	.byte		N02	, Ds1, v044
	.byte	W08
	.byte		N04	, Cn1, v116
	.byte	W04
	.byte		N01	, Dn1, v044
	.byte	W08
	.byte		N04	, Cn1, v100
	.byte	W04
	.byte		N06	, Cs1, v104
	.byte		N02	, Ds1, v044
	.byte	W12
	.byte			Cn1, v108
	.byte		N01	, Dn1, v044
	.byte	W12
	.byte		N10	, Cs1, v108
	.byte		N02	, Ds1, v044
	.byte	W12
song0055_6_1:
	.byte		N04	, Cn1, v127
	.byte		N01	, Dn1, v044
	.byte	W12
	.byte		N03	, Cs1, v104
	.byte		N01	, Dn1, v044
	.byte	W12
	.byte		N06	, Cn1, v116
	.byte		N01	, Dn1, v044
	.byte	W12
	.byte		N04	, Cs1, v096
	.byte		N02	, Ds1, v044
	.byte	W08
	.byte		N04	, Cn1, v116
	.byte	W04
	.byte		N01	, Dn1, v044
	.byte	W08
	.byte		N04	, Cn1, v100
	.byte	W04
	.byte		N06	, Cs1, v104
	.byte		N02	, Ds1, v044
	.byte	W12
	.byte			Cn1, v108
	.byte		N01	, Dn1, v044
	.byte	W12
	.byte		N10	, Cs1, v108
	.byte		N02	, Ds1, v044
	.byte	W12
	.byte	PEND
	.byte	PATT	
		.word	song0055_6_1
	.byte	PATT	
		.word	song0055_6_1
	.byte		N04	, Cn1, v127
	.byte		N01	, Dn1, v044
	.byte		N90	, Cs2, v120
	.byte	W12
	.byte		N03	, Cs1, v104
	.byte		N01	, Dn1, v044
	.byte	W12
	.byte		N06	, Cn1, v116
	.byte		N01	, Dn1, v044
	.byte	W12
	.byte		N04	, Cs1, v096
	.byte		N02	, Ds1, v044
	.byte	W08
	.byte		N04	, Cn1, v116
	.byte	W04
	.byte		N01	, Dn1, v044
	.byte	W08
	.byte		N04	, Cn1, v100
	.byte	W04
	.byte		N06	, Cs1, v104
	.byte		N02	, Ds1, v044
	.byte	W12
	.byte			Cn1, v108
	.byte		N01	, Dn1, v044
	.byte	W12
	.byte		N10	, Cs1, v108
	.byte		N02	, Ds1, v044
	.byte	W12
	.byte		N04	, Cn1, v127
	.byte		N01	, Dn1, v044
	.byte	W12
	.byte		N03	, Cs1, v104
	.byte		N01	, Dn1, v044
	.byte	W12
	.byte		N06	, Cn1, v116
	.byte		N01	, Dn1, v044
	.byte	W12
	.byte		N04	, Cs1, v096
	.byte		N02	, Ds1, v044
	.byte	W08
	.byte		N04	, Cn1, v116
	.byte	W04
	.byte		N01	, Dn1, v044
	.byte	W08
	.byte		N04	, Cn1, v100
	.byte	W04
	.byte		N06	, Cs1, v104
	.byte		N02	, Ds1, v044
	.byte	W12
	.byte			Cn1, v108
	.byte		N01	, Dn1, v044
	.byte	W12
	.byte		N10	, Cs1, v108
	.byte		N02	, Ds1, v044
	.byte	W08
	.byte			Cn1, v108
	.byte		N90	, Cs2, v120
	.byte	W04
song0055_6_2:
	.byte		N01	, Dn1, v044
	.byte	W12
	.byte		N03	, Cs1, v104
	.byte		N01	, Dn1, v044
	.byte	W12
	.byte		N06	, Cn1, v116
	.byte		N01	, Dn1, v044
	.byte	W12
	.byte		N04	, Cs1, v096
	.byte		N02	, Ds1, v044
	.byte	W08
	.byte		N04	, Cn1, v116
	.byte	W04
	.byte		N01	, Dn1, v044
	.byte	W08
	.byte		N04	, Cn1, v100
	.byte	W04
	.byte		N06	, Cs1, v104
	.byte		N02	, Ds1, v044
	.byte	W12
	.byte			Cn1, v108
	.byte		N01	, Dn1, v044
	.byte	W12
	.byte		N10	, Cs1, v108
	.byte		N02	, Ds1, v044
	.byte	W08
	.byte			Cn1, v108
	.byte	W04
	.byte	PEND
	.byte		N01	, Dn1, v044
	.byte	W12
	.byte		N03	, Cs1, v104
	.byte		N01	, Dn1, v044
	.byte	W12
	.byte		N06	, Cn1, v116
	.byte		N01	, Dn1, v044
	.byte	W12
	.byte		N04	, Cs1, v096
	.byte		N02	, Ds1, v044
	.byte	W08
	.byte		N04	, Cn1, v116
	.byte	W04
	.byte		N01	, Dn1, v044
	.byte	W08
	.byte		N04	, Cn1, v100
	.byte	W04
	.byte		N06	, Cs1, v104
	.byte		N02	, Ds1, v044
	.byte	W12
	.byte			Cn1, v108
	.byte		N01	, Dn1, v044
	.byte	W12
	.byte		N10	, Cs1, v108
	.byte		N02	, Ds1, v044
	.byte	W08
	.byte			Cn1, v108
	.byte		N90	, Cs2, v120
	.byte	W04
	.byte	PATT	
		.word	song0055_6_2
	.byte		N01	, Dn1, v044
	.byte	W12
	.byte		N03	, Cs1, v104
	.byte		N01	, Dn1, v044
	.byte	W12
	.byte		N06	, Cn1, v116
	.byte		N01	, Dn1, v044
	.byte	W12
	.byte		N04	, Cs1, v096
	.byte		N02	, Ds1, v044
	.byte	W08
	.byte		N04	, Cn1, v116
	.byte		N01	, Dn1, v044
	.byte	W12
	.byte		N06	, Cs1, v104
	.byte		N01	, Dn1, v044
	.byte	W08
	.byte		N06	, Cs1, v104
	.byte		N01	, Dn1, v044
	.byte	W08
	.byte		N10	, Cs1, v108
	.byte		N01	, Dn1, v044
	.byte	W24
	.byte	GOTO	
		.word	song0055_6_3
	.byte	FINE

	.align 2
	.global song0055
song0055:	@ 0x08C7E8DC
	.byte	6		@ trackCount
	.byte	0		@ blockCount
	.byte	0		@ priority
	.byte	128		@ reverb

	.word	voicegroup009		@ voicegroup/tone

	.word	song0055_1		@ track
	.word	song0055_2		@ track
	.word	song0055_3		@ track
	.word	song0055_4		@ track
	.word	song0055_5		@ track
	.word	song0055_6		@ track
