	.include "MPlayDef.s"

	.section .rodata

	@********************** Track  1 **********************@

	.align 2
	.global song0035_1
song0035_1:	@ 0x08C73044
	.byte	KEYSH	, 0
	.byte	TEMPO	, 82
	.byte	VOICE	, 68
	.byte	VOL	, v094
	.byte	PAN	, c_v
	.byte	W03
song0035_1_1:
	.byte		N06	, An1, v127
	.byte	W06
	.byte			An2
	.byte	W06
	.byte			An1
	.byte	W06
	.byte		N06	
	.byte	W06
	.byte		N06	
	.byte	W06
	.byte			An2
	.byte	W06
	.byte			An1
	.byte	W06
	.byte		N06	
	.byte	W06
	.byte		N06	
	.byte	W06
	.byte			An2
	.byte	W06
	.byte			An1
	.byte	W06
	.byte		N06	
	.byte	W06
	.byte		N06	
	.byte	W06
	.byte			An2
	.byte	W06
	.byte			An1
	.byte	W06
	.byte		N06	
	.byte	W06
	.byte	PEND
song0035_1_2:
	.byte		N06	, An1, v127
	.byte	W06
	.byte			An2
	.byte	W06
	.byte			An1
	.byte	W06
	.byte		N06	
	.byte	W06
	.byte		N06	
	.byte	W06
	.byte			An2
	.byte	W06
	.byte			An1
	.byte	W06
	.byte		N06	
	.byte	W06
	.byte		N06	
	.byte	W06
	.byte			An2
	.byte	W06
	.byte			An1
	.byte	W06
	.byte		N06	
	.byte	W06
	.byte		N06	
	.byte	W06
	.byte			An3
	.byte	W06
	.byte			An2
	.byte	W06
	.byte			An1
	.byte	W06
	.byte	PEND
	.byte	PATT	
		.word	song0035_1_1
	.byte	PATT	
		.word	song0035_1_2
	.byte	PATT	
		.word	song0035_1_1
	.byte	PATT	
		.word	song0035_1_2
	.byte	PATT	
		.word	song0035_1_1
	.byte	PATT	
		.word	song0035_1_2
song0035_1_3:
	.byte		N06	, Dn2, v127
	.byte	W06
	.byte			Dn3
	.byte	W06
	.byte			Dn2
	.byte	W06
	.byte		N06	
	.byte	W06
	.byte		N06	
	.byte	W06
	.byte			Dn3
	.byte	W06
	.byte			Dn2
	.byte	W06
	.byte		N06	
	.byte	W06
	.byte		N06	
	.byte	W06
	.byte			Dn3
	.byte	W06
	.byte			Dn2
	.byte	W06
	.byte		N06	
	.byte	W06
	.byte		N06	
	.byte	W06
	.byte			Dn3
	.byte	W06
	.byte			Dn2
	.byte	W06
	.byte		N06	
	.byte	W06
	.byte	PEND
song0035_1_4:
	.byte		N06	, Dn2, v127
	.byte	W06
	.byte			Dn3
	.byte	W06
	.byte			Dn2
	.byte	W06
	.byte		N06	
	.byte	W06
	.byte		N06	
	.byte	W06
	.byte			Dn3
	.byte	W06
	.byte			Dn2
	.byte	W06
	.byte		N06	
	.byte	W06
	.byte		N06	
	.byte	W06
	.byte			Dn3
	.byte	W06
	.byte			Dn2
	.byte	W06
	.byte		N06	
	.byte	W06
	.byte		N06	
	.byte	W06
	.byte			Dn4
	.byte	W06
	.byte			Dn3
	.byte	W06
	.byte			Dn2
	.byte	W06
	.byte	PEND
	.byte	PATT	
		.word	song0035_1_3
	.byte	PATT	
		.word	song0035_1_4
	.byte	PATT	
		.word	song0035_1_3
	.byte	PATT	
		.word	song0035_1_4
	.byte	PATT	
		.word	song0035_1_3
	.byte	PATT	
		.word	song0035_1_4
song0035_1_5:
	.byte		N06	, Gn1, v127
	.byte	W06
	.byte			Gn2
	.byte	W06
	.byte			Gn1
	.byte	W06
	.byte		N06	
	.byte	W06
	.byte		N06	
	.byte	W06
	.byte			Gn2
	.byte	W06
	.byte			Gn1
	.byte	W06
	.byte		N06	
	.byte	W06
	.byte		N06	
	.byte	W06
	.byte			Gn2
	.byte	W06
	.byte			Gn1
	.byte	W06
	.byte		N06	
	.byte	W06
	.byte		N06	
	.byte	W06
	.byte			Gn2
	.byte	W06
	.byte			Gn1
	.byte	W06
	.byte		N06	
	.byte	W06
	.byte	PEND
song0035_1_6:
	.byte		N06	, Gn1, v127
	.byte	W06
	.byte			Gn2
	.byte	W06
	.byte			Gn1
	.byte	W06
	.byte		N06	
	.byte	W06
	.byte		N06	
	.byte	W06
	.byte			Gn2
	.byte	W06
	.byte			Gn1
	.byte	W06
	.byte		N06	
	.byte	W06
	.byte		N06	
	.byte	W06
	.byte			Gn2
	.byte	W06
	.byte			Gn1
	.byte	W06
	.byte		N06	
	.byte	W06
	.byte		N06	
	.byte	W06
	.byte			Gn3
	.byte	W06
	.byte			Gn2
	.byte	W06
	.byte			Gn1
	.byte	W06
	.byte	PEND
	.byte	PATT	
		.word	song0035_1_5
	.byte	PATT	
		.word	song0035_1_6
	.byte	PATT	
		.word	song0035_1_1
	.byte	PATT	
		.word	song0035_1_2
	.byte	PATT	
		.word	song0035_1_1
	.byte	PATT	
		.word	song0035_1_2
	.byte	PATT	
		.word	song0035_1_3
	.byte	PATT	
		.word	song0035_1_4
	.byte	PATT	
		.word	song0035_1_3
	.byte	PATT	
		.word	song0035_1_4
	.byte	PATT	
		.word	song0035_1_3
	.byte	PATT	
		.word	song0035_1_4
	.byte	PATT	
		.word	song0035_1_3
	.byte	PATT	
		.word	song0035_1_4
	.byte	PATT	
		.word	song0035_1_3
	.byte	PATT	
		.word	song0035_1_4
	.byte		N06	, Dn2, v127
	.byte	W06
	.byte			Dn3
	.byte	W06
	.byte			Dn2
	.byte	W06
	.byte		N06	
	.byte	W06
	.byte		N06	
	.byte	W06
	.byte			Dn3
	.byte	W06
	.byte			Cs2
	.byte	W06
	.byte		N06	
	.byte	W06
	.byte		N06	
	.byte	W06
	.byte			Cs3
	.byte	W06
	.byte			Cs2
	.byte	W06
	.byte		N06	
	.byte	W06
	.byte			Cn2
	.byte	W06
	.byte			Cn3
	.byte	W06
	.byte			Cn2
	.byte	W06
	.byte		N06	
	.byte	W06
	.byte		N06	
	.byte	W06
	.byte			Cn3
	.byte	W06
	.byte			Bn1
	.byte	W06
	.byte		N06	
	.byte	W06
	.byte		N06	
	.byte	W06
	.byte			Bn2
	.byte	W06
	.byte			Bn1
	.byte	W06
	.byte		N06	
	.byte	W06
	.byte			As1
	.byte	W06
	.byte			As2
	.byte	W06
	.byte			As1
	.byte	W06
	.byte		N06	
	.byte	W06
	.byte			An1
	.byte	W06
	.byte			An3
	.byte	W06
	.byte			An2
	.byte	W06
	.byte			An1
	.byte	W06
	.byte	GOTO	
		.word	song0035_1_1
	.byte	W96
	.byte	FINE

	@********************** Track  2 **********************@

	.global song0035_2
song0035_2:	@ 0x08C731F6
	.byte	KEYSH	, 0
	.byte	VOICE	, 127
	.byte	VOL	, v098
	.byte	W03
song0035_2_1:
	.byte		N18	, Ds2, v120
	.byte	W24
	.byte		N18	
	.byte	W24
	.byte		N18	
	.byte	W24
	.byte		N18	
	.byte	W24
	.byte	PEND
song0035_2_2:
	.byte		N18	, Ds2, v120
	.byte	W24
	.byte		N18	
	.byte	W24
	.byte		N18	
	.byte	W18
	.byte		N06	, Ds2, v112
	.byte	W06
	.byte		N12	, Ds2, v120
	.byte	W12
	.byte		N12	
	.byte	W12
	.byte	PEND
	.byte	PATT	
		.word	song0035_2_1
	.byte		N18	, Ds2, v120
	.byte	W24
	.byte		N18	
	.byte	W24
	.byte		N18	
	.byte	W18
	.byte		N06	, Ds2, v112
	.byte	W06
	.byte			Gs2, v120
	.byte	W06
	.byte			Bn2
	.byte	W06
	.byte			As2
	.byte	W06
	.byte			An2
	.byte	W06
	.byte	PATT	
		.word	song0035_2_1
	.byte	PATT	
		.word	song0035_2_2
	.byte	PATT	
		.word	song0035_2_1
	.byte	PATT	
		.word	song0035_2_2
	.byte	PATT	
		.word	song0035_2_1
	.byte	PATT	
		.word	song0035_2_2
	.byte	PATT	
		.word	song0035_2_1
	.byte	PATT	
		.word	song0035_2_2
	.byte	PATT	
		.word	song0035_2_1
	.byte	PATT	
		.word	song0035_2_2
	.byte	PATT	
		.word	song0035_2_1
	.byte	PATT	
		.word	song0035_2_2
	.byte	PATT	
		.word	song0035_2_1
	.byte	PATT	
		.word	song0035_2_2
	.byte	PATT	
		.word	song0035_2_1
	.byte	PATT	
		.word	song0035_2_2
	.byte	PATT	
		.word	song0035_2_1
	.byte	PATT	
		.word	song0035_2_2
	.byte	PATT	
		.word	song0035_2_1
	.byte	PATT	
		.word	song0035_2_2
	.byte	PATT	
		.word	song0035_2_1
	.byte	PATT	
		.word	song0035_2_2
	.byte	PATT	
		.word	song0035_2_1
	.byte	PATT	
		.word	song0035_2_2
	.byte	PATT	
		.word	song0035_2_1
	.byte	PATT	
		.word	song0035_2_2
	.byte	PATT	
		.word	song0035_2_1
	.byte	PATT	
		.word	song0035_2_2
	.byte	PATT	
		.word	song0035_2_1
	.byte	PATT	
		.word	song0035_2_2
	.byte	PATT	
		.word	song0035_2_1
	.byte	PATT	
		.word	song0035_2_2
	.byte	GOTO	
		.word	song0035_2_1
	.byte	W96
	.byte	FINE

	@********************** Track  3 **********************@

	.global song0035_3
song0035_3:	@ 0x08C732DC
	.byte	KEYSH	, 0
	.byte	VOICE	, 127
	.byte	VOL	, v094
	.byte	W03
song0035_3_4:
	.byte		N24	, Cs2, v120
	.byte	W12
	.byte		N06	, Dn1, v060
	.byte	W06
	.byte			Dn1, v052
	.byte	W06
	.byte		N12	, Ds1, v072
	.byte	W12
	.byte		N06	, Dn1, v060
	.byte	W06
	.byte			Dn1, v052
	.byte	W06
	.byte		N12	, Ds1, v072
	.byte	W12
	.byte		N06	, Dn1, v060
	.byte	W06
	.byte			Dn1, v052
	.byte	W06
	.byte		N12	, Ds1, v072
	.byte	W12
	.byte		N06	, Dn1, v060
	.byte	W06
	.byte			Dn1, v052
	.byte	W06
	.byte	PEND
song0035_3_1:
	.byte		N12	, Ds1, v072
	.byte	W12
	.byte		N06	, Dn1, v060
	.byte	W06
	.byte			Dn1, v052
	.byte	W06
	.byte		N12	, Ds1, v072
	.byte	W12
	.byte		N06	, Dn1, v060
	.byte	W06
	.byte			Dn1, v052
	.byte	W06
	.byte		N12	, Ds1, v072
	.byte	W12
	.byte		N06	, Dn1, v060
	.byte	W06
	.byte			Dn1, v052
	.byte	W06
	.byte		N12	, Ds1, v072
	.byte	W12
	.byte		N06	, Dn1, v060
	.byte	W06
	.byte			Dn1, v052
	.byte	W06
	.byte	PEND
	.byte	PATT	
		.word	song0035_3_1
	.byte		N12	, Ds1, v072
	.byte	W12
	.byte		N06	, Dn1, v060
	.byte	W06
	.byte			Dn1, v052
	.byte	W06
	.byte		N12	, Ds1, v072
	.byte	W12
	.byte		N06	, Dn1, v060
	.byte	W06
	.byte			Dn1, v052
	.byte	W06
	.byte		N12	, Ds1, v072
	.byte	W12
	.byte		N06	, Dn1, v060
	.byte	W06
	.byte			Dn1, v052
	.byte	W06
	.byte		N12	, Ds1, v072
	.byte	W12
	.byte		N06	, Dn1, v060
	.byte	W06
	.byte			En1, v052
	.byte	W06
song0035_3_6:
	.byte		N24	, Cs2, v127
	.byte	W12
	.byte		N06	, Dn1, v060
	.byte	W06
	.byte			Dn1, v052
	.byte	W06
	.byte		N12	, Ds1, v072
	.byte	W12
	.byte		N06	, Dn1, v060
	.byte	W06
	.byte			Dn1, v052
	.byte	W06
	.byte		N12	, Ds1, v072
	.byte	W12
	.byte		N06	, Dn1, v060
	.byte	W06
	.byte			Dn1, v052
	.byte	W06
	.byte		N12	, Ds1, v072
	.byte	W12
	.byte		N06	, Dn1, v060
	.byte	W06
	.byte			Dn1, v052
	.byte	W06
	.byte	PEND
	.byte	PATT	
		.word	song0035_3_1
	.byte	PATT	
		.word	song0035_3_1
song0035_3_2:
	.byte		N11	, Ds1, v072
	.byte	W12
	.byte		N06	, Dn1, v060
	.byte	W06
	.byte			Dn1, v052
	.byte	W06
	.byte		N12	, Ds1, v072
	.byte	W12
	.byte		N06	, Dn1, v060
	.byte	W06
	.byte			Dn1, v052
	.byte	W06
	.byte		N12	, Ds1, v072
	.byte	W12
	.byte		N06	, Dn1, v060
	.byte	W06
	.byte			Dn1, v052
	.byte	W06
	.byte		N12	, Ds1, v072
	.byte	W12
	.byte		N06	, Dn1, v060
	.byte	W06
	.byte			Dn1, v052
	.byte	W06
	.byte	PEND
	.byte	PATT	
		.word	song0035_3_1
song0035_3_3:
	.byte		N12	, Ds1, v072
	.byte	W12
	.byte		N06	, Dn1, v060
	.byte	W06
	.byte			Dn1, v052
	.byte	W06
	.byte		N12	, Ds1, v072
	.byte	W12
	.byte		N06	, Dn1, v060
	.byte	W06
	.byte			Dn1, v052
	.byte	W06
	.byte			En1, v080
	.byte	W06
	.byte			Dn1, v060
	.byte	W06
	.byte			Ds1, v072
	.byte	W06
	.byte			Dn1, v060
	.byte	W06
	.byte			En1, v080
	.byte	W06
	.byte			Dn1, v060
	.byte	W06
	.byte			Ds1, v072
	.byte	W06
	.byte			Dn1, v060
	.byte	W06
	.byte	PEND
	.byte	PATT	
		.word	song0035_3_2
	.byte	PATT	
		.word	song0035_3_3
	.byte		N36	, Fs2, v120
	.byte	W12
	.byte		N06	, Dn1, v060
	.byte	W06
	.byte			Dn1, v052
	.byte	W06
	.byte			Dn1, v072
	.byte	W06
	.byte			Dn1, v052
	.byte	W06
	.byte			Dn1, v060
	.byte	W06
	.byte			Dn1, v052
	.byte	W06
	.byte			Dn1, v072
	.byte	W06
	.byte			Dn1, v052
	.byte	W06
	.byte			Dn1, v060
	.byte	W06
	.byte			Dn1, v052
	.byte	W06
	.byte			Dn1, v072
	.byte	W06
	.byte			Dn1, v052
	.byte	W06
	.byte			Dn1, v060
	.byte	W06
	.byte			Dn1, v052
	.byte	W06
	.byte			Dn1, v072
	.byte	W06
	.byte			Dn1, v052
	.byte	W06
	.byte			Dn1, v060
	.byte	W06
	.byte			Dn1, v052
	.byte	W06
	.byte			Dn1, v072
	.byte	W06
	.byte			Dn1, v052
	.byte	W06
	.byte			Dn1, v060
	.byte	W06
	.byte			Dn1, v052
	.byte	W06
	.byte			Ds1, v072
	.byte	W06
	.byte			Dn1, v052
	.byte	W06
	.byte			Dn1, v060
	.byte	W06
	.byte			Dn1, v052
	.byte	W06
	.byte			Dn1, v072
	.byte	W06
	.byte			Dn1, v052
	.byte	W06
	.byte			Ds1, v072
	.byte	W06
	.byte			Dn1, v052
	.byte	W06
	.byte			Dn1, v072
	.byte	W06
	.byte			Dn1, v052
	.byte	W06
	.byte			Dn1, v060
	.byte	W06
	.byte			Dn1, v052
	.byte	W06
	.byte			Dn1, v072
	.byte	W06
	.byte			Dn1, v052
	.byte	W06
	.byte			Dn1, v060
	.byte	W06
	.byte			Dn1, v052
	.byte	W06
	.byte			Dn1, v072
	.byte	W06
	.byte			Dn1, v052
	.byte	W06
	.byte			Dn1, v060
	.byte	W06
	.byte			Dn1, v052
	.byte	W06
	.byte			Dn1, v072
	.byte	W06
	.byte			Dn1, v052
	.byte	W06
	.byte			Dn1, v060
	.byte	W06
	.byte			Dn1, v052
	.byte	W06
	.byte			Dn1, v072
	.byte	W06
	.byte			Dn1, v052
	.byte	W06
	.byte			Dn1, v060
	.byte	W06
	.byte			Dn1, v052
	.byte	W06
	.byte			Dn1, v072
	.byte	W06
	.byte			Dn1, v052
	.byte	W06
	.byte			Dn1, v060
	.byte	W06
	.byte			Dn1, v052
	.byte	W06
	.byte			Dn1, v072
	.byte	W06
	.byte			Dn1, v052
	.byte	W06
	.byte			Ds1, v080
	.byte	W06
	.byte			Dn1, v052
	.byte	W06
	.byte			Dn1, v072
	.byte	W06
	.byte			Dn1, v052
	.byte	W06
	.byte		N12	, Ds1, v080
	.byte	W12
	.byte	PATT	
		.word	song0035_3_4
	.byte	PATT	
		.word	song0035_3_1
	.byte	PATT	
		.word	song0035_3_1
	.byte		N12	, Ds1, v072
	.byte	W12
	.byte		N06	, Dn1, v060
	.byte	W06
	.byte			Dn1, v052
	.byte	W06
	.byte		N12	, Ds1, v072
	.byte	W12
	.byte		N06	, Dn1, v060
	.byte	W06
	.byte			Dn1, v052
	.byte	W06
	.byte			Ds1, v060
	.byte	W06
	.byte		N06	
	.byte	W06
	.byte			En1
	.byte	W06
	.byte			Ds1
	.byte	W06
	.byte		N06	
	.byte	W06
	.byte		N06	
	.byte	W06
	.byte			En1
	.byte	W06
	.byte			Ds1
	.byte	W06
	.byte		N24	, Fs2, v120
	.byte	W12
	.byte		N06	, Dn1, v060
	.byte	W06
	.byte			Dn1, v052
	.byte	W06
	.byte		N12	, En1, v072
	.byte	W12
	.byte		N06	, Ds1, v060
	.byte	W06
	.byte			Ds1, v052
	.byte	W06
	.byte		N12	, En1, v072
	.byte	W12
	.byte		N06	, Ds1, v060
	.byte	W06
	.byte			Ds1, v052
	.byte	W06
	.byte		N12	, En1, v072
	.byte	W12
	.byte		N06	, Ds1, v060
	.byte	W06
	.byte			Ds1, v052
	.byte	W06
song0035_3_5:
	.byte		N12	, En1, v072
	.byte	W12
	.byte		N06	, Ds1, v060
	.byte	W06
	.byte			Ds1, v052
	.byte	W06
	.byte		N12	, En1, v072
	.byte	W12
	.byte		N06	, Ds1, v060
	.byte	W06
	.byte			Ds1, v052
	.byte	W06
	.byte		N12	, En1, v072
	.byte	W12
	.byte		N06	, Ds1, v060
	.byte	W06
	.byte			Ds1, v052
	.byte	W06
	.byte		N12	, En1, v072
	.byte	W12
	.byte		N06	, Ds1, v060
	.byte	W06
	.byte			Ds1, v052
	.byte	W06
	.byte	PEND
	.byte	PATT	
		.word	song0035_3_5
	.byte		N12	, En1, v072
	.byte	W12
	.byte		N06	, Ds1, v060
	.byte	W06
	.byte			Ds1, v052
	.byte	W06
	.byte		N12	, En1, v072
	.byte	W12
	.byte		N06	, Ds1, v060
	.byte	W06
	.byte			Ds1, v052
	.byte	W06
	.byte			En1, v060
	.byte	W06
	.byte		N06	
	.byte	W06
	.byte			Fn1
	.byte	W06
	.byte			En1
	.byte	W06
	.byte		N06	
	.byte	W06
	.byte		N06	
	.byte	W06
	.byte			Fn1
	.byte	W06
	.byte			En1
	.byte	W06
	.byte	PATT	
		.word	song0035_3_6
	.byte	PATT	
		.word	song0035_3_1
	.byte	PATT	
		.word	song0035_3_1
	.byte		N12	, Ds1, v072
	.byte	W12
	.byte		N06	, Dn1, v060
	.byte	W06
	.byte			Dn1, v052
	.byte	W06
	.byte		N12	, Ds1, v072
	.byte	W12
	.byte		N06	, Dn1, v060
	.byte	W06
	.byte			Dn1, v052
	.byte	W06
	.byte		N12	, En1, v072
	.byte	W12
	.byte		N06	, Ds1, v060
	.byte	W06
	.byte			Ds1, v052
	.byte	W06
	.byte		N12	, En1, v072
	.byte	W12
	.byte		N06	, Ds1, v060
	.byte	W06
	.byte			Ds1, v052
	.byte	W06
song0035_3_7:
	.byte		N24	, Gn2, v127
	.byte	W12
	.byte		N06	, Dn1, v060
	.byte	W06
	.byte			Dn1, v052
	.byte	W06
	.byte		N12	, Ds1, v072
	.byte	W12
	.byte		N06	, Dn1, v060
	.byte	W06
	.byte			Dn1, v052
	.byte	W06
	.byte		N12	, Ds1, v072
	.byte	W12
	.byte		N06	, Dn1, v060
	.byte	W06
	.byte			Dn1, v052
	.byte	W06
	.byte		N12	, Ds1, v072
	.byte	W12
	.byte		N06	, Dn1, v060
	.byte	W06
	.byte			Dn1, v052
	.byte	W06
	.byte	PEND
	.byte	PATT	
		.word	song0035_3_1
	.byte		N24	, Cs2, v127
	.byte	W12
	.byte		N06	, Dn1, v060
	.byte	W06
	.byte			Dn1, v052
	.byte	W06
	.byte		N12	, Ds1, v072
	.byte	W12
	.byte		N06	, Dn1, v060
	.byte	W06
	.byte			Dn1, v052
	.byte	W06
	.byte		N12	, Ds1, v072
	.byte	W12
	.byte		N06	, Dn1, v060
	.byte	W06
	.byte			Dn1, v052
	.byte	W06
	.byte		N12	, En1, v072
	.byte	W12
	.byte		N06	, Ds1, v060
	.byte	W06
	.byte			Ds1, v052
	.byte	W06
	.byte			Ds1, v060
	.byte	W06
	.byte			Ds1, v052
	.byte	W06
	.byte		N12	, En1, v072
	.byte	W12
	.byte		N06	, Ds1, v060
	.byte	W06
	.byte			Ds1, v052
	.byte	W06
	.byte			Ds1, v080
	.byte	W06
	.byte		N06	
	.byte	W06
	.byte			En1
	.byte	W06
	.byte			Ds1
	.byte	W06
	.byte		N06	
	.byte	W06
	.byte		N06	
	.byte	W06
	.byte			En1
	.byte	W06
	.byte			Ds1
	.byte	W06
	.byte		N12	
	.byte	W12
	.byte		N24	, Cs2, v127
	.byte	W12
	.byte		N06	, Dn1, v060
	.byte	W06
	.byte			Dn1, v052
	.byte	W06
	.byte			Dn1, v072
	.byte	W06
	.byte			Dn1, v052
	.byte	W06
	.byte			Dn1, v060
	.byte	W06
	.byte			Dn1, v052
	.byte	W06
	.byte			Dn1, v072
	.byte	W06
	.byte			Dn1, v052
	.byte	W06
	.byte			Dn1, v060
	.byte	W06
	.byte			Dn1, v052
	.byte	W06
	.byte			Dn1, v072
	.byte	W06
	.byte			Dn1, v052
	.byte	W06
	.byte			Dn1, v060
	.byte	W06
	.byte			Dn1, v052
	.byte	W06
	.byte			Dn1, v072
	.byte	W06
	.byte			Dn1, v052
	.byte	W06
	.byte			Dn1, v060
	.byte	W06
	.byte			Dn1, v052
	.byte	W06
	.byte			Dn1, v072
	.byte	W06
	.byte			Dn1, v052
	.byte	W06
	.byte			Dn1, v060
	.byte	W06
	.byte			Dn1, v052
	.byte	W06
	.byte		N12	, Ds1, v072
	.byte	W12
	.byte		N06	, Dn1, v060
	.byte	W06
	.byte			Dn1, v052
	.byte	W06
	.byte		N12	, En1, v072
	.byte	W12
	.byte		N06	, Ds1, v060
	.byte	W06
	.byte			Ds1, v052
	.byte	W06
	.byte	PATT	
		.word	song0035_3_7
	.byte	PATT	
		.word	song0035_3_1
	.byte	GOTO	
		.word	song0035_3_4
	.byte	W96
	.byte	FINE

	@********************** Track  4 **********************@

	.global song0035_4
song0035_4:	@ 0x08C736B3
	.byte	KEYSH	, 0
	.byte	VOICE	, 115
	.byte	VOL	, v062
	.byte	W03
song0035_4_1:
	.byte	W96
	.byte	W96
	.byte	W96
	.byte	W96
	.byte	W96
	.byte	W96
	.byte	W96
	.byte	W96
	.byte	W96
	.byte	W96
	.byte	W96
	.byte	W96
	.byte	W96
	.byte	W96
	.byte	W96
	.byte	W96
	.byte	W96
	.byte	W96
	.byte	W96
	.byte	W96
	.byte	W96
	.byte	W96
	.byte	W96
	.byte	W96
	.byte	W06
	.byte		N06	, As3, v100
	.byte	W06
	.byte		N06	
	.byte	W06
	.byte		N06	
	.byte	W06
	.byte		N06	
	.byte	W06
	.byte		N06	
	.byte	W06
	.byte			An3
	.byte	W06
	.byte		N06	
	.byte	W06
	.byte			An2
	.byte	W06
	.byte		N06	
	.byte	W06
	.byte		N06	
	.byte	W06
	.byte			An3
	.byte	W06
	.byte			Gs3
	.byte	W06
	.byte		N06	
	.byte	W06
	.byte			Gs2
	.byte	W06
	.byte		N06	
	.byte	W06
	.byte			Gn2
	.byte	W06
	.byte			Gn3
	.byte	W06
	.byte		N06	
	.byte	W06
	.byte		N06	
	.byte	W06
	.byte		N06	
	.byte	W06
	.byte		N06	
	.byte	W06
	.byte			Fs3
	.byte	W06
	.byte		N06	
	.byte	W06
	.byte			Fs2
	.byte	W06
	.byte		N06	
	.byte	W06
	.byte		N06	
	.byte	W06
	.byte			Fs3
	.byte	W06
	.byte			Fn3
	.byte	W06
	.byte		N06	
	.byte	W06
	.byte			Fn2
	.byte	W06
	.byte		N06	
	.byte	W06
	.byte			En2
	.byte	W06
	.byte			En3
	.byte	W06
	.byte		N06	
	.byte	W06
	.byte		N06	
	.byte	W06
	.byte		N06	
	.byte	W06
	.byte		N06	
	.byte	W06
	.byte			Ds3
	.byte	W06
	.byte		N06	
	.byte	W06
	.byte			Ds2
	.byte	W06
	.byte		N06	
	.byte	W06
	.byte		N06	
	.byte	W06
	.byte			Ds3
	.byte	W06
	.byte			Dn3
	.byte	W06
	.byte		N06	
	.byte	W06
	.byte			Dn2
	.byte	W06
	.byte		N06	
	.byte	W06
	.byte			Cs2
	.byte	W06
	.byte			Cs3
	.byte	W06
	.byte		N06	
	.byte	W06
	.byte		N06	
	.byte	W06
	.byte		N06	
	.byte	W06
	.byte		N06	
	.byte	W06
	.byte			Cn3
	.byte	W06
	.byte		N06	
	.byte	W06
	.byte			Cn2
	.byte	W06
	.byte		N06	
	.byte	W06
	.byte		N06	
	.byte	W06
	.byte			Cn3
	.byte	W06
	.byte			Bn2
	.byte	W06
	.byte		N06	
	.byte	W06
	.byte			Bn1
	.byte	W06
	.byte		N06	
	.byte	W06
	.byte			As1
	.byte	W06
	.byte			As2
	.byte	W06
	.byte		N06	
	.byte	W06
	.byte		N06	
	.byte	W06
	.byte		N06	
	.byte	W06
	.byte		N06	
	.byte	W06
	.byte			An2
	.byte	W06
	.byte		N06	
	.byte	W06
	.byte			An1
	.byte	W06
	.byte		N06	
	.byte	W06
	.byte		N06	
	.byte	W06
	.byte			An2
	.byte	W06
	.byte			Gs2
	.byte	W06
	.byte		N06	
	.byte	W06
	.byte			Gs1
	.byte	W06
	.byte		N06	
	.byte	W06
	.byte			Gn1
	.byte	W06
	.byte			Gn2
	.byte	W06
	.byte		N06	
	.byte	W06
	.byte		N06	
	.byte	W06
	.byte		N06	
	.byte	W06
	.byte		N06	
	.byte	W06
	.byte			Fs2
	.byte	W06
	.byte		N06	
	.byte	W06
	.byte			Fs1
	.byte	W06
	.byte		N06	
	.byte	W06
	.byte		N06	
	.byte	W06
	.byte			Fs2
	.byte	W06
	.byte			Fn2
	.byte	W06
	.byte		N06	
	.byte	W06
	.byte			Fn1
	.byte	W06
	.byte		N06	
	.byte	W06
	.byte			En1
	.byte	W06
	.byte			En2
	.byte	W06
	.byte		N06	
	.byte	W06
	.byte		N06	
	.byte	W06
	.byte		N06	
	.byte	W06
	.byte		N06	
	.byte	W06
	.byte			Ds2
	.byte	W06
	.byte		N06	
	.byte	W06
	.byte			Ds1
	.byte	W06
	.byte		N06	
	.byte	W06
	.byte		N06	
	.byte	W06
	.byte			Ds2
	.byte	W06
	.byte			Dn2
	.byte	W06
	.byte		N06	
	.byte	W06
	.byte			Dn1
	.byte	W06
	.byte		N06	
	.byte	W06
	.byte			Cs1
	.byte	W06
	.byte			Cs2
	.byte	W06
	.byte		N06	
	.byte	W06
	.byte		N06	
	.byte	W06
	.byte		N06	
	.byte	W06
	.byte		N06	
	.byte	W06
	.byte			Cn2
	.byte	W06
	.byte		N06	
	.byte	W06
	.byte			Cn1
	.byte	W06
	.byte		N06	
	.byte	W06
	.byte		N06	
	.byte	W06
	.byte			Cn2
	.byte	W06
	.byte			Bn1
	.byte	W06
	.byte		N06	
	.byte	W06
	.byte			Bn0
	.byte	W06
	.byte		N06	
	.byte	W06
	.byte	W96
	.byte	W96
	.byte	W96
	.byte	W96
	.byte	GOTO	
		.word	song0035_4_1
	.byte	W96
	.byte	FINE

	@********************** Track  5 **********************@

	.global song0035_5
song0035_5:	@ 0x08C737DE
	.byte	KEYSH	, 0
	.byte	VOICE	, 2
	.byte	PAN	, c_v-30
	.byte	MOD	, 5
	.byte	W03
song0035_5_3:
	.byte	W96
	.byte	VOL	, v047
	.byte	W96
	.byte	W96
	.byte	W84
	.byte		N06	, Cn4, v120
	.byte	W06
	.byte			Cs4
	.byte	W06
	.byte			Ds4
	.byte	W06
	.byte			En4
	.byte	W06
	.byte			Ds4
	.byte	W06
	.byte			Cs4
	.byte	W06
	.byte			Cn4
	.byte	W06
	.byte			Cs4
	.byte	W06
	.byte			Ds4
	.byte	W06
	.byte			En4
	.byte	W06
	.byte			Ds4
	.byte	W06
	.byte			Cs4
	.byte	W06
	.byte			Cn4
	.byte	W06
	.byte			Cs4
	.byte	W06
	.byte			Ds4
	.byte	W06
	.byte			En4
	.byte	W06
	.byte			Ds4
	.byte	W06
	.byte			Cs4
	.byte	W06
	.byte			Cn4
	.byte	W06
	.byte			Cs4
	.byte	W06
	.byte			Ds4
	.byte	W06
	.byte			En4
	.byte	W06
	.byte			Ds4
	.byte	W06
	.byte			Cs4
	.byte	W06
	.byte			Cn4
	.byte	W06
	.byte			Cs4
	.byte	W06
	.byte			Ds4
	.byte	W06
	.byte			Cs4
	.byte	W06
	.byte			Cn4
	.byte	W06
	.byte			Cs4
	.byte	W06
	.byte			Cn4
	.byte	W06
	.byte			Bn3
	.byte	W06
	.byte			Gs3
	.byte	W06
	.byte			Gn3
	.byte	W06
	.byte			As3
	.byte	W06
	.byte			Gs3
	.byte	W06
	.byte			Gn3
	.byte	W06
	.byte			Fn3
	.byte	W06
	.byte			Gn3
	.byte	W06
	.byte			Gs3
	.byte	W06
	.byte			As3
	.byte	W06
	.byte			Gs3
	.byte	W06
	.byte			Gn3
	.byte	W06
	.byte			Fn3
	.byte	W06
	.byte			Gn3
	.byte	W06
	.byte			Gs3
	.byte	W06
	.byte			As3
	.byte	W06
	.byte			Gs3
	.byte	W06
	.byte			Gn3
	.byte	W06
	.byte			Fn3
	.byte	W06
	.byte			Gn3
	.byte	W06
	.byte			Gs3
	.byte	W06
	.byte			As3
	.byte	W06
	.byte			Gs3
	.byte	W06
	.byte			Gn3
	.byte	W06
	.byte			Fn3
	.byte	W06
	.byte			Gn3
	.byte	W06
	.byte			Gs3
	.byte	W06
	.byte			An3
	.byte	W06
	.byte			Gs3
	.byte	W06
	.byte			Fn3
	.byte	W06
	.byte			Gs3
	.byte	W06
	.byte			Fn3
	.byte	W06
	.byte			En3
	.byte	W06
	.byte			Fn3
	.byte	W06
	.byte			En3
	.byte	W06
	.byte	W96
	.byte	W96
	.byte	VOL	, v039
	.byte	W96
	.byte	W96
	.byte	W96
	.byte	W96
	.byte	W96
	.byte	W96
	.byte		N04	, Gn3, v080
	.byte	W04
	.byte			Gn4
	.byte	W04
	.byte			Gn3
	.byte	W04
	.byte			Gn4
	.byte	W04
	.byte			Gn3
	.byte	W04
	.byte			Gn4
	.byte	W04
	.byte			Gn3
	.byte	W04
	.byte			Gn4
	.byte	W04
	.byte			Gn3
	.byte	W04
	.byte			Fs4
	.byte	W04
	.byte			Fs3
	.byte	W04
	.byte			Fs4
	.byte	W04
	.byte			Fs3
	.byte	W04
	.byte			Fs4
	.byte	W04
	.byte			Fs3
	.byte	W04
	.byte			Fs4
	.byte	W04
	.byte			Fs3
	.byte	W04
	.byte			Fs4
	.byte	W04
	.byte			Fn3
	.byte	W04
	.byte			Fn4
	.byte	W04
	.byte			Fn3
	.byte	W04
	.byte			Fn4
	.byte	W04
	.byte			Fn3
	.byte	W04
	.byte			Fn4
	.byte	W04
	.byte			Fn3
	.byte	W04
	.byte			Fn4
	.byte	W04
	.byte			Fn3
	.byte	W04
	.byte			En4
	.byte	W04
	.byte			En3
	.byte	W04
	.byte			En4
	.byte	W04
	.byte			En3
	.byte	W04
	.byte			En4
	.byte	W04
	.byte			En3
	.byte	W04
	.byte			En4
	.byte	W04
	.byte			En3
	.byte	W04
	.byte			En4
	.byte	W04
	.byte			Ds3
	.byte	W04
	.byte			Ds4
	.byte	W04
	.byte			Ds3
	.byte	W04
	.byte			Ds4
	.byte	W04
	.byte			Ds3
	.byte	W04
	.byte			Ds4
	.byte	W04
	.byte			Dn3
	.byte	W04
	.byte			Dn4
	.byte	W04
	.byte			Dn3
	.byte	W04
	.byte			Dn4
	.byte	W04
	.byte			Dn3
	.byte	W04
	.byte			Dn4
	.byte	W04
song0035_5_1:
	.byte		N04	, Gn4, v080
	.byte	W04
	.byte			Dn5
	.byte	W04
	.byte			Gn4
	.byte	W04
	.byte			Dn5
	.byte	W04
	.byte			Gn4
	.byte	W04
	.byte			Dn5
	.byte	W04
	.byte			Gn4
	.byte	W04
	.byte			Dn5
	.byte	W04
	.byte			Gn4
	.byte	W04
	.byte			Cs5
	.byte	W04
	.byte			Fs4
	.byte	W04
	.byte			Cs5
	.byte	W04
	.byte			Fs4
	.byte	W04
	.byte			Cs5
	.byte	W04
	.byte			Fs4
	.byte	W04
	.byte			Cs5
	.byte	W04
	.byte			Fs4
	.byte	W04
	.byte			Cs5
	.byte	W04
	.byte			Fn4
	.byte	W04
	.byte			Cn5
	.byte	W04
	.byte			Fn4
	.byte	W04
	.byte			Cn5
	.byte	W04
	.byte			Fn4
	.byte	W04
	.byte			Cn5
	.byte	W04
	.byte	PEND
song0035_5_2:
	.byte		N04	, Fn4, v080
	.byte	W04
	.byte			Cn5
	.byte	W04
	.byte			Fn4
	.byte	W04
	.byte			Bn4
	.byte	W04
	.byte			En4
	.byte	W04
	.byte			Bn4
	.byte	W04
	.byte			En4
	.byte	W04
	.byte			Bn4
	.byte	W04
	.byte			En4
	.byte	W04
	.byte			Bn4
	.byte	W04
	.byte			En4
	.byte	W04
	.byte			Bn4
	.byte	W04
	.byte			Ds4
	.byte	W04
	.byte			As4
	.byte	W04
	.byte			Ds4
	.byte	W04
	.byte			As4
	.byte	W04
	.byte			Ds4
	.byte	W04
	.byte			As4
	.byte	W04
	.byte			Dn4
	.byte	W04
	.byte			An4
	.byte	W04
	.byte			Dn4
	.byte	W04
	.byte			An4
	.byte	W04
	.byte			Dn4
	.byte	W04
	.byte			An4
	.byte	W04
	.byte	PEND
	.byte		N04	
	.byte	W04
	.byte			An5
	.byte	W04
	.byte			An4
	.byte	W04
	.byte			An5
	.byte	W04
	.byte			An4
	.byte	W04
	.byte			An5
	.byte	W04
	.byte			An4
	.byte	W04
	.byte			An5
	.byte	W04
	.byte			An4
	.byte	W04
	.byte			Gs5
	.byte	W04
	.byte			Gs4
	.byte	W04
	.byte			Gs5
	.byte	W04
	.byte			Gs4
	.byte	W04
	.byte			Gs5
	.byte	W04
	.byte			Gs4
	.byte	W04
	.byte			Gs5
	.byte	W04
	.byte			Gs4
	.byte	W04
	.byte			Gs5
	.byte	W04
	.byte			Gn4
	.byte	W04
	.byte			Gn5
	.byte	W04
	.byte			Gn4
	.byte	W04
	.byte			Gn5
	.byte	W04
	.byte			Gn4
	.byte	W04
	.byte			Gn5
	.byte	W04
	.byte			Gn4
	.byte	W04
	.byte			Gn5
	.byte	W04
	.byte			Gn4
	.byte	W04
	.byte			Fs5
	.byte	W04
	.byte			Fs4
	.byte	W04
	.byte			Fs5
	.byte	W04
	.byte			Fs4
	.byte	W04
	.byte			Fs5
	.byte	W04
	.byte			Fs4
	.byte	W04
	.byte			Fs5
	.byte	W04
	.byte			Fs4
	.byte	W04
	.byte			Fs5
	.byte	W04
	.byte			Fn4
	.byte	W04
	.byte			Fn5
	.byte	W04
	.byte			Fn4
	.byte	W04
	.byte			Fn5
	.byte	W04
	.byte			Fn4
	.byte	W04
	.byte			Fn5
	.byte	W04
	.byte			En4
	.byte	W04
	.byte			En5
	.byte	W04
	.byte			En4
	.byte	W04
	.byte			En5
	.byte	W04
	.byte			En4
	.byte	W04
	.byte			En5
	.byte	W04
	.byte	PATT	
		.word	song0035_5_1
	.byte	PATT	
		.word	song0035_5_2
	.byte	W96
	.byte	W96
	.byte	W96
	.byte	W96
	.byte	W96
	.byte	W96
	.byte	W96
	.byte	W96
	.byte	W96
	.byte	W96
	.byte		N04	, Dn3, v080
	.byte	W04
	.byte			Dn4
	.byte	W04
	.byte			Dn3
	.byte	W04
	.byte			Dn4
	.byte	W04
	.byte			Dn3
	.byte	W04
	.byte			Dn4
	.byte	W04
	.byte			Dn3
	.byte	W04
	.byte			Dn4
	.byte	W04
	.byte			Dn3
	.byte	W04
	.byte			Cs4
	.byte	W04
	.byte			Cs3
	.byte	W04
	.byte			Cs4
	.byte	W04
	.byte			Cs3
	.byte	W04
	.byte			Cs4
	.byte	W04
	.byte			Cs3
	.byte	W04
	.byte			Cs4
	.byte	W04
	.byte			Cs3
	.byte	W04
	.byte			Cs4
	.byte	W04
	.byte			Cn3
	.byte	W04
	.byte			Cn4
	.byte	W04
	.byte			Cn3
	.byte	W04
	.byte			Cn4
	.byte	W04
	.byte			Cn3
	.byte	W04
	.byte			Cn4
	.byte	W04
	.byte			Cn3
	.byte	W04
	.byte			Cn4
	.byte	W04
	.byte			Cn3
	.byte	W04
	.byte			Bn3
	.byte	W04
	.byte			Bn2
	.byte	W04
	.byte			Bn3
	.byte	W04
	.byte			Bn2
	.byte	W04
	.byte			Bn3
	.byte	W04
	.byte			Bn2
	.byte	W04
	.byte			Bn3
	.byte	W04
	.byte			Bn2
	.byte	W04
	.byte			Bn3
	.byte	W04
	.byte			As2
	.byte	W04
	.byte			As3
	.byte	W04
	.byte			As2
	.byte	W04
	.byte			As3
	.byte	W04
	.byte			As2
	.byte	W04
	.byte			As3
	.byte	W04
	.byte			An2
	.byte	W04
	.byte			An3
	.byte	W04
	.byte			An2
	.byte	W04
	.byte			An3
	.byte	W04
	.byte			An2
	.byte	W04
	.byte			An3
	.byte	W04
	.byte	GOTO	
		.word	song0035_5_3
	.byte	W96
	.byte	FINE

	@********************** Track  6 **********************@

	.global song0035_6
song0035_6:	@ 0x08C73A22
	.byte	KEYSH	, 0
	.byte	VOICE	, 12
	.byte	VOL	, v078
	.byte	PAN	, c_v+30
	.byte	MOD	, 0
	.byte	W03
song0035_6_1:
	.byte	W96
	.byte	W96
	.byte	W96
	.byte	W84
	.byte		N06	, Cn3, v120
	.byte	W06
	.byte			Cs3
	.byte	W06
	.byte			Ds3
	.byte	W06
	.byte			En3
	.byte	W06
	.byte			Ds3
	.byte	W06
	.byte			Cs3
	.byte	W06
	.byte			Cn3
	.byte	W06
	.byte			Cs3
	.byte	W06
	.byte			Ds3
	.byte	W06
	.byte			En3
	.byte	W06
	.byte			Ds3
	.byte	W06
	.byte			Cs3
	.byte	W06
	.byte			Cn3
	.byte	W06
	.byte			Cs3
	.byte	W06
	.byte			Ds3
	.byte	W06
	.byte			En3
	.byte	W06
	.byte			Ds3
	.byte	W06
	.byte			Cs3
	.byte	W06
	.byte			Cn3
	.byte	W06
	.byte			Cs3
	.byte	W06
	.byte			Ds3
	.byte	W06
	.byte			En3
	.byte	W06
	.byte			Ds3
	.byte	W06
	.byte			Cs3
	.byte	W06
	.byte			Cn3
	.byte	W06
	.byte			Cs3
	.byte	W06
	.byte			Ds3
	.byte	W06
	.byte			Cs3
	.byte	W06
	.byte			Cn3
	.byte	W06
	.byte			Cs3
	.byte	W06
	.byte			Cn3
	.byte	W06
	.byte			Bn2
	.byte	W06
	.byte			Gs2
	.byte	W06
	.byte			Gn2
	.byte	W06
	.byte			As2
	.byte	W06
	.byte			Gs2
	.byte	W06
	.byte			Gn2
	.byte	W06
	.byte			Fn2
	.byte	W06
	.byte			Gn2
	.byte	W06
	.byte			Gs2
	.byte	W06
	.byte			As2
	.byte	W06
	.byte			Gs2
	.byte	W06
	.byte			Gn2
	.byte	W06
	.byte			Fn2
	.byte	W06
	.byte			Gn2
	.byte	W06
	.byte			Gs2
	.byte	W06
	.byte			As2
	.byte	W06
	.byte			Gs2
	.byte	W06
	.byte			Gn2
	.byte	W06
	.byte			Fn2
	.byte	W06
	.byte			Gn2
	.byte	W06
	.byte			Gs2
	.byte	W06
	.byte			As2
	.byte	W06
	.byte			Gs2
	.byte	W06
	.byte			Gn2
	.byte	W06
	.byte			Fn2
	.byte	W06
	.byte			Gn2
	.byte	W06
	.byte			Gs2
	.byte	W06
	.byte			An2
	.byte	W06
	.byte			Gs2
	.byte	W06
	.byte			Fn2
	.byte	W06
	.byte			Gs2
	.byte	W06
	.byte			Fn2
	.byte	W06
	.byte			En2
	.byte	W06
	.byte			Fn2
	.byte	W06
	.byte			En2
	.byte	W06
	.byte	W96
	.byte	W96
	.byte	W96
	.byte	W96
	.byte	W96
	.byte	W96
	.byte	W96
	.byte	W96
	.byte		N04	, Gn4, v080
	.byte	W04
	.byte			Dn4
	.byte	W04
	.byte			Gn4
	.byte	W04
	.byte			Dn4
	.byte	W04
	.byte			Gn4
	.byte	W04
	.byte			Dn4
	.byte	W04
	.byte			Gn4
	.byte	W04
	.byte			Dn4
	.byte	W04
	.byte			Gn4
	.byte	W04
	.byte			Cs4
	.byte	W04
	.byte			Fs4
	.byte	W04
	.byte			Cs4
	.byte	W04
	.byte			Fs4
	.byte	W04
	.byte			Cs4
	.byte	W04
	.byte			Fs4
	.byte	W04
	.byte			Cs4
	.byte	W04
	.byte			Fs4
	.byte	W04
	.byte			Cs4
	.byte	W04
	.byte			Fn4
	.byte	W04
	.byte			Cn4
	.byte	W04
	.byte			Fn4
	.byte	W04
	.byte			Cn4
	.byte	W04
	.byte			Fn4
	.byte	W04
	.byte			Cn4
	.byte	W04
	.byte			Fn4
	.byte	W04
	.byte			Cn4
	.byte	W04
	.byte			Fn4
	.byte	W04
	.byte			Bn3
	.byte	W04
	.byte			En4
	.byte	W04
	.byte			Bn3
	.byte	W04
	.byte			En4
	.byte	W04
	.byte			Bn3
	.byte	W04
	.byte			En4
	.byte	W04
	.byte			Bn3
	.byte	W04
	.byte			En4
	.byte	W04
	.byte			Bn3
	.byte	W04
	.byte			Ds4
	.byte	W04
	.byte			As3
	.byte	W04
	.byte			Ds4
	.byte	W04
	.byte			As3
	.byte	W04
	.byte			Ds4
	.byte	W04
	.byte			As3
	.byte	W04
	.byte			Dn4
	.byte	W04
	.byte			An3
	.byte	W04
	.byte			Dn4
	.byte	W04
	.byte			An3
	.byte	W04
	.byte			Dn4
	.byte	W04
	.byte			An3
	.byte	W04
	.byte			Gn5
	.byte	W04
	.byte			Gn4
	.byte	W04
	.byte			Gn5
	.byte	W04
	.byte			Gn4
	.byte	W04
	.byte			Gn5
	.byte	W04
	.byte			Gn4
	.byte	W04
	.byte			Gn5
	.byte	W04
	.byte			Gn4
	.byte	W04
	.byte			Gn5
	.byte	W04
	.byte			Fs4
	.byte	W04
	.byte			Fs5
	.byte	W04
	.byte			Fs4
	.byte	W04
	.byte			Fs5
	.byte	W04
	.byte			Fs4
	.byte	W04
	.byte			Fs5
	.byte	W04
	.byte			Fs4
	.byte	W04
	.byte			Fs5
	.byte	W04
	.byte			Fs4
	.byte	W04
	.byte			Fn5
	.byte	W04
	.byte			Fn4
	.byte	W04
	.byte			Fn5
	.byte	W04
	.byte			Fn4
	.byte	W04
	.byte			Fn5
	.byte	W04
	.byte			Fn4
	.byte	W04
	.byte			Fn5
	.byte	W04
	.byte			Fn4
	.byte	W04
	.byte			Fn5
	.byte	W04
	.byte			En4
	.byte	W04
	.byte			En5
	.byte	W04
	.byte			En4
	.byte	W04
	.byte			En5
	.byte	W04
	.byte			En4
	.byte	W04
	.byte			En5
	.byte	W04
	.byte			En4
	.byte	W04
	.byte			En5
	.byte	W04
	.byte			En4
	.byte	W04
	.byte			Ds5
	.byte	W04
	.byte			Ds4
	.byte	W04
	.byte			Ds5
	.byte	W04
	.byte			Ds4
	.byte	W04
	.byte			Ds5
	.byte	W04
	.byte			Ds4
	.byte	W04
	.byte			Dn5
	.byte	W04
	.byte			Dn4
	.byte	W04
	.byte			Dn5
	.byte	W04
	.byte			Dn4
	.byte	W04
	.byte			Dn5
	.byte	W04
	.byte			Dn4
	.byte	W04
	.byte			An4
	.byte	W04
	.byte			En5
	.byte	W04
	.byte			An4
	.byte	W04
	.byte			En5
	.byte	W04
	.byte			An4
	.byte	W04
	.byte			En5
	.byte	W04
	.byte			An4
	.byte	W04
	.byte			En5
	.byte	W04
	.byte			An4
	.byte	W04
	.byte			Ds5
	.byte	W04
	.byte			Gs4
	.byte	W04
	.byte			Ds5
	.byte	W04
	.byte			Gs4
	.byte	W04
	.byte			Ds5
	.byte	W04
	.byte			Gs4
	.byte	W04
	.byte			Ds5
	.byte	W04
	.byte			Gs4
	.byte	W04
	.byte			Ds5
	.byte	W04
	.byte			Gn4
	.byte	W04
	.byte			Dn5
	.byte	W04
	.byte			Gn4
	.byte	W04
	.byte			Dn5
	.byte	W04
	.byte			Gn4
	.byte	W04
	.byte			Dn5
	.byte	W04
	.byte			Gn4
	.byte	W04
	.byte			Dn5
	.byte	W04
	.byte			Gn4
	.byte	W04
	.byte			Cs5
	.byte	W04
	.byte			Fs4
	.byte	W04
	.byte			Cs5
	.byte	W04
	.byte			Fs4
	.byte	W04
	.byte			Cs5
	.byte	W04
	.byte			Fs4
	.byte	W04
	.byte			Cs5
	.byte	W04
	.byte			Fs4
	.byte	W04
	.byte			Cs5
	.byte	W04
	.byte			Fn4
	.byte	W04
	.byte			Cn5
	.byte	W04
	.byte			Fn4
	.byte	W04
	.byte			Cn5
	.byte	W04
	.byte			Fn4
	.byte	W04
	.byte			Cn5
	.byte	W04
	.byte			En4
	.byte	W04
	.byte			Bn4
	.byte	W04
	.byte			En4
	.byte	W04
	.byte			Bn4
	.byte	W04
	.byte			En4
	.byte	W04
	.byte			Bn4
	.byte	W04
	.byte			An3
	.byte	W04
	.byte			An4
	.byte	W04
	.byte			An3
	.byte	W04
	.byte			An4
	.byte	W04
	.byte			An3
	.byte	W04
	.byte			An4
	.byte	W04
	.byte			An3
	.byte	W04
	.byte			An4
	.byte	W04
	.byte			An3
	.byte	W04
	.byte			Gs4
	.byte	W04
	.byte			Gs3
	.byte	W04
	.byte			Gs4
	.byte	W04
	.byte			Gs3
	.byte	W04
	.byte			Gs4
	.byte	W04
	.byte			Gs3
	.byte	W04
	.byte			Gs4
	.byte	W04
	.byte			Gs3
	.byte	W04
	.byte			Gs4
	.byte	W04
	.byte			Gn3
	.byte	W04
	.byte			Gn4
	.byte	W04
	.byte			Gn3
	.byte	W04
	.byte			Gn4
	.byte	W04
	.byte			Gn3
	.byte	W04
	.byte			Gn4
	.byte	W04
	.byte			Gn3
	.byte	W04
	.byte			Gn4
	.byte	W04
	.byte			Gn3
	.byte	W04
	.byte			Fs4
	.byte	W04
	.byte			Fs3
	.byte	W04
	.byte			Fs4
	.byte	W04
	.byte			Fs3
	.byte	W04
	.byte			Fs4
	.byte	W04
	.byte			Fs3
	.byte	W04
	.byte			Fs4
	.byte	W04
	.byte			Fs3
	.byte	W04
	.byte			Fs4
	.byte	W04
	.byte			Fn3
	.byte	W04
	.byte			Fn4
	.byte	W04
	.byte			Fn3
	.byte	W04
	.byte			Fn4
	.byte	W04
	.byte			Fn3
	.byte	W04
	.byte			Fn4
	.byte	W04
	.byte			En3
	.byte	W04
	.byte			En4
	.byte	W04
	.byte			En3
	.byte	W04
	.byte			En4
	.byte	W04
	.byte			En3
	.byte	W04
	.byte			En4
	.byte	W04
	.byte	W96
	.byte	W96
	.byte	W96
	.byte	W96
	.byte	W96
	.byte	W96
	.byte	W96
	.byte	W96
	.byte	W96
	.byte	W96
	.byte			Dn4
	.byte	W04
	.byte			An3
	.byte	W04
	.byte			Dn4
	.byte	W04
	.byte			An3
	.byte	W04
	.byte			Dn4
	.byte	W04
	.byte			An3
	.byte	W04
	.byte			Dn4
	.byte	W04
	.byte			An3
	.byte	W04
	.byte			Dn4
	.byte	W04
	.byte			Gs3
	.byte	W04
	.byte			Cs4
	.byte	W04
	.byte			Gs3
	.byte	W04
	.byte			Cs4
	.byte	W04
	.byte			Gs3
	.byte	W04
	.byte			Cs4
	.byte	W04
	.byte			Gs3
	.byte	W04
	.byte			Cs4
	.byte	W04
	.byte			Gs3
	.byte	W04
	.byte			Cn4
	.byte	W04
	.byte			Gn3
	.byte	W04
	.byte			Cn4
	.byte	W04
	.byte			Gn3
	.byte	W04
	.byte			Cn4
	.byte	W04
	.byte			Gn3
	.byte	W04
	.byte			Cn4
	.byte	W04
	.byte			Gn3
	.byte	W04
	.byte			Cn4
	.byte	W04
	.byte			Fs3
	.byte	W04
	.byte			Bn3
	.byte	W04
	.byte			Fs3
	.byte	W04
	.byte			Bn3
	.byte	W04
	.byte			Fs3
	.byte	W04
	.byte			Bn3
	.byte	W04
	.byte			Fs3
	.byte	W04
	.byte			Bn3
	.byte	W04
	.byte			Fs3
	.byte	W04
	.byte			As3
	.byte	W04
	.byte			Fn3
	.byte	W04
	.byte			As3
	.byte	W04
	.byte			Fn3
	.byte	W04
	.byte			As3
	.byte	W04
	.byte			Fn3
	.byte	W04
	.byte			An3
	.byte	W04
	.byte			En3
	.byte	W04
	.byte			An3
	.byte	W04
	.byte			En3
	.byte	W04
	.byte			An3
	.byte	W04
	.byte			En3
	.byte	W04
	.byte	GOTO	
		.word	song0035_6_1
	.byte	W96
	.byte	FINE

	@********************** Track  7 **********************@

	.global song0035_7
song0035_7:	@ 0x08C73CB2
	.byte	KEYSH	, 0
	.byte	VOICE	, 96
	.byte	PAN	, c_v
	.byte	VOL	, v094
	.byte	W03
song0035_7_1:
	.byte		N36	, Cn3, v112
	.byte	W36
	.byte			Cs3
	.byte	W36
	.byte			Ds3
	.byte	W24
	.byte	PEND
song0035_7_2:
	.byte	W12
	.byte		N36	, An2, v112
	.byte	W36
	.byte		N24	, As2
	.byte	W24
	.byte			Bn2
	.byte	W24
	.byte	PEND
	.byte	PATT	
		.word	song0035_7_1
	.byte	PATT	
		.word	song0035_7_2
song0035_7_3:
	.byte		N36	, Cn3, v100
	.byte	W36
	.byte			Cs3
	.byte	W36
	.byte			Ds3
	.byte	W24
	.byte	PEND
song0035_7_4:
	.byte	W12
	.byte		N36	, An2, v100
	.byte	W36
	.byte		N24	, As2
	.byte	W24
	.byte			Bn2
	.byte	W24
	.byte	PEND
	.byte	PATT	
		.word	song0035_7_3
	.byte	PATT	
		.word	song0035_7_4
	.byte		N48	, Dn3, v112
	.byte	W96
song0035_7_5:
	.byte	W60
	.byte		N18	, Dn3, v112
	.byte	W18
	.byte		N18	
	.byte	W18
	.byte	PEND
	.byte		N48	
	.byte	W96
	.byte	W96
	.byte		N48	
	.byte	W96
	.byte	PATT	
		.word	song0035_7_5
	.byte		N48	, Dn3, v112
	.byte	W96
	.byte	W96
song0035_7_6:
	.byte		N36	, Gn3, v112
	.byte	W36
	.byte			Gs3
	.byte	W36
	.byte			As3
	.byte	W24
	.byte	PEND
song0035_7_7:
	.byte	W12
	.byte		N36	, En3, v112
	.byte	W36
	.byte		N24	, Fn3
	.byte	W24
	.byte			Fs3
	.byte	W24
	.byte	PEND
	.byte	PATT	
		.word	song0035_7_6
	.byte	PATT	
		.word	song0035_7_7
song0035_7_8:
	.byte		N36	, An3, v112
	.byte	W36
	.byte			As3
	.byte	W36
	.byte			Cn4
	.byte	W24
	.byte	PEND
song0035_7_9:
	.byte	W12
	.byte		N36	, Fs3, v112
	.byte	W36
	.byte		N24	, Gn3
	.byte	W24
	.byte			Gs3
	.byte	W24
	.byte	PEND
	.byte	PATT	
		.word	song0035_7_8
	.byte	PATT	
		.word	song0035_7_9
	.byte	W96
	.byte	W96
	.byte	W96
	.byte	W96
	.byte		N36	, Dn4, v100
	.byte	W36
	.byte			Cs4
	.byte	W36
	.byte		N24	, Cn4
	.byte	W24
	.byte		N36	, Bn3
	.byte	W36
	.byte			As3
	.byte	W36
	.byte		N24	, An3
	.byte	W24
	.byte		N36	, Gs3
	.byte	W36
	.byte			Gn3
	.byte	W36
	.byte		N24	, Fs3
	.byte	W24
	.byte		N36	, Fn3
	.byte	W36
	.byte			En3
	.byte	W36
	.byte		N24	, Ds3
	.byte	W24
	.byte		N48	, Dn3
	.byte	W96
	.byte	W96
	.byte	W96
	.byte	W96
	.byte	GOTO	
		.word	song0035_7_1
	.byte	W96
	.byte	FINE

	@********************** Track  8 **********************@

	.global song0035_8
song0035_8:	@ 0x08C73D80
	.byte	KEYSH	, 0
	.byte	VOICE	, 74
	.byte	VOL	, v070
	.byte	BENDR	, 4
	.byte	PAN	, c_v+30
	.byte	W03
song0035_8_1:
	.byte	W96
	.byte	W96
	.byte	W96
	.byte	W96
	.byte	W96
	.byte	W96
	.byte	W96
	.byte	W96
	.byte	W96
	.byte	W96
	.byte	W96
	.byte	W96
	.byte	W96
	.byte	W96
	.byte	W96
	.byte	W96
	.byte	W96
	.byte	W96
	.byte	W96
	.byte	W60
	.byte		N06	, Cs2, v100
	.byte	W12
	.byte			En2
	.byte	W06
	.byte			Cs2
	.byte	W12
	.byte		N12	, An2
	.byte	W06
	.byte	W12
	.byte		N06	, Gs2
	.byte	W12
	.byte			An2
	.byte	W12
	.byte			Gn2
	.byte	W06
	.byte		N12	, En2
	.byte	W12
	.byte		N06	, Ds2
	.byte	W06
	.byte			En2
	.byte	W06
	.byte			Fn2
	.byte	W06
	.byte			En2
	.byte	W06
	.byte		N18	, An1
	.byte	W18
	.byte	W96
	.byte	W96
	.byte		N06	, Dn3
	.byte	W12
	.byte			Cs3
	.byte	W12
	.byte			Dn3
	.byte	W12
	.byte			Cn3
	.byte	W06
	.byte		N12	, Dn3
	.byte	W12
	.byte		N06	
	.byte	W06
	.byte			Fn3
	.byte	W12
	.byte			Dn3
	.byte	W12
	.byte			Cn3
	.byte	W12
	.byte		N18	, Dn3
	.byte	W96
	.byte	W96
	.byte	W96
	.byte	W96
	.byte	W96
	.byte	W96
	.byte	W96
	.byte	W96
	.byte	W96
	.byte	W96
	.byte	W96
	.byte	W96
	.byte	GOTO	
		.word	song0035_8_1
	.byte	W96
	.byte	FINE

	@********************** Track  9 **********************@

	.global song0035_9
song0035_9:	@ 0x08C73DEC
	.byte	KEYSH	, 0
	.byte	VOICE	, 74
	.byte	VOL	, v070
	.byte	BENDR	, 4
	.byte	PAN	, c_v-30
	.byte	W03
song0035_9_1:
	.byte	W96
	.byte	W96
	.byte	W96
	.byte	W96
	.byte	W96
	.byte	W96
	.byte	W96
	.byte	W96
	.byte	W96
	.byte	W96
	.byte	W96
	.byte	W96
	.byte	W96
	.byte	W96
	.byte	W96
	.byte	W96
	.byte	W96
	.byte	W96
	.byte	W96
	.byte	W60
	.byte		N06	, Cs3, v100
	.byte	W12
	.byte			En3
	.byte	W06
	.byte			Cs3
	.byte	W12
	.byte		N12	, An3
	.byte	W06
	.byte	W12
	.byte		N06	, Gs3
	.byte	W12
	.byte			An3
	.byte	W12
	.byte			Gn3
	.byte	W06
	.byte		N12	, En3
	.byte	W12
	.byte		N06	, Ds3
	.byte	W06
	.byte			En3
	.byte	W06
	.byte			Fn3
	.byte	W06
	.byte			En3
	.byte	W06
	.byte		N18	, An2
	.byte	W18
	.byte	W96
	.byte	W96
	.byte		N06	, Dn4
	.byte	W12
	.byte			Cs4
	.byte	W12
	.byte			Dn4
	.byte	W12
	.byte			Cn4
	.byte	W06
	.byte		N12	, Dn4
	.byte	W12
	.byte		N06	
	.byte	W06
	.byte			Fn4
	.byte	W12
	.byte			Dn4
	.byte	W12
	.byte			Cn4
	.byte	W12
	.byte	W96
	.byte	W96
	.byte	W96
	.byte	W96
	.byte	W96
	.byte	W96
	.byte	W96
	.byte	W96
	.byte	W96
	.byte	W96
	.byte	W96
	.byte	W96
	.byte	GOTO	
		.word	song0035_9_1
	.byte	W96
	.byte	FINE

	@********************** Track  10 **********************@

	.global song0035_10
song0035_10:	@ 0x08C73E56
	.byte	KEYSH	, 0
	.byte	VOICE	, 89
	.byte	VOL	, v094
	.byte	BENDR	, 12
	.byte	W03
song0035_10_1:
	.byte	W96
	.byte	PAN	, c_v+30
	.byte	W96
	.byte	W96
	.byte	W96
	.byte	W96
	.byte	W96
	.byte	W96
	.byte	W96
	.byte	W96
	.byte	W96
	.byte	W96
	.byte	W96
	.byte	W96
	.byte	W96
	.byte		N12	, An3, v100
	.byte	W11
	.byte	PAN	, c_v-30
	.byte	W01
	.byte		N12	, An4
	.byte	W23
	.byte	PAN	, c_v+30
	.byte	W01
	.byte		N12	, Gs4
	.byte	W23
	.byte	PAN	, c_v-30
	.byte	W01
	.byte		N12	, En4
	.byte	W23
	.byte	PAN	, c_v+30
	.byte	W01
	.byte		N12	, Gn4
	.byte	W12
	.byte	W11
	.byte	PAN	, c_v-30
	.byte	W01
	.byte		N12	, Dn4
	.byte	W23
	.byte	PAN	, c_v+30
	.byte	W01
	.byte		N24	, Fn4
	.byte	W23
	.byte	PAN	, c_v-30
	.byte	W01
	.byte		N12	, En4
	.byte	W11
	.byte	PAN	, c_v+30
	.byte	W01
	.byte		N12	, Cn4
	.byte	W11
	.byte	PAN	, c_v-30
	.byte	W01
	.byte		N12	, An3
	.byte	W12
	.byte	W96
	.byte	W96
	.byte	W96
	.byte	W96
	.byte	W96
	.byte	W96
	.byte	W96
	.byte	W96
	.byte		TIE	, Dn4, v040
	.byte	W96
	.byte	W48
	.byte	W01
	.byte	BEND	, c_v+1
	.byte	W01
	.byte		c_v+3
	.byte	W02
	.byte		c_v+5
	.byte	W01
	.byte		c_v+7
	.byte	W02
	.byte		c_v+9
	.byte	W01
	.byte		c_v+11
	.byte	W01
	.byte	PAN	, c_v-18
	.byte	BEND	, c_v+13
	.byte	W02
	.byte		c_v+14
	.byte	W01
	.byte		c_v+16
	.byte	W02
	.byte		c_v+18
	.byte	W01
	.byte		c_v+20
	.byte	W01
	.byte		c_v+22
	.byte	W02
	.byte		c_v+24
	.byte	W01
	.byte	PAN	, c_v-6
	.byte	BEND	, c_v+26
	.byte	W02
	.byte		c_v+28
	.byte	W01
	.byte		c_v+30
	.byte	W02
	.byte		c_v+31
	.byte	W01
	.byte		c_v+33
	.byte	W01
	.byte		c_v+35
	.byte	W02
	.byte	PAN	, c_v+6
	.byte	BEND	, c_v+37
	.byte	W01
	.byte		c_v+39
	.byte	W02
	.byte		c_v+41
	.byte	W01
	.byte		c_v+43
	.byte	W01
	.byte		c_v+45
	.byte	W02
	.byte		c_v+46
	.byte	W01
	.byte		c_v+48
	.byte	W02
	.byte	PAN	, c_v+18
	.byte	BEND	, c_v+50
	.byte	W01
	.byte		c_v+52
	.byte	W01
	.byte		c_v+54
	.byte	W02
	.byte		c_v+56
	.byte	W01
	.byte		c_v+58
	.byte	W02
	.byte		c_v+60
	.byte	W01
	.byte		c_v+62
	.byte	W02
	.byte	PAN	, c_v+30
	.byte	BEND	, c_v+63
	.byte	W96
	.byte	W48
	.byte	W02
	.byte		c_v+53
	.byte	W02
	.byte		c_v+42
	.byte	W02
	.byte		c_v+32
	.byte	W02
	.byte		c_v+23
	.byte	W02
	.byte		c_v+14
	.byte	W02
	.byte		c_v+5
	.byte	W02
	.byte		c_v-3
	.byte	W02
	.byte		c_v-10
	.byte	W02
	.byte		c_v-17
	.byte	W02
	.byte		c_v-24
	.byte	W03
	.byte		c_v-30
	.byte	W02
	.byte		c_v-35
	.byte	W02
	.byte		c_v-40
	.byte	W02
	.byte		c_v-45
	.byte	W02
	.byte		c_v-49
	.byte	W02
	.byte		c_v-53
	.byte	W02
	.byte		c_v-56
	.byte	W02
	.byte		c_v-58
	.byte	W02
	.byte		c_v-61
	.byte	W02
	.byte		c_v-62
	.byte	W02
	.byte		c_v-64
	.byte	W03
	.byte		c_v-64
	.byte	W02
	.byte		EOT	
	.byte	BEND	, c_v-64
	.byte	W96
	.byte	W96
	.byte		c_v
	.byte	W96
	.byte	W96
	.byte	W96
	.byte	W96
	.byte	W96
	.byte	W96
	.byte	GOTO	
		.word	song0035_10_1
	.byte	W96
	.byte	FINE

	@********************** Track  11 **********************@

	.global song0035_11
song0035_11:	@ 0x08C73F4D
	.byte	KEYSH	, 0
	.byte	VOICE	, 5
	.byte	VOL	, v094
	.byte	PAN	, c_v-30
	.byte	W03
song0035_11_1:
	.byte	W96
	.byte	W96
	.byte	W96
	.byte	W96
	.byte	W96
	.byte	W96
	.byte	W96
	.byte	W96
	.byte		TIE	, Dn3, v120
	.byte	W96
	.byte	W48
	.byte		EOT	
	.byte	W48
	.byte		TIE	
	.byte	W96
	.byte	W48
	.byte		EOT	
	.byte	W48
	.byte		TIE	, Dn4
	.byte	W96
	.byte	W48
	.byte		EOT	
	.byte	W48
	.byte		TIE	
	.byte	W96
	.byte	W48
	.byte		EOT	
	.byte	W48
	.byte	W96
	.byte	W96
	.byte	W96
	.byte	W96
	.byte	W96
	.byte	W96
	.byte	W96
	.byte	W96
	.byte	W96
	.byte	W96
	.byte	W96
	.byte	W96
	.byte	W96
	.byte	W96
	.byte	W96
	.byte	W96
	.byte	W96
	.byte	W96
	.byte	W96
	.byte	W96
	.byte	GOTO	
		.word	song0035_11_1
	.byte	W96
	.byte	FINE

	@********************** Track  12 **********************@

	.global song0035_12
song0035_12:	@ 0x08C73F90
	.byte	KEYSH	, 0
	.byte	VOICE	, 15
	.byte	VOL	, v094
	.byte	PAN	, c_v+30
	.byte	MOD	, 5
	.byte	W03
song0035_12_1:
	.byte	W96
	.byte	W96
	.byte	W96
	.byte	W96
	.byte	W96
	.byte	W96
	.byte	W96
	.byte	W96
	.byte		TIE	, Dn3, v120
	.byte	W96
	.byte	W48
	.byte		EOT	
	.byte	W48
	.byte		TIE	
	.byte	W96
	.byte	W48
	.byte		EOT	
	.byte	W48
	.byte		TIE	, Dn4
	.byte	W96
	.byte	W48
	.byte		EOT	
	.byte	W48
	.byte		TIE	
	.byte	W96
	.byte	W48
	.byte		EOT	
	.byte	W48
	.byte	W96
	.byte	W96
	.byte	W96
	.byte	W96
	.byte	W96
	.byte	W96
	.byte	W96
	.byte	W96
	.byte	W96
	.byte	W96
	.byte	W96
	.byte	W96
	.byte	W96
	.byte	W96
	.byte	W96
	.byte	W96
	.byte	W96
	.byte	W96
	.byte	W96
	.byte	W96
	.byte	GOTO	
		.word	song0035_12_1
	.byte	W96
	.byte	FINE

	@********************** Track  13 **********************@

	.global song0035_13
song0035_13:	@ 0x08C73FD5
	.byte	KEYSH	, 0
	.byte	VOICE	, 103
	.byte	VOL	, v090
	.byte	PAN	, c_v
	.byte	W03
song0035_13_5:
	.byte	W96
	.byte	W96
	.byte	W96
	.byte	W96
	.byte	W96
	.byte	W96
	.byte	W96
	.byte	W96
	.byte	W96
	.byte	W96
	.byte	W96
	.byte	W96
	.byte	W96
	.byte	W96
	.byte	W96
	.byte	W96
song0035_13_1:
	.byte	BEND	, c_v-48
	.byte		N36	, Cn3, v100
	.byte	W01
	.byte	BEND	, c_v-37
	.byte	W02
	.byte		c_v-25
	.byte	W01
	.byte		c_v-13
	.byte	W02
	.byte		c_v
	.byte	W30
	.byte		N36	, Cs3
	.byte	W36
	.byte			Ds3
	.byte	W24
	.byte	PEND
song0035_13_2:
	.byte	W12
	.byte		N36	, An2, v100
	.byte	W36
	.byte		N24	, As2
	.byte	W24
	.byte			Bn2
	.byte	W24
	.byte	PEND
	.byte	PATT	
		.word	song0035_13_1
	.byte	PATT	
		.word	song0035_13_2
song0035_13_3:
	.byte	BEND	, c_v-48
	.byte		N36	, Dn3, v100
	.byte	W01
	.byte	BEND	, c_v-37
	.byte	W02
	.byte		c_v-25
	.byte	W01
	.byte		c_v-13
	.byte	W02
	.byte		c_v
	.byte	W30
	.byte		N36	, Ds3
	.byte	W36
	.byte			Fn3
	.byte	W24
	.byte	PEND
song0035_13_4:
	.byte	W12
	.byte		N36	, Bn2, v100
	.byte	W36
	.byte		N24	, Cn3
	.byte	W24
	.byte			Cs3
	.byte	W24
	.byte	PEND
	.byte	PATT	
		.word	song0035_13_3
	.byte	PATT	
		.word	song0035_13_4
	.byte	W96
	.byte	W96
	.byte	W96
	.byte	W96
	.byte	W96
	.byte	W96
	.byte	W96
	.byte	W96
	.byte	W96
	.byte	W96
	.byte	W96
	.byte	W96
	.byte	GOTO	
		.word	song0035_13_5
	.byte	W96
	.byte	FINE

	@********************** Track  14 **********************@

	.global song0035_14
song0035_14:	@ 0x08C74055
	.byte	KEYSH	, 0
	.byte	VOICE	, 118
	.byte	VOL	, v094
	.byte	PAN	, c_v
	.byte	PRIO	, 20
	.byte	W03
song0035_14_3:
	.byte	W96
	.byte	W96
	.byte	W96
	.byte	W96
	.byte	W96
	.byte	W96
	.byte	W96
	.byte	W96
song0035_14_1:
	.byte		N12	, Dn3, v100
	.byte	W12
	.byte			Dn4
	.byte	W24
	.byte			Cs4
	.byte	W24
	.byte			An3
	.byte	W24
	.byte			Cn4
	.byte	W12
	.byte	PEND
song0035_14_2:
	.byte	W12
	.byte		N12	, Gn3, v100
	.byte	W24
	.byte		N24	, As3
	.byte	W24
	.byte		N12	, An3
	.byte	W12
	.byte			Fn3
	.byte	W12
	.byte			Dn3
	.byte	W12
	.byte	PEND
	.byte	PATT	
		.word	song0035_14_1
	.byte	PATT	
		.word	song0035_14_2
	.byte	PATT	
		.word	song0035_14_1
	.byte	PATT	
		.word	song0035_14_2
	.byte	PATT	
		.word	song0035_14_1
	.byte	PATT	
		.word	song0035_14_2
	.byte	W96
	.byte	W96
	.byte	W96
	.byte	W96
	.byte	W96
	.byte	W96
	.byte	W96
	.byte	W96
	.byte	W96
	.byte	W96
	.byte	W96
	.byte	W96
	.byte	W96
	.byte	W96
	.byte	W96
	.byte	W96
	.byte	W96
	.byte	W96
	.byte	W96
	.byte	W96
	.byte	GOTO	
		.word	song0035_14_3
	.byte	W96
	.byte	FINE

	@********************** Track  15 **********************@

	.global song0035_15
song0035_15:	@ 0x08C740BE
	.byte	KEYSH	, 0
	.byte	VOL	, v094
	.byte	PAN	, c_v
	.byte	W03
song0035_15_1:
	.byte	W96
	.byte	VOICE	, 94
	.byte	W96
	.byte	W96
	.byte	W96
	.byte	W96
	.byte	W96
	.byte	W96
	.byte	W96
	.byte	W96
	.byte	W96
	.byte	W96
	.byte	W96
	.byte		N06	, An2, v100
	.byte	W06
	.byte			An3
	.byte	W06
	.byte		N06	
	.byte	W06
	.byte			An2
	.byte	W06
	.byte			En2
	.byte	W06
	.byte			En3
	.byte	W06
	.byte		N06	
	.byte	W06
	.byte			En2
	.byte	W06
	.byte			Dn2
	.byte	W06
	.byte			Dn3
	.byte	W06
	.byte		N06	
	.byte	W06
	.byte			Dn2
	.byte	W06
	.byte			En2
	.byte	W06
	.byte			En3
	.byte	W06
	.byte		N06	
	.byte	W06
	.byte			En2
	.byte	W06
	.byte			Cn2
	.byte	W06
	.byte			Cn3
	.byte	W06
	.byte		N06	
	.byte	W06
	.byte			Cn2
	.byte	W06
	.byte			Dn2
	.byte	W06
	.byte			Dn3
	.byte	W06
	.byte		N06	
	.byte	W06
	.byte			Dn2
	.byte	W06
	.byte			As1
	.byte	W06
	.byte			As2
	.byte	W06
	.byte		N06	
	.byte	W06
	.byte			As1
	.byte	W06
	.byte			Cn2
	.byte	W06
	.byte			Cn3
	.byte	W06
	.byte		N06	
	.byte	W06
	.byte			Cn2
	.byte	W06
	.byte		N03	, An1, v112
	.byte	W03
	.byte		N21	, An2
	.byte	W92
	.byte	W01
	.byte	W96
	.byte	W96
	.byte	W96
	.byte	W96
	.byte	W96
	.byte	W96
	.byte	W96
	.byte	W96
	.byte	W96
	.byte	VOICE	, 70
	.byte	W60
	.byte		N12	, Gn3, v100
	.byte	W18
	.byte		N12	
	.byte	W18
	.byte		N24	
	.byte	W96
	.byte		N24	
	.byte	W60
	.byte		N12	
	.byte	W18
	.byte		N12	
	.byte	W18
	.byte		N24	
	.byte	W96
	.byte	W96
	.byte	W96
	.byte	W96
	.byte	W96
	.byte	W96
	.byte	W96
	.byte	W96
	.byte	W96
	.byte	GOTO	
		.word	song0035_15_1
	.byte	W96
	.byte	FINE

	@********************** Track  16 **********************@

	.global song0035_16
song0035_16:	@ 0x08C74148
	.byte	KEYSH	, 0
	.byte	VOICE	, 117
	.byte	VOL	, v094
	.byte	PAN	, c_v
	.byte	PRIO	, 15
	.byte	W03
song0035_16_1:
	.byte		N36	, Cn2, v112
	.byte	W36
	.byte			Cs2
	.byte	W36
	.byte		N32	, Ds2
	.byte	W24
	.byte	PEND
song0035_16_2:
	.byte	W11
	.byte		N36	, An1, v112
	.byte	W36
	.byte		N24	, As1
	.byte	W24
	.byte			Bn1
	.byte	W24
	.byte	W01
	.byte	PEND
	.byte	PATT	
		.word	song0035_16_1
	.byte	PATT	
		.word	song0035_16_2
	.byte	PATT	
		.word	song0035_16_1
	.byte	PATT	
		.word	song0035_16_2
	.byte	PATT	
		.word	song0035_16_1
	.byte	PATT	
		.word	song0035_16_2
	.byte		N48	, Dn2, v112
	.byte	W96
song0035_16_3:
	.byte	W60
	.byte		N18	, Dn2, v112
	.byte	W18
	.byte		N18	
	.byte	W18
	.byte	PEND
	.byte		N48	
	.byte	W96
	.byte	W96
	.byte		N48	
	.byte	W96
	.byte	PATT	
		.word	song0035_16_3
	.byte		N48	, Dn2, v112
	.byte	W96
	.byte	W96
song0035_16_4:
	.byte		N36	, Gn2, v112
	.byte	W36
	.byte			Gs2
	.byte	W36
	.byte			As2
	.byte	W24
	.byte	PEND
song0035_16_5:
	.byte	W12
	.byte		N36	, En2, v112
	.byte	W36
	.byte		N24	, Fn2
	.byte	W24
	.byte			Fs2
	.byte	W24
	.byte	PEND
	.byte	PATT	
		.word	song0035_16_4
	.byte	PATT	
		.word	song0035_16_5
song0035_16_6:
	.byte		N36	, An2, v112
	.byte	W36
	.byte			As2
	.byte	W36
	.byte			Cn3
	.byte	W24
	.byte	PEND
song0035_16_7:
	.byte	W12
	.byte		N36	, Fs2, v112
	.byte	W36
	.byte		N24	, Gn2
	.byte	W24
	.byte			Gs2
	.byte	W24
	.byte	PEND
	.byte	PATT	
		.word	song0035_16_6
	.byte	PATT	
		.word	song0035_16_7
	.byte	W96
	.byte	W96
	.byte	W96
	.byte	W96
	.byte		N36	, Dn3, v100
	.byte	W36
	.byte			Cs3
	.byte	W36
	.byte		N24	, Cn3
	.byte	W24
	.byte		N36	, Bn2
	.byte	W36
	.byte			As2
	.byte	W36
	.byte		N24	, An2
	.byte	W24
	.byte		N36	, Gs2
	.byte	W36
	.byte			Gn2
	.byte	W36
	.byte		N24	, Fs2
	.byte	W24
	.byte		N36	, Fn2
	.byte	W36
	.byte			En2
	.byte	W36
	.byte		N24	, Ds2
	.byte	W24
	.byte		N48	, Dn2
	.byte	W96
	.byte	W96
	.byte	W96
	.byte	W96
	.byte	GOTO	
		.word	song0035_16_1
	.byte	W96
	.byte	FINE

	.align 2
	.global song0035
song0035:	@ 0x08C74210
	.byte	16		@ trackCount
	.byte	0		@ blockCount
	.byte	0		@ priority
	.byte	128		@ reverb

	.word	voicegroup022		@ voicegroup/tone

	.word	song0035_1		@ track
	.word	song0035_2		@ track
	.word	song0035_3		@ track
	.word	song0035_4		@ track
	.word	song0035_5		@ track
	.word	song0035_6		@ track
	.word	song0035_7		@ track
	.word	song0035_8		@ track
	.word	song0035_9		@ track
	.word	song0035_10		@ track
	.word	song0035_11		@ track
	.word	song0035_12		@ track
	.word	song0035_13		@ track
	.word	song0035_14		@ track
	.word	song0035_15		@ track
	.word	song0035_16		@ track
