	.include "MPlayDef.s"

	.section .rodata

	@********************** Track  1 **********************@

	.align 2
	.global song0045_1
song0045_1:	@ 0x08C7A0B8
	.byte	KEYSH	, 0
	.byte	TEMPO	, 60
	.byte	VOICE	, 127
	.byte	VOL	, v100
	.byte		N06	, Cn1, v127
	.byte		N18	, En1, v048
	.byte	W12
	.byte		N06	, Cs1, v127
	.byte	W06
	.byte			Cn1
	.byte		N18	, En1, v048
	.byte	W12
	.byte		N06	, Gn1, v127
	.byte	W06
	.byte			Gs1
	.byte	W06
	.byte			Cn1
	.byte	W06
	.byte		N06	
	.byte		N18	, En1, v048
	.byte	W12
	.byte		N06	, Cs1, v127
	.byte	W06
	.byte			Cn1
	.byte		N18	, En1, v048
	.byte	W12
	.byte		N06	, Cs1, v127
	.byte	W06
	.byte		N06	
	.byte	W06
	.byte			Cn1
	.byte	W06
	.byte		N06	
	.byte		N18	, En1, v048
	.byte	W12
	.byte		N06	, Gs1, v127
	.byte	W06
	.byte			Cn1
	.byte		N18	, En1, v048
	.byte	W12
	.byte		N06	, Cs1, v127
	.byte	W06
	.byte			Cn1
	.byte		N18	, En1, v048
	.byte	W24
	.byte		N06	, Cs1, v127
	.byte	W12
	.byte		N06	
	.byte	W06
	.byte		N06	
	.byte	W06
	.byte		N12	, En1, v048
	.byte	W12
song0045_1_5:
	.byte		N12	, Cn1, v127
	.byte		N05	, Ds1, v060
	.byte		N48	, Gn2, v127
	.byte	W06
	.byte		N05	, Dn1, v060
	.byte	W06
	.byte			Dn1, v044
	.byte	W12
	.byte		N12	, Cs1, v127
	.byte		N11	, Ds1, v060
	.byte	W12
	.byte			Dn1
	.byte	W06
	.byte		N05	, Cs1, v127
	.byte	W06
	.byte		N12	, Cn1
	.byte		N11	, Ds1, v060
	.byte	W12
	.byte		N12	, Cn1, v127
	.byte		N11	, Dn1, v060
	.byte	W12
	.byte		N12	, Cs1, v127
	.byte		N11	, Ds1, v060
	.byte	W12
	.byte		N12	, Cn1, v127
	.byte		N17	, En1, v060
	.byte	W12
song0045_1_1:
	.byte	W12
	.byte		N12	, Cn1, v127
	.byte		N05	, Dn1, v044
	.byte	W12
	.byte		N12	, Cs1, v127
	.byte		N05	, Ds1, v060
	.byte	W12
	.byte			Dn1, v044
	.byte	W12
	.byte		N12	, Cn1, v127
	.byte		N05	, Ds1, v060
	.byte	W06
	.byte			Dn1
	.byte	W06
	.byte		N12	, Cn1, v127
	.byte		N05	, Dn1, v044
	.byte	W12
	.byte		N12	, Cs1, v127
	.byte		N05	, Ds1, v060
	.byte	W12
	.byte		N12	, Cn1, v127
	.byte		N05	, Dn1, v044
	.byte	W12
	.byte	PEND
song0045_1_2:
	.byte		N12	, Cn1, v127
	.byte		N05	, Ds1, v060
	.byte	W06
	.byte			Dn1
	.byte	W06
	.byte			Dn1, v044
	.byte	W12
	.byte		N12	, Cs1, v127
	.byte		N11	, Ds1, v060
	.byte	W12
	.byte			Dn1
	.byte	W06
	.byte		N05	, Cs1, v127
	.byte	W06
	.byte		N12	, Cn1
	.byte		N11	, Ds1, v060
	.byte	W12
	.byte		N12	, Cn1, v127
	.byte		N11	, Dn1, v060
	.byte	W12
	.byte		N12	, Cs1, v127
	.byte		N11	, Ds1, v060
	.byte	W12
	.byte		N12	, Cn1, v127
	.byte		N17	, En1, v060
	.byte	W12
	.byte	PEND
	.byte	PATT	
		.word	song0045_1_1
	.byte	PATT	
		.word	song0045_1_2
	.byte	PATT	
		.word	song0045_1_1
	.byte	PATT	
		.word	song0045_1_2
	.byte	PATT	
		.word	song0045_1_1
	.byte	PATT	
		.word	song0045_1_2
	.byte	W12
	.byte		N12	, Cn1, v127
	.byte		N05	, Dn1, v044
	.byte	W12
	.byte		N12	, Cs1, v127
	.byte		N11	, Ds1, v044
	.byte	W12
	.byte		N12	, Cn1, v127
	.byte		N05	, Dn1, v044
	.byte	W12
	.byte		N06	, Cs1, v127
	.byte		N11	, Ds1, v060
	.byte	W06
	.byte		N06	, Cs1, v127
	.byte	W06
	.byte			Cn1
	.byte		N05	, Dn1, v044
	.byte	W06
	.byte		N06	, Cn1, v127
	.byte	W06
	.byte			Cs1
	.byte		N11	, Ds1, v064
	.byte	W06
	.byte		N06	, Cn1, v127
	.byte	W06
	.byte		N06	
	.byte		N05	, Dn1, v044
	.byte	W06
	.byte		N06	, Cs1, v127
	.byte	W06
	.byte		N12	, Cn1
	.byte		N11	, En1, v060
	.byte		N48	, Gn2, v127
	.byte	W12
	.byte		N11	, Ds1, v044
	.byte	W12
	.byte		N12	, Cs1, v127
	.byte		N11	, En1, v060
	.byte	W12
	.byte			Ds1, v044
	.byte	W06
	.byte		N05	, Cs1, v127
	.byte	W06
	.byte		N12	, Cn1
	.byte		N11	, En1, v060
	.byte	W12
	.byte		N12	, Cn1, v127
	.byte		N11	, Ds1, v044
	.byte	W12
	.byte		N12	, Cs1, v127
	.byte		N11	, Ds1, v044
	.byte	W12
	.byte		N12	, Cn1, v127
	.byte		N23	, En1, v060
	.byte	W12
song0045_1_3:
	.byte	W12
	.byte		N12	, Cn1, v127
	.byte		N11	, Ds1, v044
	.byte	W12
	.byte		N12	, Cs1, v127
	.byte		N11	, En1, v060
	.byte	W12
	.byte			Ds1, v044
	.byte	W12
	.byte		N12	, Cn1, v127
	.byte		N11	, En1, v060
	.byte	W12
	.byte		N12	, Cn1, v127
	.byte		N11	, Ds1, v044
	.byte	W12
	.byte		N12	, Cs1, v127
	.byte		N11	, En1, v060
	.byte	W12
	.byte		N12	, Cn1, v127
	.byte		N11	, Ds1, v044
	.byte	W12
	.byte	PEND
song0045_1_4:
	.byte		N12	, Cn1, v127
	.byte		N11	, En1, v060
	.byte	W12
	.byte			Ds1, v044
	.byte	W12
	.byte		N12	, Cs1, v127
	.byte		N11	, En1, v060
	.byte	W12
	.byte			Ds1, v044
	.byte	W06
	.byte		N05	, Cs1, v127
	.byte	W06
	.byte		N12	, Cn1
	.byte		N11	, En1, v060
	.byte	W12
	.byte		N12	, Cn1, v127
	.byte		N11	, Ds1, v044
	.byte	W12
	.byte		N12	, Cs1, v127
	.byte		N11	, Ds1, v044
	.byte	W12
	.byte		N12	, Cn1, v127
	.byte		N23	, En1, v060
	.byte	W12
	.byte	PEND
	.byte	W12
	.byte		N12	, Cn1, v127
	.byte		N11	, Ds1, v044
	.byte	W12
	.byte		N12	, Cs1, v127
	.byte		N11	, En1, v060
	.byte	W12
	.byte			Ds1, v044
	.byte	W12
	.byte		N06	, Cs1, v127
	.byte		N11	, En1, v060
	.byte	W06
	.byte		N06	, Cs1, v127
	.byte	W06
	.byte		N12	, Cn1
	.byte		N11	, Ds1, v044
	.byte	W12
	.byte		N12	, Cn1, v127
	.byte		N11	, En1, v060
	.byte	W12
	.byte		N12	, Cs1, v127
	.byte		N48	, Gn2
	.byte	W12
	.byte	W12
	.byte		N11	, Ds1, v044
	.byte	W12
	.byte		N12	, Cs1, v127
	.byte		N11	, En1, v060
	.byte	W12
	.byte			Ds1, v044
	.byte	W06
	.byte		N05	, Cs1, v127
	.byte	W06
	.byte		N12	, Cn1
	.byte		N11	, En1, v060
	.byte	W12
	.byte		N12	, Cn1, v127
	.byte		N11	, Ds1, v044
	.byte	W12
	.byte		N12	, Cs1, v127
	.byte		N11	, Ds1, v044
	.byte	W12
	.byte		N12	, Cn1, v127
	.byte		N23	, En1, v060
	.byte	W12
	.byte	PATT	
		.word	song0045_1_3
	.byte	PATT	
		.word	song0045_1_4
	.byte	W12
	.byte		N12	, Cn1, v127
	.byte		N11	, Ds1, v044
	.byte	W12
	.byte		N12	, Cs1, v127
	.byte		N11	, En1, v060
	.byte	W12
	.byte		N12	, Cn1, v127
	.byte		N11	, Ds1, v044
	.byte	W12
	.byte		N12	, Cs1, v127
	.byte		N11	, Ds1, v060
	.byte	W12
	.byte		N06	, Cn1, v127
	.byte		N11	, Ds1, v044
	.byte	W06
	.byte		N06	, Cn1, v127
	.byte	W06
	.byte		N06	
	.byte		N11	, Ds1, v060
	.byte	W06
	.byte		N06	, Cs1, v127
	.byte	W06
	.byte		N12	, Cn1
	.byte		N11	, Ds1, v044
	.byte	W12
	.byte	GOTO	
		.word	song0045_1_5
	.byte	FINE

	@********************** Track  2 **********************@

	.global song0045_2
song0045_2:	@ 0x08C7A348
	.byte	KEYSH	, 0
	.byte	VOICE	, 79
	.byte	VOL	, v078
	.byte	W96
	.byte	W96
song0045_2_1:
	.byte	W42
	.byte	VOL	, v015
	.byte	W01
	.byte		v022
	.byte	W01
	.byte		v033
	.byte	W01
	.byte		v040
	.byte	W01
	.byte		v046
	.byte	W01
	.byte		v049
	.byte	W01
	.byte		v054
	.byte		N05	, Fn2, v084
	.byte	W01
	.byte	VOL	, v058
	.byte	W01
	.byte		v062
	.byte	W01
	.byte		v065
	.byte	W01
	.byte		v066
	.byte	W02
	.byte		N05	, Gn2, v096
	.byte	W01
	.byte	VOL	, v068
	.byte	W03
	.byte		v070
	.byte	W02
	.byte		v070
	.byte		N07	, As2, v104
	.byte	W01
	.byte	VOL	, v074
	.byte	W01
	.byte		v076
	.byte	W01
	.byte		v077
	.byte	W01
	.byte		v079
	.byte	W01
	.byte		v082
	.byte	W07
	.byte		N11	
	.byte	W07
	.byte	VOL	, v081
	.byte	W05
	.byte		N05	, Cn3, v096
	.byte	W01
	.byte	VOL	, v082
	.byte	W01
	.byte		v085
	.byte	W05
	.byte		v086
	.byte	W01
	.byte		v085
	.byte	W03
	.byte		N03	, Cs3, v092
	.byte	W01
	.byte	VOL	, v083
	.byte	W02
	.byte		N42	, Dn3, v100
	.byte	W05
	.byte	VOL	, v082
	.byte	W02
	.byte		v081
	.byte	W06
	.byte		v082
	.byte	W02
	.byte		v083
	.byte	W01
	.byte		v085
	.byte	W01
	.byte		v088
	.byte	W01
	.byte		v089
	.byte	W01
	.byte		v091
	.byte	W02
	.byte		v092
	.byte	W01
	.byte		v094
	.byte	W02
	.byte		v098
	.byte	W01
	.byte		v100
	.byte	W21
	.byte		N05	, Cs3, v108
	.byte	W06
	.byte		N06	, Dn3, v076
	.byte	W12
	.byte		N06	
	.byte	W06
	.byte		N11	, Ds3, v100
	.byte	W12
	.byte		N07	, Dn3, v072
	.byte	W12
	.byte		N11	, As2, v096
	.byte	W12
	.byte		N05	, Fn2
	.byte	W13
	.byte	VOL	, v099
	.byte	W01
	.byte		v097
	.byte	W01
	.byte		v094
	.byte	W04
	.byte		v093
	.byte	W02
	.byte		v092
	.byte	W01
	.byte		v090
	.byte	W02
	.byte		v088
	.byte		N20	, Fn2, v060
	.byte	W01
	.byte	VOL	, v088
	.byte	W01
	.byte		v086
	.byte	W01
	.byte		v085
	.byte	W05
	.byte		v083
	.byte	W02
	.byte		v082
	.byte	W01
	.byte		v081
	.byte	W01
	.byte		v079
	.byte	W01
	.byte		v076
	.byte	W02
	.byte		v075
	.byte	W01
	.byte		v074
	.byte	W02
	.byte		v072
	.byte	W01
	.byte		v070
	.byte	W03
	.byte		v070
	.byte	W02
	.byte		N11	
	.byte	W01
	.byte	VOL	, v070
	.byte	W01
	.byte		v073
	.byte	W01
	.byte		v073
	.byte	W01
	.byte		v071
	.byte	W07
	.byte		v070
	.byte	W01
	.byte		v071
	.byte		N11	, An2, v084
	.byte	W01
	.byte	VOL	, v073
	.byte	W01
	.byte		v074
	.byte	W01
	.byte		v076
	.byte	W01
	.byte		v077
	.byte	W01
	.byte		v078
	.byte	W07
	.byte		N23	, Cn3, v092
	.byte	W05
	.byte	VOL	, v077
	.byte	W02
	.byte		v078
	.byte	W03
	.byte		v076
	.byte	W01
	.byte		v074
	.byte	W01
	.byte		v074
	.byte	W01
	.byte		v075
	.byte	W04
	.byte		v076
	.byte	W04
	.byte		v075
	.byte	W02
	.byte		v074
	.byte	W01
	.byte		N11	, An2, v076
	.byte	W01
	.byte	VOL	, v072
	.byte	W05
	.byte		v070
	.byte	W06
	.byte		N11	, Cn3
	.byte	W05
	.byte	VOL	, v070
	.byte	W02
	.byte		v066
	.byte	W01
	.byte		v063
	.byte	W01
	.byte		v060
	.byte	W01
	.byte		v059
	.byte	W01
	.byte		v055
	.byte	W01
	.byte		v052
	.byte		N23	, Bn2, v088
	.byte	W03
	.byte	VOL	, v054
	.byte	W01
	.byte		v055
	.byte	W01
	.byte		v057
	.byte	W01
	.byte		v059
	.byte	W01
	.byte		v059
	.byte	W01
	.byte		v061
	.byte	W01
	.byte		v062
	.byte	W02
	.byte		v064
	.byte	W04
	.byte		v062
	.byte	W03
	.byte		v064
	.byte	W02
	.byte		v065
	.byte	W01
	.byte		v066
	.byte	W01
	.byte		v068
	.byte	W02
	.byte		v070
	.byte		N11	, Cn3, v084
	.byte	W02
	.byte	VOL	, v070
	.byte	W05
	.byte		v070
	.byte	W01
	.byte		v068
	.byte	W01
	.byte		v070
	.byte	W02
	.byte		v070
	.byte	W01
	.byte		N11	, Dn3, v108
	.byte	W04
	.byte	VOL	, v072
	.byte	W02
	.byte		v074
	.byte	W02
	.byte		v075
	.byte	W04
	.byte		N56	, Ds3
	.byte	W04
	.byte	VOL	, v076
	.byte	W01
	.byte		v077
	.byte	W03
	.byte		v079
	.byte	W01
	.byte		v081
	.byte	W03
	.byte		v082
	.byte	W09
	.byte		v081
	.byte	W03
	.byte		v082
	.byte	W01
	.byte		v083
	.byte	W04
	.byte		v082
	.byte	W02
	.byte		v081
	.byte	W03
	.byte		v079
	.byte	W01
	.byte		v077
	.byte	W02
	.byte		v076
	.byte	W05
	.byte		v075
	.byte	W01
	.byte		v071
	.byte	W01
	.byte		v069
	.byte	W01
	.byte		v062
	.byte	W01
	.byte		v052
	.byte	W01
	.byte		v041
	.byte	W01
	.byte		v029
	.byte	W01
	.byte		v006
	.byte	W01
	.byte		v000
	.byte	W10
	.byte		v020
	.byte		N11	, Dn3, v104
	.byte	W01
	.byte	VOL	, v055
	.byte	W01
	.byte		v079
	.byte	W01
	.byte		v100
	.byte	W06
	.byte		v096
	.byte	W01
	.byte		v094
	.byte	W01
	.byte		v092
	.byte	W01
	.byte		v090
	.byte		N11	, Ds3, v080
	.byte	W01
	.byte	VOL	, v088
	.byte	W02
	.byte		v090
	.byte	W02
	.byte		v092
	.byte	W05
	.byte		v090
	.byte	W02
	.byte		v092
	.byte		N11	, Dn3
	.byte	W02
	.byte	VOL	, v093
	.byte	W01
	.byte		v094
	.byte	W01
	.byte		v096
	.byte	W01
	.byte		v097
	.byte	W01
	.byte		v100
	.byte	W06
	.byte		N23	, Ds3, v092
	.byte	W09
	.byte	VOL	, v097
	.byte	W01
	.byte		v096
	.byte	W02
	.byte	W01
	.byte		v097
	.byte	W05
	.byte		v099
	.byte	W02
	.byte		v097
	.byte	W04
	.byte		N11	, Dn3, v076
	.byte	W02
	.byte	VOL	, v096
	.byte	W02
	.byte		v094
	.byte	W02
	.byte		v093
	.byte	W02
	.byte		v092
	.byte	W02
	.byte		v090
	.byte	W01
	.byte		v088
	.byte	W01
	.byte		N32	, Cn3, v052
	.byte	W01
	.byte	VOL	, v086
	.byte	W01
	.byte		v085
	.byte	W01
	.byte		v083
	.byte	W02
	.byte		v085
	.byte	W01
	.byte		v088
	.byte	W01
	.byte		v088
	.byte	W01
	.byte		v090
	.byte	W02
	.byte		v092
	.byte	W03
	.byte		v090
	.byte	W09
	.byte		v088
	.byte	W02
	.byte		v088
	.byte	W01
	.byte		v086
	.byte	W02
	.byte		v085
	.byte	W01
	.byte		v083
	.byte	W01
	.byte		v079
	.byte	W01
	.byte		v072
	.byte	W01
	.byte		v048
	.byte	W01
	.byte		v020
	.byte	W01
	.byte		v000
	.byte	W03
	.byte		N11	, Cn3, v088
	.byte	W12
	.byte	VOL	, v029
	.byte		N11	, Dn3, v108
	.byte	W01
	.byte	VOL	, v061
	.byte	W01
	.byte		v082
	.byte	W01
	.byte		v100
	.byte	W09
	.byte		N11	, Ds3, v088
	.byte	W12
	.byte		N23	, En3, v096
	.byte	W24
	.byte		N11	, Gn3, v104
	.byte	W12
	.byte		N32	, Fn3, v100
	.byte	W32
	.byte	W01
	.byte	VOL	, v097
	.byte	W01
	.byte		v095
	.byte	W01
	.byte		v092
	.byte	W01
	.byte		v088
	.byte		N11	, Dn3, v068
	.byte	W01
	.byte	VOL	, v085
	.byte	W01
	.byte		v084
	.byte	W01
	.byte		v082
	.byte	W03
	.byte		v084
	.byte	W03
	.byte		v089
	.byte	W01
	.byte		v096
	.byte	W01
	.byte		v100
	.byte	W01
	.byte		N09	, An3, v108
	.byte	W12
	.byte	VOL	, v064
	.byte	W01
	.byte		v040
	.byte	W01
	.byte		v024
	.byte	W01
	.byte		v018
	.byte	W01
	.byte		v017
	.byte	W02
	.byte		v020
	.byte	W01
	.byte		v025
	.byte	W01
	.byte		v031
	.byte	W01
	.byte		v040
	.byte	W01
	.byte		v049
	.byte	W01
	.byte		v062
	.byte	W01
	.byte		v074
	.byte		N11	, Gn3, v076
	.byte	W01
	.byte	VOL	, v089
	.byte	W01
	.byte		v100
	.byte	W10
	.byte		N09	, An3, v108
	.byte	W12
	.byte		N32	, Gn3, v076
	.byte	W32
	.byte	W01
	.byte	VOL	, v088
	.byte	W01
	.byte		v053
	.byte	W01
	.byte		v002
	.byte	W01
	.byte		v000
	.byte	W09
	.byte		v013
	.byte	W01
	.byte		v035
	.byte	W01
	.byte		v054
	.byte	W01
	.byte		v082
	.byte		N05	, Fs3, v096
	.byte	W01
	.byte	VOL	, v100
	.byte	W05
	.byte		N05	, Gn3, v092
	.byte	W06
	.byte		N10	, As3, v116
	.byte	W17
	.byte	VOL	, v096
	.byte	W01
	.byte		v092
	.byte	W01
	.byte		v088
	.byte	W01
	.byte		v088
	.byte	W02
	.byte		v086
	.byte	W01
	.byte		v085
	.byte	W01
	.byte		N17	, Gn3, v112
	.byte	W01
	.byte	VOL	, v086
	.byte	W01
	.byte		v094
	.byte	W01
	.byte		v100
	.byte	W09
	.byte		v097
	.byte	W01
	.byte		v094
	.byte	W01
	.byte		v092
	.byte	W02
	.byte		v088
	.byte	W01
	.byte		v087
	.byte	W01
	.byte		v083
	.byte	W01
	.byte		v080
	.byte	W01
	.byte		v078
	.byte	W01
	.byte		v076
	.byte	W01
	.byte		v074
	.byte	W02
	.byte		v076
	.byte		N12	, Ds3, v108
	.byte	W01
	.byte	VOL	, v080
	.byte	W01
	.byte		v081
	.byte	W01
	.byte		v084
	.byte	W01
	.byte		v085
	.byte	W03
	.byte		v084
	.byte	W01
	.byte		v082
	.byte	W01
	.byte		v081
	.byte	W03
	.byte		N11	, Dn3, v092
	.byte	W01
	.byte	VOL	, v082
	.byte	W04
	.byte		v081
	.byte	W01
	.byte		v080
	.byte	W01
	.byte		v078
	.byte	W01
	.byte		v077
	.byte	W02
	.byte		v076
	.byte	W02
	.byte		N12	, Cn3, v080
	.byte	W05
	.byte	VOL	, v074
	.byte	W01
	.byte		v073
	.byte	W02
	.byte		v071
	.byte	W02
	.byte		v076
	.byte	W01
	.byte		v081
	.byte	W01
	.byte		v091
	.byte		N22	, Fn3, v100
	.byte	W01
	.byte	VOL	, v099
	.byte	W01
	.byte		v100
	.byte	W10
	.byte	W02
	.byte		v099
	.byte	W04
	.byte		v097
	.byte	W01
	.byte		v095
	.byte	W02
	.byte		v092
	.byte	W01
	.byte		v091
	.byte	W01
	.byte		v088
	.byte	W01
	.byte		v087
	.byte		N05	, Fn2, v092
	.byte	W01
	.byte	VOL	, v082
	.byte	W01
	.byte		v081
	.byte	W01
	.byte		v080
	.byte	W01
	.byte		v078
	.byte	W01
	.byte		v077
	.byte	W02
	.byte		v074
	.byte	W01
	.byte		v072
	.byte	W01
	.byte		v068
	.byte	W01
	.byte		v065
	.byte	W01
	.byte		v063
	.byte	W01
	.byte		v062
	.byte		N05	, Fn2, v080
	.byte	W02
	.byte	VOL	, v064
	.byte	W01
	.byte		v066
	.byte	W01
	.byte		v072
	.byte	W01
	.byte		v075
	.byte	W01
	.byte		v077
	.byte	W01
	.byte		v081
	.byte	W02
	.byte		v077
	.byte	W01
	.byte		v076
	.byte	W01
	.byte		v075
	.byte	W01
	.byte		N05	, Fn2, v052
	.byte	W03
	.byte	VOL	, v076
	.byte	W05
	.byte		v074
	.byte	W02
	.byte		v072
	.byte	W02
	.byte		v074
	.byte		N06	, Fn2, v068
	.byte	W01
	.byte	VOL	, v075
	.byte	W01
	.byte		v077
	.byte	W01
	.byte		v081
	.byte	W01
	.byte		v082
	.byte	W01
	.byte		v083
	.byte	W02
	.byte		v082
	.byte	W01
	.byte		v081
	.byte	W01
	.byte		v079
	.byte	W01
	.byte		v077
	.byte	W02
	.byte		N08	, Fn2, v080
	.byte	W01
	.byte	VOL	, v077
	.byte	W02
	.byte		v078
	.byte	W01
	.byte		v080
	.byte	W01
	.byte		v081
	.byte	W01
	.byte		v080
	.byte	W03
	.byte		v078
	.byte	W01
	.byte		v077
	.byte	W02
	.byte		v078
	.byte		N06	, Fn2, v084
	.byte	W01
	.byte	VOL	, v080
	.byte	W01
	.byte		v081
	.byte	W01
	.byte		v084
	.byte	W01
	.byte		v085
	.byte	W01
	.byte		v088
	.byte	W01
	.byte		v089
	.byte		N06	, Gn2, v096
	.byte	W02
	.byte	VOL	, v092
	.byte	W02
	.byte		v094
	.byte	W02
	.byte		v095
	.byte		N05	, As2, v124
	.byte	W01
	.byte	VOL	, v094
	.byte	W01
	.byte		v095
	.byte	W03
	.byte		v095
	.byte	W01
	.byte		v094
	.byte	W01
	.byte		v092
	.byte	W01
	.byte		v089
	.byte	W01
	.byte		v086
	.byte	W03
	.byte		N14	, As2, v120
	.byte	W01
	.byte	VOL	, v093
	.byte	W01
	.byte		v099
	.byte	W01
	.byte		v100
	.byte	W09
	.byte		v092
	.byte	W01
	.byte		v075
	.byte	W01
	.byte		v055
	.byte	W01
	.byte		v039
	.byte	W01
	.byte		v029
	.byte	W01
	.byte		v017
	.byte	W01
	.byte		v007
	.byte	W01
	.byte		v000
	.byte	W76
	.byte	W01
	.byte	W96
	.byte	W96
	.byte	W96
	.byte	W96
	.byte	W96
	.byte	W96
	.byte	W96
	.byte	GOTO	
		.word	song0045_2_1
	.byte	FINE

	@********************** Track  3 **********************@

	.global song0045_3
song0045_3:	@ 0x08C7A6F4
	.byte	KEYSH	, 0
	.byte	VOICE	, 49
	.byte	VOL	, v100
	.byte	BENDR	, 59
	.byte		N13	, Cn2, v127
	.byte	W18
	.byte		N24	
	.byte	W30
	.byte		N14	, Dn2
	.byte	W18
	.byte		N23	
	.byte	W30
	.byte		N15	, Ds2
	.byte	W18
	.byte		N06	
	.byte	W18
	.byte		N23	, Fn2
	.byte	W24
	.byte		N05	
	.byte	W12
	.byte		N06	
	.byte	W06
	.byte		N04	, Cn2
	.byte	W06
	.byte		N10	, Fn1
	.byte	W12
song0045_3_1:
	.byte		N15	, As1, v127
	.byte	W24
	.byte		N10	, As2
	.byte	W18
	.byte		N07	, As1
	.byte	W06
	.byte		N08	, Dn2
	.byte	W12
	.byte		N15	
	.byte	W24
	.byte		N21	, Ds2
	.byte	W12
	.byte	W12
	.byte		N18	
	.byte	W24
	.byte		N05	
	.byte	W12
	.byte		N11	, Fn2
	.byte	W12
	.byte		N06	, Gn2
	.byte	W12
	.byte		N12	, Fn2
	.byte	W12
	.byte		N08	, Ds2
	.byte	W12
	.byte		N19	, Dn2
	.byte	W24
	.byte		N14	
	.byte	W18
	.byte		N05	
	.byte	W06
	.byte		N08	, An2
	.byte	W12
	.byte		N06	, Dn2
	.byte	W12
	.byte			An2
	.byte	W12
	.byte		N18	, Gn2
	.byte	W12
	.byte	W12
	.byte		N14	
	.byte	W24
	.byte		N04	, Dn2
	.byte	W12
	.byte		N05	, Gn1
	.byte	W12
	.byte		N10	
	.byte	W12
	.byte		N04	, Bn1
	.byte	W06
	.byte		N05	, Cn2
	.byte	W06
	.byte		N11	, Dn2
	.byte	W12
	.byte		N17	, Cn2
	.byte	W24
	.byte			Cn3
	.byte	W18
	.byte		N05	, Gn2
	.byte	W06
	.byte		N11	, Cn2
	.byte	W12
	.byte		N07	, Dn2
	.byte	W12
	.byte			Ds2
	.byte	W12
	.byte		N19	, Fn2
	.byte	W12
	.byte	W12
	.byte		N21	
	.byte	W24
	.byte		N03	, Cn2
	.byte	W12
	.byte		N12	, Fn2
	.byte	W12
	.byte		N04	, Cn2
	.byte	W12
	.byte		N06	, Fn2
	.byte	W06
	.byte			En2
	.byte	W06
	.byte		N10	, Ds2
	.byte	W12
	.byte		N17	, Dn2
	.byte	W24
	.byte		N13	
	.byte	W18
	.byte		N05	
	.byte	W06
	.byte		N08	, An2
	.byte	W12
	.byte		N05	, Dn2
	.byte	W12
	.byte		N11	, An2
	.byte	W12
	.byte		N19	, Gn2
	.byte	W12
	.byte	W12
	.byte		N10	
	.byte	W12
	.byte			Dn2
	.byte	W12
	.byte		N20	, Gn1
	.byte	W24
	.byte		N11	
	.byte	W12
	.byte		N05	, Bn1
	.byte	W06
	.byte			Cn2
	.byte	W06
	.byte		N10	, Dn2
	.byte	W12
	.byte		N16	, Cn2
	.byte	W24
	.byte		N12	
	.byte	W18
	.byte		N04	, Gn2
	.byte	W06
	.byte		N08	, Cn2
	.byte	W12
	.byte			Dn2
	.byte	W12
	.byte		N05	, Ds2
	.byte	W12
	.byte		N19	, Fn2
	.byte	W12
	.byte	W12
	.byte		N04	, Fn1
	.byte	W12
	.byte		N04	
	.byte	W12
	.byte		N05	
	.byte	W12
	.byte		N08	
	.byte	W24
	.byte		N07	
	.byte	W06
	.byte		N06	, Gn1
	.byte	W06
	.byte		N05	, As1
	.byte	W12
	.byte		N14	
	.byte	W24
	.byte		N13	, As2
	.byte	W18
	.byte		N06	, As1
	.byte	W06
	.byte		N07	, Dn2
	.byte	W12
	.byte		N16	
	.byte	W24
	.byte		N19	, Ds2
	.byte	W12
	.byte	W12
	.byte		N07	
	.byte	W12
	.byte		N09	, Ds1
	.byte	W12
	.byte		N19	, Fn1
	.byte	W24
	.byte		N11	
	.byte	W12
	.byte		N04	, Fn2
	.byte	W06
	.byte		N05	, Cn2
	.byte	W06
	.byte		N09	, Fn1
	.byte	W12
	.byte		N16	, As1
	.byte	W24
	.byte		N13	, As2
	.byte	W18
	.byte		N05	, As1
	.byte	W06
	.byte		N08	, Dn2
	.byte	W12
	.byte		N17	
	.byte	W18
	.byte		N02	, Ds2
	.byte	W06
	.byte		N18	
	.byte	W12
	.byte	W12
	.byte		N06	
	.byte	W12
	.byte			En2
	.byte	W12
	.byte		N17	, Fn2
	.byte	W24
	.byte		N06	
	.byte	W12
	.byte		N06	
	.byte	W06
	.byte			Gn2
	.byte	W06
	.byte		N07	, As2
	.byte	W12
	.byte		N15	, As1
	.byte	W24
	.byte		N16	, As2
	.byte	W18
	.byte		N05	, As1
	.byte	W06
	.byte		N08	, Dn2
	.byte	W12
	.byte		N17	
	.byte	W24
	.byte		N21	, Ds2
	.byte	W12
	.byte	W12
	.byte		N06	, Ds1
	.byte	W12
	.byte		N10	
	.byte	W12
	.byte		N19	, Fn1
	.byte	W24
	.byte		N06	
	.byte	W12
	.byte		N07	
	.byte	W06
	.byte			Gn1
	.byte	W06
	.byte		N08	, As1
	.byte	W12
	.byte		N22	
	.byte	W24
	.byte		N09	, As2
	.byte	W18
	.byte		N05	, As1
	.byte	W06
	.byte		N08	, Dn2
	.byte	W12
	.byte		N06	, Ds2
	.byte	W12
	.byte			En2
	.byte	W12
	.byte		N22	, Fn2
	.byte	W12
	.byte	W12
	.byte		N04	
	.byte	W12
	.byte		N05	
	.byte	W12
	.byte		N05	
	.byte	W12
	.byte		N07	
	.byte	W24
	.byte		N23	, Fn1
	.byte	W24
	.byte	GOTO	
		.word	song0045_3_1
	.byte	FINE

	@********************** Track  4 **********************@

	.global song0045_4
song0045_4:	@ 0x08C7A863
	.byte	KEYSH	, 0
	.byte	VOICE	, 87
	.byte	VOL	, v070
	.byte	MODT	, 2
	.byte	LFOS	, 48
	.byte	MOD	, 42
	.byte		N13	, Fn2, v080
	.byte		N13	, As2
	.byte		N14	, Dn3, v084
	.byte	W18
	.byte		N24	, Fn2, v096
	.byte		N28	, As2, v104
	.byte		N28	, Dn3, v116
	.byte	W30
	.byte		N14	, Gn2, v096
	.byte		N15	, Cn3
	.byte		N14	, En3
	.byte	W18
	.byte		N23	, Gn2
	.byte		N23	, Cn3, v100
	.byte		N24	, En3, v104
	.byte	W30
	.byte		N14	, Gs2, v096
	.byte		N15	, Cs3, v092
	.byte		N15	, Fn3, v096
	.byte	W18
	.byte		N05	, Gs2, v108
	.byte		N06	, Cs3, v096
	.byte		N06	, Fn3, v104
	.byte	W18
	.byte		N32	, As2, v108
	.byte		N32	, Ds3, v096
	.byte		N32	, Gn3, v108
	.byte	W36
	.byte		N17	, Cn3, v096
	.byte		N19	, Fn3, v100
	.byte		N22	, An3, v096
	.byte	W24
song0045_4_1:
	.byte		N09	, Gs2, v072
	.byte		N10	, Dn3, v064
	.byte	W24
	.byte		N05	, Cs3, v088
	.byte		N14	, Fn3, v100
	.byte	W01
	.byte			Dn3, v084
	.byte	W17
	.byte		N02	, Dn3, v108
	.byte		N03	, Fn3, v096
	.byte	W18
	.byte		N08	, Dn3
	.byte		N08	, Fn3
	.byte	W13
	.byte		N02	, Gn2, v072
	.byte	W12
	.byte		N44	, Gn2, v076
	.byte		N44	, As2, v092
	.byte	W11
	.byte	W36
	.byte	W01
	.byte		N02	, Gn2, v088
	.byte		N02	, As2, v096
	.byte	W12
	.byte		N16	, Gn2, v088
	.byte		N18	, Cs3, v096
	.byte	W23
	.byte		N08	, Gn2, v076
	.byte		N12	, Ds3, v100
	.byte	W11
	.byte		N06	, Gn2, v056
	.byte	W01
	.byte		N05	, Cs3
	.byte	W12
	.byte	W01
	.byte		N24	, Fn2, v068
	.byte		N24	, An2, v060
	.byte	W48
	.byte		N02	, Cn3, v068
	.byte	W01
	.byte			Fn2, v044
	.byte		N02	, An2, v036
	.byte	W11
	.byte		N14	, Fn2, v084
	.byte		N14	, Cn3
	.byte	W24
	.byte	W02
	.byte		N30	, Fn2, v060
	.byte		N30	, An2
	.byte		N30	, Cn3, v068
	.byte	W09
	.byte	W24
	.byte	W01
	.byte		N06	, Fn2, v096
	.byte		N06	, An2
	.byte		N10	, Cn3, v080
	.byte	W13
	.byte		N54	, Bn2, v088
	.byte	W01
	.byte		N52	, Fn2, v080
	.byte		N52	, Gs2
	.byte	W56
	.byte		N21	, Ds3, v092
	.byte	W01
	.byte			As2, v084
	.byte	W01
	.byte		N19	, Gn2, v048
	.byte	W23
	.byte		N16	, Ds3, v096
	.byte	W01
	.byte		N05	, Gn2, v076
	.byte		N08	, As2, v080
	.byte	W11
	.byte		N03	, Gn2, v020
	.byte	W07
	.byte			Gn2, v076
	.byte		N02	, As2
	.byte		N02	, Ds3, v100
	.byte	W19
	.byte		N05	, Ds3, v088
	.byte	W01
	.byte		N04	, Gn2, v060
	.byte		N05	, As2, v080
	.byte	W12
	.byte		N02	, Ds2, v076
	.byte	W11
	.byte		N20	, Gn2, v092
	.byte		N20	, As2, v096
	.byte		N20	, Ds3, v104
	.byte	W10
	.byte	W13
	.byte		N02	, Gn2, v040
	.byte		N02	, As2, v048
	.byte		N03	, Ds3, v072
	.byte	W13
	.byte		N02	, Fn2, v052
	.byte	W10
	.byte		N30	, An2, v072
	.byte		N30	, Cn3
	.byte		N30	, Ds3, v088
	.byte	W32
	.byte	W03
	.byte		N22	, Ds2, v092
	.byte		N21	, An2, v072
	.byte		N22	, Cn3, v076
	.byte	W24
	.byte	W01
	.byte	W01
	.byte		N52	, Fn2, v084
	.byte		N52	, An2, v076
	.byte		N48	, Cn3
	.byte	W56
	.byte	W02
	.byte		N06	, Fn3, v088
	.byte	W02
	.byte		N02	, An2, v076
	.byte		N04	, Cn3, v060
	.byte	W12
	.byte		N11	, An2, v076
	.byte		N03	, Cn3, v068
	.byte		N10	, Fn3, v084
	.byte	W11
	.byte		N20	, Fn2, v100
	.byte		N20	, Bn2, v076
	.byte	W01
	.byte		N21	, Ds3, v108
	.byte	W11
	.byte	W12
	.byte		N04	, Fn2, v084
	.byte		N06	, Ds3, v096
	.byte	W01
	.byte			Bn2, v056
	.byte	W11
	.byte		N03	, Fn2, v080
	.byte	W13
	.byte		N56	, Fn2, v096
	.byte		N56	, Bn2, v084
	.byte		N56	, Dn3, v100
	.byte	W56
	.byte	W03
	.byte		N08	, As2, v076
	.byte	W01
	.byte			Gn2, v088
	.byte		N09	, Ds3, v092
	.byte	W24
	.byte		N13	, Gn2, v076
	.byte		N14	, As2, v084
	.byte		N14	, Ds3, v092
	.byte	W17
	.byte		N03	, As2, v080
	.byte		N04	, Ds3, v100
	.byte	W01
	.byte			Gn2, v072
	.byte	W16
	.byte		N20	, Ds3, v084
	.byte	W01
	.byte		N18	, Gn3, v048
	.byte	W12
	.byte		N03	, Gn2, v076
	.byte	W13
	.byte		N16	, An2, v072
	.byte	W01
	.byte			Ds2, v076
	.byte		N17	, Fn3, v056
	.byte	W10
	.byte	W11
	.byte		N02	, Ds2, v052
	.byte		N03	, An2, v068
	.byte		N04	, Fn3, v096
	.byte	W12
	.byte			Fn3, v100
	.byte	W01
	.byte		N02	, Ds2, v080
	.byte		N02	, An2, v068
	.byte	W11
	.byte		N08	, Ds2, v088
	.byte		N07	, An2, v092
	.byte		N08	, Fn3, v096
	.byte	W15
	.byte		N02	, Bn2, v036
	.byte	W02
	.byte			An2, v072
	.byte	W02
	.byte			Gn2
	.byte	W01
	.byte			Fn2, v076
	.byte	W02
	.byte			En2, v072
	.byte	W02
	.byte			Dn2, v060
	.byte	W02
	.byte			Cn2, v048
	.byte	W05
	.byte			Gn1, v028
	.byte	W01
	.byte		N05	, Fn1, v072
	.byte	W04
	.byte		N02	, Gn1, v028
	.byte	W02
	.byte			An1, v084
	.byte	W01
	.byte		N04	, Bn1, v108
	.byte	W02
	.byte		N05	, Cn2, v084
	.byte	W03
	.byte		N02	, Dn2, v032
	.byte	W02
	.byte		N01	, En2, v076
	.byte	W02
	.byte		N02	, Fn2, v040
	.byte	W02
	.byte			Gn2, v044
	.byte	W02
	.byte			An2, v056
	.byte	W01
	.byte			Bn2, v064
	.byte	W08
	.byte	W01
	.byte		N05	, Dn3, v084
	.byte	W24
	.byte		N13	, As3, v127
	.byte	W01
	.byte		N14	, Gs2, v112
	.byte		N13	, Dn3, v120
	.byte	W16
	.byte		N04	, Dn3, v104
	.byte		N04	, As3, v124
	.byte	W01
	.byte		N02	, Gs2, v096
	.byte	W08
	.byte		N03	, Gs2, v076
	.byte	W10
	.byte		N15	, Dn3, v100
	.byte		N11	, Gs3, v120
	.byte	W02
	.byte		N14	, Gs2, v088
	.byte	W21
	.byte		N36	, Cs3, v100
	.byte		N36	, Gn3, v104
	.byte	W01
	.byte		N19	, Gn2, v100
	.byte	W11
	.byte	W12
	.byte		N02	, Gn2, v096
	.byte	W12
	.byte		N05	, Gn2, v108
	.byte	W11
	.byte			Cs3, v112
	.byte		N06	, Gn3, v108
	.byte	W06
	.byte		N04	, Cn3, v080
	.byte	W06
	.byte		N06	, Gn3, v092
	.byte	W01
	.byte		N05	, Cs3
	.byte	W06
	.byte		N06	, Cn3, v084
	.byte	W05
	.byte			Gn3, v052
	.byte	W01
	.byte		N05	, Cs3, v092
	.byte	W06
	.byte		N06	, Cn3, v080
	.byte	W06
	.byte		N05	, Cs3, v112
	.byte	W01
	.byte			Gn3, v104
	.byte	W05
	.byte		N03	, Cn3, v076
	.byte	W07
	.byte			As2, v104
	.byte	W05
	.byte			Gn2, v096
	.byte	W05
	.byte		N09	, As2, v124
	.byte	W01
	.byte	W11
	.byte		N12	
	.byte	W12
	.byte		N11	, Gn2, v092
	.byte	W13
	.byte		N05	, Cs3, v112
	.byte		N19	, Fn3, v104
	.byte	W03
	.byte		N16	, Dn3, v068
	.byte	W16
	.byte		N02	, Gn2, v044
	.byte	W03
	.byte		N05	, Dn3, v108
	.byte		N05	, Fn3, v100
	.byte	W14
	.byte		N02	, Gn2, v032
	.byte	W12
	.byte		N21	, Dn3, v104
	.byte		N18	, Fn3
	.byte	W12
	.byte	W11
	.byte		N05	, Gn2, v084
	.byte		N05	, Ds3, v088
	.byte	W13
	.byte		N11	, Ds3, v108
	.byte	W01
	.byte		N09	, Gn2, v088
	.byte	W11
	.byte		N06	, Cs3, v076
	.byte	W02
	.byte		N02	, Gn2, v068
	.byte		N23	, Dn3, v096
	.byte	W22
	.byte		N11	, As2, v108
	.byte	W13
	.byte		N05	, Fn2, v072
	.byte	W06
	.byte		N06	, Ds2, v096
	.byte	W05
	.byte		N12	, Cs2, v104
	.byte	W12
	.byte	W02
	.byte		N07	, Dn2, v108
	.byte	W10
	.byte		N12	, Dn2, v052
	.byte	W12
	.byte		N05	, Cs3, v112
	.byte		N13	, Fn3, v108
	.byte	W03
	.byte		N12	, Dn3, v084
	.byte	W15
	.byte		N05	, Dn3, v116
	.byte		N04	, Fn3, v096
	.byte	W08
	.byte		N02	, Gn2, v076
	.byte	W11
	.byte		N12	, Dn3
	.byte		N05	, En3
	.byte		N11	, Fn3, v096
	.byte	W11
	.byte		N02	, Gn2, v084
	.byte	W12
	.byte		N19	, Ds3, v108
	.byte		N19	, Gn3
	.byte	W12
	.byte	W11
	.byte		N08	, Ds3, v084
	.byte	W01
	.byte		N07	, Gn3, v072
	.byte	W03
	.byte		N03	, As2, v032
	.byte	W09
	.byte			As2, v048
	.byte		N02	, Dn3, v076
	.byte		N05	, Fs3, v108
	.byte		N08	, As3
	.byte	W03
	.byte		N05	, Gn3, v068
	.byte	W09
	.byte		N24	, Gn3, v112
	.byte		N22	, As3, v104
	.byte	W24
	.byte	W01
	.byte		N11	, Fn3
	.byte		N10	, An3, v092
	.byte	W12
	.byte		N07	, Ds3, v104
	.byte	W01
	.byte		N09	, Gn3, v096
	.byte	W01
	.byte		N03	, As2, v060
	.byte	W11
	.byte		N32	, Dn3, v096
	.byte		N32	, Fn3
	.byte	W10
	.byte	W24
	.byte	W01
	.byte		N06	, Cs3, v104
	.byte		N14	, Fn3, v108
	.byte	W04
	.byte		N11	, Dn3, v100
	.byte	W14
	.byte		N04	, Fn3
	.byte	W01
	.byte		N02	, Dn3, v108
	.byte	W06
	.byte		N01	, Dn2, v064
	.byte	W10
	.byte		N19	, As2, v100
	.byte	W01
	.byte		N16	, Fn2, v060
	.byte		N16	, Dn3, v084
	.byte	W11
	.byte		N04	, Dn2, v088
	.byte	W12
	.byte		N17	, Gn2, v100
	.byte	W01
	.byte		N18	, As2, v080
	.byte	W11
	.byte	W12
	.byte		N04	, Gn2, v096
	.byte		N04	, As2, v084
	.byte	W12
	.byte			Gn2, v100
	.byte		N04	, As2, v108
	.byte	W12
	.byte		N03	, Gn2, v112
	.byte	W01
	.byte			As2, v088
	.byte	W12
	.byte		N04	, Gn2, v127
	.byte		N04	, As2, v116
	.byte	W44
	.byte	W03
	.byte	GOTO	
		.word	song0045_4_1
	.byte	FINE

	@********************** Track  5 **********************@

	.global song0045_5
song0045_5:	@ 0x08C7ABF3
	.byte	KEYSH	, 0
	.byte	VOICE	, 64
	.byte	VOL	, v086
	.byte		N13	, Fn3, v108
	.byte	W18
	.byte		N28	, Fn3, v120
	.byte	W30
	.byte		N14	, Gn3, v127
	.byte	W18
	.byte		N28	, Gn3, v124
	.byte	W30
	.byte		N16	, Gs3
	.byte	W18
	.byte		N07	, Gs3, v120
	.byte	W18
	.byte		N32	, As3, v127
	.byte	W36
	.byte		N23	, Cn4, v124
	.byte	W24
song0045_5_1:
	.byte	W96
	.byte	W96
	.byte	W96
	.byte	W96
	.byte	W96
	.byte	W96
	.byte	W96
	.byte	W96
	.byte	W96
	.byte	W96
	.byte	W96
	.byte	W96
	.byte	W96
	.byte	W96
	.byte	W96
	.byte	W96
	.byte	W96
	.byte	W96
	.byte	GOTO	
		.word	song0045_5_1
	.byte	FINE

	@********************** Track  6 **********************@

	.global song0045_6
song0045_6:	@ 0x08C7AC30
	.byte	KEYSH	, 0
	.byte	VOICE	, 63
	.byte	VOL	, v086
	.byte	W96
	.byte	BEND	, c_v
	.byte	W96
song0045_6_1:
	.byte		N19	, As2, v127
	.byte		N22	, As3
	.byte	W20
	.byte		N03	, An2, v064
	.byte	W04
	.byte		N02	, Gn2, v048
	.byte	W04
	.byte			Fn2, v044
	.byte	W02
	.byte			En2, v056
	.byte	W04
	.byte		N01	, Dn2
	.byte	W03
	.byte		N02	, Cn2, v036
	.byte	W56
	.byte	W03
	.byte	PEND
	.byte	W96
	.byte	W96
	.byte	W96
	.byte	W96
	.byte	W96
	.byte	W96
	.byte	W96
	.byte	W96
	.byte	W96
	.byte	PATT	
		.word	song0045_6_1
	.byte	W24
	.byte		N06	, Fn2, v112
	.byte		N06	, Fn3
	.byte	W06
	.byte			Gn2, v124
	.byte		N06	, Gn3
	.byte	W12
	.byte			Gn2, v108
	.byte		N06	, Gn3
	.byte	W06
	.byte			As2, v120
	.byte		N06	, As3
	.byte	W06
	.byte			As2, v108
	.byte		N06	, As3
	.byte	W06
	.byte			Gn2, v112
	.byte		N06	, Gn3
	.byte	W12
	.byte		N12	, As2, v124
	.byte		N12	, As3
	.byte	W12
	.byte			Fn3, v112
	.byte		N12	, Dn4, v116
	.byte		N12	, Fn4, v112
	.byte	W09
	.byte	BEND	, c_v+8
	.byte	W01
	.byte		c_v+21
	.byte	W01
	.byte		c_v+33
	.byte	W01
	.byte		c_v+49
	.byte	W01
	.byte		c_v+60
	.byte	W01
	.byte		c_v+63
	.byte	W02
	.byte		c_v+62
	.byte	W01
	.byte		c_v+33
	.byte	W01
	.byte		c_v
	.byte	W90
	.byte	VOL	, v086
	.byte	W09
	.byte		v086
	.byte	W03
	.byte		N40	, Fn2, v120
	.byte		N40	, Fn3, v127
	.byte	W05
	.byte	VOL	, v080
	.byte	W01
	.byte		v070
	.byte	W01
	.byte		v062
	.byte	W01
	.byte		v052
	.byte	W01
	.byte		v041
	.byte	W01
	.byte		v035
	.byte	W01
	.byte		v028
	.byte	W01
	.byte		v029
	.byte	W01
	.byte		v032
	.byte	W01
	.byte		v034
	.byte	W01
	.byte		v036
	.byte	W01
	.byte		v038
	.byte	W01
	.byte		v040
	.byte	W01
	.byte		v042
	.byte	W01
	.byte		v045
	.byte	W01
	.byte		v048
	.byte	W01
	.byte		v049
	.byte	W01
	.byte		v051
	.byte	W01
	.byte		v054
	.byte	W01
	.byte		v055
	.byte	W01
	.byte		v058
	.byte	W01
	.byte		v061
	.byte	W01
	.byte		v062
	.byte	W01
	.byte		v065
	.byte	W01
	.byte		v067
	.byte	W01
	.byte		v069
	.byte	W01
	.byte		v071
	.byte	W01
	.byte		v074
	.byte	W01
	.byte		v075
	.byte	W01
	.byte		v078
	.byte	W01
	.byte		v081
	.byte	W01
	.byte		v082
	.byte	W01
	.byte		v085
	.byte	W01
	.byte		v086
	.byte	W10
	.byte		N11	, Fn2, v124
	.byte		N11	, Fn3, v127
	.byte	W12
	.byte			Gn2
	.byte		N11	, Gn3
	.byte	W12
	.byte		N19	, As2
	.byte		N22	, As3
	.byte	W12
	.byte	W08
	.byte		N03	, An2, v064
	.byte	W04
	.byte		N02	, Gn2, v048
	.byte	W04
	.byte			Fn2, v044
	.byte	W02
	.byte			En2, v056
	.byte	W04
	.byte		N01	, Dn2
	.byte	W03
	.byte		N02	, Cn2, v036
	.byte	W68
	.byte	W03
	.byte	W36
	.byte			Gn2, v084
	.byte		N04	, As2, v112
	.byte	W06
	.byte		N03	, Gn2, v084
	.byte		N02	, As2, v104
	.byte	W06
	.byte		N03	, Gn2, v112
	.byte	W06
	.byte		N02	, Cs3, v116
	.byte		N04	, Gn3, v120
	.byte	W12
	.byte		N02	, Gn2, v020
	.byte	W06
	.byte			Cs3, v116
	.byte		N04	, Gn3, v120
	.byte	W06
	.byte		N02	, Cs3, v116
	.byte		N04	, Gn3, v120
	.byte	W18
	.byte	W84
	.byte	W01
	.byte		N18	, As2, v116
	.byte		N18	, Ds3
	.byte	W01
	.byte		N16	, Gn2, v084
	.byte	W10
	.byte	W12
	.byte		N05	, Gn2, v092
	.byte		N05	, As2
	.byte		N05	, Ds3
	.byte	W12
	.byte		N04	, Gn2, v100
	.byte		N04	, As2, v120
	.byte		N06	, Ds3, v127
	.byte	W12
	.byte		N04	, Gn2, v104
	.byte		N05	, As2, v124
	.byte		N06	, Ds3
	.byte	W12
	.byte		N04	, Gn2, v112
	.byte		N04	, As2, v127
	.byte		N05	, Ds3
	.byte	W24
	.byte		N12	, Fn3
	.byte	W01
	.byte		N11	, Fn2, v124
	.byte	W23
	.byte	GOTO	
		.word	song0045_6_1
	.byte	FINE

	.align 2
	.global song0045
song0045:	@ 0x08C7AD88
	.byte	6		@ trackCount
	.byte	0		@ blockCount
	.byte	0		@ priority
	.byte	128		@ reverb

	.word	voicegroup014		@ voicegroup/tone

	.word	song0045_1		@ track
	.word	song0045_2		@ track
	.word	song0045_3		@ track
	.word	song0045_4		@ track
	.word	song0045_5		@ track
	.word	song0045_6		@ track
