	.include "MPlayDef.s"

	.section .rodata

	@********************** Track  1 **********************@

	.align 2
	.global song0048_1
song0048_1:	@ 0x08C7B450
	.byte	KEYSH	, 0
	.byte	TEMPO	, 70
	.byte	VOICE	, 42
	.byte	VOL	, v094
	.byte	PAN	, c_v
	.byte	MOD	, 0
	.byte	LFOS	, 20
	.byte	MODT	, 0
	.byte		N06	, Dn2, v127
	.byte	W03
song0048_1_1:
	.byte	W03
	.byte		N06	, Dn3, v127
	.byte	W06
	.byte			Dn2
	.byte	W06
	.byte		N06	
	.byte	W06
	.byte		N06	
	.byte	W06
	.byte			Dn3
	.byte	W06
	.byte			Dn2
	.byte	W06
	.byte		N06	
	.byte	W06
	.byte		N06	
	.byte	W06
	.byte			Dn3
	.byte	W06
	.byte			Dn2
	.byte	W06
	.byte		N06	
	.byte	W06
	.byte		N06	
	.byte	W06
	.byte			Dn3
	.byte	W06
	.byte			Dn2
	.byte	W06
	.byte		N06	
	.byte	W06
	.byte		N06	
	.byte	W03
	.byte	PEND
song0048_1_2:
	.byte	W03
	.byte		N06	, Dn3, v127
	.byte	W06
	.byte			Dn2
	.byte	W06
	.byte		N06	
	.byte	W06
	.byte		N06	
	.byte	W06
	.byte			Dn3
	.byte	W06
	.byte			Dn2
	.byte	W06
	.byte		N06	
	.byte	W06
	.byte		N06	
	.byte	W06
	.byte			Dn3
	.byte	W06
	.byte			Dn2
	.byte	W06
	.byte		N06	
	.byte	W06
	.byte		N06	
	.byte	W06
	.byte			Dn4
	.byte	W06
	.byte			Dn3
	.byte	W06
	.byte			Dn2
	.byte	W06
	.byte			Ds2
	.byte	W03
	.byte	PEND
song0048_1_3:
	.byte	W03
	.byte		N06	, Ds3, v127
	.byte	W06
	.byte			Ds2
	.byte	W06
	.byte		N06	
	.byte	W06
	.byte		N06	
	.byte	W06
	.byte			Ds3
	.byte	W06
	.byte			Ds2
	.byte	W06
	.byte		N06	
	.byte	W06
	.byte		N06	
	.byte	W06
	.byte			Ds3
	.byte	W06
	.byte			Ds2
	.byte	W06
	.byte		N06	
	.byte	W06
	.byte		N06	
	.byte	W06
	.byte			Ds3
	.byte	W06
	.byte			Ds2
	.byte	W06
	.byte		N06	
	.byte	W06
	.byte		N06	
	.byte	W03
	.byte	PEND
song0048_1_4:
	.byte	W03
	.byte		N06	, Ds3, v127
	.byte	W06
	.byte			Ds2
	.byte	W06
	.byte		N06	
	.byte	W06
	.byte		N06	
	.byte	W06
	.byte			Ds3
	.byte	W06
	.byte			Ds2
	.byte	W06
	.byte		N06	
	.byte	W06
	.byte		N06	
	.byte	W06
	.byte			Ds3
	.byte	W06
	.byte			Ds2
	.byte	W06
	.byte		N06	
	.byte	W06
	.byte		N06	
	.byte	W06
	.byte			Ds4
	.byte	W06
	.byte			Ds3
	.byte	W06
	.byte			Ds2
	.byte	W06
	.byte			Dn2
	.byte	W03
	.byte	PEND
	.byte	PATT	
		.word	song0048_1_1
	.byte	PATT	
		.word	song0048_1_2
	.byte	PATT	
		.word	song0048_1_3
	.byte	PATT	
		.word	song0048_1_4
	.byte	PATT	
		.word	song0048_1_1
	.byte	PATT	
		.word	song0048_1_2
	.byte	PATT	
		.word	song0048_1_3
	.byte	PATT	
		.word	song0048_1_4
	.byte	PATT	
		.word	song0048_1_1
	.byte	PATT	
		.word	song0048_1_2
	.byte	PATT	
		.word	song0048_1_3
	.byte	PATT	
		.word	song0048_1_4
	.byte	PATT	
		.word	song0048_1_1
	.byte	PATT	
		.word	song0048_1_2
	.byte	PATT	
		.word	song0048_1_3
	.byte	PATT	
		.word	song0048_1_4
	.byte	PATT	
		.word	song0048_1_1
	.byte	PATT	
		.word	song0048_1_2
	.byte	PATT	
		.word	song0048_1_3
	.byte	PATT	
		.word	song0048_1_4
	.byte	GOTO	
		.word	song0048_1_1
	.byte	PATT	
		.word	song0048_1_1
	.byte	PATT	
		.word	song0048_1_2
	.byte	PATT	
		.word	song0048_1_3
	.byte	PATT	
		.word	song0048_1_4
	.byte	PATT	
		.word	song0048_1_1
	.byte	PATT	
		.word	song0048_1_2
	.byte	PATT	
		.word	song0048_1_3
	.byte	PATT	
		.word	song0048_1_4
	.byte	W03
	.byte		N06	, Dn3, v127
	.byte	W06
	.byte			Dn2
	.byte	W06
	.byte		N06	
	.byte	W06
	.byte		N06	
	.byte	W06
	.byte	FINE

	@********************** Track  2 **********************@

	.global song0048_2
song0048_2:	@ 0x08C7B591
	.byte	KEYSH	, 0
	.byte	VOICE	, 127
	.byte	VOL	, v084
	.byte	PAN	, c_v
	.byte		N18	, Ds2, v120
	.byte	W03
song0048_2_1:
	.byte	W21
	.byte		N18	, Ds2, v120
	.byte	W24
	.byte		N18	
	.byte	W24
	.byte		N18	
	.byte	W24
	.byte		N18	
	.byte	W03
	.byte	PEND
song0048_2_2:
	.byte	W21
	.byte		N18	, Ds2, v120
	.byte	W24
	.byte		N18	
	.byte	W18
	.byte		N06	, Ds2, v112
	.byte	W30
	.byte		N18	, Ds2, v120
	.byte	W03
	.byte	PEND
	.byte	PATT	
		.word	song0048_2_1
song0048_2_3:
	.byte	W21
	.byte		N18	, Ds2, v120
	.byte	W24
	.byte		N18	
	.byte	W18
	.byte		N06	, Ds2, v112
	.byte	W06
	.byte		N12	, Ds2, v120
	.byte	W12
	.byte		N12	
	.byte	W12
	.byte		N18	
	.byte	W03
	.byte	PEND
	.byte	PATT	
		.word	song0048_2_1
	.byte	PATT	
		.word	song0048_2_2
	.byte	PATT	
		.word	song0048_2_1
	.byte	PATT	
		.word	song0048_2_3
	.byte	PATT	
		.word	song0048_2_1
	.byte	PATT	
		.word	song0048_2_2
	.byte	PATT	
		.word	song0048_2_1
	.byte	PATT	
		.word	song0048_2_3
	.byte	PATT	
		.word	song0048_2_1
	.byte	PATT	
		.word	song0048_2_3
	.byte	PATT	
		.word	song0048_2_1
	.byte	PATT	
		.word	song0048_2_3
	.byte	PATT	
		.word	song0048_2_1
	.byte	PATT	
		.word	song0048_2_2
	.byte	PATT	
		.word	song0048_2_1
	.byte	PATT	
		.word	song0048_2_3
	.byte	PATT	
		.word	song0048_2_1
	.byte	PATT	
		.word	song0048_2_2
	.byte	PATT	
		.word	song0048_2_1
	.byte	PATT	
		.word	song0048_2_3
	.byte	GOTO	
		.word	song0048_2_1
	.byte	PATT	
		.word	song0048_2_1
	.byte	PATT	
		.word	song0048_2_2
	.byte	PATT	
		.word	song0048_2_1
	.byte	PATT	
		.word	song0048_2_3
	.byte	PATT	
		.word	song0048_2_1
	.byte	PATT	
		.word	song0048_2_3
	.byte	PATT	
		.word	song0048_2_1
	.byte	W21
	.byte		N18	, Ds2, v120
	.byte	W24
	.byte		N18	
	.byte	W18
	.byte		N06	, Ds2, v112
	.byte	W06
	.byte		N12	, Ds2, v120
	.byte	W12
	.byte		N12	
	.byte	W12
	.byte	FINE

	@********************** Track  3 **********************@

	.global song0048_3
song0048_3:	@ 0x08C7B670
	.byte	KEYSH	, 0
	.byte	VOICE	, 127
	.byte	VOL	, v080
	.byte		N24	, Cs2, v127
	.byte	W03
song0048_3_1:
	.byte	W09
	.byte		N06	, Dn1, v060
	.byte	W06
	.byte			Dn1, v052
	.byte	W06
	.byte		N12	, Ds1, v072
	.byte	W12
	.byte		N06	, Dn1, v060
	.byte	W06
	.byte			Dn1, v052
	.byte	W06
	.byte		N12	, Ds1, v072
	.byte	W12
	.byte		N06	, Dn1, v060
	.byte	W06
	.byte			Dn1, v052
	.byte	W06
	.byte		N12	, Ds1, v072
	.byte	W12
	.byte		N06	, Dn1, v060
	.byte	W06
	.byte			Dn1, v052
	.byte	W06
	.byte		N12	, Ds1, v072
	.byte	W03
	.byte	PEND
song0048_3_3:
	.byte	W09
	.byte		N06	, Dn1, v060
	.byte	W06
	.byte			Dn1, v052
	.byte	W06
	.byte		N12	, Ds1, v072
	.byte	W12
	.byte		N06	, Dn1, v060
	.byte	W06
	.byte			Dn1, v052
	.byte	W06
	.byte			En1, v080
	.byte	W06
	.byte			Dn1, v060
	.byte	W06
	.byte			Ds1, v072
	.byte	W06
	.byte			Dn1, v060
	.byte	W06
	.byte			En1, v080
	.byte	W06
	.byte			Dn1, v060
	.byte	W06
	.byte			Ds1, v072
	.byte	W06
	.byte			Dn1, v060
	.byte	W06
	.byte		N11	, Ds1, v072
	.byte	W03
	.byte	PEND
	.byte	PATT	
		.word	song0048_3_1
song0048_3_4:
	.byte	W09
	.byte		N06	, Dn1, v060
	.byte	W06
	.byte			Dn1, v052
	.byte	W06
	.byte		N12	, Ds1, v072
	.byte	W12
	.byte		N06	, Dn1, v060
	.byte	W06
	.byte			Dn1, v052
	.byte	W06
	.byte			En1, v080
	.byte	W06
	.byte			Dn1, v060
	.byte	W06
	.byte			Ds1, v072
	.byte	W06
	.byte			Dn1, v060
	.byte	W06
	.byte			En1, v080
	.byte	W06
	.byte			Dn1, v060
	.byte	W06
	.byte			Ds1, v072
	.byte	W06
	.byte			Dn1, v060
	.byte	W06
	.byte		N36	, Fs2, v120
	.byte	W03
	.byte	PEND
song0048_3_5:
	.byte	W09
	.byte		N06	, Dn1, v060
	.byte	W06
	.byte			Dn1, v052
	.byte	W06
	.byte			Dn1, v072
	.byte	W06
	.byte			Dn1, v052
	.byte	W06
	.byte			Dn1, v060
	.byte	W06
	.byte			Dn1, v052
	.byte	W06
	.byte			Dn1, v072
	.byte	W06
	.byte			Dn1, v052
	.byte	W06
	.byte			Dn1, v060
	.byte	W06
	.byte			Dn1, v052
	.byte	W06
	.byte			Dn1, v072
	.byte	W06
	.byte			Dn1, v052
	.byte	W06
	.byte			Dn1, v060
	.byte	W06
	.byte			Dn1, v052
	.byte	W06
	.byte			Dn1, v072
	.byte	W03
	.byte	PEND
song0048_3_6:
	.byte	W03
	.byte		N06	, Dn1, v052
	.byte	W06
	.byte			Dn1, v060
	.byte	W06
	.byte			Dn1, v052
	.byte	W06
	.byte			Dn1, v072
	.byte	W06
	.byte			Dn1, v052
	.byte	W06
	.byte			Dn1, v060
	.byte	W06
	.byte			Dn1, v052
	.byte	W06
	.byte			Ds1, v072
	.byte	W06
	.byte			Dn1, v052
	.byte	W06
	.byte			Dn1, v060
	.byte	W06
	.byte			Dn1, v052
	.byte	W06
	.byte			Dn1, v072
	.byte	W06
	.byte			Dn1, v052
	.byte	W06
	.byte			Ds1, v072
	.byte	W06
	.byte			Dn1, v052
	.byte	W06
	.byte			Dn1, v072
	.byte	W03
	.byte	PEND
song0048_3_7:
	.byte	W03
	.byte		N06	, Dn1, v052
	.byte	W06
	.byte			Dn1, v060
	.byte	W06
	.byte			Dn1, v052
	.byte	W06
	.byte			Dn1, v072
	.byte	W06
	.byte			Dn1, v052
	.byte	W06
	.byte			Dn1, v060
	.byte	W06
	.byte			Dn1, v052
	.byte	W06
	.byte			Dn1, v072
	.byte	W06
	.byte			Dn1, v052
	.byte	W06
	.byte			Dn1, v060
	.byte	W06
	.byte			Dn1, v052
	.byte	W06
	.byte			Dn1, v072
	.byte	W06
	.byte			Dn1, v052
	.byte	W06
	.byte			Dn1, v060
	.byte	W06
	.byte			Dn1, v052
	.byte	W06
	.byte			Dn1, v072
	.byte	W03
	.byte	PEND
song0048_3_8:
	.byte	W03
	.byte		N06	, Dn1, v052
	.byte	W06
	.byte			Dn1, v060
	.byte	W06
	.byte			Dn1, v052
	.byte	W06
	.byte			Dn1, v072
	.byte	W06
	.byte			Dn1, v052
	.byte	W06
	.byte			Dn1, v060
	.byte	W06
	.byte			Dn1, v052
	.byte	W06
	.byte			Dn1, v072
	.byte	W06
	.byte			Dn1, v052
	.byte	W06
	.byte			Ds1, v080
	.byte	W06
	.byte			Dn1, v052
	.byte	W06
	.byte			Dn1, v072
	.byte	W06
	.byte			Dn1, v052
	.byte	W06
	.byte		N12	, Ds1, v080
	.byte	W12
	.byte		N24	, Cs2, v120
	.byte	W03
	.byte	PEND
	.byte	PATT	
		.word	song0048_3_1
	.byte	PATT	
		.word	song0048_3_1
	.byte	PATT	
		.word	song0048_3_1
song0048_3_9:
	.byte	W09
	.byte		N06	, Dn1, v060
	.byte	W06
	.byte			Dn1, v052
	.byte	W06
	.byte		N12	, Ds1, v072
	.byte	W12
	.byte		N06	, Dn1, v060
	.byte	W06
	.byte			Dn1, v052
	.byte	W06
	.byte			Ds1, v060
	.byte	W06
	.byte		N06	
	.byte	W06
	.byte			En1
	.byte	W06
	.byte			Ds1
	.byte	W06
	.byte		N06	
	.byte	W06
	.byte		N06	
	.byte	W06
	.byte			En1
	.byte	W06
	.byte			Ds1
	.byte	W06
	.byte		N24	, Fs2, v120
	.byte	W03
	.byte	PEND
song0048_3_10:
	.byte	W09
	.byte		N06	, Dn1, v060
	.byte	W06
	.byte			Dn1, v052
	.byte	W06
	.byte		N12	, En1, v072
	.byte	W12
	.byte		N06	, Ds1, v060
	.byte	W06
	.byte			Ds1, v052
	.byte	W06
	.byte		N12	, En1, v072
	.byte	W12
	.byte		N06	, Ds1, v060
	.byte	W06
	.byte			Ds1, v052
	.byte	W06
	.byte		N12	, En1, v072
	.byte	W12
	.byte		N06	, Ds1, v060
	.byte	W06
	.byte			Ds1, v052
	.byte	W06
	.byte		N12	, En1, v072
	.byte	W03
	.byte	PEND
song0048_3_2:
	.byte	W09
	.byte		N06	, Ds1, v060
	.byte	W06
	.byte			Ds1, v052
	.byte	W06
	.byte		N12	, En1, v072
	.byte	W12
	.byte		N06	, Ds1, v060
	.byte	W06
	.byte			Ds1, v052
	.byte	W06
	.byte		N12	, En1, v072
	.byte	W12
	.byte		N06	, Ds1, v060
	.byte	W06
	.byte			Ds1, v052
	.byte	W06
	.byte		N12	, En1, v072
	.byte	W12
	.byte		N06	, Ds1, v060
	.byte	W06
	.byte			Ds1, v052
	.byte	W06
	.byte		N12	, En1, v072
	.byte	W03
	.byte	PEND
	.byte	PATT	
		.word	song0048_3_2
	.byte	W09
	.byte		N06	, Ds1, v060
	.byte	W06
	.byte			Ds1, v052
	.byte	W06
	.byte		N12	, En1, v072
	.byte	W12
	.byte		N06	, Ds1, v060
	.byte	W06
	.byte			Ds1, v052
	.byte	W06
	.byte			En1, v060
	.byte	W06
	.byte		N06	
	.byte	W06
	.byte			Fn1
	.byte	W06
	.byte			En1
	.byte	W06
	.byte		N06	
	.byte	W06
	.byte		N06	
	.byte	W06
	.byte			Fn1
	.byte	W06
	.byte			En1
	.byte	W06
	.byte		N24	, Cs2, v127
	.byte	W03
	.byte	PATT	
		.word	song0048_3_1
	.byte	PATT	
		.word	song0048_3_3
	.byte	PATT	
		.word	song0048_3_1
	.byte	PATT	
		.word	song0048_3_4
	.byte	PATT	
		.word	song0048_3_5
	.byte	PATT	
		.word	song0048_3_6
	.byte	PATT	
		.word	song0048_3_7
	.byte	PATT	
		.word	song0048_3_8
	.byte	GOTO	
		.word	song0048_3_1
	.byte	PATT	
		.word	song0048_3_1
	.byte	PATT	
		.word	song0048_3_1
	.byte	PATT	
		.word	song0048_3_1
	.byte	PATT	
		.word	song0048_3_9
	.byte	PATT	
		.word	song0048_3_10
	.byte	PATT	
		.word	song0048_3_2
	.byte	PATT	
		.word	song0048_3_2
	.byte	W09
	.byte		N06	, Ds1, v060
	.byte	W06
	.byte			Ds1, v052
	.byte	W06
	.byte		N12	, En1, v072
	.byte	W12
	.byte		N06	, Ds1, v060
	.byte	W06
	.byte			Ds1, v052
	.byte	W06
	.byte			En1, v060
	.byte	W06
	.byte		N06	
	.byte	W06
	.byte			Fn1
	.byte	W06
	.byte			En1
	.byte	W06
	.byte		N06	
	.byte	W06
	.byte		N06	
	.byte	W06
	.byte			Fn1
	.byte	W06
	.byte			En1
	.byte	W06
	.byte	FINE

	@********************** Track  4 **********************@

	.global song0048_4
song0048_4:	@ 0x08C7B90B
	.byte	KEYSH	, 0
	.byte	VOICE	, 93
	.byte	VOL	, v080
	.byte	MOD	, 50
	.byte	LFOS	, 40
	.byte	MODT	, 1
	.byte	PRIO	, 10
	.byte	PAN	, c_v
	.byte	W03
song0048_4_1:
	.byte	W09
	.byte		N11	, Fn3, v124
	.byte		N11	, Dn4
	.byte	W12
	.byte		N17	, Fn3, v116
	.byte		N17	, Dn4
	.byte	W18
	.byte		N11	, Fn3, v104
	.byte		N11	, Dn4
	.byte	W12
	.byte		N17	, Fn3, v096
	.byte		N17	, Dn4
	.byte	W18
	.byte			Fn3, v080
	.byte		N17	, Dn4
	.byte	W18
	.byte			Fn3, v068
	.byte		N17	, Dn4
	.byte	W09
	.byte	PEND
song0048_4_2:
	.byte	W09
	.byte		N17	, Fn3, v056
	.byte		N17	, Dn4
	.byte	W18
	.byte			Fn3, v044
	.byte		N17	, Dn4
	.byte	W18
	.byte			Fn3, v028
	.byte		N17	, Dn4
	.byte	W18
	.byte			Fn3, v016
	.byte		N17	, Dn4
	.byte	W18
	.byte		N23	, Fn3, v004
	.byte		N23	, Dn4
	.byte	W15
	.byte	PEND
song0048_4_3:
	.byte	W09
	.byte		N11	, Gn3, v124
	.byte		N11	, Ds4
	.byte	W12
	.byte		N17	, Gn3, v116
	.byte		N17	, Ds4
	.byte	W18
	.byte		N11	, Gn3, v104
	.byte		N11	, Ds4
	.byte	W12
	.byte		N17	, Gn3, v096
	.byte		N17	, Ds4
	.byte	W18
	.byte			Gn3, v080
	.byte		N17	, Ds4
	.byte	W18
	.byte			Gn3, v068
	.byte		N17	, Ds4
	.byte	W09
	.byte	PEND
song0048_4_4:
	.byte	W09
	.byte		N17	, Gn3, v056
	.byte		N17	, Ds4
	.byte	W18
	.byte			Gn3, v044
	.byte		N17	, Ds4
	.byte	W18
	.byte			Gn3, v028
	.byte		N17	, Ds4
	.byte	W18
	.byte			Gn3, v016
	.byte		N17	, Ds4
	.byte	W18
	.byte		N11	, Gn3, v004
	.byte		N11	, Ds4
	.byte	W09
	.byte	VOICE	, 93
	.byte	VOL	, v080
	.byte	MOD	, 2
	.byte	LFOS	, 40
	.byte	MODT	, 1
	.byte	PRIO	, 10
	.byte	PAN	, c_v
	.byte	W06
	.byte	PEND
	.byte	PATT	
		.word	song0048_4_1
	.byte	PATT	
		.word	song0048_4_2
	.byte	PATT	
		.word	song0048_4_3
	.byte	PATT	
		.word	song0048_4_4
	.byte	PATT	
		.word	song0048_4_1
	.byte	PATT	
		.word	song0048_4_2
	.byte	PATT	
		.word	song0048_4_3
	.byte	PATT	
		.word	song0048_4_4
	.byte	PATT	
		.word	song0048_4_1
	.byte	PATT	
		.word	song0048_4_2
	.byte	PATT	
		.word	song0048_4_3
	.byte	PATT	
		.word	song0048_4_4
	.byte	PATT	
		.word	song0048_4_1
	.byte	PATT	
		.word	song0048_4_2
	.byte	PATT	
		.word	song0048_4_3
	.byte	PATT	
		.word	song0048_4_4
	.byte	PATT	
		.word	song0048_4_1
	.byte	PATT	
		.word	song0048_4_2
	.byte	PATT	
		.word	song0048_4_3
	.byte	PATT	
		.word	song0048_4_4
	.byte	GOTO	
		.word	song0048_4_1
	.byte	PATT	
		.word	song0048_4_1
	.byte	PATT	
		.word	song0048_4_2
	.byte	PATT	
		.word	song0048_4_3
	.byte	PATT	
		.word	song0048_4_4
	.byte	PATT	
		.word	song0048_4_1
	.byte	PATT	
		.word	song0048_4_2
	.byte	PATT	
		.word	song0048_4_3
	.byte	W09
	.byte		N17	, Gn3, v056
	.byte		N17	, Ds4
	.byte	W18
	.byte			Gn3, v044
	.byte		N17	, Ds4
	.byte	W18
	.byte			Gn3, v028
	.byte		N17	, Ds4
	.byte	W18
	.byte			Gn3, v016
	.byte		N17	, Ds4
	.byte	W18
	.byte		N11	, Gn3, v004
	.byte		N11	, Ds4
	.byte	W09
	.byte	VOICE	, 93
	.byte	VOL	, v080
	.byte	MOD	, 2
	.byte	LFOS	, 40
	.byte	MODT	, 1
	.byte	PRIO	, 10
	.byte	PAN	, c_v
	.byte	W02
	.byte	FINE

	@********************** Track  5 **********************@

	.global song0048_5
song0048_5:	@ 0x08C7BA65
	.byte	KEYSH	, 0
	.byte	VOICE	, 2
	.byte	VOL	, v036
	.byte	PAN	, c_v-30
	.byte	MOD	, 2
	.byte	LFOS	, 20
	.byte	MODT	, 0
	.byte	W03
song0048_5_6:
	.byte	VOL	, v036
	.byte	PAN	, c_v-30
	.byte	W09
	.byte		N11	, Dn5, v124
	.byte	W12
	.byte		N17	, Dn5, v116
	.byte	W18
	.byte		N11	, Dn5, v104
	.byte	W12
	.byte		N17	, Dn5, v096
	.byte	W18
	.byte			Dn5, v080
	.byte	W18
	.byte			Dn5, v068
	.byte	W09
song0048_5_1:
	.byte	W09
	.byte		N17	, Dn5, v056
	.byte	W18
	.byte			Dn5, v044
	.byte	W18
	.byte			Dn5, v028
	.byte	W18
	.byte			Dn5, v016
	.byte	W18
	.byte		N23	, Dn5, v004
	.byte	W15
	.byte	PEND
song0048_5_2:
	.byte	W09
	.byte		N11	, Ds5, v124
	.byte	W12
	.byte		N17	, Ds5, v116
	.byte	W18
	.byte		N11	, Ds5, v104
	.byte	W12
	.byte		N17	, Ds5, v096
	.byte	W18
	.byte			Ds5, v080
	.byte	W18
	.byte			Ds5, v068
	.byte	W09
	.byte	PEND
	.byte	W09
	.byte			Ds5, v056
	.byte	W18
	.byte			Ds5, v044
	.byte	W18
	.byte			Ds5, v028
	.byte	W18
	.byte			Ds5, v016
	.byte	W18
	.byte		N05	, Ds5, v004
	.byte	W12
	.byte	VOL	, v036
	.byte	W03
	.byte	W09
	.byte		N11	, Dn5, v124
	.byte	W12
	.byte		N17	, Dn5, v116
	.byte	W18
	.byte		N11	, Dn5, v104
	.byte	W12
	.byte		N17	, Dn5, v096
	.byte	W18
	.byte			Dn5, v080
	.byte	W18
	.byte			Dn5, v068
	.byte	W09
	.byte	PATT	
		.word	song0048_5_1
	.byte	PATT	
		.word	song0048_5_2
	.byte	W09
	.byte		N17	, Ds5, v056
	.byte	W18
	.byte			Ds5, v044
	.byte	W18
	.byte			Ds5, v028
	.byte	W18
	.byte			Ds5, v016
	.byte	W18
	.byte		N05	, Ds5, v004
	.byte	W12
	.byte	VOL	, v066
	.byte	W03
song0048_5_3:
	.byte	W44
	.byte	W01
	.byte		N06	, Dn5, v100
	.byte	W06
	.byte			An4
	.byte	W06
	.byte			Fn4
	.byte	W06
	.byte			An4
	.byte	W06
	.byte			Fn4
	.byte	W06
	.byte			Dn4
	.byte	W06
	.byte			Fn4
	.byte	W06
	.byte			Dn4
	.byte	W06
	.byte			An4
	.byte	W03
	.byte	PEND
song0048_5_4:
	.byte	W03
	.byte		N06	, Fn4, v100
	.byte	W06
	.byte			Dn4
	.byte	W06
	.byte			Fn4
	.byte	W06
	.byte			Dn4
	.byte	W06
	.byte			An3
	.byte	W06
	.byte			Dn4
	.byte	W06
	.byte			An3
	.byte	W06
	.byte			Fn4
	.byte	W06
	.byte			Dn4
	.byte	W06
	.byte			An3
	.byte	W06
	.byte			Dn4
	.byte	W06
	.byte			An3
	.byte	W06
	.byte			Fn3
	.byte	W06
	.byte			An3
	.byte	W06
	.byte			Fn3
	.byte	W06
	.byte			Ds3, v096
	.byte	W03
	.byte	PEND
song0048_5_5:
	.byte	W03
	.byte		N06	, Gn3, v088
	.byte	W06
	.byte			Ds3, v084
	.byte	W06
	.byte			As2, v076
	.byte	W06
	.byte			Ds3, v068
	.byte	W06
	.byte			As2, v060
	.byte	W06
	.byte			Gn2, v052
	.byte	W06
	.byte			As2, v048
	.byte	W06
	.byte			Gn2, v040
	.byte	W06
	.byte			Ds2, v032
	.byte	W06
	.byte			Gn2, v024
	.byte	W06
	.byte			Ds2, v016
	.byte	W06
	.byte			As1, v012
	.byte	W24
	.byte	W03
	.byte	PEND
	.byte	W96
	.byte	PATT	
		.word	song0048_5_3
	.byte	PATT	
		.word	song0048_5_4
	.byte	PATT	
		.word	song0048_5_5
	.byte	W92
	.byte	VOL	, v083
	.byte	PAN	, c_v
	.byte		N04	, Cs3, v076
	.byte	W04
	.byte		TIE	, Dn3, v108
	.byte	W96
	.byte	W44
	.byte	W02
	.byte		N28	, An2, v092
	.byte	W01
	.byte		EOT	, Dn3
	.byte	W23
	.byte		N18	, Gn3, v096
	.byte	W16
	.byte		N04	, Fs3, v068
	.byte	W04
	.byte		N06	, Fn3, v108
	.byte	W04
	.byte		TIE	, Ds3, v104
	.byte	W02
	.byte	W96
	.byte	W68
	.byte	W03
	.byte		N20	, Fn3, v096
	.byte	W02
	.byte		EOT	, Ds3
	.byte	W14
	.byte		N07	, En3, v092
	.byte	W05
	.byte			Ds3, v100
	.byte	W04
	.byte	W02
	.byte		TIE	, Dn3, v092
	.byte	W92
	.byte	W02
	.byte	W44
	.byte		N28	, An2, v088
	.byte	W01
	.byte		EOT	, Dn3
	.byte	W24
	.byte		N19	, Gn3, v096
	.byte	W15
	.byte		N04	, Fs3, v076
	.byte	W04
	.byte		N07	, Fn3, v108
	.byte	W05
	.byte		TIE	, Ds3, v088
	.byte	W03
	.byte	W96
	.byte	W78
	.byte	W01
	.byte		EOT	
	.byte	W17
	.byte	GOTO	
		.word	song0048_5_6
	.byte	FINE

	@********************** Track  6 **********************@

	.global song0048_6
song0048_6:	@ 0x08C7BBD8
	.byte	KEYSH	, 0
	.byte	VOICE	, 12
	.byte	VOL	, v036
	.byte	PAN	, c_v+30
	.byte	MOD	, 50
	.byte	LFOS	, 40
	.byte	MODT	, 1
	.byte	W03
song0048_6_5:
	.byte	VOL	, v036
	.byte	PAN	, c_v+30
	.byte	W09
	.byte		N11	, Fn4, v124
	.byte	W12
	.byte		N17	, Fn4, v116
	.byte	W18
	.byte		N11	, Fn4, v104
	.byte	W12
	.byte		N17	, Fn4, v096
	.byte	W18
	.byte			Fn4, v080
	.byte	W18
	.byte			Fn4, v068
	.byte	W09
song0048_6_1:
	.byte	W09
	.byte		N17	, Fn4, v056
	.byte	W18
	.byte			Fn4, v044
	.byte	W18
	.byte			Fn4, v028
	.byte	W18
	.byte			Fn4, v016
	.byte	W18
	.byte		N23	, Fn4, v004
	.byte	W15
	.byte	PEND
song0048_6_2:
	.byte	W09
	.byte		N11	, Gn4, v124
	.byte	W12
	.byte		N17	, Gn4, v116
	.byte	W18
	.byte		N11	, Gn4, v104
	.byte	W12
	.byte		N17	, Gn4, v096
	.byte	W18
	.byte			Gn4, v080
	.byte	W18
	.byte			Gn4, v068
	.byte	W09
	.byte	PEND
	.byte	W09
	.byte			Gn4, v056
	.byte	W18
	.byte			Gn4, v044
	.byte	W18
	.byte			Gn4, v028
	.byte	W18
	.byte			Gn4, v016
	.byte	W18
	.byte		N05	, Gn4, v004
	.byte	W12
	.byte	VOL	, v036
	.byte	W03
	.byte	W09
	.byte		N11	, Fn4, v124
	.byte	W12
	.byte		N17	, Fn4, v116
	.byte	W18
	.byte		N11	, Fn4, v104
	.byte	W12
	.byte		N17	, Fn4, v096
	.byte	W18
	.byte			Fn4, v080
	.byte	W18
	.byte			Fn4, v068
	.byte	W09
	.byte	PATT	
		.word	song0048_6_1
	.byte	PATT	
		.word	song0048_6_2
	.byte	W09
	.byte		N17	, Gn4, v056
	.byte	W18
	.byte			Gn4, v044
	.byte	W18
	.byte			Gn4, v028
	.byte	W18
	.byte			Gn4, v016
	.byte	W18
	.byte		N05	, Gn4, v004
	.byte	W15
	.byte	W03
	.byte	VOL	, v066
	.byte	W48
	.byte		N06	, Dn5, v072
	.byte	W06
	.byte			An4
	.byte	W06
	.byte			Fn4
	.byte	W06
	.byte			An4
	.byte	W06
	.byte			Fn4
	.byte	W06
	.byte			Dn4
	.byte	W06
	.byte			Fn4
	.byte	W06
	.byte			Dn4
	.byte	W03
song0048_6_3:
	.byte	W03
	.byte		N06	, An4, v072
	.byte	W06
	.byte			Fn4
	.byte	W06
	.byte			Dn4
	.byte	W06
	.byte			Fn4
	.byte	W06
	.byte			Dn4
	.byte	W06
	.byte			An3
	.byte	W06
	.byte			Dn4
	.byte	W06
	.byte			An3
	.byte	W06
	.byte			Fn4
	.byte	W06
	.byte			Dn4
	.byte	W06
	.byte			An3
	.byte	W06
	.byte			Dn4
	.byte	W06
	.byte			An3
	.byte	W06
	.byte			Fn3
	.byte	W06
	.byte			An3
	.byte	W06
	.byte			Fn3
	.byte	W03
	.byte	PEND
song0048_6_4:
	.byte	W03
	.byte		N06	, Ds3, v068
	.byte	W06
	.byte			Gn3, v060
	.byte	W06
	.byte			Ds3, v052
	.byte	W06
	.byte			As2, v044
	.byte	W06
	.byte			Ds3, v040
	.byte	W06
	.byte			As2, v032
	.byte	W06
	.byte			Gn2, v024
	.byte	W06
	.byte			As2, v016
	.byte	W06
	.byte			Gn2, v008
	.byte	W06
	.byte			Ds2, v004
	.byte	W06
	.byte			Gn2
	.byte	W06
	.byte			Ds2
	.byte	W06
	.byte			As1
	.byte	W21
	.byte	PEND
	.byte	W96
	.byte	W48
	.byte	W03
	.byte			Dn5, v072
	.byte	W06
	.byte			An4
	.byte	W06
	.byte			Fn4
	.byte	W06
	.byte			An4
	.byte	W06
	.byte			Fn4
	.byte	W06
	.byte			Dn4
	.byte	W06
	.byte			Fn4
	.byte	W06
	.byte			Dn4
	.byte	W03
	.byte	PATT	
		.word	song0048_6_3
	.byte	PATT	
		.word	song0048_6_4
	.byte	W96
	.byte	W96
	.byte	W96
	.byte	W96
	.byte	W96
	.byte	W96
	.byte	W96
	.byte	W96
	.byte	W96
	.byte	GOTO	
		.word	song0048_6_5
	.byte	FINE

	@********************** Track  7 **********************@

	.global song0048_7
song0048_7:	@ 0x08C7BD02
	.byte	KEYSH	, 0
	.byte	VOICE	, 72
	.byte	VOL	, v086
	.byte	PAN	, c_v
	.byte	W01
	.byte		N02	, Dn2, v112
	.byte	W02
song0048_7_1:
	.byte		N02	, En2, v116
	.byte	W02
	.byte			Fn2, v120
	.byte	W01
	.byte			Gn2
	.byte	W02
	.byte			An2
	.byte	W01
	.byte		N03	, Bn2, v112
	.byte	W03
	.byte		N08	, Cn3, v124
	.byte	W12
	.byte		N14	, Cn3, v116
	.byte	W18
	.byte		N08	, Cn3, v104
	.byte	W12
	.byte		N14	, Cn3, v096
	.byte	W18
	.byte			Cn3, v080
	.byte	W18
	.byte			Cn3, v068
	.byte	W09
	.byte	PEND
song0048_7_2:
	.byte	W09
	.byte		N14	, Cn3, v056
	.byte	W18
	.byte			Cn3, v044
	.byte	W18
	.byte			Cn3, v028
	.byte	W18
	.byte			Cn3, v016
	.byte	W32
	.byte	W01
	.byte	PEND
	.byte	W96
	.byte	W84
	.byte	W03
	.byte		N04	, An1, v124
	.byte	W03
	.byte		N03	, Bn1, v076
	.byte	W02
	.byte		N02	, Cn2, v080
	.byte	W02
	.byte			Dn2, v112
	.byte	W02
	.byte	PATT	
		.word	song0048_7_1
	.byte	PATT	
		.word	song0048_7_2
	.byte	W96
	.byte	W96
song0048_7_5:
	.byte	W03
	.byte		N04	, An1, v124
	.byte	W03
	.byte		N03	, Bn1, v076
	.byte	W02
	.byte		N02	, Cn2, v080
	.byte	W02
	.byte			Dn2, v112
	.byte	W02
	.byte			En2, v116
	.byte	W02
	.byte			Fn2, v120
	.byte	W01
	.byte			Gn2
	.byte	W02
	.byte			An2
	.byte	W01
	.byte		N03	, Bn2, v112
	.byte	W03
	.byte		N11	, Cn3, v124
	.byte	W12
	.byte		N17	, Cn3, v116
	.byte	W18
	.byte		N11	, Cn3, v104
	.byte	W12
	.byte		N17	, Cn3, v096
	.byte	W18
	.byte			Cn3, v080
	.byte	W15
	.byte	PEND
song0048_7_6:
	.byte	W03
	.byte		N17	, Cn3, v068
	.byte	W18
	.byte			Cn3, v056
	.byte	W18
	.byte			Cn3, v044
	.byte	W18
	.byte			Cn3, v028
	.byte	W18
	.byte			Cn3, v016
	.byte	W21
	.byte	PEND
	.byte	W96
	.byte	W96
song0048_7_3:
	.byte	W03
	.byte		N04	, An1, v124
	.byte	W03
	.byte		N03	, Bn1, v076
	.byte	W02
	.byte		N02	, Cn2, v080
	.byte	W02
	.byte			Dn2, v112
	.byte	W02
	.byte			En2, v116
	.byte	W02
	.byte			Fn2, v120
	.byte	W01
	.byte			Gn2
	.byte	W02
	.byte			An2
	.byte	W01
	.byte		N03	, Bn2, v112
	.byte	W03
	.byte		N08	, Cn3, v124
	.byte	W12
	.byte		N14	, Cn3, v116
	.byte	W18
	.byte		N08	, Cn3, v104
	.byte	W12
	.byte		N14	, Cn3, v096
	.byte	W18
	.byte			Cn3, v080
	.byte	W15
	.byte	PEND
song0048_7_4:
	.byte	W03
	.byte		N14	, Cn3, v068
	.byte	W18
	.byte			Cn3, v056
	.byte	W18
	.byte			Cn3, v044
	.byte	W18
	.byte			Cn3, v028
	.byte	W18
	.byte			Cn3, v016
	.byte	W21
	.byte	PEND
	.byte	W96
	.byte	W96
	.byte	PATT	
		.word	song0048_7_3
	.byte	PATT	
		.word	song0048_7_4
	.byte	W96
	.byte	W96
	.byte	PATT	
		.word	song0048_7_5
	.byte	PATT	
		.word	song0048_7_6
	.byte	W96
	.byte	W96
	.byte	GOTO	
		.word	song0048_7_1
	.byte	PATT	
		.word	song0048_7_3
	.byte	PATT	
		.word	song0048_7_4
	.byte	W96
	.byte	W96
	.byte	PATT	
		.word	song0048_7_3
	.byte	W03
	.byte		N14	, Cn3, v068
	.byte	W18
	.byte			Cn3, v056
	.byte	W18
	.byte			Cn3, v044
	.byte	W18
	.byte			Cn3, v028
	.byte	W18
	.byte			Cn3, v016
	.byte	W14
	.byte	FINE

	@********************** Track  8 **********************@

	.global song0048_8
song0048_8:	@ 0x08C7BE2F
	.byte	KEYSH	, 0
	.byte	VOICE	, 73
	.byte	VOL	, v094
	.byte	PAN	, c_v
	.byte	W03
song0048_8_3:
	.byte	W96
	.byte	W84
	.byte	W03
	.byte		N04	, An1, v124
	.byte	W03
	.byte		N03	, Bn1, v076
	.byte	W02
	.byte		N02	, Cn2, v080
	.byte	W02
	.byte			Dn2, v112
	.byte	W02
	.byte			En2, v116
	.byte	W02
	.byte			Fn2, v120
	.byte	W01
	.byte			Gn2
	.byte	W02
	.byte			An2
	.byte	W01
	.byte		N03	, Bn2, v112
	.byte	W03
	.byte		N08	, Cn3, v124
	.byte	W12
	.byte		N14	, Cn3, v116
	.byte	W18
	.byte		N08	, Cn3, v104
	.byte	W12
	.byte		N14	, Cn3, v096
	.byte	W18
	.byte			Cn3, v080
	.byte	W18
	.byte			Cn3, v068
	.byte	W09
	.byte	W09
	.byte			Cn3, v056
	.byte	W18
	.byte			Cn3, v044
	.byte	W18
	.byte			Cn3, v028
	.byte	W18
	.byte			Cn3, v016
	.byte	W32
	.byte	W01
	.byte	W96
	.byte	W96
song0048_8_1:
	.byte	W03
	.byte		N04	, An1, v124
	.byte	W03
	.byte		N03	, Bn1, v076
	.byte	W02
	.byte		N02	, Cn2, v080
	.byte	W02
	.byte			Dn2, v112
	.byte	W02
	.byte			En2, v116
	.byte	W02
	.byte			Fn2, v120
	.byte	W01
	.byte			Gn2
	.byte	W02
	.byte			An2
	.byte	W01
	.byte		N03	, Bn2, v112
	.byte	W03
	.byte		N08	, Cn3, v124
	.byte	W12
	.byte		N14	, Cn3, v116
	.byte	W18
	.byte		N08	, Cn3, v104
	.byte	W12
	.byte		N14	, Cn3, v096
	.byte	W18
	.byte			Cn3, v080
	.byte	W15
	.byte	PEND
song0048_8_2:
	.byte	W03
	.byte		N14	, Cn3, v068
	.byte	W18
	.byte			Cn3, v056
	.byte	W18
	.byte			Cn3, v044
	.byte	W18
	.byte			Cn3, v028
	.byte	W18
	.byte			Cn3, v016
	.byte	W21
	.byte	PEND
	.byte	W96
	.byte	W96
	.byte	PATT	
		.word	song0048_8_1
	.byte	PATT	
		.word	song0048_8_2
	.byte	W96
	.byte	W96
song0048_8_4:
	.byte	W03
	.byte		N04	, An1, v124
	.byte	W03
	.byte		N03	, Bn1, v076
	.byte	W02
	.byte		N02	, Cn2, v080
	.byte	W02
	.byte			Dn2, v112
	.byte	W02
	.byte			En2, v116
	.byte	W02
	.byte			Fn2, v120
	.byte	W01
	.byte			Gn2
	.byte	W02
	.byte			An2
	.byte	W01
	.byte		N03	, Bn2, v112
	.byte	W03
	.byte		N11	, Cn3, v124
	.byte	W12
	.byte		N17	, Cn3, v116
	.byte	W18
	.byte		N11	, Cn3, v104
	.byte	W12
	.byte		N17	, Cn3, v096
	.byte	W18
	.byte			Cn3, v080
	.byte	W15
	.byte	PEND
	.byte	W03
	.byte			Cn3, v068
	.byte	W18
	.byte			Cn3, v056
	.byte	W18
	.byte			Cn3, v044
	.byte	W18
	.byte			Cn3, v028
	.byte	W18
	.byte			Cn3, v016
	.byte	W21
	.byte	W96
	.byte	W96
	.byte	PATT	
		.word	song0048_8_1
	.byte	PATT	
		.word	song0048_8_2
	.byte	W96
	.byte	W96
	.byte	PATT	
		.word	song0048_8_1
	.byte	PATT	
		.word	song0048_8_2
	.byte	GOTO	
		.word	song0048_8_3
	.byte	W96
	.byte	W96
	.byte	PATT	
		.word	song0048_8_4
	.byte	W03
	.byte		N17	, Cn3, v068
	.byte	W18
	.byte			Cn3, v056
	.byte	W18
	.byte			Cn3, v044
	.byte	W18
	.byte			Cn3, v028
	.byte	W18
	.byte			Cn3, v016
	.byte	W17
	.byte	FINE

	.align 2
	.global song0048
song0048:	@ 0x08C7BF48
	.byte	8		@ trackCount
	.byte	0		@ blockCount
	.byte	0		@ priority
	.byte	128		@ reverb

	.word	voicegroup022		@ voicegroup/tone

	.word	song0048_1		@ track
	.word	song0048_2		@ track
	.word	song0048_3		@ track
	.word	song0048_4		@ track
	.word	song0048_5		@ track
	.word	song0048_6		@ track
	.word	song0048_7		@ track
	.word	song0048_8		@ track
