	.include "MPlayDef.s"

	.section .rodata

	@********************** Track  1 **********************@

	.align 2
	.global song0046_1
song0046_1:	@ 0x08C7ADA8
	.byte	KEYSH	, 0
	.byte	TEMPO	, 55
	.byte	VOICE	, 127
	.byte	VOL	, v100
	.byte		N06	, Cn1, v127
	.byte		N06	, Ds1, v048
	.byte		N48	, Gn2, v127
	.byte	W06
	.byte		N06	, Dn1, v040
	.byte	W06
	.byte			Dn1, v032
	.byte		N06	, Ds3, v127
	.byte	W06
	.byte			Dn1, v040
	.byte	W06
	.byte			Cn1, v127
	.byte		N06	, Ds1, v048
	.byte		N12	, Dn3, v127
	.byte	W06
	.byte		N06	, Dn1, v040
	.byte	W06
	.byte			Dn1, v032
	.byte	W06
	.byte			Dn1, v040
	.byte	W06
	.byte			Cn1, v127
	.byte		N06	, Ds1, v048
	.byte	W06
	.byte			Cs1, v092
	.byte		N06	, Dn1, v040
	.byte		N06	, Ds3, v127
	.byte	W06
	.byte			Dn1, v032
	.byte	W06
	.byte			Dn1, v040
	.byte		N06	, Ds3, v127
	.byte	W06
	.byte			Cn1
	.byte		N06	, Ds1, v048
	.byte		N12	, Dn3, v127
	.byte	W06
	.byte		N06	, Dn1, v040
	.byte	W06
	.byte			Dn1, v032
	.byte	W06
	.byte			Dn1, v040
	.byte	W06
song0046_1_1:
	.byte		N06	, Cn1, v127
	.byte		N06	, Ds1, v048
	.byte		N06	, Ds3, v127
	.byte	W06
	.byte			Dn1, v040
	.byte	W06
	.byte			Dn1, v032
	.byte		N06	, Ds3, v127
	.byte	W06
	.byte			Dn1, v040
	.byte	W06
	.byte			Cn1, v127
	.byte		N06	, Ds1, v048
	.byte		N12	, Dn3, v127
	.byte	W06
	.byte		N06	, Dn1, v040
	.byte	W06
	.byte			Dn1, v032
	.byte	W06
	.byte			Dn1, v040
	.byte	W06
	.byte			Cn1, v127
	.byte		N06	, Ds1, v048
	.byte	W06
	.byte			Cs1
	.byte		N06	, Dn1, v040
	.byte		N06	, Ds3, v127
	.byte	W06
	.byte			Dn1, v032
	.byte	W06
	.byte			Dn1, v040
	.byte		N06	, Ds3, v127
	.byte	W06
	.byte			Cn1
	.byte		N06	, Ds1, v048
	.byte		N12	, Dn3, v127
	.byte	W06
	.byte		N06	, Dn1, v040
	.byte	W06
	.byte			Dn1, v032
	.byte	W06
	.byte			Dn1, v040
	.byte	W06
	.byte	PEND
song0046_1_4:
	.byte	PATT	
		.word	song0046_1_1
	.byte	PATT	
		.word	song0046_1_1
	.byte	PATT	
		.word	song0046_1_1
	.byte	PATT	
		.word	song0046_1_1
	.byte	PATT	
		.word	song0046_1_1
	.byte	PATT	
		.word	song0046_1_1
	.byte	PATT	
		.word	song0046_1_1
	.byte		N06	, Cn1, v127
	.byte		N06	, Ds1, v048
	.byte		N06	, Ds3, v127
	.byte	W06
	.byte			Dn1, v040
	.byte	W06
	.byte			Dn1, v032
	.byte		N06	, Ds3, v127
	.byte	W06
	.byte			Dn1, v040
	.byte	W06
	.byte			Cn1, v127
	.byte		N06	, Ds1, v048
	.byte		N12	, Dn3, v127
	.byte	W06
	.byte		N06	, Dn1, v040
	.byte	W06
	.byte			Dn1, v032
	.byte	W06
	.byte			Dn1, v040
	.byte	W06
	.byte			Cn1, v127
	.byte		N06	, Ds1, v048
	.byte	W06
	.byte			Cs1, v092
	.byte		N06	, Dn1, v040
	.byte		N06	, Ds3, v127
	.byte	W06
	.byte			Dn1, v032
	.byte	W06
	.byte			Cn1, v127
	.byte		N06	, Dn1, v040
	.byte		N06	, Ds3, v127
	.byte	W06
	.byte			Cn1
	.byte		N06	, Ds1, v048
	.byte		N12	, Dn3, v127
	.byte	W06
	.byte		N06	, Cs1, v092
	.byte		N06	, Dn1, v040
	.byte	W06
	.byte			Dn1, v032
	.byte	W06
	.byte			Cs1, v092
	.byte		N06	, Dn1, v040
	.byte	W06
song0046_1_3:
	.byte		N06	, Cn1, v127
	.byte		N06	, Ds1, v048
	.byte		N48	, Gn2, v127
	.byte	W06
	.byte		N06	, Dn1, v040
	.byte	W06
	.byte			Dn1, v032
	.byte		N06	, Ds3, v127
	.byte	W06
	.byte			Dn1, v040
	.byte	W06
	.byte			Cn1, v127
	.byte		N06	, Ds1, v048
	.byte		N12	, Dn3, v127
	.byte	W06
	.byte		N06	, Dn1, v040
	.byte	W06
	.byte			Dn1, v032
	.byte	W06
	.byte			Dn1, v040
	.byte	W06
	.byte			Cn1, v127
	.byte		N06	, Ds1, v048
	.byte	W06
	.byte			Cs1, v092
	.byte		N06	, Dn1, v040
	.byte		N06	, Ds3, v127
	.byte	W06
	.byte			Dn1, v032
	.byte	W06
	.byte			Dn1, v040
	.byte		N06	, Ds3, v127
	.byte	W06
	.byte			Cn1
	.byte		N06	, Ds1, v048
	.byte		N12	, Dn3, v127
	.byte	W06
	.byte		N06	, Dn1, v040
	.byte	W06
	.byte			Dn1, v032
	.byte	W06
	.byte			Dn1, v040
	.byte	W06
	.byte	PEND
song0046_1_2:
	.byte		N06	, Cn1, v127
	.byte		N06	, Ds1, v048
	.byte		N06	, Ds3, v127
	.byte	W06
	.byte			Dn1, v040
	.byte	W06
	.byte			Dn1, v032
	.byte		N06	, Ds3, v127
	.byte	W06
	.byte			Dn1, v040
	.byte	W06
	.byte			Cn1, v127
	.byte		N06	, Ds1, v048
	.byte		N12	, Dn3, v127
	.byte	W06
	.byte		N06	, Dn1, v040
	.byte	W06
	.byte			Dn1, v032
	.byte	W06
	.byte			Dn1, v040
	.byte	W06
	.byte			Cn1, v127
	.byte		N06	, Ds1, v048
	.byte	W06
	.byte			Cs1, v092
	.byte		N06	, Dn1, v040
	.byte		N06	, Ds3, v127
	.byte	W06
	.byte			Dn1, v032
	.byte	W06
	.byte			Dn1, v040
	.byte		N06	, Ds3, v127
	.byte	W06
	.byte			Cn1
	.byte		N06	, Ds1, v048
	.byte		N12	, Dn3, v127
	.byte	W06
	.byte		N06	, Dn1, v040
	.byte	W06
	.byte			Dn1, v032
	.byte	W06
	.byte			Dn1, v040
	.byte	W06
	.byte	PEND
	.byte	PATT	
		.word	song0046_1_2
	.byte	PATT	
		.word	song0046_1_2
	.byte	PATT	
		.word	song0046_1_2
	.byte		N06	, Cn1, v127
	.byte		N06	, Ds1, v048
	.byte		N06	, Ds3, v127
	.byte	W24
	.byte			Cn1
	.byte	W24
	.byte		N06	
	.byte		N12	, Dn3
	.byte	W24
	.byte		N06	, Cn1
	.byte		N06	, Ds1, v048
	.byte	W06
	.byte			Dn1, v040
	.byte	W06
	.byte			Dn1, v032
	.byte	W06
	.byte			Dn1, v040
	.byte	W06
	.byte	PATT	
		.word	song0046_1_3
	.byte	PATT	
		.word	song0046_1_2
	.byte	PATT	
		.word	song0046_1_2
	.byte	PATT	
		.word	song0046_1_2
	.byte	GOTO	
		.word	song0046_1_4
	.byte	FINE

	@********************** Track  2 **********************@

	.global song0046_2
song0046_2:	@ 0x08C7AFC7
	.byte	KEYSH	, 0
	.byte	VOICE	, 79
	.byte	VOL	, v086
	.byte	W96
	.byte	W92
	.byte	W03
	.byte		N05	, Bn2, v108
	.byte	W01
song0046_2_1:
	.byte	W05
	.byte		N05	, As2, v108
	.byte	W06
	.byte			Bn2, v088
	.byte	W06
	.byte			As2, v100
	.byte	W06
	.byte		N06	, Bn2, v084
	.byte	W06
	.byte		N05	, As2, v104
	.byte	W06
	.byte			Bn2, v084
	.byte	W05
	.byte			As2, v088
	.byte	W06
	.byte		N06	, Bn2, v080
	.byte	W07
	.byte		N05	, As2, v096
	.byte	W06
	.byte			Bn2, v084
	.byte	W06
	.byte			As2, v092
	.byte	W05
	.byte		N06	, Bn2, v076
	.byte	W07
	.byte		N04	, As2, v108
	.byte	W05
	.byte		N06	, Bn2, v072
	.byte	W07
	.byte			As2, v096
	.byte	W06
	.byte		N11	, Bn2, v092
	.byte	W01
	.byte	W11
	.byte		N05	, Dn3, v120
	.byte	W72
	.byte	W01
	.byte			Dn2, v100
	.byte	W12
	.byte			Bn2, v108
	.byte	W06
	.byte			An2, v072
	.byte	W06
	.byte		N68	, Gn2, v084
	.byte	W72
	.byte		N07	, Dn2, v092
	.byte	W12
	.byte		N05	, Ds2, v096
	.byte	W06
	.byte			En2, v084
	.byte	W06
	.byte		N60	, Gn2
	.byte	W84
	.byte		N05	, Bn2, v104
	.byte	W06
	.byte			As2
	.byte	W06
	.byte			Bn2, v084
	.byte	W06
	.byte			As2, v100
	.byte	W06
	.byte			Bn2, v084
	.byte	W06
	.byte			As2, v100
	.byte	W06
	.byte			Bn2, v076
	.byte	W06
	.byte			As2, v092
	.byte	W06
	.byte			Bn2, v084
	.byte	W06
	.byte			As2, v088
	.byte	W06
	.byte			Bn2, v080
	.byte	W06
	.byte			As2, v104
	.byte	W06
	.byte			Bn2, v080
	.byte	W06
	.byte			As2, v084
	.byte	W06
	.byte			Bn2
	.byte	W06
	.byte			As2
	.byte	W06
	.byte		N11	, Bn2
	.byte	W12
	.byte		N08	, Dn3, v108
	.byte	W36
	.byte	W02
	.byte	W02
	.byte	W02
	.byte	W02
	.byte	W04
	.byte	W24
	.byte		N05	, Dn2, v072
	.byte	W12
	.byte			As2, v084
	.byte	W06
	.byte			An2, v092
	.byte	W06
	.byte		N66	, Gn2, v084
	.byte	W72
	.byte		N05	, Dn2, v096
	.byte	W11
	.byte		N02	, Ds2, v080
	.byte	W01
	.byte	W02
	.byte		N11	, En2
	.byte	W11
	.byte		N56	, Gn2
	.byte	W68
	.byte	W03
	.byte		N05	, Dn2, v112
	.byte	W06
	.byte			Ds2, v116
	.byte	W06
	.byte		N11	, En2, v108
	.byte	W12
	.byte		N03	, Gn2
	.byte	W12
	.byte		N11	, An2, v116
	.byte	W12
	.byte		N05	, Gn2, v084
	.byte	W06
	.byte		N07	, Bn2, v104
	.byte	W12
	.byte		N05	, Bn2, v092
	.byte	W12
	.byte			Gn2, v088
	.byte	W06
	.byte		N11	, An2, v112
	.byte	W12
	.byte			Gn2
	.byte	W12
	.byte			Ds2, v108
	.byte	W12
	.byte		N08	, Gn2, v096
	.byte	W12
	.byte		N11	, An2, v104
	.byte	W12
	.byte		N05	, Gn2, v096
	.byte	W06
	.byte			As2, v116
	.byte	W12
	.byte		N07	, As2, v112
	.byte	W12
	.byte		N05	, Gn2, v084
	.byte	W06
	.byte		N09	, An2, v108
	.byte	W12
	.byte		N07	, Gn2, v096
	.byte	W07
	.byte		N01	, As2, v076
	.byte	W02
	.byte		N12	, Bn2, v100
	.byte	W03
	.byte	W09
	.byte		N64	, Dn3, v108
	.byte	W72
	.byte	W01
	.byte		N06	, Dn3, v084
	.byte	W07
	.byte		N05	, Ds3, v088
	.byte	W05
	.byte		N12	, En3
	.byte	W02
	.byte	W12
	.byte		N04	, En2, v052
	.byte	W22
	.byte		N40	
	.byte	W48
	.byte	W02
	.byte		N05	, En2, v056
	.byte	W06
	.byte			Gn2, v064
	.byte	W06
	.byte		N07	, An2, v084
	.byte	W12
	.byte			An2, v080
	.byte	W12
	.byte		N09	, An2, v092
	.byte	W12
	.byte		N06	, Gn2, v072
	.byte	W03
	.byte			As2, v080
	.byte	W05
	.byte			Bn2, v084
	.byte	W10
	.byte		N10	, Bn2, v080
	.byte	W12
	.byte		N05	, Gn2, v084
	.byte	W06
	.byte		N11	, An2
	.byte	W11
	.byte		N09	, Gn2
	.byte	W09
	.byte		N05	, As2, v056
	.byte	W02
	.byte		N10	, Bn2, v092
	.byte	W02
	.byte	W84
	.byte	W01
	.byte		N13	, Dn2, v076
	.byte	W11
	.byte	W02
	.byte		N07	, En2, v080
	.byte	W08
	.byte		N05	, Gn2, v084
	.byte	W10
	.byte		N92	, Gn2, v076
	.byte	W76
	.byte	W96
	.byte	W96
	.byte	W96
	.byte	GOTO	
		.word	song0046_2_1
	.byte	FINE

	@********************** Track  3 **********************@

	.global song0046_3
song0046_3:	@ 0x08C7B140
	.byte	KEYSH	, 0
	.byte	VOICE	, 49
	.byte	VOL	, v086
	.byte	BENDR	, 59
	.byte		N05	, Gn2, v127
	.byte	W12
	.byte		N05	
	.byte	W12
	.byte		N12	, Dn2
	.byte	W12
	.byte		N07	, En2
	.byte	W06
	.byte		N05	, Gn2
	.byte	W12
	.byte		N05	
	.byte	W12
	.byte		N06	
	.byte	W06
	.byte		N12	, Dn2
	.byte	W12
	.byte		N08	, En2
	.byte	W12
song0046_3_1:
	.byte		N05	, Gn2, v127
	.byte	W12
	.byte		N05	
	.byte	W12
	.byte		N12	, Dn2
	.byte	W12
	.byte		N07	, En2
	.byte	W06
	.byte		N05	, Gn2
	.byte	W12
	.byte		N05	
	.byte	W12
	.byte		N06	
	.byte	W06
	.byte		N12	, Dn2
	.byte	W12
	.byte		N08	, En2
	.byte	W12
	.byte	PEND
song0046_3_2:
	.byte	PATT	
		.word	song0046_3_1
	.byte	PATT	
		.word	song0046_3_1
	.byte	PATT	
		.word	song0046_3_1
	.byte	PATT	
		.word	song0046_3_1
	.byte	PATT	
		.word	song0046_3_1
	.byte	PATT	
		.word	song0046_3_1
	.byte	PATT	
		.word	song0046_3_1
	.byte		N05	, Gn2, v127
	.byte	W12
	.byte		N05	
	.byte	W12
	.byte		N12	, Dn2
	.byte	W12
	.byte		N07	, En2
	.byte	W06
	.byte		N05	, Gn2
	.byte	W12
	.byte		N05	
	.byte	W12
	.byte		N06	
	.byte	W06
	.byte		N12	, Dn2
	.byte	W12
	.byte		N08	, Cs2
	.byte	W12
	.byte		N05	, Cn2
	.byte	W12
	.byte		N05	
	.byte	W12
	.byte		N12	, Gn2
	.byte	W12
	.byte		N07	, An2
	.byte	W06
	.byte		N05	, Cn2
	.byte	W12
	.byte		N05	
	.byte	W12
	.byte		N06	
	.byte	W06
	.byte		N12	, Gn2
	.byte	W12
	.byte		N08	, Cn2
	.byte	W12
	.byte		N05	, Cs2
	.byte	W12
	.byte		N05	
	.byte	W12
	.byte		N12	, Gn2
	.byte	W12
	.byte		N07	, An2
	.byte	W06
	.byte		N05	, Cs2
	.byte	W12
	.byte		N05	
	.byte	W12
	.byte		N06	
	.byte	W06
	.byte		N12	, Gn2
	.byte	W12
	.byte		N08	, Cs2
	.byte	W12
	.byte		N05	, Dn2
	.byte	W12
	.byte		N05	
	.byte	W12
	.byte		N12	, Gn2
	.byte	W12
	.byte		N07	, Bn2
	.byte	W06
	.byte		N05	, Dn2
	.byte	W12
	.byte		N05	
	.byte	W12
	.byte		N06	, Gn2
	.byte	W06
	.byte		N12	, Dn2
	.byte	W12
	.byte		N08	, Ds2
	.byte	W12
	.byte		N05	, En2
	.byte	W12
	.byte		N05	
	.byte	W12
	.byte		N12	, As2
	.byte	W12
	.byte		N07	, Bn2
	.byte	W06
	.byte		N05	, En2
	.byte	W12
	.byte		N05	
	.byte	W12
	.byte		N06	, An2
	.byte	W06
	.byte		N12	, En2
	.byte	W12
	.byte		N08	, As2
	.byte	W12
	.byte		N05	, An2
	.byte	W12
	.byte		N05	
	.byte	W12
	.byte		N12	, En2
	.byte	W12
	.byte		N07	, Gn2
	.byte	W06
	.byte		N05	, An2
	.byte	W12
	.byte		N05	
	.byte	W12
	.byte		N06	
	.byte	W06
	.byte			En2
	.byte	W06
	.byte			An2
	.byte	W06
	.byte		N08	, Ds2
	.byte		N08	, An2
	.byte	W12
	.byte			Dn2
	.byte	W72
	.byte		N20	
	.byte	W24
	.byte	PATT	
		.word	song0046_3_1
	.byte	PATT	
		.word	song0046_3_1
	.byte	PATT	
		.word	song0046_3_1
	.byte	PATT	
		.word	song0046_3_1
	.byte	GOTO	
		.word	song0046_3_2
	.byte	FINE

	@********************** Track  4 **********************@

	.global song0046_4
song0046_4:	@ 0x08C7B252
	.byte	KEYSH	, 0
	.byte	VOICE	, 66
	.byte	VOL	, v055
	.byte		N04	, Cn3, v096
	.byte	W12
	.byte			Cn3, v084
	.byte	W12
	.byte		N14	, Cn3, v096
	.byte	W18
	.byte		N04	, Cn3, v084
	.byte	W12
	.byte		N03	, Cn3, v096
	.byte	W18
	.byte		N21	, Cn3, v100
	.byte	W24
song0046_4_1:
	.byte		N04	, Cn3, v096
	.byte	W12
	.byte			Cn3, v084
	.byte	W12
	.byte		N14	, Cn3, v096
	.byte	W18
	.byte		N04	, Cn3, v084
	.byte	W12
	.byte		N03	, Cn3, v096
	.byte	W18
	.byte		N21	, Cn3, v100
	.byte	W24
	.byte	PEND
song0046_4_2:
	.byte	PATT	
		.word	song0046_4_1
	.byte	PATT	
		.word	song0046_4_1
	.byte	PATT	
		.word	song0046_4_1
	.byte	PATT	
		.word	song0046_4_1
	.byte	PATT	
		.word	song0046_4_1
	.byte	PATT	
		.word	song0046_4_1
	.byte	PATT	
		.word	song0046_4_1
	.byte		N04	, Cn3, v096
	.byte	W12
	.byte			Cn3, v084
	.byte	W12
	.byte		N14	, Cn3, v096
	.byte	W18
	.byte		N04	, Cn3, v084
	.byte	W12
	.byte		N03	, Cn3, v096
	.byte	W18
	.byte		N21	, Cn3, v100
	.byte	W16
	.byte		N06	, Dn2, v036
	.byte		N06	, An2
	.byte	W03
	.byte		N05	, Ds2, v072
	.byte		N05	, As2
	.byte	W02
	.byte		N06	, En2, v096
	.byte		N06	, Bn2
	.byte	W03
	.byte		N90	, Fn2, v092
	.byte		N90	, Cn3
	.byte	W92
	.byte	W03
	.byte		N92	, Cn3, v104
	.byte	W01
	.byte	W92
	.byte	W02
	.byte			Cn3, v112
	.byte	W02
	.byte	W92
	.byte	W03
	.byte		N52	, An2, v092
	.byte	W01
	.byte	W54
	.byte		N05	, An2, v112
	.byte	W11
	.byte		N04	, An2, v096
	.byte	W06
	.byte		N05	, An2, v116
	.byte	W07
	.byte		N07	, An2, v112
	.byte	W10
	.byte			An2, v104
	.byte	W08
	.byte	W96
	.byte		N09	, Gn2, v120
	.byte	W96
	.byte		N52	, Cn3, v108
	.byte	W54
	.byte	W01
	.byte		N05	, Cn3, v092
	.byte	W12
	.byte		N03	, Cn3, v100
	.byte	W07
	.byte		N24	, Cn3, v116
	.byte	W22
	.byte	W06
	.byte		N05	, Cn3, v112
	.byte	W11
	.byte		N03	, Cn3, v096
	.byte	W06
	.byte		N22	, Cn3, v112
	.byte	W24
	.byte	W02
	.byte		N04	, Cn3, v088
	.byte	W13
	.byte		N03	, Cn3, v104
	.byte	W12
	.byte		N19	, Cn3, v112
	.byte	W22
	.byte		N04	, Cn3, v100
	.byte	W12
	.byte		N02	, Cn3, v092
	.byte	W12
	.byte		N14	, Cn3, v096
	.byte	W18
	.byte		N04	, Cn3, v084
	.byte	W12
	.byte		N03	, Cn3, v080
	.byte	W17
	.byte		N18	, Cn3, v096
	.byte	W24
	.byte		N04	, Cn3, v080
	.byte	W01
	.byte	W11
	.byte		N04	
	.byte	W12
	.byte		N16	, Cn3, v088
	.byte	W20
	.byte		N04	, Cn3, v096
	.byte	W12
	.byte		N03	, Cn3, v092
	.byte	W18
	.byte		N18	, Cn3, v104
	.byte	W23
	.byte	GOTO	
		.word	song0046_4_2
	.byte	FINE

	@********************** Track  5 **********************@

	.global song0046_5
song0046_5:	@ 0x08C7B362
	.byte	KEYSH	, 0
	.byte	VOICE	, 67
	.byte	VOL	, v047
	.byte	W96
	.byte	W96
song0046_5_1:
	.byte	W96
	.byte	W96
	.byte	W96
	.byte	W96
	.byte	W96
	.byte	W96
	.byte	W96
	.byte	W96
	.byte	W92
	.byte	W03
	.byte		N92	, Fs2, v104
	.byte	W01
	.byte	W96
	.byte	W92
	.byte	W03
	.byte		N52	, Cs3, v092
	.byte	W01
	.byte	W54
	.byte		N05	, Cs3, v112
	.byte	W11
	.byte		N04	, Cs3, v096
	.byte	W06
	.byte		N05	, Cs3, v116
	.byte	W07
	.byte		N07	, Cs3, v112
	.byte	W10
	.byte			Cs3, v104
	.byte	W06
	.byte		N80	, Dn3, v112
	.byte	W02
	.byte	W80
	.byte	W03
	.byte		N12	, Dn3, v108
	.byte	W13
	.byte		N09	, Bn2, v120
	.byte	W96
	.byte	W96
	.byte	W96
	.byte	W96
	.byte	W96
	.byte	GOTO	
		.word	song0046_5_1
	.byte	FINE

	@********************** Track  6 **********************@

	.global song0046_6
song0046_6:	@ 0x08C7B3AB
	.byte	KEYSH	, 0
	.byte	VOICE	, 68
	.byte	VOL	, v039
	.byte	W96
	.byte	W96
song0046_6_1:
	.byte	W96
	.byte	W96
	.byte	W96
	.byte	W96
	.byte	W96
	.byte	W96
	.byte	W96
	.byte	W96
	.byte	W96
	.byte	W92
	.byte	W02
	.byte		N92	, Dn3, v112
	.byte	W02
	.byte	W96
	.byte	W92
	.byte	W02
	.byte		N80	, En3
	.byte	W02
	.byte	W80
	.byte	W03
	.byte		N12	, En3, v108
	.byte	W13
	.byte	W96
	.byte		N54	, Dn3
	.byte	W54
	.byte	W01
	.byte		N05	, Dn3, v092
	.byte	W12
	.byte		N03	, Dn3, v100
	.byte	W07
	.byte		N24	, Dn3, v116
	.byte	W22
	.byte	W06
	.byte		N05	, Dn3, v112
	.byte	W11
	.byte		N03	, Dn3, v096
	.byte	W06
	.byte		N22	, Dn3, v112
	.byte	W24
	.byte	W02
	.byte		N04	, Dn3, v088
	.byte	W13
	.byte		N03	, Dn3, v104
	.byte	W12
	.byte		N19	, Dn3, v112
	.byte	W22
	.byte		N04	, Dn3, v100
	.byte	W12
	.byte		N02	, Dn3, v092
	.byte	W12
	.byte		N14	, Dn3, v096
	.byte	W18
	.byte		N04	, Dn3, v084
	.byte	W12
	.byte		N03	, Dn3, v080
	.byte	W17
	.byte		N18	, Dn3, v096
	.byte	W24
	.byte		N04	, Dn3, v080
	.byte	W01
	.byte	W11
	.byte		N04	
	.byte	W12
	.byte		N16	, Dn3, v088
	.byte	W20
	.byte		N04	, Dn3, v096
	.byte	W12
	.byte		N03	, Dn3, v092
	.byte	W18
	.byte		N18	, Dn3, v104
	.byte	W23
	.byte	GOTO	
		.word	song0046_6_1
	.byte	FINE

	.align 2
	.global song0046
song0046:	@ 0x08C7B430
	.byte	6		@ trackCount
	.byte	0		@ blockCount
	.byte	0		@ priority
	.byte	128		@ reverb

	.word	voicegroup014		@ voicegroup/tone

	.word	song0046_1		@ track
	.word	song0046_2		@ track
	.word	song0046_3		@ track
	.word	song0046_4		@ track
	.word	song0046_5		@ track
	.word	song0046_6		@ track
