	.include "MPlayDef.s"

	.section .rodata

	@********************** Track  1 **********************@

	.align 2
	.global song0032_1
song0032_1:	@ 0x08C6DED0
	.byte	KEYSH	, 0
	.byte	TEMPO	, 62
	.byte	VOICE	, 1
	.byte	VOL	, v034
	.byte	W84
	.byte	W03
	.byte		N03	, Cn4, v127
	.byte	W03
	.byte			Cs4
	.byte	W03
	.byte			Dn4
	.byte	W03
	.byte			Ds4
	.byte	W03
	.byte			En4
	.byte	W03
	.byte			Ds4
	.byte	W03
	.byte			En4
	.byte	W03
	.byte			Ds4
	.byte	W03
	.byte			En4
	.byte	W03
	.byte			Ds4
	.byte	W03
	.byte			En4
	.byte	W03
	.byte			Ds4
	.byte	W03
	.byte			En4
	.byte	W03
	.byte			Ds4
	.byte	W03
	.byte			En4
	.byte	W03
	.byte			Ds4
	.byte	W03
	.byte			En4
	.byte	W03
	.byte			Ds4
	.byte	W03
	.byte			En4
	.byte	W03
	.byte			Ds4
	.byte	W03
	.byte			En4
	.byte	W03
	.byte			Ds4
	.byte	W03
	.byte			En4
	.byte	W03
	.byte			Ds4
	.byte	W03
	.byte			En4
	.byte	W03
	.byte			Ds4
	.byte	W03
	.byte			En4
	.byte	W03
	.byte			Ds4
	.byte	W03
	.byte			En4
	.byte	W03
	.byte			Ds4
	.byte	W03
	.byte			En4
	.byte	W03
	.byte			Ds4
	.byte	W03
	.byte			En4
	.byte	W03
	.byte			Fn4
	.byte	W03
	.byte			Fs4
	.byte	W03
song0032_1_3:
	.byte		N12	, Gn4, v127
	.byte	W96
	.byte	W42
	.byte		N04	, Gn2, v048
	.byte	W04
	.byte			Cn3, v052
	.byte	W04
	.byte			Dn3
	.byte	W04
	.byte			Gn2, v056
	.byte	W04
	.byte			Cn3, v060
	.byte	W04
	.byte			Dn3, v064
	.byte	W04
	.byte			Gn3, v068
	.byte	W04
	.byte			Cn4, v072
	.byte	W04
	.byte			Dn4, v076
	.byte	W04
	.byte			Gn3, v080
	.byte	W04
	.byte			Cn4, v084
	.byte	W04
	.byte			Dn4, v088
	.byte	W04
	.byte			Gn4
	.byte	W04
	.byte			Cn5, v092
	.byte	W02
	.byte	W02
	.byte			Dn5, v096
	.byte	W04
	.byte			Gn4, v100
	.byte	W04
	.byte			Cn5, v104
	.byte	W04
	.byte			Dn5, v108
	.byte	W04
	.byte			Gn5, v112
	.byte	W04
	.byte			Cn5, v116
	.byte	W04
	.byte			Dn5, v120
	.byte	W04
	.byte			Gn5, v112
	.byte	W04
	.byte			Cn6
	.byte	W04
	.byte			Dn6, v108
	.byte	W04
	.byte			Cn6
	.byte	W04
	.byte			Gn5, v104
	.byte	W04
	.byte			Dn5
	.byte	W04
	.byte			Cn5
	.byte	W04
	.byte			Dn5, v100
	.byte	W04
	.byte			Cn5
	.byte	W04
	.byte			Gn4, v096
	.byte	W04
	.byte			Dn4
	.byte	W04
	.byte			Gn4, v092
	.byte	W04
	.byte			Cn5
	.byte	W04
	.byte			Gn4, v088
	.byte	W04
	.byte			Dn4
	.byte	W04
	.byte			Cn4, v084
	.byte	W04
	.byte			Dn4
	.byte	W02
	.byte	W02
	.byte			Gn4
	.byte	W04
	.byte			Dn4, v080
	.byte	W04
	.byte			Cn4
	.byte	W04
	.byte			Gn3, v076
	.byte	W04
	.byte			Cn4
	.byte	W04
	.byte			Dn4, v072
	.byte	W04
	.byte			Cn4
	.byte	W04
	.byte			Gn3, v068
	.byte	W04
	.byte			Dn3
	.byte	W04
	.byte			Gn2, v064
	.byte	W56
	.byte	W02
song0032_1_1:
	.byte		N17	, Fs3, v127
	.byte	W18
	.byte		N17	
	.byte	W18
	.byte		N40	
	.byte	W42
	.byte		N05	, Fn3
	.byte	W06
	.byte			En3
	.byte	W06
	.byte			Ds3
	.byte	W06
	.byte	PEND
song0032_1_2:
	.byte		N17	, Dn3, v127
	.byte	W18
	.byte		N17	
	.byte	W18
	.byte		N40	
	.byte	W42
	.byte		N05	
	.byte	W06
	.byte			Ds3
	.byte	W06
	.byte			En3
	.byte	W06
	.byte	PEND
	.byte	PATT	
		.word	song0032_1_1
	.byte	PATT	
		.word	song0032_1_2
	.byte		N17	, Fs3, v127
	.byte	W18
	.byte		N17	
	.byte	W18
	.byte		N40	
	.byte	W42
	.byte		N05	
	.byte	W06
	.byte			Fn3
	.byte	W06
	.byte			En3
	.byte	W06
	.byte		N17	, Ds3
	.byte	W18
	.byte		N17	
	.byte	W18
	.byte		N44	
	.byte	W48
	.byte		N05	
	.byte	W06
	.byte		N05	
	.byte	W06
	.byte		N32	, Dn3
	.byte	W36
	.byte		N52	, As2
	.byte	W54
	.byte		N04	, Gn2, v048
	.byte	W04
	.byte			Cn3, v052
	.byte	W02
	.byte	W02
	.byte			Dn3
	.byte	W04
	.byte			Gn2, v056
	.byte	W04
	.byte			Cn3, v060
	.byte	W04
	.byte			Dn3, v064
	.byte	W04
	.byte			Gn3, v068
	.byte	W04
	.byte			Cn4, v072
	.byte	W04
	.byte			Dn4, v076
	.byte	W04
	.byte			Gn3, v080
	.byte	W04
	.byte			Cn4, v084
	.byte	W04
	.byte			Dn4, v088
	.byte	W04
	.byte			Gn4
	.byte	W04
	.byte			Cn5, v092
	.byte	W04
	.byte			Dn5, v096
	.byte	W04
	.byte			Gn4, v100
	.byte	W04
	.byte			Cn5, v104
	.byte	W04
	.byte			Dn5, v108
	.byte	W04
	.byte			Gn5, v112
	.byte	W04
	.byte			Cn5, v116
	.byte	W04
	.byte			Dn5, v120
	.byte	W04
	.byte			Gn5, v112
	.byte	W04
	.byte			Cn6
	.byte	W04
	.byte			Dn6, v108
	.byte	W04
	.byte			Cn6
	.byte	W04
	.byte		N01	, Gn5, v104
	.byte	W02
	.byte	PATT	
		.word	song0032_1_1
	.byte	PATT	
		.word	song0032_1_2
	.byte	PATT	
		.word	song0032_1_1
	.byte	PATT	
		.word	song0032_1_2
	.byte	PATT	
		.word	song0032_1_1
	.byte		N17	, Dn3, v127
	.byte	W18
	.byte		N17	
	.byte	W18
	.byte		N44	
	.byte	W48
	.byte		N05	
	.byte	W06
	.byte			Ds3
	.byte	W06
	.byte		N32	, Dn3
	.byte	W36
	.byte		N52	, As2
	.byte	W54
	.byte		N04	, Gn2, v028
	.byte	W04
	.byte			Cn3, v032
	.byte	W02
	.byte	W02
	.byte			Dn3
	.byte	W04
	.byte			Gn2, v036
	.byte	W04
	.byte			Cn3, v040
	.byte	W04
	.byte			Dn3, v044
	.byte	W04
	.byte			Gn3, v048
	.byte	W04
	.byte			Cn4, v052
	.byte	W04
	.byte			Dn4, v056
	.byte	W04
	.byte			Gn3, v060
	.byte	W04
	.byte			Cn4, v064
	.byte	W04
	.byte			Dn4, v068
	.byte	W04
	.byte			Gn4
	.byte	W04
	.byte			Cn5, v072
	.byte	W04
	.byte			Dn5, v076
	.byte	W04
	.byte			Gn4, v080
	.byte	W04
	.byte			Cn5, v084
	.byte	W04
	.byte			Dn5, v088
	.byte	W04
	.byte			Gn5, v092
	.byte	W04
	.byte			Cn5, v096
	.byte	W04
	.byte			Dn5, v100
	.byte	W04
	.byte			Gn5, v092
	.byte	W04
	.byte			Cn6
	.byte	W04
	.byte			Dn6, v088
	.byte	W04
	.byte			Cn6
	.byte	W04
	.byte			Gn5, v084
	.byte	W02
	.byte	W02
	.byte			Dn5
	.byte	W04
	.byte			Cn5
	.byte	W04
	.byte			Dn5, v080
	.byte	W04
	.byte			Cn5
	.byte	W04
	.byte			Gn4, v076
	.byte	W04
	.byte			Dn4
	.byte	W04
	.byte			Gn4, v072
	.byte	W04
	.byte			Cn5
	.byte	W04
	.byte			Gn4, v068
	.byte	W04
	.byte			Dn4
	.byte	W04
	.byte			Cn4, v064
	.byte	W04
	.byte			Dn4
	.byte	W04
	.byte			Gn4
	.byte	W04
	.byte			Dn4, v060
	.byte	W04
	.byte			Cn4
	.byte	W04
	.byte			Gn3, v056
	.byte	W04
	.byte			Cn4
	.byte	W04
	.byte			Dn4, v052
	.byte	W04
	.byte			Cn4
	.byte	W04
	.byte			Gn3, v048
	.byte	W04
	.byte			Dn3
	.byte	W04
	.byte			Gn2, v044
	.byte	W10
	.byte	W96
	.byte	W96
	.byte	W96
	.byte	W96
	.byte	W96
	.byte	W96
	.byte	W96
	.byte	W96
	.byte	W96
	.byte	W96
	.byte	W96
	.byte	W96
	.byte	W96
	.byte	W96
	.byte	W96
	.byte	GOTO	
		.word	song0032_1_3
	.byte	FINE

	@********************** Track  2 **********************@

	.global song0032_2
song0032_2:	@ 0x08C6E103
	.byte	KEYSH	, 0
	.byte	VOICE	, 88
	.byte	VOL	, v060
	.byte	W96
	.byte	W96
song0032_2_1:
	.byte		N12	, Ds3, v127
	.byte	W12
	.byte		N03	, Ds3, v056
	.byte	W06
	.byte		N03	
	.byte	W06
	.byte		N03	
	.byte	W06
	.byte		N03	
	.byte	W06
	.byte		N12	, Ds3, v127
	.byte	W12
	.byte		N03	, Ds3, v056
	.byte	W06
	.byte		N03	
	.byte	W06
	.byte		N03	
	.byte	W06
	.byte		N03	
	.byte	W06
	.byte		N12	, Cs3, v127
	.byte	W12
	.byte		N03	, Cs3, v056
	.byte	W06
	.byte		N03	
	.byte	W06
	.byte	PEND
	.byte	PATT	
		.word	song0032_2_1
	.byte	PATT	
		.word	song0032_2_1
	.byte	PATT	
		.word	song0032_2_1
	.byte	PATT	
		.word	song0032_2_1
	.byte	PATT	
		.word	song0032_2_1
	.byte	PATT	
		.word	song0032_2_1
	.byte	PATT	
		.word	song0032_2_1
song0032_2_2:
	.byte		N12	, En3, v127
	.byte	W12
	.byte		N03	, En3, v056
	.byte	W06
	.byte		N03	
	.byte	W06
	.byte		N03	
	.byte	W06
	.byte		N03	
	.byte	W06
	.byte		N12	, En3, v127
	.byte	W12
	.byte		N03	, En3, v056
	.byte	W06
	.byte		N03	
	.byte	W06
	.byte		N03	
	.byte	W06
	.byte		N03	
	.byte	W06
	.byte		N12	, Dn3, v127
	.byte	W12
	.byte		N03	, Dn3, v056
	.byte	W06
	.byte		N03	
	.byte	W06
	.byte	PEND
	.byte	PATT	
		.word	song0032_2_2
	.byte	PATT	
		.word	song0032_2_1
	.byte	PATT	
		.word	song0032_2_1
	.byte	PATT	
		.word	song0032_2_1
	.byte	PATT	
		.word	song0032_2_1
	.byte	PATT	
		.word	song0032_2_1
	.byte	PATT	
		.word	song0032_2_1
	.byte	PATT	
		.word	song0032_2_2
	.byte	PATT	
		.word	song0032_2_2
	.byte	PATT	
		.word	song0032_2_1
	.byte	PATT	
		.word	song0032_2_1
	.byte	W96
	.byte	W96
	.byte	W96
	.byte	W96
	.byte	W96
	.byte	W96
	.byte	W96
	.byte	W96
	.byte	PATT	
		.word	song0032_2_1
	.byte	PATT	
		.word	song0032_2_1
	.byte	PATT	
		.word	song0032_2_1
	.byte	PATT	
		.word	song0032_2_1
	.byte	PATT	
		.word	song0032_2_2
	.byte	PATT	
		.word	song0032_2_2
	.byte	PATT	
		.word	song0032_2_2
	.byte	PATT	
		.word	song0032_2_2
	.byte	GOTO	
		.word	song0032_2_1
	.byte	FINE

	@********************** Track  3 **********************@

	.global song0032_3
song0032_3:	@ 0x08C6E1E9
	.byte	KEYSH	, 0
	.byte	VOICE	, 49
	.byte	VOL	, v086
	.byte	BENDR	, 59
	.byte	W96
	.byte	W96
song0032_3_1:
	.byte		N06	, Gn1, v127
	.byte	W06
	.byte			Dn2, v116
	.byte	W06
	.byte			Gn2, v112
	.byte	W06
	.byte			Dn3, v104
	.byte	W06
	.byte			Gn3, v116
	.byte	W06
	.byte			Gn1, v127
	.byte	W06
	.byte			Dn2, v116
	.byte	W06
	.byte			Gn2, v112
	.byte	W06
	.byte			Dn3, v104
	.byte	W06
	.byte			Gn3, v116
	.byte	W06
	.byte			Gn1, v127
	.byte	W06
	.byte			Dn2
	.byte	W06
	.byte			Gn1, v124
	.byte	W06
	.byte			Gn2
	.byte	W06
	.byte			Cn3
	.byte	W06
	.byte			Fn3, v127
	.byte	W06
	.byte	PEND
	.byte	PATT	
		.word	song0032_3_1
	.byte	PATT	
		.word	song0032_3_1
	.byte	PATT	
		.word	song0032_3_1
	.byte	PATT	
		.word	song0032_3_1
	.byte	PATT	
		.word	song0032_3_1
	.byte	PATT	
		.word	song0032_3_1
	.byte	PATT	
		.word	song0032_3_1
song0032_3_2:
	.byte		N06	, Gs1, v127
	.byte	W06
	.byte			Ds2, v116
	.byte	W06
	.byte			Gs2, v112
	.byte	W06
	.byte			Ds3, v104
	.byte	W06
	.byte			Gs3, v116
	.byte	W06
	.byte			Gs1, v127
	.byte	W06
	.byte			Ds2, v116
	.byte	W06
	.byte			Gs2, v112
	.byte	W06
	.byte			Ds3, v104
	.byte	W06
	.byte			Gs3, v116
	.byte	W06
	.byte			Gs1, v127
	.byte	W06
	.byte			Ds2
	.byte	W06
	.byte			Gs1, v124
	.byte	W06
	.byte			Gs2
	.byte	W06
	.byte			Cs3
	.byte	W06
	.byte			Fs3, v127
	.byte	W06
	.byte	PEND
	.byte	PATT	
		.word	song0032_3_2
	.byte	PATT	
		.word	song0032_3_1
	.byte	PATT	
		.word	song0032_3_1
	.byte	PATT	
		.word	song0032_3_1
	.byte	PATT	
		.word	song0032_3_1
	.byte	PATT	
		.word	song0032_3_1
	.byte	PATT	
		.word	song0032_3_1
	.byte	PATT	
		.word	song0032_3_2
	.byte	PATT	
		.word	song0032_3_2
	.byte	PATT	
		.word	song0032_3_1
	.byte		N06	, Gn1, v127
	.byte	W06
	.byte			Dn2, v116
	.byte	W06
	.byte			Gn2, v112
	.byte	W06
	.byte			Dn3, v104
	.byte	W06
	.byte			Gn3, v116
	.byte	W06
	.byte			Gn1, v127
	.byte	W06
	.byte			Dn2, v116
	.byte	W06
	.byte			Gn2, v112
	.byte	W06
	.byte			Dn3, v104
	.byte	W06
	.byte			Gn3, v116
	.byte	W06
	.byte			Gn1, v127
	.byte	W06
	.byte			Dn2
	.byte	W06
	.byte			Gn2, v124
	.byte	W06
	.byte			Fs2
	.byte	W06
	.byte			Fn2
	.byte	W06
	.byte			En2, v127
	.byte	W06
song0032_3_3:
	.byte		N06	, Ds1, v127
	.byte	W06
	.byte			As1, v116
	.byte	W06
	.byte			Ds2, v112
	.byte	W06
	.byte			As2, v104
	.byte	W06
	.byte			Ds3, v116
	.byte	W06
	.byte			Ds1, v127
	.byte	W06
	.byte			As1, v116
	.byte	W06
	.byte			Ds2, v112
	.byte	W06
	.byte			As2, v104
	.byte	W06
	.byte			Ds3, v116
	.byte	W06
	.byte			Ds1, v127
	.byte	W06
	.byte			As1
	.byte	W06
	.byte			Ds1, v124
	.byte	W06
	.byte			Ds2
	.byte	W06
	.byte			Gs2
	.byte	W06
	.byte			Cs3, v127
	.byte	W06
	.byte	PEND
song0032_3_4:
	.byte		N06	, Ds1, v127
	.byte	W06
	.byte			As1, v116
	.byte	W06
	.byte			Ds2, v112
	.byte	W06
	.byte			As2, v104
	.byte	W06
	.byte			Ds3, v116
	.byte	W06
	.byte			Ds1, v127
	.byte	W06
	.byte			As1, v116
	.byte	W06
	.byte			Ds2, v112
	.byte	W06
	.byte			As2, v104
	.byte	W06
	.byte			Ds3, v116
	.byte	W06
	.byte			Ds1, v127
	.byte	W06
	.byte			As1
	.byte	W06
	.byte			Ds2, v124
	.byte	W06
	.byte			Ds3
	.byte	W06
	.byte			Ds2
	.byte	W06
	.byte			Dn2, v127
	.byte	W06
	.byte	PEND
song0032_3_5:
	.byte		N06	, Cs1, v127
	.byte	W06
	.byte			Gs1, v116
	.byte	W06
	.byte			Cs2, v112
	.byte	W06
	.byte			Gs2, v104
	.byte	W06
	.byte			Cs3, v116
	.byte	W06
	.byte			Cs1, v127
	.byte	W06
	.byte			Gs1, v116
	.byte	W06
	.byte			Cs2, v112
	.byte	W06
	.byte			Gs2, v104
	.byte	W06
	.byte			Cs3, v116
	.byte	W06
	.byte			Cs1, v127
	.byte	W06
	.byte			Gs1
	.byte	W06
	.byte			Cs1, v124
	.byte	W06
	.byte			Cs2
	.byte	W06
	.byte			Fs2
	.byte	W06
	.byte			Bn2, v127
	.byte	W06
	.byte	PEND
	.byte			Cs1
	.byte	W06
	.byte			Gs1, v116
	.byte	W06
	.byte			Cs2, v112
	.byte	W06
	.byte			Gs2, v104
	.byte	W06
	.byte			Cs3, v116
	.byte	W06
	.byte			Cs1, v127
	.byte	W06
	.byte			Gs1, v116
	.byte	W06
	.byte			Cs2, v112
	.byte	W06
	.byte			Gs2, v104
	.byte	W06
	.byte			Cs3, v116
	.byte	W06
	.byte			Cs1, v127
	.byte	W06
	.byte			Gs1
	.byte	W06
	.byte			Cs2, v124
	.byte	W06
	.byte			Cs3
	.byte	W06
	.byte			Cs2
	.byte	W06
	.byte			Dn2, v127
	.byte	W06
	.byte	PATT	
		.word	song0032_3_3
	.byte	PATT	
		.word	song0032_3_4
	.byte	PATT	
		.word	song0032_3_5
	.byte		N06	, Cs1, v127
	.byte	W06
	.byte			Gs1, v116
	.byte	W06
	.byte			Cs2, v112
	.byte	W06
	.byte			Gs2, v104
	.byte	W06
	.byte			Cs3, v116
	.byte	W06
	.byte			Cs1, v127
	.byte	W06
	.byte			Gs1, v116
	.byte	W06
	.byte			Cs2, v112
	.byte	W06
	.byte			Gs2, v104
	.byte	W06
	.byte			Cs3, v116
	.byte	W06
	.byte			Cs1, v127
	.byte	W06
	.byte			Gs1
	.byte	W06
	.byte			Cs2, v124
	.byte	W06
	.byte			Cs3
	.byte	W06
	.byte			Cs2
	.byte	W06
	.byte			Cn2, v127
	.byte	W06
song0032_3_6:
	.byte		N12	, Bn1, v127
	.byte	W18
	.byte		N12	
	.byte	W66
	.byte			An1
	.byte	W12
	.byte	PEND
song0032_3_7:
	.byte		N12	, Bn1, v127
	.byte	W18
	.byte		N12	
	.byte	W78
	.byte	PEND
	.byte	PATT	
		.word	song0032_3_6
	.byte	PATT	
		.word	song0032_3_7
song0032_3_8:
	.byte		N12	, Cn2, v127
	.byte	W18
	.byte		N12	
	.byte	W66
	.byte			As1
	.byte	W12
	.byte	PEND
	.byte			Cn2
	.byte	W18
	.byte		N12	
	.byte	W78
	.byte	PATT	
		.word	song0032_3_8
	.byte		N12	, Cn2, v127
	.byte	W18
	.byte		N05	, Cn3
	.byte	W06
	.byte			Gn2
	.byte	W06
	.byte			Cn2
	.byte	W06
	.byte		N23	, Fs1
	.byte	W24
	.byte		N05	, En2
	.byte	W06
	.byte			Fn2
	.byte	W06
	.byte		N23	, Fs2
	.byte	W24
	.byte	GOTO	
		.word	song0032_3_1
	.byte	FINE

	@********************** Track  4 **********************@

	.global song0032_4
song0032_4:	@ 0x08C6E412
	.byte	KEYSH	, 0
	.byte	VOICE	, 93
	.byte	VOL	, v110
	.byte	MOD	, 0
	.byte	LFOS	, 86
	.byte	BENDR	, 53
	.byte	W96
	.byte	W96
song0032_4_5:
	.byte		N24	, Gn1, v127
	.byte	W96
	.byte	W96
	.byte	W96
	.byte	W96
	.byte	W96
	.byte	W96
	.byte	W96
	.byte	W96
	.byte	W96
	.byte	W96
	.byte	W96
	.byte	W84
	.byte		N11	, Fn1
	.byte	W12
	.byte		N24	, Gn1
	.byte	W96
	.byte	W96
	.byte	W96
	.byte	W96
	.byte	W96
	.byte	W96
	.byte	W96
	.byte	W96
	.byte	W96
	.byte	W96
	.byte	W96
	.byte	W96
	.byte	W96
	.byte	W96
	.byte	W96
	.byte	W96
song0032_4_1:
	.byte		N12	, Gn2, v127
	.byte	W18
	.byte		N12	
	.byte	W66
	.byte			Fn2
	.byte	W12
	.byte	PEND
song0032_4_2:
	.byte		N12	, Gn2, v127
	.byte	W18
	.byte		N12	
	.byte	W78
	.byte	PEND
	.byte	PATT	
		.word	song0032_4_1
	.byte	PATT	
		.word	song0032_4_2
song0032_4_3:
	.byte		N12	, Gs2, v127
	.byte	W18
	.byte		N12	
	.byte	W66
	.byte			Fs2
	.byte	W12
	.byte	PEND
song0032_4_4:
	.byte		N12	, Gs2, v127
	.byte	W18
	.byte		N12	
	.byte	W78
	.byte	PEND
	.byte	PATT	
		.word	song0032_4_3
	.byte	PATT	
		.word	song0032_4_4
	.byte	GOTO	
		.word	song0032_4_5
	.byte	FINE

	@********************** Track  5 **********************@

	.global song0032_5
song0032_5:	@ 0x08C6E47E
	.byte	KEYSH	, 0
	.byte	VOICE	, 98
	.byte	VOL	, v110
	.byte	MOD	, 0
	.byte	LFOS	, 58
	.byte	MODT	, 1
	.byte		TIE	, En3, v096
	.byte	W01
	.byte	VOL	, v095
	.byte	W23
	.byte		TIE	, As3
	.byte	W24
	.byte			Gn3
	.byte	W24
	.byte			Ds4
	.byte	W06
	.byte	VOL	, v095
	.byte	W01
	.byte		v089
	.byte	W01
	.byte		v083
	.byte	W01
	.byte		v079
	.byte	W01
	.byte		v073
	.byte	W01
	.byte		v067
	.byte	W01
	.byte		v063
	.byte	W01
	.byte		v057
	.byte	W01
	.byte		v051
	.byte	W01
	.byte		v046
	.byte	W01
	.byte		v040
	.byte	W01
	.byte		v034
	.byte	W03
	.byte		v035
	.byte	W02
	.byte		v036
	.byte	W01
	.byte		v037
	.byte	W01
	.byte	MOD	, 50
	.byte	VOL	, v038
	.byte	W02
	.byte		v038
	.byte	W01
	.byte		v039
	.byte	W02
	.byte		v040
	.byte	W01
	.byte		v041
	.byte	W01
	.byte		v042
	.byte	W02
	.byte		v043
	.byte	W01
	.byte		v044
	.byte	W02
	.byte		v045
	.byte	W01
	.byte		v045
	.byte	W01
	.byte		v046
	.byte	W02
	.byte		v047
	.byte	W01
	.byte		v048
	.byte	W02
	.byte		v049
	.byte	W01
	.byte		v050
	.byte	W01
	.byte		v051
	.byte	W02
	.byte		v051
	.byte	W01
	.byte		v052
	.byte	W02
	.byte		v053
	.byte	W01
	.byte		v054
	.byte	W01
	.byte		v055
	.byte	W02
	.byte		v056
	.byte	W01
	.byte		v057
	.byte	W02
	.byte		v058
	.byte	W01
	.byte		v058
	.byte	W01
	.byte		v059
	.byte	W02
	.byte		v060
	.byte	W01
	.byte		v061
	.byte	W02
	.byte		v062
	.byte	W01
	.byte		v063
	.byte	W01
	.byte		v064
	.byte	W02
	.byte		v064
	.byte	W01
	.byte		v065
	.byte	W02
	.byte		v066
	.byte	W01
	.byte	MOD	, 0
	.byte	VOL	, v067
	.byte	W01
	.byte		v068
	.byte	W02
	.byte		v069
	.byte	W01
	.byte		v070
	.byte	W02
	.byte		v071
	.byte	W01
	.byte		v071
	.byte	W01
	.byte		v072
	.byte	W02
	.byte		v073
	.byte	W01
	.byte		v074
	.byte	W02
	.byte		v075
	.byte	W01
	.byte		v076
	.byte	W01
	.byte		v077
	.byte	W02
	.byte		v077
	.byte	W01
	.byte		v078
	.byte	W02
	.byte		v079
	.byte	W01
	.byte		v080
	.byte	W01
	.byte		v081
	.byte	W02
	.byte		v082
	.byte	W01
	.byte		v083
	.byte	W02
	.byte		v084
	.byte	W01
	.byte		v084
	.byte	W01
	.byte		v085
	.byte	W02
	.byte		EOT	, En3
	.byte			Gn3
	.byte			As3
	.byte			Ds4
	.byte	VOL	, v086
	.byte	W01
	.byte		v087
	.byte		N04	, Dn3, v112
	.byte		N04	, Ds4
	.byte	W03
	.byte	VOL	, v088
	.byte	W01
	.byte		v089
	.byte		N04	, Cn3
	.byte		N04	, En4
	.byte	W02
	.byte	VOL	, v090
	.byte	W01
	.byte		v090
	.byte	W01
	.byte		N04	, As2, v120
	.byte		N04	, Fn4
	.byte	W01
	.byte	VOL	, v091
	.byte	W01
	.byte		v092
	.byte	W01
	.byte		v093
	.byte	W01
	.byte		N04	, An2, v112
	.byte		N04	, Fs4
	.byte	W01
	.byte	VOL	, v095
	.byte	W03
song0032_5_8:
	.byte	W96
	.byte	W96
	.byte	W96
	.byte	W96
song0032_5_1:
	.byte		N17	, Dn3, v116
	.byte	W18
	.byte		N17	
	.byte	W18
	.byte		N40	
	.byte	W42
	.byte		N05	, Cs3
	.byte	W06
	.byte			Cn3
	.byte	W06
	.byte			Bn2
	.byte	W06
	.byte	PEND
song0032_5_2:
	.byte		N17	, As2, v116
	.byte	W18
	.byte		N17	
	.byte	W18
	.byte		N40	
	.byte	W42
	.byte		N05	
	.byte	W06
	.byte			Bn2
	.byte	W06
	.byte			Cn3
	.byte	W06
	.byte	PEND
	.byte	PATT	
		.word	song0032_5_1
	.byte	PATT	
		.word	song0032_5_2
song0032_5_3:
	.byte		N17	, Ds3, v116
	.byte	W18
	.byte		N17	
	.byte	W18
	.byte		N40	
	.byte	W42
	.byte		N05	, Cs3
	.byte	W06
	.byte			Cn3
	.byte	W06
	.byte			Bn2
	.byte	W06
	.byte	PEND
song0032_5_4:
	.byte		N17	, As2, v116
	.byte	W18
	.byte		N17	
	.byte	W18
	.byte		N44	
	.byte	W48
	.byte		N05	
	.byte	W06
	.byte			Bn2
	.byte	W06
	.byte	PEND
song0032_5_5:
	.byte		N32	, As2, v116
	.byte	W36
	.byte		N60	, Fs2
	.byte	W60
	.byte	PEND
	.byte	W96
	.byte	PATT	
		.word	song0032_5_1
	.byte	PATT	
		.word	song0032_5_2
	.byte	PATT	
		.word	song0032_5_1
	.byte	PATT	
		.word	song0032_5_2
	.byte	PATT	
		.word	song0032_5_3
	.byte	PATT	
		.word	song0032_5_4
	.byte	PATT	
		.word	song0032_5_5
	.byte	W96
song0032_5_7:
	.byte		TIE	, En3, v096
	.byte	W01
	.byte	VOL	, v095
	.byte	W23
	.byte		TIE	, As3
	.byte	W24
	.byte			Gn3
	.byte	W24
	.byte			Ds4
	.byte	W06
	.byte	VOL	, v095
	.byte	W01
	.byte		v089
	.byte	W01
	.byte		v083
	.byte	W01
	.byte		v079
	.byte	W01
	.byte		v073
	.byte	W01
	.byte		v067
	.byte	W01
	.byte		v063
	.byte	W01
	.byte		v057
	.byte	W01
	.byte		v051
	.byte	W01
	.byte		v046
	.byte	W01
	.byte		v040
	.byte	W01
	.byte		v034
	.byte	W03
	.byte		v035
	.byte	W02
	.byte		v036
	.byte	W01
	.byte		v037
	.byte	W01
	.byte	PEND
song0032_5_6:
	.byte	MOD	, 50
	.byte	VOL	, v038
	.byte	W02
	.byte		v038
	.byte	W01
	.byte		v039
	.byte	W02
	.byte		v040
	.byte	W01
	.byte		v041
	.byte	W01
	.byte		v042
	.byte	W02
	.byte		v043
	.byte	W01
	.byte		v044
	.byte	W02
	.byte		v045
	.byte	W01
	.byte		v045
	.byte	W01
	.byte		v046
	.byte	W02
	.byte		v047
	.byte	W01
	.byte		v048
	.byte	W02
	.byte		v049
	.byte	W01
	.byte		v050
	.byte	W01
	.byte		v051
	.byte	W02
	.byte		v051
	.byte	W01
	.byte		v052
	.byte	W02
	.byte		v053
	.byte	W01
	.byte		v054
	.byte	W01
	.byte		v055
	.byte	W02
	.byte		v056
	.byte	W01
	.byte		v057
	.byte	W02
	.byte		v058
	.byte	W01
	.byte		v058
	.byte	W01
	.byte		v059
	.byte	W02
	.byte		v060
	.byte	W01
	.byte		v061
	.byte	W02
	.byte		v062
	.byte	W01
	.byte		v063
	.byte	W01
	.byte		v064
	.byte	W02
	.byte		v064
	.byte	W01
	.byte		v065
	.byte	W02
	.byte		v066
	.byte	W01
	.byte	MOD	, 0
	.byte	VOL	, v067
	.byte	W01
	.byte		v068
	.byte	W02
	.byte		v069
	.byte	W01
	.byte		v070
	.byte	W02
	.byte		v071
	.byte	W01
	.byte		v071
	.byte	W01
	.byte		v072
	.byte	W02
	.byte		v073
	.byte	W01
	.byte		v074
	.byte	W02
	.byte		v075
	.byte	W01
	.byte		v076
	.byte	W01
	.byte		v077
	.byte	W02
	.byte		v077
	.byte	W01
	.byte		v078
	.byte	W02
	.byte		v079
	.byte	W01
	.byte		v080
	.byte	W01
	.byte		v081
	.byte	W02
	.byte		v082
	.byte	W01
	.byte		v083
	.byte	W02
	.byte		v084
	.byte	W01
	.byte		v084
	.byte	W01
	.byte		v085
	.byte	W02
	.byte		v086
	.byte	W01
	.byte		v087
	.byte	W03
	.byte		v088
	.byte	W01
	.byte		v089
	.byte	W02
	.byte		v090
	.byte	W01
	.byte		v090
	.byte	W02
	.byte		v091
	.byte	W01
	.byte		v092
	.byte	W01
	.byte		v093
	.byte	W02
	.byte		v095
	.byte	W01
	.byte	PEND
	.byte		EOT	, En3
	.byte			Gn3
	.byte			As3
	.byte			Ds4
	.byte	W02
	.byte		TIE	, Dn3, v096
	.byte	W01
	.byte	VOL	, v095
	.byte	W23
	.byte		TIE	, Gs3
	.byte	W24
	.byte			Fn3
	.byte	W24
	.byte			Cs4
	.byte	W06
	.byte	VOL	, v095
	.byte	W01
	.byte		v089
	.byte	W01
	.byte		v083
	.byte	W01
	.byte		v079
	.byte	W01
	.byte		v073
	.byte	W01
	.byte		v067
	.byte	W01
	.byte		v063
	.byte	W01
	.byte		v057
	.byte	W01
	.byte		v051
	.byte	W01
	.byte		v046
	.byte	W01
	.byte		v040
	.byte	W01
	.byte		v034
	.byte	W03
	.byte		v035
	.byte	W02
	.byte		v036
	.byte	W01
	.byte		v037
	.byte	W01
	.byte	PATT	
		.word	song0032_5_6
	.byte		EOT	, Dn3
	.byte			Fn3
	.byte			Gs3
	.byte			Cs4
	.byte	W02
	.byte	PATT	
		.word	song0032_5_7
	.byte	MOD	, 50
	.byte	VOL	, v038
	.byte	W02
	.byte		v038
	.byte	W01
	.byte		v039
	.byte	W02
	.byte		v040
	.byte	W01
	.byte		v041
	.byte	W01
	.byte		v042
	.byte	W02
	.byte		v043
	.byte	W01
	.byte		v044
	.byte	W02
	.byte		v045
	.byte	W01
	.byte		v045
	.byte	W01
	.byte		v046
	.byte	W02
	.byte		v047
	.byte	W01
	.byte		v048
	.byte	W02
	.byte		v049
	.byte	W01
	.byte		v050
	.byte	W01
	.byte		v051
	.byte	W02
	.byte		v051
	.byte	W01
	.byte		v052
	.byte	W02
	.byte		v053
	.byte	W01
	.byte		v054
	.byte	W01
	.byte		v055
	.byte	W02
	.byte		v056
	.byte	W01
	.byte		v057
	.byte	W02
	.byte		v058
	.byte	W01
	.byte		v058
	.byte	W01
	.byte		v059
	.byte	W02
	.byte		v060
	.byte	W01
	.byte		v061
	.byte	W02
	.byte		v062
	.byte	W01
	.byte		v063
	.byte	W01
	.byte		v064
	.byte	W02
	.byte		v064
	.byte	W01
	.byte		v065
	.byte	W02
	.byte		v066
	.byte	W01
	.byte	MOD	, 0
	.byte	VOL	, v067
	.byte	W01
	.byte		v068
	.byte	W02
	.byte		v069
	.byte	W01
	.byte		v070
	.byte	W02
	.byte		v071
	.byte	W01
	.byte		v071
	.byte	W01
	.byte		v072
	.byte	W02
	.byte		v073
	.byte	W01
	.byte		v074
	.byte	W02
	.byte		v075
	.byte	W01
	.byte		v076
	.byte	W01
	.byte		v077
	.byte	W02
	.byte		v077
	.byte	W01
	.byte		v078
	.byte	W02
	.byte		v079
	.byte	W01
	.byte		v080
	.byte	W01
	.byte		v081
	.byte	W02
	.byte		v082
	.byte	W01
	.byte		v083
	.byte	W02
	.byte		v084
	.byte	W01
	.byte		v084
	.byte	W01
	.byte		v085
	.byte	W02
	.byte		v086
	.byte	W01
	.byte		v087
	.byte	W03
	.byte		EOT	, En3
	.byte			Gn3
	.byte			As3
	.byte			Ds4
	.byte	VOL	, v088
	.byte	W01
	.byte		v089
	.byte		N05	, An2, v096
	.byte		N05	, Ds3
	.byte		N05	, Fs3
	.byte		N05	, Dn4
	.byte	W02
	.byte	VOL	, v090
	.byte	W01
	.byte		v090
	.byte	W02
	.byte		v091
	.byte	W01
	.byte		v092
	.byte		N05	, As2
	.byte		N05	, En3
	.byte		N05	, Gn3
	.byte		N05	, Ds4
	.byte	W01
	.byte	VOL	, v093
	.byte	W02
	.byte		v095
	.byte	W03
	.byte		N80	, Bn2
	.byte		N80	, Fn3
	.byte		N80	, Gs3
	.byte		N80	, En4
	.byte	W01
	.byte	VOL	, v095
	.byte	W76
	.byte	W01
	.byte		v095
	.byte	W01
	.byte		v089
	.byte	W01
	.byte		v083
	.byte	W01
	.byte		v079
	.byte	W01
	.byte		v073
	.byte	W01
	.byte		v067
	.byte	W01
	.byte		v063
	.byte		N05	, As2
	.byte		N05	, En3
	.byte		N05	, Gn3
	.byte		N05	, Ds4
	.byte	W01
	.byte	VOL	, v057
	.byte	W01
	.byte		v051
	.byte	W01
	.byte		v046
	.byte	W01
	.byte		v040
	.byte	W01
	.byte		v034
	.byte	W01
	.byte		N05	, Bn2
	.byte		N05	, Fn3
	.byte		N05	, Gs3
	.byte		N05	, En4
	.byte	W02
	.byte	VOL	, v035
	.byte	W02
	.byte		v036
	.byte	W01
	.byte		v037
	.byte	W01
	.byte	MOD	, 50
	.byte	VOL	, v038
	.byte		N92	, Cn3
	.byte		N92	, Fs3
	.byte		N92	, An3
	.byte		N92	, Fn4
	.byte	W02
	.byte	VOL	, v038
	.byte	W01
	.byte		v039
	.byte	W02
	.byte		v040
	.byte	W01
	.byte		v041
	.byte	W01
	.byte		v042
	.byte	W02
	.byte		v043
	.byte	W01
	.byte		v044
	.byte	W02
	.byte		v045
	.byte	W01
	.byte		v045
	.byte	W01
	.byte		v046
	.byte	W02
	.byte		v047
	.byte	W01
	.byte		v048
	.byte	W02
	.byte		v049
	.byte	W01
	.byte		v050
	.byte	W01
	.byte		v051
	.byte	W02
	.byte		v051
	.byte	W01
	.byte		v052
	.byte	W02
	.byte		v053
	.byte	W01
	.byte		v054
	.byte	W01
	.byte		v055
	.byte	W02
	.byte		v056
	.byte	W01
	.byte		v057
	.byte	W02
	.byte		v058
	.byte	W01
	.byte		v058
	.byte	W01
	.byte		v059
	.byte	W02
	.byte		v060
	.byte	W01
	.byte		v061
	.byte	W02
	.byte		v062
	.byte	W01
	.byte		v063
	.byte	W01
	.byte		v064
	.byte	W02
	.byte		v064
	.byte	W01
	.byte		v065
	.byte	W02
	.byte		v066
	.byte	W01
	.byte	MOD	, 0
	.byte	VOL	, v067
	.byte	W01
	.byte		v068
	.byte	W02
	.byte		v069
	.byte	W01
	.byte		v070
	.byte	W02
	.byte		v071
	.byte	W01
	.byte		v071
	.byte	W01
	.byte		v072
	.byte	W02
	.byte		v073
	.byte	W01
	.byte		v074
	.byte	W02
	.byte		v075
	.byte	W01
	.byte		v076
	.byte	W01
	.byte		v077
	.byte	W02
	.byte		v077
	.byte	W01
	.byte		v078
	.byte	W02
	.byte		v079
	.byte	W01
	.byte		v080
	.byte	W01
	.byte		v081
	.byte	W02
	.byte		v082
	.byte	W01
	.byte		v083
	.byte	W02
	.byte		v084
	.byte	W01
	.byte		v084
	.byte	W01
	.byte		v085
	.byte	W02
	.byte		v086
	.byte	W01
	.byte		v087
	.byte	W03
	.byte		v088
	.byte	W01
	.byte		v089
	.byte	W02
	.byte		v090
	.byte	W01
	.byte		v090
	.byte	W02
	.byte		v091
	.byte	W01
	.byte		v092
	.byte	W01
	.byte		v093
	.byte	W02
	.byte		v095
	.byte	W03
	.byte	W96
	.byte	W96
	.byte	W96
	.byte	W96
	.byte	W96
	.byte	W96
	.byte	W01
	.byte		v095
	.byte	W76
	.byte	W01
	.byte		v095
	.byte	W01
	.byte		v089
	.byte	W01
	.byte		v083
	.byte	W01
	.byte		v079
	.byte	W01
	.byte		v073
	.byte	W01
	.byte		v067
	.byte	W01
	.byte		v063
	.byte	W01
	.byte		v057
	.byte	W01
	.byte		v051
	.byte	W01
	.byte		v046
	.byte	W01
	.byte		v040
	.byte	W01
	.byte		v034
	.byte	W03
	.byte		v035
	.byte	W02
	.byte		v036
	.byte	W01
	.byte		v037
	.byte	W01
	.byte	MOD	, 50
	.byte	VOL	, v038
	.byte	W02
	.byte		v038
	.byte	W01
	.byte		v039
	.byte	W02
	.byte		v040
	.byte	W01
	.byte		v041
	.byte	W01
	.byte		v042
	.byte	W02
	.byte		v043
	.byte	W01
	.byte		v044
	.byte	W02
	.byte		v045
	.byte	W01
	.byte		v045
	.byte	W01
	.byte		v046
	.byte	W02
	.byte		v047
	.byte	W01
	.byte		v048
	.byte	W02
	.byte		v049
	.byte	W01
	.byte		v050
	.byte	W01
	.byte		v051
	.byte	W02
	.byte		v051
	.byte	W01
	.byte		v052
	.byte	W02
	.byte		v053
	.byte	W01
	.byte		v054
	.byte	W01
	.byte		v055
	.byte	W02
	.byte		v056
	.byte	W01
	.byte		v057
	.byte	W02
	.byte		v058
	.byte	W01
	.byte		v058
	.byte	W01
	.byte		v059
	.byte	W01
	.byte		N60	, Fs2, v120
	.byte		N60	, Dn3
	.byte		N60	, An3
	.byte	W01
	.byte	VOL	, v060
	.byte	W01
	.byte		v061
	.byte	W02
	.byte		v062
	.byte	W01
	.byte		v063
	.byte	W01
	.byte		v064
	.byte	W02
	.byte		v064
	.byte	W01
	.byte		v065
	.byte	W02
	.byte		v066
	.byte	W01
	.byte	MOD	, 0
	.byte	VOL	, v067
	.byte	W01
	.byte		v068
	.byte	W02
	.byte		v069
	.byte	W01
	.byte		v070
	.byte	W02
	.byte		v071
	.byte	W01
	.byte		v071
	.byte	W01
	.byte		v072
	.byte	W02
	.byte		v073
	.byte	W01
	.byte		v074
	.byte	W02
	.byte		v075
	.byte	W01
	.byte		v076
	.byte	W01
	.byte		v077
	.byte	W02
	.byte		v077
	.byte	W01
	.byte		v078
	.byte	W02
	.byte		v079
	.byte	W01
	.byte		v080
	.byte	W01
	.byte		v081
	.byte	W02
	.byte		v082
	.byte	W01
	.byte		v083
	.byte	W02
	.byte		v084
	.byte	W01
	.byte		v084
	.byte	W01
	.byte		v085
	.byte	W02
	.byte		v086
	.byte	W01
	.byte		v087
	.byte	W03
	.byte		v088
	.byte	W01
	.byte		v089
	.byte	W02
	.byte		v090
	.byte	W01
	.byte		v090
	.byte	W02
	.byte		v091
	.byte	W01
	.byte		v092
	.byte	W01
	.byte		v093
	.byte	W02
	.byte		v095
	.byte	W03
	.byte	GOTO	
		.word	song0032_5_8
	.byte	FINE

	@********************** Track  6 **********************@

	.global song0032_6
song0032_6:	@ 0x08C6E908
	.byte	KEYSH	, 0
	.byte	VOICE	, 127
	.byte	VOL	, v110
	.byte	W96
	.byte	W60
	.byte		N06	, En2, v127
	.byte	W06
	.byte		N06	
	.byte	W06
	.byte			Ds2
	.byte	W06
	.byte		N06	
	.byte	W06
	.byte			En2
	.byte	W06
	.byte		N06	
	.byte	W06
song0032_6_2:
	.byte		N06	, Ds1, v068
	.byte		N48	, Cs2, v127
	.byte		N06	, Ds2
	.byte	W06
	.byte			Dn1, v056
	.byte	W06
	.byte			Dn1, v048
	.byte	W06
	.byte			Dn1, v028
	.byte		N06	, En2, v127
	.byte	W06
	.byte			Dn1, v048
	.byte	W06
	.byte			Dn1, v028
	.byte	W06
	.byte			Ds1, v068
	.byte		N06	, Ds2, v127
	.byte	W06
	.byte			Dn1, v056
	.byte	W06
	.byte			Dn1, v048
	.byte	W06
	.byte			Dn1, v028
	.byte		N06	, En2, v127
	.byte	W06
	.byte			Dn1, v048
	.byte	W06
	.byte			Dn1, v028
	.byte	W06
	.byte			En1, v056
	.byte		N06	, Ds2, v127
	.byte	W06
	.byte			Ds1, v064
	.byte	W06
	.byte			Dn1, v052
	.byte		N06	, En2, v127
	.byte	W06
	.byte			Dn1, v060
	.byte	W06
	.byte	PEND
song0032_6_1:
	.byte		N06	, Ds1, v068
	.byte		N06	, Ds2, v127
	.byte	W06
	.byte			Dn1, v056
	.byte	W06
	.byte			Dn1, v048
	.byte	W06
	.byte			Dn1, v028
	.byte		N06	, En2, v127
	.byte	W06
	.byte			Dn1, v048
	.byte	W06
	.byte			Dn1, v028
	.byte	W06
	.byte			Ds1, v068
	.byte		N06	, Ds2, v127
	.byte	W06
	.byte			Dn1, v056
	.byte	W06
	.byte			Dn1, v048
	.byte	W06
	.byte			Dn1, v028
	.byte		N06	, En2, v127
	.byte	W06
	.byte			Dn1, v048
	.byte	W06
	.byte			Dn1, v028
	.byte	W06
	.byte			En1, v056
	.byte		N06	, Ds2, v127
	.byte	W06
	.byte			Ds1, v064
	.byte	W06
	.byte			Dn1, v052
	.byte		N06	, En2, v127
	.byte	W06
	.byte			Dn1, v060
	.byte	W06
	.byte	PEND
	.byte	PATT	
		.word	song0032_6_1
song0032_6_3:
	.byte		N06	, Ds1, v068
	.byte		N06	, Ds2, v127
	.byte	W06
	.byte			Dn1, v056
	.byte	W06
	.byte			Dn1, v048
	.byte	W06
	.byte			Dn1, v028
	.byte		N06	, En2, v127
	.byte	W06
	.byte			Dn1, v048
	.byte	W06
	.byte			Dn1, v028
	.byte	W06
	.byte			Ds1, v068
	.byte		N06	, Ds2, v127
	.byte	W06
	.byte			Dn1, v056
	.byte	W06
	.byte			Dn1, v048
	.byte	W06
	.byte			Dn1, v028
	.byte		N06	, En2, v127
	.byte	W06
	.byte			Dn1, v048
	.byte	W06
	.byte			Dn1, v028
	.byte		N06	, Ds2, v127
	.byte	W06
	.byte			En1, v056
	.byte		N06	, En2, v127
	.byte	W06
	.byte			Ds1, v064
	.byte		N03	, En2, v127
	.byte	W03
	.byte		N03	
	.byte	W03
	.byte		N06	, Dn1, v052
	.byte		N06	, En2, v127
	.byte	W06
	.byte			Dn1, v060
	.byte		N06	, En2, v127
	.byte	W06
	.byte	PEND
	.byte	PATT	
		.word	song0032_6_2
	.byte	PATT	
		.word	song0032_6_1
	.byte	PATT	
		.word	song0032_6_1
	.byte	PATT	
		.word	song0032_6_1
	.byte	PATT	
		.word	song0032_6_1
	.byte	PATT	
		.word	song0032_6_1
	.byte	PATT	
		.word	song0032_6_1
	.byte	PATT	
		.word	song0032_6_3
	.byte	PATT	
		.word	song0032_6_2
	.byte	PATT	
		.word	song0032_6_1
	.byte	PATT	
		.word	song0032_6_1
	.byte	PATT	
		.word	song0032_6_1
	.byte	PATT	
		.word	song0032_6_1
	.byte	PATT	
		.word	song0032_6_1
	.byte	PATT	
		.word	song0032_6_1
	.byte		N06	, Ds1, v068
	.byte		N06	, Ds2, v127
	.byte	W06
	.byte			Dn1, v056
	.byte	W06
	.byte			Dn1, v048
	.byte	W06
	.byte			Dn1, v028
	.byte		N06	, En2, v127
	.byte	W06
	.byte			Dn1, v048
	.byte	W06
	.byte			Dn1, v028
	.byte	W06
	.byte			Ds1, v068
	.byte		N06	, Ds2, v127
	.byte	W06
	.byte			Dn1, v056
	.byte	W06
	.byte			Dn1, v048
	.byte	W06
	.byte			Dn1, v028
	.byte		N06	, En2, v127
	.byte	W06
	.byte			Dn1, v048
	.byte		N06	, Ds2, v127
	.byte	W06
	.byte			Dn1, v028
	.byte	W06
	.byte			En1, v056
	.byte		N06	, Ds2, v127
	.byte	W06
	.byte			Ds1, v064
	.byte		N06	, Ds2, v127
	.byte	W06
	.byte			Dn1, v052
	.byte		N06	, En2, v127
	.byte	W06
	.byte			Dn1, v060
	.byte		N06	, En2, v127
	.byte	W06
	.byte	PATT	
		.word	song0032_6_2
	.byte	PATT	
		.word	song0032_6_1
	.byte	PATT	
		.word	song0032_6_1
	.byte	PATT	
		.word	song0032_6_1
	.byte	PATT	
		.word	song0032_6_2
	.byte	PATT	
		.word	song0032_6_1
	.byte	PATT	
		.word	song0032_6_1
	.byte	PATT	
		.word	song0032_6_3
song0032_6_4:
	.byte		N06	, Ds1, v068
	.byte		N48	, Cs2, v127
	.byte		N06	, Ds2
	.byte	W06
	.byte			Dn1, v056
	.byte	W06
	.byte			Dn1, v048
	.byte	W06
	.byte			Dn1, v028
	.byte		N06	, En2, v127
	.byte	W06
	.byte			Dn1, v048
	.byte	W06
	.byte			Dn1, v028
	.byte	W06
	.byte			Ds1, v068
	.byte		N06	, Ds2, v127
	.byte	W06
	.byte			Dn1, v056
	.byte	W06
	.byte			Dn1, v048
	.byte		N06	, Ds2, v127
	.byte	W06
	.byte			Dn1, v028
	.byte		N06	, En2, v127
	.byte	W12
	.byte			Ds2
	.byte	W06
	.byte			En2
	.byte	W06
	.byte			Ds2
	.byte	W06
	.byte			En2
	.byte	W06
	.byte		N06	
	.byte	W06
	.byte	PEND
song0032_6_5:
	.byte		N06	, Ds1, v068
	.byte		N06	, Ds2, v127
	.byte	W06
	.byte			Dn1, v056
	.byte	W06
	.byte			Dn1, v048
	.byte	W06
	.byte			Dn1, v028
	.byte		N06	, En2, v127
	.byte	W06
	.byte			Dn1, v048
	.byte	W06
	.byte			Dn1, v028
	.byte	W06
	.byte			Ds1, v068
	.byte		N06	, Ds2, v127
	.byte	W06
	.byte			Dn1, v056
	.byte	W12
	.byte			En2, v127
	.byte	W06
	.byte		N03	
	.byte	W03
	.byte		N03	
	.byte	W03
	.byte		N06	
	.byte	W06
	.byte			Ds2
	.byte	W06
	.byte			En2
	.byte	W06
	.byte			Ds2
	.byte	W06
	.byte		N06	
	.byte	W06
	.byte	PEND
	.byte			Ds1, v068
	.byte		N48	, Cs2, v127
	.byte		N06	, Ds2
	.byte	W06
	.byte			Dn1, v056
	.byte	W06
	.byte			Dn1, v048
	.byte	W06
	.byte			Dn1, v028
	.byte		N06	, En2, v127
	.byte	W06
	.byte			Dn1, v048
	.byte	W06
	.byte			Dn1, v028
	.byte	W06
	.byte			Ds1, v068
	.byte		N06	, Ds2, v127
	.byte	W06
	.byte			Dn1, v056
	.byte	W12
	.byte			En2, v127
	.byte	W12
	.byte			Ds2
	.byte	W06
	.byte			En2
	.byte	W06
	.byte			Ds2
	.byte	W06
	.byte			En2
	.byte	W06
	.byte			Ds2
	.byte	W06
	.byte			Ds1, v068
	.byte		N06	, Ds2, v127
	.byte	W06
	.byte			Dn1, v056
	.byte	W06
	.byte			Dn1, v048
	.byte	W06
	.byte			Dn1, v028
	.byte		N06	, En2, v127
	.byte	W06
	.byte			Dn1, v048
	.byte	W06
	.byte			Dn1, v028
	.byte	W06
	.byte			Ds1, v068
	.byte		N06	, Ds2, v127
	.byte	W06
	.byte			Dn1, v056
	.byte	W06
	.byte			Dn1, v048
	.byte		N06	, Ds2, v127
	.byte	W06
	.byte			Dn1, v028
	.byte		N06	, En2, v127
	.byte	W12
	.byte			Ds2
	.byte	W06
	.byte			En2
	.byte	W06
	.byte			Ds2
	.byte	W06
	.byte			En2
	.byte	W06
	.byte		N06	
	.byte	W06
	.byte			Ds1, v068
	.byte		N48	, Cs2, v127
	.byte		N06	, Ds2
	.byte	W06
	.byte			Dn1, v056
	.byte	W06
	.byte			Dn1, v048
	.byte	W06
	.byte			Dn1, v028
	.byte		N06	, En2, v127
	.byte	W06
	.byte			Dn1, v048
	.byte	W06
	.byte			Dn1, v028
	.byte	W06
	.byte			Ds1, v068
	.byte		N06	, Ds2, v127
	.byte	W06
	.byte			Dn1, v056
	.byte	W12
	.byte			En2, v127
	.byte	W06
	.byte		N03	
	.byte	W03
	.byte		N03	
	.byte	W03
	.byte		N06	
	.byte	W06
	.byte			Ds2
	.byte	W06
	.byte			En2
	.byte	W06
	.byte			Ds2
	.byte	W06
	.byte		N06	
	.byte	W06
	.byte			Ds1, v068
	.byte		N06	, Ds2, v127
	.byte	W06
	.byte			Dn1, v056
	.byte	W06
	.byte			Dn1, v048
	.byte	W06
	.byte			Dn1, v028
	.byte		N06	, En2, v127
	.byte	W06
	.byte			Dn1, v048
	.byte	W06
	.byte			Dn1, v028
	.byte	W06
	.byte			Ds1, v068
	.byte		N06	, Ds2, v127
	.byte	W06
	.byte			Dn1, v056
	.byte	W12
	.byte			En2, v127
	.byte	W12
	.byte			Ds2
	.byte	W06
	.byte			En2
	.byte	W06
	.byte			Ds2
	.byte	W06
	.byte			En2
	.byte	W06
	.byte			Ds2
	.byte	W06
	.byte	PATT	
		.word	song0032_6_4
	.byte	PATT	
		.word	song0032_6_5
	.byte	GOTO	
		.word	song0032_6_2
	.byte	FINE

	@********************** Track  7 **********************@

	.global song0032_7
song0032_7:	@ 0x08C6EC04
	.byte	KEYSH	, 0
	.byte	VOICE	, 82
	.byte	VOL	, v110
	.byte	BENDR	, 13
	.byte	LFOS	, 28
	.byte	MODT	, 0
	.byte	MOD	, 0
	.byte	W96
	.byte	W96
song0032_7_5:
	.byte	VOL	, v110
	.byte	BEND	, c_v
	.byte	W96
	.byte	W96
	.byte	W96
	.byte	W96
song0032_7_1:
	.byte	MOD	, 0
	.byte		N17	, An3, v060
	.byte	W18
	.byte		N17	
	.byte	W18
	.byte		N40	
	.byte	W12
	.byte	MOD	, 6
	.byte	W30
	.byte		N05	
	.byte	W06
	.byte			Gs3
	.byte	W06
	.byte			Gn3
	.byte	W06
	.byte	PEND
song0032_7_2:
	.byte	MOD	, 0
	.byte		N17	, Fs3, v060
	.byte	W18
	.byte		N17	
	.byte	W18
	.byte		N40	
	.byte	W12
	.byte	MOD	, 6
	.byte	W30
	.byte		N05	
	.byte	W06
	.byte			Gn3
	.byte	W06
	.byte			Gs3
	.byte	W06
	.byte	PEND
	.byte	PATT	
		.word	song0032_7_1
	.byte	PATT	
		.word	song0032_7_2
	.byte	PATT	
		.word	song0032_7_1
song0032_7_3:
	.byte	MOD	, 0
	.byte		N17	, Fs3, v060
	.byte	W18
	.byte		N17	
	.byte	W18
	.byte		N44	
	.byte	W12
	.byte	MOD	, 6
	.byte	W36
	.byte		N05	
	.byte	W06
	.byte			Gn3
	.byte	W06
	.byte	PEND
song0032_7_4:
	.byte	MOD	, 0
	.byte		N32	, Fs3, v060
	.byte	W36
	.byte		N60	, Dn3
	.byte	W12
	.byte	MOD	, 6
	.byte	W48
	.byte	PEND
	.byte	W96
	.byte	PATT	
		.word	song0032_7_1
	.byte	PATT	
		.word	song0032_7_2
	.byte	PATT	
		.word	song0032_7_1
	.byte	PATT	
		.word	song0032_7_2
	.byte	PATT	
		.word	song0032_7_1
	.byte	PATT	
		.word	song0032_7_3
	.byte	PATT	
		.word	song0032_7_4
	.byte	W96
	.byte	W96
	.byte	W96
	.byte	W96
	.byte	W96
	.byte	W96
	.byte	W96
	.byte	W96
	.byte	W96
	.byte	W96
	.byte	W96
	.byte	VOL	, v000
	.byte	BEND	, c_v
	.byte	W48
	.byte	VOL	, v000
	.byte		TIE	, Gn2, v092
	.byte	W01
	.byte	VOL	, v002
	.byte	W01
	.byte		v005
	.byte	W01
	.byte		v006
	.byte	W01
	.byte		v009
	.byte	W01
	.byte		v012
	.byte	W01
	.byte		v013
	.byte	W01
	.byte		v016
	.byte	W01
	.byte		v019
	.byte	W01
	.byte		v020
	.byte	W01
	.byte		v023
	.byte	W01
	.byte		v025
	.byte	W01
	.byte		v027
	.byte	W01
	.byte		v030
	.byte	W01
	.byte		v032
	.byte	W01
	.byte		v034
	.byte	W01
	.byte		v037
	.byte	W01
	.byte		v038
	.byte	W01
	.byte		v040
	.byte	W01
	.byte		v043
	.byte	W01
	.byte		v045
	.byte	W01
	.byte		v047
	.byte	W01
	.byte		v050
	.byte	W01
	.byte		v052
	.byte	W01
	.byte		v054
	.byte	W01
	.byte		v057
	.byte	W01
	.byte		v059
	.byte	W01
	.byte		v061
	.byte	W01
	.byte		v064
	.byte	BEND	, c_v
	.byte	W01
	.byte	VOL	, v066
	.byte	BEND	, c_v+6
	.byte	W01
	.byte	VOL	, v068
	.byte	W01
	.byte		v071
	.byte	BEND	, c_v+12
	.byte	W01
	.byte	VOL	, v073
	.byte	BEND	, c_v+18
	.byte	W01
	.byte	VOL	, v075
	.byte	W01
	.byte		v077
	.byte	BEND	, c_v+24
	.byte	W01
	.byte	VOL	, v079
	.byte	BEND	, c_v+30
	.byte	W01
	.byte	VOL	, v081
	.byte	W01
	.byte		v083
	.byte	BEND	, c_v+36
	.byte	W01
	.byte		c_v+42
	.byte	W02
	.byte		c_v+48
	.byte	W01
	.byte		c_v+54
	.byte	W01
	.byte	VOL	, v082
	.byte	W01
	.byte	BEND	, c_v+60
	.byte	W02
	.byte	VOL	, v081
	.byte	W03
	.byte		v080
	.byte	W02
	.byte		v079
	.byte	W03
	.byte		v078
	.byte	W03
	.byte		v077
	.byte	W02
	.byte		v077
	.byte	W03
	.byte		v076
	.byte	W03
	.byte		v075
	.byte	W03
	.byte		v074
	.byte	W02
	.byte		v073
	.byte	W03
	.byte		v072
	.byte	W03
	.byte		v071
	.byte	W02
	.byte		v071
	.byte	W03
	.byte		v070
	.byte	W03
	.byte		v069
	.byte	W03
	.byte		v067
	.byte	W02
	.byte		v066
	.byte	W01
	.byte		v065
	.byte	W01
	.byte		v064
	.byte	W01
	.byte		v064
	.byte	W01
	.byte		v063
	.byte	W01
	.byte		v062
	.byte	W01
	.byte		v061
	.byte	W01
	.byte		v060
	.byte	W02
	.byte		v059
	.byte	W01
	.byte		v058
	.byte	W01
	.byte		v058
	.byte	W01
	.byte		v057
	.byte	W01
	.byte		v056
	.byte	W01
	.byte		v055
	.byte	W01
	.byte		v054
	.byte	W01
	.byte		v053
	.byte	W01
	.byte		v052
	.byte	W01
	.byte		v051
	.byte	W01
	.byte		v051
	.byte	W01
	.byte		v050
	.byte	W01
	.byte		v049
	.byte	W02
	.byte		v048
	.byte	W01
	.byte		v047
	.byte	W01
	.byte		v046
	.byte	W01
	.byte		v045
	.byte	W01
	.byte		v045
	.byte	W01
	.byte		v044
	.byte	W01
	.byte		v043
	.byte	W01
	.byte		v042
	.byte	W01
	.byte		v041
	.byte	W01
	.byte		v040
	.byte	W01
	.byte		v039
	.byte	W01
	.byte		v038
	.byte	W01
	.byte		v038
	.byte	W02
	.byte		v035
	.byte	W01
	.byte		v033
	.byte	W01
	.byte		v031
	.byte	W01
	.byte		v028
	.byte	W01
	.byte		v026
	.byte	W01
	.byte		v024
	.byte	W01
	.byte		v021
	.byte	W01
	.byte		v019
	.byte	W01
	.byte		v017
	.byte	W01
	.byte		v014
	.byte	W01
	.byte		v012
	.byte	W01
	.byte		v009
	.byte	W01
	.byte		v006
	.byte	W01
	.byte		v005
	.byte	W01
	.byte		v002
	.byte	W01
	.byte		v000
	.byte	W04
	.byte		EOT	
	.byte	W96
	.byte	W96
	.byte	VOL	, v000
	.byte	BEND	, c_v
	.byte	W48
	.byte	VOL	, v000
	.byte		N84	, Gs2
	.byte	W01
	.byte	VOL	, v002
	.byte	W01
	.byte		v005
	.byte	W01
	.byte		v006
	.byte	W01
	.byte		v009
	.byte	W01
	.byte		v012
	.byte	W01
	.byte		v013
	.byte	W01
	.byte		v016
	.byte	W01
	.byte		v019
	.byte	W01
	.byte		v020
	.byte	W01
	.byte		v023
	.byte	W01
	.byte		v025
	.byte	W01
	.byte		v027
	.byte	W01
	.byte		v030
	.byte	W01
	.byte		v032
	.byte	W01
	.byte		v034
	.byte	W01
	.byte		v037
	.byte	W01
	.byte		v038
	.byte	W01
	.byte		v040
	.byte	W01
	.byte		v043
	.byte	W01
	.byte		v045
	.byte	W01
	.byte		v047
	.byte	W01
	.byte		v050
	.byte	W01
	.byte		v052
	.byte	W01
	.byte		v054
	.byte	W01
	.byte		v057
	.byte	W01
	.byte		v059
	.byte	W01
	.byte		v061
	.byte	W01
	.byte		v064
	.byte	BEND	, c_v
	.byte	W01
	.byte	VOL	, v066
	.byte	BEND	, c_v+6
	.byte	W01
	.byte	VOL	, v068
	.byte	W01
	.byte		v071
	.byte	BEND	, c_v+12
	.byte	W01
	.byte	VOL	, v073
	.byte	BEND	, c_v+18
	.byte	W01
	.byte	VOL	, v075
	.byte	W01
	.byte		v077
	.byte	BEND	, c_v+24
	.byte	W01
	.byte	VOL	, v079
	.byte	BEND	, c_v+30
	.byte	W01
	.byte	VOL	, v081
	.byte	W01
	.byte		v083
	.byte	BEND	, c_v+36
	.byte	W01
	.byte		c_v+42
	.byte	W02
	.byte		c_v+48
	.byte	W01
	.byte		c_v+54
	.byte	W01
	.byte	VOL	, v082
	.byte	W01
	.byte	BEND	, c_v+60
	.byte	W02
	.byte	VOL	, v081
	.byte	W03
	.byte		v080
	.byte	W02
	.byte		v079
	.byte	W03
	.byte		v078
	.byte	W03
	.byte		v077
	.byte	W02
	.byte		v077
	.byte	W03
	.byte		v076
	.byte	W03
	.byte		v075
	.byte	W03
	.byte		v074
	.byte	W02
	.byte		v073
	.byte	W03
	.byte		v072
	.byte	W03
	.byte		v071
	.byte	W02
	.byte		v071
	.byte	W03
	.byte		v070
	.byte	W03
	.byte		v069
	.byte	W01
	.byte		N60	, An2
	.byte	W02
	.byte	VOL	, v067
	.byte	W02
	.byte		v066
	.byte	W01
	.byte		v065
	.byte	W01
	.byte		v064
	.byte	W01
	.byte		v064
	.byte	W01
	.byte		v063
	.byte	W01
	.byte		v062
	.byte	W01
	.byte		v061
	.byte	W01
	.byte		v060
	.byte	W02
	.byte		v059
	.byte	W01
	.byte		v058
	.byte	W01
	.byte		v058
	.byte	W01
	.byte		v057
	.byte	W01
	.byte		v056
	.byte	W01
	.byte		v055
	.byte	W01
	.byte		v054
	.byte	W01
	.byte		v053
	.byte	W01
	.byte		v052
	.byte	W01
	.byte		v051
	.byte	W01
	.byte		v051
	.byte	W01
	.byte		v050
	.byte	W01
	.byte		v049
	.byte	W02
	.byte		v048
	.byte	W01
	.byte		v047
	.byte	W01
	.byte		v046
	.byte	W01
	.byte		v045
	.byte	W01
	.byte		v045
	.byte	W01
	.byte		v044
	.byte	W01
	.byte		v043
	.byte	W01
	.byte		v042
	.byte	W01
	.byte		v041
	.byte	W01
	.byte		v040
	.byte	W01
	.byte		v039
	.byte	W01
	.byte		v038
	.byte	W01
	.byte		v038
	.byte	W02
	.byte		v035
	.byte	W01
	.byte		v033
	.byte	W01
	.byte		v031
	.byte	W01
	.byte		v028
	.byte	W01
	.byte		v026
	.byte	W01
	.byte		v024
	.byte	W01
	.byte		v021
	.byte	W01
	.byte		v019
	.byte	W01
	.byte		v017
	.byte	W01
	.byte		v014
	.byte	W01
	.byte		v012
	.byte	W01
	.byte		v009
	.byte	W01
	.byte		v006
	.byte	W01
	.byte		v005
	.byte	W01
	.byte		v002
	.byte	W01
	.byte		v000
	.byte	W04
	.byte	GOTO	
		.word	song0032_7_5
	.byte	FINE

	@********************** Track  8 **********************@

	.global song0032_8
song0032_8:	@ 0x08C6EEA3
	.byte	KEYSH	, 0
	.byte	VOICE	, 12
	.byte	VOL	, v077
	.byte	BENDR	, 12
	.byte	LFOS	, 38
	.byte	MODT	, 0
	.byte	MOD	, 0
	.byte	BEND	, c_v
	.byte	W96
	.byte	W96
song0032_8_4:
	.byte	W96
	.byte	W24
	.byte		N04	, Gn2, v028
	.byte	W04
	.byte			Cn3, v032
	.byte	W04
	.byte			Dn3
	.byte	W04
	.byte			Gn2, v036
	.byte	W04
	.byte			Cn3, v040
	.byte	W04
	.byte			Dn3, v044
	.byte	W04
	.byte			Gn3, v048
	.byte	W04
	.byte			Cn4, v052
	.byte	W04
	.byte			Dn4, v056
	.byte	W04
	.byte			Gn3, v060
	.byte	W04
	.byte			Cn4, v064
	.byte	W04
	.byte			Dn4, v068
	.byte	W04
	.byte			Gn4
	.byte	W04
	.byte			Cn5, v072
	.byte	W04
	.byte			Dn5, v076
	.byte	W04
	.byte			Gn4, v080
	.byte	W04
	.byte			Cn5, v084
	.byte	W04
	.byte			Dn5, v088
	.byte	W04
	.byte			Gn5, v092
	.byte	W04
	.byte			Cn5, v096
	.byte	W04
	.byte			Dn5, v100
	.byte	W04
	.byte			Gn5, v092
	.byte	W04
	.byte			Cn6
	.byte	W04
	.byte			Dn6, v088
	.byte	W04
	.byte			Cn6
	.byte	W04
	.byte			Gn5, v084
	.byte	W04
	.byte			Dn5
	.byte	W04
	.byte			Cn5
	.byte	W04
	.byte			Dn5, v080
	.byte	W04
	.byte			Cn5
	.byte	W04
	.byte			Gn4, v076
	.byte	W04
	.byte			Dn4
	.byte	W04
	.byte			Gn4, v072
	.byte	W04
	.byte			Cn5
	.byte	W04
	.byte			Gn4, v068
	.byte	W04
	.byte			Dn4
	.byte	W04
	.byte			Cn4, v064
	.byte	W04
	.byte			Dn4
	.byte	W04
	.byte			Gn4
	.byte	W04
	.byte			Dn4, v060
	.byte	W04
	.byte			Cn4
	.byte	W04
	.byte			Gn3, v056
	.byte	W04
	.byte			Cn4
	.byte	W04
	.byte			Dn4, v052
	.byte	W04
	.byte			Cn4
	.byte	W04
	.byte			Gn3, v048
	.byte	W04
	.byte			Dn3
	.byte	W04
	.byte			Gn2, v044
	.byte	W76
	.byte	W96
	.byte	W96
	.byte	W96
	.byte	W96
	.byte	W96
	.byte	W96
	.byte	W72
	.byte			Gn2, v028
	.byte	W04
	.byte			Cn3, v032
	.byte	W04
	.byte			Dn3
	.byte	W04
	.byte			Gn2, v036
	.byte	W04
	.byte			Cn3, v040
	.byte	W04
	.byte			Dn3, v044
	.byte	W04
song0032_8_3:
	.byte		N04	, Gn3, v048
	.byte	W04
	.byte			Cn4, v052
	.byte	W04
	.byte			Dn4, v056
	.byte	W04
	.byte			Gn3, v060
	.byte	W04
	.byte			Cn4, v064
	.byte	W04
	.byte			Dn4, v068
	.byte	W04
	.byte			Gn4
	.byte	W04
	.byte			Cn5, v072
	.byte	W04
	.byte			Dn5, v076
	.byte	W04
	.byte			Gn4, v080
	.byte	W04
	.byte			Cn5, v084
	.byte	W04
	.byte			Dn5, v088
	.byte	W04
	.byte			Gn5, v092
	.byte	W04
	.byte			Cn5, v096
	.byte	W04
	.byte			Dn5, v100
	.byte	W04
	.byte			Gn5, v092
	.byte	W04
	.byte			Cn6
	.byte	W04
	.byte			Dn6, v088
	.byte	W04
	.byte			Cn6
	.byte	W04
	.byte			Gn5, v084
	.byte	W04
	.byte			Dn5
	.byte	W04
	.byte			Cn5
	.byte	W04
	.byte			Dn5, v080
	.byte	W04
	.byte			Cn5
	.byte	W04
	.byte	PEND
	.byte			Gn4, v076
	.byte	W04
	.byte			Dn4
	.byte	W04
	.byte			Gn4, v072
	.byte	W04
	.byte			Cn5
	.byte	W04
	.byte			Gn4, v068
	.byte	W04
	.byte			Dn4
	.byte	W04
	.byte			Cn4, v064
	.byte	W04
	.byte			Dn4
	.byte	W04
	.byte			Gn4
	.byte	W04
	.byte			Dn4, v060
	.byte	W04
	.byte			Cn4
	.byte	W04
	.byte			Gn3, v056
	.byte	W04
	.byte			Cn4
	.byte	W04
	.byte			Dn4, v052
	.byte	W04
	.byte			Cn4
	.byte	W04
	.byte			Gn3, v048
	.byte	W04
	.byte			Dn3
	.byte	W04
	.byte			Gn2, v044
	.byte	W04
	.byte	MOD	, 8
	.byte	VOL	, v025
	.byte	BEND	, c_v
	.byte		TIE	, Gn3, v096
	.byte	W01
	.byte	VOL	, v028
	.byte	W01
	.byte		v030
	.byte	W01
	.byte		v032
	.byte	W01
	.byte		v034
	.byte	W01
	.byte		v037
	.byte	W01
	.byte		v038
	.byte	W01
	.byte		v041
	.byte	W01
	.byte		v043
	.byte	BEND	, c_v
	.byte	W01
	.byte	VOL	, v045
	.byte	W01
	.byte		v046
	.byte	W01
	.byte		v049
	.byte	W01
	.byte		v051
	.byte	BEND	, c_v
	.byte	W01
	.byte	VOL	, v053
	.byte	BEND	, c_v+3
	.byte	W01
	.byte	VOL	, v055
	.byte	BEND	, c_v+11
	.byte	W01
	.byte	VOL	, v058
	.byte	BEND	, c_v+15
	.byte	W01
	.byte	VOL	, v059
	.byte	BEND	, c_v+19
	.byte	W01
	.byte	VOL	, v061
	.byte	BEND	, c_v+26
	.byte	W01
	.byte	VOL	, v063
	.byte	BEND	, c_v+30
	.byte	W01
	.byte	VOL	, v065
	.byte	BEND	, c_v+34
	.byte	W01
	.byte	VOL	, v067
	.byte	BEND	, c_v+41
	.byte	W01
	.byte	VOL	, v070
	.byte	BEND	, c_v+45
	.byte	W01
	.byte	VOL	, v071
	.byte	BEND	, c_v+49
	.byte	W01
	.byte	VOL	, v074
	.byte	BEND	, c_v+57
	.byte	W01
song0032_8_2:
	.byte	VOL	, v076
	.byte	BEND	, c_v+60
	.byte	W01
	.byte	VOL	, v077
	.byte	W01
	.byte		v074
	.byte	W01
	.byte		v071
	.byte	W01
	.byte		v067
	.byte	W01
	.byte		v065
	.byte	W01
	.byte		v062
	.byte	W01
	.byte		v058
	.byte	W01
	.byte		v056
	.byte	W01
	.byte		v052
	.byte	W01
	.byte		v049
	.byte	W01
	.byte		v046
	.byte	W01
	.byte		v043
	.byte	W01
	.byte		v039
	.byte	W01
	.byte		v038
	.byte	W01
	.byte		v034
	.byte	W01
	.byte		v031
	.byte	W01
	.byte		v028
	.byte	W01
	.byte		v025
	.byte	W01
	.byte		v026
	.byte	W01
	.byte		v027
	.byte	W01
	.byte		v028
	.byte	W01
	.byte		v029
	.byte	W01
	.byte		v031
	.byte	W01
	.byte		v032
	.byte	W01
	.byte		v032
	.byte	W01
	.byte		v033
	.byte	W01
	.byte		v035
	.byte	W01
	.byte		v036
	.byte	W01
	.byte		v037
	.byte	W01
	.byte		v038
	.byte	W01
	.byte		v039
	.byte	W01
	.byte		v040
	.byte	W01
	.byte		v041
	.byte	W01
	.byte		v042
	.byte	W01
	.byte		v044
	.byte	W01
	.byte		v045
	.byte	W01
	.byte		v045
	.byte	W01
	.byte		v046
	.byte	W01
	.byte		v048
	.byte	W01
	.byte		v049
	.byte	W01
	.byte		v050
	.byte	W01
	.byte		v051
	.byte	W01
	.byte		v052
	.byte	W01
	.byte		v053
	.byte	W01
	.byte		v054
	.byte	W01
	.byte		v055
	.byte	W01
	.byte		v057
	.byte	W01
	.byte		v058
	.byte	W01
	.byte		v058
	.byte	W01
	.byte		v059
	.byte	W01
	.byte		v061
	.byte	W01
	.byte		v062
	.byte	W01
	.byte		v063
	.byte	W01
	.byte		v064
	.byte	W01
	.byte		v065
	.byte	W01
	.byte		v066
	.byte	W01
	.byte		v067
	.byte	W01
	.byte		v068
	.byte	W01
	.byte		v070
	.byte	W01
	.byte		v071
	.byte	W01
	.byte		v071
	.byte	W01
	.byte		v072
	.byte	W01
	.byte		v074
	.byte	W01
	.byte		v075
	.byte	W01
	.byte		v076
	.byte	W01
	.byte		v077
	.byte	W01
	.byte		v077
	.byte	W15
	.byte	BEND	, c_v+60
	.byte	W01
	.byte		c_v+54
	.byte	W01
	.byte		c_v+50
	.byte	W01
	.byte		c_v+47
	.byte	W01
	.byte		c_v+40
	.byte	W01
	.byte		c_v+36
	.byte	W01
	.byte		c_v+33
	.byte	W01
	.byte		c_v+26
	.byte	W01
	.byte		c_v+22
	.byte	W01
	.byte		c_v+19
	.byte	W01
	.byte		c_v+12
	.byte	W01
	.byte		c_v+9
	.byte	W01
	.byte		c_v+5
	.byte	W01
	.byte		c_v
	.byte	W01
	.byte	PEND
song0032_8_1:
	.byte	W18
	.byte	VOL	, v077
	.byte	W01
	.byte		v077
	.byte	W01
	.byte		v075
	.byte	W01
	.byte		v074
	.byte	W01
	.byte		v072
	.byte	W01
	.byte		v071
	.byte	W01
	.byte		v069
	.byte	W01
	.byte		v067
	.byte	W01
	.byte		v065
	.byte	W01
	.byte		v064
	.byte	W01
	.byte		v063
	.byte	W01
	.byte		v061
	.byte	W01
	.byte		v059
	.byte	W01
	.byte		v058
	.byte	W01
	.byte		v057
	.byte	W01
	.byte		v055
	.byte	W01
	.byte		v053
	.byte	W01
	.byte		v051
	.byte	W01
	.byte		v050
	.byte	W01
	.byte		v048
	.byte	W01
	.byte		v047
	.byte	W01
	.byte		v046
	.byte	W01
	.byte		v045
	.byte	W01
	.byte		v043
	.byte	W01
	.byte		v041
	.byte	W01
	.byte		v040
	.byte	W01
	.byte		v038
	.byte	W01
	.byte		v037
	.byte	W01
	.byte		v035
	.byte	W01
	.byte		v033
	.byte	W01
	.byte		v032
	.byte	W01
	.byte		v031
	.byte	W01
	.byte		v029
	.byte	W01
	.byte		v027
	.byte	W01
	.byte		v025
	.byte	W01
	.byte		v024
	.byte	W01
	.byte		v023
	.byte	W01
	.byte		v021
	.byte	W01
	.byte		v019
	.byte	W01
	.byte		v018
	.byte	W01
	.byte		v017
	.byte	W01
	.byte		v015
	.byte	W01
	.byte		v014
	.byte	W01
	.byte		v012
	.byte	W01
	.byte		v011
	.byte	W01
	.byte		v009
	.byte	W01
	.byte		v007
	.byte	W01
	.byte		v006
	.byte	W01
	.byte		v005
	.byte	W01
	.byte		v003
	.byte	W01
	.byte		v001
	.byte	W01
	.byte		v000
	.byte	W03
	.byte	PEND
	.byte		EOT	, Gn3
	.byte	VOICE	, 13
	.byte	VOL	, v025
	.byte	BEND	, c_v
	.byte		TIE	, Gn3, v096
	.byte	W01
	.byte	VOL	, v028
	.byte	W01
	.byte		v030
	.byte	W01
	.byte		v032
	.byte	W01
	.byte		v034
	.byte	W01
	.byte		v037
	.byte	W01
	.byte		v038
	.byte	W01
	.byte		v041
	.byte	W01
	.byte		v043
	.byte	BEND	, c_v
	.byte	W01
	.byte	VOL	, v045
	.byte	W01
	.byte		v046
	.byte	W01
	.byte		v049
	.byte	W01
	.byte		v051
	.byte	BEND	, c_v
	.byte	W01
	.byte	VOL	, v053
	.byte	BEND	, c_v+3
	.byte	W01
	.byte	VOL	, v055
	.byte	BEND	, c_v+11
	.byte	W01
	.byte	VOL	, v058
	.byte	BEND	, c_v+15
	.byte	W01
	.byte	VOL	, v059
	.byte	BEND	, c_v+19
	.byte	W01
	.byte	VOL	, v061
	.byte	BEND	, c_v+26
	.byte	W01
	.byte	VOL	, v063
	.byte	BEND	, c_v+30
	.byte	W01
	.byte	VOL	, v065
	.byte	BEND	, c_v+34
	.byte	W01
	.byte	VOL	, v067
	.byte	BEND	, c_v+41
	.byte	W01
	.byte	VOL	, v070
	.byte	BEND	, c_v+45
	.byte	W01
	.byte	VOL	, v071
	.byte	BEND	, c_v+49
	.byte	W01
	.byte	VOL	, v074
	.byte	BEND	, c_v+57
	.byte	W01
	.byte	VOL	, v076
	.byte	BEND	, c_v+60
	.byte	W01
	.byte	VOL	, v077
	.byte	W01
	.byte		v074
	.byte	W01
	.byte		v071
	.byte	W01
	.byte		v067
	.byte	W01
	.byte		v065
	.byte	W01
	.byte		v062
	.byte	W01
	.byte		v058
	.byte	W01
	.byte		v056
	.byte	W01
	.byte		v052
	.byte	W01
	.byte		v049
	.byte	W01
	.byte		v046
	.byte	W01
	.byte		v043
	.byte	W01
	.byte		v039
	.byte	W01
	.byte		v038
	.byte	W01
	.byte		v034
	.byte	W01
	.byte		v031
	.byte	W01
	.byte		v028
	.byte	W01
	.byte		v025
	.byte	W01
	.byte		v026
	.byte	W01
	.byte		v027
	.byte	W01
	.byte		v028
	.byte	W01
	.byte		v029
	.byte	W01
	.byte		v031
	.byte	W01
	.byte		v032
	.byte	W01
	.byte		v032
	.byte	W01
	.byte		v033
	.byte	W01
	.byte		v035
	.byte	W01
	.byte		v036
	.byte	W01
	.byte		v037
	.byte	W01
	.byte		v038
	.byte	W01
	.byte		v039
	.byte	W01
	.byte		v040
	.byte	W01
	.byte		v041
	.byte	W01
	.byte		v042
	.byte	W01
	.byte		v044
	.byte	W01
	.byte		v045
	.byte	W01
	.byte		v045
	.byte	W01
	.byte		v046
	.byte	W01
	.byte		v048
	.byte	W01
	.byte		v049
	.byte	W01
	.byte		v050
	.byte	W01
	.byte		v051
	.byte	W01
	.byte		v052
	.byte	W01
	.byte		v053
	.byte	W01
	.byte		v054
	.byte	W01
	.byte		v055
	.byte	W01
	.byte		v057
	.byte	W01
	.byte		v058
	.byte	W01
	.byte		v058
	.byte	W01
	.byte		v059
	.byte	W01
	.byte		v061
	.byte	W01
	.byte		v062
	.byte	W01
	.byte		v063
	.byte	W01
	.byte		v064
	.byte	W01
	.byte		v065
	.byte	W01
	.byte		v066
	.byte	W01
	.byte		v067
	.byte	W01
	.byte		v068
	.byte	W01
	.byte		v070
	.byte	W01
	.byte		v071
	.byte	W01
	.byte		v071
	.byte	W01
	.byte		v072
	.byte	W01
	.byte		v074
	.byte	W01
	.byte		v075
	.byte	W01
	.byte		v076
	.byte	W01
	.byte		v077
	.byte	W01
	.byte		v077
	.byte	W15
	.byte	BEND	, c_v+60
	.byte	W01
	.byte		c_v+54
	.byte	W01
	.byte		c_v+51
	.byte	W01
	.byte		c_v+48
	.byte	W01
	.byte		c_v+41
	.byte	W01
	.byte		c_v+38
	.byte	W01
	.byte		c_v+35
	.byte	W01
	.byte		c_v+29
	.byte	W01
	.byte		c_v+26
	.byte	W01
	.byte		c_v+22
	.byte	W01
	.byte		c_v+16
	.byte	W01
	.byte		c_v+13
	.byte	W01
	.byte		c_v+10
	.byte	W01
	.byte		c_v+5
	.byte	W01
	.byte	PATT	
		.word	song0032_8_1
	.byte		EOT	, Gn3
	.byte	VOICE	, 12
	.byte	VOL	, v025
	.byte	BEND	, c_v
	.byte		TIE	, Gn3, v096
	.byte	W01
	.byte	VOL	, v028
	.byte	W01
	.byte		v030
	.byte	W01
	.byte		v032
	.byte	W01
	.byte		v034
	.byte	W01
	.byte		v037
	.byte	W01
	.byte		v038
	.byte	W01
	.byte		v041
	.byte	W01
	.byte		v043
	.byte	BEND	, c_v
	.byte	W01
	.byte	VOL	, v045
	.byte	W01
	.byte		v046
	.byte	W01
	.byte		v049
	.byte	W01
	.byte		v051
	.byte	BEND	, c_v
	.byte	W01
	.byte	VOL	, v053
	.byte	BEND	, c_v+3
	.byte	W01
	.byte	VOL	, v055
	.byte	BEND	, c_v+11
	.byte	W01
	.byte	VOL	, v058
	.byte	BEND	, c_v+15
	.byte	W01
	.byte	VOL	, v059
	.byte	BEND	, c_v+19
	.byte	W01
	.byte	VOL	, v061
	.byte	BEND	, c_v+26
	.byte	W01
	.byte	VOL	, v063
	.byte	BEND	, c_v+30
	.byte	W01
	.byte	VOL	, v065
	.byte	BEND	, c_v+34
	.byte	W01
	.byte	VOL	, v067
	.byte	BEND	, c_v+41
	.byte	W01
	.byte	VOL	, v070
	.byte	BEND	, c_v+45
	.byte	W01
	.byte	VOL	, v071
	.byte	BEND	, c_v+49
	.byte	W01
	.byte	VOL	, v074
	.byte	BEND	, c_v+57
	.byte	W01
	.byte	PATT	
		.word	song0032_8_2
	.byte	PATT	
		.word	song0032_8_1
	.byte		EOT	, Gn3
	.byte	VOL	, v077
	.byte	MOD	, 0
	.byte	BEND	, c_v
	.byte		N04	, Gn2, v028
	.byte	W04
	.byte			Cn3, v032
	.byte	W04
	.byte			Dn3
	.byte	W04
	.byte			Gn2, v036
	.byte	W04
	.byte			Cn3, v040
	.byte	W04
	.byte			Dn3, v044
	.byte	W04
	.byte	PATT	
		.word	song0032_8_3
	.byte		N04	, Gn4, v076
	.byte	W04
	.byte			Dn4
	.byte	W04
	.byte			Gn4, v072
	.byte	W04
	.byte			Cn5
	.byte	W04
	.byte			Gn4, v068
	.byte	W04
	.byte			Dn4
	.byte	W04
	.byte			Cn4, v064
	.byte	W04
	.byte			Dn4
	.byte	W04
	.byte			Gn4
	.byte	W04
	.byte			Dn4, v060
	.byte	W04
	.byte			Cn4
	.byte	W04
	.byte			Gn3, v056
	.byte	W04
	.byte			Cn4
	.byte	W04
	.byte			Dn4, v052
	.byte	W04
	.byte			Cn4
	.byte	W04
	.byte			Gn3, v048
	.byte	W04
	.byte			Dn3
	.byte	W04
	.byte			Gn2, v044
	.byte	W28
	.byte	W96
	.byte	W96
	.byte	W96
	.byte	W96
	.byte	W96
	.byte	W96
	.byte	W96
	.byte	VOICE	, 13
	.byte	W24
	.byte		N04	, Gn1, v032
	.byte	W04
	.byte			Cs2, v036
	.byte	W04
	.byte			Ds2
	.byte	W04
	.byte			Gn2, v040
	.byte	W04
	.byte			Cs2
	.byte	W04
	.byte			Ds2, v044
	.byte	W04
	.byte			Gn2
	.byte	W04
	.byte			Cs3, v048
	.byte	W04
	.byte			Gn2
	.byte	W04
	.byte			Cs3, v052
	.byte	W04
	.byte			Ds3
	.byte	W04
	.byte			Gn3, v056
	.byte	W04
	.byte			Cs3
	.byte	W04
	.byte			Ds3, v060
	.byte	W04
	.byte			Gn3
	.byte	W04
	.byte			Cs4, v064
	.byte	W04
	.byte			Gn3
	.byte	W04
	.byte			Cs4
	.byte	W04
	.byte			Ds4, v068
	.byte	W04
	.byte			Gn4
	.byte	W04
	.byte			Cs4, v072
	.byte	W04
	.byte			Ds4
	.byte	W04
	.byte			Gn4, v076
	.byte	W04
	.byte			Cs5
	.byte	W04
	.byte			Gn4, v072
	.byte	W04
	.byte			Cs5
	.byte	W04
	.byte			Ds5, v068
	.byte	W04
	.byte			Gn5, v064
	.byte	W04
	.byte			Cs5, v060
	.byte	W04
	.byte			Ds5
	.byte	W04
	.byte			Gn5, v056
	.byte	W04
	.byte			Cs6, v052
	.byte	W08
	.byte			Gn5, v048
	.byte	W04
	.byte			Cs6, v044
	.byte	W04
	.byte			Ds6, v040
	.byte	W04
	.byte			Gn6
	.byte	W04
	.byte			Cs6, v036
	.byte	W04
	.byte			Ds6, v032
	.byte	W04
	.byte			Gn6
	.byte	W04
	.byte			Cs7, v028
	.byte	W08
	.byte	VOICE	, 12
	.byte	W24
	.byte		N04	, Gn6, v024
	.byte	W04
	.byte			Ds6
	.byte	W04
	.byte			Cs6, v028
	.byte	W04
	.byte			Gn5
	.byte	W04
	.byte			Ds6, v032
	.byte	W04
	.byte			Cs6
	.byte	W04
	.byte			Gn5, v036
	.byte	W04
	.byte			Ds5
	.byte	W04
	.byte			Gn5, v040
	.byte	W04
	.byte			Ds5
	.byte	W04
	.byte			Cs5, v044
	.byte	W04
	.byte			Gn4
	.byte	W04
	.byte			Ds5, v048
	.byte	W04
	.byte			Cs5
	.byte	W04
	.byte			Gn4, v052
	.byte	W04
	.byte			Ds4
	.byte	W04
	.byte			Gn4, v056
	.byte	W04
	.byte			Ds4
	.byte	W04
	.byte			Cs4, v060
	.byte	W04
	.byte			Gn3
	.byte	W04
	.byte			Ds4, v064
	.byte	W04
	.byte			Cs4
	.byte	W04
	.byte			Gn3, v068
	.byte	W04
	.byte			Ds3
	.byte	W04
	.byte			Gn3, v064
	.byte	W04
	.byte			Ds3, v060
	.byte	W04
	.byte			Cs3, v056
	.byte	W04
	.byte			Gn2, v052
	.byte	W04
	.byte			Ds3, v048
	.byte	W04
	.byte			Cs3
	.byte	W04
	.byte			Gn2, v044
	.byte	W04
	.byte			Ds2, v040
	.byte	W04
	.byte			Gn2, v036
	.byte	W04
	.byte			Ds2, v032
	.byte	W04
	.byte			Cs2, v028
	.byte	W04
	.byte			Gn1
	.byte	W04
	.byte			Ds2, v024
	.byte	W04
	.byte			Cs2, v020
	.byte	W04
	.byte			Gn1, v016
	.byte	W04
	.byte			Ds1, v012
	.byte	W12
	.byte	VOICE	, 13
	.byte	W24
	.byte		N04	, Gs1, v032
	.byte	W04
	.byte			Dn2, v036
	.byte	W04
	.byte			En2
	.byte	W04
	.byte			Gs2, v040
	.byte	W04
	.byte			Dn2
	.byte	W04
	.byte			En2, v044
	.byte	W04
	.byte			Gs2
	.byte	W04
	.byte			Dn3, v048
	.byte	W04
	.byte			Gs2
	.byte	W04
	.byte			Dn3, v052
	.byte	W04
	.byte			En3
	.byte	W04
	.byte			Gs3, v056
	.byte	W04
	.byte			Dn3
	.byte	W04
	.byte			En3, v060
	.byte	W04
	.byte			Gs3
	.byte	W04
	.byte			Dn4, v064
	.byte	W04
	.byte			Gs3
	.byte	W04
	.byte			Dn4
	.byte	W04
	.byte			En4, v068
	.byte	W04
	.byte			Gs4
	.byte	W04
	.byte			Dn4, v072
	.byte	W04
	.byte			En4
	.byte	W04
	.byte			Gs4, v076
	.byte	W04
	.byte			Dn5
	.byte	W04
	.byte			Gs4, v072
	.byte	W04
	.byte			Dn5
	.byte	W04
	.byte			En5, v068
	.byte	W04
	.byte			Gs5, v064
	.byte	W04
	.byte			Dn5, v060
	.byte	W04
	.byte			En5
	.byte	W04
	.byte			Gs5, v056
	.byte	W04
	.byte			Dn6, v052
	.byte	W08
	.byte			Gs5, v048
	.byte	W04
	.byte			Dn6, v044
	.byte	W04
	.byte			En6, v040
	.byte	W04
	.byte			Gs6
	.byte	W04
	.byte			Dn6, v036
	.byte	W04
	.byte			En6, v032
	.byte	W04
	.byte			Gs6
	.byte	W04
	.byte			Dn7, v028
	.byte	W08
	.byte	VOICE	, 12
	.byte	W24
	.byte		N04	, Gs6, v024
	.byte	W04
	.byte			En6
	.byte	W04
	.byte			Dn6, v028
	.byte	W04
	.byte			Gs5
	.byte	W04
	.byte			En6, v032
	.byte	W04
	.byte			Dn6
	.byte	W04
	.byte			Gs5, v036
	.byte	W04
	.byte			En5
	.byte	W04
	.byte			Gs5, v040
	.byte	W04
	.byte			En5
	.byte	W04
	.byte			Dn5, v044
	.byte	W04
	.byte			Gs4
	.byte	W04
	.byte			En5, v048
	.byte	W04
	.byte			Dn5
	.byte	W04
	.byte			Gs4, v052
	.byte	W04
	.byte			En4
	.byte	W04
	.byte			Gs4, v056
	.byte	W04
	.byte			En4
	.byte	W04
	.byte			Dn4, v060
	.byte	W04
	.byte			Gs3
	.byte	W04
	.byte			En4, v064
	.byte	W04
	.byte			Dn4
	.byte	W04
	.byte			Gs3, v068
	.byte	W04
	.byte			En3
	.byte	W04
	.byte			Gs3, v064
	.byte	W04
	.byte			En3, v060
	.byte	W04
	.byte			Dn3, v056
	.byte	W04
	.byte			Gs2, v052
	.byte	W04
	.byte			En3, v048
	.byte	W04
	.byte			Dn3
	.byte	W04
	.byte			Gs2, v044
	.byte	W04
	.byte			En2, v040
	.byte	W04
	.byte			Gs2, v036
	.byte	W04
	.byte			En2, v032
	.byte	W04
	.byte			Dn2, v028
	.byte	W04
	.byte			Gs1
	.byte	W04
	.byte			En2, v024
	.byte	W04
	.byte			Dn2, v020
	.byte	W04
	.byte			Gs1, v016
	.byte	W04
	.byte			En1, v012
	.byte	W12
	.byte	GOTO	
		.word	song0032_8_4
	.byte	FINE

	.align 2
	.global song0032
song0032:	@ 0x08C6F4C0
	.byte	8		@ trackCount
	.byte	0		@ blockCount
	.byte	0		@ priority
	.byte	128		@ reverb

	.word	voicegroup014		@ voicegroup/tone

	.word	song0032_1		@ track
	.word	song0032_2		@ track
	.word	song0032_3		@ track
	.word	song0032_4		@ track
	.word	song0032_5		@ track
	.word	song0032_6		@ track
	.word	song0032_7		@ track
	.word	song0032_8		@ track
