	.include "MPlayDef.s"

	.section .rodata

	@********************** Track  1 **********************@

	.align 2
	.global song0027_1
song0027_1:	@ 0x08C6BA60
	.byte	KEYSH	, 0
	.byte	TEMPO	, 77
	.byte	VOICE	, 127
	.byte	VOL	, v110
	.byte		N06	, Dn1, v044
	.byte		N24	, Ds2, v127
	.byte	W06
	.byte		N06	, Dn1, v044
	.byte	W06
	.byte		N12	, Ds1
	.byte	W12
	.byte		N06	, Dn1
	.byte		N24	, Ds2, v127
	.byte	W06
	.byte		N06	, Dn1, v044
	.byte	W06
	.byte		N12	, Ds1
	.byte	W12
	.byte		N06	, Dn1
	.byte		N24	, Ds2, v127
	.byte	W06
	.byte		N06	, Dn1, v044
	.byte	W06
	.byte		N12	, Ds1
	.byte	W12
	.byte		N06	, Dn1
	.byte		N24	, Ds2, v127
	.byte	W06
	.byte		N06	, Dn1, v044
	.byte	W06
	.byte		N12	, Ds1
	.byte	W12
song0027_1_1:
	.byte		N06	, Dn1, v044
	.byte		N24	, Ds2, v127
	.byte	W06
	.byte		N06	, Dn1, v044
	.byte	W06
	.byte		N12	, Ds1
	.byte	W12
	.byte		N06	, Dn1
	.byte		N24	, Ds2, v127
	.byte	W06
	.byte		N06	, Dn1, v044
	.byte	W06
	.byte		N12	, Ds1
	.byte	W12
	.byte		N06	, Dn1
	.byte		N24	, Ds2, v127
	.byte	W06
	.byte		N06	, Dn1, v044
	.byte	W06
	.byte		N12	, Ds1
	.byte	W12
	.byte		N06	, Dn1
	.byte		N24	, Ds2, v127
	.byte	W06
	.byte		N06	, Dn1, v044
	.byte	W06
	.byte		N12	, Ds1
	.byte	W12
	.byte	PEND
	.byte	PATT	
		.word	song0027_1_1
	.byte	PATT	
		.word	song0027_1_1
	.byte	PATT	
		.word	song0027_1_1
	.byte	PATT	
		.word	song0027_1_1
	.byte	PATT	
		.word	song0027_1_1
	.byte	PATT	
		.word	song0027_1_1
	.byte	PATT	
		.word	song0027_1_1
	.byte	PATT	
		.word	song0027_1_1
	.byte	PATT	
		.word	song0027_1_1
	.byte	PATT	
		.word	song0027_1_1
	.byte	PATT	
		.word	song0027_1_1
	.byte	PATT	
		.word	song0027_1_1
	.byte	PATT	
		.word	song0027_1_1
	.byte	PATT	
		.word	song0027_1_1
	.byte	PATT	
		.word	song0027_1_1
	.byte	PATT	
		.word	song0027_1_1
	.byte	PATT	
		.word	song0027_1_1
	.byte	PATT	
		.word	song0027_1_1
	.byte	PATT	
		.word	song0027_1_1
	.byte	PATT	
		.word	song0027_1_1
	.byte	PATT	
		.word	song0027_1_1
	.byte	PATT	
		.word	song0027_1_1
	.byte	PATT	
		.word	song0027_1_1
	.byte	PATT	
		.word	song0027_1_1
	.byte	PATT	
		.word	song0027_1_1
	.byte	PATT	
		.word	song0027_1_1
	.byte	PATT	
		.word	song0027_1_1
	.byte	PATT	
		.word	song0027_1_1
	.byte	PATT	
		.word	song0027_1_1
	.byte	PATT	
		.word	song0027_1_1
	.byte	PATT	
		.word	song0027_1_1
	.byte	PATT	
		.word	song0027_1_1
	.byte	PATT	
		.word	song0027_1_1
	.byte	PATT	
		.word	song0027_1_1
	.byte	PATT	
		.word	song0027_1_1
	.byte	PATT	
		.word	song0027_1_1
	.byte	PATT	
		.word	song0027_1_1
	.byte	PATT	
		.word	song0027_1_1
	.byte	PATT	
		.word	song0027_1_1
	.byte	PATT	
		.word	song0027_1_1
	.byte	PATT	
		.word	song0027_1_1
	.byte	PATT	
		.word	song0027_1_1
	.byte	PATT	
		.word	song0027_1_1
	.byte	PATT	
		.word	song0027_1_1
	.byte	W96
	.byte	GOTO	
		.word	song0027_1_1
	.byte	FINE

	@********************** Track  2 **********************@

	.global song0027_2
song0027_2:	@ 0x08C6BBB6
	.byte	KEYSH	, 0
	.byte	VOICE	, 1
	.byte	VOL	, v110
	.byte	W96
song0027_2_5:
	.byte	W96
	.byte	W96
	.byte	W96
	.byte	W96
song0027_2_1:
	.byte		N03	, Gs2, v020
	.byte	W03
	.byte			Cs3
	.byte	W03
	.byte			Ds3, v024
	.byte	W03
	.byte			Gs3
	.byte	W03
	.byte			Cs3
	.byte	W03
	.byte			Ds3, v028
	.byte	W03
	.byte			Gs3
	.byte	W03
	.byte			Cs4, v032
	.byte	W03
	.byte			Ds3
	.byte	W03
	.byte			Gs3
	.byte	W03
	.byte			Cs4, v036
	.byte	W03
	.byte			Ds4
	.byte	W03
	.byte			Gs3, v040
	.byte	W03
	.byte			Cs4
	.byte	W03
	.byte			Ds4
	.byte	W03
	.byte			Gs4, v044
	.byte	W03
	.byte			Cs4
	.byte	W03
	.byte			Ds4, v048
	.byte	W03
	.byte			Gs4
	.byte	W03
	.byte			Cs5
	.byte	W03
	.byte			Ds4, v052
	.byte	W03
	.byte			Gs4
	.byte	W03
	.byte			Cs5, v056
	.byte	W03
	.byte			Ds5
	.byte	W03
	.byte			Gs4
	.byte	W03
	.byte			Cs5, v060
	.byte	W03
	.byte			Ds5
	.byte	W03
	.byte			Gs5, v064
	.byte	W03
	.byte			Ds5
	.byte	W03
	.byte			Cs5
	.byte	W03
	.byte			Gs4, v060
	.byte	W03
	.byte			Ds5
	.byte	W03
	.byte	PEND
song0027_2_2:
	.byte		N03	, Cs5, v060
	.byte	W03
	.byte			Gs4, v056
	.byte	W03
	.byte			Ds4
	.byte	W03
	.byte			Cs5
	.byte	W03
	.byte			Gs4, v052
	.byte	W03
	.byte			Ds4
	.byte	W03
	.byte			Cs4
	.byte	W03
	.byte			Gs4, v048
	.byte	W03
	.byte			Ds4
	.byte	W03
	.byte			Cs4
	.byte	W03
	.byte			Gs3, v044
	.byte	W03
	.byte			Ds4
	.byte	W03
	.byte			Cs4, v040
	.byte	W03
	.byte			Gs3
	.byte	W03
	.byte			Ds3
	.byte	W03
	.byte			Cs4, v036
	.byte	W03
	.byte			Gs3
	.byte	W03
	.byte			Ds3
	.byte	W03
	.byte			Cs3, v032
	.byte	W03
	.byte			Gs3
	.byte	W03
	.byte			Ds3
	.byte	W03
	.byte			Cs3, v028
	.byte	W03
	.byte			Gs2
	.byte	W30
	.byte	PEND
	.byte	W96
	.byte	W96
	.byte	W96
	.byte	W96
	.byte	W96
	.byte	W96
	.byte	W96
	.byte	W96
	.byte	PATT	
		.word	song0027_2_1
	.byte	PATT	
		.word	song0027_2_2
	.byte	W96
	.byte	W96
	.byte	W96
	.byte	W96
	.byte	W96
	.byte	W96
	.byte	W96
	.byte	W96
song0027_2_3:
	.byte		N03	, As2, v020
	.byte	W03
	.byte			Ds3
	.byte	W03
	.byte			Fn3, v024
	.byte	W03
	.byte			As3
	.byte	W03
	.byte			Ds3
	.byte	W03
	.byte			Fn3, v028
	.byte	W03
	.byte			As3
	.byte	W03
	.byte			Ds4, v032
	.byte	W03
	.byte			Fn3
	.byte	W03
	.byte			As3
	.byte	W03
	.byte			Ds4, v036
	.byte	W03
	.byte			Fn4
	.byte	W03
	.byte			As3, v040
	.byte	W03
	.byte			Ds4
	.byte	W03
	.byte			Fn4
	.byte	W03
	.byte			As4, v044
	.byte	W03
	.byte			Ds4
	.byte	W03
	.byte			Fn4, v048
	.byte	W03
	.byte			As4
	.byte	W03
	.byte			Ds5
	.byte	W03
	.byte			Fn4, v052
	.byte	W03
	.byte			As4
	.byte	W03
	.byte			Ds5, v056
	.byte	W03
	.byte			Fn5
	.byte	W03
	.byte			As4
	.byte	W03
	.byte			Ds5, v060
	.byte	W03
	.byte			Fn5
	.byte	W03
	.byte			As5, v064
	.byte	W03
	.byte			Fn5
	.byte	W03
	.byte			Ds5
	.byte	W03
	.byte			As4, v060
	.byte	W03
	.byte			Fn5
	.byte	W03
	.byte	PEND
song0027_2_4:
	.byte		N03	, Ds5, v060
	.byte	W03
	.byte			As4, v056
	.byte	W03
	.byte			Fn4
	.byte	W03
	.byte			Ds5
	.byte	W03
	.byte			As4, v052
	.byte	W03
	.byte			Fn4
	.byte	W03
	.byte			Ds4
	.byte	W03
	.byte			As4, v048
	.byte	W03
	.byte			Fn4
	.byte	W03
	.byte			Ds4
	.byte	W03
	.byte			As3, v044
	.byte	W03
	.byte			Fn4
	.byte	W03
	.byte			Ds4, v040
	.byte	W03
	.byte			As3
	.byte	W03
	.byte			Fn3
	.byte	W03
	.byte			Ds4, v036
	.byte	W03
	.byte			As3
	.byte	W03
	.byte			Fn3
	.byte	W03
	.byte			Ds3, v032
	.byte	W03
	.byte			As3
	.byte	W03
	.byte			Fn3
	.byte	W03
	.byte			Ds3, v028
	.byte	W03
	.byte			As2
	.byte	W30
	.byte	PEND
	.byte	W96
	.byte	W96
	.byte	W96
	.byte	W96
	.byte	W96
	.byte	W96
	.byte	W96
	.byte	W96
	.byte	PATT	
		.word	song0027_2_3
	.byte	PATT	
		.word	song0027_2_4
	.byte	W96
	.byte	W96
	.byte	W96
	.byte	W96
	.byte	W96
	.byte	W96
	.byte	W96
	.byte	W96
	.byte	W96
	.byte	W96
	.byte	GOTO	
		.word	song0027_2_5
	.byte	FINE

	@********************** Track  3 **********************@

	.global song0027_3
song0027_3:	@ 0x08C6BD0D
	.byte	KEYSH	, 0
	.byte	VOICE	, 43
	.byte	VOL	, v110
	.byte	PAN	, c_v
	.byte		N06	, Fs1, v127
	.byte	W06
	.byte		N06	
	.byte	W06
	.byte		N06	
	.byte	W06
	.byte			En2
	.byte	W12
	.byte			Fs2
	.byte	W06
	.byte			Fs1
	.byte	W06
	.byte			Fs2
	.byte	W06
	.byte			Fs1
	.byte	W06
	.byte			Fs2
	.byte	W06
	.byte			Fs1
	.byte	W06
	.byte			Gn2
	.byte	W06
	.byte			Fs1
	.byte	W06
	.byte		N06	
	.byte	W06
	.byte			Fs2
	.byte	W06
	.byte			En2
	.byte	W06
song0027_3_1:
	.byte		N06	, Fs1, v127
	.byte	W06
	.byte		N06	
	.byte	W06
	.byte		N06	
	.byte	W06
	.byte			En2
	.byte	W12
	.byte			Fs2
	.byte	W06
	.byte			Fs1
	.byte	W06
	.byte			Fs2
	.byte	W06
	.byte			Fs1
	.byte	W06
	.byte			Fs2
	.byte	W06
	.byte			Fs1
	.byte	W06
	.byte			Gn2
	.byte	W06
	.byte			Fs1
	.byte	W06
	.byte		N06	
	.byte	W06
	.byte			Fs2
	.byte	W06
	.byte			En2
	.byte	W06
	.byte	PEND
	.byte	PATT	
		.word	song0027_3_1
	.byte	PATT	
		.word	song0027_3_1
	.byte	PATT	
		.word	song0027_3_1
	.byte	PATT	
		.word	song0027_3_1
	.byte	PATT	
		.word	song0027_3_1
	.byte	PATT	
		.word	song0027_3_1
	.byte	PATT	
		.word	song0027_3_1
	.byte	PATT	
		.word	song0027_3_1
	.byte	PATT	
		.word	song0027_3_1
	.byte	PATT	
		.word	song0027_3_1
	.byte	PATT	
		.word	song0027_3_1
	.byte	PATT	
		.word	song0027_3_1
	.byte	PATT	
		.word	song0027_3_1
	.byte	PATT	
		.word	song0027_3_1
	.byte	PATT	
		.word	song0027_3_1
	.byte	PATT	
		.word	song0027_3_1
	.byte	PATT	
		.word	song0027_3_1
	.byte	PATT	
		.word	song0027_3_1
song0027_3_2:
	.byte		N06	, Gn1, v127
	.byte	W06
	.byte		N06	
	.byte	W06
	.byte		N06	
	.byte	W06
	.byte			Fn2
	.byte	W12
	.byte			Gn2
	.byte	W06
	.byte			Gn1
	.byte	W06
	.byte			Gn2
	.byte	W06
	.byte			Gn1
	.byte	W06
	.byte			Gn2
	.byte	W06
	.byte			Gn1
	.byte	W06
	.byte			Gs2
	.byte	W06
	.byte			Gn1
	.byte	W06
	.byte		N06	
	.byte	W06
	.byte			Gn2
	.byte	W06
	.byte			Fn2
	.byte	W06
	.byte	PEND
	.byte	PATT	
		.word	song0027_3_2
	.byte	PATT	
		.word	song0027_3_2
	.byte	PATT	
		.word	song0027_3_2
	.byte	PATT	
		.word	song0027_3_2
	.byte	PATT	
		.word	song0027_3_2
	.byte	PATT	
		.word	song0027_3_2
	.byte	PATT	
		.word	song0027_3_2
	.byte	PATT	
		.word	song0027_3_2
	.byte	PATT	
		.word	song0027_3_2
	.byte	PATT	
		.word	song0027_3_2
	.byte	PATT	
		.word	song0027_3_2
	.byte	PATT	
		.word	song0027_3_2
	.byte	PATT	
		.word	song0027_3_2
	.byte	PATT	
		.word	song0027_3_2
	.byte	PATT	
		.word	song0027_3_2
	.byte	PATT	
		.word	song0027_3_2
	.byte	PATT	
		.word	song0027_3_2
	.byte	PATT	
		.word	song0027_3_2
	.byte	PATT	
		.word	song0027_3_2
	.byte	PATT	
		.word	song0027_3_2
	.byte	PATT	
		.word	song0027_3_2
	.byte	PATT	
		.word	song0027_3_2
	.byte	PATT	
		.word	song0027_3_2
	.byte	PATT	
		.word	song0027_3_2
	.byte	PATT	
		.word	song0027_3_2
	.byte	W96
	.byte	GOTO	
		.word	song0027_3_1
	.byte	FINE

	@********************** Track  4 **********************@

	.global song0027_4
song0027_4:	@ 0x08C6BE55
	.byte	KEYSH	, 0
	.byte	VOICE	, 100
	.byte	VOL	, v110
	.byte	BENDR	, 8
	.byte	W96
song0027_4_5:
	.byte	W96
	.byte	W96
	.byte	W96
	.byte	W96
	.byte	W96
	.byte	W96
	.byte	W96
	.byte	W96
	.byte	W96
	.byte	W96
	.byte	W22
	.byte		N04	, Dn2, v044
	.byte	W02
	.byte		N10	, Gs2, v064
	.byte	W15
	.byte		N07	, Dn2, v044
	.byte	W05
	.byte		N09	, Gs2, v080
	.byte	W14
	.byte		N08	, Dn2
	.byte	W05
	.byte		N10	, Gs2, v112
	.byte	W16
	.byte		N06	, Dn2, v092
	.byte	W03
	.byte		N09	, Gs2, v112
	.byte	W14
	.byte	W01
	.byte		N07	, Dn2, v072
	.byte	W06
	.byte		N06	, Gs2, v088
	.byte	W15
	.byte		N07	, Dn2, v068
	.byte	W04
	.byte		N09	, Gs2
	.byte	W14
	.byte		N08	, Dn2, v064
	.byte	W06
	.byte		N09	, Gs2, v060
	.byte	W17
	.byte		N06	, Dn2, v056
	.byte	W01
	.byte		N11	, Gs2, v036
	.byte	W17
	.byte		N07	, Dn2, v060
	.byte	W06
	.byte		N08	, Gs2, v044
	.byte	W09
	.byte	W04
	.byte			Dn2, v036
	.byte	W05
	.byte		N07	, Gs2, v060
	.byte	W15
	.byte		N04	, Dn2, v028
	.byte	W05
	.byte		N07	, Gs2, v040
	.byte	W15
	.byte		N04	, Dn2, v032
	.byte	W05
	.byte			Gs2, v040
	.byte	W12
	.byte			Dn2, v044
	.byte	W06
	.byte		N08	, Gs2
	.byte	W21
	.byte		N07	, Gs2, v032
	.byte	W08
	.byte	W09
	.byte		N05	, Dn2, v028
	.byte	W84
	.byte	W03
	.byte	W96
	.byte	W96
	.byte	W96
	.byte	W96
	.byte	W96
	.byte	W96
	.byte	W96
	.byte	W96
	.byte	W96
	.byte	W96
	.byte	W96
	.byte	W96
	.byte	W96
	.byte	W96
	.byte	W96
	.byte	W96
song0027_4_1:
	.byte	W22
	.byte		N05	, En2, v044
	.byte	W02
	.byte		N11	, As2, v064
	.byte	W15
	.byte		N08	, En2, v044
	.byte	W05
	.byte		N10	, As2, v080
	.byte	W14
	.byte		N09	, En2
	.byte	W05
	.byte		N11	, As2, v112
	.byte	W16
	.byte		N06	, En2, v092
	.byte	W03
	.byte		N09	, As2, v112
	.byte	W14
	.byte	PEND
song0027_4_2:
	.byte	W01
	.byte		N08	, En2, v072
	.byte	W06
	.byte		N07	, As2, v088
	.byte	W15
	.byte			En2, v068
	.byte	W04
	.byte		N09	, As2
	.byte	W14
	.byte			En2, v064
	.byte	W06
	.byte			As2, v060
	.byte	W17
	.byte		N07	, En2, v056
	.byte	W01
	.byte		N12	, As2, v036
	.byte	W17
	.byte		N07	, En2, v060
	.byte	W06
	.byte		N08	, As2, v044
	.byte	W09
	.byte	PEND
song0027_4_3:
	.byte	W04
	.byte		N08	, En2, v036
	.byte	W05
	.byte			As2, v060
	.byte	W15
	.byte		N04	, En2, v028
	.byte	W05
	.byte		N07	, As2, v040
	.byte	W15
	.byte		N04	, En2, v032
	.byte	W05
	.byte		N05	, As2, v040
	.byte	W12
	.byte		N04	, En2, v044
	.byte	W06
	.byte		N09	, As2
	.byte	W21
	.byte		N08	, As2, v032
	.byte	W08
	.byte	PEND
song0027_4_4:
	.byte	W09
	.byte		N05	, En2, v028
	.byte	W84
	.byte	W03
	.byte	PEND
	.byte	W96
	.byte	W96
	.byte	W96
	.byte	W96
	.byte	W96
	.byte	W96
	.byte	W96
	.byte	PATT	
		.word	song0027_4_1
	.byte	PATT	
		.word	song0027_4_2
	.byte	PATT	
		.word	song0027_4_3
	.byte	PATT	
		.word	song0027_4_4
	.byte	W96
	.byte	GOTO	
		.word	song0027_4_5
	.byte	FINE

	@********************** Track  5 **********************@

	.global song0027_5
song0027_5:	@ 0x08C6BF7B
	.byte	KEYSH	, 0
	.byte	VOICE	, 98
	.byte	VOL	, v086
	.byte	BENDR	, 8
	.byte	W96
song0027_5_1:
	.byte	W96
	.byte	W96
	.byte		N68	, Gn2, v112
	.byte		N68	, Cn3
	.byte		N68	, Dn3
	.byte	W72
	.byte		TIE	, Gs2, v116
	.byte		TIE	, Cs3
	.byte		TIE	, Ds3
	.byte	W24
	.byte	W96
	.byte	W96
	.byte		EOT	, Gs2
	.byte			Cs3
	.byte			Ds3
	.byte	W96
	.byte		N68	, Gn2, v108
	.byte		N68	, Cn3
	.byte		N68	, Dn3
	.byte	W72
	.byte		N44	, Gs2, v104
	.byte		N44	, Cs3
	.byte		N44	, Ds3
	.byte	W24
	.byte	W24
	.byte		N68	, Bn2, v108
	.byte		N68	, En3
	.byte		N68	, Fs3
	.byte	W72
	.byte		TIE	, As2, v104
	.byte		TIE	, Ds3
	.byte		TIE	, Fn3
	.byte	W96
	.byte	W92
	.byte	W01
	.byte		EOT	, As2
	.byte			Ds3
	.byte			Fn3
	.byte	W03
	.byte	W96
	.byte	W96
	.byte	W96
	.byte		N68	, Gn2, v108
	.byte		N68	, Cn3
	.byte		N68	, Dn3
	.byte	W72
	.byte		TIE	, Gs2, v112
	.byte		TIE	, Cs3
	.byte		TIE	, Ds3
	.byte	W24
	.byte	W96
	.byte	W05
	.byte		EOT	, Gs2
	.byte			Cs3
	.byte			Ds3
	.byte	W90
	.byte	W01
	.byte		N68	, Gn2, v108
	.byte		N68	, Cn3
	.byte		N68	, Dn3
	.byte	W72
	.byte			Gs2, v100
	.byte		N68	, Cs3
	.byte		N68	, Ds3
	.byte	W24
	.byte	W48
	.byte			Bn2, v096
	.byte		N68	, En3
	.byte		N68	, Fs3
	.byte	W48
	.byte	W24
	.byte			As2
	.byte		N68	, Ds3
	.byte		N68	, Fn3
	.byte	W72
	.byte		TIE	, Cs3, v100
	.byte		TIE	, Fs3
	.byte		TIE	, Gs3
	.byte	W96
	.byte	W96
	.byte	W02
	.byte		EOT	, Cs3
	.byte			Fs3
	.byte			Gs3
	.byte	W92
	.byte	W02
	.byte		N68	, Bn2, v112
	.byte		N68	, En3
	.byte		N68	, Fs3
	.byte	W72
	.byte		TIE	, Cn3, v116
	.byte		TIE	, Fn3
	.byte		TIE	, Gn3
	.byte	W24
	.byte	W96
	.byte	W96
	.byte		EOT	, Cn3
	.byte			Fn3
	.byte			Gn3
	.byte	W96
	.byte		N68	, Bn2, v108
	.byte		N68	, En3
	.byte		N68	, Fs3
	.byte	W72
	.byte		N44	, Cn3, v104
	.byte		N44	, Fn3
	.byte		N44	, Gn3
	.byte	W24
	.byte	W24
	.byte		N68	, Ds3, v108
	.byte		N68	, Gs3
	.byte		N68	, As3
	.byte	W72
	.byte		TIE	, Dn3, v104
	.byte		TIE	, Gn3
	.byte		TIE	, An3
	.byte	W96
	.byte	W92
	.byte	W01
	.byte		EOT	, Dn3
	.byte			Gn3
	.byte			An3
	.byte	W03
	.byte	W96
	.byte	W96
	.byte	W96
	.byte		N68	, Bn2, v108
	.byte		N68	, En3
	.byte		N68	, Fs3
	.byte	W72
	.byte		TIE	, Cn3, v112
	.byte		TIE	, Fn3
	.byte		TIE	, Gn3
	.byte	W24
	.byte	W96
	.byte	W05
	.byte		EOT	, Cn3
	.byte			Fn3
	.byte			Gn3
	.byte	W90
	.byte	W01
	.byte		N68	, Bn2, v108
	.byte		N68	, En3
	.byte		N68	, Fs3
	.byte	W72
	.byte			Cn3, v100
	.byte		N68	, Fn3
	.byte		N68	, Gn3
	.byte	W24
	.byte	W48
	.byte			Ds3, v096
	.byte		N68	, Gs3
	.byte		N68	, As3
	.byte	W48
	.byte	W24
	.byte			Dn3
	.byte		N68	, Gn3
	.byte		N68	, An3
	.byte	W72
	.byte		TIE	, Fn3, v100
	.byte		TIE	, As3
	.byte		TIE	, Cn4
	.byte	W96
	.byte	W96
	.byte	W02
	.byte		EOT	, Fn3
	.byte			As3
	.byte			Cn4
	.byte	W92
	.byte	W02
	.byte	W96
	.byte	W96
	.byte	W96
	.byte	W96
	.byte	GOTO	
		.word	song0027_5_1
	.byte	FINE

	@********************** Track  6 **********************@

	.global song0027_6
song0027_6:	@ 0x08C6C0A0
	.byte	KEYSH	, 0
	.byte	VOICE	, 12
	.byte	VOL	, v051
	.byte	W96
song0027_6_5:
	.byte	W96
	.byte	W96
	.byte	W96
	.byte	W96
song0027_6_1:
	.byte	W30
	.byte		N03	, Gs2, v020
	.byte	W03
	.byte			Cs3
	.byte	W03
	.byte			Ds3, v024
	.byte	W03
	.byte			Gs3
	.byte	W03
	.byte			Cs3
	.byte	W03
	.byte			Ds3, v028
	.byte	W03
	.byte			Gs3
	.byte	W03
	.byte			Cs4, v032
	.byte	W03
	.byte			Ds3
	.byte	W03
	.byte			Gs3
	.byte	W03
	.byte			Cs4, v036
	.byte	W03
	.byte			Ds4
	.byte	W03
	.byte			Gs3, v040
	.byte	W03
	.byte			Cs4
	.byte	W03
	.byte			Ds4
	.byte	W03
	.byte			Gs4, v044
	.byte	W03
	.byte			Cs4
	.byte	W03
	.byte			Ds4, v048
	.byte	W03
	.byte			Gs4
	.byte	W03
	.byte			Cs5
	.byte	W03
	.byte			Ds4, v052
	.byte	W03
	.byte			Gs4
	.byte	W03
	.byte	PEND
song0027_6_2:
	.byte		N03	, Cs5, v056
	.byte	W03
	.byte			Ds5
	.byte	W03
	.byte			Gs4
	.byte	W03
	.byte			Cs5, v060
	.byte	W03
	.byte			Ds5
	.byte	W03
	.byte			Gs5, v064
	.byte	W03
	.byte			Ds5
	.byte	W03
	.byte			Cs5
	.byte	W03
	.byte			Gs4, v060
	.byte	W03
	.byte			Ds5
	.byte	W03
	.byte			Cs5
	.byte	W03
	.byte			Gs4, v056
	.byte	W03
	.byte			Ds4
	.byte	W03
	.byte			Cs5
	.byte	W03
	.byte			Gs4, v052
	.byte	W03
	.byte			Ds4
	.byte	W03
	.byte			Cs4
	.byte	W03
	.byte			Gs4, v048
	.byte	W03
	.byte			Ds4
	.byte	W03
	.byte			Cs4
	.byte	W03
	.byte			Gs3, v044
	.byte	W03
	.byte			Ds4
	.byte	W03
	.byte			Cs4, v040
	.byte	W03
	.byte			Gs3
	.byte	W03
	.byte			Ds3
	.byte	W03
	.byte			Cs4, v036
	.byte	W03
	.byte			Gs3
	.byte	W03
	.byte			Ds3
	.byte	W03
	.byte			Cs3, v032
	.byte	W03
	.byte			Gs3
	.byte	W03
	.byte			Ds3
	.byte	W03
	.byte			Cs3, v028
	.byte	W03
	.byte	PEND
	.byte			Gs2
	.byte	W96
	.byte	W96
	.byte	W96
	.byte	W96
	.byte	W96
	.byte	W96
	.byte	W96
	.byte	W96
	.byte	PATT	
		.word	song0027_6_1
	.byte	PATT	
		.word	song0027_6_2
	.byte		N03	, Gs2, v028
	.byte	W96
	.byte	W96
	.byte	W96
	.byte	W96
	.byte	W96
	.byte	W96
	.byte	W96
	.byte	W96
song0027_6_3:
	.byte	W30
	.byte		N03	, As2, v020
	.byte	W03
	.byte			Ds3
	.byte	W03
	.byte			Fn3, v024
	.byte	W03
	.byte			As3
	.byte	W03
	.byte			Ds3
	.byte	W03
	.byte			Fn3, v028
	.byte	W03
	.byte			As3
	.byte	W03
	.byte			Ds4, v032
	.byte	W03
	.byte			Fn3
	.byte	W03
	.byte			As3
	.byte	W03
	.byte			Ds4, v036
	.byte	W03
	.byte			Fn4
	.byte	W03
	.byte			As3, v040
	.byte	W03
	.byte			Ds4
	.byte	W03
	.byte			Fn4
	.byte	W03
	.byte			As4, v044
	.byte	W03
	.byte			Ds4
	.byte	W03
	.byte			Fn4, v048
	.byte	W03
	.byte			As4
	.byte	W03
	.byte			Ds5
	.byte	W03
	.byte			Fn4, v052
	.byte	W03
	.byte			As4
	.byte	W03
	.byte	PEND
song0027_6_4:
	.byte		N03	, Ds5, v056
	.byte	W03
	.byte			Fn5
	.byte	W03
	.byte			As4
	.byte	W03
	.byte			Ds5, v060
	.byte	W03
	.byte			Fn5
	.byte	W03
	.byte			As5, v064
	.byte	W03
	.byte			Fn5
	.byte	W03
	.byte			Ds5
	.byte	W03
	.byte			As4, v060
	.byte	W03
	.byte			Fn5
	.byte	W03
	.byte			Ds5
	.byte	W03
	.byte			As4, v056
	.byte	W03
	.byte			Fn4
	.byte	W03
	.byte			Ds5
	.byte	W03
	.byte			As4, v052
	.byte	W03
	.byte			Fn4
	.byte	W03
	.byte			Ds4
	.byte	W03
	.byte			As4, v048
	.byte	W03
	.byte			Fn4
	.byte	W03
	.byte			Ds4
	.byte	W03
	.byte			As3, v044
	.byte	W03
	.byte			Fn4
	.byte	W03
	.byte			Ds4, v040
	.byte	W03
	.byte			As3
	.byte	W03
	.byte			Fn3
	.byte	W03
	.byte			Ds4, v036
	.byte	W03
	.byte			As3
	.byte	W03
	.byte			Fn3
	.byte	W03
	.byte			Ds3, v032
	.byte	W03
	.byte			As3
	.byte	W03
	.byte			Fn3
	.byte	W03
	.byte			Ds3, v028
	.byte	W03
	.byte	PEND
	.byte			As2
	.byte	W96
	.byte	W96
	.byte	W96
	.byte	W96
	.byte	W96
	.byte	W96
	.byte	W96
	.byte	W96
	.byte	PATT	
		.word	song0027_6_3
	.byte	PATT	
		.word	song0027_6_4
	.byte		N03	, As2, v028
	.byte	W96
	.byte	W96
	.byte	W96
	.byte	W96
	.byte	W96
	.byte	W96
	.byte	W96
	.byte	W96
	.byte	W96
	.byte	W96
	.byte	GOTO	
		.word	song0027_6_5
	.byte	FINE

	@********************** Track  7 **********************@

	.global song0027_7
song0027_7:	@ 0x08C6C1FB
	.byte	KEYSH	, 0
	.byte	VOICE	, 93
	.byte	VOL	, v110
	.byte		N24	, Fs2, v108
	.byte		N24	, Fs3, v116
	.byte	W96
song0027_7_1:
	.byte	W96
	.byte	W96
	.byte	W96
	.byte	W96
	.byte	W96
	.byte	W96
	.byte	W96
	.byte	W96
	.byte	W96
	.byte	W96
	.byte	W96
	.byte	W96
	.byte	W96
	.byte	W96
	.byte	W96
	.byte	W96
	.byte	W96
	.byte	W96
	.byte	W96
	.byte	W96
	.byte	W96
	.byte	W96
	.byte	W96
	.byte	W96
	.byte	W96
	.byte	W96
	.byte	W96
	.byte	W96
	.byte	W96
	.byte	W96
	.byte	W96
	.byte	W96
	.byte	W96
	.byte	W96
	.byte	W96
	.byte	W96
	.byte	W96
	.byte	W96
	.byte	W96
	.byte	W96
	.byte	W96
	.byte	W96
	.byte	W96
	.byte	W96
	.byte	W96
	.byte	W96
	.byte	GOTO	
		.word	song0027_7_1
	.byte	FINE

	.align 2
	.global song0027
song0027:	@ 0x08C6C23C
	.byte	7		@ trackCount
	.byte	0		@ blockCount
	.byte	0		@ priority
	.byte	128		@ reverb

	.word	voicegroup014		@ voicegroup/tone

	.word	song0027_1		@ track
	.word	song0027_2		@ track
	.word	song0027_3		@ track
	.word	song0027_4		@ track
	.word	song0027_5		@ track
	.word	song0027_6		@ track
	.word	song0027_7		@ track
