	.include "MPlayDef.s"

	.section .rodata

	@********************** Track  1 **********************@

	.align 2
	.global song0018_1
song0018_1:	@ 0x08C5C6FC
	.byte	KEYSH	, 0
	.byte	TEMPO	, 62
	.byte	VOICE	, 102
	.byte	VOL	, v074
	.byte	PRIO	, 20
	.byte	W03
	.byte	W96
	.byte	W96
song0018_1_1:
	.byte	W96
	.byte	W96
	.byte	W60
	.byte		N07	, Gn2, v104
	.byte	W12
	.byte			An2, v088
	.byte	W08
	.byte		N03	, As2, v104
	.byte	W11
	.byte		N04	, En3
	.byte	W01
	.byte		N36	, Fn3, v084
	.byte	W04
	.byte	W32
	.byte	W02
	.byte		N07	, Ds3, v092
	.byte	W09
	.byte		N06	, Dn3
	.byte	W13
	.byte		N04	, Dn3, v100
	.byte	W03
	.byte		N08	, Ds3, v088
	.byte	W08
	.byte		N04	, Fn3, v076
	.byte	W04
	.byte		N08	, Ds3, v088
	.byte	W08
	.byte		N04	, Dn3, v080
	.byte	W03
	.byte		N07	, Cn3
	.byte	W09
	.byte		N03	, As2, v096
	.byte	W05
	.byte			Bn2
	.byte		N32	, Cn3, v092
	.byte	W32
	.byte	W03
	.byte		N07	, As2, v096
	.byte	W08
	.byte		N04	, An2, v088
	.byte	W12
	.byte			Gs2, v100
	.byte	W01
	.byte		N18	, An2, v076
	.byte	W16
	.byte		N09	, As2, v088
	.byte	W11
	.byte		N03	, An2, v080
	.byte	W12
	.byte		N20	, An2, v100
	.byte	W01
	.byte	W20
	.byte		N66	, Gn2, v080
	.byte	W04
	.byte	VOL	, v072
	.byte	W03
	.byte		v070
	.byte	W03
	.byte		v068
	.byte	W04
	.byte		v066
	.byte	W03
	.byte		v064
	.byte	W03
	.byte		v062
	.byte	W04
	.byte		v061
	.byte	W03
	.byte		v059
	.byte	W03
	.byte		v057
	.byte	W04
	.byte		v055
	.byte	W03
	.byte		v053
	.byte	W03
	.byte		v051
	.byte	W04
	.byte		v050
	.byte	W03
	.byte		v048
	.byte	W03
	.byte		v046
	.byte	W04
	.byte		v044
	.byte	W03
	.byte		v042
	.byte	W03
	.byte		v040
	.byte	W04
	.byte		v039
	.byte	W02
	.byte	BEND	, c_v-3
	.byte	W01
	.byte		c_v-7
	.byte	W01
	.byte		c_v-10
	.byte	W01
	.byte		c_v-12
	.byte	W01
	.byte		c_v-14
	.byte	W04
	.byte		c_v-11
	.byte	W01
	.byte		c_v-8
	.byte	W01
	.byte		c_v-4
	.byte	W01
	.byte		c_v
	.byte	W54
	.byte		N04	, Gn2, v096
	.byte	W05
	.byte		N07	, An2, v084
	.byte	W08
	.byte		N04	, As2, v104
	.byte	W04
	.byte		N07	, Bn2, v088
	.byte	W08
	.byte		N04	, Cn3, v080
	.byte	W03
	.byte		N08	, Dn3, v076
	.byte	W08
	.byte		N04	, Ds3, v080
	.byte	W04
	.byte		N03	, En3, v104
	.byte	W01
	.byte	W01
	.byte		N32	, Fn3, v096
	.byte	W32
	.byte	W02
	.byte		N08	, Ds3, v104
	.byte	W08
	.byte		N04	, Dn3, v080
	.byte	W13
	.byte			Dn3, v096
	.byte	W03
	.byte		N09	, Ds3, v088
	.byte	W08
	.byte		N04	, Fn3, v068
	.byte	W04
	.byte		N09	, Ds3, v088
	.byte	W08
	.byte		N04	, Dn3, v080
	.byte	W03
	.byte		N08	, Cn3, v084
	.byte	W09
	.byte		N04	, As2, v108
	.byte	W04
	.byte			Bn2, v100
	.byte	W01
	.byte		N32	, Cn3, v096
	.byte	W32
	.byte	W03
	.byte		N08	, As2, v104
	.byte	W08
	.byte		N04	, An2, v092
	.byte	W12
	.byte	BEND	, c_v-7
	.byte		N17	, An2, v108
	.byte	W01
	.byte	BEND	, c_v-16
	.byte	W01
	.byte		c_v-20
	.byte	W01
	.byte		c_v-19
	.byte	W01
	.byte		c_v
	.byte	W12
	.byte		N09	, As2, v088
	.byte	W13
	.byte		N12	, Cn3, v096
	.byte	W12
	.byte		N20	, An2, v092
	.byte	W20
	.byte		N72	, Gn2, v096
	.byte	W04
	.byte	VOL	, v072
	.byte	W03
	.byte		v070
	.byte	W03
	.byte		v068
	.byte	W04
	.byte		v066
	.byte	W03
	.byte		v064
	.byte	W03
	.byte		v062
	.byte	W04
	.byte		v061
	.byte	W03
	.byte		v059
	.byte	W03
	.byte		v057
	.byte	W04
	.byte		v055
	.byte	W03
	.byte		v053
	.byte	W03
	.byte		v051
	.byte	W04
	.byte		v050
	.byte	W03
	.byte		v048
	.byte	W03
	.byte		v046
	.byte	W04
	.byte		v044
	.byte	W03
	.byte		v042
	.byte	W03
	.byte		v040
	.byte	W04
	.byte		v039
	.byte	W12
	.byte	W48
	.byte		v074
	.byte	W48
	.byte	W07
	.byte		N02	, Fs2, v088
	.byte	W01
	.byte		N13	, Gn2, v092
	.byte	W15
	.byte		N03	, En3, v084
	.byte	W01
	.byte		N05	, Fn3, v088
	.byte	W08
	.byte			Ds3, v104
	.byte	W12
	.byte		N02	, Dn3
	.byte	W12
	.byte		N03	, Cn3
	.byte	W12
	.byte			As2
	.byte	W04
	.byte		N09	, An2, v100
	.byte	W12
	.byte		N06	, As2, v104
	.byte	W11
	.byte		N02	, Bn2, v092
	.byte	W01
	.byte		N36	, Cn3
	.byte	W32
	.byte	W03
	.byte		N09	, As2, v100
	.byte	W08
	.byte		N03	, An2, v084
	.byte	W12
	.byte		N04	, An2, v096
	.byte	W04
	.byte		N08	, Cn3, v084
	.byte	W08
	.byte		N04	, Gn3, v096
	.byte	W04
	.byte		N03	, En3, v076
	.byte		N07	, Fn3
	.byte	W08
	.byte		N04	, Ds3, v088
	.byte	W04
	.byte		N07	, Dn3, v076
	.byte	W08
	.byte		N04	, Cn3, v080
	.byte	W03
	.byte		N02	, Cs3, v076
	.byte	W01
	.byte		N12	, Dn3
	.byte	W01
	.byte	W11
	.byte		N07	, Ds3, v100
	.byte	W08
	.byte		N04	, Fn3, v088
	.byte	W16
	.byte		N13	, As2, v100
	.byte	W13
	.byte		N07	, Bn2, v080
	.byte	W08
	.byte		N03	, Cn3, v088
	.byte	W16
	.byte			Gs2
	.byte	W01
	.byte		N11	, An2, v076
	.byte	W10
	.byte		N08	, As2, v100
	.byte	W08
	.byte		N04	, Cn3, v076
	.byte	W04
	.byte		N36	, An2, v088
	.byte	W01
	.byte	W32
	.byte	W02
	.byte		N08	, Gn2, v064
	.byte	W09
	.byte		N48	, Fn2, v068
	.byte	W52
	.byte	W01
	.byte	W08
	.byte		N04	, Ds2, v096
	.byte	W02
	.byte		N09	, Fn2, v080
	.byte	W09
	.byte		N04	, Gn2, v076
	.byte	W04
	.byte		N03	, Gs2, v088
	.byte	W02
	.byte		N06	, An2, v068
	.byte	W07
	.byte		N05	, Gs2, v092
	.byte	W03
	.byte		N08	, An2, v068
	.byte	W08
	.byte		N03	, As2, v084
	.byte	W04
	.byte		N07	, Cn3, v088
	.byte	W08
	.byte			Bn2, v068
	.byte	W03
	.byte		N08	, Cn3, v072
	.byte	W09
	.byte		N04	, Dn3, v084
	.byte	W04
	.byte		N07	, Ds3, v100
	.byte	W08
	.byte		N04	, Dn3, v080
	.byte	W03
	.byte		N07	, Ds3, v092
	.byte	W09
	.byte		N04	, Fn3
	.byte	W04
	.byte			Gn3, v104
	.byte	W01
	.byte	W01
	.byte		N10	, Gs3, v092
	.byte	W10
	.byte		N07	, Gn3, v076
	.byte	W08
	.byte		N03	, Fn3, v096
	.byte	W12
	.byte			Ds3, v104
	.byte	W13
	.byte		N12	, Dn3, v108
	.byte	W12
	.byte		N04	, Ds3, v088
	.byte	W04
	.byte		N07	, Fn3, v076
	.byte	W08
	.byte		N04	, Bn2, v080
	.byte	W04
	.byte		N08	, Cn3, v076
	.byte	W07
	.byte		N04	, Dn3, v080
	.byte	W04
	.byte		N07	, An2, v084
	.byte	W08
	.byte		N04	, As2
	.byte	W04
	.byte		N08	, Cn3, v076
	.byte	W01
	.byte	W07
	.byte		N04	, As2
	.byte	W04
	.byte		N07	, An2, v068
	.byte	W08
	.byte		N18	, Gn2, v076
	.byte	W32
	.byte	W03
	.byte		N03	, Cs3, v104
	.byte	W01
	.byte		N06	, Dn3, v088
	.byte	W05
	.byte		N07	, Ds3, v076
	.byte	W07
	.byte		N04	, Dn3, v064
	.byte	W04
	.byte		N08	, Cn3, v076
	.byte	W09
	.byte		N04	, As2, v088
	.byte	W04
	.byte		N07	, An2, v080
	.byte	W08
	.byte		N04	, Gs2, v104
	.byte	W04
	.byte		N03	, An2, v080
	.byte	W01
	.byte		N12	, As2, v112
	.byte	W11
	.byte		N07	, Cn3, v096
	.byte	W08
	.byte		N03	, Cs3, v108
	.byte	W12
	.byte		N04	, Dn3
	.byte	W12
	.byte			Ds3, v112
	.byte	W12
	.byte		N01	, En3, v108
	.byte	W12
	.byte		N02	, En3, v104
	.byte	W01
	.byte		N24	, Fn3, v096
	.byte	W24
	.byte	W03
	.byte	W96
	.byte	W96
	.byte	W96
	.byte	W56
	.byte	W03
	.byte		N13	, Gn3, v084
	.byte	W02
	.byte	BEND	, c_v+7
	.byte	W01
	.byte		c_v+15
	.byte	W01
	.byte		c_v+17
	.byte	W01
	.byte		c_v+12
	.byte	W01
	.byte		c_v
	.byte	W05
	.byte		N06	, Fn3, v068
	.byte	W09
	.byte		N04	, Ds3, v088
	.byte	W04
	.byte		N07	, Dn3, v068
	.byte	W08
	.byte		N03	, Cn3, v072
	.byte	W03
	.byte			Gs2, v080
	.byte	W02
	.byte		N06	, An2, v096
	.byte	W12
	.byte			As2, v104
	.byte	W12
	.byte		N05	, Cn3, v092
	.byte	W11
	.byte		N07	, Dn3, v108
	.byte	W08
	.byte		N04	, Ds3, v080
	.byte	W12
	.byte			Cn3, v088
	.byte	W04
	.byte		N07	, Dn3
	.byte	W08
	.byte		N04	, Ds3
	.byte	W03
	.byte		N07	, Cs3
	.byte	W09
	.byte		N04	, Dn3, v096
	.byte	W04
	.byte		N06	, Ds3, v088
	.byte	W08
	.byte		N04	, Fn3, v084
	.byte	W03
	.byte		N03	, Gn3, v080
	.byte	W02
	.byte		N06	, Gs3, v088
	.byte	W10
	.byte			Gs3, v104
	.byte	W13
	.byte		N09	, Gs3, v096
	.byte	W11
	.byte		N07	, Gn3, v080
	.byte	W09
	.byte		N04	, Fs3
	.byte	W13
	.byte			Fn3, v088
	.byte	W03
	.byte		N08	, Ds3
	.byte	W09
	.byte		N04	, Dn3, v068
	.byte	W04
	.byte		N07	, Cs3, v072
	.byte	W07
	.byte		N04	, Cn3, v068
	.byte	W04
	.byte		N07	, As2, v080
	.byte	W09
	.byte		N03	, An2, v068
	.byte	W04
	.byte		N08	, Gn2, v076
	.byte	W07
	.byte		N04	, Gs2, v088
	.byte	W04
	.byte		N20	, Gn3, v080
	.byte	W23
	.byte		N11	, An2, v052
	.byte	W09
	.byte		N04	, As2, v088
	.byte	W04
	.byte		N23	, Fs3, v044
	.byte	W24
	.byte		N07	, Gn2, v068
	.byte	W08
	.byte		N04	, Gs2, v080
	.byte	W04
	.byte		N12	, Fn3, v072
	.byte	W13
	.byte	W96
	.byte	W96
	.byte	W96
	.byte	W96
	.byte	W96
	.byte	W96
	.byte	W96
	.byte	GOTO	
		.word	song0018_1_1
	.byte	W96
	.byte	FINE

	@********************** Track  2 **********************@

	.global song0018_2
song0018_2:	@ 0x08C5CA48
	.byte	KEYSH	, 0
	.byte	VOICE	, 4
	.byte	VOL	, v039
	.byte	PAN	, c_v-30
	.byte	W03
	.byte	W96
	.byte	W96
song0018_2_1:
	.byte	W96
	.byte	W96
	.byte	W60
	.byte		N07	, Cn5, v104
	.byte	W12
	.byte			Dn5, v088
	.byte	W08
	.byte		N03	, Ds5, v104
	.byte	W11
	.byte		N04	, An5
	.byte	W01
	.byte		N36	, As5, v084
	.byte	W04
	.byte	W32
	.byte	W02
	.byte		N07	, Gs5, v092
	.byte	W09
	.byte		N06	, Gn5
	.byte	W13
	.byte		N04	, Gn5, v100
	.byte	W03
	.byte		N08	, Gs5, v088
	.byte	W08
	.byte		N04	, As5, v076
	.byte	W04
	.byte		N08	, Gs5, v088
	.byte	W08
	.byte		N04	, Gn5, v080
	.byte	W03
	.byte		N07	, Fn5
	.byte	W09
	.byte		N03	, Ds5, v096
	.byte	W05
	.byte			En5
	.byte		N32	, Fn5, v092
	.byte	W32
	.byte	W03
	.byte		N07	, Ds5, v096
	.byte	W08
	.byte		N04	, Dn5, v088
	.byte	W12
	.byte			Cs5, v100
	.byte	W01
	.byte		N18	, Dn5, v076
	.byte	W16
	.byte		N09	, Ds5, v088
	.byte	W11
	.byte		N03	, Dn5, v080
	.byte	W12
	.byte		N20	, Dn5, v100
	.byte	W01
	.byte	W20
	.byte		N66	, Cn5, v080
	.byte	W04
	.byte	VOL	, v039
	.byte	W03
	.byte		v037
	.byte	W03
	.byte		v035
	.byte	W04
	.byte		v033
	.byte	W03
	.byte		v031
	.byte	W03
	.byte		v029
	.byte	W04
	.byte		v028
	.byte	W03
	.byte		v025
	.byte	W03
	.byte		v024
	.byte	W04
	.byte		v022
	.byte	W03
	.byte		v020
	.byte	W03
	.byte		v018
	.byte	W04
	.byte		v017
	.byte	W03
	.byte		v014
	.byte	W03
	.byte		v013
	.byte	W04
	.byte		v011
	.byte	W03
	.byte		v009
	.byte	W03
	.byte		v007
	.byte	W04
	.byte		v006
	.byte	W02
	.byte	BEND	, c_v-3
	.byte	W01
	.byte		c_v-7
	.byte	W01
	.byte		c_v-10
	.byte	W01
	.byte		c_v-12
	.byte	W01
	.byte		c_v-14
	.byte	W04
	.byte		c_v-11
	.byte	W01
	.byte		c_v-8
	.byte	W01
	.byte		c_v-4
	.byte	W01
	.byte		c_v
	.byte	W44
	.byte	W03
	.byte	VOL	, v041
	.byte	W07
	.byte		N04	, Cn5, v096
	.byte	W05
	.byte		N07	, Dn5, v084
	.byte	W08
	.byte		N04	, Ds5, v104
	.byte	W04
	.byte		N07	, En5, v088
	.byte	W08
	.byte		N04	, Fn5, v080
	.byte	W03
	.byte		N08	, Gn5, v076
	.byte	W08
	.byte		N04	, Gs5, v080
	.byte	W04
	.byte		N03	, An5, v104
	.byte	W01
	.byte	W01
	.byte		N32	, As5, v096
	.byte	W32
	.byte	W02
	.byte		N08	, Gs5, v104
	.byte	W08
	.byte		N04	, Gn5, v080
	.byte	W13
	.byte			Gn5, v096
	.byte	W03
	.byte		N09	, Gs5, v088
	.byte	W08
	.byte		N04	, As5, v068
	.byte	W04
	.byte		N09	, Gs5, v088
	.byte	W08
	.byte		N04	, Gn5, v080
	.byte	W03
	.byte		N08	, Fn5, v084
	.byte	W09
	.byte		N04	, Ds5, v108
	.byte	W04
	.byte			En5, v100
	.byte	W01
	.byte		N32	, Fn5, v096
	.byte	W32
	.byte	W03
	.byte		N08	, Ds5, v104
	.byte	W08
	.byte		N04	, Dn5, v092
	.byte	W12
	.byte	BEND	, c_v-7
	.byte		N17	, Dn5, v108
	.byte	W01
	.byte	BEND	, c_v-16
	.byte	W01
	.byte		c_v-20
	.byte	W01
	.byte		c_v-19
	.byte	W01
	.byte		c_v
	.byte	W12
	.byte		N09	, Ds5, v088
	.byte	W13
	.byte		N12	, Fn5, v096
	.byte	W12
	.byte		N20	, Dn5, v092
	.byte	W20
	.byte		N72	, Cn5, v096
	.byte	W04
	.byte	VOL	, v039
	.byte	W03
	.byte		v037
	.byte	W03
	.byte		v035
	.byte	W04
	.byte		v033
	.byte	W03
	.byte		v031
	.byte	W03
	.byte		v029
	.byte	W04
	.byte		v028
	.byte	W03
	.byte		v025
	.byte	W03
	.byte		v024
	.byte	W04
	.byte		v022
	.byte	W03
	.byte		v020
	.byte	W03
	.byte		v018
	.byte	W04
	.byte		v017
	.byte	W03
	.byte		v014
	.byte	W03
	.byte		v013
	.byte	W04
	.byte		v011
	.byte	W03
	.byte		v009
	.byte	W03
	.byte		v007
	.byte	W04
	.byte		v006
	.byte	W12
	.byte	W48
	.byte		v041
	.byte	W48
	.byte	W07
	.byte		N02	, Bn4, v088
	.byte	W01
	.byte		N13	, Cn5, v092
	.byte	W15
	.byte		N03	, An5, v084
	.byte	W01
	.byte		N05	, As5, v088
	.byte	W08
	.byte			Gs5, v104
	.byte	W12
	.byte		N02	, Gn5
	.byte	W12
	.byte		N03	, Fn5
	.byte	W12
	.byte			Ds5
	.byte	W04
	.byte		N09	, Dn5, v100
	.byte	W12
	.byte		N06	, Ds5, v104
	.byte	W11
	.byte		N02	, En5, v092
	.byte	W01
	.byte		N36	, Fn5
	.byte	W32
	.byte	W03
	.byte		N09	, Ds5, v100
	.byte	W08
	.byte		N03	, Dn5, v084
	.byte	W12
	.byte		N04	, Dn5, v096
	.byte	W04
	.byte		N08	, Fn5, v084
	.byte	W08
	.byte		N04	, Cn6, v096
	.byte	W04
	.byte		N03	, An5, v076
	.byte		N07	, As5
	.byte	W08
	.byte		N04	, Gs5, v088
	.byte	W04
	.byte		N07	, Gn5, v076
	.byte	W08
	.byte		N04	, Fn5, v080
	.byte	W03
	.byte		N02	, Fs5, v076
	.byte	W01
	.byte		N12	, Gn5
	.byte	W01
	.byte	W11
	.byte		N07	, Gs5, v100
	.byte	W08
	.byte		N04	, As5, v088
	.byte	W16
	.byte		N13	, Ds5, v100
	.byte	W13
	.byte		N07	, En5, v080
	.byte	W08
	.byte		N03	, Fn5, v088
	.byte	W16
	.byte			Cs5
	.byte	W01
	.byte		N11	, Dn5, v076
	.byte	W10
	.byte		N08	, Ds5, v100
	.byte	W08
	.byte		N04	, Fn5, v076
	.byte	W04
	.byte		N36	, Dn5, v088
	.byte	W01
	.byte	W32
	.byte	W02
	.byte		N08	, Cn5, v064
	.byte	W09
	.byte		N48	, As4, v068
	.byte	W52
	.byte	W01
	.byte	W08
	.byte		N04	, Gs4, v096
	.byte	W02
	.byte		N09	, As4, v080
	.byte	W09
	.byte		N04	, Cn5, v076
	.byte	W04
	.byte		N03	, Cs5, v088
	.byte	W02
	.byte		N06	, Dn5, v068
	.byte	W07
	.byte		N05	, Cs5, v092
	.byte	W03
	.byte		N08	, Dn5, v068
	.byte	W08
	.byte		N03	, Ds5, v084
	.byte	W04
	.byte		N07	, Fn5, v088
	.byte	W08
	.byte			En5, v068
	.byte	W03
	.byte		N08	, Fn5, v072
	.byte	W09
	.byte		N04	, Gn5, v084
	.byte	W04
	.byte		N07	, Gs5, v100
	.byte	W08
	.byte		N04	, Gn5, v080
	.byte	W03
	.byte		N07	, Gs5, v092
	.byte	W09
	.byte		N04	, As5
	.byte	W04
	.byte			Cn6, v104
	.byte	W01
	.byte	W01
	.byte		N10	, Cs6, v092
	.byte	W10
	.byte		N07	, Cn6, v076
	.byte	W08
	.byte		N03	, As5, v096
	.byte	W12
	.byte			Gs5, v104
	.byte	W13
	.byte		N12	, Gn5, v108
	.byte	W12
	.byte		N04	, Gs5, v088
	.byte	W04
	.byte		N07	, As5, v076
	.byte	W08
	.byte		N04	, En5, v080
	.byte	W04
	.byte		N08	, Fn5, v076
	.byte	W07
	.byte		N04	, Gn5, v080
	.byte	W04
	.byte		N07	, Dn5, v084
	.byte	W08
	.byte		N04	, Ds5
	.byte	W04
	.byte		N08	, Fn5, v076
	.byte	W01
	.byte	W07
	.byte		N04	, Ds5
	.byte	W04
	.byte		N07	, Dn5, v068
	.byte	W08
	.byte		N18	, Cn5, v076
	.byte	W32
	.byte	W03
	.byte		N03	, Fs5, v104
	.byte	W01
	.byte		N06	, Gn5, v088
	.byte	W05
	.byte		N07	, Gs5, v076
	.byte	W07
	.byte		N04	, Gn5, v064
	.byte	W04
	.byte		N08	, Fn5, v076
	.byte	W09
	.byte		N04	, Ds5, v088
	.byte	W04
	.byte		N07	, Dn5, v080
	.byte	W08
	.byte		N04	, Cs5, v104
	.byte	W04
	.byte		N03	, Dn5, v080
	.byte	W01
	.byte		N12	, Ds5, v112
	.byte	W11
	.byte		N07	, Fn5, v096
	.byte	W08
	.byte		N03	, Fs5, v108
	.byte	W12
	.byte		N04	, Gn5
	.byte	W12
	.byte			Gs5, v112
	.byte	W12
	.byte		N01	, An5, v108
	.byte	W12
	.byte		N02	, An5, v104
	.byte	W01
	.byte		N24	, As5, v096
	.byte	W24
	.byte	W03
	.byte	W96
	.byte	W96
	.byte	W96
	.byte	W56
	.byte	W03
	.byte		N13	, Cn6, v084
	.byte	W02
	.byte	BEND	, c_v+7
	.byte	W01
	.byte		c_v+15
	.byte	W01
	.byte		c_v+17
	.byte	W01
	.byte		c_v+12
	.byte	W01
	.byte		c_v
	.byte	W05
	.byte		N06	, As5, v068
	.byte	W09
	.byte		N04	, Gs5, v088
	.byte	W04
	.byte		N07	, Gn5, v068
	.byte	W08
	.byte		N03	, Fn5, v072
	.byte	W03
	.byte			Cs5, v080
	.byte	W02
	.byte		N06	, Dn5, v096
	.byte	W12
	.byte			Ds5, v104
	.byte	W12
	.byte		N05	, Fn5, v092
	.byte	W11
	.byte		N07	, Gn5, v108
	.byte	W08
	.byte		N04	, Gs5, v080
	.byte	W12
	.byte			Fn5, v088
	.byte	W04
	.byte		N07	, Gn5
	.byte	W08
	.byte		N04	, Gs5
	.byte	W03
	.byte		N07	, Fs5
	.byte	W09
	.byte		N04	, Gn5, v096
	.byte	W04
	.byte		N06	, Gs5, v088
	.byte	W08
	.byte		N04	, As5, v084
	.byte	W03
	.byte		N03	, Cn6, v080
	.byte	W02
	.byte		N06	, Cs6, v088
	.byte	W10
	.byte			Cs6, v104
	.byte	W13
	.byte		N09	, Cs6, v096
	.byte	W11
	.byte		N07	, Cn6, v080
	.byte	W09
	.byte		N04	, Bn5
	.byte	W13
	.byte			As5, v088
	.byte	W03
	.byte		N08	, Gs5
	.byte	W09
	.byte		N04	, Gn5, v068
	.byte	W04
	.byte		N07	, Fs5, v072
	.byte	W07
	.byte		N04	, Fn5, v068
	.byte	W04
	.byte		N07	, Ds5, v080
	.byte	W09
	.byte		N03	, Dn5, v068
	.byte	W04
	.byte		N08	, Cn5, v076
	.byte	W07
	.byte		N04	, Cs5, v088
	.byte	W04
	.byte		N20	, Cn6, v080
	.byte	W23
	.byte		N11	, Dn5, v052
	.byte	W09
	.byte		N04	, Ds5, v088
	.byte	W04
	.byte		N23	, Bn5, v044
	.byte	W24
	.byte		N07	, Cn5, v068
	.byte	W08
	.byte		N04	, Cs5, v080
	.byte	W04
	.byte		N12	, As5, v072
	.byte	W13
	.byte	W96
	.byte	W96
	.byte	W96
	.byte	W96
	.byte	W96
	.byte	W96
	.byte	W96
	.byte	GOTO	
		.word	song0018_2_1
	.byte	W96
	.byte	FINE

	@********************** Track  3 **********************@

	.global song0018_3
song0018_3:	@ 0x08C5CD96
	.byte	KEYSH	, 0
	.byte	VOICE	, 12
	.byte	VOL	, v023
	.byte	PAN	, c_v+30
	.byte	W03
	.byte	W96
	.byte	W96
song0018_3_1:
	.byte	W96
	.byte	W96
	.byte	W60
	.byte	W03
	.byte		N07	, Cn5, v104
	.byte	W12
	.byte			Dn5, v088
	.byte	W08
	.byte		N03	, Ds5, v104
	.byte	W11
	.byte		N04	, An5
	.byte	W01
	.byte		N36	, As5, v084
	.byte	W01
	.byte	W36
	.byte	W01
	.byte		N07	, Gs5, v092
	.byte	W09
	.byte		N06	, Gn5
	.byte	W13
	.byte		N04	, Gn5, v100
	.byte	W03
	.byte		N08	, Gs5, v088
	.byte	W08
	.byte		N04	, As5, v076
	.byte	W04
	.byte		N08	, Gs5, v088
	.byte	W08
	.byte		N04	, Gn5, v080
	.byte	W03
	.byte		N07	, Fn5
	.byte	W09
	.byte		N03	, Ds5, v096
	.byte	W02
	.byte	W03
	.byte			En5
	.byte		N32	, Fn5, v092
	.byte	W32
	.byte	W03
	.byte		N07	, Ds5, v096
	.byte	W08
	.byte		N04	, Dn5, v088
	.byte	W12
	.byte			Cs5, v100
	.byte	W01
	.byte		N18	, Dn5, v076
	.byte	W16
	.byte		N09	, Ds5, v088
	.byte	W11
	.byte		N03	, Dn5, v080
	.byte	W10
	.byte	W02
	.byte		N20	, Dn5, v100
	.byte	W21
	.byte		N66	, Cn5, v080
	.byte	W04
	.byte	VOL	, v039
	.byte	W03
	.byte		v037
	.byte	W03
	.byte		v035
	.byte	W04
	.byte		v033
	.byte	W03
	.byte		v031
	.byte	W03
	.byte		v029
	.byte	W04
	.byte		v028
	.byte	W03
	.byte		v025
	.byte	W03
	.byte		v024
	.byte	W04
	.byte		v022
	.byte	W03
	.byte		v020
	.byte	W03
	.byte		v018
	.byte	W04
	.byte		v017
	.byte	W03
	.byte		v014
	.byte	W03
	.byte		v013
	.byte	W04
	.byte		v011
	.byte	W03
	.byte		v009
	.byte	W03
	.byte		v007
	.byte	W04
	.byte		v006
	.byte	W02
	.byte	BEND	, c_v-3
	.byte	W01
	.byte		c_v-7
	.byte	W01
	.byte		c_v-10
	.byte	W01
	.byte		c_v-12
	.byte	W01
	.byte		c_v-14
	.byte	W03
	.byte	W01
	.byte		c_v-11
	.byte	W01
	.byte		c_v-8
	.byte	W01
	.byte		c_v-4
	.byte	W01
	.byte		c_v
	.byte	W44
	.byte	W03
	.byte	VOL	, v041
	.byte	W07
	.byte		N04	, Cn5, v096
	.byte	W05
	.byte		N07	, Dn5, v084
	.byte	W08
	.byte		N04	, Ds5, v104
	.byte	W04
	.byte		N07	, En5, v088
	.byte	W08
	.byte		N04	, Fn5, v080
	.byte	W03
	.byte		N08	, Gn5, v076
	.byte	W08
	.byte		N04	, Gs5, v080
	.byte	W02
	.byte	W02
	.byte		N03	, An5, v104
	.byte	W02
	.byte		N32	, As5, v096
	.byte	W32
	.byte	W02
	.byte		N08	, Gs5, v104
	.byte	W08
	.byte		N04	, Gn5, v080
	.byte	W13
	.byte			Gn5, v096
	.byte	W03
	.byte		N09	, Gs5, v088
	.byte	W08
	.byte		N04	, As5, v068
	.byte	W04
	.byte		N09	, Gs5, v088
	.byte	W08
	.byte		N04	, Gn5, v080
	.byte	W03
	.byte		N08	, Fn5, v084
	.byte	W09
	.byte		N04	, Ds5, v108
	.byte	W02
	.byte	W02
	.byte			En5, v100
	.byte	W01
	.byte		N32	, Fn5, v096
	.byte	W32
	.byte	W03
	.byte		N08	, Ds5, v104
	.byte	W08
	.byte		N04	, Dn5, v092
	.byte	W12
	.byte	BEND	, c_v-7
	.byte		N17	, Dn5, v108
	.byte	W01
	.byte	BEND	, c_v-16
	.byte	W01
	.byte		c_v-20
	.byte	W01
	.byte		c_v-19
	.byte	W01
	.byte		c_v
	.byte	W12
	.byte		N09	, Ds5, v088
	.byte	W13
	.byte		N12	, Fn5, v096
	.byte	W09
	.byte	W03
	.byte		N20	, Dn5, v092
	.byte	W20
	.byte		N72	, Cn5, v096
	.byte	W04
	.byte	VOL	, v039
	.byte	W03
	.byte		v037
	.byte	W03
	.byte		v035
	.byte	W04
	.byte		v033
	.byte	W03
	.byte		v031
	.byte	W03
	.byte		v029
	.byte	W04
	.byte		v028
	.byte	W03
	.byte		v025
	.byte	W03
	.byte		v024
	.byte	W04
	.byte		v022
	.byte	W03
	.byte		v020
	.byte	W03
	.byte		v018
	.byte	W04
	.byte		v017
	.byte	W03
	.byte		v014
	.byte	W03
	.byte		v013
	.byte	W04
	.byte		v011
	.byte	W03
	.byte		v009
	.byte	W03
	.byte		v007
	.byte	W04
	.byte		v006
	.byte	W09
	.byte	W48
	.byte	W03
	.byte		v041
	.byte	W44
	.byte	W01
	.byte	W10
	.byte		N02	, Bn4, v088
	.byte	W01
	.byte		N13	, Cn5, v092
	.byte	W15
	.byte		N03	, An5, v084
	.byte	W01
	.byte		N05	, As5, v088
	.byte	W08
	.byte			Gs5, v104
	.byte	W12
	.byte		N02	, Gn5
	.byte	W12
	.byte		N03	, Fn5
	.byte	W12
	.byte			Ds5
	.byte	W04
	.byte		N09	, Dn5, v100
	.byte	W12
	.byte		N06	, Ds5, v104
	.byte	W09
	.byte	W02
	.byte		N02	, En5, v092
	.byte	W01
	.byte		N36	, Fn5
	.byte	W32
	.byte	W03
	.byte		N09	, Ds5, v100
	.byte	W08
	.byte		N03	, Dn5, v084
	.byte	W12
	.byte		N04	, Dn5, v096
	.byte	W04
	.byte		N08	, Fn5, v084
	.byte	W08
	.byte		N04	, Cn6, v096
	.byte	W04
	.byte		N03	, An5, v076
	.byte		N07	, As5
	.byte	W08
	.byte		N04	, Gs5, v088
	.byte	W04
	.byte		N07	, Gn5, v076
	.byte	W08
	.byte		N04	, Fn5, v080
	.byte	W02
	.byte	W01
	.byte		N02	, Fs5, v076
	.byte	W01
	.byte		N12	, Gn5
	.byte	W12
	.byte		N07	, Gs5, v100
	.byte	W08
	.byte		N04	, As5, v088
	.byte	W16
	.byte		N13	, Ds5, v100
	.byte	W13
	.byte		N07	, En5, v080
	.byte	W08
	.byte		N03	, Fn5, v088
	.byte	W16
	.byte			Cs5
	.byte	W01
	.byte		N11	, Dn5, v076
	.byte	W10
	.byte		N08	, Ds5, v100
	.byte	W08
	.byte		N04	, Fn5, v076
	.byte	W02
	.byte	W02
	.byte		N36	, Dn5, v088
	.byte	W32
	.byte	W03
	.byte		N08	, Cn5, v064
	.byte	W09
	.byte		N48	, As4, v068
	.byte	W48
	.byte	W02
	.byte	W11
	.byte		N04	, Gs4, v096
	.byte	W02
	.byte		N09	, As4, v080
	.byte	W09
	.byte		N04	, Cn5, v076
	.byte	W04
	.byte		N03	, Cs5, v088
	.byte	W02
	.byte		N06	, Dn5, v068
	.byte	W07
	.byte		N05	, Cs5, v092
	.byte	W03
	.byte		N08	, Dn5, v068
	.byte	W08
	.byte		N03	, Ds5, v084
	.byte	W04
	.byte		N07	, Fn5, v088
	.byte	W08
	.byte			En5, v068
	.byte	W03
	.byte		N08	, Fn5, v072
	.byte	W09
	.byte		N04	, Gn5, v084
	.byte	W04
	.byte		N07	, Gs5, v100
	.byte	W08
	.byte		N04	, Gn5, v080
	.byte	W03
	.byte		N07	, Gs5, v092
	.byte	W09
	.byte		N04	, As5
	.byte	W02
	.byte	W02
	.byte			Cn6, v104
	.byte	W02
	.byte		N10	, Cs6, v092
	.byte	W10
	.byte		N07	, Cn6, v076
	.byte	W08
	.byte		N03	, As5, v096
	.byte	W12
	.byte			Gs5, v104
	.byte	W13
	.byte		N12	, Gn5, v108
	.byte	W12
	.byte		N04	, Gs5, v088
	.byte	W04
	.byte		N07	, As5, v076
	.byte	W08
	.byte		N04	, En5, v080
	.byte	W04
	.byte		N08	, Fn5, v076
	.byte	W07
	.byte		N04	, Gn5, v080
	.byte	W04
	.byte		N07	, Dn5, v084
	.byte	W08
	.byte		N04	, Ds5
	.byte	W02
	.byte	W02
	.byte		N08	, Fn5, v076
	.byte	W08
	.byte		N04	, Ds5
	.byte	W04
	.byte		N07	, Dn5, v068
	.byte	W08
	.byte		N18	, Cn5, v076
	.byte	W32
	.byte	W03
	.byte		N03	, Fs5, v104
	.byte	W01
	.byte		N06	, Gn5, v088
	.byte	W05
	.byte		N07	, Gs5, v076
	.byte	W07
	.byte		N04	, Gn5, v064
	.byte	W04
	.byte		N08	, Fn5, v076
	.byte	W09
	.byte		N04	, Ds5, v088
	.byte	W04
	.byte		N07	, Dn5, v080
	.byte	W08
	.byte		N04	, Cs5, v104
	.byte	W01
	.byte	W03
	.byte		N03	, Dn5, v080
	.byte	W01
	.byte		N12	, Ds5, v112
	.byte	W11
	.byte		N07	, Fn5, v096
	.byte	W08
	.byte		N03	, Fs5, v108
	.byte	W12
	.byte		N04	, Gn5
	.byte	W12
	.byte			Gs5, v112
	.byte	W12
	.byte		N01	, An5, v108
	.byte	W12
	.byte		N02	, An5, v104
	.byte	W01
	.byte		N24	, As5, v096
	.byte	W24
	.byte	W96
	.byte	W96
	.byte	W96
	.byte	W60
	.byte	W02
	.byte		N13	, Cn6, v084
	.byte	W02
	.byte	BEND	, c_v+7
	.byte	W01
	.byte		c_v+15
	.byte	W01
	.byte		c_v+17
	.byte	W01
	.byte		c_v+12
	.byte	W01
	.byte		c_v
	.byte	W05
	.byte		N06	, As5, v068
	.byte	W09
	.byte		N04	, Gs5, v088
	.byte	W04
	.byte		N07	, Gn5, v068
	.byte	W08
	.byte		N03	, Fn5, v072
	.byte	W02
	.byte	W01
	.byte			Cs5, v080
	.byte	W02
	.byte		N06	, Dn5, v096
	.byte	W12
	.byte			Ds5, v104
	.byte	W12
	.byte		N05	, Fn5, v092
	.byte	W11
	.byte		N07	, Gn5, v108
	.byte	W08
	.byte		N04	, Gs5, v080
	.byte	W12
	.byte			Fn5, v088
	.byte	W04
	.byte		N07	, Gn5
	.byte	W08
	.byte		N04	, Gs5
	.byte	W03
	.byte		N07	, Fs5
	.byte	W09
	.byte		N04	, Gn5, v096
	.byte	W04
	.byte		N06	, Gs5, v088
	.byte	W08
	.byte		N04	, As5, v084
	.byte	W02
	.byte	W01
	.byte		N03	, Cn6, v080
	.byte	W02
	.byte		N06	, Cs6, v088
	.byte	W10
	.byte			Cs6, v104
	.byte	W13
	.byte		N09	, Cs6, v096
	.byte	W11
	.byte		N07	, Cn6, v080
	.byte	W09
	.byte		N04	, Bn5
	.byte	W13
	.byte			As5, v088
	.byte	W03
	.byte		N08	, Gs5
	.byte	W09
	.byte		N04	, Gn5, v068
	.byte	W04
	.byte		N07	, Fs5, v072
	.byte	W07
	.byte		N04	, Fn5, v068
	.byte	W04
	.byte		N07	, Ds5, v080
	.byte	W09
	.byte		N03	, Dn5, v068
	.byte	W01
	.byte	W03
	.byte		N08	, Cn5, v076
	.byte	W07
	.byte		N04	, Cs5, v088
	.byte	W04
	.byte		N20	, Cn6, v080
	.byte	W23
	.byte		N11	, Dn5, v052
	.byte	W09
	.byte		N04	, Ds5, v088
	.byte	W04
	.byte		N23	, Bn5, v044
	.byte	W24
	.byte		N07	, Cn5, v068
	.byte	W08
	.byte		N04	, Cs5, v080
	.byte	W04
	.byte		N12	, As5, v072
	.byte	W10
	.byte	W96
	.byte	W96
	.byte	W96
	.byte	W96
	.byte	W96
	.byte	W96
	.byte	W96
	.byte	GOTO	
		.word	song0018_3_1
	.byte	W96
	.byte	FINE

	@********************** Track  4 **********************@

	.global song0018_4
song0018_4:	@ 0x08C5D0EF
	.byte	KEYSH	, 0
	.byte	VOICE	, 46
	.byte	VOL	, v094
	.byte	W03
song0018_4_1:
	.byte		N24	, Gs2, v120
	.byte	W24
	.byte		N18	, An2
	.byte	W18
	.byte		N06	, As2
	.byte	W54
	.byte	PEND
song0018_4_6:
	.byte		N24	, Ds3, v120
	.byte	W24
	.byte		N18	, En3
	.byte	W18
	.byte		N06	, Fn3
	.byte	W14
	.byte		N16	, Fn3, v100
	.byte	W16
	.byte		N08	, Ds3
	.byte	W08
	.byte		N04	, Dn3
	.byte	W04
	.byte		N08	, Cn3
	.byte	W08
	.byte		N04	, As2
	.byte	W04
	.byte	PEND
song0018_4_7:
	.byte	PATT	
		.word	song0018_4_1
	.byte		N08	, Gs2, v100
	.byte	W12
	.byte			Gs1
	.byte	W08
	.byte			Gs2
	.byte	W12
	.byte		N04	
	.byte	W12
	.byte		N08	
	.byte	W12
	.byte		N08	
	.byte	W12
	.byte		N04	
	.byte	W04
	.byte		N12	, Gs1
	.byte	W12
	.byte		N04	, An2
	.byte	W08
	.byte		N04	
	.byte	W04
	.byte			As2
	.byte	W08
	.byte		N04	
	.byte	W04
	.byte			As1
	.byte	W08
	.byte			As2
	.byte	W12
	.byte		N04	
	.byte	W12
	.byte		N08	
	.byte	W52
song0018_4_3:
	.byte		N24	, Cn3, v120
	.byte	W24
	.byte		N20	, Fn2
	.byte	W20
	.byte		N12	, Ds2
	.byte	W12
	.byte		N04	, Cn2
	.byte	W04
	.byte		N12	, Fn2
	.byte	W12
	.byte			Cn3
	.byte	W12
	.byte			Fn2
	.byte	W12
	.byte	PEND
song0018_4_2:
	.byte		N24	, As2, v120
	.byte	W24
	.byte		N20	, Fn2
	.byte	W20
	.byte		N12	, As1
	.byte	W12
	.byte		N04	
	.byte	W04
	.byte		N12	, Fn2
	.byte	W12
	.byte			As2
	.byte	W12
	.byte			Fn2
	.byte	W12
	.byte	PEND
song0018_4_4:
	.byte		N24	, Cn3, v120
	.byte	W24
	.byte		N20	, Fn2
	.byte	W20
	.byte		N12	, Ds2
	.byte	W12
	.byte		N04	, Cn2
	.byte	W04
	.byte		N12	, Fn2
	.byte	W12
	.byte			An2
	.byte	W12
	.byte			Fn2
	.byte	W12
	.byte	PEND
	.byte	PATT	
		.word	song0018_4_2
	.byte	PATT	
		.word	song0018_4_3
	.byte	PATT	
		.word	song0018_4_2
	.byte	PATT	
		.word	song0018_4_4
	.byte	PATT	
		.word	song0018_4_2
	.byte	PATT	
		.word	song0018_4_3
	.byte	PATT	
		.word	song0018_4_2
	.byte	PATT	
		.word	song0018_4_4
	.byte	PATT	
		.word	song0018_4_2
	.byte		N24	, Cn3, v120
	.byte	W24
	.byte		N20	, Fn2
	.byte	W20
	.byte		N12	, Ds2
	.byte	W12
	.byte		N04	, Cn2
	.byte	W04
	.byte		N12	, Fn2
	.byte	W12
	.byte			Gs2
	.byte	W12
	.byte			Fn2
	.byte	W12
	.byte	PATT	
		.word	song0018_4_2
	.byte	PATT	
		.word	song0018_4_3
	.byte	PATT	
		.word	song0018_4_2
song0018_4_5:
	.byte		N24	, Cn3, v120
	.byte	W24
	.byte		N20	, Fn2
	.byte	W20
	.byte		N12	, Ds2
	.byte	W12
	.byte		N04	
	.byte	W04
	.byte		N12	, Fn2
	.byte	W12
	.byte			Gs2
	.byte	W12
	.byte			Cn3
	.byte	W12
	.byte	PEND
	.byte	PATT	
		.word	song0018_4_2
	.byte	PATT	
		.word	song0018_4_5
	.byte		N24	, As2, v120
	.byte	W24
	.byte		N20	, Fn2
	.byte	W20
	.byte		N12	, Dn2
	.byte	W12
	.byte		N04	
	.byte	W04
	.byte		N12	, Fn2
	.byte	W12
	.byte			As2
	.byte	W12
	.byte			Fn2
	.byte	W12
	.byte	PATT	
		.word	song0018_4_5
	.byte	PATT	
		.word	song0018_4_2
	.byte	PATT	
		.word	song0018_4_5
	.byte		N05	, As2, v120
	.byte	W08
	.byte		N04	
	.byte	W04
	.byte		N08	
	.byte	W20
	.byte		N08	
	.byte	W08
	.byte			Bn2
	.byte	W08
	.byte		N24	, Cn3
	.byte	W48
	.byte	PATT	
		.word	song0018_4_1
	.byte	PATT	
		.word	song0018_4_6
	.byte	PATT	
		.word	song0018_4_1
	.byte		N24	, As2, v120
	.byte	W24
	.byte		N18	, An2
	.byte	W18
	.byte		N06	, Gs2
	.byte	W54
	.byte	PATT	
		.word	song0018_4_1
	.byte	PATT	
		.word	song0018_4_6
	.byte	GOTO	
		.word	song0018_4_7
	.byte	W96
	.byte	FINE

	@********************** Track  5 **********************@

	.global song0018_5
song0018_5:	@ 0x08C5D24C
	.byte	KEYSH	, 0
	.byte	VOICE	, 127
	.byte	VOL	, v094
	.byte	W03
song0018_5_1:
	.byte		N24	, Ds2, v112
	.byte	W24
	.byte		N24	
	.byte	W24
	.byte		N24	
	.byte	W24
	.byte		N24	
	.byte	W24
	.byte	PEND
	.byte	PATT	
		.word	song0018_5_1
song0018_5_8:
	.byte		N24	, Ds2, v112
	.byte	W24
	.byte		N24	
	.byte	W24
	.byte		N12	
	.byte	W12
	.byte		N04	, Gn1, v100
	.byte	W04
	.byte		N04	
	.byte	W04
	.byte		N04	
	.byte	W04
	.byte		N08	, An1
	.byte	W08
	.byte		N04	
	.byte	W04
	.byte		N08	, Gs1
	.byte	W08
	.byte		N04	, Fs1
	.byte	W04
	.byte		N12	, Ds2, v112
	.byte	W12
	.byte			Dn2
	.byte	W12
	.byte			Ds2
	.byte	W12
	.byte			Dn2
	.byte	W12
	.byte			Ds2
	.byte	W12
	.byte			Dn2
	.byte	W12
	.byte		N08	, An1
	.byte	W08
	.byte		N04	, Gn1
	.byte	W04
	.byte		N08	, Fs1
	.byte	W08
	.byte		N04	, Gs1
	.byte	W04
	.byte		N24	, Ds2
	.byte	W24
	.byte		N18	
	.byte	W20
	.byte		N12	
	.byte	W12
	.byte		N12	
	.byte	W12
	.byte		N04	
	.byte	W04
	.byte		N08	
	.byte	W08
	.byte		N04	, Cs1, v100
	.byte	W04
	.byte		N08	, Cs1, v116
	.byte	W08
	.byte		N04	, Cs1, v108
	.byte	W04
song0018_5_2:
	.byte		N24	, Ds2, v112
	.byte	W24
	.byte		N24	
	.byte	W24
	.byte		N24	
	.byte	W24
	.byte		N12	
	.byte	W12
	.byte			Cs1
	.byte	W12
	.byte	PEND
song0018_5_5:
	.byte		N24	, Ds2, v112
	.byte	W24
	.byte		N18	
	.byte	W20
	.byte		N12	
	.byte	W12
	.byte		N12	
	.byte	W12
	.byte		N04	
	.byte	W04
	.byte		N12	
	.byte	W12
	.byte		N08	, Cs1
	.byte	W08
	.byte		N04	, Cs1, v100
	.byte	W04
	.byte	PEND
	.byte	W96
	.byte	W48
	.byte		N08	, Ds2, v112
	.byte	W08
	.byte		N04	, Cs1
	.byte	W04
	.byte		N08	
	.byte	W08
	.byte		N04	
	.byte	W04
	.byte		N04	
	.byte	W04
	.byte			Cs1, v100
	.byte	W04
	.byte			Cs1, v112
	.byte	W04
	.byte		N08	
	.byte	W08
	.byte		N04	, Cs1, v100
	.byte	W04
	.byte	PATT	
		.word	song0018_5_2
song0018_5_3:
	.byte		N24	, Ds2, v112
	.byte	W24
	.byte		N20	
	.byte	W20
	.byte		N12	
	.byte	W12
	.byte		N04	, Cs1
	.byte	W04
	.byte		N12	, Ds2
	.byte	W12
	.byte			Cs1
	.byte	W12
	.byte		N08	, Ds2
	.byte	W08
	.byte		N04	
	.byte	W04
	.byte	PEND
song0018_5_4:
	.byte		N24	, Ds2, v112
	.byte	W24
	.byte		N20	
	.byte	W20
	.byte		N04	, Cs1
	.byte	W04
	.byte		N08	, Ds2
	.byte	W08
	.byte		N04	, Cs1
	.byte	W04
	.byte		N12	, Ds2
	.byte	W12
	.byte		N12	
	.byte	W12
	.byte			Cs1
	.byte	W12
	.byte	PEND
	.byte		N24	, Ds2
	.byte	W24
	.byte		N20	
	.byte	W20
	.byte		N12	
	.byte	W12
	.byte		N12	
	.byte	W12
	.byte		N04	
	.byte	W04
	.byte		N12	
	.byte	W12
	.byte		N08	, Cs1
	.byte	W08
	.byte		N04	
	.byte	W04
	.byte	W96
	.byte	W96
	.byte		N20	, Ds2
	.byte	W20
	.byte		N04	, Ds2, v088
	.byte	W76
	.byte		N24	, Ds2, v112
	.byte	W48
	.byte		N08	, Cs1
	.byte	W08
	.byte		N04	
	.byte	W04
	.byte		N08	
	.byte	W08
	.byte		N04	
	.byte	W04
	.byte		N04	
	.byte	W04
	.byte		N04	
	.byte	W04
	.byte		N04	
	.byte	W04
	.byte		N08	
	.byte	W08
	.byte		N04	
	.byte	W04
	.byte	PATT	
		.word	song0018_5_2
	.byte	PATT	
		.word	song0018_5_3
	.byte	PATT	
		.word	song0018_5_4
	.byte	PATT	
		.word	song0018_5_5
song0018_5_6:
	.byte		N24	, Ds2, v112
	.byte	W24
	.byte		N20	, Cs1
	.byte	W20
	.byte		N12	, Ds2
	.byte	W12
	.byte		N04	
	.byte	W04
	.byte		N12	
	.byte	W12
	.byte		N12	
	.byte	W12
	.byte			Cs1
	.byte	W12
	.byte	PEND
song0018_5_7:
	.byte		N24	, Ds2, v112
	.byte	W24
	.byte		N20	, Cs1
	.byte	W20
	.byte		N12	, Ds2
	.byte	W12
	.byte		N04	, Cs1
	.byte	W04
	.byte		N12	, Ds2
	.byte	W12
	.byte			Cs1
	.byte	W12
	.byte		N08	, Ds2
	.byte	W08
	.byte		N04	
	.byte	W04
	.byte	PEND
	.byte	PATT	
		.word	song0018_5_4
	.byte		N24	, Ds2, v112
	.byte	W24
	.byte		N12	, Cs1
	.byte	W12
	.byte		N08	, Ds2
	.byte	W08
	.byte		N12	, Cs1
	.byte	W12
	.byte		N04	
	.byte	W04
	.byte		N12	, Ds2
	.byte	W12
	.byte			Cs1
	.byte	W12
	.byte		N08	, Ds2
	.byte	W08
	.byte		N04	
	.byte	W04
	.byte	PATT	
		.word	song0018_5_6
	.byte	PATT	
		.word	song0018_5_7
	.byte		N24	, Ds2, v112
	.byte	W24
	.byte		N20	
	.byte	W20
	.byte		N04	, Cs1
	.byte	W04
	.byte		N08	, Ds2
	.byte	W08
	.byte		N04	, Cs1
	.byte	W04
	.byte		N12	, Ds2
	.byte	W12
	.byte		N08	, Gs1, v120
	.byte	W08
	.byte		N04	
	.byte	W04
	.byte		N08	, Fs1
	.byte	W08
	.byte		N04	
	.byte	W04
	.byte		N06	, An1
	.byte	W08
	.byte		N04	
	.byte	W04
	.byte		N06	
	.byte	W12
	.byte		N08	, Cs1
	.byte	W08
	.byte			Ds2
	.byte	W08
	.byte		N08	
	.byte	W08
	.byte		N04	, Cs1, v112
	.byte	W04
	.byte		N04	
	.byte	W04
	.byte		N04	
	.byte	W04
	.byte		N08	
	.byte	W08
	.byte		N04	
	.byte	W04
	.byte		N08	, Gn1, v120
	.byte	W08
	.byte		N04	
	.byte	W04
	.byte		N08	, Fn1
	.byte	W08
	.byte		N04	
	.byte	W04
	.byte	PATT	
		.word	song0018_5_1
	.byte	PATT	
		.word	song0018_5_1
	.byte		N24	, Ds2, v112
	.byte	W24
	.byte		N24	
	.byte	W24
	.byte		N08	
	.byte	W08
	.byte		N12	, Cs1, v100
	.byte	W12
	.byte		N04	
	.byte	W04
	.byte		N12	
	.byte	W12
	.byte		N08	
	.byte	W08
	.byte		N04	, Cs1, v092
	.byte	W04
	.byte		N24	, Ds2, v112
	.byte	W24
	.byte		N24	
	.byte	W24
	.byte		N24	
	.byte	W24
	.byte		N12	, Ds2, v100
	.byte	W12
	.byte		N08	
	.byte	W08
	.byte		N04	, Ds2, v092
	.byte	W04
	.byte	PATT	
		.word	song0018_5_1
	.byte	PATT	
		.word	song0018_5_1
	.byte	GOTO	
		.word	song0018_5_8
	.byte	W96
	.byte	FINE

	@********************** Track  6 **********************@

	.global song0018_6
song0018_6:	@ 0x08C5D43F
	.byte	KEYSH	, 0
	.byte	VOICE	, 127
	.byte	VOL	, v094
	.byte	W03
song0018_6_1:
	.byte		N08	, Dn1, v060
	.byte	W08
	.byte		N04	, Dn1, v052
	.byte	W04
	.byte		N08	, Dn1, v060
	.byte	W08
	.byte		N04	, Dn1, v052
	.byte	W04
	.byte		N08	, Dn1, v060
	.byte	W08
	.byte		N04	, Dn1, v052
	.byte	W04
	.byte		N08	, Dn1, v060
	.byte	W08
	.byte		N04	, Dn1, v052
	.byte	W04
	.byte		N08	, Dn1, v060
	.byte	W08
	.byte		N04	, Dn1, v052
	.byte	W04
	.byte		N08	, Dn1, v060
	.byte	W08
	.byte		N04	, Dn1, v052
	.byte	W04
	.byte		N08	, Ds1, v060
	.byte	W08
	.byte		N04	, Dn1, v052
	.byte	W04
	.byte		N08	, Dn1, v060
	.byte	W08
	.byte		N04	, Dn1, v052
	.byte	W04
	.byte	PEND
song0018_6_2:
	.byte		N08	, Dn1, v060
	.byte	W08
	.byte		N04	, Dn1, v052
	.byte	W04
	.byte		N08	, Dn1, v060
	.byte	W08
	.byte		N04	, Dn1, v052
	.byte	W04
	.byte		N08	, Dn1, v060
	.byte	W08
	.byte		N04	, Dn1, v052
	.byte	W04
	.byte		N08	, Dn1, v060
	.byte	W08
	.byte		N04	, Dn1, v052
	.byte	W04
	.byte		N08	, Ds1, v060
	.byte	W08
	.byte		N04	, Dn1, v052
	.byte	W04
	.byte		N08	, Dn1, v060
	.byte	W08
	.byte		N04	, Dn1, v052
	.byte	W04
	.byte		N04	
	.byte	W04
	.byte		N04	
	.byte	W04
	.byte		N04	
	.byte	W04
	.byte		N08	, Dn1, v060
	.byte	W08
	.byte		N04	, Ds1, v052
	.byte	W04
	.byte	PEND
song0018_6_3:
	.byte		N24	, Fs2, v120
	.byte	W08
	.byte		N04	, Dn1, v052
	.byte	W04
	.byte		N08	, Dn1, v060
	.byte	W08
	.byte		N04	, Dn1, v052
	.byte	W04
	.byte		N08	, Dn1, v060
	.byte	W08
	.byte		N04	, Dn1, v052
	.byte	W04
	.byte		N08	, Dn1, v060
	.byte	W08
	.byte		N04	, Dn1, v052
	.byte	W04
	.byte		N08	, Dn1, v060
	.byte	W08
	.byte		N04	, Dn1, v052
	.byte	W04
	.byte		N08	, Dn1, v060
	.byte	W08
	.byte		N04	, Dn1, v052
	.byte	W04
	.byte		N08	, Ds1, v060
	.byte	W08
	.byte		N04	, Dn1, v052
	.byte	W04
	.byte		N08	, Dn1, v060
	.byte	W08
	.byte		N04	, Dn1, v052
	.byte	W04
	.byte	PEND
	.byte		N24	, Gn2, v120
	.byte	W08
	.byte		N04	, Dn1, v052
	.byte	W04
	.byte		N08	, Dn1, v060
	.byte	W08
	.byte		N04	, Dn1, v052
	.byte	W04
	.byte		N08	, Dn1, v060
	.byte	W08
	.byte		N04	, Dn1, v052
	.byte	W04
	.byte		N08	, Dn1, v060
	.byte	W08
	.byte		N04	, Dn1, v052
	.byte	W04
	.byte		N08	, Ds1, v060
	.byte	W08
	.byte		N04	, Dn1, v052
	.byte	W04
	.byte		N08	, Dn1, v060
	.byte	W08
	.byte		N04	, Dn1, v052
	.byte	W04
	.byte		N04	
	.byte	W04
	.byte		N04	
	.byte	W04
	.byte		N04	
	.byte	W04
	.byte		N08	, Dn1, v060
	.byte	W08
	.byte		N04	, Ds1, v052
	.byte	W04
	.byte		N18	, Fs2, v120
	.byte	W08
	.byte		N04	, Dn1, v052
	.byte	W04
	.byte		N08	, Dn1, v060
	.byte	W08
	.byte		N04	, Dn1, v052
	.byte	W04
	.byte		N08	, Dn1, v060
	.byte	W08
	.byte		N04	, Dn1, v052
	.byte	W04
	.byte		N08	, Dn1, v060
	.byte	W08
	.byte		N04	, Dn1, v052
	.byte	W52
	.byte		N24	, Gn2, v120
	.byte	W08
	.byte		N04	, Dn1, v052
	.byte	W04
	.byte		N08	, Dn1, v060
	.byte	W08
	.byte		N04	, Dn1, v052
	.byte	W04
	.byte		N08	, Dn1, v060
	.byte	W08
	.byte		N04	, Dn1, v052
	.byte	W04
	.byte		N08	, Dn1, v060
	.byte	W08
	.byte		N04	, Dn1, v052
	.byte	W04
	.byte		N08	, Dn1, v060
	.byte	W08
	.byte		N04	, Dn1, v052
	.byte	W04
	.byte		N08	, Dn1, v060
	.byte	W08
	.byte		N04	, Dn1, v052
	.byte	W04
	.byte		N08	, Ds1, v060
	.byte	W08
	.byte		N04	, Dn1, v052
	.byte	W04
	.byte		N08	, Dn1, v060
	.byte	W08
	.byte		N04	, Dn1, v052
	.byte	W04
	.byte	PATT	
		.word	song0018_6_1
	.byte		N08	, Dn1, v060
	.byte	W08
	.byte		N04	, Dn1, v052
	.byte	W04
	.byte		N08	, Dn1, v060
	.byte	W08
	.byte		N04	, Dn1, v052
	.byte	W04
	.byte		N08	, Dn1, v060
	.byte	W08
	.byte		N04	, Dn1, v052
	.byte	W04
	.byte		N08	, Dn1, v060
	.byte	W08
	.byte		N04	, Dn1, v052
	.byte	W04
	.byte		N08	, Dn1, v060
	.byte	W08
	.byte		N04	, Ds1, v052
	.byte	W04
	.byte		N08	, Dn1, v060
	.byte	W08
	.byte		N04	, Dn1, v052
	.byte	W04
	.byte			Ds1
	.byte	W04
	.byte			Dn1
	.byte	W04
	.byte		N04	
	.byte	W04
	.byte		N08	, Dn1, v060
	.byte	W08
	.byte		N04	, Dn1, v052
	.byte	W04
	.byte	PATT	
		.word	song0018_6_1
	.byte		N16	, Cs2, v120
	.byte	W08
	.byte		N04	, Dn1, v052
	.byte	W04
	.byte		N08	, Dn1, v060
	.byte	W08
	.byte		N04	, Dn1, v052
	.byte	W04
	.byte		N08	, Dn1, v060
	.byte	W08
	.byte		N04	, Dn1, v052
	.byte	W04
	.byte		N08	, Dn1, v060
	.byte	W08
	.byte		N04	, Dn1, v052
	.byte	W04
	.byte		N08	, Ds1, v060
	.byte	W08
	.byte		N04	, Dn1, v052
	.byte	W04
	.byte		N08	, Dn1, v060
	.byte	W08
	.byte		N04	, Dn1, v052
	.byte	W04
	.byte		N04	
	.byte	W04
	.byte		N04	
	.byte	W04
	.byte		N04	
	.byte	W04
	.byte		N08	, Dn1, v060
	.byte	W08
	.byte		N04	, Ds1, v052
	.byte	W04
	.byte	PATT	
		.word	song0018_6_1
	.byte	PATT	
		.word	song0018_6_2
	.byte		N08	, Dn1, v060
	.byte	W08
	.byte		N04	, Dn1, v052
	.byte	W04
	.byte		N08	, Dn1, v060
	.byte	W08
	.byte		N04	, Dn1, v052
	.byte	W04
	.byte		N08	, Dn1, v060
	.byte	W08
	.byte		N04	, Dn1, v052
	.byte	W04
	.byte		N08	, Dn1, v060
	.byte	W08
	.byte		N04	, Dn1, v052
	.byte	W04
	.byte		N08	, Dn1, v060
	.byte	W08
	.byte		N04	, Ds1
	.byte	W04
	.byte		N08	, Dn1
	.byte	W08
	.byte		N04	, Dn1, v052
	.byte	W04
	.byte		N08	, En1, v072
	.byte	W08
	.byte		N04	, Dn1, v052
	.byte	W04
	.byte		N08	, Dn1, v060
	.byte	W08
	.byte		N04	, Ds1
	.byte	W04
	.byte	W96
	.byte	W96
	.byte			Dn1, v072
	.byte	W04
	.byte			Dn1, v052
	.byte	W04
	.byte			Dn1, v060
	.byte	W04
	.byte		N08	
	.byte	W08
	.byte		N04	, Dn1, v052
	.byte	W76
	.byte	PATT	
		.word	song0018_6_1
	.byte		N24	, Fs2, v120
	.byte	W08
	.byte		N04	, Dn1, v052
	.byte	W04
	.byte		N08	, Dn1, v060
	.byte	W08
	.byte		N04	, Dn1, v052
	.byte	W04
	.byte		N08	, Dn1, v060
	.byte	W08
	.byte		N04	, Dn1, v052
	.byte	W04
	.byte		N08	, Dn1, v060
	.byte	W08
	.byte		N04	, Dn1, v052
	.byte	W04
	.byte		N08	, Ds1, v060
	.byte	W08
	.byte		N04	, Dn1, v052
	.byte	W04
	.byte		N08	, Dn1, v060
	.byte	W08
	.byte		N04	, Dn1, v052
	.byte	W04
	.byte		N04	
	.byte	W04
	.byte		N04	
	.byte	W04
	.byte		N04	
	.byte	W04
	.byte		N08	, Dn1, v060
	.byte	W08
	.byte		N04	, Ds1, v052
	.byte	W04
	.byte	PATT	
		.word	song0018_6_1
	.byte	PATT	
		.word	song0018_6_2
	.byte	PATT	
		.word	song0018_6_1
	.byte	PATT	
		.word	song0018_6_2
	.byte	PATT	
		.word	song0018_6_1
	.byte	PATT	
		.word	song0018_6_2
	.byte	PATT	
		.word	song0018_6_1
	.byte	PATT	
		.word	song0018_6_2
	.byte	PATT	
		.word	song0018_6_1
	.byte	PATT	
		.word	song0018_6_2
	.byte		N24	, Cs2, v120
	.byte	W36
	.byte			Fs2
	.byte	W12
	.byte			Cs2
	.byte	W48
	.byte		N24	
	.byte	W12
	.byte		N08	, Dn1, v060
	.byte	W08
	.byte		N04	, Dn1, v052
	.byte	W04
	.byte		N08	, Dn1, v060
	.byte	W08
	.byte		N04	, Dn1, v052
	.byte	W04
	.byte		N08	, Dn1, v060
	.byte	W08
	.byte		N04	, Dn1, v052
	.byte	W04
	.byte		N08	, Dn1, v060
	.byte	W08
	.byte		N04	, Dn1, v052
	.byte	W04
	.byte		N08	, Dn1, v060
	.byte	W08
	.byte		N04	, Dn1, v052
	.byte	W04
	.byte		N08	, Ds1, v060
	.byte	W08
	.byte		N04	, Dn1, v052
	.byte	W04
	.byte		N08	, Dn1, v060
	.byte	W08
	.byte		N04	, Dn1, v052
	.byte	W04
	.byte	PATT	
		.word	song0018_6_2
	.byte	PATT	
		.word	song0018_6_3
	.byte		N24	, Fn2, v120
	.byte	W08
	.byte		N04	, Dn1, v052
	.byte	W04
	.byte		N08	, Dn1, v060
	.byte	W08
	.byte		N04	, Dn1, v052
	.byte	W04
	.byte		N08	, Dn1, v060
	.byte	W08
	.byte		N04	, Dn1, v052
	.byte	W04
	.byte		N08	, Dn1, v060
	.byte	W08
	.byte		N04	, Dn1, v052
	.byte	W04
	.byte		N04	
	.byte	W04
	.byte		N04	
	.byte	W04
	.byte		N04	
	.byte	W04
	.byte		N08	, Dn1, v060
	.byte	W08
	.byte		N04	, Dn1, v052
	.byte	W04
	.byte		N04	
	.byte	W04
	.byte		N04	
	.byte	W04
	.byte		N04	
	.byte	W04
	.byte		N08	, Ds1, v060
	.byte	W08
	.byte		N04	, Ds1, v052
	.byte	W04
	.byte	PATT	
		.word	song0018_6_3
	.byte	PATT	
		.word	song0018_6_2
	.byte	GOTO	
		.word	song0018_6_3
	.byte	W96
	.byte	FINE

	@********************** Track  7 **********************@

	.global song0018_7
song0018_7:	@ 0x08C5D791
	.byte	KEYSH	, 0
	.byte	VOICE	, 80
	.byte	VOL	, v094
	.byte	W03
	.byte	W96
	.byte	W96
song0018_7_1:
	.byte	W96
	.byte	W96
	.byte	W96
	.byte	W96
	.byte	W96
	.byte	W96
	.byte	W96
	.byte	W96
	.byte	W96
	.byte	W96
	.byte	W96
	.byte	W96
	.byte	W96
	.byte	W96
	.byte	W96
	.byte	W96
	.byte	W96
	.byte	W96
	.byte	W92
	.byte	W02
	.byte		N02	, En2, v084
	.byte		N04	, Fn2
	.byte	W02
	.byte	W02
	.byte		N02	, Gn2, v020
	.byte	W01
	.byte			An2, v056
	.byte	W02
	.byte			Bn2, v052
	.byte	W01
	.byte			Cn3
	.byte	W02
	.byte		N03	, Dn3, v036
	.byte	W03
	.byte		N19	, Ds3, v116
	.byte	W21
	.byte		N12	, Ds3, v124
	.byte	W15
	.byte		N18	, Ds3, v104
	.byte	W19
	.byte		N14	, Ds3, v108
	.byte	W16
	.byte		N13	
	.byte	W13
	.byte		N01	, En2, v072
	.byte		N03	, Fn2, v076
	.byte	W01
	.byte	W01
	.byte			Gn2, v032
	.byte	W02
	.byte			An2, v048
	.byte	W02
	.byte			Bn2, v036
	.byte	W02
	.byte			Cn3, v048
	.byte	W01
	.byte		N04	, Dn3, v056
	.byte	W04
	.byte		N16	, Fn3, v100
	.byte	W19
	.byte		N11	, Fn3, v108
	.byte	W13
	.byte		N24	, Fn3, v112
	.byte	W24
	.byte		N02	, En3, v036
	.byte	W02
	.byte			Dn3, v056
	.byte	W02
	.byte		N01	, Cn3, v044
	.byte	W01
	.byte		N02	, Bn2, v036
	.byte	W01
	.byte		N01	, An2
	.byte	W02
	.byte			Gn2, v032
	.byte	W01
	.byte			Fn2, v028
	.byte	W02
	.byte			En2
	.byte	W17
	.byte			En2, v076
	.byte	W01
	.byte		N02	, Fn2, v044
	.byte	W02
	.byte			Gn2, v076
	.byte	W01
	.byte			An2, v092
	.byte	W02
	.byte			Bn2, v072
	.byte	W01
	.byte		N03	, Cn3, v052
	.byte	W03
	.byte		N02	, Dn3, v028
	.byte	W01
	.byte		N17	, Ds3, v108
	.byte	W20
	.byte		N13	, Ds3, v112
	.byte	W15
	.byte		N18	, Ds3, v104
	.byte	W20
	.byte		N15	, Ds3, v108
	.byte	W17
	.byte		N13	, Ds3, v112
	.byte	W11
	.byte		N03	, Dn2, v060
	.byte	W01
	.byte		N05	, En2
	.byte	W01
	.byte	W02
	.byte		N04	, Fn2, v032
	.byte	W02
	.byte			Gn2, v024
	.byte	W01
	.byte			An2, v032
	.byte	W02
	.byte			Bn2, v036
	.byte	W02
	.byte		N03	, Cn3
	.byte	W02
	.byte		N02	, Dn3, v024
	.byte	W01
	.byte		N16	, Fn3, v108
	.byte	W20
	.byte		N10	, Fn3, v104
	.byte	W12
	.byte		N24	, Fn3, v100
	.byte	W24
	.byte	W02
	.byte		N02	, En3, v036
	.byte	W01
	.byte			Dn3, v048
	.byte	W01
	.byte			Cn3, v056
	.byte	W01
	.byte			Bn2
	.byte	W02
	.byte			An2
	.byte	W01
	.byte			Gn2, v052
	.byte	W01
	.byte		N01	, Fn2, v040
	.byte	W17
	.byte		N02	, En2, v084
	.byte		N04	, Fn2
	.byte	W02
	.byte	W02
	.byte		N02	, Gn2, v020
	.byte	W01
	.byte			An2, v056
	.byte	W02
	.byte			Bn2, v052
	.byte	W01
	.byte			Cn3
	.byte	W02
	.byte		N03	, Dn3, v036
	.byte	W03
	.byte		N17	, Ds3, v116
	.byte	W20
	.byte		N14	, Ds3, v124
	.byte	W15
	.byte		N17	, Ds3, v104
	.byte	W20
	.byte		N14	, Ds3, v108
	.byte	W16
	.byte		N13	
	.byte	W13
	.byte		N01	, En2, v072
	.byte		N03	, Fn2, v076
	.byte	W01
	.byte	W01
	.byte			Gn2, v032
	.byte	W02
	.byte			An2, v048
	.byte	W02
	.byte			Bn2, v036
	.byte	W02
	.byte			Cn3, v048
	.byte	W01
	.byte		N04	, Dn3, v056
	.byte	W04
	.byte		N16	, Fn3, v100
	.byte	W20
	.byte		N11	, Fn3, v108
	.byte	W12
	.byte		N24	, Fn3, v112
	.byte	W24
	.byte		N02	, En3, v036
	.byte	W02
	.byte			Dn3, v056
	.byte	W02
	.byte		N01	, Cn3, v044
	.byte	W01
	.byte		N02	, Bn2, v036
	.byte	W01
	.byte		N01	, An2
	.byte	W02
	.byte			Gn2, v032
	.byte	W01
	.byte			Fn2, v028
	.byte	W02
	.byte			En2
	.byte	W17
	.byte			En2, v076
	.byte	W01
	.byte		N02	, Fn2, v044
	.byte	W02
	.byte			Gn2, v076
	.byte	W01
	.byte			An2, v092
	.byte	W02
	.byte			Bn2, v072
	.byte	W01
	.byte		N03	, Cn3, v052
	.byte	W03
	.byte		N02	, Dn3, v028
	.byte	W01
	.byte		N16	, Ds3, v108
	.byte	W20
	.byte		N13	, Ds3, v112
	.byte	W15
	.byte		N19	, Ds3, v104
	.byte	W21
	.byte		N15	, Ds3, v108
	.byte	W16
	.byte		N13	, Ds3, v112
	.byte	W13
	.byte	W96
	.byte	W96
	.byte	W96
	.byte	W96
	.byte	W96
	.byte	W96
	.byte	W96
	.byte	GOTO	
		.word	song0018_7_1
	.byte	W96
	.byte	FINE

	@********************** Track  8 **********************@

	.global song0018_8
song0018_8:	@ 0x08C5D920
	.byte	KEYSH	, 0
	.byte	VOICE	, 74
	.byte	PAN	, c_v+40
	.byte	VOL	, v078
	.byte	W03
	.byte	W96
	.byte	W96
song0018_8_1:
	.byte	W96
	.byte		N04	, Gs3, v100
	.byte	W12
	.byte		N04	
	.byte	W08
	.byte		N04	
	.byte	W12
	.byte		N04	
	.byte	W12
	.byte		N04	
	.byte	W12
	.byte		N04	
	.byte	W12
	.byte		N04	
	.byte	W04
	.byte		N04	
	.byte	W12
	.byte			An3
	.byte	W12
	.byte			As3
	.byte	W08
	.byte		N04	
	.byte	W04
	.byte		N04	
	.byte	W08
	.byte		N04	
	.byte	W12
	.byte		N04	
	.byte	W12
	.byte		N04	
	.byte	W52
	.byte	W96
	.byte	W96
	.byte	W96
	.byte	W96
	.byte	W96
	.byte	W96
	.byte	W96
	.byte	W96
	.byte	W96
	.byte	W96
	.byte	W96
	.byte	W96
	.byte	W96
	.byte	W96
	.byte	W96
	.byte	W96
	.byte	W96
	.byte	W96
	.byte	W96
	.byte	W96
	.byte	W96
	.byte	W96
	.byte	W96
	.byte	W96
	.byte	W96
	.byte	W96
	.byte	W96
	.byte	W96
	.byte	W96
	.byte	W96
	.byte	GOTO	
		.word	song0018_8_1
	.byte	W96
	.byte	FINE

	@********************** Track  9 **********************@

	.global song0018_9
song0018_9:	@ 0x08C5D971
	.byte	KEYSH	, 0
	.byte	VOICE	, 93
	.byte	VOL	, v078
	.byte	PAN	, c_v
	.byte	W03
	.byte	W96
	.byte	W96
song0018_9_4:
	.byte	W96
	.byte	W96
	.byte	W54
	.byte	W01
	.byte		N02	, En3, v080
	.byte	W01
	.byte		N04	, Fn3, v100
	.byte	W04
	.byte		N08	, Gn3
	.byte	W08
	.byte		N04	, Fn3, v080
	.byte	W04
	.byte		N02	, Dn3
	.byte	W01
	.byte		N07	, Ds3, v112
	.byte	W07
	.byte		N04	, Dn3, v092
	.byte	W04
	.byte		N08	, Cn3, v100
	.byte	W08
	.byte		N04	, As2, v080
	.byte	W04
song0018_9_1:
	.byte		N02	, Bn2, v080
	.byte	W01
	.byte		N06	, Cn3, v100
	.byte	W11
	.byte			Fn2, v092
	.byte	W12
	.byte		N08	, Ds3, v108
	.byte	W08
	.byte		N06	, Dn3, v100
	.byte	W12
	.byte		N04	, Cn3
	.byte	W12
	.byte		N12	, Fn2, v092
	.byte	W16
	.byte		N06	, Cn3, v100
	.byte	W12
	.byte			Fn2, v092
	.byte	W12
	.byte	PEND
song0018_9_2:
	.byte		N02	, An2, v080
	.byte	W01
	.byte		N06	, As2, v100
	.byte	W11
	.byte			Fn2, v092
	.byte	W12
	.byte		N08	, Dn3, v108
	.byte	W08
	.byte		N06	, Cn3, v100
	.byte	W12
	.byte		N04	, As2
	.byte	W11
	.byte		N02	, An2, v080
	.byte	W01
	.byte		N06	, As2, v112
	.byte	W12
	.byte			Fn2, v100
	.byte	W04
	.byte			Dn3, v116
	.byte	W12
	.byte			As2, v100
	.byte	W12
	.byte	PEND
	.byte	PATT	
		.word	song0018_9_1
	.byte		N02	, An2, v080
	.byte	W01
	.byte		N06	, As2, v100
	.byte	W11
	.byte			Fn2, v092
	.byte	W12
	.byte		N08	, Dn3, v108
	.byte	W08
	.byte		N06	, Cn3, v100
	.byte	W12
	.byte		N04	, As2
	.byte	W12
	.byte			Gs2
	.byte	W04
	.byte		N08	, As2
	.byte	W08
	.byte		N04	, Cn3
	.byte	W04
	.byte		N08	, Cs3
	.byte	W08
	.byte		N04	, Dn3
	.byte	W04
	.byte		N08	, Ds3
	.byte	W08
	.byte		N04	, Fn3
	.byte	W04
	.byte	PATT	
		.word	song0018_9_1
	.byte	PATT	
		.word	song0018_9_2
	.byte	PATT	
		.word	song0018_9_1
	.byte		N02	, An2, v080
	.byte	W01
	.byte		N06	, As2, v100
	.byte	W11
	.byte			Fn2, v092
	.byte	W12
	.byte		N08	, Dn3, v108
	.byte	W08
	.byte		N06	, Cn3, v100
	.byte	W12
	.byte		N04	, As2
	.byte	W12
	.byte		N06	, As2, v120
	.byte	W12
	.byte		N04	
	.byte	W04
	.byte		N06	
	.byte	W12
	.byte		N08	
	.byte	W08
	.byte		N04	, Bn2
	.byte	W04
	.byte	PATT	
		.word	song0018_9_1
	.byte	PATT	
		.word	song0018_9_2
	.byte	PATT	
		.word	song0018_9_1
	.byte		N02	, An2, v080
	.byte	W01
	.byte		N06	, As2, v100
	.byte	W11
	.byte			Fn2, v092
	.byte	W12
	.byte		N08	, Dn3, v108
	.byte	W08
	.byte		N06	, Cn3, v100
	.byte	W12
	.byte		N04	, As2
	.byte	W11
	.byte		N02	, An3, v092
	.byte	W01
	.byte		N06	, As3, v120
	.byte	W12
	.byte		N04	, As3, v112
	.byte	W04
	.byte		N06	
	.byte	W11
	.byte		N02	, Gs3, v080
	.byte	W01
	.byte		N08	, An3, v112
	.byte	W08
	.byte		N04	, Gs3
	.byte	W04
	.byte		N02	, Fs3, v080
	.byte	W01
	.byte		N06	, Gn3, v100
	.byte	W11
	.byte			Fn3, v092
	.byte	W12
	.byte		N08	, Ds3, v108
	.byte	W08
	.byte		N06	, Dn3, v100
	.byte	W12
	.byte		N04	, Cn3
	.byte	W12
	.byte			Fn2
	.byte	W04
	.byte		N08	, Gn2, v112
	.byte	W08
	.byte		N04	, Gs2
	.byte	W04
	.byte		N02	, Gs2, v080
	.byte	W01
	.byte		N07	, An2, v112
	.byte	W07
	.byte		N04	, Gs2
	.byte	W04
	.byte		N08	, An2
	.byte	W08
	.byte		N04	, As2
	.byte	W04
	.byte		N02	, An2, v080
	.byte	W01
	.byte		N06	, As2, v100
	.byte	W11
	.byte			Cn3, v092
	.byte	W12
	.byte		N08	, Dn3, v108
	.byte	W08
	.byte		N06	, Cn3, v100
	.byte	W12
	.byte		N04	, As2
	.byte	W11
	.byte		N02	, An2, v080
	.byte	W01
	.byte		N06	, As2, v112
	.byte	W12
	.byte			Fn3, v100
	.byte	W04
	.byte			Dn3, v116
	.byte	W12
	.byte			As2, v100
	.byte	W12
	.byte		N02	, Bn2, v080
	.byte	W01
	.byte		N06	, Cn3, v100
	.byte	W11
	.byte			Fn2, v092
	.byte	W12
	.byte		N08	, Ds3, v108
	.byte	W08
	.byte		N06	, Dn3, v100
	.byte	W12
	.byte		N04	, Cn3
	.byte	W12
	.byte		N06	, Fn2, v092
	.byte	W12
	.byte		N04	, Fn2, v100
	.byte	W04
	.byte		N06	, Cn3
	.byte	W12
	.byte			Fn2, v092
	.byte	W12
	.byte		N02	, Dn2, v080
	.byte	W01
	.byte		N06	, Ds2, v100
	.byte	W11
	.byte			Fn2, v092
	.byte	W08
	.byte		N04	, Fs2, v096
	.byte	W12
	.byte			Gn2, v100
	.byte	W11
	.byte		N02	, Gn2, v080
	.byte	W01
	.byte		N04	, Gs2, v100
	.byte	W12
	.byte			An2, v108
	.byte	W12
	.byte		N12	, As2, v112
	.byte	W28
	.byte		N02	, An2, v080
	.byte	W01
	.byte		N06	, As2, v100
	.byte	W11
	.byte			Ds2, v092
	.byte	W11
	.byte		N02	, Cn3
	.byte	W01
	.byte		N08	, Cs3, v108
	.byte	W08
	.byte		N06	, Cn3, v100
	.byte	W12
	.byte		N04	, As2
	.byte	W12
	.byte		N06	, Ds2, v112
	.byte	W12
	.byte		N04	, Ds2, v100
	.byte	W04
	.byte		N06	, As2
	.byte	W12
	.byte			Ds2, v092
	.byte	W12
	.byte	PATT	
		.word	song0018_9_2
	.byte		N02	, Bn2, v080
	.byte	W01
	.byte		N06	, Cn3, v100
	.byte	W11
	.byte			Fn2, v092
	.byte	W12
	.byte		N08	, Ds3, v108
	.byte	W08
	.byte		N06	, Dn3, v100
	.byte	W12
	.byte		N04	, Cn3
	.byte	W12
	.byte		N06	, Fn2, v112
	.byte	W12
	.byte		N04	, Fn2, v100
	.byte	W04
	.byte		N06	, Cn3
	.byte	W12
	.byte			Fn2, v092
	.byte	W12
	.byte		N12	, Fn2, v120
	.byte	W12
	.byte		N08	, Dn3
	.byte	W08
	.byte		N06	, As2
	.byte	W12
	.byte			Fn2
	.byte	W12
	.byte			Dn3
	.byte	W12
	.byte			As2
	.byte	W12
	.byte			Fn2
	.byte	W04
	.byte			Dn3
	.byte	W12
	.byte			As2
	.byte	W12
song0018_9_3:
	.byte		N12	, Gs2, v120
	.byte	W12
	.byte		N06	, Ds3
	.byte	W08
	.byte			Cn3
	.byte	W12
	.byte			Gs2
	.byte	W12
	.byte			Ds3
	.byte	W12
	.byte			Cn3
	.byte	W12
	.byte			Gs2
	.byte	W04
	.byte			Ds3
	.byte	W12
	.byte			Cn3
	.byte	W12
	.byte	PEND
	.byte		N12	, As2
	.byte	W12
	.byte		N06	, Fn3
	.byte	W08
	.byte			Dn3
	.byte	W12
	.byte			As2
	.byte	W12
	.byte			Fn3
	.byte	W12
	.byte			Dn3
	.byte	W12
	.byte			As2
	.byte	W04
	.byte			Fn3
	.byte	W12
	.byte			Dn3
	.byte	W12
	.byte	PATT	
		.word	song0018_9_3
	.byte		N05	, As2, v120
	.byte	W08
	.byte		N04	
	.byte	W04
	.byte		N08	
	.byte	W20
	.byte		N08	
	.byte	W08
	.byte			Bn2
	.byte	W08
	.byte		N24	, Cn3
	.byte	W48
	.byte	W96
	.byte	W96
	.byte	W96
	.byte	W96
	.byte	W96
	.byte	W96
	.byte	GOTO	
		.word	song0018_9_4
	.byte	W96
	.byte	FINE

	@********************** Track  10 **********************@

	.global song0018_10
song0018_10:	@ 0x08C5DBD8
	.byte	KEYSH	, 0
	.byte	VOICE	, 78
	.byte	PAN	, c_v
	.byte	VOL	, v078
	.byte	W03
song0018_10_1:
	.byte		N24	, Ds3, v100
	.byte	W24
	.byte		N18	, En3
	.byte	W18
	.byte		N06	, Fn3
	.byte	W54
	.byte	PEND
	.byte	W96
song0018_10_2:
	.byte	PATT	
		.word	song0018_10_1
	.byte	W96
	.byte	W96
	.byte	W96
	.byte	W96
	.byte	W96
	.byte	W96
	.byte	W96
	.byte	W96
	.byte	W96
	.byte	W96
	.byte	W96
	.byte	W96
	.byte	W96
	.byte	W96
	.byte	W96
	.byte	W96
	.byte	W96
	.byte	W96
	.byte	W96
	.byte	W96
	.byte	W96
	.byte	W96
	.byte	W96
	.byte	W96
	.byte	W96
	.byte	W96
	.byte	PATT	
		.word	song0018_10_1
	.byte	W96
	.byte	PATT	
		.word	song0018_10_1
	.byte	W96
	.byte	PATT	
		.word	song0018_10_1
	.byte	W96
	.byte	GOTO	
		.word	song0018_10_2
	.byte	W96
	.byte	FINE

	@********************** Track  11 **********************@

	.global song0018_11
song0018_11:	@ 0x08C5DC25
	.byte	KEYSH	, 0
	.byte	VOICE	, 111
	.byte	PAN	, c_v
	.byte	VOL	, v078
	.byte	W03
	.byte	W96
song0018_11_1:
	.byte		N24	, Cn3, v100
	.byte	W24
	.byte		N18	, Cs3
	.byte	W18
	.byte		N06	, Dn3
	.byte	W54
	.byte	PEND
song0018_11_2:
	.byte	W96
	.byte		N04	, Cn3, v100
	.byte	W12
	.byte		N04	
	.byte	W08
	.byte		N04	
	.byte	W12
	.byte		N04	
	.byte	W12
	.byte		N04	
	.byte	W12
	.byte		N04	
	.byte	W12
	.byte		N04	
	.byte	W04
	.byte		N04	
	.byte	W12
	.byte			Cs3
	.byte	W12
	.byte			Dn3
	.byte	W08
	.byte		N04	
	.byte	W04
	.byte		N04	
	.byte	W08
	.byte		N04	
	.byte	W12
	.byte		N04	
	.byte	W12
	.byte		N04	
	.byte	W52
	.byte	W96
	.byte	W96
	.byte	W96
	.byte	W96
	.byte	W96
	.byte	W96
	.byte	W96
	.byte	W96
	.byte	W96
	.byte	W96
	.byte	W96
	.byte	W96
	.byte	W96
	.byte	W96
	.byte	W96
	.byte	W96
	.byte	W96
	.byte	W96
	.byte	W96
	.byte	W96
	.byte	W96
	.byte	W96
	.byte	W96
	.byte		N05	, Dn3, v120
	.byte	W08
	.byte		N04	
	.byte	W04
	.byte		N08	
	.byte	W20
	.byte		N08	
	.byte	W08
	.byte			Ds3
	.byte	W08
	.byte		N24	, En3
	.byte	W48
	.byte	W96
	.byte	PATT	
		.word	song0018_11_1
	.byte	W96
	.byte		N24	, Dn3, v100
	.byte	W24
	.byte		N18	, Cs3
	.byte	W18
	.byte		N06	, Cn3
	.byte	W54
	.byte	W96
	.byte	PATT	
		.word	song0018_11_1
	.byte	GOTO	
		.word	song0018_11_2
	.byte	W96
	.byte	FINE

	@********************** Track  12 **********************@

	.global song0018_12
song0018_12:	@ 0x08C5DC9F
	.byte	KEYSH	, 0
	.byte	VOICE	, 99
	.byte	PAN	, c_v
	.byte	VOL	, v078
	.byte	W03
	.byte	W96
	.byte	W96
song0018_12_1:
	.byte		N24	, Gs3, v100
	.byte	W24
	.byte		N18	, An3
	.byte	W18
	.byte		N06	, As3
	.byte	W54
	.byte	PEND
	.byte	W96
	.byte	W96
	.byte	W96
	.byte	W96
	.byte	W96
	.byte	W96
	.byte	W96
	.byte	W96
	.byte	W96
	.byte	W96
	.byte	W96
	.byte	W96
	.byte	W96
	.byte	W96
	.byte	W96
	.byte	W96
	.byte	W96
	.byte	W96
	.byte	W96
	.byte	W96
	.byte	W96
	.byte	W96
	.byte	W96
	.byte	W96
	.byte	W96
	.byte	W96
	.byte	W96
	.byte	W96
	.byte	PATT	
		.word	song0018_12_1
	.byte		N24	, As3, v100
	.byte	W24
	.byte		N18	, An3
	.byte	W18
	.byte		N06	, Gs3
	.byte	W54
	.byte	PATT	
		.word	song0018_12_1
	.byte	W96
	.byte	GOTO	
		.word	song0018_12_1
	.byte	W96
	.byte	FINE

	@********************** Track  13 **********************@

	.global song0018_13
song0018_13:	@ 0x08C5DCED
	.byte	KEYSH	, 0
	.byte	VOICE	, 88
	.byte	VOL	, v090
	.byte	PAN	, c_v-30
	.byte	W03
	.byte	W96
song0018_13_1:
	.byte	W54
	.byte	W01
	.byte		N02	, En3, v100
	.byte	W01
	.byte		N16	, Fn3
	.byte	W16
	.byte		N08	, Ds3
	.byte	W08
	.byte		N04	, Dn3
	.byte	W04
	.byte		N08	, Cn3
	.byte	W08
	.byte		N04	, As2
	.byte	W04
	.byte	PEND
song0018_13_2:
	.byte		N18	, Gs2, v092
	.byte	W24
	.byte			An2, v100
	.byte	W18
	.byte		N06	, As2
	.byte	W54
	.byte	PEND
	.byte		N04	, Cn3
	.byte	W12
	.byte		N04	
	.byte	W08
	.byte		N04	
	.byte	W12
	.byte		N04	
	.byte	W12
	.byte		N04	
	.byte	W12
	.byte		N04	
	.byte	W12
	.byte		N04	
	.byte	W04
	.byte		N04	
	.byte	W12
	.byte			Cs3
	.byte	W12
	.byte			Dn3
	.byte	W08
	.byte		N04	
	.byte	W04
	.byte		N04	
	.byte	W08
	.byte		N04	
	.byte	W12
	.byte		N04	
	.byte	W12
	.byte		N04	
	.byte	W52
	.byte	W96
	.byte	W96
	.byte	W96
	.byte	W96
	.byte	W96
	.byte	W96
	.byte	W96
	.byte	W96
	.byte	W96
	.byte	W96
	.byte	W96
	.byte	W96
	.byte	W96
	.byte	W96
	.byte	W96
	.byte	W96
	.byte	W96
	.byte	W96
	.byte	W96
	.byte	W96
	.byte	W96
	.byte	W96
	.byte	W96
	.byte		N05	, As2, v120
	.byte	W08
	.byte		N04	
	.byte	W04
	.byte		N08	
	.byte	W20
	.byte		N08	
	.byte	W08
	.byte			Bn2
	.byte	W08
	.byte		N24	, Cn3
	.byte	W48
	.byte	W96
	.byte	PATT	
		.word	song0018_13_1
	.byte	PATT	
		.word	song0018_13_2
	.byte	W96
	.byte		N24	, Cn3, v100
	.byte	W24
	.byte		N18	, Cs3
	.byte	W18
	.byte		N06	, Dn3
	.byte	W54
	.byte		N24	, Ds3
	.byte	W24
	.byte		N18	, En3
	.byte	W18
	.byte		N06	, Fn3
	.byte	W13
	.byte		N02	, En3
	.byte	W01
	.byte		N16	, Fn3
	.byte	W16
	.byte		N08	, Ds3
	.byte	W08
	.byte		N04	, Dn3
	.byte	W04
	.byte		N08	, Cn3
	.byte	W08
	.byte		N04	, As2
	.byte	W04
	.byte	GOTO	
		.word	song0018_13_2
	.byte	W96
	.byte	FINE

	.align 2
	.global song0018
song0018:	@ 0x08C5DD98
	.byte	13		@ trackCount
	.byte	0		@ blockCount
	.byte	0		@ priority
	.byte	128		@ reverb

	.word	voicegroup022		@ voicegroup/tone

	.word	song0018_1		@ track
	.word	song0018_2		@ track
	.word	song0018_3		@ track
	.word	song0018_4		@ track
	.word	song0018_5		@ track
	.word	song0018_6		@ track
	.word	song0018_7		@ track
	.word	song0018_8		@ track
	.word	song0018_9		@ track
	.word	song0018_10		@ track
	.word	song0018_11		@ track
	.word	song0018_12		@ track
	.word	song0018_13		@ track
