	.include "MPlayDef.s"

	.section .rodata

	@********************** Track  1 **********************@

	.align 2
	.global song0044_1
song0044_1:	@ 0x08C782AC
	.byte	KEYSH	, 0
	.byte	TEMPO	, 72
	.byte	VOICE	, 68
	.byte	VOL	, v086
	.byte	PAN	, c_v
	.byte	W03
	.byte	W48
song0044_1_1:
	.byte		N06	, En2, v120
	.byte	W12
	.byte		N12	
	.byte	W12
	.byte			En3
	.byte	W12
	.byte		N06	, En2
	.byte	W06
	.byte		N12	, Dn3
	.byte	W12
	.byte		N06	, En2
	.byte	W06
	.byte		N12	, Cs3
	.byte	W12
	.byte		N06	, Bn2
	.byte	W12
	.byte			An2
	.byte	W12
	.byte	PEND
	.byte			En2
	.byte	W12
	.byte		N12	
	.byte	W12
	.byte			En3
	.byte	W12
	.byte		N06	, En2
	.byte	W06
	.byte		N12	, Dn3
	.byte	W12
	.byte		N06	, En2
	.byte	W06
	.byte		N12	, Cs3
	.byte	W12
	.byte		N06	, En2
	.byte	W06
	.byte			Bn1
	.byte	W06
	.byte			En2
	.byte	W06
	.byte			Fs2
	.byte	W06
	.byte	PATT	
		.word	song0044_1_1
	.byte		N06	, En2, v120
	.byte	W12
	.byte		N12	
	.byte	W12
	.byte			En3
	.byte	W12
	.byte		N06	, En2
	.byte	W06
	.byte		N12	, Dn3
	.byte	W12
	.byte		N06	, En2
	.byte	W06
	.byte		N12	, Cs3
	.byte	W12
	.byte		N06	, En2
	.byte	W06
	.byte			Fn2
	.byte	W06
	.byte			Fs2
	.byte	W06
	.byte			Gn2
	.byte	W06
song0044_1_2:
	.byte		N06	, Gn2, v120
	.byte	W12
	.byte		N12	
	.byte	W12
	.byte			Gn3
	.byte	W12
	.byte		N06	, Gn2
	.byte	W06
	.byte		N12	, Fn3
	.byte	W12
	.byte		N06	, Gn2
	.byte	W06
	.byte		N12	, En3
	.byte	W12
	.byte		N06	, Dn3
	.byte	W12
	.byte			Cn3
	.byte	W12
	.byte	PEND
	.byte			Gn2
	.byte	W12
	.byte		N12	
	.byte	W12
	.byte			Gn3
	.byte	W12
	.byte		N06	, Gn2
	.byte	W06
	.byte		N12	, Fn3
	.byte	W12
	.byte		N06	, Gn2
	.byte	W06
	.byte		N12	, En3
	.byte	W12
	.byte		N06	, Gn2
	.byte	W06
	.byte			Dn2
	.byte	W06
	.byte			Gn2
	.byte	W06
	.byte			An2
	.byte	W06
	.byte	PATT	
		.word	song0044_1_2
	.byte		N18	, Gn2, v120
	.byte	W18
	.byte		N15	, Gs2
	.byte	W18
	.byte		N18	, An2
	.byte	W18
	.byte		N15	, As2
	.byte	W18
	.byte		N72	, Bn2
	.byte	W24
	.byte	W96
	.byte	TEMPO	, 72
	.byte		N12	, En2
	.byte	W18
	.byte		N06	
	.byte	W18
	.byte		N15	
	.byte	W18
	.byte		N12	
	.byte	W18
	.byte		N06	
	.byte	W06
	.byte			Bn1
	.byte	W06
	.byte			En2
	.byte	W06
	.byte			Bn2
	.byte	W06
	.byte	TEMPO	, 71
	.byte		N12	, En2
	.byte	W18
	.byte		N06	
	.byte	W18
	.byte		N15	
	.byte	W12
	.byte	TEMPO	, 71
	.byte	W06
	.byte		N12	
	.byte	W18
	.byte		N06	
	.byte	W12
	.byte			Dn2
	.byte	W06
	.byte			Bn1
	.byte	W06
	.byte	TEMPO	, 70
	.byte		N12	, En2
	.byte	W18
	.byte		N06	
	.byte	W18
	.byte		N15	
	.byte	W12
	.byte	TEMPO	, 70
	.byte	W06
	.byte		N12	
	.byte	W18
	.byte		N06	
	.byte	W06
	.byte			Bn1
	.byte	W06
	.byte			En2
	.byte	W06
	.byte			Bn2
	.byte	W06
	.byte		N12	, En2
	.byte	W18
	.byte		N06	
	.byte	W18
	.byte		N15	
	.byte	W18
	.byte		N12	
	.byte	W18
	.byte		N06	
	.byte	W12
	.byte			Dn2
	.byte	W06
	.byte			Bn1
	.byte	W06
song0044_1_3:
	.byte		N12	, En2, v120
	.byte	W18
	.byte		N06	
	.byte	W18
	.byte		N15	
	.byte	W18
	.byte		N12	
	.byte	W18
	.byte		N06	
	.byte	W06
	.byte			Bn1
	.byte	W06
	.byte			En2
	.byte	W06
	.byte			Bn2
	.byte	W06
	.byte	PEND
song0044_1_4:
	.byte		N12	, Dn2, v120
	.byte	W18
	.byte		N06	
	.byte	W18
	.byte		N15	
	.byte	W18
	.byte		N12	
	.byte	W18
	.byte		N06	
	.byte	W12
	.byte			Cn2
	.byte	W06
	.byte			An1
	.byte	W06
	.byte	PEND
song0044_1_5:
	.byte		N12	, Cs2, v120
	.byte	W18
	.byte		N06	
	.byte	W18
	.byte		N15	
	.byte	W18
	.byte		N12	
	.byte	W18
	.byte		N06	
	.byte	W06
	.byte			En2
	.byte	W06
	.byte			Cs2
	.byte	W06
	.byte			An1
	.byte	W06
	.byte	PEND
song0044_1_6:
	.byte		N12	, Bn1, v120
	.byte	W18
	.byte		N06	
	.byte	W18
	.byte		N15	
	.byte	W18
	.byte		N12	
	.byte	W18
	.byte		N06	
	.byte	W12
	.byte			An1
	.byte	W06
	.byte			Ds2
	.byte	W06
	.byte	PEND
	.byte	PATT	
		.word	song0044_1_3
	.byte	PATT	
		.word	song0044_1_4
	.byte	PATT	
		.word	song0044_1_5
	.byte	PATT	
		.word	song0044_1_6
	.byte		N12	, An2, v120
	.byte	W18
	.byte		N06	
	.byte	W18
	.byte		N15	
	.byte	W18
	.byte		N12	
	.byte	W18
	.byte		N06	
	.byte	W06
	.byte			En2
	.byte	W06
	.byte			An2
	.byte	W06
	.byte			En3
	.byte	W06
	.byte		N12	, An2
	.byte	W18
	.byte		N06	
	.byte	W18
	.byte		N15	
	.byte	W18
	.byte		N12	
	.byte	W18
	.byte		N06	
	.byte	W12
	.byte		N06	
	.byte	W06
	.byte		N06	
	.byte	W06
	.byte		N12	, Gs2
	.byte	W18
	.byte		N06	
	.byte	W18
	.byte		N15	
	.byte	W18
	.byte		N12	
	.byte	W18
	.byte		N06	
	.byte	W06
	.byte			Ds2
	.byte	W06
	.byte			Gs2
	.byte	W06
	.byte			Ds3
	.byte	W06
	.byte		N12	, Cs3
	.byte	W18
	.byte		N06	
	.byte	W18
	.byte		N15	
	.byte	W18
	.byte		N12	
	.byte	W18
	.byte		N06	
	.byte	W12
	.byte			Bn2
	.byte	W06
	.byte			Gs2
	.byte	W06
	.byte		N12	, Dn3
	.byte	W18
	.byte		N06	
	.byte	W18
	.byte		N15	
	.byte	W18
	.byte		N12	
	.byte	W18
	.byte		N06	
	.byte	W06
	.byte			Fs3
	.byte	W06
	.byte			Dn3
	.byte	W06
	.byte			An2
	.byte	W06
	.byte		N12	, Cs3
	.byte	W18
	.byte		N06	
	.byte	W18
	.byte		N15	
	.byte	W18
	.byte		N12	
	.byte	W18
	.byte		N06	
	.byte	W12
	.byte		N06	
	.byte	W06
	.byte		N06	
	.byte	W06
	.byte		N12	, Bn2
	.byte	W18
	.byte		N06	
	.byte	W18
	.byte		N15	
	.byte	W18
	.byte		N12	
	.byte	W18
	.byte		N06	
	.byte	W06
	.byte			Fs2
	.byte	W06
	.byte			Bn2
	.byte	W06
	.byte			Cs3
	.byte	W06
	.byte		N12	, Bn2
	.byte	W18
	.byte		N06	
	.byte	W18
	.byte		N15	
	.byte	W18
	.byte		N12	
	.byte	W18
	.byte		N06	
	.byte	W12
	.byte			An2
	.byte	W06
	.byte			Fs2
	.byte	W06
	.byte	PATT	
		.word	song0044_1_3
	.byte	PATT	
		.word	song0044_1_4
	.byte	PATT	
		.word	song0044_1_5
song0044_1_7:
	.byte		N12	, Cn2, v120
	.byte	W18
	.byte		N06	
	.byte	W18
	.byte		N15	
	.byte	W18
	.byte		N12	
	.byte	W18
	.byte		N06	
	.byte	W12
	.byte			An1
	.byte	W06
	.byte			En2
	.byte	W06
	.byte	PEND
	.byte	PATT	
		.word	song0044_1_3
	.byte	PATT	
		.word	song0044_1_4
	.byte	PATT	
		.word	song0044_1_5
	.byte	PATT	
		.word	song0044_1_6
	.byte	PATT	
		.word	song0044_1_3
	.byte	PATT	
		.word	song0044_1_4
	.byte	PATT	
		.word	song0044_1_5
	.byte	PATT	
		.word	song0044_1_7
	.byte	PATT	
		.word	song0044_1_3
	.byte	PATT	
		.word	song0044_1_4
	.byte	PATT	
		.word	song0044_1_5
	.byte	PATT	
		.word	song0044_1_6
	.byte	PATT	
		.word	song0044_1_3
song0044_1_8:
	.byte		N12	, Dn2, v120
	.byte	W18
	.byte		N06	
	.byte	W18
	.byte		N15	
	.byte	W18
	.byte		N12	
	.byte	W18
	.byte		N06	
	.byte	W12
	.byte		N06	
	.byte	W06
	.byte			Ds2
	.byte	W06
	.byte	PEND
	.byte	PATT	
		.word	song0044_1_3
	.byte	PATT	
		.word	song0044_1_8
	.byte	PATT	
		.word	song0044_1_3
	.byte	PATT	
		.word	song0044_1_8
	.byte	PATT	
		.word	song0044_1_3
	.byte	PATT	
		.word	song0044_1_8
	.byte	PATT	
		.word	song0044_1_3
	.byte	PATT	
		.word	song0044_1_8
	.byte	PATT	
		.word	song0044_1_3
	.byte	PATT	
		.word	song0044_1_8
	.byte	PATT	
		.word	song0044_1_3
	.byte	PATT	
		.word	song0044_1_8
	.byte	PATT	
		.word	song0044_1_3
	.byte	PATT	
		.word	song0044_1_8
	.byte	PATT	
		.word	song0044_1_3
	.byte		N12	, Dn2, v124
	.byte	W18
	.byte		N06	, Dn2, v112
	.byte	W18
	.byte		N15	, Dn2, v104
	.byte	W18
	.byte		N12	, Dn2, v092
	.byte	W18
	.byte		N06	, Dn2, v080
	.byte	W12
	.byte			Dn2, v076
	.byte	W06
	.byte			Ds2, v072
	.byte	W06
	.byte		N12	, En2, v068
	.byte	W18
	.byte		N06	, En2, v056
	.byte	W18
	.byte		N15	, En2, v048
	.byte	W18
	.byte		N12	, En2, v036
	.byte	W18
	.byte		N06	, En2, v024
	.byte	W06
	.byte			Bn1, v020
	.byte	W06
	.byte			En2
	.byte	W06
	.byte			Bn2, v016
	.byte	W06
	.byte		N12	, Dn2, v012
	.byte	W12
	.byte	FINE

	@********************** Track  2 **********************@

	.global song0044_2
song0044_2:	@ 0x08C7857B
	.byte	KEYSH	, 0
	.byte	VOICE	, 127
	.byte	VOL	, v098
	.byte	W03
	.byte		N04	, Cs1, v120
	.byte		N06	, Ds2
	.byte	W04
	.byte		N04	, Cs1, v112
	.byte	W04
	.byte			Cs1, v120
	.byte	W04
	.byte		N06	, Gs1
	.byte	W06
	.byte			Fs1
	.byte	W06
	.byte		N12	, Cs1
	.byte	W12
	.byte		N06	
	.byte	W06
	.byte		N06	
	.byte	W06
song0044_2_1:
	.byte		N12	, Ds2, v120
	.byte	W12
	.byte		N12	
	.byte	W12
	.byte			Cs1
	.byte	W12
	.byte		N06	, Ds2
	.byte	W06
	.byte			Cs1
	.byte	W06
	.byte			Ds2
	.byte	W06
	.byte			Cs1
	.byte	W06
	.byte		N12	, Ds2
	.byte	W12
	.byte			Cs1
	.byte	W12
	.byte			Ds2
	.byte	W12
	.byte	PEND
song0044_2_2:
	.byte		N12	, Ds2, v120
	.byte	W12
	.byte		N12	
	.byte	W12
	.byte			Cs1
	.byte	W12
	.byte		N06	, Ds2
	.byte	W06
	.byte			Cs1
	.byte	W06
	.byte			Ds2
	.byte	W06
	.byte			Cs1
	.byte	W06
	.byte		N12	, Ds2
	.byte	W12
	.byte			Cs1
	.byte	W12
	.byte		N06	, Ds2
	.byte	W06
	.byte			Cs1
	.byte	W06
	.byte	PEND
	.byte	PATT	
		.word	song0044_2_1
song0044_2_3:
	.byte		N12	, Ds2, v120
	.byte	W12
	.byte		N12	
	.byte	W12
	.byte			Cs1
	.byte	W12
	.byte		N06	, Ds2
	.byte	W06
	.byte			Cs1
	.byte	W06
	.byte			Ds2
	.byte	W06
	.byte			Cs1
	.byte	W06
	.byte		N12	, Ds2
	.byte	W12
	.byte		N06	, Cs1
	.byte	W06
	.byte		N06	
	.byte	W06
	.byte		N06	
	.byte	W06
	.byte		N06	
	.byte	W06
	.byte	PEND
	.byte	PATT	
		.word	song0044_2_1
	.byte	PATT	
		.word	song0044_2_2
	.byte		N12	, Ds2, v120
	.byte	W12
	.byte		N12	
	.byte	W12
	.byte			Cs1
	.byte	W12
	.byte		N06	, Ds2
	.byte	W06
	.byte			Cs1
	.byte	W06
	.byte			Ds2
	.byte	W06
	.byte			Cs1
	.byte	W06
	.byte		N12	, Ds2
	.byte	W12
	.byte		N06	, An1
	.byte	W06
	.byte		N06	
	.byte	W06
	.byte			Gn1
	.byte	W06
	.byte			Fs1
	.byte	W06
	.byte		N12	, Ds2
	.byte	W12
	.byte		N06	, Cs1
	.byte	W06
	.byte		N12	, Ds2
	.byte	W18
	.byte		N06	, Cs1
	.byte	W06
	.byte		N06	
	.byte	W12
	.byte		N12	, Ds2
	.byte	W12
	.byte		N06	, Cs1
	.byte	W06
	.byte		N12	, Ds2
	.byte	W24
	.byte		N04	, Cs1
	.byte		N06	, Ds2
	.byte	W04
	.byte		N04	, Cs1, v112
	.byte	W04
	.byte			Cs1, v120
	.byte	W04
	.byte		N06	, Gs1
	.byte	W06
	.byte			Fs1
	.byte	W06
	.byte		N12	, Cs1
	.byte	W12
	.byte		N06	
	.byte	W06
	.byte		N06	
	.byte	W06
	.byte			Gn1
	.byte	W06
	.byte			Cs1
	.byte	W06
	.byte			Gs1
	.byte	W06
	.byte			Fs1
	.byte	W06
	.byte		N12	, Ds2
	.byte	W12
	.byte		N06	, Cs1
	.byte	W06
	.byte		N06	
	.byte	W06
	.byte	PATT	
		.word	song0044_2_1
	.byte	PATT	
		.word	song0044_2_2
	.byte	PATT	
		.word	song0044_2_1
	.byte	PATT	
		.word	song0044_2_3
	.byte	PATT	
		.word	song0044_2_1
	.byte	PATT	
		.word	song0044_2_2
	.byte	PATT	
		.word	song0044_2_1
	.byte	PATT	
		.word	song0044_2_3
	.byte	PATT	
		.word	song0044_2_1
	.byte	PATT	
		.word	song0044_2_2
	.byte	PATT	
		.word	song0044_2_1
	.byte	PATT	
		.word	song0044_2_3
	.byte	PATT	
		.word	song0044_2_1
	.byte	PATT	
		.word	song0044_2_2
	.byte	PATT	
		.word	song0044_2_1
	.byte	PATT	
		.word	song0044_2_3
	.byte	PATT	
		.word	song0044_2_1
	.byte	PATT	
		.word	song0044_2_2
	.byte	PATT	
		.word	song0044_2_1
	.byte		N12	, Ds2, v120
	.byte	W12
	.byte		N12	
	.byte	W12
	.byte			Cs1
	.byte	W12
	.byte		N06	, Ds2
	.byte	W06
	.byte			Cs1
	.byte	W06
	.byte			Ds2
	.byte	W06
	.byte			Cs1
	.byte	W06
	.byte		N06	
	.byte	W06
	.byte		N06	
	.byte	W06
	.byte		N04	
	.byte	W04
	.byte			Cs1, v112
	.byte	W04
	.byte			Cs1, v120
	.byte	W04
	.byte		N06	
	.byte	W06
	.byte		N06	
	.byte	W06
song0044_2_4:
	.byte		N24	, Ds2, v120
	.byte	W24
	.byte		N24	
	.byte	W24
	.byte		N24	
	.byte	W24
	.byte		N12	
	.byte	W12
	.byte			En2
	.byte	W12
	.byte	PEND
song0044_2_5:
	.byte		N24	, Ds2, v120
	.byte	W24
	.byte		N24	
	.byte	W24
	.byte		N18	
	.byte	W18
	.byte		N06	, Ds2, v112
	.byte	W06
	.byte		N12	, Ds2, v120
	.byte	W12
	.byte		N12	
	.byte	W12
	.byte	PEND
song0044_2_6:
	.byte		N24	, Ds2, v120
	.byte	W24
	.byte		N24	
	.byte	W24
	.byte		N24	
	.byte	W24
	.byte		N24	
	.byte	W24
	.byte	PEND
song0044_2_7:
	.byte		N24	, Ds2, v120
	.byte	W24
	.byte		N24	
	.byte	W24
	.byte		N18	
	.byte	W18
	.byte		N06	, En2, v112
	.byte	W06
	.byte		N12	, Ds2, v120
	.byte	W12
	.byte		N12	
	.byte	W12
	.byte	PEND
	.byte	PATT	
		.word	song0044_2_4
	.byte	PATT	
		.word	song0044_2_5
	.byte	PATT	
		.word	song0044_2_6
song0044_2_8:
	.byte		N24	, Ds2, v120
	.byte	W24
	.byte		N24	
	.byte	W24
	.byte		N06	, En2
	.byte	W06
	.byte		N06	
	.byte	W06
	.byte		N06	
	.byte	W06
	.byte			Ds2, v112
	.byte	W06
	.byte			An1, v120
	.byte	W06
	.byte		N06	
	.byte	W06
	.byte			Gn1
	.byte	W06
	.byte			Fs1
	.byte	W06
	.byte	PEND
	.byte	PATT	
		.word	song0044_2_4
	.byte	PATT	
		.word	song0044_2_5
	.byte	PATT	
		.word	song0044_2_6
	.byte	PATT	
		.word	song0044_2_7
	.byte	PATT	
		.word	song0044_2_4
	.byte	PATT	
		.word	song0044_2_5
	.byte	PATT	
		.word	song0044_2_6
	.byte	PATT	
		.word	song0044_2_8
	.byte	PATT	
		.word	song0044_2_1
	.byte	PATT	
		.word	song0044_2_2
	.byte	PATT	
		.word	song0044_2_1
	.byte	PATT	
		.word	song0044_2_3
	.byte	PATT	
		.word	song0044_2_1
	.byte	PATT	
		.word	song0044_2_2
	.byte	PATT	
		.word	song0044_2_1
	.byte	PATT	
		.word	song0044_2_3
	.byte	PATT	
		.word	song0044_2_1
	.byte	PATT	
		.word	song0044_2_2
	.byte	PATT	
		.word	song0044_2_1
	.byte	PATT	
		.word	song0044_2_3
	.byte	PATT	
		.word	song0044_2_1
	.byte	PATT	
		.word	song0044_2_2
	.byte	PATT	
		.word	song0044_2_1
	.byte	PATT	
		.word	song0044_2_3
	.byte	PATT	
		.word	song0044_2_1
	.byte		N12	, Ds2, v120
	.byte	W12
	.byte			Ds2, v112
	.byte	W12
	.byte			Cs1, v104
	.byte	W12
	.byte		N06	, Ds2, v100
	.byte	W06
	.byte			Cs1, v096
	.byte	W06
	.byte			Ds2, v092
	.byte	W06
	.byte			Cs1, v088
	.byte	W06
	.byte		N12	, Ds2, v084
	.byte	W12
	.byte			Cs1, v080
	.byte	W12
	.byte		N06	, Ds2, v072
	.byte	W06
	.byte			Cs1, v068
	.byte	W06
	.byte		N12	, Ds2, v064
	.byte	W12
	.byte			Ds2, v056
	.byte	W12
	.byte			Cs1, v052
	.byte	W12
	.byte		N06	, Ds2, v044
	.byte	W06
	.byte			Cs1, v040
	.byte	W06
	.byte			Ds2, v036
	.byte	W06
	.byte			Cs1, v032
	.byte	W06
	.byte		N12	, Ds2
	.byte	W12
	.byte			Cs1, v024
	.byte	W12
	.byte			Ds2, v016
	.byte	W12
	.byte			Ds2, v008
	.byte	W12
	.byte	FINE

	@********************** Track  3 **********************@

	.global song0044_3
song0044_3:	@ 0x08C78806
	.byte	KEYSH	, 0
	.byte	VOICE	, 127
	.byte	VOL	, v094
	.byte	W03
	.byte	W48
	.byte		N36	, Cs2, v120
	.byte	W06
	.byte		N06	, Dn1, v052
	.byte	W06
	.byte			Dn1, v060
	.byte	W06
	.byte			Dn1, v052
	.byte	W06
	.byte			Dn1, v072
	.byte	W06
	.byte			Dn1, v052
	.byte	W06
	.byte			Dn1, v060
	.byte	W06
	.byte			Dn1, v052
	.byte	W06
	.byte			Dn1, v072
	.byte	W06
	.byte			Dn1, v052
	.byte	W06
	.byte			Dn1, v060
	.byte	W06
	.byte			Dn1, v052
	.byte	W06
	.byte			Dn1, v072
	.byte	W06
	.byte			Dn1, v052
	.byte	W06
	.byte			Dn1, v060
	.byte	W06
	.byte			Dn1, v052
	.byte	W06
song0044_3_1:
	.byte		N06	, Dn1, v072
	.byte	W06
	.byte			Dn1, v052
	.byte	W06
	.byte			Dn1, v060
	.byte	W06
	.byte			Dn1, v052
	.byte	W06
	.byte			Dn1, v072
	.byte	W06
	.byte			Dn1, v052
	.byte	W06
	.byte			Dn1, v060
	.byte	W06
	.byte			Dn1, v052
	.byte	W06
	.byte			Ds1, v072
	.byte	W06
	.byte			Dn1, v052
	.byte	W06
	.byte			Dn1, v060
	.byte	W06
	.byte			Dn1, v052
	.byte	W06
	.byte			Dn1, v072
	.byte	W06
	.byte			Ds1, v052
	.byte	W06
	.byte			Dn1, v060
	.byte	W06
	.byte			Dn1, v052
	.byte	W06
	.byte	PEND
	.byte			Dn1, v072
	.byte	W06
	.byte			Dn1, v052
	.byte	W06
	.byte			Dn1, v060
	.byte	W06
	.byte			Dn1, v052
	.byte	W06
	.byte			Dn1, v072
	.byte	W06
	.byte			Dn1, v052
	.byte	W06
	.byte			Dn1, v060
	.byte	W06
	.byte			Dn1, v052
	.byte	W06
	.byte			Dn1, v072
	.byte	W06
	.byte			Dn1, v052
	.byte	W06
	.byte			Dn1, v060
	.byte	W06
	.byte			Dn1, v052
	.byte	W06
	.byte			Dn1, v072
	.byte	W06
	.byte			Dn1, v052
	.byte	W06
	.byte			Dn1, v060
	.byte	W06
	.byte			Dn1, v052
	.byte	W06
	.byte			Dn1, v072
	.byte	W06
	.byte			Dn1, v052
	.byte	W06
	.byte			Dn1, v060
	.byte	W06
	.byte			Dn1, v052
	.byte	W06
	.byte			Dn1, v072
	.byte	W06
	.byte			Dn1, v052
	.byte	W06
	.byte			Dn1, v060
	.byte	W06
	.byte			Dn1, v052
	.byte	W06
	.byte			Ds1, v072
	.byte	W06
	.byte			Dn1, v052
	.byte	W06
	.byte			Dn1, v060
	.byte	W06
	.byte			Dn1, v052
	.byte	W06
	.byte			Dn1, v072
	.byte	W06
	.byte			Dn1, v052
	.byte	W06
	.byte			Dn1, v060
	.byte	W06
	.byte			Ds1, v052
	.byte	W06
	.byte		N36	, Gn2, v120
	.byte	W06
	.byte		N06	, Dn1, v052
	.byte	W06
	.byte			Dn1, v060
	.byte	W06
	.byte			Dn1, v052
	.byte	W06
	.byte			Dn1, v072
	.byte	W06
	.byte			Dn1, v052
	.byte	W06
	.byte			Dn1, v060
	.byte	W06
	.byte			Dn1, v052
	.byte	W06
	.byte			Dn1, v072
	.byte	W06
	.byte			Dn1, v052
	.byte	W06
	.byte			Dn1, v060
	.byte	W06
	.byte			Dn1, v052
	.byte	W06
	.byte			Dn1, v072
	.byte	W06
	.byte			Dn1, v052
	.byte	W06
	.byte			Dn1, v060
	.byte	W06
	.byte			Dn1, v052
	.byte	W06
	.byte	PATT	
		.word	song0044_3_1
	.byte		N06	, Dn1, v072
	.byte	W06
	.byte			Dn1, v052
	.byte	W06
	.byte			Dn1, v060
	.byte	W06
	.byte			Dn1, v052
	.byte	W06
	.byte			Dn1, v072
	.byte	W06
	.byte			Dn1, v052
	.byte	W06
	.byte			Dn1, v060
	.byte	W06
	.byte			Dn1, v052
	.byte	W06
	.byte			Dn1, v072
	.byte	W06
	.byte			Dn1, v052
	.byte	W06
	.byte			Dn1, v060
	.byte	W06
	.byte			Dn1, v052
	.byte	W30
	.byte		N24	, Gn2, v120
	.byte	W12
	.byte		N06	, Dn1, v060
	.byte	W06
	.byte		N24	, Fs2, v120
	.byte	W12
	.byte		N06	, Dn1, v052
	.byte	W06
	.byte		N24	, Cs2, v120
	.byte	W12
	.byte		N06	, Ds1, v072
	.byte	W06
	.byte		N24	, Gn2, v120
	.byte	W12
	.byte		N06	, Dn1, v052
	.byte	W06
	.byte		N24	, Cs2, v120
	.byte	W24
	.byte	W96
song0044_3_4:
	.byte		N24	, Cs2, v127
	.byte	W12
	.byte		N06	, Dn1, v060
	.byte	W06
	.byte			Dn1, v052
	.byte	W06
	.byte		N12	, Ds1, v072
	.byte	W12
	.byte		N06	, Dn1, v060
	.byte	W06
	.byte			Dn1, v052
	.byte	W06
	.byte		N12	, Ds1, v072
	.byte	W12
	.byte		N06	, Dn1, v060
	.byte	W06
	.byte			Dn1, v052
	.byte	W06
	.byte		N12	, Ds1, v072
	.byte	W12
	.byte		N06	, Dn1, v060
	.byte	W06
	.byte			Dn1, v052
	.byte	W06
	.byte	PEND
song0044_3_2:
	.byte		N12	, Ds1, v072
	.byte	W12
	.byte		N06	, Dn1, v060
	.byte	W06
	.byte			Dn1, v052
	.byte	W06
	.byte		N12	, Ds1, v072
	.byte	W12
	.byte		N06	, Dn1, v060
	.byte	W06
	.byte			Dn1, v052
	.byte	W06
	.byte		N12	, Ds1, v072
	.byte	W12
	.byte		N06	, Dn1, v060
	.byte	W06
	.byte			Dn1, v052
	.byte	W06
	.byte		N12	, Ds1, v072
	.byte	W12
	.byte		N06	, Dn1, v060
	.byte	W06
	.byte			Dn1, v052
	.byte	W06
	.byte	PEND
	.byte	PATT	
		.word	song0044_3_2
song0044_3_3:
	.byte		N11	, Ds1, v072
	.byte	W12
	.byte		N06	, Dn1, v060
	.byte	W06
	.byte			Dn1, v052
	.byte	W06
	.byte		N12	, Ds1, v072
	.byte	W12
	.byte		N06	, Dn1, v060
	.byte	W06
	.byte			Dn1, v052
	.byte	W06
	.byte		N12	, Ds1, v072
	.byte	W12
	.byte		N06	, Dn1, v060
	.byte	W06
	.byte			Dn1, v052
	.byte	W06
	.byte		N12	, Ds1, v072
	.byte	W12
	.byte		N06	, Dn1, v060
	.byte	W06
	.byte			Dn1, v052
	.byte	W06
	.byte	PEND
song0044_3_5:
	.byte		N24	, Fs2, v127
	.byte	W12
	.byte		N06	, Dn1, v060
	.byte	W06
	.byte			Dn1, v052
	.byte	W06
	.byte		N12	, Ds1, v072
	.byte	W12
	.byte		N06	, Dn1, v060
	.byte	W06
	.byte			Dn1, v052
	.byte	W06
	.byte		N12	, Ds1, v072
	.byte	W12
	.byte		N06	, Dn1, v060
	.byte	W06
	.byte			Dn1, v052
	.byte	W06
	.byte		N12	, Ds1, v072
	.byte	W12
	.byte		N06	, Dn1, v060
	.byte	W06
	.byte			Dn1, v052
	.byte	W06
	.byte	PEND
	.byte	PATT	
		.word	song0044_3_2
	.byte	PATT	
		.word	song0044_3_2
	.byte	PATT	
		.word	song0044_3_3
	.byte	PATT	
		.word	song0044_3_4
	.byte	PATT	
		.word	song0044_3_2
	.byte	PATT	
		.word	song0044_3_2
	.byte	PATT	
		.word	song0044_3_3
	.byte	PATT	
		.word	song0044_3_5
	.byte	PATT	
		.word	song0044_3_2
	.byte	PATT	
		.word	song0044_3_2
	.byte	PATT	
		.word	song0044_3_3
	.byte	PATT	
		.word	song0044_3_4
	.byte	PATT	
		.word	song0044_3_2
	.byte	PATT	
		.word	song0044_3_2
	.byte		N24	, Fs2, v127
	.byte	W12
	.byte		N06	, Dn1, v060
	.byte	W06
	.byte			Dn1, v052
	.byte	W06
	.byte		N12	, Ds1, v072
	.byte	W12
	.byte		N06	, Dn1, v060
	.byte	W06
	.byte			Dn1, v052
	.byte	W06
	.byte		N24	, Cs2, v127
	.byte	W12
	.byte		N06	, Dn1, v060
	.byte	W06
	.byte			Dn1, v052
	.byte	W06
	.byte		N12	, Ds1, v072
	.byte	W12
	.byte		N06	, Dn1, v060
	.byte	W06
	.byte			Dn1, v052
	.byte	W06
	.byte	PATT	
		.word	song0044_3_4
	.byte	PATT	
		.word	song0044_3_2
song0044_3_6:
	.byte		N12	, En1, v072
	.byte	W12
	.byte		N06	, Ds1, v060
	.byte	W06
	.byte			Ds1, v052
	.byte	W06
	.byte		N12	, En1, v072
	.byte	W12
	.byte		N06	, Ds1, v060
	.byte	W06
	.byte			Ds1, v052
	.byte	W06
	.byte			Ds1, v072
	.byte	W06
	.byte		N06	
	.byte	W06
	.byte			En1
	.byte	W06
	.byte			Ds1
	.byte	W06
	.byte		N06	
	.byte	W06
	.byte		N06	
	.byte	W06
	.byte			En1
	.byte	W06
	.byte			Ds1
	.byte	W06
	.byte	PEND
	.byte	PATT	
		.word	song0044_3_2
song0044_3_7:
	.byte		N24	, Gn2, v127
	.byte	W12
	.byte		N06	, Dn1, v060
	.byte	W06
	.byte			Dn1, v052
	.byte	W06
	.byte		N12	, Ds1, v072
	.byte	W12
	.byte		N06	, Dn1, v060
	.byte	W06
	.byte			Dn1, v052
	.byte	W06
	.byte		N12	, Ds1, v072
	.byte	W12
	.byte		N06	, Dn1, v060
	.byte	W06
	.byte			Dn1, v052
	.byte	W06
	.byte		N12	, Ds1, v072
	.byte	W12
	.byte		N06	, Dn1, v060
	.byte	W06
	.byte			Dn1, v052
	.byte	W06
	.byte	PEND
	.byte	PATT	
		.word	song0044_3_2
song0044_3_8:
	.byte		N12	, En1, v072
	.byte	W12
	.byte		N06	, Ds1, v060
	.byte	W06
	.byte			Ds1, v052
	.byte	W06
	.byte		N12	, En1, v072
	.byte	W12
	.byte		N06	, Ds1, v060
	.byte	W06
	.byte			Ds1, v052
	.byte	W06
	.byte			Ds1, v068
	.byte	W06
	.byte		N06	
	.byte	W06
	.byte			En1
	.byte	W06
	.byte			Ds1
	.byte	W06
	.byte		N06	
	.byte	W06
	.byte		N06	
	.byte	W06
	.byte			En1
	.byte	W06
	.byte			Ds1
	.byte	W06
	.byte	PEND
song0044_3_9:
	.byte		N12	, Ds1, v072
	.byte	W12
	.byte		N06	, Dn1, v060
	.byte	W06
	.byte			Dn1, v052
	.byte	W06
	.byte		N12	, Ds1, v072
	.byte	W12
	.byte		N06	, Dn1, v060
	.byte	W06
	.byte			Dn1, v052
	.byte	W54
	.byte	PEND
	.byte	PATT	
		.word	song0044_3_4
	.byte	PATT	
		.word	song0044_3_2
	.byte	PATT	
		.word	song0044_3_6
	.byte	PATT	
		.word	song0044_3_2
	.byte	PATT	
		.word	song0044_3_7
	.byte	PATT	
		.word	song0044_3_2
	.byte	PATT	
		.word	song0044_3_8
	.byte	PATT	
		.word	song0044_3_9
	.byte	PATT	
		.word	song0044_3_4
	.byte	PATT	
		.word	song0044_3_2
	.byte	PATT	
		.word	song0044_3_2
	.byte	PATT	
		.word	song0044_3_3
	.byte	PATT	
		.word	song0044_3_5
	.byte	PATT	
		.word	song0044_3_2
	.byte	PATT	
		.word	song0044_3_2
	.byte	PATT	
		.word	song0044_3_3
	.byte	PATT	
		.word	song0044_3_4
	.byte	PATT	
		.word	song0044_3_2
	.byte	PATT	
		.word	song0044_3_2
	.byte	PATT	
		.word	song0044_3_3
	.byte	PATT	
		.word	song0044_3_5
	.byte	PATT	
		.word	song0044_3_2
	.byte	PATT	
		.word	song0044_3_2
	.byte	PATT	
		.word	song0044_3_3
	.byte	PATT	
		.word	song0044_3_5
	.byte		N12	, Ds1, v064
	.byte	W12
	.byte		N06	, Dn1, v060
	.byte	W06
	.byte		N06	
	.byte	W06
	.byte		N12	, Ds1, v056
	.byte	W12
	.byte		N06	, Dn1, v052
	.byte	W06
	.byte		N06	
	.byte	W06
	.byte		N12	, Ds1, v048
	.byte	W12
	.byte		N06	, Dn1, v044
	.byte	W06
	.byte		N06	
	.byte	W06
	.byte		N12	, Ds1, v040
	.byte	W12
	.byte		N06	, Dn1, v036
	.byte	W06
	.byte		N06	
	.byte	W06
	.byte		N12	, Ds1, v032
	.byte	W12
	.byte		N06	, Dn1
	.byte	W06
	.byte			Dn1, v028
	.byte	W06
	.byte		N12	, Ds1
	.byte	W12
	.byte		N06	, Dn1, v024
	.byte	W06
	.byte			Dn1, v020
	.byte	W06
	.byte		N12	, Ds1
	.byte	W12
	.byte		N06	, Dn1, v016
	.byte	W06
	.byte			Dn1, v012
	.byte	W06
	.byte		N12	, Ds1
	.byte	W12
	.byte		N06	, Dn1, v008
	.byte	W06
	.byte			Dn1, v004
	.byte	W06
	.byte		N11	, Ds1
	.byte	W11
	.byte	FINE

	@********************** Track  4 **********************@

	.global song0044_4
song0044_4:	@ 0x08C78BF7
	.byte	KEYSH	, 0
	.byte	VOICE	, 2
	.byte	VOL	, v070
	.byte	PAN	, c_v-30
	.byte	MOD	, 2
	.byte	W03
	.byte	W48
	.byte	W96
	.byte	VOL	, v055
	.byte	W24
	.byte		N04	, Bn2, v080
	.byte	W04
	.byte			En3
	.byte	W04
	.byte			Gs3
	.byte	W04
	.byte		N04	
	.byte	W04
	.byte			Bn3
	.byte	W04
	.byte			En4
	.byte	W04
	.byte		N04	
	.byte	W04
	.byte			Gs4
	.byte	W04
	.byte			Bn4
	.byte	W04
	.byte		N04	
	.byte	W04
	.byte			En5
	.byte	W04
	.byte			Gs5
	.byte	W04
	.byte			Bn5
	.byte	W04
	.byte			Gs5
	.byte	W04
	.byte			En5
	.byte	W04
	.byte		N04	
	.byte	W04
	.byte			Bn4
	.byte	W04
	.byte			Gs4
	.byte	W04
	.byte	W96
	.byte	W96
	.byte	W96
	.byte	VOL	, v055
	.byte	W24
	.byte		N04	, Dn3
	.byte	W04
	.byte			Gn3
	.byte	W04
	.byte			Bn3
	.byte	W04
	.byte		N04	
	.byte	W04
	.byte			Dn4
	.byte	W04
	.byte			Gn4
	.byte	W04
	.byte		N04	
	.byte	W04
	.byte			Bn4
	.byte	W04
	.byte			Dn5
	.byte	W04
	.byte		N04	
	.byte	W04
	.byte			Gn5
	.byte	W04
	.byte			Bn5
	.byte	W04
	.byte			Dn6
	.byte	W04
	.byte			Bn5
	.byte	W04
	.byte			Gn5
	.byte	W04
	.byte		N04	
	.byte	W04
	.byte			Dn5
	.byte	W04
	.byte			Bn4
	.byte	W04
	.byte	W96
	.byte	W96
	.byte			An4
	.byte	W04
	.byte			En4
	.byte	W04
	.byte			Cs4
	.byte	W04
	.byte			En4
	.byte	W04
	.byte			Cs4
	.byte	W04
	.byte			An3
	.byte	W04
	.byte			Cs4
	.byte	W04
	.byte			An3
	.byte	W04
	.byte			En3
	.byte	W04
	.byte			An3
	.byte	W04
	.byte			En3
	.byte	W04
	.byte			Cs3
	.byte	W04
	.byte			En3
	.byte	W04
	.byte			Cs3
	.byte	W04
	.byte			An2
	.byte	W04
	.byte			Cs3
	.byte	W04
	.byte			An2
	.byte	W04
	.byte			En2
	.byte	W04
	.byte			An2
	.byte	W04
	.byte			En2
	.byte	W04
	.byte			Cs2
	.byte	W04
	.byte			En2
	.byte	W04
	.byte			Cs2
	.byte	W04
	.byte			An1
	.byte	W04
	.byte	W96
	.byte	W96
	.byte	W96
	.byte	W96
song0044_4_1:
	.byte		N18	, Bn2, v072
	.byte	W18
	.byte			Cs3
	.byte	W18
	.byte			Ds3
	.byte	W18
	.byte			En3
	.byte	W18
	.byte		N06	, Ds3
	.byte	W12
	.byte		N12	, Cs3
	.byte	W12
	.byte	PEND
song0044_4_2:
	.byte		N18	, An2, v072
	.byte	W18
	.byte			Bn2
	.byte	W18
	.byte			Cs3
	.byte	W18
	.byte			Dn3
	.byte	W18
	.byte		N06	, Cs3
	.byte	W12
	.byte		N12	, Bn2
	.byte	W12
	.byte	PEND
song0044_4_3:
	.byte		N18	, Cs3, v072
	.byte	W18
	.byte			Ds3
	.byte	W18
	.byte			En3
	.byte	W18
	.byte			Fs3
	.byte	W18
	.byte		N06	, En3
	.byte	W12
	.byte		N12	, Ds3
	.byte	W12
	.byte	PEND
	.byte	PATT	
		.word	song0044_4_1
	.byte	PATT	
		.word	song0044_4_1
	.byte	PATT	
		.word	song0044_4_2
	.byte	PATT	
		.word	song0044_4_3
	.byte	PATT	
		.word	song0044_4_1
	.byte		N18	, En2, v072
	.byte	W18
	.byte			Fs2
	.byte	W18
	.byte			Gs2
	.byte	W18
	.byte			An2
	.byte	W18
	.byte		N06	, Gs2
	.byte	W12
	.byte		N12	, Fs2
	.byte	W12
	.byte		N18	, Ds2
	.byte	W18
	.byte			En2
	.byte	W18
	.byte			Fs2
	.byte	W18
	.byte			Gs2
	.byte	W18
	.byte		N06	, Fs2
	.byte	W12
	.byte		N12	, En2
	.byte	W12
	.byte	PATT	
		.word	song0044_4_1
	.byte		N18	, Gs3, v072
	.byte	W18
	.byte			Fs3
	.byte	W18
	.byte			Fn3
	.byte	W18
	.byte			Ds3
	.byte	W18
	.byte		N06	, Cs3
	.byte	W12
	.byte		N12	, Cn3
	.byte	W12
	.byte	PATT	
		.word	song0044_4_2
	.byte	PATT	
		.word	song0044_4_2
	.byte		N18	, Fs2, v072
	.byte	W18
	.byte			Gs2
	.byte	W18
	.byte			An2
	.byte	W18
	.byte			Bn2
	.byte	W18
	.byte		N06	, An2
	.byte	W12
	.byte		N12	, Gs2
	.byte	W12
	.byte		N18	, Cs3
	.byte	W18
	.byte			Ds3
	.byte	W18
	.byte			En3
	.byte	W18
	.byte			Ds3
	.byte	W18
	.byte		N06	, En3
	.byte	W12
	.byte		N12	, Fs3
	.byte	W12
song0044_4_4:
	.byte		N04	, En5, v080
	.byte	W04
	.byte			Bn4
	.byte	W04
	.byte			Gs4
	.byte	W04
	.byte			Bn4
	.byte	W04
	.byte			Gs4
	.byte	W04
	.byte			En4
	.byte	W04
	.byte			Gs4
	.byte	W04
	.byte			En4
	.byte	W04
	.byte			Bn3
	.byte	W04
	.byte			En4
	.byte	W04
	.byte			Bn3
	.byte	W04
	.byte			Gs3
	.byte	W04
	.byte			Bn3
	.byte	W04
	.byte			Gs3
	.byte	W04
	.byte			En3
	.byte	W04
	.byte			Gs3
	.byte	W04
	.byte			En3
	.byte	W04
	.byte			Bn2
	.byte	W04
	.byte			En3
	.byte	W04
	.byte			Bn2
	.byte	W04
	.byte			Gs2
	.byte	W04
	.byte			Bn2
	.byte	W04
	.byte			Gs2
	.byte	W04
	.byte			En2
	.byte	W04
	.byte	PEND
song0044_4_5:
	.byte		N04	, An1, v080
	.byte	W04
	.byte			Dn2
	.byte	W04
	.byte			Fs2
	.byte	W04
	.byte			Dn2
	.byte	W04
	.byte			Fs2
	.byte	W04
	.byte			An2
	.byte	W04
	.byte			Fs2
	.byte	W04
	.byte			An2
	.byte	W04
	.byte			Dn3
	.byte	W04
	.byte			An2
	.byte	W04
	.byte			Dn3
	.byte	W04
	.byte			Fs3
	.byte	W04
	.byte			Dn3
	.byte	W04
	.byte			Fs3
	.byte	W04
	.byte			An3
	.byte	W04
	.byte			Fs3
	.byte	W04
	.byte			An3
	.byte	W04
	.byte			Dn4
	.byte	W04
	.byte			An3
	.byte	W04
	.byte			Dn4
	.byte	W04
	.byte			Fs4
	.byte	W04
	.byte			Dn4
	.byte	W04
	.byte			Fs4
	.byte	W04
	.byte			An4
	.byte	W04
	.byte	PEND
song0044_4_6:
	.byte		N04	, En5, v080
	.byte	W04
	.byte			Cs5
	.byte	W04
	.byte			An4
	.byte	W04
	.byte			Cs5
	.byte	W04
	.byte			An4
	.byte	W04
	.byte			En4
	.byte	W04
	.byte			An4
	.byte	W04
	.byte			En4
	.byte	W04
	.byte			Cs4
	.byte	W04
	.byte			En4
	.byte	W04
	.byte			Cs4
	.byte	W04
	.byte			An3
	.byte	W04
	.byte			Cs4
	.byte	W04
	.byte			An3
	.byte	W04
	.byte			En3
	.byte	W04
	.byte			An3
	.byte	W04
	.byte			En3
	.byte	W04
	.byte			Cs3
	.byte	W04
	.byte			En3
	.byte	W04
	.byte			Cs3
	.byte	W04
	.byte			An2
	.byte	W04
	.byte			Cs3
	.byte	W04
	.byte			An2
	.byte	W04
	.byte			En2
	.byte	W04
	.byte	PEND
song0044_4_7:
	.byte		N04	, Cn2, v080
	.byte	W04
	.byte			En2
	.byte	W04
	.byte			An2
	.byte	W04
	.byte			En2
	.byte	W04
	.byte			An2
	.byte	W04
	.byte			Cn3
	.byte	W04
	.byte			An2
	.byte	W04
	.byte			Cn3
	.byte	W04
	.byte			En3
	.byte	W04
	.byte			Cn3
	.byte	W04
	.byte			En3
	.byte	W04
	.byte			An3
	.byte	W04
	.byte			En3
	.byte	W04
	.byte			An3
	.byte	W04
	.byte			Cn4
	.byte	W04
	.byte			An3
	.byte	W04
	.byte			Cn4
	.byte	W04
	.byte			En4
	.byte	W04
	.byte			Cn4
	.byte	W04
	.byte			En4
	.byte	W04
	.byte			An4
	.byte	W04
	.byte			En4
	.byte	W04
	.byte			An4
	.byte	W04
	.byte			Cn5
	.byte	W04
	.byte	PEND
	.byte	PATT	
		.word	song0044_4_4
	.byte	PATT	
		.word	song0044_4_5
	.byte	PATT	
		.word	song0044_4_6
	.byte	PATT	
		.word	song0044_4_7
	.byte	PATT	
		.word	song0044_4_4
	.byte	PATT	
		.word	song0044_4_5
	.byte	PATT	
		.word	song0044_4_6
	.byte	PATT	
		.word	song0044_4_7
	.byte	PATT	
		.word	song0044_4_4
	.byte	PATT	
		.word	song0044_4_5
	.byte	PATT	
		.word	song0044_4_6
	.byte		N04	, Ds2, v080
	.byte	W04
	.byte			Fs2
	.byte	W04
	.byte			Bn2
	.byte	W04
	.byte			Fs2
	.byte	W04
	.byte			Bn2
	.byte	W04
	.byte			Ds3
	.byte	W04
	.byte			Bn2
	.byte	W04
	.byte			Ds3
	.byte	W04
	.byte			Fs3
	.byte	W04
	.byte			Ds3
	.byte	W04
	.byte			Fs3
	.byte	W04
	.byte			Bn3
	.byte	W04
	.byte			Fs3
	.byte	W04
	.byte			Bn3
	.byte	W04
	.byte			Ds4
	.byte	W04
	.byte			Bn3
	.byte	W04
	.byte			Ds4
	.byte	W04
	.byte			Fs4
	.byte	W04
	.byte			Ds4
	.byte	W04
	.byte			Fs4
	.byte	W04
	.byte			Bn4
	.byte	W04
	.byte			Fs4
	.byte	W04
	.byte			Bn4
	.byte	W04
	.byte			Dn5
	.byte	W04
	.byte	W96
	.byte	W96
	.byte	W96
	.byte	W96
	.byte	W05
	.byte		N01	, As3, v120
	.byte	W01
	.byte		N06	, Bn3
	.byte	W06
	.byte			Cs4
	.byte	W06
	.byte			Ds4
	.byte	W06
	.byte			Bn3
	.byte	W06
	.byte		N12	, Gs3
	.byte	W12
	.byte			Gn3
	.byte	W12
	.byte		N06	, Gs3
	.byte	W06
	.byte			Fs3
	.byte	W06
	.byte			En3
	.byte	W06
	.byte			Cs3
	.byte	W06
	.byte			Ds3
	.byte	W06
	.byte			Cs3
	.byte	W06
	.byte			Bn2
	.byte	W06
	.byte			Cs3
	.byte	W06
	.byte			Bn2
	.byte	W06
	.byte			Cs3
	.byte	W06
	.byte			Bn2
	.byte	W06
	.byte		N11	, Gs2
	.byte	W11
	.byte		N01	, Bn2
	.byte	W01
	.byte		N06	, Cs3
	.byte	W06
	.byte			Bn2
	.byte	W06
	.byte			Cs3
	.byte	W06
	.byte			Bn2
	.byte	W06
	.byte			Gs2
	.byte	W06
	.byte			An2
	.byte	W06
	.byte			Bn2
	.byte	W06
	.byte			Cs3
	.byte	W06
	.byte			Bn2
	.byte	W06
	.byte			Gs2
	.byte	W06
	.byte			Fs2
	.byte	W06
	.byte			Gs2
	.byte	W06
	.byte			An2
	.byte	W06
	.byte			Bn2
	.byte	W06
	.byte			Cs3
	.byte	W06
	.byte		N11	, Ds3
	.byte	W11
	.byte		N01	, Fn3
	.byte	W01
	.byte		N12	, Fs3
	.byte	W12
	.byte		N06	, Ds3
	.byte	W06
	.byte			Fs3
	.byte	W06
	.byte			Gs3
	.byte	W06
	.byte			An3
	.byte	W06
	.byte			Gs3
	.byte	W06
	.byte			An3
	.byte	W06
	.byte		N05	, Bn3
	.byte	W05
	.byte		N01	, Cn4
	.byte	W01
	.byte		N04	, Cs4
	.byte	W04
	.byte			Bn3
	.byte	W04
	.byte			Gs3
	.byte	W04
	.byte			Bn3
	.byte	W04
	.byte			Gs3
	.byte	W04
	.byte			Fs3
	.byte	W04
	.byte		N06	, Gs3
	.byte	W06
	.byte			Fs3
	.byte	W06
	.byte			Gs3
	.byte	W06
	.byte			Fs3
	.byte	W06
	.byte			Dn3
	.byte	W06
	.byte			Fs3
	.byte	W06
	.byte			Dn3
	.byte	W06
	.byte			Cs3
	.byte	W06
	.byte			Bn2
	.byte	W06
	.byte			An2
	.byte	W06
	.byte			Gs2
	.byte	W06
	.byte			Fs2
	.byte	W06
	.byte			En2
	.byte	W06
	.byte			As1
	.byte	W06
	.byte			An1
	.byte	W06
	.byte			Gs1
	.byte	W06
	.byte			En1
	.byte	W06
	.byte			Fn1
	.byte	W11
	.byte		N01	
	.byte	W01
	.byte		N06	, Fs1
	.byte	W12
	.byte			Gs1
	.byte	W12
	.byte			An1
	.byte	W12
	.byte			As1
	.byte	W11
	.byte		N01	
	.byte	W01
	.byte		N06	, Bn1
	.byte	W06
	.byte	W06
	.byte			Cs2
	.byte	W12
	.byte			Dn2
	.byte	W12
	.byte			Ds2
	.byte	W11
	.byte		N01	
	.byte	W01
	.byte		N06	, En2
	.byte	W12
	.byte			Fs2
	.byte	W12
	.byte			Gn2
	.byte	W12
	.byte			Gs2
	.byte	W12
	.byte		N05	, An2
	.byte	W05
	.byte		N01	, As2
	.byte	W01
	.byte		N12	, Bn2
	.byte	W12
	.byte		N06	, Cs3
	.byte	W06
	.byte			Dn3
	.byte	W06
	.byte			Ds3
	.byte	W06
	.byte			En3
	.byte	W12
	.byte			Fn3
	.byte	W12
	.byte			Fs3
	.byte	W12
	.byte			Gn3
	.byte	W12
	.byte			Gs3
	.byte	W12
	.byte			An3
	.byte	W06
	.byte		N04	, Bn3
	.byte	W04
	.byte			Dn4
	.byte	W04
	.byte			Bn3
	.byte	W04
	.byte			An3
	.byte	W04
	.byte			Bn3
	.byte	W04
	.byte			An3
	.byte	W04
	.byte			Gn3
	.byte	W04
	.byte			An3
	.byte	W04
	.byte			Fs3
	.byte	W04
	.byte			En3
	.byte	W04
	.byte			Fs3
	.byte	W04
	.byte			Dn3
	.byte	W04
	.byte			En3
	.byte	W04
	.byte			Gs3
	.byte	W04
	.byte			En3
	.byte	W04
	.byte			Dn3
	.byte	W04
	.byte			En3
	.byte	W04
	.byte			Dn3
	.byte	W04
	.byte			Cs3
	.byte	W04
	.byte			Dn3
	.byte	W04
	.byte			Bn2
	.byte	W04
	.byte			An2
	.byte	W04
	.byte			Bn2
	.byte	W04
	.byte			Gs2
	.byte	W04
	.byte		N01	, Gn2
	.byte	W01
	.byte		N32	, Gs2
	.byte	W32
	.byte	W03
	.byte		N24	, Fs2
	.byte	W24
	.byte		N04	, Gs2
	.byte	W04
	.byte			Gn2
	.byte	W04
	.byte			Fs2
	.byte	W04
	.byte		N72	, Dn2
	.byte	W24
	.byte	W96
	.byte	W96
	.byte	W96
	.byte		N01	, Gn4, v080
	.byte	W01
	.byte		N18	, Gs4
	.byte	W18
	.byte			An4
	.byte	W18
	.byte		N12	, Gs4
	.byte	W12
	.byte		N18	, An4
	.byte	W18
	.byte			Gs4
	.byte	W18
	.byte		N11	, An4
	.byte	W11
	.byte		N01	, Gs4, v068
	.byte	W01
	.byte		N18	, An4
	.byte	W18
	.byte			Gs4, v060
	.byte	W18
	.byte		N12	, An4, v052
	.byte	W12
	.byte		N18	, Fs4, v044
	.byte	W18
	.byte			Gs4, v036
	.byte	W18
	.byte		N12	, An4, v028
	.byte	W11
	.byte	W24
	.byte		N01	, As4, v008
	.byte	W01
	.byte		N72	, Bn4
	.byte	W68
	.byte	W03
	.byte	W01
	.byte	FINE

	@********************** Track  5 **********************@

	.global song0044_5
song0044_5:	@ 0x08C78FCB
	.byte	KEYSH	, 0
	.byte	VOICE	, 12
	.byte	VOL	, v070
	.byte	PAN	, c_v+30
	.byte	MOD	, 0
	.byte	W03
	.byte	W48
	.byte	W96
	.byte	VOL	, v055
	.byte	W24
	.byte		N04	, En2, v080
	.byte	W04
	.byte			Gs2
	.byte	W04
	.byte			Bn2
	.byte	W04
	.byte		N04	
	.byte	W04
	.byte			En3
	.byte	W04
	.byte			Gs3
	.byte	W04
	.byte		N04	
	.byte	W04
	.byte			Bn3
	.byte	W04
	.byte			En4
	.byte	W04
	.byte		N04	
	.byte	W04
	.byte			Gs4
	.byte	W04
	.byte			Bn4
	.byte	W04
	.byte			En5
	.byte	W04
	.byte			Bn4
	.byte	W04
	.byte			Gs4
	.byte	W04
	.byte		N04	
	.byte	W04
	.byte			En4
	.byte	W04
	.byte			Bn3
	.byte	W04
	.byte	W96
	.byte	W96
	.byte	W96
	.byte	VOL	, v055
	.byte	W24
	.byte		N04	, Gn2
	.byte	W04
	.byte			Bn2
	.byte	W04
	.byte			Dn3
	.byte	W04
	.byte		N04	
	.byte	W04
	.byte			Gn3
	.byte	W04
	.byte			Bn3
	.byte	W04
	.byte		N04	
	.byte	W04
	.byte			Dn4
	.byte	W04
	.byte			Gn4
	.byte	W04
	.byte		N04	
	.byte	W04
	.byte			Bn4
	.byte	W04
	.byte			Dn5
	.byte	W04
	.byte			Gn5
	.byte	W04
	.byte			Dn5
	.byte	W04
	.byte			Bn4
	.byte	W04
	.byte		N04	
	.byte	W04
	.byte			Gn4
	.byte	W04
	.byte			Dn4
	.byte	W04
	.byte	W96
	.byte	W96
	.byte			En5
	.byte	W04
	.byte			Cs5
	.byte	W04
	.byte			An4
	.byte	W04
	.byte			Cs5
	.byte	W04
	.byte			An4
	.byte	W04
	.byte			En4
	.byte	W04
	.byte			An4
	.byte	W04
	.byte			En4
	.byte	W04
	.byte			Cs4
	.byte	W04
	.byte			En4
	.byte	W04
	.byte			Cs4
	.byte	W04
	.byte			An3
	.byte	W04
	.byte			Cs4
	.byte	W04
	.byte			An3
	.byte	W04
	.byte			En3
	.byte	W04
	.byte			An3
	.byte	W04
	.byte			En3
	.byte	W04
	.byte			Cs3
	.byte	W04
	.byte			En3
	.byte	W04
	.byte			Cs3
	.byte	W04
	.byte			An2
	.byte	W04
	.byte			Cs3
	.byte	W04
	.byte			An2
	.byte	W04
	.byte			En2
	.byte	W04
	.byte	W96
	.byte	W96
	.byte	W96
	.byte	W96
song0044_5_1:
	.byte		N18	, Gs2, v072
	.byte	W18
	.byte			An2
	.byte	W18
	.byte			Bn2
	.byte	W18
	.byte			Cs3
	.byte	W18
	.byte		N06	, Bn2
	.byte	W12
	.byte		N12	, An2
	.byte	W12
	.byte	PEND
song0044_5_2:
	.byte		N18	, Fs2, v072
	.byte	W18
	.byte			Gs2
	.byte	W18
	.byte			An2
	.byte	W18
	.byte			Bn2
	.byte	W18
	.byte		N06	, An2
	.byte	W12
	.byte		N12	, Gs2
	.byte	W12
	.byte	PEND
song0044_5_3:
	.byte		N18	, An2, v072
	.byte	W18
	.byte			Bn2
	.byte	W18
	.byte			Cs3
	.byte	W18
	.byte			Ds3
	.byte	W18
	.byte		N06	, Cs3
	.byte	W12
	.byte		N12	, Bn2
	.byte	W12
	.byte	PEND
	.byte	PATT	
		.word	song0044_5_1
	.byte	PATT	
		.word	song0044_5_1
	.byte	PATT	
		.word	song0044_5_2
	.byte	PATT	
		.word	song0044_5_3
	.byte	PATT	
		.word	song0044_5_1
	.byte	PATT	
		.word	song0044_5_1
	.byte	PATT	
		.word	song0044_5_2
	.byte	PATT	
		.word	song0044_5_1
	.byte		N18	, Fs3, v072
	.byte	W18
	.byte			Ds3
	.byte	W18
	.byte			Cs3
	.byte	W18
	.byte			Cn3
	.byte	W18
	.byte		N06	, As2
	.byte	W12
	.byte		N12	, Gs2
	.byte	W12
	.byte	PATT	
		.word	song0044_5_2
	.byte		N18	, En2, v072
	.byte	W18
	.byte			Gs2
	.byte	W18
	.byte			An2
	.byte	W18
	.byte			Bn2
	.byte	W18
	.byte		N06	, An2
	.byte	W12
	.byte		N12	, Fs2
	.byte	W12
	.byte		N18	, Ds2
	.byte	W18
	.byte			En2
	.byte	W18
	.byte			Fs2
	.byte	W18
	.byte			Gs2
	.byte	W18
	.byte		N06	, Fs2
	.byte	W12
	.byte		N12	, En2
	.byte	W12
	.byte		N18	, An2
	.byte	W18
	.byte			Bn2
	.byte	W18
	.byte			Cs3
	.byte	W18
	.byte			Bn2
	.byte	W18
	.byte		N06	, Cs3
	.byte	W12
	.byte		N12	, Ds3
	.byte	W12
song0044_5_4:
	.byte		N04	, Bn4, v080
	.byte	W04
	.byte			Gs4
	.byte	W04
	.byte			En4
	.byte	W04
	.byte			Gs4
	.byte	W04
	.byte			En4
	.byte	W04
	.byte			Bn3
	.byte	W04
	.byte			En4
	.byte	W04
	.byte			Bn3
	.byte	W04
	.byte			Gs3
	.byte	W04
	.byte			Bn3
	.byte	W04
	.byte			Gs3
	.byte	W04
	.byte			En3
	.byte	W04
	.byte			Gs3
	.byte	W04
	.byte			En3
	.byte	W04
	.byte			Bn2
	.byte	W04
	.byte			En3
	.byte	W04
	.byte			Bn2
	.byte	W04
	.byte			Gs2
	.byte	W04
	.byte			Bn2
	.byte	W04
	.byte			Gs2
	.byte	W04
	.byte			En2
	.byte	W04
	.byte			Gs2
	.byte	W04
	.byte			En2
	.byte	W04
	.byte			Bn1
	.byte	W04
	.byte	PEND
song0044_5_5:
	.byte		N04	, Dn2, v080
	.byte	W04
	.byte			Fs2
	.byte	W04
	.byte			An2
	.byte	W04
	.byte			Fs2
	.byte	W04
	.byte			An2
	.byte	W04
	.byte			Dn3
	.byte	W04
	.byte			An2
	.byte	W04
	.byte			Dn3
	.byte	W04
	.byte			Fs3
	.byte	W04
	.byte			Dn3
	.byte	W04
	.byte			Fs3
	.byte	W04
	.byte			An3
	.byte	W04
	.byte			Fs3
	.byte	W04
	.byte			An3
	.byte	W04
	.byte			Dn4
	.byte	W04
	.byte			An3
	.byte	W04
	.byte			Dn4
	.byte	W04
	.byte			Fs4
	.byte	W04
	.byte			Dn4
	.byte	W04
	.byte			Fs4
	.byte	W04
	.byte			An4
	.byte	W04
	.byte			Fs4
	.byte	W04
	.byte			An4
	.byte	W04
	.byte			Dn5
	.byte	W04
	.byte	PEND
song0044_5_6:
	.byte		N04	, Cs5, v080
	.byte	W04
	.byte			An4
	.byte	W04
	.byte			En4
	.byte	W04
	.byte			An4
	.byte	W04
	.byte			En4
	.byte	W04
	.byte			Cs4
	.byte	W04
	.byte			En4
	.byte	W04
	.byte			Cs4
	.byte	W04
	.byte			An3
	.byte	W04
	.byte			Cs4
	.byte	W04
	.byte			An3
	.byte	W04
	.byte			En3
	.byte	W04
	.byte			An3
	.byte	W04
	.byte			En3
	.byte	W04
	.byte			Cs3
	.byte	W04
	.byte			En3
	.byte	W04
	.byte			Cs3
	.byte	W04
	.byte			An2
	.byte	W04
	.byte			Cs3
	.byte	W04
	.byte			An2
	.byte	W04
	.byte			En2
	.byte	W04
	.byte			An2
	.byte	W04
	.byte			En2
	.byte	W04
	.byte			Cs2
	.byte	W04
	.byte	PEND
song0044_5_7:
	.byte		N04	, An1, v080
	.byte	W04
	.byte			Cn2
	.byte	W04
	.byte			En2
	.byte	W04
	.byte			Cn2
	.byte	W04
	.byte			En2
	.byte	W04
	.byte			An2
	.byte	W04
	.byte			En2
	.byte	W04
	.byte			An2
	.byte	W04
	.byte			Cn3
	.byte	W04
	.byte			An2
	.byte	W04
	.byte			Cn3
	.byte	W04
	.byte			En3
	.byte	W04
	.byte			Cn3
	.byte	W04
	.byte			En3
	.byte	W04
	.byte			An3
	.byte	W04
	.byte			En3
	.byte	W04
	.byte			An3
	.byte	W04
	.byte			Cn4
	.byte	W04
	.byte			An3
	.byte	W04
	.byte			Cn4
	.byte	W04
	.byte			En4
	.byte	W04
	.byte			Cn4
	.byte	W04
	.byte			En4
	.byte	W04
	.byte			An4
	.byte	W04
	.byte	PEND
	.byte	PATT	
		.word	song0044_5_4
	.byte	PATT	
		.word	song0044_5_5
	.byte	PATT	
		.word	song0044_5_6
	.byte	PATT	
		.word	song0044_5_7
	.byte	PATT	
		.word	song0044_5_4
	.byte	PATT	
		.word	song0044_5_5
	.byte	PATT	
		.word	song0044_5_6
	.byte	PATT	
		.word	song0044_5_7
	.byte	PATT	
		.word	song0044_5_4
	.byte	PATT	
		.word	song0044_5_5
	.byte	PATT	
		.word	song0044_5_6
	.byte		N04	, Bn1, v080
	.byte	W04
	.byte			Ds2
	.byte	W04
	.byte			Fs2
	.byte	W04
	.byte			Ds2
	.byte	W04
	.byte			Fs2
	.byte	W04
	.byte			Bn2
	.byte	W04
	.byte			Fs2
	.byte	W04
	.byte			Bn2
	.byte	W04
	.byte			Ds3
	.byte	W04
	.byte			Bn2
	.byte	W04
	.byte			Ds3
	.byte	W04
	.byte			Fs3
	.byte	W04
	.byte			Ds3
	.byte	W04
	.byte			Fs3
	.byte	W04
	.byte			Bn3
	.byte	W04
	.byte			Fs3
	.byte	W04
	.byte			Bn3
	.byte	W04
	.byte			Ds4
	.byte	W04
	.byte			Bn3
	.byte	W04
	.byte			Ds4
	.byte	W04
	.byte			Fs4
	.byte	W04
	.byte			Ds4
	.byte	W04
	.byte			Fs4
	.byte	W04
	.byte			Bn4
	.byte	W04
	.byte	W96
	.byte	W96
	.byte	W96
	.byte	W96
	.byte	W05
	.byte		N01	, Gn4, v120
	.byte	W01
	.byte		N06	, Gs4
	.byte	W06
	.byte			An4
	.byte	W06
	.byte			Bn4
	.byte	W06
	.byte			Gs4
	.byte	W06
	.byte		N12	, En4
	.byte	W12
	.byte			Ds4
	.byte	W12
	.byte		N06	, En4
	.byte	W06
	.byte			Dn4
	.byte	W06
	.byte			Cs4
	.byte	W06
	.byte			An3
	.byte	W06
	.byte			Bn3
	.byte	W06
	.byte			An3
	.byte	W06
	.byte			Gs3
	.byte	W06
	.byte			An3
	.byte	W06
	.byte			Gs3
	.byte	W06
	.byte			An3
	.byte	W06
	.byte			Gs3
	.byte	W06
	.byte		N11	, En3
	.byte	W11
	.byte		N01	, Gs3
	.byte	W01
	.byte		N06	, An3
	.byte	W06
	.byte			Gs3
	.byte	W06
	.byte			An3
	.byte	W06
	.byte			Gs3
	.byte	W06
	.byte			En3
	.byte	W06
	.byte			Fs3
	.byte	W06
	.byte			Gs3
	.byte	W06
	.byte			An3
	.byte	W06
	.byte			Gs3
	.byte	W06
	.byte			En3
	.byte	W06
	.byte			Ds3
	.byte	W06
	.byte			En3
	.byte	W06
	.byte			Fs3
	.byte	W06
	.byte			Gs3
	.byte	W06
	.byte			An3
	.byte	W06
	.byte		N11	, Bn3
	.byte	W11
	.byte		N01	, Dn4
	.byte	W01
	.byte		N12	, Ds4
	.byte	W12
	.byte		N06	, Bn3
	.byte	W06
	.byte			Ds4
	.byte	W06
	.byte			En4
	.byte	W06
	.byte			Fs4
	.byte	W06
	.byte			Fn4
	.byte	W06
	.byte			Fs4
	.byte	W06
	.byte		N05	, Gs4
	.byte	W05
	.byte		N01	
	.byte	W01
	.byte		N04	, An4
	.byte	W04
	.byte			Gs4
	.byte	W04
	.byte			En4
	.byte	W04
	.byte			Gs4
	.byte	W04
	.byte			En4
	.byte	W04
	.byte			Dn4
	.byte	W04
	.byte		N06	, En4
	.byte	W06
	.byte			Dn4
	.byte	W06
	.byte			En4
	.byte	W06
	.byte			Dn4
	.byte	W06
	.byte			Bn3
	.byte	W06
	.byte			Dn4
	.byte	W06
	.byte			Bn3
	.byte	W06
	.byte			An3
	.byte	W06
	.byte			Gs3
	.byte	W06
	.byte			Fs3
	.byte	W06
	.byte			En3
	.byte	W06
	.byte			Dn3
	.byte	W06
	.byte			En3
	.byte	W06
	.byte			As2
	.byte	W06
	.byte			An2
	.byte	W06
	.byte			Gs2
	.byte	W06
	.byte			En2
	.byte	W06
	.byte			Fn2
	.byte	W11
	.byte		N01	
	.byte	W01
	.byte		N06	, Fs2
	.byte	W12
	.byte			Gs2
	.byte	W12
	.byte			An2
	.byte	W12
	.byte			As2
	.byte	W11
	.byte		N01	
	.byte	W01
	.byte		N06	, Bn2
	.byte	W06
	.byte	W06
	.byte			Cs3
	.byte	W12
	.byte			Dn3
	.byte	W12
	.byte			Ds3
	.byte	W11
	.byte		N01	
	.byte	W01
	.byte		N06	, En3
	.byte	W12
	.byte			Fs3
	.byte	W12
	.byte			Gn3
	.byte	W12
	.byte			Gs3
	.byte	W12
	.byte		N05	, An3
	.byte	W05
	.byte		N01	, As3
	.byte	W01
	.byte		N12	, Bn3
	.byte	W12
	.byte		N06	, Cs4
	.byte	W06
	.byte			Dn4
	.byte	W06
	.byte			Ds4
	.byte	W06
	.byte			En4
	.byte	W12
	.byte			Fn4
	.byte	W12
	.byte			Fs4
	.byte	W12
	.byte			Gn4
	.byte	W12
	.byte			Gs4
	.byte	W12
	.byte			An4
	.byte	W06
	.byte		N04	, Bn4
	.byte	W04
	.byte			Dn5
	.byte	W04
	.byte			Bn4
	.byte	W04
	.byte			An4
	.byte	W04
	.byte			Bn4
	.byte	W04
	.byte			An4
	.byte	W04
	.byte			Gn4
	.byte	W04
	.byte			An4
	.byte	W04
	.byte			Fs4
	.byte	W04
	.byte			En4
	.byte	W04
	.byte			Fs4
	.byte	W04
	.byte			Dn4
	.byte	W04
	.byte			En4
	.byte	W04
	.byte			Gs4
	.byte	W04
	.byte			En4
	.byte	W04
	.byte			Dn4
	.byte	W04
	.byte			En4
	.byte	W04
	.byte			Dn4
	.byte	W04
	.byte			Cs4
	.byte	W04
	.byte			Dn4
	.byte	W04
	.byte			Bn3
	.byte	W04
	.byte			An3
	.byte	W04
	.byte			Bn3
	.byte	W04
	.byte			Gs3
	.byte	W04
	.byte		N01	, Ds3
	.byte	W01
	.byte		N32	, En3
	.byte	W32
	.byte	W03
	.byte		N24	, Dn3
	.byte	W24
	.byte		N04	, En3
	.byte	W04
	.byte			Ds3
	.byte	W04
	.byte			Dn3
	.byte	W04
	.byte		N72	, Bn2
	.byte	W24
	.byte	W96
	.byte	W96
	.byte	W96
	.byte		N01	, Ds4, v072
	.byte	W01
	.byte		N18	, En4
	.byte	W18
	.byte			Fs4
	.byte	W18
	.byte		N12	, En4
	.byte	W12
	.byte		N18	, Fs4
	.byte	W18
	.byte			En4
	.byte	W18
	.byte		N11	, Fs4
	.byte	W11
	.byte		N01	, Fn4, v064
	.byte	W01
	.byte		N18	, Fs4
	.byte	W18
	.byte			En4, v056
	.byte	W18
	.byte		N12	, Fs4, v048
	.byte	W12
	.byte		N18	, Dn4, v040
	.byte	W18
	.byte			En4, v032
	.byte	W18
	.byte		N12	, Fs4, v024
	.byte	W11
	.byte	W24
	.byte		N01	, Gn4, v004
	.byte	W01
	.byte		N72	, Gs4
	.byte	W68
	.byte	W03
	.byte	W01
	.byte	FINE

	@********************** Track  6 **********************@

	.global song0044_6
song0044_6:	@ 0x08C79393
	.byte	KEYSH	, 0
	.byte	VOICE	, 125
	.byte	PAN	, c_v
	.byte	VOL	, v094
	.byte	W03
	.byte	W48
	.byte	W96
	.byte	W96
	.byte	W96
	.byte	W96
	.byte	W96
	.byte	W96
	.byte	W96
	.byte	W96
	.byte	W96
	.byte	W96
	.byte	W96
	.byte	W96
	.byte	W96
	.byte	W96
	.byte	W96
	.byte	W96
	.byte	W96
	.byte	W96
	.byte	W96
	.byte	W96
	.byte	W96
	.byte		N84	, Cn4, v112
	.byte	W92
	.byte	W02
	.byte	VOICE	, 124
	.byte	W02
	.byte		N84	, Bn3, v100
	.byte	W96
	.byte		N84	
	.byte	W92
	.byte	W02
	.byte	VOICE	, 123
	.byte	W02
	.byte		N72	, En3
	.byte	W96
	.byte	W96
	.byte	W96
	.byte	W96
	.byte	VOICE	, 124
	.byte	W96
	.byte	W18
	.byte		N06	, En3, v112
	.byte	W18
	.byte		N48	
	.byte	W54
	.byte	VOICE	, 123
	.byte	W06
song0044_6_1:
	.byte		N18	, Fn3, v112
	.byte	W18
	.byte		N06	
	.byte	W18
	.byte		N48	
	.byte	W54
	.byte	VOICE	, 125
	.byte	W06
	.byte	PEND
song0044_6_2:
	.byte		N18	, Fn3, v112
	.byte	W18
	.byte		N06	
	.byte	W18
	.byte		N48	
	.byte	W54
	.byte	VOICE	, 126
	.byte	W06
	.byte	PEND
	.byte		N18	, Cn4
	.byte	W18
	.byte		N06	
	.byte	W18
	.byte		N44	
	.byte	W54
	.byte	VOICE	, 124
	.byte	W06
song0044_6_3:
	.byte		N18	, En3, v100
	.byte	W18
	.byte		N06	, En3, v112
	.byte	W18
	.byte		N48	
	.byte	W60
	.byte	PEND
	.byte	W96
	.byte	W96
	.byte	W96
	.byte		N18	, En3, v100
	.byte	W18
	.byte		N06	, En3, v112
	.byte	W18
	.byte		N48	
	.byte	W54
	.byte	VOICE	, 123
	.byte	W06
	.byte	PATT	
		.word	song0044_6_1
	.byte	PATT	
		.word	song0044_6_2
	.byte		N18	, Cn4, v112
	.byte	W18
	.byte		N06	
	.byte	W18
	.byte		N48	
	.byte	W54
	.byte	VOICE	, 124
	.byte	W06
	.byte	PATT	
		.word	song0044_6_3
	.byte	W96
	.byte	W96
	.byte	W96
song0044_6_5:
	.byte	W06
	.byte		N06	, En3, v100
	.byte	W18
	.byte		N06	
	.byte	W24
	.byte		N06	
	.byte	W18
	.byte		N03	
	.byte	W18
	.byte		N06	
	.byte	W06
	.byte		N02	, En3, v080
	.byte	W06
	.byte	PEND
song0044_6_4:
	.byte	W06
	.byte		N06	, Dn3, v100
	.byte	W18
	.byte		N06	
	.byte	W24
	.byte		N06	
	.byte	W18
	.byte		N03	
	.byte	W18
	.byte		N06	
	.byte	W06
	.byte		N05	, Ds3
	.byte	W06
	.byte	PEND
song0044_6_6:
	.byte	W06
	.byte		N06	, En3, v100
	.byte	W18
	.byte		N06	
	.byte	W24
	.byte		N06	
	.byte	W18
	.byte		N03	
	.byte	W18
	.byte		N06	
	.byte	W06
	.byte		N02	, Ds3, v080
	.byte	W06
	.byte	PEND
	.byte	PATT	
		.word	song0044_6_4
	.byte	PATT	
		.word	song0044_6_5
	.byte	PATT	
		.word	song0044_6_4
	.byte	PATT	
		.word	song0044_6_6
	.byte	PATT	
		.word	song0044_6_4
	.byte	PATT	
		.word	song0044_6_5
	.byte	PATT	
		.word	song0044_6_4
	.byte	PATT	
		.word	song0044_6_6
	.byte	PATT	
		.word	song0044_6_4
	.byte	PATT	
		.word	song0044_6_5
	.byte	PATT	
		.word	song0044_6_4
	.byte	PATT	
		.word	song0044_6_6
	.byte	PATT	
		.word	song0044_6_4
	.byte	PATT	
		.word	song0044_6_5
	.byte	W06
	.byte		N06	, Dn3, v104
	.byte	W18
	.byte			Dn3, v096
	.byte	W24
	.byte			Dn3, v080
	.byte	W18
	.byte		N03	, Dn3, v072
	.byte	W18
	.byte		N06	, Dn3, v060
	.byte	W06
	.byte		N05	, Ds3, v056
	.byte	W06
	.byte	W06
	.byte		N06	, En3, v048
	.byte	W18
	.byte			En3, v040
	.byte	W24
	.byte			En3, v024
	.byte	W18
	.byte		N03	, En3, v012
	.byte	W18
	.byte		N06	, En3, v004
	.byte	W06
	.byte		N02	, Ds3
	.byte	W02
	.byte	FINE

	@********************** Track  7 **********************@

	.global song0044_7
song0044_7:	@ 0x08C794DA
	.byte	KEYSH	, 0
	.byte	VOICE	, 78
	.byte	VOL	, v078
	.byte	PAN	, c_v
	.byte	W03
	.byte	W48
song0044_7_1:
	.byte	W24
	.byte		N09	, An3, v120
	.byte	W12
	.byte		N06	
	.byte	W06
	.byte		N06	
	.byte	W12
	.byte		N06	
	.byte	W12
	.byte		N06	
	.byte	W06
	.byte		N06	
	.byte	W12
	.byte		N06	
	.byte	W12
	.byte	PEND
song0044_7_2:
	.byte		N12	, An3, v120
	.byte	W18
	.byte		N60	, Bn3
	.byte	W78
	.byte	PEND
	.byte	PATT	
		.word	song0044_7_1
	.byte	PATT	
		.word	song0044_7_2
song0044_7_3:
	.byte	W24
	.byte		N09	, Cn4, v120
	.byte	W12
	.byte		N06	
	.byte	W06
	.byte		N06	
	.byte	W12
	.byte		N06	
	.byte	W12
	.byte		N06	
	.byte	W06
	.byte		N06	
	.byte	W12
	.byte		N06	
	.byte	W12
	.byte	PEND
	.byte		N12	
	.byte	W18
	.byte		N60	, Dn4
	.byte	W78
	.byte	PATT	
		.word	song0044_7_3
	.byte		N18	, Cn4, v120
	.byte	W18
	.byte			Cs4
	.byte	W18
	.byte			Dn4
	.byte	W18
	.byte			Ds4
	.byte	W18
	.byte		N72	, En4
	.byte	W24
	.byte	W96
	.byte	W96
	.byte	W96
	.byte	W96
	.byte	W96
	.byte	W96
	.byte	W96
	.byte	W96
	.byte	W96
	.byte	W96
	.byte	W96
	.byte	W96
	.byte	W96
	.byte	W96
	.byte	W96
	.byte	W96
	.byte	W96
	.byte	W96
	.byte	W96
	.byte	W96
	.byte	W96
	.byte	W96
	.byte	W96
	.byte	W96
	.byte	W96
	.byte	W96
	.byte	W96
	.byte	W96
	.byte	W96
	.byte	W96
	.byte	W96
	.byte	W96
	.byte	W96
	.byte	W96
	.byte	W96
	.byte	W96
	.byte	W96
	.byte	W96
	.byte	W96
	.byte	W96
	.byte	W96
	.byte	W96
	.byte	W96
	.byte	W96
	.byte	W96
	.byte	W96
	.byte	W96
	.byte	W96
	.byte	W96
	.byte	W96
	.byte	W96
	.byte	W96
	.byte	W96
	.byte	VOL	, v055
	.byte	W96
	.byte	W84
	.byte		N06	, An3, v068
	.byte	W06
	.byte		N05	, As3, v064
	.byte	W06
	.byte	W06
	.byte		N06	, Bn3, v056
	.byte	W18
	.byte			Bn3, v044
	.byte	W24
	.byte			Bn3, v032
	.byte	W18
	.byte		N03	, Bn3, v020
	.byte	W18
	.byte		N06	, Bn3, v008
	.byte	W06
	.byte		N02	, As3, v004
	.byte	W02
	.byte	FINE

	@********************** Track  8 **********************@

	.global song0044_8
song0044_8:	@ 0x08C7958A
	.byte	KEYSH	, 0
	.byte	VOICE	, 120
	.byte	VOL	, v062
	.byte	BENDR	, 4
	.byte	PAN	, c_v
	.byte	W03
	.byte	W48
	.byte	W96
	.byte	W96
	.byte	W96
	.byte	W96
	.byte	W96
	.byte	W96
	.byte	W96
	.byte	W96
	.byte	W96
	.byte	W96
	.byte	W96
	.byte	W96
	.byte	W76
	.byte	W01
	.byte		N02	, As2, v100
	.byte	W01
	.byte		N06	, Bn2, v112
	.byte	W06
	.byte			En3
	.byte	W06
	.byte			Fs3
	.byte	W06
song0044_8_1:
	.byte		N36	, Gs3, v112
	.byte	W36
	.byte		N06	, An3
	.byte	W06
	.byte		N18	, Bn3
	.byte	W54
	.byte	PEND
	.byte	W11
	.byte		N03	, Gs3, v100
	.byte	W01
	.byte		N06	, An3, v112
	.byte	W12
	.byte		N12	
	.byte	W12
	.byte		N06	, Gs3
	.byte	W06
	.byte		N12	, An3
	.byte	W12
	.byte		N06	, Gs3
	.byte	W06
	.byte			En3
	.byte	W12
	.byte			Ds3
	.byte	W12
	.byte			En3
	.byte	W11
	.byte		N02	, Gs3, v100
	.byte	W01
	.byte		N24	, An3, v112
	.byte	W24
	.byte		N23	, Gs3
	.byte	W23
	.byte		N02	, Ds3, v100
	.byte	W01
	.byte		N24	, En3, v112
	.byte	W24
	.byte			Fs3
	.byte	W24
	.byte		N04	, Cs3
	.byte	W04
	.byte			Dn3
	.byte	W04
	.byte			Cs3
	.byte	W04
	.byte		N36	, Bn2
	.byte	W64
	.byte	W01
	.byte		N02	, As2, v100
	.byte	W01
	.byte		N06	, Bn2, v112
	.byte	W06
	.byte			En3
	.byte	W06
	.byte			Fs3
	.byte	W06
	.byte	PATT	
		.word	song0044_8_1
	.byte	W11
	.byte		N03	, Gs3, v100
	.byte	W01
	.byte		N06	, An3, v112
	.byte	W12
	.byte		N12	
	.byte	W12
	.byte		N06	, Gs3
	.byte	W06
	.byte		N12	, An3
	.byte	W12
	.byte		N06	, Gs3
	.byte	W06
	.byte			En3
	.byte	W11
	.byte		N02	, Gs3, v100
	.byte	W01
	.byte		N06	, An3, v112
	.byte	W12
	.byte			Bn3
	.byte	W12
	.byte		N04	, Ds4
	.byte	W04
	.byte			En4
	.byte	W04
	.byte			Ds4
	.byte	W04
	.byte		N06	, Bn3
	.byte	W06
	.byte		N05	, Cs4
	.byte	W05
	.byte		N02	, Gs3, v100
	.byte	W01
	.byte		N24	, An3, v112
	.byte	W30
	.byte		N06	, Gs3
	.byte	W06
	.byte			An3
	.byte	W06
	.byte		N05	, Gs3
	.byte	W05
	.byte		N02	, Gs3, v100
	.byte	W01
	.byte		N06	, An3, v112
	.byte	W06
	.byte			Gs3
	.byte	W06
	.byte			Fs3
	.byte	W06
	.byte			En3
	.byte	W06
	.byte		N04	, Gs3
	.byte	W04
	.byte			An3
	.byte	W04
	.byte			Gs3
	.byte	W04
	.byte		N36	, Fs3
	.byte	W84
	.byte	W96
	.byte	W96
	.byte	W96
	.byte	W96
	.byte	W96
	.byte	W96
	.byte	W96
	.byte	PAN	, c_v-30
	.byte	W96
	.byte		N36	, Gs2, v092
	.byte	W36
	.byte		N60	, Gs3
	.byte	W60
	.byte		TIE	, An3
	.byte	W96
	.byte	W96
	.byte		EOT	
song0044_8_2:
	.byte		N36	, Cn4, v092
	.byte	W36
	.byte			Bn3
	.byte	W36
	.byte		N12	, An3
	.byte	W12
	.byte		TIE	, Gs3
	.byte	W12
	.byte	PEND
	.byte	W96
	.byte		EOT	
song0044_8_3:
	.byte	W11
	.byte		N02	, Gn3, v092
	.byte	W01
	.byte		N24	, Gs3
	.byte	W24
	.byte		N11	
	.byte	W11
	.byte		N02	, Fn3
	.byte	W01
	.byte		N18	, Fs3
	.byte	W18
	.byte			En3
	.byte	W18
	.byte		N11	, Cs3
	.byte	W12
	.byte	PEND
	.byte		N24	, En3
	.byte	W24
	.byte		N12	, Cs3
	.byte	W12
	.byte		N24	, Fn3
	.byte	W24
	.byte		N11	, Cs3
	.byte	W12
	.byte		N24	, Fs3
	.byte	W24
	.byte		N11	, Cs3
	.byte	W12
	.byte		N24	, An3
	.byte	W24
	.byte		N11	, Bn2
	.byte	W11
	.byte		N02	, Fn3
	.byte	W01
	.byte		N18	, Fs3
	.byte	W18
	.byte			En3
	.byte	W18
	.byte		N12	, Ds3
	.byte	W12
	.byte	W36
	.byte		N60	, Gs3
	.byte	W60
	.byte		TIE	, An3
	.byte	W96
	.byte	W96
	.byte		EOT	
	.byte	PATT	
		.word	song0044_8_2
	.byte	W96
	.byte		EOT	, Gs3
	.byte	PATT	
		.word	song0044_8_3
	.byte		N24	, An3, v092
	.byte	W24
	.byte		N12	, En3
	.byte	W12
	.byte		N24	, As3
	.byte	W24
	.byte		N11	, En3
	.byte	W12
	.byte		N24	, Bn3
	.byte	W24
	.byte		N11	, Bn2
	.byte	W12
	.byte		N24	, Bn3
	.byte	W24
	.byte		N11	, Ds3
	.byte	W11
	.byte		N02	, Fn3
	.byte	W01
	.byte		N18	, Fs3
	.byte	W18
	.byte			En3
	.byte	W18
	.byte		N12	, Ds3
	.byte	W12
	.byte		TIE	, En3
	.byte	W24
	.byte	VOL	, v061
	.byte	W02
	.byte		v060
	.byte	W02
	.byte		v059
	.byte	W03
	.byte		v059
	.byte	W02
	.byte		v058
	.byte	W03
	.byte		v057
	.byte	W02
	.byte		v056
	.byte	W03
	.byte		v055
	.byte	W02
	.byte		v055
	.byte	W03
	.byte		v054
	.byte	W02
	.byte		v053
	.byte	W03
	.byte		v052
	.byte	W02
	.byte		v051
	.byte	W03
	.byte		v051
	.byte	W02
	.byte		v050
	.byte	W03
	.byte		v049
	.byte	W02
	.byte		v048
	.byte	W03
	.byte		v048
	.byte	W02
	.byte		v047
	.byte	W02
	.byte		v046
	.byte	W03
	.byte		v045
	.byte	W02
	.byte		v044
	.byte	W03
	.byte		v044
	.byte	W02
	.byte		v043
	.byte	W03
	.byte		v042
	.byte	W02
	.byte		v041
	.byte	W03
	.byte		v040
	.byte	W02
	.byte		v040
	.byte	W03
	.byte		v039
	.byte	W02
	.byte		v038
	.byte	W01
	.byte	W02
	.byte		v037
	.byte	W02
	.byte		v037
	.byte	W03
	.byte		v036
	.byte	W02
	.byte		v035
	.byte	W03
	.byte		v034
	.byte	W02
	.byte		v033
	.byte	W02
	.byte		v033
	.byte	W03
	.byte		v032
	.byte	W02
	.byte		v031
	.byte	W03
	.byte		v030
	.byte	W02
	.byte		v029
	.byte	W03
	.byte		v029
	.byte	W02
	.byte		v028
	.byte	W03
	.byte		v027
	.byte	W02
	.byte		v026
	.byte	W03
	.byte		v025
	.byte	W02
	.byte		v025
	.byte	W03
	.byte		v024
	.byte	W02
	.byte		v023
	.byte	W03
	.byte		v022
	.byte	W02
	.byte		v022
	.byte	W03
	.byte		v021
	.byte	W02
	.byte		v020
	.byte	W02
	.byte		v019
	.byte	W03
	.byte		v018
	.byte	W02
	.byte		v018
	.byte	W03
	.byte		v017
	.byte	W02
	.byte		v016
	.byte	W03
	.byte		v015
	.byte	W02
	.byte		v014
	.byte	W03
	.byte		v014
	.byte	W02
	.byte		v013
	.byte	W03
	.byte		v012
	.byte	W02
	.byte		v011
	.byte	W03
	.byte		v011
	.byte	W02
	.byte		v010
	.byte	W03
	.byte		v009
	.byte	W02
	.byte		v008
	.byte	W03
	.byte		EOT	
	.byte	VOL	, v007
	.byte	W96
	.byte	W96
	.byte	W96
	.byte	W96
	.byte		v062
	.byte	W96
	.byte	W96
	.byte	W96
	.byte	W96
	.byte	W96
	.byte	W92
	.byte	W03
	.byte		N01	, Gn3, v080
	.byte	W01
	.byte		N18	, Gs3
	.byte	W18
	.byte			An3
	.byte	W18
	.byte		N12	, Gs3
	.byte	W12
	.byte		N18	, An3
	.byte	W18
	.byte			Gs3
	.byte	W18
	.byte		N11	, An3
	.byte	W11
	.byte		N01	, Gs3
	.byte	W01
	.byte		N18	, An3
	.byte	W18
	.byte			Gs3
	.byte	W18
	.byte		N12	, An3
	.byte	W12
	.byte		N18	, Fs3
	.byte	W18
	.byte			Gs3
	.byte	W18
	.byte		N12	, An3
	.byte	W12
	.byte	W23
	.byte		N01	, As3
	.byte	W01
	.byte		N72	, Bn3
	.byte	W72
	.byte	W11
	.byte		N01	, As3
	.byte	W01
	.byte		N18	, Bn3
	.byte	W24
	.byte		N12	
	.byte	W12
	.byte		N18	, Cs4
	.byte	W18
	.byte			Bn3
	.byte	W18
	.byte		N11	
	.byte	W11
	.byte		N01	, As3
	.byte	W01
	.byte		TIE	, Bn3
	.byte	W30
	.byte	VOL	, v061
	.byte	W02
	.byte		v059
	.byte	W03
	.byte		v059
	.byte	W03
	.byte		v059
	.byte	W03
	.byte		v058
	.byte	W02
	.byte		v057
	.byte	W03
	.byte		v056
	.byte	W03
	.byte		v055
	.byte	W03
	.byte		v055
	.byte	W03
	.byte		v054
	.byte	W02
	.byte		v053
	.byte	W03
	.byte		v052
	.byte	W03
	.byte		v051
	.byte	W03
	.byte		v051
	.byte	W03
	.byte		v050
	.byte	W02
	.byte		v049
	.byte	W03
	.byte		v048
	.byte	W03
	.byte		v048
	.byte	W03
	.byte		v047
	.byte	W03
	.byte		v046
	.byte	W02
	.byte		v045
	.byte	W03
	.byte		v044
	.byte	W03
	.byte		v044
	.byte	W03
	.byte		v043
	.byte	W02
	.byte	W01
	.byte		v042
	.byte	W02
	.byte		v041
	.byte	W03
	.byte		v040
	.byte	W03
	.byte		v040
	.byte	W03
	.byte		v039
	.byte	W03
	.byte		v038
	.byte	W02
	.byte		v037
	.byte	W03
	.byte		v037
	.byte	W03
	.byte		v036
	.byte	W03
	.byte		v035
	.byte	W02
	.byte		v034
	.byte	W03
	.byte		v033
	.byte	W03
	.byte		v033
	.byte	W03
	.byte		v032
	.byte	W03
	.byte		v031
	.byte	W02
	.byte		v030
	.byte	W03
	.byte		v029
	.byte	W03
	.byte		v029
	.byte	W03
	.byte		v028
	.byte	W03
	.byte		v027
	.byte	W02
	.byte		v026
	.byte	W03
	.byte		v025
	.byte	W03
	.byte		v025
	.byte	W03
	.byte		v024
	.byte	W03
	.byte		v023
	.byte	W02
	.byte		v022
	.byte	W03
	.byte		v022
	.byte	W03
	.byte		v021
	.byte	W03
	.byte		v020
	.byte	W03
	.byte		v019
	.byte	W02
	.byte		v018
	.byte	W03
	.byte		v018
	.byte	W03
	.byte		v017
	.byte	W03
	.byte		v016
	.byte	W03
	.byte		EOT	
	.byte	VOL	, v015
	.byte	FINE

	@********************** Track  9 **********************@

	.global song0044_9
song0044_9:	@ 0x08C7984D
	.byte	KEYSH	, 0
	.byte	VOICE	, 115
	.byte	VOL	, v070
	.byte	PAN	, c_v
	.byte	MOD	, 2
	.byte	W03
	.byte	W48
	.byte	W96
	.byte	W96
	.byte	W96
	.byte	W96
	.byte	W96
	.byte	W96
	.byte	W96
	.byte	W96
	.byte	W96
	.byte	W96
	.byte	W96
	.byte	W96
	.byte	W96
	.byte	W96
	.byte	W96
	.byte	W96
	.byte	W96
	.byte	W96
	.byte	W96
	.byte	W96
	.byte	W60
	.byte		N06	, Cn2, v100
	.byte	W12
	.byte			En2
	.byte	W06
	.byte		N12	, Fn2
	.byte	W12
	.byte		N78	, Gn2
	.byte	W06
	.byte	W84
	.byte		N12	, Cn3
	.byte	W12
	.byte		N06	, Bn2
	.byte	W06
	.byte			Gn2
	.byte	W06
	.byte			An2
	.byte	W06
	.byte			Fn2
	.byte	W06
	.byte		N12	, Gn2
	.byte	W12
	.byte		N06	, En2
	.byte	W06
	.byte		N12	, Fn2
	.byte	W18
	.byte		N06	, En2
	.byte	W12
	.byte			Dn2
	.byte	W12
	.byte			Cn2
	.byte	W12
	.byte		N18	, Gn2
	.byte	W18
	.byte		N06	
	.byte	W18
	.byte		N24	
	.byte	W24
	.byte		N06	, Fn2
	.byte	W12
	.byte			En2
	.byte	W12
	.byte			Dn2
	.byte	W12
	.byte			Cs2
	.byte	W06
	.byte			Dn2
	.byte	W06
	.byte		N48	, Cs2
	.byte	W84
	.byte	W96
	.byte	W96
	.byte	W96
	.byte	PAN	, c_v+30
	.byte	W96
song0044_9_1:
	.byte		N36	, Cn2, v100
	.byte	W36
	.byte		TIE	, Cn3
	.byte	W60
	.byte	PEND
	.byte	W96
	.byte	W84
	.byte		EOT	
	.byte	W12
song0044_9_2:
	.byte	W11
	.byte		N02	, Ds3, v100
	.byte	W01
	.byte		N24	, En3
	.byte	W24
	.byte		N12	, Cn3
	.byte	W11
	.byte		N02	, En3
	.byte	W01
	.byte		N18	, Fn3
	.byte	W18
	.byte			En3
	.byte	W18
	.byte		TIE	, Cn3
	.byte	W12
	.byte	PEND
	.byte	W96
	.byte		EOT	
	.byte	W11
	.byte		N02	, Bn2
	.byte	W01
	.byte		N24	, Cn3
	.byte	W24
	.byte		N11	
	.byte	W11
	.byte		N02	, An2
	.byte	W01
	.byte		N18	, As2
	.byte	W18
	.byte			An2
	.byte	W18
	.byte		N11	, Fn2
	.byte	W11
	.byte		N02	, Gs2
	.byte	W01
	.byte		N24	, An2
	.byte	W24
	.byte		N12	, Fn2
	.byte	W12
	.byte		N24	, As2
	.byte	W24
	.byte		N11	, Fn2
	.byte	W11
	.byte		N02	, As2
	.byte	W01
	.byte		N24	, Bn2
	.byte	W24
	.byte		N11	, Fn2
	.byte	W11
	.byte		N02	, Bn2
	.byte	W01
	.byte		N24	, Cn3
	.byte	W24
	.byte		N11	, Fn2
	.byte	W11
	.byte		N02	, En3
	.byte	W01
	.byte		N18	, Fn3
	.byte	W18
	.byte			En3
	.byte	W18
	.byte		N12	, Bn2
	.byte	W12
	.byte	PATT	
		.word	song0044_9_1
	.byte	W96
	.byte	W84
	.byte		EOT	, Cn3
	.byte	W12
	.byte	PATT	
		.word	song0044_9_2
	.byte	W96
	.byte		EOT	, Cn3
	.byte	W11
	.byte		N02	, Bn2, v100
	.byte	W01
	.byte		N24	, Cn3
	.byte	W24
	.byte		N11	
	.byte	W11
	.byte		N02	, An2
	.byte	W01
	.byte		N18	, As2
	.byte	W18
	.byte			An2
	.byte	W18
	.byte		N11	, As2
	.byte	W11
	.byte		N02	, Bn2
	.byte	W01
	.byte		N24	, Cn3
	.byte	W24
	.byte		N12	, An2
	.byte	W12
	.byte		N24	, Cs3
	.byte	W24
	.byte		N11	, An2
	.byte	W11
	.byte		N02	, Cs3
	.byte	W01
	.byte		N24	, Dn3
	.byte	W24
	.byte		N11	, Gn2
	.byte	W11
	.byte		N02	, Ds3
	.byte	W01
	.byte		N24	, En3
	.byte	W24
	.byte		N11	, Gn2
	.byte	W11
	.byte		N02	, En3
	.byte	W01
	.byte		N18	, Fn3
	.byte	W18
	.byte			En3
	.byte	W18
	.byte		N12	, Bn2
	.byte	W12
	.byte		TIE	, Cn3
	.byte	W24
	.byte	VOL	, v069
	.byte	W02
	.byte		v068
	.byte	W02
	.byte		v067
	.byte	W02
	.byte		v066
	.byte	W02
	.byte		v066
	.byte	W02
	.byte		v065
	.byte	W02
	.byte		v064
	.byte	W03
	.byte		v063
	.byte	W02
	.byte		v062
	.byte	W02
	.byte		v062
	.byte	W02
	.byte		v061
	.byte	W02
	.byte		v060
	.byte	W02
	.byte		v059
	.byte	W03
	.byte		v059
	.byte	W02
	.byte		v058
	.byte	W02
	.byte		v057
	.byte	W02
	.byte		v056
	.byte	W02
	.byte		v055
	.byte	W02
	.byte		v055
	.byte	W02
	.byte		v054
	.byte	W03
	.byte		v053
	.byte	W02
	.byte		v052
	.byte	W02
	.byte		v051
	.byte	W02
	.byte		v051
	.byte	W02
	.byte		v050
	.byte	W02
	.byte		v049
	.byte	W03
	.byte		v048
	.byte	W02
	.byte		v048
	.byte	W02
	.byte		v047
	.byte	W02
	.byte		v046
	.byte	W02
	.byte		v045
	.byte	W02
	.byte		v044
	.byte	W02
	.byte		v044
	.byte	W03
	.byte		v043
	.byte	W01
	.byte	W01
	.byte		v042
	.byte	W02
	.byte		v041
	.byte	W02
	.byte		v040
	.byte	W02
	.byte		v040
	.byte	W02
	.byte		v039
	.byte	W03
	.byte		v038
	.byte	W02
	.byte		v037
	.byte	W02
	.byte		v037
	.byte	W02
	.byte		v036
	.byte	W02
	.byte		v035
	.byte	W02
	.byte		v034
	.byte	W02
	.byte		v033
	.byte	W03
	.byte		v033
	.byte	W02
	.byte		v032
	.byte	W02
	.byte		v031
	.byte	W02
	.byte		v030
	.byte	W02
	.byte		v029
	.byte	W02
	.byte		v029
	.byte	W03
	.byte		v028
	.byte	W02
	.byte		v027
	.byte	W02
	.byte		v026
	.byte	W02
	.byte		v025
	.byte	W02
	.byte		v025
	.byte	W02
	.byte		v024
	.byte	W02
	.byte		v023
	.byte	W03
	.byte		v022
	.byte	W02
	.byte		v022
	.byte	W02
	.byte		v021
	.byte	W02
	.byte		v020
	.byte	W02
	.byte		v019
	.byte	W02
	.byte		v018
	.byte	W03
	.byte		v018
	.byte	W02
	.byte		v017
	.byte	W02
	.byte		v016
	.byte	W02
	.byte		v015
	.byte	W02
	.byte		v014
	.byte	W02
	.byte		v014
	.byte	W02
	.byte		v013
	.byte	W03
	.byte		v012
	.byte	W02
	.byte		v011
	.byte	W02
	.byte		v011
	.byte	W02
	.byte		v010
	.byte	W02
	.byte		v009
	.byte	W02
	.byte		v008
	.byte	W03
	.byte		EOT	
	.byte	VOL	, v007
	.byte	W96
	.byte	W96
	.byte	W96
	.byte	W96
	.byte		v070
	.byte	W96
	.byte	W96
	.byte	W96
	.byte	W96
	.byte	W96
	.byte	W92
	.byte	W03
	.byte		N01	, Bn1, v072
	.byte	W01
	.byte		N18	, Cn2
	.byte	W18
	.byte			Dn2
	.byte	W18
	.byte		N12	, Cn2
	.byte	W12
	.byte		N18	, Dn2
	.byte	W18
	.byte			Cn2
	.byte	W18
	.byte		N11	, Dn2
	.byte	W11
	.byte		N01	, Cs2
	.byte	W01
	.byte		N18	, Dn2
	.byte	W18
	.byte			Cn2
	.byte	W18
	.byte		N12	, Dn2
	.byte	W12
	.byte		N18	, As1
	.byte	W18
	.byte			Cn2
	.byte	W18
	.byte		N12	, Dn2
	.byte	W12
	.byte	W23
	.byte		N01	, Ds2
	.byte	W01
	.byte		N72	, En2
	.byte	W72
	.byte	W11
	.byte		N01	, Cs2
	.byte	W01
	.byte		N18	, Dn2
	.byte	W24
	.byte		N12	, En2
	.byte	W12
	.byte		N18	, Fn2
	.byte	W18
	.byte			En2
	.byte	W18
	.byte		N11	
	.byte	W11
	.byte		N01	, Ds2
	.byte	W01
	.byte		TIE	, En2
	.byte	W30
	.byte	VOL	, v067
	.byte	W02
	.byte		v066
	.byte	W03
	.byte		v066
	.byte	W02
	.byte		v065
	.byte	W03
	.byte		v064
	.byte	W02
	.byte		v063
	.byte	W03
	.byte		v062
	.byte	W02
	.byte		v062
	.byte	W03
	.byte		v061
	.byte	W02
	.byte		v060
	.byte	W03
	.byte		v059
	.byte	W02
	.byte		v059
	.byte	W03
	.byte		v058
	.byte	W02
	.byte		v057
	.byte	W03
	.byte		v056
	.byte	W02
	.byte		v055
	.byte	W03
	.byte		v055
	.byte	W03
	.byte		v054
	.byte	W02
	.byte		v053
	.byte	W03
	.byte		v052
	.byte	W02
	.byte		v051
	.byte	W03
	.byte		v051
	.byte	W02
	.byte		v050
	.byte	W03
	.byte		v049
	.byte	W02
	.byte		v048
	.byte	W03
	.byte		v048
	.byte	W02
	.byte		v047
	.byte	W01
	.byte	W02
	.byte		v046
	.byte	W02
	.byte		v045
	.byte	W03
	.byte		v044
	.byte	W02
	.byte		v044
	.byte	W03
	.byte		v043
	.byte	W03
	.byte		v042
	.byte	W02
	.byte		v041
	.byte	W03
	.byte		v040
	.byte	W02
	.byte		v040
	.byte	W03
	.byte		v039
	.byte	W02
	.byte		v038
	.byte	W03
	.byte		v037
	.byte	W02
	.byte		v037
	.byte	W03
	.byte		v036
	.byte	W02
	.byte		v035
	.byte	W03
	.byte		v034
	.byte	W02
	.byte		v033
	.byte	W03
	.byte		v033
	.byte	W02
	.byte		v032
	.byte	W03
	.byte		v031
	.byte	W02
	.byte		v030
	.byte	W03
	.byte		v029
	.byte	W03
	.byte		v029
	.byte	W02
	.byte		v028
	.byte	W03
	.byte		v027
	.byte	W02
	.byte		v026
	.byte	W03
	.byte		v025
	.byte	W02
	.byte		v025
	.byte	W03
	.byte		v024
	.byte	W02
	.byte		v023
	.byte	W03
	.byte		v022
	.byte	W02
	.byte		v022
	.byte	W03
	.byte		v021
	.byte	W02
	.byte		v020
	.byte	W03
	.byte		v019
	.byte	W02
	.byte		v018
	.byte	W03
	.byte		v018
	.byte	W03
	.byte		EOT	
	.byte	VOL	, v017
	.byte	FINE

	@********************** Track  10 **********************@

	.global song0044_10
song0044_10:	@ 0x08C79AE5
	.byte	KEYSH	, 0
	.byte	VOICE	, 118
	.byte	VOL	, v055
	.byte	PAN	, c_v-30
	.byte	W03
	.byte	W48
	.byte	W96
	.byte	W96
	.byte	W96
	.byte	W96
	.byte	W96
	.byte	W96
	.byte	W96
	.byte	W96
	.byte	W96
song0044_10_1:
	.byte		N18	, Bn2, v092
	.byte	W18
	.byte			Cs3
	.byte	W18
	.byte			Ds3
	.byte	W18
	.byte			En3
	.byte	W18
	.byte		N06	, Ds3
	.byte	W12
	.byte		N12	, Cs3
	.byte	W12
	.byte	PEND
	.byte	PATT	
		.word	song0044_10_1
	.byte	PATT	
		.word	song0044_10_1
	.byte	PATT	
		.word	song0044_10_1
	.byte	W96
	.byte	W96
	.byte	W96
	.byte	W96
	.byte	W96
	.byte	W96
	.byte	W96
	.byte	W96
	.byte	W96
	.byte	W96
	.byte	W96
	.byte	W96
	.byte	W96
	.byte	W96
	.byte	W96
	.byte	W96
	.byte	W96
	.byte	W96
	.byte	W96
	.byte	W96
	.byte	W96
	.byte	W96
	.byte	W96
	.byte	W96
	.byte	W96
	.byte	W96
	.byte	W96
	.byte	W96
	.byte	W96
	.byte	W96
	.byte	W96
	.byte	W96
	.byte	FINE

	@********************** Track  11 **********************@

	.global song0044_11
song0044_11:	@ 0x08C79B39
	.byte	KEYSH	, 0
	.byte	VOICE	, 87
	.byte	VOL	, v047
	.byte	PAN	, c_v+30
	.byte	W03
	.byte	W48
	.byte	W96
	.byte	W96
	.byte	W96
	.byte	W96
	.byte	W96
	.byte	W96
	.byte	W96
	.byte	W96
	.byte	W96
song0044_11_1:
	.byte		N18	, Gs2, v092
	.byte	W18
	.byte			An2
	.byte	W18
	.byte			Bn2
	.byte	W18
	.byte			Cs3
	.byte	W18
	.byte		N06	, Bn2
	.byte	W12
	.byte		N12	, An2
	.byte	W12
	.byte	PEND
	.byte	PATT	
		.word	song0044_11_1
	.byte	PATT	
		.word	song0044_11_1
	.byte	PATT	
		.word	song0044_11_1
	.byte	W96
	.byte	W96
	.byte	W96
	.byte	W96
	.byte	W96
	.byte	W96
	.byte	W96
	.byte	W96
	.byte	W96
	.byte	W96
	.byte	W96
	.byte	W96
	.byte	W96
	.byte	W96
	.byte	W96
	.byte	W96
	.byte	W96
	.byte	W96
	.byte	W96
	.byte	W96
	.byte	W96
	.byte	W96
	.byte	W96
	.byte	W96
	.byte	W96
	.byte	W96
	.byte	W96
	.byte	W96
	.byte	W96
	.byte	W96
	.byte	W96
	.byte	W96
	.byte	W96
	.byte	W96
	.byte	W96
	.byte	W96
	.byte	W96
	.byte	W96
	.byte	W96
	.byte	W96
	.byte	W96
	.byte	W96
	.byte	W96
	.byte	W96
	.byte	W96
	.byte	W96
	.byte	W96
	.byte	W96
	.byte		N01	, Gn3, v076
	.byte	W01
	.byte		N18	, Gs3
	.byte	W18
	.byte			An3
	.byte	W18
	.byte		N12	, Gs3
	.byte	W12
	.byte		N18	, An3
	.byte	W18
	.byte			Gs3
	.byte	W18
	.byte		N11	, An3
	.byte	W11
	.byte		N01	, Gs3, v068
	.byte	W01
	.byte		N18	, An3
	.byte	W18
	.byte			Gs3, v060
	.byte	W18
	.byte		N12	, An3, v052
	.byte	W12
	.byte		N18	, Fs3, v044
	.byte	W18
	.byte			Gs3, v036
	.byte	W18
	.byte		N12	, An3, v024
	.byte	W11
	.byte	W24
	.byte		N01	, As3, v008
	.byte	W01
	.byte		N72	, Bn3, v004
	.byte	W68
	.byte	W03
	.byte	W01
	.byte	FINE

	@********************** Track  12 **********************@

	.global song0044_12
song0044_12:	@ 0x08C79BD5
	.byte	KEYSH	, 0
	.byte	VOICE	, 103
	.byte	VOL	, v082
	.byte	BENDR	, 3
	.byte	PAN	, c_v
	.byte	W03
	.byte	W48
	.byte	W96
	.byte	W96
	.byte	VOL	, v082
	.byte	W96
	.byte	W96
	.byte	W96
	.byte	W96
	.byte	W92
	.byte	W03
	.byte	BEND	, c_v-64
	.byte	W01
	.byte		N18	, Dn3, v100
	.byte	W01
	.byte	BEND	, c_v-49
	.byte	W01
	.byte		c_v-33
	.byte	W01
	.byte		c_v-17
	.byte	W01
	.byte		c_v
	.byte	W14
	.byte		N18	, Ds3
	.byte	W17
	.byte	BEND	, c_v-64
	.byte	W01
	.byte		N18	, En3
	.byte	W01
	.byte	BEND	, c_v-49
	.byte	W01
	.byte		c_v-33
	.byte	W01
	.byte		c_v-17
	.byte	W01
	.byte		c_v
	.byte	W14
	.byte		N18	, Fn3
	.byte	W17
	.byte	BEND	, c_v-64
	.byte	W01
	.byte		N96	, Fs3
	.byte	W01
	.byte	BEND	, c_v-49
	.byte	W01
	.byte		c_v-33
	.byte	W01
	.byte		c_v-17
	.byte	W01
	.byte		c_v
	.byte	W20
	.byte	W24
	.byte	VOL	, v081
	.byte	W05
	.byte		v080
	.byte	W02
	.byte		v079
	.byte	W01
	.byte		v078
	.byte	W02
	.byte		v077
	.byte	W01
	.byte		v076
	.byte	W01
	.byte		v075
	.byte	W01
	.byte		v074
	.byte	W01
	.byte		v074
	.byte	W01
	.byte		v072
	.byte	W01
	.byte		v071
	.byte	W01
	.byte		v070
	.byte	W01
	.byte		v069
	.byte	W01
	.byte		v068
	.byte	W01
	.byte		v066
	.byte	W01
	.byte		v065
	.byte	W01
	.byte		v062
	.byte	W01
	.byte		v061
	.byte	W01
	.byte		v059
	.byte	W01
	.byte		v058
	.byte	W01
	.byte		v055
	.byte	W01
	.byte		v054
	.byte	W01
	.byte		v052
	.byte	W01
	.byte		v050
	.byte	W01
	.byte		v048
	.byte	W01
	.byte		v046
	.byte	W01
	.byte		v044
	.byte	W01
	.byte		v042
	.byte	W01
	.byte		v037
	.byte	W01
	.byte		v036
	.byte	W01
	.byte		v033
	.byte	W01
	.byte		v030
	.byte	W01
	.byte		v028
	.byte	W01
	.byte		v025
	.byte	W01
	.byte		v023
	.byte	W01
	.byte		v020
	.byte	W01
	.byte		v018
	.byte	W01
	.byte		v014
	.byte	W01
	.byte		v012
	.byte	W01
	.byte		v006
	.byte	W01
	.byte		v003
	.byte	W01
	.byte		v000
	.byte	W24
	.byte	W01
	.byte	W96
	.byte	W96
	.byte		v082
	.byte	W96
	.byte	W96
	.byte	W96
	.byte	W96
	.byte	W96
	.byte	W96
	.byte	W96
	.byte	W96
	.byte	W96
	.byte	W96
	.byte	W96
	.byte	W96
	.byte	W96
	.byte	W68
	.byte	W03
	.byte	BEND	, c_v-64
	.byte	W01
	.byte		N23	, Cs3
	.byte	W01
	.byte	BEND	, c_v-49
	.byte	W01
	.byte		c_v-33
	.byte	W01
	.byte		c_v-17
	.byte	W01
	.byte		c_v
	.byte	W19
	.byte		c_v-64
	.byte	W01
	.byte		N18	, Dn3
	.byte	W01
	.byte	BEND	, c_v-49
	.byte	W01
	.byte		c_v-33
	.byte	W01
	.byte		c_v-17
	.byte	W01
	.byte		c_v
	.byte	W14
	.byte		N18	, Cs3
	.byte	W18
	.byte		N11	, An2
	.byte	W11
	.byte	BEND	, c_v-64
	.byte	W01
	.byte		N18	, Dn3
	.byte	W01
	.byte	BEND	, c_v-49
	.byte	W01
	.byte		c_v-33
	.byte	W01
	.byte		c_v-17
	.byte	W01
	.byte		c_v
	.byte	W14
	.byte		N18	, Cs3
	.byte	W18
	.byte		N11	, An2
	.byte	W11
	.byte	BEND	, c_v-64
	.byte	W01
	.byte		N18	, Dn3
	.byte	W01
	.byte	BEND	, c_v-49
	.byte	W01
	.byte		c_v-33
	.byte	W01
	.byte		c_v-17
	.byte	W01
	.byte		c_v
	.byte	W14
	.byte		N18	, Cs3
	.byte	W18
	.byte		N12	, An2
	.byte	W12
	.byte		N18	, Fs2
	.byte	W18
	.byte			An2
	.byte	W18
	.byte		N12	, Bn2
	.byte	W12
	.byte	W23
	.byte	BEND	, c_v-64
	.byte	W01
	.byte		N24	
	.byte	W01
	.byte	BEND	, c_v-49
	.byte	W01
	.byte		c_v-33
	.byte	W01
	.byte		c_v-17
	.byte	W01
	.byte		c_v
	.byte	W20
	.byte		N12	
	.byte	W12
	.byte		N23	, Cs3
	.byte	W23
	.byte	BEND	, c_v-64
	.byte	W01
	.byte		N24	, Dn3
	.byte	W01
	.byte	BEND	, c_v-49
	.byte	W01
	.byte		c_v-33
	.byte	W01
	.byte		c_v-17
	.byte	W01
	.byte		c_v
	.byte	W08
	.byte	W12
	.byte		N32	, En3
	.byte	W07
	.byte	BEND	, c_v-11
	.byte	W01
	.byte		c_v-22
	.byte	W01
	.byte		c_v-32
	.byte	W01
	.byte		c_v-43
	.byte	W01
	.byte		c_v-54
	.byte	W01
	.byte		c_v-64
	.byte	W23
	.byte		c_v
	.byte	W01
	.byte		N11	, Dn3
	.byte	W11
	.byte	BEND	, c_v-64
	.byte	W01
	.byte		N36	, En3
	.byte	W01
	.byte	BEND	, c_v-49
	.byte	W01
	.byte		c_v-33
	.byte	W01
	.byte		c_v-17
	.byte	W01
	.byte		c_v
	.byte	W32
	.byte	W96
	.byte	W96
	.byte	W96
	.byte	W96
	.byte	W96
	.byte	W96
	.byte	W96
	.byte	W96
	.byte	W96
	.byte	W96
	.byte	W96
	.byte	W96
	.byte	W96
	.byte	W96
	.byte	W96
	.byte	W96
	.byte	FINE

	@********************** Track  13 **********************@

	.global song0044_13
song0044_13:	@ 0x08C79D36
	.byte	KEYSH	, 0
	.byte	VOICE	, 74
	.byte	VOL	, v078
	.byte	PAN	, c_v+30
	.byte	W03
	.byte	W48
	.byte	W96
	.byte	W96
	.byte	W96
	.byte	W96
	.byte	W96
	.byte	W96
	.byte	W96
	.byte	W96
	.byte	W96
	.byte	W96
	.byte	W96
	.byte	W96
	.byte	W96
	.byte	W96
	.byte	W96
	.byte	W96
	.byte	W96
	.byte	W96
	.byte	W96
	.byte	W96
	.byte	W96
	.byte	W96
	.byte	W96
	.byte	W96
	.byte	W96
	.byte	W96
	.byte	W96
	.byte	W96
	.byte	W06
	.byte		N06	, En2, v100
	.byte	W06
	.byte			Fs2
	.byte	W12
	.byte		N12	, An2
	.byte	W12
	.byte		N06	, Gs2
	.byte	W06
	.byte			An2
	.byte	W12
	.byte		N03	, Bn2
	.byte	W03
	.byte			An2
	.byte	W03
	.byte		N06	, Gs2
	.byte	W12
	.byte			An2
	.byte	W06
	.byte		N12	, Bn2
	.byte	W18
	.byte	W96
	.byte	W96
	.byte	W96
	.byte	W96
	.byte	W96
	.byte	W96
	.byte	W96
	.byte	W96
	.byte	W96
	.byte	W96
	.byte	W96
	.byte	W96
	.byte	W96
	.byte	W96
	.byte	W96
	.byte	W96
	.byte	W96
	.byte	W96
	.byte	W96
	.byte	W54
	.byte		N06	, Fs3
	.byte	W06
	.byte			An3
	.byte	W06
	.byte			Bn3
	.byte	W06
	.byte			Cn4
	.byte	W06
	.byte			Cs4
	.byte	W06
	.byte			Dn4
	.byte	W06
	.byte			Ds4
	.byte	W06
	.byte			En4, v116
	.byte	W03
	.byte		N05	, Dn4, v072
	.byte	W03
	.byte		N03	, Cn4, v060
	.byte	W02
	.byte			Bn3, v088
	.byte	W01
	.byte			An3, v076
	.byte	W02
	.byte			Gn3
	.byte	W01
	.byte			Fn3
	.byte	W02
	.byte			En3
	.byte	W01
	.byte		N02	, Dn3, v084
	.byte	W03
	.byte	FINE

	@********************** Track  14 **********************@

	.global song0044_14
song0044_14:	@ 0x08C79DB7
	.byte	KEYSH	, 0
	.byte	VOICE	, 74
	.byte	VOL	, v078
	.byte	PAN	, c_v-30
	.byte	W03
	.byte	W48
	.byte	W96
	.byte	W96
	.byte	W96
	.byte	W96
	.byte	W96
	.byte	W96
	.byte	W96
	.byte	W96
	.byte	W96
	.byte	W96
	.byte	W96
	.byte	W96
	.byte	W96
	.byte	W96
	.byte	W96
	.byte	W96
	.byte	W96
	.byte	W96
	.byte	W96
	.byte	W96
	.byte	W96
	.byte	W96
	.byte	W96
	.byte	W96
	.byte	W96
	.byte	W96
	.byte	W96
	.byte	W96
	.byte	W06
	.byte		N06	, En3, v100
	.byte	W06
	.byte			Fs3
	.byte	W12
	.byte		N12	, An3
	.byte	W12
	.byte		N06	, Gs3
	.byte	W06
	.byte			An3
	.byte	W12
	.byte		N03	, Bn3
	.byte	W03
	.byte			An3
	.byte	W03
	.byte		N06	, Gs3
	.byte	W12
	.byte			An3
	.byte	W06
	.byte		N12	, Bn3
	.byte	W18
	.byte	W96
	.byte	W96
	.byte	W96
	.byte	W96
	.byte	W96
	.byte	W96
	.byte	W96
	.byte	W96
	.byte	W96
	.byte	W96
	.byte	W96
	.byte	W96
	.byte	W96
	.byte	W96
	.byte	W96
	.byte	W96
	.byte	W96
	.byte	W96
	.byte	W96
	.byte	W54
	.byte		N06	, Fs2
	.byte	W06
	.byte			An2
	.byte	W06
	.byte			Bn2
	.byte	W06
	.byte			Cn3
	.byte	W06
	.byte			Cs3
	.byte	W06
	.byte			Dn3
	.byte	W06
	.byte			Ds3
	.byte	W06
	.byte			En3, v116
	.byte	W06
	.byte	FINE

	@********************** Track  15 **********************@

	.global song0044_15
song0044_15:	@ 0x08C79E20
	.byte	KEYSH	, 0
	.byte	VOICE	, 94
	.byte	VOL	, v078
	.byte	PAN	, c_v-30
	.byte	W03
	.byte	W48
	.byte	W96
	.byte	W96
	.byte	W96
	.byte		N04	, En2, v100
	.byte	W03
	.byte	PAN	, c_v+30
	.byte	W01
	.byte		N04	, Bn2
	.byte	W03
	.byte	PAN	, c_v-30
	.byte	W01
	.byte		N04	, En3
	.byte	W03
	.byte	PAN	, c_v+30
	.byte	W01
	.byte		N04	, Bn3
	.byte	W03
	.byte	PAN	, c_v-30
	.byte	W01
	.byte		N04	, En3
	.byte	W03
	.byte	PAN	, c_v+30
	.byte	W01
	.byte		N04	, Bn2
	.byte	W03
	.byte	PAN	, c_v-30
	.byte	W01
	.byte		N04	, En2
	.byte	W03
	.byte	PAN	, c_v+30
	.byte	W01
	.byte		N04	, An2
	.byte	W03
	.byte	PAN	, c_v-30
	.byte	W01
	.byte		N04	, En3
	.byte	W03
	.byte	PAN	, c_v+30
	.byte	W01
	.byte		N04	, An3
	.byte	W03
	.byte	PAN	, c_v-30
	.byte	W01
	.byte		N04	, En3
	.byte	W03
	.byte	PAN	, c_v+30
	.byte	W01
	.byte		N04	, An2
	.byte	W03
	.byte	PAN	, c_v-30
	.byte	W01
	.byte		N04	, En2
	.byte	W03
	.byte	PAN	, c_v+30
	.byte	W01
	.byte		N04	, Gs2
	.byte	W03
	.byte	PAN	, c_v-30
	.byte	W01
	.byte		N04	, En3
	.byte	W03
	.byte	PAN	, c_v+30
	.byte	W01
	.byte		N04	, Gs3
	.byte	W03
	.byte	PAN	, c_v-30
	.byte	W01
	.byte		N04	, En3
	.byte	W03
	.byte	PAN	, c_v+30
	.byte	W01
	.byte		N04	, Gs2
	.byte	W03
	.byte	PAN	, c_v-30
	.byte	W01
	.byte		N04	, En2
	.byte	W03
	.byte	PAN	, c_v+30
	.byte	W01
	.byte		N04	, En3
	.byte	W03
	.byte	PAN	, c_v-30
	.byte	W01
	.byte		N04	
	.byte	W03
	.byte	PAN	, c_v+30
	.byte	W01
	.byte		N04	
	.byte	W03
	.byte	PAN	, c_v-30
	.byte	W01
	.byte		N04	, En2
	.byte	W03
	.byte	PAN	, c_v+30
	.byte	W01
	.byte		N04	
	.byte	W04
	.byte	W96
	.byte	W96
	.byte	W96
	.byte	W96
	.byte	W96
	.byte	W96
	.byte	W96
	.byte	W96
	.byte	W96
	.byte	W96
	.byte	W96
	.byte	W96
	.byte	W96
	.byte	W96
	.byte	W96
	.byte	PAN	, c_v-30
	.byte	W96
	.byte		N03	, En2, v112
	.byte	W02
	.byte	PAN	, c_v+30
	.byte	W01
	.byte		N21	, En3
	.byte	W21
	.byte		N03	, Ds2
	.byte	W02
	.byte	PAN	, c_v-30
	.byte	W01
	.byte		N21	, Ds3
	.byte	W21
	.byte		N03	, Cs2
	.byte	W02
	.byte	PAN	, c_v+30
	.byte	W01
	.byte		N21	, Cs3
	.byte	W21
	.byte		N03	, Cn2
	.byte	W02
	.byte	PAN	, c_v-30
	.byte	W01
	.byte		N21	, Cn3
	.byte	W21
	.byte		N03	, Bn1
	.byte	W02
	.byte	PAN	, c_v+30
	.byte	W01
	.byte		N21	, Bn2
	.byte	W92
	.byte	W01
	.byte	W96
	.byte	W96
	.byte	W96
	.byte	W96
	.byte	W96
	.byte	W96
	.byte	W96
	.byte	W96
	.byte	W96
	.byte	W96
	.byte	W96
	.byte	W96
	.byte	W96
	.byte	W96
	.byte	W96
	.byte	W96
	.byte	W96
	.byte	W96
	.byte	W96
	.byte	W96
	.byte	W96
	.byte	W96
	.byte	W96
	.byte	FINE

	@********************** Track  16 **********************@

	.global song0044_16
song0044_16:	@ 0x08C79F11
	.byte	KEYSH	, 0
	.byte	VOICE	, 80
	.byte	VOL	, v078
	.byte	PAN	, c_v
	.byte	W03
	.byte	W48
	.byte	W96
	.byte	W96
	.byte	W96
	.byte	W96
	.byte	W96
	.byte	W96
	.byte	W96
	.byte	W96
	.byte	W96
	.byte	W96
	.byte	W96
	.byte	W96
	.byte	W96
	.byte	W96
	.byte	W96
	.byte	W96
	.byte	W96
	.byte	W96
	.byte	W96
	.byte	W96
	.byte	W96
	.byte	W96
	.byte	W96
	.byte	W96
	.byte	W96
	.byte	W96
	.byte	W96
	.byte	W96
	.byte	W96
	.byte	W96
	.byte	W96
	.byte	W96
	.byte	W96
	.byte	W96
	.byte	W96
	.byte	W96
	.byte	W96
	.byte	W96
	.byte	W96
	.byte	W96
	.byte	W96
	.byte	W96
	.byte	W96
	.byte	W96
	.byte	W96
	.byte	W92
	.byte	W03
	.byte		N11	, An2, v104
	.byte	W01
song0044_16_1:
	.byte	W17
	.byte		N10	, An2, v108
	.byte	W18
	.byte		N11	, An2, v100
	.byte	W21
	.byte		N10	, An2, v104
	.byte	W16
	.byte		N12	, An2, v096
	.byte	W12
	.byte		N09	, As2, v112
	.byte	W12
	.byte	PEND
	.byte		N02	, Gn1, v060
	.byte		N04	, An1, v072
	.byte	W03
	.byte		N02	, Bn1, v040
	.byte	W02
	.byte			Cn2, v076
	.byte	W01
	.byte			Dn2, v112
	.byte	W01
	.byte			En2, v116
	.byte	W02
	.byte		N03	, Fn2, v112
	.byte	W02
	.byte			Gn2, v108
	.byte	W02
	.byte			An2, v104
	.byte	W02
	.byte			Bn2, v092
	.byte	W06
	.byte		N16	, Bn2, v112
	.byte	W20
	.byte		N13	, Bn2, v116
	.byte	W17
	.byte		N14	, Bn2, v100
	.byte	W19
	.byte		N12	, Bn2, v112
	.byte	W18
	.byte		N11	, An2, v104
	.byte	W01
	.byte	PATT	
		.word	song0044_16_1
song0044_16_3:
	.byte	W21
	.byte		N16	, Bn2, v104
	.byte	W20
	.byte		N13	
	.byte	W17
	.byte		N14	, Bn2, v092
	.byte	W19
	.byte		N12	, Bn2, v104
	.byte	W18
	.byte		N11	, An2, v096
	.byte	W01
	.byte	PEND
song0044_16_2:
	.byte	W17
	.byte		N10	, An2, v100
	.byte	W18
	.byte		N11	, An2, v092
	.byte	W21
	.byte		N10	, An2, v096
	.byte	W16
	.byte		N12	, An2, v088
	.byte	W12
	.byte		N09	, As2, v104
	.byte	W12
	.byte	PEND
song0044_16_4:
	.byte		N02	, Gn1, v056
	.byte		N04	, An1, v068
	.byte	W03
	.byte		N02	, Bn1, v036
	.byte	W02
	.byte			Cn2, v068
	.byte	W01
	.byte			Dn2, v104
	.byte	W01
	.byte			En2
	.byte	W02
	.byte		N03	, Fn2
	.byte	W02
	.byte			Gn2, v096
	.byte	W02
	.byte			An2, v092
	.byte	W02
	.byte			Bn2, v084
	.byte	W06
	.byte		N16	, Bn2, v104
	.byte	W20
	.byte		N13	
	.byte	W17
	.byte		N14	, Bn2, v092
	.byte	W19
	.byte		N12	, Bn2, v104
	.byte	W18
	.byte		N11	, An2, v096
	.byte	W01
	.byte	PEND
	.byte	PATT	
		.word	song0044_16_2
	.byte	PATT	
		.word	song0044_16_3
	.byte	PATT	
		.word	song0044_16_2
	.byte	PATT	
		.word	song0044_16_4
	.byte	PATT	
		.word	song0044_16_2
	.byte	PATT	
		.word	song0044_16_3
	.byte	PATT	
		.word	song0044_16_2
	.byte	PATT	
		.word	song0044_16_4
	.byte	PATT	
		.word	song0044_16_2
	.byte	PATT	
		.word	song0044_16_3
	.byte	W17
	.byte		N10	, An2, v072
	.byte	W18
	.byte		N11	, An2, v064
	.byte	W21
	.byte		N10	, An2, v056
	.byte	W16
	.byte		N12	, An2, v048
	.byte	W12
	.byte		N09	, As2, v044
	.byte	W12
	.byte		N02	, Gn1, v040
	.byte		N04	, An1
	.byte	W03
	.byte		N02	, Bn1, v036
	.byte	W02
	.byte			Cn2
	.byte	W01
	.byte			Dn2
	.byte	W01
	.byte			En2
	.byte	W02
	.byte		N03	, Fn2
	.byte	W02
	.byte			Gn2, v032
	.byte	W02
	.byte			An2
	.byte	W02
	.byte			Bn2
	.byte	W06
	.byte		N16	, Bn2, v028
	.byte	W20
	.byte		N13	, Bn2, v020
	.byte	W17
	.byte		N14	, Bn2, v012
	.byte	W19
	.byte		N12	, Bn2, v004
	.byte	W18
	.byte		N11	, An2
	.byte	W01
	.byte	W11
	.byte	FINE

	.align 2
	.global song0044
song0044:	@ 0x08C7A070
	.byte	16		@ trackCount
	.byte	0		@ blockCount
	.byte	0		@ priority
	.byte	128		@ reverb

	.word	voicegroup022		@ voicegroup/tone

	.word	song0044_1		@ track
	.word	song0044_2		@ track
	.word	song0044_3		@ track
	.word	song0044_4		@ track
	.word	song0044_5		@ track
	.word	song0044_6		@ track
	.word	song0044_7		@ track
	.word	song0044_8		@ track
	.word	song0044_9		@ track
	.word	song0044_10		@ track
	.word	song0044_11		@ track
	.word	song0044_12		@ track
	.word	song0044_13		@ track
	.word	song0044_14		@ track
	.word	song0044_15		@ track
	.word	song0044_16		@ track
