	.include "MPlayDef.s"

	.section .rodata

	@********************** Track  1 **********************@

	.align 2
	.global song0051_1
song0051_1:	@ 0x08C7CDE8
	.byte	KEYSH	, 0
	.byte	TEMPO	, 77
	.byte	VOICE	, 127
	.byte	VOL	, v090
	.byte	PAN	, c_v
	.byte	BENDR	, 3
	.byte		N05	, Dn1, v048
	.byte		N60	, Cs2, v127
	.byte		N06	, Ds2
	.byte	W06
	.byte			Dn1, v048
	.byte	W06
	.byte		N12	, En1
	.byte	W12
	.byte		N06	, Dn1
	.byte	W06
	.byte		N06	
	.byte	W06
	.byte		N12	, En1
	.byte	W12
	.byte		N06	, Dn1
	.byte		N06	, En2, v127
	.byte	W06
	.byte			Dn1, v048
	.byte	W06
	.byte		N12	, En1
	.byte		N06	, Ds2, v052
	.byte		N24	, Fn2, v127
	.byte	W12
	.byte		N06	, Dn1, v048
	.byte		N06	, Ds2, v088
	.byte		N24	, Fs2, v127
	.byte	W06
	.byte		N06	, Dn1, v048
	.byte	W06
	.byte		N12	, En1
	.byte		N36	, Cs2, v127
	.byte		N06	, Ds2
	.byte	W12
	.byte			Dn1, v048
	.byte	W06
	.byte		N06	
	.byte	W06
	.byte		N12	, En1
	.byte	W12
	.byte		N06	, Dn1
	.byte		N06	, Bn2, v127
	.byte	W06
	.byte			Dn1, v048
	.byte		N12	, Bn2, v127
	.byte	W06
	.byte			En1, v048
	.byte	W06
	.byte		N06	, Bn2, v127
	.byte	W06
	.byte			Dn1, v048
	.byte		N06	, As2, v127
	.byte	W06
	.byte			Dn1, v048
	.byte		N12	, As2, v127
	.byte	W06
	.byte			En1, v048
	.byte	W06
	.byte		N06	, As2, v127
	.byte	W06
	.byte			Dn1, v048
	.byte		N06	, An2, v127
	.byte	W06
	.byte			Dn1, v048
	.byte		N06	, An2, v127
	.byte	W06
	.byte		N12	, En1, v048
	.byte		N06	, Gs2, v127
	.byte	W06
	.byte		N06	
	.byte	W06
	.byte			Dn1, v048
	.byte		N60	, Cs2, v127
	.byte		N06	, Ds2
	.byte	W06
	.byte			Dn1, v048
	.byte	W06
	.byte		N12	, En1
	.byte	W12
	.byte		N06	, Dn1
	.byte	W06
	.byte		N06	
	.byte	W06
	.byte		N12	, En1
	.byte	W12
	.byte		N06	, Dn1
	.byte		N06	, En2, v127
	.byte	W06
	.byte			Dn1, v048
	.byte	W06
	.byte		N12	, En1
	.byte		N06	, Ds2, v052
	.byte		N24	, Fn2, v127
	.byte	W12
	.byte		N06	, Dn1, v048
	.byte		N06	, Ds2, v088
	.byte		N24	, Fs2, v127
	.byte	W06
	.byte		N06	, Dn1, v048
	.byte	W06
	.byte		N12	, En1
	.byte		N36	, Cs2, v127
	.byte		N06	, Ds2
	.byte	W12
	.byte			Dn1, v048
	.byte	W06
	.byte		N06	
	.byte	W06
	.byte		N12	, En1
	.byte	W12
	.byte		N06	, Dn1
	.byte	W06
	.byte		N06	
	.byte	W06
	.byte		N12	, En1
	.byte		N06	, Ds2, v127
	.byte	W06
	.byte		N06	
	.byte	W06
	.byte			Dn1, v048
	.byte		N06	, En2, v127
	.byte	W06
	.byte			Dn1, v048
	.byte		N06	, En2, v127
	.byte	W06
	.byte		N12	, En1, v048
	.byte		N06	, Ds2, v127
	.byte	W06
	.byte		N06	
	.byte	W06
	.byte			Dn1, v048
	.byte		N06	, En2, v127
	.byte	W06
	.byte			Dn1, v048
	.byte	W06
	.byte		N12	, En1
	.byte		N06	, En2, v127
	.byte	W06
	.byte		N06	
	.byte	W06
song0051_1_2:
	.byte		N06	, Dn1, v048
	.byte		N96	, Cs2, v120
	.byte		N12	, Ds2, v127
	.byte	W06
	.byte		N06	, Dn1, v048
	.byte	W06
	.byte		N12	, En1
	.byte	W12
	.byte		N06	, Dn1
	.byte		N12	, Ds2, v127
	.byte		N24	, En2
	.byte	W06
	.byte		N06	, Dn1, v048
	.byte	W06
	.byte		N12	, En1
	.byte	W12
	.byte		N06	, Dn1
	.byte		N12	, Ds2, v127
	.byte	W06
	.byte		N06	, Dn1, v048
	.byte	W06
	.byte		N12	, En1
	.byte	W12
	.byte		N06	, Dn1
	.byte		N12	, Ds2, v127
	.byte		N24	, En2
	.byte	W06
	.byte		N06	, Dn1, v048
	.byte	W06
	.byte		N12	, En1
	.byte	W12
song0051_1_1:
	.byte		N06	, Dn1, v048
	.byte		N12	, Ds2, v127
	.byte	W06
	.byte		N06	, Dn1, v048
	.byte	W06
	.byte		N12	, En1
	.byte	W12
	.byte		N06	, Dn1
	.byte		N12	, Ds2, v127
	.byte		N24	, En2
	.byte	W06
	.byte		N06	, Dn1, v048
	.byte	W06
	.byte		N12	, En1
	.byte	W12
	.byte		N06	, Dn1
	.byte		N12	, Ds2, v127
	.byte	W06
	.byte		N06	, Dn1, v048
	.byte	W06
	.byte		N12	, En1
	.byte	W12
	.byte		N06	, Dn1
	.byte		N12	, Ds2, v127
	.byte		N24	, En2
	.byte	W06
	.byte		N06	, Dn1, v048
	.byte	W06
	.byte		N12	, En1
	.byte	W12
	.byte	PEND
	.byte	PATT	
		.word	song0051_1_1
	.byte	PATT	
		.word	song0051_1_1
	.byte	PATT	
		.word	song0051_1_1
	.byte	PATT	
		.word	song0051_1_1
	.byte	PATT	
		.word	song0051_1_1
	.byte	PATT	
		.word	song0051_1_1
	.byte	PATT	
		.word	song0051_1_1
	.byte	PATT	
		.word	song0051_1_1
	.byte	PATT	
		.word	song0051_1_1
	.byte	PATT	
		.word	song0051_1_1
	.byte	PATT	
		.word	song0051_1_1
	.byte	PATT	
		.word	song0051_1_1
	.byte	PATT	
		.word	song0051_1_1
	.byte	PATT	
		.word	song0051_1_1
	.byte	PATT	
		.word	song0051_1_1
	.byte	PATT	
		.word	song0051_1_1
	.byte	PATT	
		.word	song0051_1_1
	.byte	PATT	
		.word	song0051_1_1
	.byte	PATT	
		.word	song0051_1_1
	.byte	PATT	
		.word	song0051_1_1
	.byte	PATT	
		.word	song0051_1_1
	.byte	PATT	
		.word	song0051_1_1
	.byte	PATT	
		.word	song0051_1_1
	.byte	PATT	
		.word	song0051_1_1
	.byte	PATT	
		.word	song0051_1_1
	.byte	PATT	
		.word	song0051_1_1
	.byte	PATT	
		.word	song0051_1_1
	.byte	PATT	
		.word	song0051_1_1
	.byte	PATT	
		.word	song0051_1_1
	.byte	PATT	
		.word	song0051_1_1
	.byte	PATT	
		.word	song0051_1_1
	.byte	PATT	
		.word	song0051_1_1
	.byte	PATT	
		.word	song0051_1_1
	.byte	PATT	
		.word	song0051_1_1
	.byte	PATT	
		.word	song0051_1_1
	.byte	PATT	
		.word	song0051_1_1
	.byte	PATT	
		.word	song0051_1_1
	.byte	PATT	
		.word	song0051_1_1
	.byte	GOTO	
		.word	song0051_1_2
	.byte	FINE

	@********************** Track  2 **********************@

	.global song0051_2
song0051_2:	@ 0x08C7D029
	.byte	KEYSH	, 0
	.byte	VOICE	, 45
	.byte	VOL	, v115
	.byte	PAN	, c_v
	.byte	BENDR	, 3
	.byte		N56	, As1, v096
	.byte	W60
	.byte		N11	, As2, v112
	.byte	W12
	.byte			Fn2, v084
	.byte	W12
	.byte		TIE	, As1, v096
	.byte	W12
	.byte	W88
	.byte	W01
	.byte		EOT	
	.byte	W07
	.byte		N56	, As1, v104
	.byte	W60
	.byte		N11	, As2
	.byte	W12
	.byte			Fn2, v076
	.byte	W12
	.byte		N64	, As1, v092
	.byte	W12
	.byte	W60
	.byte		N11	, As1, v100
	.byte	W12
	.byte			Cn2, v072
	.byte	W12
	.byte			Dn2, v104
	.byte	W12
song0051_2_1:
	.byte		N08	, Ds2, v108
	.byte	W12
	.byte		N07	, Ds2, v096
	.byte	W12
	.byte		N08	, Ds2, v092
	.byte	W12
	.byte		N07	
	.byte	W12
	.byte			Ds2, v084
	.byte	W12
	.byte		N07	
	.byte	W12
	.byte			Ds2, v088
	.byte	W12
	.byte		N06	, Ds2, v080
	.byte	W12
	.byte	PEND
song0051_2_2:
	.byte		N07	, Ds2, v080
	.byte	W12
	.byte		N07	
	.byte	W12
	.byte			Ds2, v084
	.byte	W12
	.byte			Ds2, v080
	.byte	W12
	.byte		N07	
	.byte	W12
	.byte		N06	, Ds2, v088
	.byte	W12
	.byte		N07	, Ds2, v084
	.byte	W12
	.byte		N07	
	.byte	W12
	.byte	PEND
	.byte	PATT	
		.word	song0051_2_1
	.byte	PATT	
		.word	song0051_2_2
	.byte	PATT	
		.word	song0051_2_1
	.byte	PATT	
		.word	song0051_2_2
	.byte	PATT	
		.word	song0051_2_1
song0051_2_3:
	.byte		N07	, Ds2, v080
	.byte	W12
	.byte		N07	
	.byte	W12
	.byte			Ds2, v084
	.byte	W12
	.byte			Ds2, v080
	.byte	W12
	.byte		N07	
	.byte	W12
	.byte		N06	, Ds2, v088
	.byte	W12
	.byte		N07	, Dn2, v084
	.byte	W12
	.byte		N07	
	.byte	W12
	.byte	PEND
song0051_2_4:
	.byte		N08	, Cn2, v108
	.byte	W12
	.byte		N07	, Cn2, v096
	.byte	W12
	.byte		N08	, Cn2, v092
	.byte	W12
	.byte		N07	
	.byte	W12
	.byte			Cn2, v084
	.byte	W12
	.byte		N07	
	.byte	W12
	.byte			Cn2, v088
	.byte	W12
	.byte		N06	, Cn2, v080
	.byte	W12
	.byte	PEND
song0051_2_5:
	.byte		N07	, Cn2, v080
	.byte	W12
	.byte		N07	
	.byte	W12
	.byte			Cn2, v084
	.byte	W12
	.byte			Cn2, v080
	.byte	W12
	.byte		N07	
	.byte	W12
	.byte		N06	, Cn2, v088
	.byte	W12
	.byte		N07	, Cn2, v084
	.byte	W12
	.byte		N07	
	.byte	W12
	.byte	PEND
song0051_2_6:
	.byte		N08	, Cs2, v108
	.byte	W12
	.byte		N07	, Cs2, v096
	.byte	W12
	.byte		N08	, Cs2, v092
	.byte	W12
	.byte		N07	
	.byte	W12
	.byte			Cs2, v084
	.byte	W12
	.byte		N07	
	.byte	W12
	.byte			Cs2, v088
	.byte	W12
	.byte		N06	, Cs2, v080
	.byte	W12
	.byte	PEND
song0051_2_7:
	.byte		N07	, Cs2, v080
	.byte	W12
	.byte		N07	
	.byte	W12
	.byte			Cs2, v084
	.byte	W12
	.byte			Cs2, v080
	.byte	W12
	.byte		N07	
	.byte	W12
	.byte		N06	, Cs2, v088
	.byte	W12
	.byte		N07	, Cs2, v084
	.byte	W12
	.byte			Cn2
	.byte	W12
	.byte	PEND
song0051_2_8:
	.byte		N08	, Bn1, v108
	.byte	W12
	.byte		N07	, Bn1, v096
	.byte	W12
	.byte		N08	, Bn1, v092
	.byte	W12
	.byte		N07	
	.byte	W12
	.byte			Bn1, v084
	.byte	W12
	.byte		N07	
	.byte	W12
	.byte			Bn1, v088
	.byte	W12
	.byte		N06	, Bn1, v080
	.byte	W12
	.byte	PEND
song0051_2_9:
	.byte		N07	, Bn1, v080
	.byte	W12
	.byte		N07	
	.byte	W12
	.byte			Bn1, v084
	.byte	W12
	.byte			Bn1, v080
	.byte	W12
	.byte		N07	
	.byte	W12
	.byte		N06	, Bn1, v088
	.byte	W12
	.byte		N07	, Bn1, v084
	.byte	W12
	.byte		N07	
	.byte	W12
	.byte	PEND
song0051_2_10:
	.byte		N08	, Gs2, v108
	.byte	W12
	.byte		N07	, Gs2, v096
	.byte	W12
	.byte		N08	, Gs2, v092
	.byte	W12
	.byte		N07	
	.byte	W12
	.byte			Gs2, v084
	.byte	W12
	.byte		N07	
	.byte	W12
	.byte			Gs2, v088
	.byte	W12
	.byte		N06	, Gs2, v080
	.byte	W12
	.byte	PEND
	.byte		N07	, Cs2
	.byte	W12
	.byte		N07	
	.byte	W12
	.byte			Ds2, v084
	.byte	W12
	.byte			Cs2, v080
	.byte	W12
	.byte			Gs2
	.byte	W12
	.byte		N06	, Cs2, v088
	.byte	W12
	.byte		N07	, Dn2, v084
	.byte	W12
	.byte		N19	, Ds2
	.byte	W12
	.byte	W12
	.byte		N07	, Ds2, v096
	.byte	W12
	.byte		N08	, Ds2, v092
	.byte	W12
	.byte		N07	
	.byte	W12
	.byte			Ds2, v084
	.byte	W12
	.byte		N07	
	.byte	W12
	.byte			Ds2, v088
	.byte	W12
	.byte		N06	, Ds2, v080
	.byte	W12
	.byte		N07	, Ds2, v096
	.byte	W12
	.byte		N08	, Ds2, v092
	.byte	W12
	.byte		N07	
	.byte	W12
	.byte			Ds2, v084
	.byte	W12
	.byte		N07	
	.byte	W12
	.byte			Ds2, v088
	.byte	W12
	.byte		N06	, Ds2, v080
	.byte	W12
	.byte		N06	
	.byte	W12
	.byte	PATT	
		.word	song0051_2_1
	.byte	PATT	
		.word	song0051_2_2
	.byte	PATT	
		.word	song0051_2_1
	.byte	PATT	
		.word	song0051_2_2
	.byte	PATT	
		.word	song0051_2_1
	.byte	PATT	
		.word	song0051_2_3
	.byte	PATT	
		.word	song0051_2_4
	.byte	PATT	
		.word	song0051_2_5
	.byte	PATT	
		.word	song0051_2_6
	.byte	PATT	
		.word	song0051_2_7
	.byte	PATT	
		.word	song0051_2_8
	.byte	PATT	
		.word	song0051_2_9
	.byte	PATT	
		.word	song0051_2_10
	.byte		N07	, Cs2, v080
	.byte	W12
	.byte		N07	
	.byte	W12
	.byte			Ds2, v084
	.byte	W12
	.byte			Cs2, v080
	.byte	W12
	.byte			Fn2
	.byte	W12
	.byte		N06	, Cs2, v088
	.byte	W12
	.byte		N07	, Gs2, v084
	.byte	W12
	.byte			Cs2
	.byte	W12
	.byte			Dn2, v096
	.byte	W12
	.byte		N07	
	.byte	W12
	.byte		N08	, Dn2, v092
	.byte	W12
	.byte		N07	
	.byte	W12
	.byte			Dn2, v084
	.byte	W12
	.byte		N07	
	.byte	W12
	.byte			Dn2, v088
	.byte	W12
	.byte		N06	, Dn2, v080
	.byte	W12
	.byte		N07	, Dn2, v096
	.byte	W12
	.byte		N08	, Dn2, v092
	.byte	W12
	.byte		N07	
	.byte	W12
	.byte			Dn2, v084
	.byte	W12
	.byte		N07	
	.byte	W12
	.byte			Dn2, v088
	.byte	W12
	.byte		N06	, Dn2, v080
	.byte	W12
	.byte		N06	
	.byte	W12
	.byte	PATT	
		.word	song0051_2_1
	.byte	PATT	
		.word	song0051_2_2
	.byte		N08	, Fs2, v108
	.byte	W12
	.byte		N07	, Fs2, v096
	.byte	W12
	.byte		N08	, Fs2, v092
	.byte	W12
	.byte		N07	
	.byte	W12
	.byte			Fs2, v084
	.byte	W12
	.byte		N07	
	.byte	W12
	.byte			Fs2, v088
	.byte	W12
	.byte		N06	, Fs2, v080
	.byte	W12
	.byte		N07	
	.byte	W12
	.byte		N07	
	.byte	W12
	.byte			Fs2, v084
	.byte	W12
	.byte			Fs2, v080
	.byte	W12
	.byte		N07	
	.byte	W12
	.byte		N06	, Fs2, v088
	.byte	W12
	.byte		N07	, Fs2, v084
	.byte	W12
	.byte		N07	
	.byte	W12
	.byte		N08	, As2, v108
	.byte	W12
	.byte		N07	, As2, v096
	.byte	W12
	.byte		N08	, As2, v092
	.byte	W12
	.byte		N07	
	.byte	W12
	.byte			As2, v084
	.byte	W12
	.byte		N07	
	.byte	W12
	.byte			As2, v088
	.byte	W12
	.byte		N06	, As2, v080
	.byte	W12
	.byte		N07	, As1
	.byte	W12
	.byte		N07	
	.byte	W12
	.byte			Cn2, v084
	.byte	W12
	.byte			As1, v080
	.byte	W12
	.byte			Dn2
	.byte	W12
	.byte		N06	, As1, v088
	.byte	W12
	.byte		N07	, Fn2, v084
	.byte	W12
	.byte			As2
	.byte	W12
	.byte	GOTO	
		.word	song0051_2_1
	.byte	FINE

	@********************** Track  3 **********************@

	.global song0051_3
song0051_3:	@ 0x08C7D2BC
	.byte	KEYSH	, 0
	.byte	VOICE	, 80
	.byte	VOL	, v115
	.byte	PAN	, c_v
	.byte	BENDR	, 3
	.byte	LFOS	, 55
	.byte	LFODL	, 0
	.byte	MOD	, 35
	.byte	MODT	, 2
	.byte	PRIO	, 30
	.byte		N84	, Fn3, v116
	.byte	W84
	.byte		TIE	, Ds3
	.byte	W12
	.byte	W96
	.byte		EOT	
	.byte	W96
	.byte	W96
song0051_3_5:
	.byte		N54	, As2, v100
	.byte	W60
	.byte		N11	
	.byte	W24
	.byte		N56	, As2, v108
	.byte	W12
	.byte	W48
	.byte		N40	, As2, v127
	.byte	W48
	.byte	W96
	.byte	W96
	.byte	W96
	.byte	W96
	.byte		N92	, As2, v100
	.byte	W96
song0051_3_1:
	.byte		N44	, As2, v092
	.byte	W48
	.byte		N22	, As2, v104
	.byte	W48
	.byte	PEND
	.byte		N92	
	.byte	W96
song0051_3_2:
	.byte		N30	, As2, v108
	.byte	W36
	.byte		N19	, As2, v088
	.byte	W24
	.byte		N32	, As2, v100
	.byte	W36
	.byte	PEND
	.byte		TIE	, Gs2, v108
	.byte	W96
	.byte	W06
	.byte		EOT	
	.byte	W06
	.byte		N12	
	.byte	W24
	.byte		N32	, Gs2, v096
	.byte	W36
	.byte		N11	, Gs2, v100
	.byte	W12
	.byte			Gn2
	.byte	W12
	.byte		N90	, Fs2, v108
	.byte	W96
song0051_3_3:
	.byte		N30	, Fs2, v096
	.byte	W36
	.byte		N15	, Fs2, v088
	.byte	W24
	.byte		N30	, Fs2, v096
	.byte	W36
	.byte	PEND
song0051_3_4:
	.byte		N68	, Fs2, v116
	.byte	W72
	.byte		N23	, Fs2, v112
	.byte	W24
	.byte	PEND
	.byte		N56	, Gs2, v120
	.byte	W60
	.byte		N11	, Gs2, v112
	.byte	W12
	.byte			An2, v116
	.byte	W12
	.byte		TIE	, As2, v100
	.byte	W12
	.byte	W92
	.byte		EOT	
	.byte	W04
	.byte	W12
	.byte		N15	, As2, v108
	.byte	W24
	.byte		N56	, As2, v127
	.byte	W60
	.byte	W96
	.byte	W96
	.byte	W96
	.byte	W96
	.byte		N92	, As2, v100
	.byte	W96
	.byte	PATT	
		.word	song0051_3_1
	.byte		N92	, As2, v104
	.byte	W96
	.byte	PATT	
		.word	song0051_3_2
	.byte		TIE	, Gs2, v108
	.byte	W96
	.byte	W06
	.byte		EOT	
	.byte	W06
	.byte		N12	
	.byte	W24
	.byte		N32	, Gs2, v096
	.byte	W36
	.byte		N11	, Gs2, v100
	.byte	W12
	.byte			Gn2
	.byte	W12
	.byte		N90	, Fs2, v108
	.byte	W96
	.byte	PATT	
		.word	song0051_3_3
	.byte	PATT	
		.word	song0051_3_4
	.byte		N32	, Gs2, v120
	.byte	W36
	.byte		N11	, Gs2, v112
	.byte	W24
	.byte		N32	, Gs2, v116
	.byte	W36
	.byte		N54	, Cn3, v088
	.byte	W60
	.byte		N09	, Cn3, v092
	.byte	W24
	.byte		N44	, Cn3, v088
	.byte	W12
	.byte	W36
	.byte		N52	, Cn3, v108
	.byte	W54
	.byte		N05	, Bn2, v072
	.byte	W06
	.byte		N54	, As2, v112
	.byte	W60
	.byte		N10	, As2, v096
	.byte	W24
	.byte		N52	, As2, v088
	.byte	W12
	.byte	W48
	.byte		N48	, As2, v096
	.byte	W48
	.byte		N54	, Cs3, v108
	.byte	W60
	.byte		N12	, Cs3, v080
	.byte	W24
	.byte		N23	, Cs3, v100
	.byte	W12
	.byte	W12
	.byte		N30	, Cs3, v116
	.byte	W36
	.byte		N44	, Cs3, v120
	.byte	W48
	.byte		N92	, Ds3, v108
	.byte	W96
	.byte		N36	, Fn3, v116
	.byte	W36
	.byte	W02
	.byte		N02	, En3, v064
	.byte	W03
	.byte			Dn3, v092
	.byte	W02
	.byte		N01	, Cn3, v084
	.byte	W02
	.byte			Bn2, v100
	.byte	W02
	.byte			An2
	.byte	W01
	.byte			Gn2, v108
	.byte	W02
	.byte			Fn2, v084
	.byte	W01
	.byte			En2, v100
	.byte	W02
	.byte			Dn2, v092
	.byte	W02
	.byte			Cn2
	.byte	W02
	.byte		N06	, Bn1, v100
	.byte	W06
	.byte		N02	, As1, v064
	.byte	W03
	.byte		N01	, Bn1, v072
	.byte	W02
	.byte			Cs2, v024
	.byte	W02
	.byte		N02	, Ds2, v032
	.byte	W03
	.byte		N03	, En2, v016
	.byte	W03
	.byte		N02	, Fs2, v020
	.byte	W03
	.byte			Gs2, v056
	.byte	W02
	.byte		N01	, As2
	.byte	W02
	.byte			Bn2, v080
	.byte	W02
	.byte			Cs3, v084
	.byte	W02
	.byte		N02	, Ds3, v080
	.byte	W03
	.byte			En3, v092
	.byte	W06
	.byte	GOTO	
		.word	song0051_3_5
	.byte	FINE

	@********************** Track  4 **********************@

	.global song0051_4
song0051_4:	@ 0x08C7D42B
	.byte	KEYSH	, 0
	.byte	VOICE	, 77
	.byte	VOL	, v090
	.byte	PAN	, c_v
	.byte	BENDR	, 3
	.byte	LFOS	, 31
	.byte	LFODL	, 22
	.byte	MOD	, 4
	.byte	MODT	, 0
	.byte	PRIO	, 30
	.byte	W96
	.byte	W96
	.byte	W96
	.byte	W96
song0051_4_1:
	.byte		N52	, As3, v116
	.byte	W60
	.byte		N10	, Gn3, v092
	.byte	W12
	.byte		N11	, Gs3, v096
	.byte	W12
	.byte		N24	, As3, v116
	.byte	W12
	.byte	W24
	.byte		N23	, As3, v108
	.byte	W24
	.byte			Dn4, v100
	.byte	W24
	.byte		N20	, Ds4, v108
	.byte	W24
	.byte		N32	, Ds4, v112
	.byte	W36
	.byte		N10	, Gs3, v096
	.byte	W12
	.byte		TIE	, Gs3, v112
	.byte	W48
	.byte	W56
	.byte	W03
	.byte		EOT	
	.byte	W36
	.byte	W01
	.byte		N32	, Ds4
	.byte	W36
	.byte		N72	, Gs3, v088
	.byte	W60
	.byte	W24
	.byte		N23	, Gs3, v108
	.byte	W24
	.byte			Ds4, v100
	.byte	W24
	.byte			Fn4, v108
	.byte	W24
	.byte		TIE	, Gn4
	.byte	W96
	.byte	W12
	.byte		EOT	
	.byte	W12
	.byte		N23	
	.byte	W24
	.byte			Fn4, v096
	.byte	W24
	.byte			Ds4
	.byte	W24
	.byte		N32	, Dn4, v100
	.byte	W36
	.byte		N11	, Ds4, v080
	.byte	W12
	.byte		N60	, Cn4
	.byte	W48
	.byte	W24
	.byte		N23	, Dn4, v076
	.byte	W24
	.byte		N21	, Cn4, v084
	.byte	W24
	.byte		N23	, Gn3, v076
	.byte	W24
	.byte		N68	, As3, v100
	.byte	W72
	.byte		N11	, Gs3, v076
	.byte	W12
	.byte		N90	, Fn3, v072
	.byte	W12
	.byte	W96
	.byte		N32	, Ds4, v076
	.byte	W36
	.byte		N07	, Fs3, v084
	.byte	W12
	.byte		N54	, Fs3, v080
	.byte	W48
	.byte	W24
	.byte		N23	, Fs3, v100
	.byte	W24
	.byte		N22	, Bn3, v096
	.byte	W24
	.byte		N23	, Ds4, v100
	.byte	W24
	.byte		N56	, Fs4, v108
	.byte	W60
	.byte		N11	, Fn4
	.byte	W12
	.byte			Fs4
	.byte	W12
	.byte		N68	, Gs4, v127
	.byte	W12
	.byte	W96
	.byte		N52	, Gn3, v116
	.byte		N52	, As3
	.byte	W60
	.byte		N10	, Ds3, v092
	.byte		N10	, Gn3
	.byte	W12
	.byte		N11	, Fn3, v096
	.byte		N11	, Gs3
	.byte	W12
	.byte		N24	, Gn3, v116
	.byte		N24	, As3
	.byte	W12
	.byte	W24
	.byte		N23	, Gn3, v108
	.byte		N23	, As3
	.byte	W24
	.byte			As3, v100
	.byte		N23	, Dn4
	.byte	W24
	.byte		N20	, Gn3, v108
	.byte		N20	, Ds4
	.byte	W24
	.byte		N32	, Gs3, v112
	.byte		N32	, Ds4
	.byte	W36
	.byte		N10	, Cn3, v096
	.byte		N10	, Gs3
	.byte	W12
	.byte		TIE	, Cn3, v112
	.byte		TIE	, Gs3
	.byte	W48
	.byte	W56
	.byte	W03
	.byte		EOT	, Cn3
	.byte			Gs3
	.byte	W13
	.byte		N23	, Gs3, v100
	.byte	W24
	.byte		N32	, Gs3, v112
	.byte		N32	, Ds4
	.byte	W36
	.byte		N72	, Bn2, v088
	.byte		N72	, Gs3
	.byte	W60
	.byte	W24
	.byte		N23	, Ds3, v108
	.byte		N23	, Gs3
	.byte	W24
	.byte			Bn3, v100
	.byte		N23	, Ds4
	.byte	W24
	.byte			Dn4, v108
	.byte		N23	, Fn4
	.byte	W24
	.byte		TIE	, Ds4
	.byte		TIE	, Gn4
	.byte	W96
	.byte	W12
	.byte		EOT	, Ds4
	.byte			Gn4
	.byte	W12
	.byte		N23	, As3
	.byte		N23	, Gn4
	.byte	W24
	.byte			Gs3, v096
	.byte		N23	, Fn4
	.byte	W24
	.byte			Gn3
	.byte		N23	, Ds4
	.byte	W24
	.byte		N32	, Fn3, v100
	.byte		N32	, Dn4
	.byte	W36
	.byte		N11	, Gn3, v080
	.byte		N11	, Ds4
	.byte	W12
	.byte		N60	, Ds3
	.byte		N60	, Cn4
	.byte	W48
	.byte	W24
	.byte		N23	, Fn3, v076
	.byte		N23	, Dn4
	.byte	W24
	.byte		N21	, Ds3, v084
	.byte		N21	, Cn4
	.byte	W24
	.byte		N23	, Cn3, v076
	.byte		N23	, Gn3
	.byte	W24
	.byte		N68	, Gn3, v100
	.byte		N68	, As3
	.byte	W72
	.byte		N11	, Fn3, v076
	.byte		N11	, Gs3
	.byte	W12
	.byte		N90	, Cs3, v072
	.byte		N90	, Fn3
	.byte	W12
	.byte	W96
	.byte		N32	, Fs3, v076
	.byte		N32	, Ds4
	.byte	W36
	.byte		N07	, Bn2, v084
	.byte		N07	, Fs3
	.byte	W12
	.byte		N54	, Bn2, v080
	.byte		N54	, Fs3
	.byte	W48
	.byte	W24
	.byte		N23	, Ds3, v100
	.byte		N23	, Fs3
	.byte	W24
	.byte		N22	, Fs3, v096
	.byte		N22	, Bn3
	.byte	W24
	.byte		N23	, Bn3, v100
	.byte		N23	, Ds4
	.byte	W24
	.byte		N56	, Ds4, v108
	.byte		N56	, Fs4
	.byte	W60
	.byte		N11	, Cs4
	.byte		N11	, Fn4
	.byte	W12
	.byte			Ds4
	.byte		N11	, Fs4
	.byte	W12
	.byte		N68	, Fn4, v127
	.byte		N68	, Gs4
	.byte	W12
	.byte	W60
	.byte		N08	, Ds4, v100
	.byte		N08	, Gn4
	.byte	W12
	.byte		N09	, Fn4, v104
	.byte		N09	, Gs4
	.byte	W12
	.byte		N40	, Fn4
	.byte		N40	, An4
	.byte	W12
	.byte	W48
	.byte		N24	, Fn3, v100
	.byte		N24	, Dn4
	.byte	W48
	.byte		N36	, An3, v104
	.byte		N36	, Fn4
	.byte	W48
	.byte			Fn4, v108
	.byte		N36	, Cn5
	.byte	W48
	.byte		N23	, Dn4, v096
	.byte		N23	, As4
	.byte	W24
	.byte		N11	, Ds4, v092
	.byte		N11	, Cn5
	.byte	W12
	.byte		N32	, Dn4, v076
	.byte		N32	, As4
	.byte	W36
	.byte		N11	, Cn4, v088
	.byte		N11	, An4
	.byte	W12
	.byte		N66	, As3, v084
	.byte		N66	, Gn4
	.byte	W12
	.byte	W96
	.byte		N44	, Cs4, v108
	.byte		N44	, As4
	.byte	W48
	.byte		N40	, Fs3, v052
	.byte		N40	, Cs4
	.byte	W48
	.byte		N44	, As3, v104
	.byte		N44	, Fs4
	.byte	W48
	.byte		N40	, Fs4, v096
	.byte		N40	, Cs5
	.byte	W48
	.byte		N78	, Ds4, v088
	.byte		N78	, Cn5
	.byte	W96
	.byte			Fn4, v112
	.byte		N78	, Dn5
	.byte	W96
	.byte	GOTO	
		.word	song0051_4_1
	.byte	FINE

	@********************** Track  5 **********************@

	.global song0051_5
song0051_5:	@ 0x08C7D633
	.byte	KEYSH	, 0
	.byte	VOICE	, 12
	.byte	VOL	, v040
	.byte	PAN	, c_v
	.byte	BENDR	, 3
	.byte	LFOS	, 23
	.byte	LFODL	, 22
	.byte	MOD	, 4
	.byte	MODT	, 0
	.byte		N04	, As1, v120
	.byte	W04
	.byte			Cn2, v104
	.byte	W04
	.byte			Dn2, v100
	.byte	W04
	.byte			Fn2
	.byte	W04
	.byte			Gn2, v096
	.byte	W04
	.byte			As2, v092
	.byte	W04
	.byte			Cn3
	.byte	W04
	.byte			Dn3, v104
	.byte	W04
	.byte			Fn3, v096
	.byte	W04
	.byte			Gn3, v104
	.byte	W04
	.byte			As3
	.byte	W04
	.byte			Cn4, v096
	.byte	W04
	.byte			Dn4
	.byte	W04
	.byte			Fn4, v100
	.byte	W04
	.byte			Gn4, v104
	.byte	W04
	.byte			As4, v096
	.byte	W04
	.byte			Cn5, v092
	.byte	W04
	.byte			Dn5, v096
	.byte	W04
	.byte			Fn5, v092
	.byte	W04
	.byte			Gn5, v104
	.byte	W04
	.byte			As5, v116
	.byte	W04
	.byte			Gs5, v100
	.byte	W04
	.byte			Cn6, v096
	.byte	W04
	.byte			As5, v104
	.byte	W04
	.byte			Gs5, v100
	.byte	W04
	.byte			Fn5, v096
	.byte	W04
	.byte			Ds5, v104
	.byte	W04
	.byte			Cn5, v092
	.byte	W04
	.byte			As4, v084
	.byte	W04
	.byte			Gs4, v112
	.byte	W04
	.byte			Fn4, v092
	.byte	W04
	.byte			Ds4, v096
	.byte	W04
	.byte			Cn4, v092
	.byte	W04
	.byte			As3, v104
	.byte	W04
	.byte			Gs3, v100
	.byte	W04
	.byte			Fn3, v104
	.byte	W04
	.byte			Ds3
	.byte	W04
	.byte			Cn3, v092
	.byte	W04
	.byte			As2, v108
	.byte	W04
	.byte			Gs2
	.byte	W04
	.byte			Fn2, v092
	.byte	W04
	.byte			Ds2, v108
	.byte	W04
	.byte			Cn2, v104
	.byte	W04
	.byte			As1, v120
	.byte	W04
	.byte			Gs1, v108
	.byte	W04
	.byte			As1
	.byte	W04
	.byte			Cn2, v096
	.byte	W04
	.byte			As1, v116
	.byte	W04
	.byte			Gn1, v108
	.byte	W04
	.byte			As1, v104
	.byte	W04
	.byte			Cn2, v088
	.byte	W04
	.byte			Ds2, v096
	.byte	W04
	.byte			Fn2
	.byte	W04
	.byte			Gn2
	.byte	W04
	.byte			As2, v104
	.byte	W04
	.byte			Cn3, v096
	.byte	W04
	.byte			Ds3, v100
	.byte	W04
	.byte			Fn3, v084
	.byte	W04
	.byte			Gn3, v100
	.byte	W04
	.byte			As3, v112
	.byte	W04
	.byte			Cn4, v096
	.byte	W04
	.byte			Ds4, v108
	.byte	W04
	.byte			Fn4, v096
	.byte	W04
	.byte			Gn4
	.byte	W04
	.byte			As4, v100
	.byte	W04
	.byte			Cn5, v096
	.byte	W04
	.byte			Ds5, v104
	.byte	W04
	.byte			Fn5, v084
	.byte	W04
	.byte			Gn5, v096
	.byte	W04
	.byte			Gs5, v116
	.byte	W04
	.byte			As5, v104
	.byte	W04
	.byte			Gs5, v096
	.byte	W04
	.byte			Fn5, v088
	.byte	W04
	.byte			Dn5, v096
	.byte	W04
	.byte			Cn5
	.byte	W04
	.byte			As4, v100
	.byte	W04
	.byte			Gs4, v116
	.byte	W04
	.byte			Fn4, v096
	.byte	W04
	.byte			Dn4
	.byte	W04
	.byte			Cn4, v088
	.byte	W04
	.byte			As3, v108
	.byte	W04
	.byte			Gs3
	.byte	W04
	.byte			Fn3, v096
	.byte	W04
	.byte			Dn3, v092
	.byte	W04
	.byte			Cn3, v084
	.byte	W04
	.byte			As2, v092
	.byte	W04
	.byte			Gs2, v096
	.byte	W04
	.byte			Fn2, v084
	.byte	W04
	.byte			Dn2, v096
	.byte	W04
	.byte			Cn2
	.byte	W04
	.byte			As1, v104
	.byte	W04
	.byte			Gs1, v108
	.byte	W04
	.byte			Fn1, v096
	.byte	W04
	.byte			Dn1, v104
	.byte	W04
	.byte			As0, v116
	.byte	W08
song0051_5_1:
	.byte	W96
	.byte	W96
	.byte	W96
	.byte	W96
	.byte	W96
	.byte	W96
	.byte	W96
	.byte	W96
	.byte	W96
	.byte	W96
	.byte	W96
	.byte	W96
	.byte	W96
	.byte	W96
	.byte	W96
	.byte	W96
	.byte	W96
	.byte	W96
	.byte	W96
	.byte	W96
	.byte	W96
	.byte	W96
	.byte	W96
	.byte	W96
	.byte	W96
	.byte	W96
	.byte	W96
	.byte	W96
	.byte	W96
	.byte	W96
	.byte	W96
	.byte	W96
	.byte		N06	, Dn2, v112
	.byte	W06
	.byte			En2, v084
	.byte	W06
	.byte			Fn2, v100
	.byte	W06
	.byte			An2, v096
	.byte	W06
	.byte			Cn3, v092
	.byte	W06
	.byte			Dn3, v096
	.byte	W06
	.byte			En3, v092
	.byte	W06
	.byte			Fn3, v084
	.byte	W06
	.byte			An3, v088
	.byte	W06
	.byte			Cn4, v080
	.byte	W06
	.byte			An3, v092
	.byte	W06
	.byte			Fn3, v096
	.byte	W06
	.byte			En3, v100
	.byte	W06
	.byte			Dn3, v104
	.byte	W06
	.byte			En3, v092
	.byte	W06
	.byte			Fn3, v100
	.byte	W06
	.byte			An3, v096
	.byte	W06
	.byte			Cn4
	.byte	W06
	.byte			Dn4
	.byte	W06
	.byte			En4, v108
	.byte	W06
	.byte			Fn4, v092
	.byte	W06
	.byte			An4, v096
	.byte	W06
	.byte			Cn5, v084
	.byte	W06
	.byte			An4, v096
	.byte	W06
	.byte			Fn4, v104
	.byte	W06
	.byte			En4
	.byte	W06
	.byte			Dn4, v108
	.byte	W06
	.byte			En4, v112
	.byte	W06
	.byte			Fn4, v108
	.byte	W06
	.byte			An4
	.byte	W06
	.byte			Dn5
	.byte	W06
	.byte			Fn5, v084
	.byte	W06
	.byte			Gn5, v104
	.byte	W06
	.byte			Fn5, v096
	.byte	W06
	.byte			Ds5, v104
	.byte	W06
	.byte			As4, v100
	.byte	W06
	.byte			Gn4, v088
	.byte	W06
	.byte			Fn4, v092
	.byte	W06
	.byte			Ds4, v080
	.byte	W06
	.byte			As3, v100
	.byte	W06
	.byte			Ds4, v092
	.byte	W06
	.byte			Fn4, v088
	.byte	W06
	.byte			Gn4, v096
	.byte	W06
	.byte			As4, v104
	.byte	W06
	.byte			Gn4, v096
	.byte	W06
	.byte			Fn4
	.byte	W06
	.byte			Ds4, v104
	.byte	W06
	.byte			As3, v100
	.byte	W06
	.byte			Gn3, v092
	.byte	W06
	.byte			Fn3, v096
	.byte	W06
	.byte			Ds3, v088
	.byte	W06
	.byte			Fn3, v092
	.byte	W06
	.byte			Gn3, v104
	.byte	W06
	.byte			As3, v108
	.byte	W06
	.byte			Gn3, v104
	.byte	W06
	.byte			Fn3, v092
	.byte	W06
	.byte			Ds3, v108
	.byte	W06
	.byte			As2
	.byte	W06
	.byte			Gn2, v088
	.byte	W06
	.byte			As2, v112
	.byte	W06
	.byte			Ds3, v108
	.byte	W06
	.byte			As2, v104
	.byte	W06
	.byte			Gn2, v096
	.byte	W06
	.byte			Ds2, v120
	.byte	W06
	.byte			Fs2, v108
	.byte	W06
	.byte			Gs2, v112
	.byte	W06
	.byte			As2, v108
	.byte	W06
	.byte			Cs3, v112
	.byte	W06
	.byte			Fs3, v104
	.byte	W06
	.byte			Gs3, v108
	.byte	W06
	.byte			As3, v112
	.byte	W06
	.byte			Cs4, v108
	.byte	W06
	.byte			Fs4, v116
	.byte	W06
	.byte			Cs4, v112
	.byte	W06
	.byte			As3, v108
	.byte	W06
	.byte			Gs3, v112
	.byte	W06
	.byte			Fs3, v100
	.byte	W06
	.byte			Gs3, v104
	.byte	W06
	.byte			As3, v108
	.byte	W06
	.byte			Cs4
	.byte	W06
	.byte			Fs4, v104
	.byte	W06
	.byte			Gs4, v108
	.byte	W06
	.byte			As4, v092
	.byte	W06
	.byte			Cs5
	.byte	W06
	.byte			Fs5, v104
	.byte	W06
	.byte			Cs5, v100
	.byte	W06
	.byte			As4, v104
	.byte	W06
	.byte			Gs4, v096
	.byte	W06
	.byte			Fs4, v088
	.byte	W06
	.byte			Gs4, v108
	.byte	W06
	.byte			As4, v104
	.byte	W06
	.byte			Cs5, v100
	.byte	W06
	.byte			Fs5, v104
	.byte	W06
	.byte			Gs5, v096
	.byte	W06
	.byte			As5, v108
	.byte	W06
	.byte			Cs6, v112
	.byte	W06
	.byte			Cn6, v096
	.byte	W06
	.byte			As5, v108
	.byte	W06
	.byte			Gs5, v100
	.byte	W06
	.byte			Ds5, v092
	.byte	W06
	.byte			Cn5
	.byte	W06
	.byte			As4, v096
	.byte	W06
	.byte			Gs4, v104
	.byte	W06
	.byte			Ds4, v096
	.byte	W06
	.byte			Gs4, v108
	.byte	W06
	.byte			As4, v100
	.byte	W06
	.byte			Cn5, v080
	.byte	W06
	.byte			As4, v108
	.byte	W06
	.byte			Gs4, v100
	.byte	W06
	.byte			Ds4, v096
	.byte	W06
	.byte			Cn4, v088
	.byte	W06
	.byte			As3, v116
	.byte	W06
	.byte			As3, v112
	.byte	W06
	.byte			Cn4, v108
	.byte	W06
	.byte			Dn4
	.byte	W06
	.byte			Fn4, v100
	.byte	W06
	.byte			As4, v112
	.byte	W06
	.byte			Cn5, v104
	.byte	W06
	.byte			Dn5, v100
	.byte	W06
	.byte			Fn5
	.byte	W06
	.byte			As5, v120
	.byte	W06
	.byte			Fn5, v096
	.byte	W06
	.byte			Dn5, v108
	.byte	W06
	.byte			As4, v120
	.byte	W06
	.byte			Fn4, v104
	.byte	W06
	.byte			Dn4, v108
	.byte	W06
	.byte			As3, v120
	.byte	W06
	.byte			As2, v108
	.byte	W06
	.byte	GOTO	
		.word	song0051_5_1
	.byte	FINE

	@********************** Track  6 **********************@

	.global song0051_6
song0051_6:	@ 0x08C7D8F0
	.byte	KEYSH	, 0
	.byte	VOICE	, 76
	.byte	VOL	, v115
	.byte	PAN	, c_v
	.byte	BENDR	, 3
	.byte	LFOS	, 55
	.byte	LFODL	, 0
	.byte	MOD	, 35
	.byte	MODT	, 2
	.byte	PRIO	, 30
	.byte	W96
	.byte	W96
	.byte	W96
	.byte	W96
song0051_6_1:
	.byte	W96
	.byte	W96
	.byte		TIE	, Ds3, v084
	.byte	W96
	.byte	W09
	.byte		EOT	
	.byte	W03
	.byte		N13	, Ds3, v108
	.byte	W24
	.byte		N48	, Ds3, v096
	.byte	W60
	.byte	W96
	.byte	W96
	.byte	W96
	.byte	W96
	.byte	W96
	.byte	W96
	.byte	W96
	.byte	W96
	.byte	W96
	.byte	W96
	.byte	W96
	.byte	W96
	.byte	W96
	.byte	W96
	.byte		TIE	, Ds3, v084
	.byte	W96
	.byte	W09
	.byte		EOT	
	.byte	W03
	.byte		N13	, Ds3, v108
	.byte	W24
	.byte		N48	, Ds3, v096
	.byte	W60
	.byte	W96
	.byte	W96
	.byte	W96
	.byte	W96
	.byte	W96
	.byte	W96
	.byte	W96
	.byte	W96
	.byte	W96
	.byte	W96
	.byte	W96
	.byte	W96
	.byte	W96
	.byte	W96
	.byte	W96
	.byte	W96
	.byte	W96
	.byte	W96
	.byte	W96
	.byte	W96
	.byte	GOTO	
		.word	song0051_6_1
	.byte	FINE

	@********************** Track  7 **********************@

	.global song0051_7
song0051_7:	@ 0x08C7D950
	.byte	KEYSH	, 0
	.byte	VOICE	, 87
	.byte	VOL	, v072
	.byte	PAN	, c_v
	.byte	BENDR	, 3
	.byte	LFOS	, 55
	.byte	LFODL	, 0
	.byte	MOD	, 35
	.byte	MODT	, 2
	.byte	PRIO	, 30
	.byte	W96
	.byte	W96
	.byte		N80	, Dn3, v080
	.byte		N80	, Fn3, v100
	.byte		N80	, As3
	.byte	W84
	.byte		N56	, Cn3
	.byte		N56	, Gs3, v116
	.byte	W12
	.byte	W44
	.byte	W02
	.byte		N04	, Bn2, v024
	.byte	W04
	.byte		N03	, An2, v048
	.byte	W02
	.byte		N02	, Gn2, v080
	.byte	W02
	.byte			Fn2, v064
	.byte	W03
	.byte			En2
	.byte	W02
	.byte			Dn2, v072
	.byte	W02
	.byte			Cn2, v092
	.byte	W02
	.byte			Bn1, v100
	.byte	W02
	.byte		N01	, An1, v108
	.byte	W01
	.byte			Gn1, v100
	.byte	W03
	.byte			Fn1, v044
	.byte	W02
	.byte		N08	, En1, v028
	.byte	W07
	.byte		N02	, Fn1, v084
	.byte	W02
	.byte			Gn1, v092
	.byte	W02
	.byte			An1, v084
	.byte	W02
	.byte			Bn1, v092
	.byte	W01
	.byte			Cn2
	.byte	W02
	.byte			Dn2, v064
	.byte	W01
	.byte			En2, v048
	.byte	W02
	.byte			Fn2, v080
	.byte	W02
	.byte		N01	, Gn2, v072
	.byte	W01
	.byte		N02	, An2, v064
	.byte	W01
	.byte		N01	, Bn2, v056
	.byte	W02
song0051_7_4:
	.byte	W96
	.byte	W96
	.byte	W96
	.byte	W96
song0051_7_1:
	.byte		N54	, Bn2, v084
	.byte		N56	, Gs3, v100
	.byte	W60
	.byte		N07	, Bn2, v060
	.byte		N08	, Gs3, v100
	.byte	W24
	.byte		N54	, Bn2, v092
	.byte		N56	, Ds3, v104
	.byte	W12
	.byte	PEND
song0051_7_2:
	.byte	W48
	.byte		N48	, Bn2, v080
	.byte		N48	, Gs3, v108
	.byte	W48
	.byte	PEND
	.byte	W96
song0051_7_3:
	.byte	W72
	.byte		N23	, Dn3, v108
	.byte		N23	, Fn3, v112
	.byte	W24
	.byte	PEND
	.byte	W96
	.byte	W96
	.byte	W96
	.byte	W96
	.byte	W96
	.byte	W96
	.byte	W96
	.byte	W96
	.byte	W96
	.byte	W96
	.byte	W96
	.byte	W96
	.byte	PATT	
		.word	song0051_7_1
	.byte	PATT	
		.word	song0051_7_2
	.byte	W96
	.byte	PATT	
		.word	song0051_7_3
	.byte	W96
	.byte	W96
	.byte	W96
	.byte	W96
	.byte	W96
	.byte	W96
	.byte	W96
	.byte	W96
	.byte	W96
	.byte	W96
	.byte	W96
	.byte	W96
	.byte	W96
	.byte	W96
	.byte	W96
	.byte	W96
	.byte	GOTO	
		.word	song0051_7_4
	.byte	FINE

	.align 2
	.global song0051
song0051:	@ 0x08C7DA24
	.byte	7		@ trackCount
	.byte	0		@ blockCount
	.byte	0		@ priority
	.byte	128		@ reverb

	.word	voicegroup007		@ voicegroup/tone

	.word	song0051_1		@ track
	.word	song0051_2		@ track
	.word	song0051_3		@ track
	.word	song0051_4		@ track
	.word	song0051_5		@ track
	.word	song0051_6		@ track
	.word	song0051_7		@ track
