	.include "MPlayDef.s"

	.section .rodata

	@********************** Track  1 **********************@

	.align 2
	.global song0025_1
song0025_1:	@ 0x08C69A6C
	.byte	KEYSH	, 0
song0025_1_4:
	.byte	TEMPO	, 75
	.byte	VOICE	, 127
	.byte	VOL	, v110
	.byte	PAN	, c_v
	.byte	BENDR	, 3
	.byte		N03	, Dn1, v044
	.byte		N03	, Ds2, v127
	.byte	W06
	.byte			Dn1, v028
	.byte	W06
	.byte		N03	
	.byte	W06
	.byte		N03	
	.byte	W06
	.byte			Dn1, v044
	.byte		N03	, Ds2, v127
	.byte	W06
	.byte			Dn1, v028
	.byte	W06
	.byte		N03	
	.byte	W06
	.byte		N03	
	.byte	W06
	.byte			Dn1, v044
	.byte		N03	, Ds2, v127
	.byte	W06
	.byte			Dn1, v028
	.byte	W06
	.byte		N03	
	.byte	W06
	.byte		N03	
	.byte	W06
	.byte			Dn1, v044
	.byte		N03	, Ds2, v127
	.byte	W06
	.byte			Dn1, v028
	.byte	W06
	.byte		N03	
	.byte	W06
	.byte		N03	
	.byte	W06
song0025_1_1:
	.byte		N03	, Dn1, v044
	.byte		N03	, Ds2, v127
	.byte	W06
	.byte			Dn1, v028
	.byte	W06
	.byte		N03	
	.byte	W06
	.byte		N03	
	.byte	W06
	.byte			Dn1, v044
	.byte		N03	, Ds2, v127
	.byte	W06
	.byte			Dn1, v028
	.byte	W06
	.byte		N03	
	.byte	W06
	.byte		N03	
	.byte	W06
	.byte			Dn1, v044
	.byte		N03	, Ds2, v127
	.byte	W06
	.byte			Dn1, v028
	.byte	W06
	.byte		N03	
	.byte	W06
	.byte		N03	
	.byte	W06
	.byte			Dn1, v044
	.byte		N03	, Ds2, v127
	.byte	W06
	.byte			Dn1, v028
	.byte	W06
	.byte		N03	
	.byte	W06
	.byte		N03	
	.byte	W06
	.byte	PEND
	.byte	PATT	
		.word	song0025_1_1
	.byte	PATT	
		.word	song0025_1_1
	.byte	PATT	
		.word	song0025_1_1
	.byte	PATT	
		.word	song0025_1_1
	.byte	PATT	
		.word	song0025_1_1
	.byte	PATT	
		.word	song0025_1_1
	.byte	PATT	
		.word	song0025_1_1
	.byte	PATT	
		.word	song0025_1_1
	.byte	PATT	
		.word	song0025_1_1
	.byte	PATT	
		.word	song0025_1_1
	.byte	PATT	
		.word	song0025_1_1
	.byte	PATT	
		.word	song0025_1_1
	.byte	PATT	
		.word	song0025_1_1
	.byte	PATT	
		.word	song0025_1_1
	.byte	PATT	
		.word	song0025_1_1
	.byte	PATT	
		.word	song0025_1_1
	.byte	PATT	
		.word	song0025_1_1
	.byte	PATT	
		.word	song0025_1_1
	.byte	PATT	
		.word	song0025_1_1
	.byte	PATT	
		.word	song0025_1_1
	.byte	PATT	
		.word	song0025_1_1
	.byte	PATT	
		.word	song0025_1_1
	.byte	PATT	
		.word	song0025_1_1
	.byte	PATT	
		.word	song0025_1_1
	.byte	PATT	
		.word	song0025_1_1
	.byte	PATT	
		.word	song0025_1_1
song0025_1_2:
	.byte		N03	, Dn1, v044
	.byte		N03	, Ds2, v127
	.byte	W06
	.byte			Dn1, v028
	.byte	W06
	.byte			Ds1, v040
	.byte	W06
	.byte			Dn1, v028
	.byte	W06
	.byte			Dn1, v044
	.byte		N03	, Ds2, v127
	.byte	W06
	.byte			Dn1, v028
	.byte	W06
	.byte			Ds1, v040
	.byte	W06
	.byte			Dn1, v028
	.byte	W06
	.byte			Dn1, v044
	.byte		N03	, Ds2, v127
	.byte	W06
	.byte			Dn1, v028
	.byte	W06
	.byte			Ds1, v040
	.byte	W06
	.byte			Dn1, v028
	.byte	W06
	.byte			Dn1, v044
	.byte		N03	, Ds2, v127
	.byte	W06
	.byte			Dn1, v028
	.byte	W06
	.byte			Ds1, v040
	.byte	W06
	.byte			Dn1, v028
	.byte	W06
	.byte	PEND
	.byte	PATT	
		.word	song0025_1_2
	.byte	PATT	
		.word	song0025_1_2
	.byte	PATT	
		.word	song0025_1_2
	.byte	PATT	
		.word	song0025_1_2
	.byte	PATT	
		.word	song0025_1_2
	.byte	PATT	
		.word	song0025_1_2
	.byte	PATT	
		.word	song0025_1_2
song0025_1_3:
	.byte		N03	, Ds1, v036
	.byte		N03	, Ds2, v127
	.byte	W06
	.byte			Dn1, v028
	.byte	W06
	.byte			Dn1, v044
	.byte	W06
	.byte			Dn1, v028
	.byte	W06
	.byte			Ds1, v036
	.byte		N03	, Ds2, v127
	.byte	W06
	.byte			Dn1, v028
	.byte	W06
	.byte			Dn1, v044
	.byte	W06
	.byte			Dn1, v028
	.byte	W06
	.byte			Ds1, v036
	.byte		N03	, Ds2, v127
	.byte	W06
	.byte			Dn1, v028
	.byte	W06
	.byte			Dn1, v044
	.byte	W06
	.byte			Dn1, v028
	.byte	W06
	.byte			Ds1, v036
	.byte		N03	, Ds2, v127
	.byte	W06
	.byte			Dn1, v028
	.byte	W06
	.byte			Dn1, v044
	.byte	W06
	.byte			Dn1, v028
	.byte	W06
	.byte	PEND
	.byte	PATT	
		.word	song0025_1_3
	.byte	PATT	
		.word	song0025_1_3
	.byte	PATT	
		.word	song0025_1_3
	.byte	PATT	
		.word	song0025_1_3
	.byte	PATT	
		.word	song0025_1_3
	.byte	PATT	
		.word	song0025_1_3
	.byte	PATT	
		.word	song0025_1_3
	.byte	PATT	
		.word	song0025_1_3
	.byte	PATT	
		.word	song0025_1_3
	.byte	PATT	
		.word	song0025_1_3
	.byte	PATT	
		.word	song0025_1_3
	.byte	PATT	
		.word	song0025_1_3
	.byte	PATT	
		.word	song0025_1_3
	.byte	PATT	
		.word	song0025_1_3
	.byte	PATT	
		.word	song0025_1_3
	.byte	GOTO	
		.word	song0025_1_4
	.byte	PATT	
		.word	song0025_1_3
	.byte	PATT	
		.word	song0025_1_3
	.byte	PATT	
		.word	song0025_1_3
	.byte		N03	, Ds1, v036
	.byte		N03	, Ds2, v127
	.byte	W06
	.byte			Dn1, v028
	.byte	W06
	.byte			Dn1, v044
	.byte	W06
	.byte			Dn1, v028
	.byte	W06
	.byte			Ds1, v036
	.byte		N03	, Ds2, v127
	.byte	W06
	.byte			Dn1, v028
	.byte	W06
	.byte			Dn1, v044
	.byte	W06
	.byte			Dn1, v028
	.byte	W06
	.byte			Ds1, v036
	.byte		N03	, Ds2, v127
	.byte	W06
	.byte			Dn1, v028
	.byte	W06
	.byte			Dn1, v044
	.byte	W06
	.byte			Dn1, v028
	.byte	W06
	.byte			Ds1, v036
	.byte		N03	, Ds2, v127
	.byte	W06
	.byte			Dn1, v028
	.byte	W06
	.byte			Dn1, v044
	.byte	W06
	.byte			Dn1, v028
	.byte	W03
	.byte	FINE

	@********************** Track  2 **********************@

	.global song0025_2
song0025_2:	@ 0x08C69CA1
	.byte	KEYSH	, 0
song0025_2_2:
	.byte	VOICE	, 74
	.byte	PRIO	, 30
	.byte	VOL	, v110
	.byte	PAN	, c_v
	.byte	BENDR	, 13
	.byte	LFOS	, 18
	.byte	LFODL	, 20
	.byte	MOD	, 0
	.byte	MODT	, 0
	.byte	BEND	, c_v
	.byte	W96
	.byte	W96
	.byte	W96
	.byte	W96
	.byte	W96
	.byte	W96
	.byte	W96
	.byte	W96
	.byte	W96
	.byte	W96
	.byte	W96
	.byte	W96
	.byte		TIE	, Dn2, v127
	.byte	W96
	.byte	W40
	.byte	W01
	.byte		EOT	
	.byte	W07
	.byte		N13	, Gn1
	.byte	W18
	.byte		N12	, As1
	.byte	W18
	.byte		N11	, Fn2
	.byte	W12
	.byte		TIE	, En2
	.byte	W96
	.byte	W56
	.byte	W03
	.byte		EOT	
	.byte	W13
	.byte		N20	, Cn2
	.byte	W24
	.byte		TIE	, Dn2
	.byte	W96
	.byte	W40
	.byte	W01
	.byte		EOT	
	.byte	W07
	.byte		N15	
	.byte	W18
	.byte		N11	, Gn2
	.byte	W18
	.byte			Fn2
	.byte	W12
	.byte		TIE	, En2
	.byte	W96
	.byte	W92
	.byte		EOT	
	.byte	W03
	.byte		TIE	, Dn3
	.byte	W01
	.byte	W96
	.byte	W09
	.byte		EOT	
	.byte	W05
	.byte		N15	
	.byte	W18
	.byte		N11	, As2
	.byte	W16
	.byte		N44	, Fn2
	.byte	W44
	.byte	W02
	.byte		N56	, En2
	.byte	W02
song0025_2_1:
	.byte	W60
	.byte	W03
	.byte		N13	, Fn2, v127
	.byte	W17
	.byte		N11	, Gn2
	.byte	W16
	.byte	PEND
	.byte	W01
	.byte		N84	, Cn3
	.byte	W92
	.byte	W02
	.byte		TIE	, Dn3
	.byte	W01
	.byte	W96
	.byte	W09
	.byte		EOT	
	.byte	W05
	.byte		N15	
	.byte	W18
	.byte		N11	, As2
	.byte	W16
	.byte		N44	, Fn2
	.byte	W44
	.byte	W02
	.byte		N56	, En2
	.byte	W02
	.byte	PATT	
		.word	song0025_2_1
	.byte	W01
	.byte		N84	, Cn3, v127
	.byte	W92
	.byte	W03
	.byte		TIE	, Dn2
	.byte	W96
	.byte	W40
	.byte	W01
	.byte		EOT	
	.byte	W07
	.byte		N13	, Gn1
	.byte	W18
	.byte		N12	, As1
	.byte	W18
	.byte		N11	, Fn2
	.byte	W12
	.byte		TIE	, En2
	.byte	W96
	.byte	W56
	.byte	W03
	.byte		EOT	
	.byte	W13
	.byte		N20	, Cn2
	.byte	W24
	.byte		TIE	, Dn2
	.byte	W96
	.byte	W40
	.byte	W01
	.byte		EOT	
	.byte	W07
	.byte		N15	
	.byte	W18
	.byte		N11	, Gn2
	.byte	W18
	.byte			Fn2
	.byte	W12
	.byte		TIE	, En2
	.byte	W96
	.byte	W92
	.byte		EOT	
	.byte	W04
	.byte		N90	, Dn2
	.byte		N92	, Gn2
	.byte	W92
	.byte	W03
	.byte			Cs2
	.byte		N92	, Fs2
	.byte	W01
	.byte	W92
	.byte	W01
	.byte		TIE	, Fn2
	.byte	W01
	.byte			Cn2
	.byte	W02
	.byte	W96
	.byte	W84
	.byte		EOT	
	.byte	W01
	.byte		EOT	, Fn2
	.byte	W11
	.byte		N12	, Bn1
	.byte		N12	, En2
	.byte	W18
	.byte			Cn2
	.byte		N12	, Fn2
	.byte	W17
	.byte		TIE	, Dn2
	.byte		TIE	, Gn2
	.byte	W60
	.byte	W01
	.byte	W92
	.byte	W03
	.byte		EOT	
	.byte	W01
	.byte		EOT	, Dn2
	.byte	W96
	.byte	W92
	.byte	W03
	.byte		N92	
	.byte		N96	, Gn2
	.byte	W01
	.byte	W92
	.byte	W03
	.byte		N92	, Cs2
	.byte		N92	, Fs2
	.byte	W01
	.byte	W92
	.byte	W03
	.byte		TIE	, Cn2
	.byte		TIE	, Fn2
	.byte	W01
	.byte	W96
	.byte	W84
	.byte	W03
	.byte		EOT	, Cn2
	.byte			Fn2
	.byte	W09
	.byte		N12	, Bn1
	.byte		N12	, En2
	.byte	W18
	.byte			Cn2
	.byte		N12	, Fn2
	.byte	W18
	.byte		TIE	, Dn2
	.byte		TIE	, Gn2
	.byte	W60
	.byte	W84
	.byte	W02
	.byte		EOT	, Dn2
	.byte			Gn2
	.byte	W10
	.byte	W96
	.byte	W96
	.byte	GOTO	
		.word	song0025_2_2
	.byte	FINE

	@********************** Track  3 **********************@

	.global song0025_3
song0025_3:	@ 0x08C69DC5
	.byte	KEYSH	, 0
song0025_3_3:
	.byte	VOICE	, 74
	.byte	VOL	, v110
	.byte	PAN	, c_v
	.byte	BENDR	, 13
	.byte	LFOS	, 18
	.byte	LFODL	, 20
	.byte	MOD	, 0
	.byte	MODT	, 0
	.byte	BEND	, c_v
	.byte	W96
	.byte	W96
	.byte	W96
	.byte	W96
song0025_3_1:
	.byte		N03	, As2, v104
	.byte		N03	, Dn3
	.byte	W06
	.byte			As2, v100
	.byte		N03	, Dn3
	.byte	W06
	.byte			As2, v080
	.byte		N03	, Dn3
	.byte	W12
	.byte			As2, v104
	.byte		N03	, Dn3
	.byte	W06
	.byte			As2, v100
	.byte		N03	, Dn3
	.byte	W06
	.byte			As2, v080
	.byte		N03	, Dn3
	.byte	W12
	.byte			As2, v104
	.byte		N03	, Dn3
	.byte	W06
	.byte			As2, v100
	.byte		N03	, Dn3
	.byte	W06
	.byte			As2, v080
	.byte		N03	, Dn3
	.byte	W12
	.byte			As2, v104
	.byte		N03	, Dn3
	.byte	W06
	.byte			As2, v100
	.byte		N03	, Dn3
	.byte	W06
	.byte			As2, v080
	.byte		N03	, Dn3
	.byte	W12
	.byte	PEND
	.byte	W96
song0025_3_2:
	.byte		N03	, Cn3, v104
	.byte		N03	, En3
	.byte	W06
	.byte			Cn3, v100
	.byte		N03	, En3
	.byte	W06
	.byte			Cn3, v080
	.byte		N03	, En3
	.byte	W12
	.byte			Cn3, v104
	.byte		N03	, En3
	.byte	W06
	.byte			Cn3, v100
	.byte		N03	, En3
	.byte	W06
	.byte			Cn3, v080
	.byte		N03	, En3
	.byte	W12
	.byte			Cn3, v104
	.byte		N03	, En3
	.byte	W06
	.byte			Cn3, v100
	.byte		N03	, En3
	.byte	W06
	.byte			Cn3, v080
	.byte		N03	, En3
	.byte	W12
	.byte			Cn3, v104
	.byte		N03	, En3
	.byte	W06
	.byte			Cn3, v100
	.byte		N03	, En3
	.byte	W06
	.byte			Cn3, v080
	.byte		N03	, En3
	.byte	W12
	.byte	PEND
	.byte	W96
	.byte	PATT	
		.word	song0025_3_1
	.byte	W96
	.byte	PATT	
		.word	song0025_3_2
	.byte	W96
	.byte	PATT	
		.word	song0025_3_1
	.byte	W96
	.byte	PATT	
		.word	song0025_3_2
	.byte	W96
	.byte	PATT	
		.word	song0025_3_1
	.byte	W96
	.byte	PATT	
		.word	song0025_3_2
	.byte	W96
	.byte	W96
	.byte	W96
	.byte	W96
	.byte	W96
	.byte	W96
	.byte	W96
	.byte	W96
	.byte	W96
	.byte	W96
	.byte	W96
	.byte	W96
	.byte	W96
	.byte	W96
	.byte	W96
	.byte	W96
	.byte	W96
	.byte	W96
	.byte	W96
	.byte	W96
	.byte	W96
	.byte	W96
	.byte	W96
	.byte	W96
	.byte	W96
	.byte	W96
	.byte	W96
	.byte	W96
	.byte	W96
	.byte	W96
	.byte	W96
	.byte	W96
	.byte	W96
	.byte	GOTO	
		.word	song0025_3_3
	.byte	FINE

	@********************** Track  4 **********************@

	.global song0025_4
song0025_4:	@ 0x08C69EA5
	.byte	KEYSH	, 0
song0025_4_5:
	.byte	VOICE	, 73
	.byte	VOL	, v095
	.byte	PAN	, c_v
	.byte	BENDR	, 3
	.byte	LFOS	, 56
	.byte	LFODL	, 0
	.byte	MOD	, 0
	.byte	MODT	, 2
	.byte		N06	, Gn1, v127
	.byte	W06
	.byte		N06	
	.byte	W06
	.byte			An1
	.byte	W06
	.byte			Gn1
	.byte	W06
	.byte			As1
	.byte	W12
	.byte			Gn1
	.byte	W06
	.byte		N06	
	.byte	W06
	.byte			Cn2
	.byte	W12
	.byte			Gn1
	.byte	W06
	.byte		N06	
	.byte	W06
	.byte			Cs2
	.byte	W06
	.byte		N06	
	.byte	W06
	.byte			Dn2
	.byte	W06
	.byte			Dn3
	.byte	W06
song0025_4_1:
	.byte		N06	, Gn1, v127
	.byte	W06
	.byte		N06	
	.byte	W06
	.byte			An1
	.byte	W06
	.byte			Gn1
	.byte	W06
	.byte			As1
	.byte	W12
	.byte			Gn1
	.byte	W06
	.byte		N06	
	.byte	W06
	.byte			Cn2
	.byte	W12
	.byte			Gn1
	.byte	W06
	.byte		N06	
	.byte	W06
	.byte			Cs2
	.byte	W06
	.byte		N06	
	.byte	W06
	.byte			Dn2
	.byte	W06
	.byte			Dn3
	.byte	W06
	.byte	PEND
	.byte	PATT	
		.word	song0025_4_1
	.byte	PATT	
		.word	song0025_4_1
	.byte	PATT	
		.word	song0025_4_1
	.byte	PATT	
		.word	song0025_4_1
	.byte	PATT	
		.word	song0025_4_1
	.byte	PATT	
		.word	song0025_4_1
	.byte	PATT	
		.word	song0025_4_1
	.byte	PATT	
		.word	song0025_4_1
	.byte	PATT	
		.word	song0025_4_1
	.byte	PATT	
		.word	song0025_4_1
	.byte	PATT	
		.word	song0025_4_1
	.byte	PATT	
		.word	song0025_4_1
	.byte	PATT	
		.word	song0025_4_1
	.byte	PATT	
		.word	song0025_4_1
	.byte	PATT	
		.word	song0025_4_1
	.byte	PATT	
		.word	song0025_4_1
	.byte	PATT	
		.word	song0025_4_1
	.byte	PATT	
		.word	song0025_4_1
song0025_4_2:
	.byte		N06	, As1, v127
	.byte	W06
	.byte		N06	
	.byte	W06
	.byte		N06	
	.byte	W06
	.byte		N06	
	.byte	W06
	.byte			Dn2
	.byte	W12
	.byte			As1
	.byte	W06
	.byte		N06	
	.byte	W06
	.byte			Fn2
	.byte	W12
	.byte			As1
	.byte	W06
	.byte		N06	
	.byte	W06
	.byte			Dn2
	.byte	W06
	.byte		N06	
	.byte	W06
	.byte			Fn2
	.byte	W06
	.byte			Fn3
	.byte	W06
	.byte	PEND
	.byte	PATT	
		.word	song0025_4_2
song0025_4_3:
	.byte		N06	, Cn2, v127
	.byte	W06
	.byte		N06	
	.byte	W06
	.byte		N06	
	.byte	W06
	.byte		N06	
	.byte	W06
	.byte			En2
	.byte	W12
	.byte			Cn2
	.byte	W06
	.byte		N06	
	.byte	W06
	.byte			Gn2
	.byte	W12
	.byte			Cn2
	.byte	W06
	.byte		N06	
	.byte	W06
	.byte			En2
	.byte	W06
	.byte		N06	
	.byte	W06
	.byte			Gn2
	.byte	W06
	.byte			Gn3
	.byte	W06
	.byte	PEND
	.byte	PATT	
		.word	song0025_4_3
	.byte	PATT	
		.word	song0025_4_2
	.byte	PATT	
		.word	song0025_4_2
	.byte	PATT	
		.word	song0025_4_3
	.byte	PATT	
		.word	song0025_4_3
	.byte	PATT	
		.word	song0025_4_1
	.byte	PATT	
		.word	song0025_4_1
	.byte	PATT	
		.word	song0025_4_1
	.byte	PATT	
		.word	song0025_4_1
	.byte	PATT	
		.word	song0025_4_1
	.byte	PATT	
		.word	song0025_4_1
	.byte	PATT	
		.word	song0025_4_1
	.byte	PATT	
		.word	song0025_4_1
song0025_4_4:
	.byte		N05	, Gn1, v127
	.byte	W06
	.byte		N05	
	.byte	W06
	.byte			An1
	.byte	W06
	.byte		N05	
	.byte	W06
	.byte			As1
	.byte	W06
	.byte			Cn2
	.byte	W06
	.byte			Gn1
	.byte	W06
	.byte		N05	
	.byte	W06
	.byte		N05	
	.byte	W06
	.byte		N05	
	.byte	W06
	.byte			An1
	.byte	W06
	.byte		N05	
	.byte	W06
	.byte			As1
	.byte	W06
	.byte			Cn2
	.byte	W06
	.byte			Gn1
	.byte	W06
	.byte		N06	
	.byte	W06
	.byte	PEND
	.byte	PATT	
		.word	song0025_4_4
	.byte	PATT	
		.word	song0025_4_4
	.byte	PATT	
		.word	song0025_4_4
	.byte	PATT	
		.word	song0025_4_4
	.byte	PATT	
		.word	song0025_4_4
	.byte	PATT	
		.word	song0025_4_4
	.byte	PATT	
		.word	song0025_4_4
	.byte	PATT	
		.word	song0025_4_4
	.byte	PATT	
		.word	song0025_4_4
	.byte	PATT	
		.word	song0025_4_4
	.byte	PATT	
		.word	song0025_4_4
	.byte	PATT	
		.word	song0025_4_4
	.byte	PATT	
		.word	song0025_4_4
	.byte	PATT	
		.word	song0025_4_4
	.byte	PATT	
		.word	song0025_4_4
	.byte	GOTO	
		.word	song0025_4_5
	.byte	PATT	
		.word	song0025_4_4
	.byte	PATT	
		.word	song0025_4_4
	.byte	PATT	
		.word	song0025_4_4
	.byte	PATT	
		.word	song0025_4_4
	.byte	FINE

	@********************** Track  5 **********************@

	.global song0025_5
song0025_5:	@ 0x08C6A05A
	.byte	KEYSH	, 0
song0025_5_5:
	.byte	VOICE	, 71
	.byte	VOL	, v110
	.byte	PAN	, c_v+63
	.byte	BENDR	, 3
	.byte	LFOS	, 23
	.byte	LFODL	, 22
	.byte	MOD	, 4
	.byte	MODT	, 0
	.byte	W96
	.byte	W96
	.byte	W96
	.byte	W96
song0025_5_1:
	.byte	VOL	, v110
	.byte		TIE	, Dn3, v100
	.byte	W06
	.byte	VOL	, v108
	.byte	W06
	.byte		v098
	.byte	W06
	.byte		v089
	.byte	W06
	.byte		v079
	.byte	W06
	.byte		v070
	.byte	W06
	.byte		v060
	.byte	W06
	.byte		v050
	.byte	W06
	.byte		v052
	.byte	W06
	.byte		v056
	.byte	W06
	.byte		v058
	.byte	W06
	.byte		v062
	.byte	W06
	.byte		v064
	.byte	W06
	.byte		v068
	.byte	W06
	.byte		v071
	.byte	W06
	.byte		v074
	.byte	W06
	.byte	PEND
song0025_5_2:
	.byte	VOL	, v077
	.byte	W06
	.byte		v080
	.byte	W06
	.byte		v084
	.byte	W06
	.byte		v086
	.byte	W06
	.byte		v090
	.byte	W06
	.byte		v092
	.byte	W06
	.byte		v096
	.byte	W06
	.byte		v098
	.byte	W06
	.byte		v102
	.byte	W06
	.byte		v104
	.byte	W06
	.byte		v108
	.byte	W06
	.byte		v110
	.byte	W06
	.byte		v110
	.byte	W06
	.byte		v110
	.byte	W18
	.byte	PEND
	.byte		EOT	, Dn3
song0025_5_3:
	.byte	VOL	, v105
	.byte		TIE	, En3, v100
	.byte	W06
	.byte	VOL	, v103
	.byte	W06
	.byte		v101
	.byte	W06
	.byte		v099
	.byte	W06
	.byte		v097
	.byte	W06
	.byte		v094
	.byte	W06
	.byte		v092
	.byte	W06
	.byte		v090
	.byte	W06
	.byte		v087
	.byte	W06
	.byte		v085
	.byte	W06
	.byte		v083
	.byte	W06
	.byte		v080
	.byte	W06
	.byte		v078
	.byte	W06
	.byte		v076
	.byte	W06
	.byte		v073
	.byte	W06
	.byte		v071
	.byte	W06
	.byte	PEND
song0025_5_4:
	.byte	VOL	, v069
	.byte	W06
	.byte		v067
	.byte	W06
	.byte		v064
	.byte	W06
	.byte		v062
	.byte	W06
	.byte		v060
	.byte	W06
	.byte		v058
	.byte	W06
	.byte		v055
	.byte	W06
	.byte		v053
	.byte	W06
	.byte		v051
	.byte	W06
	.byte		v048
	.byte	W06
	.byte		v046
	.byte	W06
	.byte		v044
	.byte	W06
	.byte		v041
	.byte	W06
	.byte		v039
	.byte	W18
	.byte	PEND
	.byte		EOT	, En3
	.byte	PATT	
		.word	song0025_5_1
	.byte	PATT	
		.word	song0025_5_2
	.byte		EOT	, Dn3
	.byte	PATT	
		.word	song0025_5_3
	.byte	PATT	
		.word	song0025_5_4
	.byte		EOT	, En3
	.byte	PATT	
		.word	song0025_5_1
	.byte	PATT	
		.word	song0025_5_2
	.byte		EOT	, Dn3
	.byte	PATT	
		.word	song0025_5_3
	.byte	PATT	
		.word	song0025_5_4
	.byte		EOT	, En3
	.byte	PATT	
		.word	song0025_5_1
	.byte	PATT	
		.word	song0025_5_2
	.byte		EOT	, Dn3
	.byte	PATT	
		.word	song0025_5_3
	.byte	PATT	
		.word	song0025_5_4
	.byte		EOT	, En3
	.byte	W96
	.byte	W96
	.byte	W96
	.byte	W96
	.byte	W96
	.byte	W96
	.byte	W96
	.byte	W96
	.byte	PATT	
		.word	song0025_5_1
	.byte	PATT	
		.word	song0025_5_2
	.byte		EOT	, Dn3
	.byte	PATT	
		.word	song0025_5_3
	.byte	PATT	
		.word	song0025_5_4
	.byte		EOT	, En3
	.byte	PATT	
		.word	song0025_5_1
	.byte	PATT	
		.word	song0025_5_2
	.byte		EOT	, Dn3
	.byte	PATT	
		.word	song0025_5_3
	.byte	PATT	
		.word	song0025_5_4
	.byte		EOT	, En3
	.byte	W96
	.byte	W96
	.byte	W48
	.byte	W03
	.byte		N44	, Gn2, v127
	.byte	W44
	.byte		N48	, Dn3
	.byte	W01
	.byte	W48
	.byte	W01
	.byte		N44	, Gn3
	.byte	W44
	.byte	W01
	.byte		TIE	, Dn4
	.byte	W02
	.byte	W96
	.byte	W24
	.byte		EOT	
	.byte		N36	, An3
	.byte	W36
	.byte	W03
	.byte		N32	, Bn3
	.byte	W32
	.byte	W01
	.byte	W02
	.byte		N20	, Cn4
	.byte	W21
	.byte		N15	, Fn4
	.byte	W16
	.byte		N56	, Cn4, v100
	.byte	W56
	.byte	W01
	.byte	W02
	.byte		N03	, Bn3, v127
	.byte	W04
	.byte		N06	, Cn4
	.byte	W07
	.byte		N36	, An3
	.byte	W36
	.byte	W01
	.byte		N03	, Gn3
	.byte	W04
	.byte		N06	, An3
	.byte	W06
	.byte		N36	, Fn3
	.byte	W36
	.byte	W96
	.byte	W96
	.byte	W01
	.byte		N48	, As2
	.byte	W48
	.byte		N96	, Dn3
	.byte	W44
	.byte	W03
	.byte	W44
	.byte	W03
	.byte		N44	, Gn3
	.byte	W48
	.byte	W01
	.byte	W92
	.byte	W03
	.byte			Dn4
	.byte	W01
	.byte	W44
	.byte	W03
	.byte			As3
	.byte	W44
	.byte	W03
	.byte		N03	, Gs3
	.byte	W02
	.byte	W01
	.byte		N44	, An3
	.byte	W44
	.byte	W03
	.byte		N01	, Ds3
	.byte	W01
	.byte		N48	, Fn3
	.byte	W44
	.byte	W03
	.byte	W02
	.byte		N92	, Dn3
	.byte	W92
	.byte	W02
	.byte	GOTO	
		.word	song0025_5_5
	.byte	FINE

	@********************** Track  6 **********************@

	.global song0025_6
song0025_6:	@ 0x08C6A1EF
	.byte	KEYSH	, 0
song0025_6_5:
	.byte	VOICE	, 72
	.byte	MOD	, 4
	.byte	VOL	, v110
	.byte	PAN	, c_v-64
	.byte	BENDR	, 3
	.byte	LFOS	, 23
	.byte	MOD	, 4
	.byte	LFODL	, 22
	.byte	MODT	, 0
	.byte		N05	, Gn1, v127
	.byte	W06
	.byte			Gn2
	.byte	W06
	.byte			Gn3
	.byte	W06
	.byte			Gn4, v124
	.byte	W06
	.byte			Gn4, v127
	.byte	W06
	.byte			Gn3
	.byte	W06
	.byte			Gn2
	.byte	W06
	.byte			Gn1
	.byte	W06
	.byte	PAN	, c_v-64
	.byte		N05	, Gn1, v088
	.byte	W06
	.byte			Gn2
	.byte	W06
	.byte			Gn3
	.byte	W06
	.byte			Gn4, v084
	.byte	W06
	.byte			Gn4, v088
	.byte	W06
	.byte			Gn3
	.byte	W06
	.byte			Gn2
	.byte	W06
	.byte			Gn1
	.byte	W06
	.byte	W96
	.byte	PAN	, c_v+63
	.byte		N05	, Gn1, v127
	.byte	W06
	.byte			Gn2
	.byte	W06
	.byte			Gn3
	.byte	W06
	.byte			Gn4, v124
	.byte	W06
	.byte			Gn4, v127
	.byte	W06
	.byte			Gn3
	.byte	W06
	.byte			Gn2
	.byte	W06
	.byte			Gn1
	.byte	W06
	.byte	PAN	, c_v-64
	.byte		N05	, Gn1, v088
	.byte	W06
	.byte			Gn2
	.byte	W06
	.byte			Gn3
	.byte	W06
	.byte			Gn4, v084
	.byte	W06
	.byte			Gn4, v088
	.byte	W06
	.byte			Gn3
	.byte	W06
	.byte			Gn2
	.byte	W06
	.byte			Gn1
	.byte	W06
	.byte	W96
song0025_6_1:
	.byte	VOL	, v110
	.byte		TIE	, As2, v092
	.byte	W06
	.byte	VOL	, v108
	.byte	W06
	.byte		v098
	.byte	W06
	.byte		v089
	.byte	W06
	.byte		v079
	.byte	W06
	.byte		v070
	.byte	W06
	.byte		v060
	.byte	W06
	.byte		v050
	.byte	W06
	.byte		v052
	.byte	W06
	.byte		v056
	.byte	W06
	.byte		v058
	.byte	W06
	.byte		v062
	.byte	W06
	.byte		v064
	.byte	W06
	.byte		v068
	.byte	W06
	.byte		v071
	.byte	W06
	.byte		v074
	.byte	W06
	.byte	PEND
song0025_6_2:
	.byte	VOL	, v077
	.byte	W06
	.byte		v080
	.byte	W06
	.byte		v084
	.byte	W06
	.byte		v086
	.byte	W06
	.byte		v090
	.byte	W06
	.byte		v092
	.byte	W06
	.byte		v096
	.byte	W06
	.byte		v098
	.byte	W06
	.byte		v102
	.byte	W06
	.byte		v104
	.byte	W06
	.byte		v108
	.byte	W06
	.byte		v110
	.byte	W06
	.byte		v110
	.byte	W06
	.byte		v110
	.byte	W18
	.byte	PEND
	.byte		EOT	, As2
song0025_6_3:
	.byte	VOL	, v105
	.byte		TIE	, Cn3, v092
	.byte	W06
	.byte	VOL	, v103
	.byte	W06
	.byte		v101
	.byte	W06
	.byte		v099
	.byte	W06
	.byte		v097
	.byte	W06
	.byte		v094
	.byte	W06
	.byte		v092
	.byte	W06
	.byte		v090
	.byte	W06
	.byte		v087
	.byte	W06
	.byte		v085
	.byte	W06
	.byte		v083
	.byte	W06
	.byte		v080
	.byte	W06
	.byte		v078
	.byte	W06
	.byte		v076
	.byte	W06
	.byte		v073
	.byte	W06
	.byte		v071
	.byte	W06
	.byte	PEND
song0025_6_4:
	.byte	VOL	, v069
	.byte	W06
	.byte		v067
	.byte	W06
	.byte		v064
	.byte	W06
	.byte		v062
	.byte	W06
	.byte		v060
	.byte	W06
	.byte		v058
	.byte	W06
	.byte		v055
	.byte	W06
	.byte		v053
	.byte	W06
	.byte		v051
	.byte	W06
	.byte		v048
	.byte	W06
	.byte		v046
	.byte	W06
	.byte		v044
	.byte	W06
	.byte		v041
	.byte	W06
	.byte		v039
	.byte	W18
	.byte	PEND
	.byte		EOT	, Cn3
	.byte	PATT	
		.word	song0025_6_1
	.byte	PATT	
		.word	song0025_6_2
	.byte		EOT	, As2
	.byte	PATT	
		.word	song0025_6_3
	.byte	PATT	
		.word	song0025_6_4
	.byte		EOT	, Cn3
	.byte	PATT	
		.word	song0025_6_1
	.byte	PATT	
		.word	song0025_6_2
	.byte		EOT	, As2
	.byte	PATT	
		.word	song0025_6_3
	.byte	PATT	
		.word	song0025_6_4
	.byte		EOT	, Cn3
	.byte	PATT	
		.word	song0025_6_1
	.byte	PATT	
		.word	song0025_6_2
	.byte		EOT	, As2
	.byte	PATT	
		.word	song0025_6_3
	.byte	PATT	
		.word	song0025_6_4
	.byte		EOT	, Cn3
	.byte	W96
	.byte	W96
	.byte	W96
	.byte	W96
	.byte	W96
	.byte	W96
	.byte	W96
	.byte	W96
	.byte	PATT	
		.word	song0025_6_1
	.byte	PATT	
		.word	song0025_6_2
	.byte		EOT	, As2
	.byte	PATT	
		.word	song0025_6_3
	.byte	PATT	
		.word	song0025_6_4
	.byte		EOT	, Cn3
	.byte	PATT	
		.word	song0025_6_1
	.byte	PATT	
		.word	song0025_6_2
	.byte		EOT	, As2
	.byte	PATT	
		.word	song0025_6_3
	.byte	PATT	
		.word	song0025_6_4
	.byte		EOT	, Cn3
	.byte	W96
	.byte	W96
	.byte	W96
	.byte	W96
	.byte	W96
	.byte	MOD	, 8
	.byte	W24
	.byte		N36	, An3, v127
	.byte	W36
	.byte	W03
	.byte			Bn3
	.byte	W32
	.byte	W01
	.byte	W02
	.byte		N21	, Cn4
	.byte	W21
	.byte		N15	, Fn4
	.byte	W16
	.byte		N60	, Cn4, v100
	.byte	W56
	.byte	W01
	.byte	W02
	.byte		N05	, Bn3, v127
	.byte	W04
	.byte		N08	, Cn4
	.byte	W07
	.byte		N36	, An3
	.byte	W36
	.byte	W01
	.byte		N05	, Gn3
	.byte	W04
	.byte		N08	, An3
	.byte	W06
	.byte		N32	, Fn3
	.byte	W36
	.byte	W96
	.byte	W96
	.byte	W96
	.byte	W96
	.byte	W92
	.byte	W03
	.byte		N01	, Dn4
	.byte	W01
	.byte		N44	
	.byte	W44
	.byte	W03
	.byte			As3
	.byte	W44
	.byte	W03
	.byte		N03	, Gs3
	.byte	W02
	.byte	W01
	.byte		N44	, An3
	.byte	W44
	.byte	W03
	.byte		N01	, Ds3
	.byte	W01
	.byte		N48	, Fn3
	.byte	W44
	.byte	W03
	.byte	W02
	.byte		N92	, Dn3
	.byte	W92
	.byte	W02
	.byte	GOTO	
		.word	song0025_6_5
	.byte	FINE

	@********************** Track  7 **********************@

	.global song0025_7
song0025_7:	@ 0x08C6A3C1
	.byte	KEYSH	, 0
song0025_7_7:
	.byte	VOICE	, 76
	.byte	VOL	, v110
	.byte	PAN	, c_v
	.byte	BENDR	, 13
	.byte	LFOS	, 18
	.byte	LFODL	, 20
	.byte	MOD	, 0
	.byte	MODT	, 0
	.byte	BEND	, c_v
	.byte	W96
	.byte	W96
	.byte	W96
	.byte	W96
song0025_7_1:
	.byte	VOL	, v110
	.byte		TIE	, As2, v080
	.byte		TIE	, Dn3, v088
	.byte	W06
	.byte	VOL	, v108
	.byte	W06
	.byte		v098
	.byte	W06
	.byte		v089
	.byte	W06
	.byte		v079
	.byte	W06
	.byte		v070
	.byte	W06
	.byte		v060
	.byte	W06
	.byte		v050
	.byte	W06
	.byte		v052
	.byte	W06
	.byte		v056
	.byte	W06
	.byte		v058
	.byte	W06
	.byte		v062
	.byte	W06
	.byte		v064
	.byte	W06
	.byte		v068
	.byte	W06
	.byte		v071
	.byte	W06
	.byte		v074
	.byte	W06
	.byte	PEND
song0025_7_2:
	.byte	VOL	, v077
	.byte	W06
	.byte		v080
	.byte	W06
	.byte		v084
	.byte	W06
	.byte		v086
	.byte	W06
	.byte		v090
	.byte	W06
	.byte		v092
	.byte	W06
	.byte		v096
	.byte	W06
	.byte		v098
	.byte	W06
	.byte		v102
	.byte	W06
	.byte		v104
	.byte	W06
	.byte		v108
	.byte	W06
	.byte		v110
	.byte	W06
	.byte		v110
	.byte	W06
	.byte		v110
	.byte	W18
	.byte	PEND
	.byte		EOT	, As2
	.byte			Dn3
song0025_7_3:
	.byte	VOL	, v105
	.byte		TIE	, Cn3, v080
	.byte		TIE	, En3, v088
	.byte	W06
	.byte	VOL	, v103
	.byte	W06
	.byte		v101
	.byte	W06
	.byte		v099
	.byte	W06
	.byte		v097
	.byte	W06
	.byte		v094
	.byte	W06
	.byte		v092
	.byte	W06
	.byte		v090
	.byte	W06
	.byte		v087
	.byte	W06
	.byte		v085
	.byte	W06
	.byte		v083
	.byte	W06
	.byte		v080
	.byte	W06
	.byte		v078
	.byte	W06
	.byte		v076
	.byte	W06
	.byte		v073
	.byte	W06
	.byte		v071
	.byte	W06
	.byte	PEND
song0025_7_4:
	.byte	VOL	, v069
	.byte	W06
	.byte		v067
	.byte	W06
	.byte		v064
	.byte	W06
	.byte		v062
	.byte	W06
	.byte		v060
	.byte	W06
	.byte		v058
	.byte	W06
	.byte		v055
	.byte	W06
	.byte		v053
	.byte	W06
	.byte		v051
	.byte	W06
	.byte		v048
	.byte	W06
	.byte		v046
	.byte	W06
	.byte		v044
	.byte	W06
	.byte		v041
	.byte	W06
	.byte		v039
	.byte	W18
	.byte	PEND
	.byte		EOT	, Cn3
	.byte			En3
	.byte	PATT	
		.word	song0025_7_1
	.byte	PATT	
		.word	song0025_7_2
	.byte		EOT	, As2
	.byte			Dn3
	.byte	PATT	
		.word	song0025_7_3
	.byte	PATT	
		.word	song0025_7_4
	.byte		EOT	, Cn3
	.byte			En3
	.byte	VOL	, v110
	.byte	W96
	.byte	W96
	.byte	W96
	.byte	W96
	.byte	W96
	.byte	W96
	.byte	W96
	.byte	W96
	.byte		N96	, As2, v116
	.byte	W92
	.byte	W02
	.byte		N48	, An2, v104
	.byte	W02
	.byte	W44
	.byte	W02
	.byte			As2
	.byte	W48
	.byte	W01
	.byte		TIE	, Cn3, v108
	.byte	W01
	.byte	W92
	.byte	W02
	.byte		N48	, Dn3
	.byte	W02
	.byte		EOT	, Cn3
	.byte	W44
	.byte	W03
	.byte		N48	, En3, v116
	.byte	W48
	.byte	W01
	.byte		N96	, As2, v104
	.byte	W92
	.byte	W03
	.byte		N48	, An2, v096
	.byte	W01
	.byte	W44
	.byte	W02
	.byte		N44	, As2, v108
	.byte	W44
	.byte	W03
	.byte		TIE	, Cn3, v104
	.byte	W03
	.byte	W92
	.byte	W03
	.byte		N48	, Dn3, v108
	.byte	W01
	.byte	W01
	.byte		EOT	, Cn3
	.byte	W44
	.byte	W02
	.byte		N48	, En3, v104
	.byte	W48
	.byte	W01
	.byte	W48
	.byte		N44	, Gn3, v120
	.byte	W48
song0025_7_5:
	.byte		N44	, An3, v088
	.byte	W48
	.byte		N92	, As3, v080
	.byte	W48
	.byte	PEND
	.byte	W48
	.byte		N44	, Cn4, v096
	.byte	W48
song0025_7_6:
	.byte		N44	, Dn4, v096
	.byte	W48
	.byte		N48	, En4, v092
	.byte	W48
	.byte	PEND
	.byte	W48
	.byte		N44	, Gn3, v120
	.byte	W48
	.byte	PATT	
		.word	song0025_7_5
	.byte	W48
	.byte		N44	, Cn4, v096
	.byte	W48
	.byte	PATT	
		.word	song0025_7_6
	.byte		N90	, Dn4, v092
	.byte	W96
	.byte	W96
	.byte	W48
	.byte	W03
	.byte		N44	, Gn2, v127
	.byte	W44
	.byte		N48	, Dn3
	.byte	W01
	.byte	W48
	.byte	W01
	.byte		N44	, Gn3
	.byte	W44
	.byte	W01
	.byte		TIE	, Dn4
	.byte	W02
	.byte	W96
	.byte	W22
	.byte		EOT	
	.byte	W02
	.byte		N36	, An3
	.byte	W36
	.byte	W03
	.byte			Bn3
	.byte	W32
	.byte	W01
	.byte	W02
	.byte		N21	, Cn4
	.byte	W21
	.byte		N15	, Fn4
	.byte	W16
	.byte		N60	, Cn4, v100
	.byte	W56
	.byte	W01
	.byte	W02
	.byte		N05	, Bn3, v127
	.byte	W04
	.byte		N08	, Cn4
	.byte	W07
	.byte		N36	, An3
	.byte	W36
	.byte	W01
	.byte		N05	, Gn3
	.byte	W04
	.byte		N08	, An3
	.byte	W06
	.byte		N32	, Fn3
	.byte	W36
	.byte	W96
	.byte	W96
	.byte	W01
	.byte		N48	, As2
	.byte	W48
	.byte		N92	, Dn3
	.byte	W44
	.byte	W03
	.byte	W44
	.byte	W03
	.byte		TIE	, Gn3
	.byte	W48
	.byte	W01
	.byte	W80
	.byte	W01
	.byte		EOT	
	.byte	W14
	.byte		N44	, Dn4
	.byte	W01
	.byte	W44
	.byte	W03
	.byte			As3
	.byte	W44
	.byte	W03
	.byte		N03	, Gs3
	.byte	W02
	.byte	W01
	.byte		N44	, An3
	.byte	W44
	.byte	W03
	.byte		N01	, Ds3
	.byte	W01
	.byte		N48	, Fn3
	.byte	W44
	.byte	W03
	.byte	W02
	.byte		N92	, Dn3
	.byte	W92
	.byte	W02
	.byte	GOTO	
		.word	song0025_7_7
	.byte	FINE

	@********************** Track  8 **********************@

	.global song0025_8
song0025_8:	@ 0x08C6A57E
	.byte	KEYSH	, 0
song0025_8_5:
	.byte	VOICE	, 77
	.byte	VOL	, v103
	.byte	PAN	, c_v+63
	.byte	MOD	, 0
	.byte		N05	, Gn2, v127
	.byte	W06
	.byte			Gn3
	.byte	W06
	.byte			Gn4
	.byte	W06
	.byte			Gn5, v124
	.byte	W06
	.byte			Gn5, v127
	.byte	W06
	.byte			Gn4
	.byte	W06
	.byte			Gn3
	.byte	W06
	.byte			Gn2
	.byte	W06
	.byte	PAN	, c_v-64
	.byte		N05	, Gn2, v088
	.byte	W06
	.byte			Gn3
	.byte	W06
	.byte			Gn4
	.byte	W06
	.byte			Gn5, v084
	.byte	W06
	.byte			Gn5, v088
	.byte	W06
	.byte			Gn4
	.byte	W06
	.byte			Gn3
	.byte	W06
	.byte			Gn2
	.byte	W06
	.byte	W96
song0025_8_4:
	.byte	PAN	, c_v+63
	.byte		N05	, Gn2, v127
	.byte	W06
	.byte			Gn3
	.byte	W06
	.byte			Gn4
	.byte	W06
	.byte			Gn5, v124
	.byte	W06
	.byte			Gn5, v127
	.byte	W06
	.byte			Gn4
	.byte	W06
	.byte			Gn3
	.byte	W06
	.byte			Gn2
	.byte	W06
	.byte	PAN	, c_v-64
	.byte		N05	, Gn2, v088
	.byte	W06
	.byte			Gn3
	.byte	W06
	.byte			Gn4
	.byte	W06
	.byte			Gn5, v084
	.byte	W06
	.byte			Gn5, v088
	.byte	W06
	.byte			Gn4
	.byte	W06
	.byte			Gn3
	.byte	W06
	.byte			Gn2
	.byte	W06
	.byte	PEND
	.byte	W96
	.byte	W96
	.byte	W96
	.byte	W96
	.byte	W96
	.byte	W96
	.byte	W96
	.byte	W96
	.byte	W96
	.byte	W96
	.byte	W96
	.byte	W96
	.byte	W96
	.byte	W96
	.byte	W96
	.byte	W96
	.byte	PAN	, c_v+63
	.byte	W96
	.byte	VOL	, v054
	.byte	W06
	.byte		v058
	.byte	W06
	.byte		v061
	.byte	W06
	.byte		v064
	.byte	W06
	.byte		v068
	.byte		N05	, As3, v080
	.byte	W06
	.byte	VOL	, v071
	.byte		N05	, Fn3
	.byte	W06
	.byte	VOL	, v075
	.byte		N05	, As3
	.byte	W06
	.byte	VOL	, v078
	.byte		N05	, Fn3
	.byte	W06
	.byte	VOL	, v082
	.byte		N05	, Dn4
	.byte	W06
	.byte	VOL	, v085
	.byte		N05	, As3
	.byte	W06
	.byte	VOL	, v089
	.byte		N05	, Dn4
	.byte	W06
	.byte	VOL	, v092
	.byte		N05	, As3
	.byte	W06
	.byte	VOL	, v096
	.byte		N05	, Fn4
	.byte	W06
	.byte	VOL	, v099
	.byte		N05	, Dn4
	.byte	W06
	.byte	VOL	, v103
	.byte		N05	, Fn4
	.byte	W06
	.byte	VOL	, v106
	.byte		N05	, Dn4
	.byte	W06
song0025_8_1:
	.byte	VOL	, v110
	.byte		N05	, As4, v080
	.byte	W06
	.byte	VOL	, v107
	.byte		N05	, Fn4
	.byte	W06
	.byte	VOL	, v103
	.byte		N05	, As4
	.byte	W06
	.byte	VOL	, v100
	.byte		N05	, Fn4
	.byte	W06
	.byte	VOL	, v097
	.byte		N05	, Dn5
	.byte	W06
	.byte	VOL	, v094
	.byte		N05	, As4
	.byte	W06
	.byte	VOL	, v090
	.byte		N05	, Dn5
	.byte	W06
	.byte	VOL	, v088
	.byte		N05	, As4
	.byte	W06
	.byte	VOL	, v084
	.byte		N05	, Fn5
	.byte	W06
	.byte	VOL	, v081
	.byte		N05	, Dn5
	.byte	W06
	.byte	VOL	, v078
	.byte		N05	, Fn5
	.byte	W06
	.byte	VOL	, v075
	.byte		N05	, Dn5
	.byte	W06
	.byte	VOL	, v071
	.byte		N05	, As5
	.byte	W06
	.byte	VOL	, v069
	.byte		N05	, Fn5
	.byte	W06
	.byte	VOL	, v065
	.byte		N05	, As5
	.byte	W06
	.byte	VOL	, v062
	.byte		N05	, Fn5
	.byte	W06
	.byte	PEND
song0025_8_2:
	.byte	VOL	, v054
	.byte		N05	, As5, v060
	.byte	W06
	.byte	VOL	, v058
	.byte		N05	, Fn5
	.byte	W06
	.byte	VOL	, v061
	.byte		N05	, As5
	.byte	W06
	.byte	VOL	, v064
	.byte		N05	, Fn5
	.byte	W06
	.byte	VOL	, v068
	.byte		N05	, Cn4, v080
	.byte	W06
	.byte	VOL	, v071
	.byte		N05	, Gn3
	.byte	W06
	.byte	VOL	, v075
	.byte		N05	, Cn4
	.byte	W06
	.byte	VOL	, v078
	.byte		N05	, Gn3
	.byte	W06
	.byte	VOL	, v082
	.byte		N05	, En4
	.byte	W06
	.byte	VOL	, v085
	.byte		N05	, Cn4
	.byte	W06
	.byte	VOL	, v089
	.byte		N05	, En4
	.byte	W06
	.byte	VOL	, v092
	.byte		N05	, Cn4
	.byte	W06
	.byte	VOL	, v096
	.byte		N05	, Gn4
	.byte	W06
	.byte	VOL	, v099
	.byte		N05	, En4
	.byte	W06
	.byte	VOL	, v103
	.byte		N05	, Gn4
	.byte	W06
	.byte	VOL	, v106
	.byte		N05	, En4
	.byte	W06
	.byte	PEND
song0025_8_3:
	.byte	VOL	, v110
	.byte		N05	, Cn5, v080
	.byte	W06
	.byte	VOL	, v107
	.byte		N05	, Gn4
	.byte	W06
	.byte	VOL	, v103
	.byte		N05	, Cn5
	.byte	W06
	.byte	VOL	, v100
	.byte		N05	, Gn4
	.byte	W06
	.byte	VOL	, v097
	.byte		N05	, En5
	.byte	W06
	.byte	VOL	, v094
	.byte		N05	, Cn5
	.byte	W06
	.byte	VOL	, v090
	.byte		N05	, En5
	.byte	W06
	.byte	VOL	, v088
	.byte		N05	, Cn5
	.byte	W06
	.byte	VOL	, v084
	.byte		N05	, Gn5
	.byte	W06
	.byte	VOL	, v081
	.byte		N05	, En5
	.byte	W06
	.byte	VOL	, v078
	.byte		N05	, Gn5
	.byte	W06
	.byte	VOL	, v075
	.byte		N05	, En5
	.byte	W06
	.byte	VOL	, v071
	.byte		N05	, Cn6
	.byte	W06
	.byte	VOL	, v069
	.byte		N05	, Gn5
	.byte	W06
	.byte	VOL	, v065
	.byte		N05	, Cn6
	.byte	W06
	.byte	VOL	, v062
	.byte		N05	, Gn5
	.byte	W06
	.byte	PEND
	.byte	VOL	, v054
	.byte		N05	, Cn6, v056
	.byte	W06
	.byte	VOL	, v058
	.byte		N05	, Gn5
	.byte	W06
	.byte	VOL	, v061
	.byte		N05	, Cn6
	.byte	W06
	.byte	VOL	, v064
	.byte		N05	, Gn5
	.byte	W06
	.byte	VOL	, v068
	.byte		N05	, As3, v080
	.byte	W06
	.byte	VOL	, v071
	.byte		N05	, Fn3
	.byte	W06
	.byte	VOL	, v075
	.byte		N05	, As3
	.byte	W06
	.byte	VOL	, v078
	.byte		N05	, Fn3
	.byte	W06
	.byte	VOL	, v082
	.byte		N05	, Dn4
	.byte	W06
	.byte	VOL	, v085
	.byte		N05	, As3
	.byte	W06
	.byte	VOL	, v089
	.byte		N05	, Dn4
	.byte	W06
	.byte	VOL	, v092
	.byte		N05	, As3
	.byte	W06
	.byte	VOL	, v096
	.byte		N05	, Fn4
	.byte	W06
	.byte	VOL	, v099
	.byte		N05	, Dn4
	.byte	W06
	.byte	VOL	, v103
	.byte		N05	, Fn4
	.byte	W06
	.byte	VOL	, v106
	.byte		N05	, Dn4
	.byte	W06
	.byte	PATT	
		.word	song0025_8_1
	.byte	PATT	
		.word	song0025_8_2
	.byte	PATT	
		.word	song0025_8_3
	.byte		N05	, Cn6, v052
	.byte	W06
	.byte			Gn5
	.byte	W06
	.byte			Cn6
	.byte	W06
	.byte			Gn5
	.byte	W78
	.byte	W96
	.byte	W96
	.byte	W96
	.byte	W96
	.byte	W96
	.byte	W96
	.byte	W96
	.byte	PATT	
		.word	song0025_8_4
	.byte	W96
	.byte	PAN	, c_v+63
	.byte		N05	, Gn2, v127
	.byte	W06
	.byte			Gn3
	.byte	W06
	.byte			Gn4
	.byte	W06
	.byte			Gn5, v124
	.byte	W06
	.byte			Gn5, v127
	.byte	W06
	.byte			Gn4
	.byte	W06
	.byte			Gn3
	.byte	W06
	.byte			Gn2
	.byte	W54
	.byte	W96
	.byte	W96
	.byte	W96
	.byte	W96
	.byte	W96
	.byte	PATT	
		.word	song0025_8_4
	.byte	W96
	.byte	W96
	.byte	W96
	.byte	PATT	
		.word	song0025_8_4
	.byte	W96
	.byte	W96
	.byte	W96
	.byte	GOTO	
		.word	song0025_8_5
	.byte	FINE

	@********************** Track  9 **********************@

	.global song0025_9
song0025_9:	@ 0x08C6A7D8
	.byte	KEYSH	, 0
song0025_9_5:
	.byte	VOICE	, 78
	.byte	VOL	, v103
	.byte	PAN	, c_v-62
	.byte	MOD	, 0
	.byte	W96
	.byte	W96
	.byte	W96
	.byte	W96
	.byte	W96
	.byte	W96
	.byte	W96
	.byte	W96
	.byte	W96
	.byte	W96
	.byte	W96
	.byte	W96
	.byte	W96
	.byte	W96
	.byte	W96
	.byte	W96
	.byte	W96
	.byte	W96
	.byte	W96
	.byte	W96
	.byte	VOL	, v054
	.byte	W06
	.byte		v058
	.byte	W06
	.byte		v061
	.byte	W06
	.byte		v064
	.byte	W06
	.byte		v068
	.byte	W02
	.byte		N05	, Fn3, v080
	.byte	W04
	.byte	VOL	, v071
	.byte	W02
	.byte		N05	, Dn3
	.byte	W04
	.byte	VOL	, v075
	.byte	W02
	.byte		N05	, Fn3
	.byte	W04
	.byte	VOL	, v078
	.byte	W02
	.byte		N05	, Dn3
	.byte	W04
	.byte	VOL	, v082
	.byte	W02
	.byte		N05	, As3
	.byte	W04
	.byte	VOL	, v085
	.byte	W02
	.byte		N05	, Fn3
	.byte	W04
	.byte	VOL	, v089
	.byte	W02
	.byte		N05	, As3
	.byte	W04
	.byte	VOL	, v092
	.byte	W02
	.byte		N05	, Fn3
	.byte	W04
	.byte	VOL	, v096
	.byte	W02
	.byte		N05	, Dn4
	.byte	W04
	.byte	VOL	, v099
	.byte	W02
	.byte		N05	, As3
	.byte	W04
	.byte	VOL	, v103
	.byte	W02
	.byte		N05	, Dn4
	.byte	W04
	.byte	VOL	, v106
	.byte	W02
	.byte		N05	, As3
	.byte	W04
song0025_9_1:
	.byte	VOL	, v110
	.byte	W02
	.byte		N05	, Fn4, v080
	.byte	W04
	.byte	VOL	, v107
	.byte	W02
	.byte		N05	, Dn4
	.byte	W04
	.byte	VOL	, v103
	.byte	W02
	.byte		N05	, Fn4
	.byte	W04
	.byte	VOL	, v100
	.byte	W02
	.byte		N05	, Dn4
	.byte	W04
	.byte	VOL	, v097
	.byte	W02
	.byte		N05	, As4
	.byte	W04
	.byte	VOL	, v094
	.byte	W02
	.byte		N05	, Fn4
	.byte	W04
	.byte	VOL	, v090
	.byte	W02
	.byte		N05	, As4
	.byte	W04
	.byte	VOL	, v088
	.byte	W02
	.byte		N05	, Fn4
	.byte	W04
	.byte	VOL	, v084
	.byte	W02
	.byte		N05	, Dn5
	.byte	W04
	.byte	VOL	, v081
	.byte	W02
	.byte		N05	, As4
	.byte	W04
	.byte	VOL	, v078
	.byte	W02
	.byte		N05	, Dn5
	.byte	W04
	.byte	VOL	, v075
	.byte	W02
	.byte		N05	, As4
	.byte	W04
	.byte	VOL	, v071
	.byte	W02
	.byte		N05	, Fn5
	.byte	W04
	.byte	VOL	, v069
	.byte	W02
	.byte		N05	, Dn5
	.byte	W04
	.byte	VOL	, v065
	.byte	W02
	.byte		N05	, Fn5
	.byte	W04
	.byte	VOL	, v062
	.byte	W02
	.byte		N05	, Dn5
	.byte	W04
	.byte	PEND
song0025_9_2:
	.byte	VOL	, v054
	.byte	W02
	.byte		N05	, Fn5, v056
	.byte	W04
	.byte	VOL	, v058
	.byte	W02
	.byte		N05	, Dn5
	.byte	W04
	.byte	VOL	, v061
	.byte	W02
	.byte		N05	, Fn5
	.byte	W04
	.byte	VOL	, v064
	.byte	W02
	.byte		N05	, Dn5
	.byte	W04
	.byte	VOL	, v068
	.byte	W02
	.byte		N05	, Gn3, v080
	.byte	W04
	.byte	VOL	, v071
	.byte	W02
	.byte		N05	, En3
	.byte	W04
	.byte	VOL	, v075
	.byte	W02
	.byte		N05	, Gn3
	.byte	W04
	.byte	VOL	, v078
	.byte	W02
	.byte		N05	, En3
	.byte	W04
	.byte	VOL	, v082
	.byte	W02
	.byte		N05	, Cn4
	.byte	W04
	.byte	VOL	, v085
	.byte	W02
	.byte		N05	, Gn3
	.byte	W04
	.byte	VOL	, v089
	.byte	W02
	.byte		N05	, Cn4
	.byte	W04
	.byte	VOL	, v092
	.byte	W02
	.byte		N05	, Gn3
	.byte	W04
	.byte	VOL	, v096
	.byte	W02
	.byte		N05	, En4
	.byte	W04
	.byte	VOL	, v099
	.byte	W02
	.byte		N05	, Cn4
	.byte	W04
	.byte	VOL	, v103
	.byte	W02
	.byte		N05	, En4
	.byte	W04
	.byte	VOL	, v106
	.byte	W02
	.byte		N05	, Cn4
	.byte	W04
	.byte	PEND
song0025_9_3:
	.byte	VOL	, v110
	.byte	W02
	.byte		N05	, Gn4, v080
	.byte	W04
	.byte	VOL	, v107
	.byte	W02
	.byte		N05	, En4
	.byte	W04
	.byte	VOL	, v103
	.byte	W02
	.byte		N05	, Gn4
	.byte	W04
	.byte	VOL	, v100
	.byte	W02
	.byte		N05	, En4
	.byte	W04
	.byte	VOL	, v097
	.byte	W02
	.byte		N05	, Cn5
	.byte	W04
	.byte	VOL	, v094
	.byte	W02
	.byte		N05	, Gn4
	.byte	W04
	.byte	VOL	, v090
	.byte	W02
	.byte		N05	, Cn5
	.byte	W04
	.byte	VOL	, v088
	.byte	W02
	.byte		N05	, Gn4
	.byte	W04
	.byte	VOL	, v084
	.byte	W02
	.byte		N05	, En5
	.byte	W04
	.byte	VOL	, v081
	.byte	W02
	.byte		N05	, Cn5
	.byte	W04
	.byte	VOL	, v078
	.byte	W02
	.byte		N05	, En5
	.byte	W04
	.byte	VOL	, v075
	.byte	W02
	.byte		N05	, Cn5
	.byte	W04
	.byte	VOL	, v071
	.byte	W02
	.byte		N05	, Gn5
	.byte	W04
	.byte	VOL	, v069
	.byte	W02
	.byte		N05	, En5
	.byte	W04
	.byte	VOL	, v065
	.byte	W02
	.byte		N05	, Gn5
	.byte	W04
	.byte	VOL	, v062
	.byte	W02
	.byte		N05	, En5
	.byte	W04
	.byte	PEND
	.byte	VOL	, v054
	.byte	W02
	.byte		N05	, Gn5, v052
	.byte	W04
	.byte	VOL	, v058
	.byte	W02
	.byte		N05	, En5
	.byte	W04
	.byte	VOL	, v061
	.byte	W02
	.byte		N05	, Gn5
	.byte	W04
	.byte	VOL	, v064
	.byte	W02
	.byte		N05	, En5
	.byte	W04
	.byte	VOL	, v068
	.byte	W02
	.byte		N05	, Fn3, v080
	.byte	W04
	.byte	VOL	, v071
	.byte	W02
	.byte		N05	, Dn3
	.byte	W04
	.byte	VOL	, v075
	.byte	W02
	.byte		N05	, Fn3
	.byte	W04
	.byte	VOL	, v078
	.byte	W02
	.byte		N05	, Dn3
	.byte	W04
	.byte	VOL	, v082
	.byte	W02
	.byte		N05	, As3
	.byte	W04
	.byte	VOL	, v085
	.byte	W02
	.byte		N05	, Fn3
	.byte	W04
	.byte	VOL	, v089
	.byte	W02
	.byte		N05	, As3
	.byte	W04
	.byte	VOL	, v092
	.byte	W02
	.byte		N05	, Fn3
	.byte	W04
	.byte	VOL	, v096
	.byte	W02
	.byte		N05	, Dn4
	.byte	W04
	.byte	VOL	, v099
	.byte	W02
	.byte		N05	, As3
	.byte	W04
	.byte	VOL	, v103
	.byte	W02
	.byte		N05	, Dn4
	.byte	W04
	.byte	VOL	, v106
	.byte	W02
	.byte		N05	, As3
	.byte	W04
	.byte	PATT	
		.word	song0025_9_1
	.byte	PATT	
		.word	song0025_9_2
	.byte	PATT	
		.word	song0025_9_3
	.byte	W02
	.byte		N05	, Gn5, v052
	.byte	W06
	.byte			En5
	.byte	W06
	.byte			Gn5
	.byte	W06
	.byte			En5
	.byte	W76
	.byte	W96
	.byte	W96
	.byte	W96
	.byte	W96
	.byte	W96
	.byte	W96
	.byte	W96
song0025_9_4:
	.byte		N05	, Gn1, v127
	.byte	W06
	.byte		N05	
	.byte	W06
	.byte			An1
	.byte	W06
	.byte		N05	
	.byte	W06
	.byte			As1
	.byte	W06
	.byte			Cn2
	.byte	W06
	.byte			Gn1
	.byte	W06
	.byte		N05	
	.byte	W06
	.byte		N05	
	.byte	W06
	.byte		N05	
	.byte	W06
	.byte			An1
	.byte	W06
	.byte		N05	
	.byte	W06
	.byte			As1
	.byte	W06
	.byte			Cn2
	.byte	W06
	.byte			Gn1
	.byte	W06
	.byte		N06	
	.byte	W06
	.byte	PEND
	.byte	PATT	
		.word	song0025_9_4
	.byte	PATT	
		.word	song0025_9_4
	.byte	PATT	
		.word	song0025_9_4
	.byte	PATT	
		.word	song0025_9_4
	.byte	W96
	.byte	W96
	.byte	W96
	.byte	PATT	
		.word	song0025_9_4
	.byte	PATT	
		.word	song0025_9_4
	.byte	PATT	
		.word	song0025_9_4
	.byte	PATT	
		.word	song0025_9_4
	.byte	PATT	
		.word	song0025_9_4
	.byte	W96
	.byte	W96
	.byte	W96
	.byte	GOTO	
		.word	song0025_9_5
	.byte	FINE

	@********************** Track  10 **********************@

	.global song0025_10
song0025_10:	@ 0x08C6AA4D
	.byte	KEYSH	, 0
song0025_10_4:
	.byte	VOICE	, 75
	.byte	VOL	, v069
	.byte	PAN	, c_v
	.byte	BENDR	, 3
	.byte	LFOS	, 56
	.byte	LFODL	, 0
	.byte	MOD	, 0
	.byte	MODT	, 2
	.byte	W96
	.byte	W96
	.byte	W96
	.byte	W96
song0025_10_1:
	.byte		N05	, Gn2, v127
	.byte	W06
	.byte			Dn3
	.byte	W06
	.byte			Gn3
	.byte	W06
	.byte			Dn4
	.byte	W06
	.byte			Gn4
	.byte	W06
	.byte			Dn5
	.byte	W06
	.byte			Gn5
	.byte	W06
	.byte		N05	
	.byte	W06
	.byte			Dn5
	.byte	W06
	.byte			Gn4
	.byte	W06
	.byte			Dn4
	.byte	W06
	.byte			Gn3
	.byte	W06
	.byte			Dn3
	.byte	W06
	.byte			Gn2
	.byte	W06
	.byte		N05	
	.byte	W06
	.byte			Dn3
	.byte	W06
	.byte	PEND
song0025_10_2:
	.byte		N05	, Gn3, v127
	.byte	W06
	.byte			Dn4
	.byte	W06
	.byte			Gn4
	.byte	W06
	.byte			Dn5
	.byte	W06
	.byte			Gn5
	.byte	W06
	.byte		N05	
	.byte	W06
	.byte			Dn5
	.byte	W06
	.byte			Gn4
	.byte	W06
	.byte			Dn4
	.byte	W06
	.byte			Gn3
	.byte	W06
	.byte			Dn3
	.byte	W06
	.byte			Gn2
	.byte	W06
	.byte		N05	
	.byte	W06
	.byte			As2
	.byte	W06
	.byte			Gn3
	.byte	W06
	.byte			As3
	.byte	W06
	.byte	PEND
song0025_10_3:
	.byte		N05	, Gn2, v127
	.byte	W06
	.byte			As2, v120
	.byte	W06
	.byte			Gn3, v112
	.byte	W06
	.byte			As3, v104
	.byte	W06
	.byte			Gn2, v096
	.byte	W06
	.byte			As2, v088
	.byte	W06
	.byte			Gn3, v080
	.byte	W06
	.byte			As3, v072
	.byte	W06
	.byte			Gn2, v064
	.byte	W06
	.byte			As2, v060
	.byte	W06
	.byte			Gn3, v052
	.byte	W06
	.byte			As3, v044
	.byte	W06
	.byte			Gn2, v036
	.byte	W06
	.byte			As2, v028
	.byte	W06
	.byte			Gn3, v020
	.byte	W06
	.byte			As3, v012
	.byte	W06
	.byte	PEND
	.byte	W96
	.byte	PATT	
		.word	song0025_10_1
	.byte	PATT	
		.word	song0025_10_2
	.byte	PATT	
		.word	song0025_10_3
	.byte	W96
	.byte	W96
	.byte	W96
	.byte	W96
	.byte	W96
	.byte		N05	, Gn3, v108
	.byte	W06
	.byte			Dn4
	.byte	W06
	.byte			Gn4
	.byte	W06
	.byte			Dn5
	.byte	W06
	.byte			Gn5
	.byte	W06
	.byte		N05	
	.byte	W06
	.byte			Dn5
	.byte	W06
	.byte			Gn4
	.byte	W06
	.byte			Dn4
	.byte	W06
	.byte			Gn3
	.byte	W06
	.byte		N05	
	.byte	W06
	.byte			Dn4
	.byte	W06
	.byte			Gn4
	.byte	W06
	.byte			Dn5
	.byte	W06
	.byte			Gn5
	.byte	W06
	.byte		N05	
	.byte	W06
	.byte			Dn5
	.byte	W06
	.byte			Gn4
	.byte	W06
	.byte			Dn4
	.byte	W06
	.byte			Gn3
	.byte	W06
	.byte			Gn3, v104
	.byte	W06
	.byte			Dn4, v096
	.byte	W06
	.byte			Gn4, v088
	.byte	W06
	.byte			Dn5, v076
	.byte	W06
	.byte			Gn3, v068
	.byte	W06
	.byte			Dn4, v060
	.byte	W06
	.byte			Gn4, v048
	.byte	W06
	.byte			Dn5, v040
	.byte	W06
	.byte			Gn3, v032
	.byte	W06
	.byte			Dn4, v020
	.byte	W06
	.byte			Gn4, v012
	.byte	W06
	.byte			Dn5, v004
	.byte	W06
	.byte	W96
	.byte	W96
	.byte	W96
	.byte	W96
	.byte	W96
	.byte	W96
	.byte	W96
	.byte	W96
	.byte	W96
	.byte	W96
	.byte	W96
	.byte	W96
	.byte	W96
	.byte	W96
	.byte	W96
	.byte	W96
	.byte	W96
	.byte	W96
	.byte	W96
	.byte	W96
	.byte	W96
	.byte	W96
	.byte	W96
	.byte	W96
	.byte	W96
	.byte	W96
	.byte	W96
	.byte	W96
	.byte	W96
	.byte	W96
	.byte	W96
	.byte	W96
	.byte	W96
	.byte	W96
	.byte	GOTO	
		.word	song0025_10_4
	.byte	FINE

	@********************** Track  11 **********************@

	.global song0025_11
song0025_11:	@ 0x08C6AB66
	.byte	KEYSH	, 0
song0025_11_1:
	.byte	VOICE	, 79
	.byte	VOL	, v069
	.byte	PAN	, c_v
	.byte	BENDR	, 3
	.byte	LFOS	, 56
	.byte	LFODL	, 0
	.byte	MOD	, 0
	.byte	MODT	, 2
	.byte		N92	, Gn2, v127
	.byte	W96
	.byte	W96
	.byte	W96
	.byte	W96
	.byte		N92	
	.byte	W96
	.byte	W96
	.byte	W96
	.byte	W96
	.byte		N92	
	.byte	W96
	.byte	W96
	.byte	W96
	.byte	W96
	.byte		N92	
	.byte	W96
	.byte	W96
	.byte	W96
	.byte	W96
	.byte	W96
	.byte	W96
	.byte	W96
	.byte	W96
	.byte	W96
	.byte	W96
	.byte	W96
	.byte	W96
	.byte	W96
	.byte	W96
	.byte	W96
	.byte	W96
	.byte		N92	
	.byte	W96
	.byte	W96
	.byte	W96
	.byte	W96
	.byte	W96
	.byte	W96
	.byte	W96
	.byte	W96
	.byte		N92	
	.byte	W96
	.byte	W96
	.byte	W96
	.byte	W96
	.byte	W96
	.byte	W96
	.byte	W96
	.byte	W96
	.byte	W96
	.byte	W96
	.byte	W96
	.byte	W96
	.byte	W96
	.byte	W96
	.byte	W96
	.byte	W96
	.byte	GOTO	
		.word	song0025_11_1
	.byte	FINE

	.align 2
	.global song0025
song0025:	@ 0x08C6ABBC
	.byte	11		@ trackCount
	.byte	0		@ blockCount
	.byte	0		@ priority
	.byte	128		@ reverb

	.word	voicegroup013		@ voicegroup/tone

	.word	song0025_1		@ track
	.word	song0025_2		@ track
	.word	song0025_3		@ track
	.word	song0025_4		@ track
	.word	song0025_5		@ track
	.word	song0025_6		@ track
	.word	song0025_7		@ track
	.word	song0025_8		@ track
	.word	song0025_9		@ track
	.word	song0025_10		@ track
	.word	song0025_11		@ track
