	.include "MPlayDef.s"

	.section .rodata

	@********************** Track  1 **********************@

	.align 2
	.global song0015_1
song0015_1:	@ 0x08C5949C
	.byte	KEYSH	, 0
	.byte	TEMPO	, 78
	.byte	VOICE	, 68
	.byte	VOL	, v094
	.byte	PAN	, c_v
	.byte	W03
song0015_1_1:
	.byte		N05	, An1, v120
	.byte	W06
	.byte			An2
	.byte	W06
	.byte			An1
	.byte	W06
	.byte		N05	
	.byte	W06
	.byte		N05	
	.byte	W06
	.byte			An2
	.byte	W06
	.byte			An1
	.byte	W06
	.byte		N05	
	.byte	W06
	.byte		N05	
	.byte	W06
	.byte			An2
	.byte	W06
	.byte			An1
	.byte	W06
	.byte		N05	
	.byte	W06
	.byte		N05	
	.byte	W06
	.byte			An2
	.byte	W06
	.byte			An1
	.byte	W06
	.byte		N05	
	.byte	W06
	.byte	PEND
	.byte	PATT	
		.word	song0015_1_1
	.byte	PATT	
		.word	song0015_1_1
	.byte	PATT	
		.word	song0015_1_1
	.byte	PATT	
		.word	song0015_1_1
song0015_1_7:
	.byte	PATT	
		.word	song0015_1_1
	.byte	PATT	
		.word	song0015_1_1
	.byte	PATT	
		.word	song0015_1_1
	.byte	PATT	
		.word	song0015_1_1
	.byte	PATT	
		.word	song0015_1_1
song0015_1_2:
	.byte		N05	, Gn1, v120
	.byte	W06
	.byte			Gn2
	.byte	W06
	.byte			Gn1
	.byte	W06
	.byte		N05	
	.byte	W06
	.byte		N05	
	.byte	W06
	.byte			Gn2
	.byte	W06
	.byte			Gn1
	.byte	W06
	.byte		N05	
	.byte	W06
	.byte		N05	
	.byte	W06
	.byte			Gn2
	.byte	W06
	.byte			Gn1
	.byte	W06
	.byte		N05	
	.byte	W06
	.byte		N05	
	.byte	W06
	.byte			Gn2
	.byte	W06
	.byte			Gn1
	.byte	W06
	.byte		N05	
	.byte	W06
	.byte	PEND
	.byte	PATT	
		.word	song0015_1_2
	.byte	PATT	
		.word	song0015_1_1
	.byte	PATT	
		.word	song0015_1_1
	.byte	PATT	
		.word	song0015_1_1
	.byte	PATT	
		.word	song0015_1_1
	.byte	PATT	
		.word	song0015_1_1
	.byte	PATT	
		.word	song0015_1_1
	.byte	PATT	
		.word	song0015_1_2
	.byte	PATT	
		.word	song0015_1_2
song0015_1_3:
	.byte		N05	, Dn2, v120
	.byte	W06
	.byte			Dn3
	.byte	W06
	.byte			Dn2
	.byte	W06
	.byte		N05	
	.byte	W06
	.byte		N05	
	.byte	W06
	.byte			Dn3
	.byte	W06
	.byte			Dn2
	.byte	W06
	.byte		N05	
	.byte	W06
	.byte		N05	
	.byte	W06
	.byte			Dn3
	.byte	W06
	.byte			Dn2
	.byte	W06
	.byte		N05	
	.byte	W06
	.byte		N05	
	.byte	W06
	.byte			Dn3
	.byte	W06
	.byte			Dn2
	.byte	W06
	.byte		N05	
	.byte	W06
	.byte	PEND
	.byte	PATT	
		.word	song0015_1_3
	.byte	PATT	
		.word	song0015_1_1
song0015_1_4:
	.byte		N05	, Gs1, v120
	.byte	W06
	.byte			Gs2
	.byte	W06
	.byte			Gs1
	.byte	W06
	.byte		N05	
	.byte	W06
	.byte		N05	
	.byte	W06
	.byte			Gs2
	.byte	W06
	.byte			Gs1
	.byte	W06
	.byte		N05	
	.byte	W06
	.byte		N05	
	.byte	W06
	.byte			Gs2
	.byte	W06
	.byte			Gs1
	.byte	W06
	.byte		N05	
	.byte	W06
	.byte		N05	
	.byte	W06
	.byte			Gs2
	.byte	W06
	.byte			Gs1
	.byte	W06
	.byte		N05	
	.byte	W06
	.byte	PEND
	.byte	PATT	
		.word	song0015_1_2
song0015_1_5:
	.byte		N05	, En2, v120
	.byte	W06
	.byte			En3
	.byte	W06
	.byte			En2
	.byte	W06
	.byte		N05	
	.byte	W06
	.byte		N05	
	.byte	W06
	.byte			En3
	.byte	W06
	.byte			En2
	.byte	W06
	.byte		N05	
	.byte	W06
	.byte		N05	
	.byte	W06
	.byte			En3
	.byte	W06
	.byte			En2
	.byte	W06
	.byte		N05	
	.byte	W06
	.byte		N05	
	.byte	W06
	.byte			En3
	.byte	W06
	.byte			En2
	.byte	W06
	.byte		N05	
	.byte	W06
	.byte	PEND
	.byte	PATT	
		.word	song0015_1_1
	.byte	PATT	
		.word	song0015_1_4
	.byte	PATT	
		.word	song0015_1_2
	.byte	PATT	
		.word	song0015_1_5
	.byte	PATT	
		.word	song0015_1_3
song0015_1_6:
	.byte		N05	, Cs2, v120
	.byte	W06
	.byte			Cs3
	.byte	W06
	.byte			Cs2
	.byte	W06
	.byte		N05	
	.byte	W06
	.byte		N05	
	.byte	W06
	.byte			Cs3
	.byte	W06
	.byte			Cs2
	.byte	W06
	.byte		N05	
	.byte	W06
	.byte		N05	
	.byte	W06
	.byte			Cs3
	.byte	W06
	.byte			Cs2
	.byte	W06
	.byte		N05	
	.byte	W06
	.byte		N05	
	.byte	W06
	.byte			Cs3
	.byte	W06
	.byte			Cs2
	.byte	W06
	.byte		N05	
	.byte	W06
	.byte	PEND
	.byte			Cn2
	.byte	W06
	.byte			Cn3
	.byte	W06
	.byte			Cn2
	.byte	W06
	.byte		N05	
	.byte	W06
	.byte		N05	
	.byte	W06
	.byte			Cn3
	.byte	W06
	.byte			Cn2
	.byte	W06
	.byte		N05	
	.byte	W06
	.byte		N05	
	.byte	W06
	.byte			Cn3
	.byte	W06
	.byte			Cn2
	.byte	W06
	.byte		N05	
	.byte	W06
	.byte		N05	
	.byte	W06
	.byte			Cn3
	.byte	W06
	.byte			Cn2
	.byte	W06
	.byte		N05	
	.byte	W06
	.byte	PATT	
		.word	song0015_1_1
	.byte	PATT	
		.word	song0015_1_3
	.byte	PATT	
		.word	song0015_1_6
	.byte		N05	, Ds2, v120
	.byte	W06
	.byte			Ds3
	.byte	W06
	.byte			Ds2
	.byte	W06
	.byte		N05	
	.byte	W06
	.byte		N05	
	.byte	W06
	.byte			Ds3
	.byte	W06
	.byte			Ds2
	.byte	W06
	.byte		N05	
	.byte	W06
	.byte		N05	
	.byte	W06
	.byte			Ds3
	.byte	W06
	.byte			Ds2
	.byte	W06
	.byte		N05	
	.byte	W06
	.byte		N05	
	.byte	W06
	.byte			Ds3
	.byte	W06
	.byte			Ds2
	.byte	W06
	.byte		N05	
	.byte	W06
	.byte	PATT	
		.word	song0015_1_5
	.byte	PATT	
		.word	song0015_1_1
	.byte	GOTO	
		.word	song0015_1_7
	.byte	FINE

	@********************** Track  2 **********************@

	.global song0015_2
song0015_2:	@ 0x08C5965C
	.byte	KEYSH	, 0
	.byte	VOICE	, 127
	.byte	VOL	, v094
	.byte	W03
song0015_2_2:
	.byte		N24	, Ds2, v120
	.byte	W24
	.byte		N24	
	.byte	W24
	.byte		N24	
	.byte	W24
	.byte		N24	
	.byte	W24
	.byte	PEND
song0015_2_1:
	.byte		N24	, Ds2, v120
	.byte	W24
	.byte		N24	
	.byte	W24
	.byte		N18	
	.byte	W18
	.byte		N06	, Ds2, v112
	.byte	W06
	.byte		N12	, Ds2, v120
	.byte	W12
	.byte		N12	
	.byte	W12
	.byte	PEND
song0015_2_3:
	.byte		N24	, Ds2, v120
	.byte	W24
	.byte			En2
	.byte	W24
	.byte			Ds2
	.byte	W24
	.byte			En2
	.byte	W24
	.byte	PEND
song0015_2_4:
	.byte		N24	, Ds2, v120
	.byte	W24
	.byte			En2
	.byte	W24
	.byte		N18	, Ds2
	.byte	W18
	.byte		N06	, Ds2, v112
	.byte	W06
	.byte		N12	, En2, v120
	.byte	W12
	.byte			Ds2
	.byte	W12
	.byte	PEND
	.byte		N18	
	.byte	W18
	.byte		N06	, Ds2, v112
	.byte	W06
	.byte		N24	, En2, v120
	.byte	W24
	.byte			Ds2
	.byte	W24
	.byte			En2
	.byte	W24
song0015_2_5:
	.byte	PATT	
		.word	song0015_2_1
	.byte	PATT	
		.word	song0015_2_2
	.byte	PATT	
		.word	song0015_2_1
	.byte	PATT	
		.word	song0015_2_2
	.byte	PATT	
		.word	song0015_2_1
	.byte	PATT	
		.word	song0015_2_2
	.byte	PATT	
		.word	song0015_2_1
	.byte	PATT	
		.word	song0015_2_2
	.byte		N24	, Ds2, v120
	.byte	W24
	.byte		N24	
	.byte	W24
	.byte		N06	, En2
	.byte	W06
	.byte		N06	
	.byte	W06
	.byte		N06	
	.byte	W06
	.byte			Ds2, v112
	.byte	W06
	.byte			En2, v120
	.byte	W06
	.byte		N06	
	.byte	W06
	.byte			Gs1
	.byte	W06
	.byte			Fs1
	.byte	W06
	.byte	PATT	
		.word	song0015_2_3
	.byte	PATT	
		.word	song0015_2_4
	.byte	PATT	
		.word	song0015_2_3
	.byte	PATT	
		.word	song0015_2_4
	.byte	PATT	
		.word	song0015_2_3
	.byte	PATT	
		.word	song0015_2_4
	.byte	PATT	
		.word	song0015_2_3
	.byte		N24	, Ds2, v120
	.byte	W24
	.byte			En2
	.byte	W24
	.byte		N06	
	.byte	W06
	.byte		N06	
	.byte	W06
	.byte		N06	
	.byte	W06
	.byte			Ds2, v112
	.byte	W06
	.byte			En2, v120
	.byte	W06
	.byte		N06	
	.byte	W06
	.byte		N06	
	.byte	W06
	.byte		N06	
	.byte	W06
	.byte	PATT	
		.word	song0015_2_2
	.byte	PATT	
		.word	song0015_2_1
	.byte	PATT	
		.word	song0015_2_2
	.byte	PATT	
		.word	song0015_2_1
	.byte	PATT	
		.word	song0015_2_2
	.byte	PATT	
		.word	song0015_2_1
	.byte	PATT	
		.word	song0015_2_2
	.byte		N24	, Ds2, v120
	.byte	W24
	.byte		N24	
	.byte	W24
	.byte		N06	, En2
	.byte	W06
	.byte		N06	
	.byte	W06
	.byte		N06	
	.byte	W06
	.byte			Ds2, v112
	.byte	W06
	.byte			En2, v120
	.byte	W06
	.byte		N06	
	.byte	W06
	.byte		N06	
	.byte	W06
	.byte		N06	
	.byte	W06
	.byte	PATT	
		.word	song0015_2_2
	.byte	PATT	
		.word	song0015_2_1
	.byte	PATT	
		.word	song0015_2_2
	.byte	PATT	
		.word	song0015_2_1
	.byte	PATT	
		.word	song0015_2_2
	.byte	PATT	
		.word	song0015_2_1
	.byte		N24	, Ds2, v120
	.byte	W24
	.byte		N24	
	.byte	W24
	.byte		N24	
	.byte	W24
	.byte		N12	, En2
	.byte	W12
	.byte		N24	, Ds2
	.byte	W12
	.byte	W12
	.byte		N12	
	.byte	W12
	.byte		N12	
	.byte	W12
	.byte		N12	
	.byte	W30
	.byte		N06	, Ds2, v112
	.byte	W06
	.byte		N12	, Ds2, v120
	.byte	W12
	.byte		N12	
	.byte	W12
	.byte	PATT	
		.word	song0015_2_2
	.byte	GOTO	
		.word	song0015_2_5
	.byte	FINE

	@********************** Track  3 **********************@

	.global song0015_3
song0015_3:	@ 0x08C597AE
	.byte	KEYSH	, 0
	.byte	VOICE	, 127
	.byte	VOL	, v094
	.byte	W03
	.byte	W96
	.byte	W96
	.byte	W96
	.byte	W96
	.byte	W96
song0015_3_1:
	.byte	W48
	.byte		N06	, En1, v060
	.byte	W06
	.byte		N06	
	.byte	W06
	.byte			Ds1
	.byte	W06
	.byte		N06	
	.byte	W06
	.byte			En1
	.byte	W06
	.byte		N06	
	.byte	W06
	.byte			Ds1
	.byte	W06
	.byte			Dn1
	.byte	W06
	.byte	PEND
	.byte		N18	, Fs2, v112
	.byte	W96
	.byte	W48
	.byte		N06	, Ds1, v060
	.byte	W06
	.byte		N06	
	.byte	W06
	.byte			En1
	.byte	W06
	.byte			Ds1
	.byte	W06
	.byte		N06	
	.byte	W06
	.byte		N06	
	.byte	W06
	.byte			En1
	.byte	W06
	.byte			Ds1
	.byte	W06
	.byte	W96
	.byte	PATT	
		.word	song0015_3_1
	.byte	W96
	.byte	W96
	.byte		N12	, Ds1, v040
	.byte	W12
	.byte			Dn1, v048
	.byte	W12
	.byte			Ds1, v052
	.byte	W12
	.byte			Dn1, v056
	.byte	W12
	.byte			Ds1, v060
	.byte	W12
	.byte			Dn1, v068
	.byte	W12
	.byte			Ds1, v072
	.byte	W12
	.byte			Dn1, v076
	.byte	W12
	.byte			En1, v080
	.byte	W12
	.byte			Ds1
	.byte	W12
	.byte			En1
	.byte	W12
	.byte			Ds1
	.byte	W12
	.byte		N06	, En1, v060
	.byte	W06
	.byte		N06	
	.byte	W06
	.byte			Ds1
	.byte	W06
	.byte		N06	
	.byte	W06
	.byte			En1
	.byte	W06
	.byte		N06	
	.byte	W06
	.byte			Ds1
	.byte	W06
	.byte			Dn1
	.byte	W06
	.byte		N24	, Cs2, v120
	.byte	W12
	.byte		N12	, Dn1, v060
	.byte	W12
	.byte			Ds1
	.byte	W12
	.byte			Dn1
	.byte	W12
	.byte			Ds1
	.byte	W12
	.byte			Dn1
	.byte	W12
	.byte			Ds1
	.byte	W12
	.byte			Dn1
	.byte	W12
song0015_3_3:
	.byte		N12	, Ds1, v060
	.byte	W12
	.byte			Dn1
	.byte	W12
	.byte			Ds1
	.byte	W12
	.byte			Dn1
	.byte	W12
	.byte		N06	, Ds1
	.byte	W06
	.byte		N06	
	.byte	W06
	.byte			En1
	.byte	W06
	.byte			Ds1
	.byte	W06
	.byte		N06	
	.byte	W06
	.byte		N06	
	.byte	W06
	.byte			En1
	.byte	W06
	.byte			Ds1
	.byte	W06
	.byte	PEND
song0015_3_2:
	.byte		N12	, Ds1, v060
	.byte	W12
	.byte			Dn1
	.byte	W12
	.byte			Ds1
	.byte	W12
	.byte			Dn1
	.byte	W12
	.byte			Ds1
	.byte	W12
	.byte			Dn1
	.byte	W12
	.byte			Ds1
	.byte	W12
	.byte			Dn1
	.byte	W12
	.byte	PEND
song0015_3_4:
	.byte		N12	, Ds1, v060
	.byte	W12
	.byte			Dn1
	.byte	W12
	.byte			Ds1
	.byte	W12
	.byte			Dn1
	.byte	W12
	.byte		N06	, En1
	.byte	W06
	.byte		N06	
	.byte	W06
	.byte			Ds1
	.byte	W06
	.byte		N06	
	.byte	W06
	.byte			En1
	.byte	W06
	.byte		N06	
	.byte	W06
	.byte			Ds1
	.byte	W06
	.byte			Dn1
	.byte	W06
	.byte	PEND
	.byte	PATT	
		.word	song0015_3_2
	.byte	PATT	
		.word	song0015_3_3
	.byte	PATT	
		.word	song0015_3_2
	.byte	PATT	
		.word	song0015_3_4
song0015_3_7:
	.byte		N24	, Cs2, v120
	.byte	W12
	.byte		N12	, Dn1, v060
	.byte	W12
	.byte			Ds1, v064
	.byte	W12
	.byte		N12	
	.byte	W12
	.byte			En1, v068
	.byte	W12
	.byte			Ds1
	.byte	W12
	.byte			En1, v072
	.byte	W12
	.byte			Ds1
	.byte	W12
	.byte	PEND
song0015_3_8:
	.byte		N12	, En1, v072
	.byte	W12
	.byte			Ds1, v076
	.byte	W12
	.byte			En1
	.byte	W12
	.byte			Ds1, v080
	.byte	W12
	.byte		N06	
	.byte	W06
	.byte		N06	
	.byte	W06
	.byte			En1
	.byte	W06
	.byte			Ds1
	.byte	W06
	.byte		N06	
	.byte	W06
	.byte		N06	
	.byte	W06
	.byte			En1
	.byte	W06
	.byte			Ds1
	.byte	W06
	.byte	PEND
song0015_3_5:
	.byte		N12	, En1, v080
	.byte	W12
	.byte			Ds1
	.byte	W12
	.byte			En1
	.byte	W12
	.byte			Ds1
	.byte	W12
	.byte			En1
	.byte	W12
	.byte			Ds1
	.byte	W12
	.byte			En1
	.byte	W12
	.byte			Ds1
	.byte	W12
	.byte	PEND
song0015_3_6:
	.byte		N12	, En1, v080
	.byte	W12
	.byte			Ds1
	.byte	W12
	.byte			En1
	.byte	W12
	.byte			Ds1
	.byte	W12
	.byte		N06	, En1
	.byte	W06
	.byte		N06	
	.byte	W06
	.byte			Ds1
	.byte	W06
	.byte		N06	
	.byte	W06
	.byte			En1
	.byte	W06
	.byte		N06	
	.byte	W06
	.byte			Ds1
	.byte	W06
	.byte			Dn1
	.byte	W06
	.byte	PEND
song0015_3_9:
	.byte		N24	, Cs2, v120
	.byte	W12
	.byte		N12	, Ds1, v080
	.byte	W12
	.byte			En1
	.byte	W12
	.byte			Ds1
	.byte	W12
	.byte			En1
	.byte	W12
	.byte			Ds1
	.byte	W12
	.byte			En1
	.byte	W12
	.byte			Ds1
	.byte	W12
	.byte	PEND
song0015_3_10:
	.byte		N12	, En1, v080
	.byte	W12
	.byte			Ds1
	.byte	W12
	.byte			En1
	.byte	W12
	.byte			Ds1
	.byte	W12
	.byte		N06	
	.byte	W06
	.byte		N06	
	.byte	W06
	.byte			En1
	.byte	W06
	.byte			Ds1
	.byte	W06
	.byte		N06	
	.byte	W06
	.byte		N06	
	.byte	W06
	.byte			En1
	.byte	W06
	.byte			Ds1
	.byte	W06
	.byte	PEND
	.byte	PATT	
		.word	song0015_3_5
	.byte	PATT	
		.word	song0015_3_6
	.byte	PATT	
		.word	song0015_3_7
	.byte	PATT	
		.word	song0015_3_8
	.byte	PATT	
		.word	song0015_3_5
	.byte	PATT	
		.word	song0015_3_6
	.byte	PATT	
		.word	song0015_3_9
	.byte	PATT	
		.word	song0015_3_10
	.byte		N12	, En1, v080
	.byte	W12
	.byte			Ds1
	.byte	W12
	.byte			En1
	.byte	W12
	.byte			Ds1
	.byte	W12
	.byte			En1
	.byte	W12
	.byte			Ds1
	.byte	W12
	.byte			En1
	.byte	W12
	.byte		N24	, Cs2, v120
	.byte	W12
	.byte	W12
	.byte		N12	, Ds1, v080
	.byte	W12
	.byte			En1
	.byte	W12
	.byte			Ds1
	.byte	W12
	.byte		N06	, En1
	.byte	W06
	.byte		N06	
	.byte	W06
	.byte			Ds1
	.byte	W06
	.byte		N06	
	.byte	W06
	.byte			En1
	.byte	W06
	.byte		N06	
	.byte	W06
	.byte			Ds1
	.byte	W06
	.byte			Dn1
	.byte	W06
	.byte		N24	, Cs2, v127
	.byte	W96
	.byte	GOTO	
		.word	song0015_3_1
	.byte	FINE

	@********************** Track  4 **********************@

	.global song0015_4
song0015_4:	@ 0x08C59988
	.byte	KEYSH	, 0
	.byte	VOICE	, 103
	.byte	VOL	, v060
	.byte	PRIO	, 10
	.byte	W03
	.byte	W96
	.byte	W96
	.byte	W96
	.byte	W96
	.byte	W96
song0015_4_3:
	.byte	W92
	.byte	W03
	.byte	BEND	, c_v-48
	.byte	W01
	.byte	PEND
song0015_4_1:
	.byte	BEND	, c_v-42
	.byte		N12	, An2, v100
	.byte	W01
	.byte	BEND	, c_v-35
	.byte	W01
	.byte		c_v-28
	.byte	W01
	.byte		c_v-21
	.byte	W01
	.byte		c_v-15
	.byte	W01
	.byte		c_v-8
	.byte	W01
	.byte		c_v
	.byte	W06
	.byte		N12	, Cn3
	.byte	W12
	.byte			Gn3
	.byte	W12
	.byte		TIE	, Fs3
	.byte	W60
	.byte	PEND
	.byte	W84
	.byte		EOT	
	.byte	W11
	.byte	BEND	, c_v-48
	.byte	W01
song0015_4_2:
	.byte	BEND	, c_v-42
	.byte		N12	, An2, v100
	.byte	W01
	.byte	BEND	, c_v-35
	.byte	W01
	.byte		c_v-28
	.byte	W01
	.byte		c_v-21
	.byte	W01
	.byte		c_v-15
	.byte	W01
	.byte		c_v-8
	.byte	W01
	.byte		c_v
	.byte	W06
	.byte		N12	, Cn3
	.byte	W12
	.byte			Gn3
	.byte	W12
	.byte		N36	, Fs3
	.byte	W36
	.byte		N12	, Dn3
	.byte	W12
	.byte		N36	, Fs3
	.byte	W12
	.byte	PEND
	.byte	W24
	.byte		N12	, Dn3
	.byte	W11
	.byte	BEND	, c_v-48
	.byte	W01
	.byte		c_v-42
	.byte		N24	, An3
	.byte	W01
	.byte	BEND	, c_v-35
	.byte	W01
	.byte		c_v-28
	.byte	W01
	.byte		c_v-21
	.byte	W01
	.byte		c_v-15
	.byte	W01
	.byte		c_v-8
	.byte	W01
	.byte		c_v
	.byte	W18
	.byte		N12	, Gn3
	.byte	W12
	.byte			Fs3
	.byte	W12
	.byte			Dn3
	.byte	W12
	.byte		TIE	, En3
	.byte	W96
	.byte	W60
	.byte		EOT	
	.byte		N12	, Fs3
	.byte	W12
	.byte			Gn3
	.byte	W12
	.byte		TIE	, Fs3
	.byte	W12
	.byte	W96
	.byte	W72
	.byte		EOT	
	.byte	W23
	.byte	BEND	, c_v-48
	.byte	W01
	.byte	PATT	
		.word	song0015_4_1
	.byte	W84
	.byte		EOT	, Fs3
	.byte	W11
	.byte	BEND	, c_v-48
	.byte	W01
	.byte	PATT	
		.word	song0015_4_2
	.byte	W24
	.byte		N12	, Dn3, v100
	.byte	W11
	.byte	BEND	, c_v-48
	.byte	W01
	.byte		c_v-42
	.byte		N24	, An3
	.byte	W01
	.byte	BEND	, c_v-35
	.byte	W01
	.byte		c_v-28
	.byte	W01
	.byte		c_v-21
	.byte	W01
	.byte		c_v-15
	.byte	W01
	.byte		c_v-8
	.byte	W01
	.byte		c_v
	.byte	W18
	.byte		N12	, Gn3
	.byte	W12
	.byte			Fs3
	.byte	W12
	.byte			Dn3
	.byte	W11
	.byte	BEND	, c_v-48
	.byte	W01
	.byte		c_v-42
	.byte		TIE	, En3
	.byte	W01
	.byte	BEND	, c_v-35
	.byte	W01
	.byte		c_v-28
	.byte	W01
	.byte		c_v-21
	.byte	W01
	.byte		c_v-15
	.byte	W01
	.byte		c_v-8
	.byte	W01
	.byte		c_v
	.byte	W90
	.byte	W60
	.byte		EOT	
	.byte		N12	, Fs3
	.byte	W12
	.byte			En3
	.byte	W12
	.byte		TIE	, Dn3
	.byte	W12
	.byte	W96
	.byte	W48
	.byte		EOT	
	.byte		N12	, Bn2
	.byte	W12
	.byte		N24	, Dn3
	.byte	W24
	.byte		N48	, Fs3
	.byte	W12
	.byte	W96
	.byte	W96
	.byte	W96
	.byte	W96
	.byte	W96
	.byte	W96
	.byte	W96
	.byte	PATT	
		.word	song0015_4_3
	.byte	BEND	, c_v-42
	.byte		N44	, Gn3, v100
	.byte	W01
	.byte	BEND	, c_v-35
	.byte	W01
	.byte		c_v-28
	.byte	W01
	.byte		c_v-21
	.byte	W01
	.byte		c_v-15
	.byte	W01
	.byte		c_v-8
	.byte	W01
	.byte		c_v
	.byte	W40
	.byte	W01
	.byte		c_v-48
	.byte	W01
	.byte		c_v-42
	.byte		N24	
	.byte	W01
	.byte	BEND	, c_v-35
	.byte	W01
	.byte		c_v-28
	.byte	W01
	.byte		c_v-21
	.byte	W01
	.byte		c_v-15
	.byte	W01
	.byte		c_v-8
	.byte	W01
	.byte		c_v
	.byte	W04
	.byte		c_v-4
	.byte	W01
	.byte		c_v-8
	.byte	W01
	.byte		c_v-12
	.byte	W01
	.byte		c_v-16
	.byte	W01
	.byte		c_v-20
	.byte	W01
	.byte		c_v-24
	.byte	W01
	.byte		c_v-28
	.byte	W02
	.byte		c_v-32
	.byte	W06
	.byte		N12	, Fn3
	.byte	W12
	.byte		N56	, Ds3
	.byte	W12
	.byte	W48
	.byte	BEND	, c_v
	.byte	W12
	.byte		N24	, An3
	.byte	W09
	.byte	BEND	, c_v-2
	.byte	W01
	.byte		c_v-11
	.byte	W01
	.byte		c_v-20
	.byte	W01
	.byte		c_v-29
	.byte	W01
	.byte		c_v-38
	.byte	W01
	.byte		c_v-47
	.byte	W01
	.byte		c_v-55
	.byte	W01
	.byte		c_v-64
	.byte	W08
	.byte		N12	, En3
	.byte	W12
	.byte		N24	, Dn3
	.byte	W24
	.byte		N12	, En3
	.byte	W12
	.byte	BEND	, c_v-59
	.byte		N24	
	.byte	W01
	.byte	BEND	, c_v-53
	.byte	W01
	.byte		c_v-47
	.byte	W01
	.byte		c_v-41
	.byte	W01
	.byte		c_v-30
	.byte	W01
	.byte		c_v-24
	.byte	W01
	.byte		c_v-18
	.byte	W01
	.byte		c_v-12
	.byte	W01
	.byte		c_v-7
	.byte	W01
	.byte		c_v
	.byte	W15
	.byte		N24	, Fs3
	.byte	W24
	.byte		N92	, Gn3
	.byte	W12
	.byte	W24
	.byte	W03
	.byte	BEND	, c_v+4
	.byte	W01
	.byte		c_v+8
	.byte	W01
	.byte		c_v+12
	.byte	W01
	.byte		c_v+17
	.byte	W01
	.byte		c_v+25
	.byte	W01
	.byte		c_v+29
	.byte	W01
	.byte		c_v+34
	.byte	W01
	.byte		c_v+38
	.byte	W01
	.byte		c_v+46
	.byte	W01
	.byte		c_v+51
	.byte	W01
	.byte		c_v+55
	.byte	W01
	.byte		c_v+59
	.byte	W01
	.byte		c_v+63
	.byte	W56
	.byte	W01
	.byte	W96
	.byte		c_v
	.byte	W96
	.byte	W96
	.byte	W96
	.byte	W96
	.byte	GOTO	
		.word	song0015_4_3
	.byte	FINE

	@********************** Track  5 **********************@

	.global song0015_5
song0015_5:	@ 0x08C59B1E
	.byte	KEYSH	, 0
	.byte	VOICE	, 2
	.byte	VOL	, v047
	.byte	PAN	, c_v-30
	.byte	W03
	.byte	W96
	.byte	W96
	.byte	W96
	.byte	W96
	.byte		N04	, An4, v100
	.byte	W12
	.byte		N04	
	.byte	W12
	.byte		N04	
	.byte	W12
	.byte		N04	
	.byte	W18
	.byte		N04	
	.byte	W12
	.byte		N04	
	.byte	W12
	.byte			An5
	.byte	W12
	.byte			An4
	.byte	W06
song0015_5_2:
	.byte		N04	, En4, v100
	.byte	W06
	.byte		N04	
	.byte	W06
	.byte			Bn4
	.byte	W06
	.byte		N04	
	.byte	W06
	.byte			An4
	.byte	W06
	.byte		N04	
	.byte	W06
	.byte			Dn5
	.byte	W06
	.byte		N04	
	.byte	W06
	.byte			Cs5
	.byte	W06
	.byte		N04	
	.byte	W06
	.byte			Fs5
	.byte	W06
	.byte		N04	
	.byte	W06
	.byte			En5
	.byte	W06
	.byte		N04	
	.byte	W06
	.byte			An5
	.byte	W06
	.byte		N04	
	.byte	W06
	.byte	PEND
song0015_5_3:
	.byte		N04	, An4, v080
	.byte	W12
	.byte		N04	
	.byte	W12
	.byte		N04	
	.byte	W18
	.byte		N04	
	.byte	W24
	.byte		N04	
	.byte	W12
	.byte		N04	
	.byte	W12
	.byte		N04	
	.byte	W06
	.byte	PEND
song0015_5_4:
	.byte	W06
	.byte		N04	, An4, v080
	.byte	W12
	.byte		N04	
	.byte	W18
	.byte			An5
	.byte	W18
	.byte			An4
	.byte	W18
	.byte			An5
	.byte	W18
	.byte			An4
	.byte	W06
	.byte	PEND
song0015_5_1:
	.byte	W06
	.byte		N04	, An5, v080
	.byte	W12
	.byte			An4
	.byte	W18
	.byte			An5
	.byte	W18
	.byte			An4
	.byte	W18
	.byte		N04	
	.byte	W12
	.byte		N04	
	.byte	W12
	.byte	PEND
song0015_5_5:
	.byte		N04	, An4, v080
	.byte	W12
	.byte			An5
	.byte	W12
	.byte			An4
	.byte	W18
	.byte		N04	
	.byte	W18
	.byte		N04	
	.byte	W24
	.byte		N04	
	.byte	W12
	.byte	PEND
song0015_5_6:
	.byte		N04	, Gn4, v080
	.byte	W12
	.byte		N04	
	.byte	W12
	.byte		N04	
	.byte	W18
	.byte		N04	
	.byte	W24
	.byte		N04	
	.byte	W12
	.byte		N04	
	.byte	W12
	.byte		N04	
	.byte	W06
	.byte	PEND
song0015_5_7:
	.byte	W06
	.byte		N04	, Gn4, v080
	.byte	W12
	.byte		N04	
	.byte	W18
	.byte			Gn5
	.byte	W18
	.byte			Gn4
	.byte	W18
	.byte			Gn5
	.byte	W18
	.byte			Gn4
	.byte	W06
	.byte	PEND
	.byte	PATT	
		.word	song0015_5_1
	.byte	PATT	
		.word	song0015_5_2
	.byte	PATT	
		.word	song0015_5_3
	.byte	PATT	
		.word	song0015_5_4
	.byte	PATT	
		.word	song0015_5_1
	.byte	PATT	
		.word	song0015_5_5
	.byte	PATT	
		.word	song0015_5_6
	.byte	PATT	
		.word	song0015_5_7
	.byte	W06
	.byte		N04	, Dn6, v080
	.byte	W12
	.byte			Dn5
	.byte	W18
	.byte			Dn6
	.byte	W18
	.byte			Dn5
	.byte	W18
	.byte		N04	
	.byte	W12
	.byte		N04	
	.byte	W12
	.byte	PATT	
		.word	song0015_5_2
	.byte	W96
	.byte	W96
	.byte	W96
	.byte		N04	, Gs3, v100
	.byte	W06
	.byte			Bn3
	.byte	W06
	.byte			En4
	.byte	W06
	.byte			Gs4
	.byte	W06
	.byte			Bn3
	.byte	W06
	.byte			En4
	.byte	W06
	.byte			Gs4
	.byte	W06
	.byte			Bn4
	.byte	W06
	.byte			Gs5
	.byte	W06
	.byte		N04	
	.byte	W06
	.byte		N04	
	.byte	W06
	.byte			Fs5
	.byte	W06
	.byte			Bn4
	.byte	W06
	.byte			Gs4
	.byte	W06
	.byte			En4
	.byte	W06
	.byte			Bn3
	.byte	W06
	.byte	W96
	.byte	W96
	.byte	W96
	.byte			En3
	.byte	W06
	.byte			Gs3
	.byte	W06
	.byte			Bn3
	.byte	W06
	.byte			En4
	.byte	W06
	.byte			En3
	.byte	W06
	.byte			Gs3
	.byte	W06
	.byte			Bn3
	.byte	W06
	.byte			En4
	.byte	W06
	.byte			Bn3
	.byte	W06
	.byte			En4
	.byte	W06
	.byte			Gs4
	.byte	W06
	.byte			Bn4
	.byte	W06
	.byte			En4
	.byte	W06
	.byte			Gs4
	.byte	W06
	.byte			Bn4
	.byte	W06
	.byte			En5
	.byte	W06
	.byte	W96
	.byte	W96
	.byte	W96
	.byte			An4
	.byte	W12
	.byte			An3
	.byte	W12
	.byte			An5
	.byte	W12
	.byte			An4
	.byte	W12
	.byte		N04	
	.byte	W12
	.byte			An5
	.byte	W12
	.byte		N04	
	.byte	W12
	.byte			An3
	.byte	W12
	.byte	W96
	.byte	W96
	.byte	W96
	.byte	W96
	.byte	W96
	.byte	GOTO	
		.word	song0015_5_2
	.byte	FINE

	@********************** Track  6 **********************@

	.global song0015_6
song0015_6:	@ 0x08C59C63
	.byte	KEYSH	, 0
	.byte	VOICE	, 12
	.byte	VOL	, v031
	.byte	PAN	, c_v+30
	.byte	W03
	.byte	W96
	.byte	W96
	.byte	W96
	.byte	W96
	.byte	W06
	.byte		N04	, An4, v100
	.byte	W12
	.byte		N04	
	.byte	W12
	.byte			An5
	.byte	W12
	.byte			An4
	.byte	W06
	.byte		N04	
	.byte	W12
	.byte		N04	
	.byte	W12
	.byte		N04	
	.byte	W12
	.byte		N04	
	.byte	W12
song0015_6_2:
	.byte		N04	, Gn4, v100
	.byte	W06
	.byte		N04	
	.byte	W06
	.byte		N04	
	.byte	W06
	.byte		N04	
	.byte	W06
	.byte			Cs5
	.byte	W06
	.byte		N04	
	.byte	W06
	.byte			Bn4
	.byte	W06
	.byte		N04	
	.byte	W06
	.byte			En5
	.byte	W06
	.byte		N04	
	.byte	W06
	.byte			Dn5
	.byte	W06
	.byte		N04	
	.byte	W06
	.byte			Gn5
	.byte	W06
	.byte		N04	
	.byte	W06
	.byte			Fs5
	.byte	W06
	.byte		N04	
	.byte	W06
	.byte	PEND
song0015_6_3:
	.byte	W06
	.byte		N04	, An5, v080
	.byte	W12
	.byte			An4
	.byte	W18
	.byte			An5
	.byte	W18
	.byte			An4
	.byte	W18
	.byte		N04	
	.byte	W12
	.byte		N04	
	.byte	W12
	.byte	PEND
song0015_6_4:
	.byte		N04	, An4, v080
	.byte	W12
	.byte			An5
	.byte	W12
	.byte			An4
	.byte	W18
	.byte		N04	
	.byte	W18
	.byte		N04	
	.byte	W24
	.byte		N04	
	.byte	W12
	.byte	PEND
song0015_6_1:
	.byte		N04	, An4, v080
	.byte	W12
	.byte		N04	
	.byte	W12
	.byte		N04	
	.byte	W18
	.byte		N04	
	.byte	W24
	.byte		N04	
	.byte	W12
	.byte		N04	
	.byte	W12
	.byte		N04	
	.byte	W06
	.byte	PEND
song0015_6_5:
	.byte	W06
	.byte		N04	, An4, v080
	.byte	W12
	.byte		N04	
	.byte	W18
	.byte			An5
	.byte	W18
	.byte			An4
	.byte	W18
	.byte			An5
	.byte	W18
	.byte			An4
	.byte	W06
	.byte	PEND
song0015_6_6:
	.byte	W06
	.byte		N04	, Gn5, v080
	.byte	W12
	.byte			Gn4
	.byte	W18
	.byte			Gn5
	.byte	W18
	.byte			Gn4
	.byte	W18
	.byte		N04	
	.byte	W12
	.byte		N04	
	.byte	W12
	.byte	PEND
song0015_6_7:
	.byte		N04	, Gn4, v080
	.byte	W12
	.byte			Gn5
	.byte	W12
	.byte			Gn4
	.byte	W18
	.byte		N04	
	.byte	W18
	.byte		N04	
	.byte	W24
	.byte		N04	
	.byte	W12
	.byte	PEND
	.byte	PATT	
		.word	song0015_6_1
	.byte	PATT	
		.word	song0015_6_2
	.byte	PATT	
		.word	song0015_6_3
	.byte	PATT	
		.word	song0015_6_4
	.byte	PATT	
		.word	song0015_6_1
	.byte	PATT	
		.word	song0015_6_5
	.byte	PATT	
		.word	song0015_6_6
	.byte	PATT	
		.word	song0015_6_7
	.byte		N04	, Dn5, v080
	.byte	W12
	.byte		N04	
	.byte	W12
	.byte		N04	
	.byte	W18
	.byte		N04	
	.byte	W24
	.byte		N04	
	.byte	W12
	.byte		N04	
	.byte	W12
	.byte		N04	
	.byte	W06
	.byte	PATT	
		.word	song0015_6_2
	.byte	W96
	.byte	W96
	.byte	W96
	.byte		N04	, En3, v100
	.byte	W06
	.byte			Gs3
	.byte	W06
	.byte			Bn3
	.byte	W06
	.byte			En4
	.byte	W06
	.byte		N04	
	.byte	W06
	.byte			Gs4
	.byte	W06
	.byte			Bn4
	.byte	W06
	.byte			En5
	.byte	W06
	.byte		N04	
	.byte	W06
	.byte		N04	
	.byte	W06
	.byte		N04	
	.byte	W06
	.byte			Dn5
	.byte	W06
	.byte			En5
	.byte	W06
	.byte			Bn4
	.byte	W06
	.byte			Gs4
	.byte	W06
	.byte			En4
	.byte	W06
	.byte	W96
	.byte	W96
	.byte	W96
	.byte			Bn2
	.byte	W06
	.byte			En3
	.byte	W06
	.byte			Gs3
	.byte	W06
	.byte			Bn3
	.byte	W06
	.byte			Gs3
	.byte	W06
	.byte			Bn3
	.byte	W06
	.byte			En4
	.byte	W06
	.byte			Gs4
	.byte	W06
	.byte			Gs3
	.byte	W06
	.byte			Bn3
	.byte	W06
	.byte			En4
	.byte	W06
	.byte			Gs4
	.byte	W06
	.byte		N04	
	.byte	W06
	.byte			Bn4
	.byte	W06
	.byte			En5
	.byte	W06
	.byte			Gs5
	.byte	W06
	.byte	W96
	.byte	W96
	.byte	W96
	.byte	W06
	.byte			An4
	.byte	W12
	.byte		N04	
	.byte	W12
	.byte		N04	
	.byte	W12
	.byte			An3
	.byte	W12
	.byte			An4
	.byte	W12
	.byte		N04	
	.byte	W12
	.byte		N04	
	.byte	W12
	.byte		N04	
	.byte	W06
	.byte	W96
	.byte	W96
	.byte	W96
	.byte	W96
	.byte	W96
	.byte	GOTO	
		.word	song0015_6_2
	.byte	FINE

	@********************** Track  7 **********************@

	.global song0015_7
song0015_7:	@ 0x08C59DA9
	.byte	KEYSH	, 0
	.byte	VOICE	, 80
	.byte	VOL	, v094
	.byte	W03
	.byte	W96
	.byte	W96
	.byte	W96
	.byte	W96
	.byte	W96
song0015_7_1:
	.byte	W96
	.byte	W96
	.byte	W96
	.byte	W96
	.byte	W96
	.byte	W96
	.byte	W96
	.byte	W96
	.byte	W96
	.byte	W96
	.byte	W96
	.byte	W96
	.byte	W96
	.byte	W96
	.byte	W96
	.byte	W96
	.byte	W64
	.byte		N06	, Dn2, v072
	.byte	W04
	.byte			En2, v076
	.byte	W04
	.byte			Fn2, v080
	.byte	W04
	.byte			Gn2, v084
	.byte	W04
	.byte			An2, v088
	.byte	W04
	.byte			Bn2, v092
	.byte	W04
	.byte			Cn3, v096
	.byte	W04
	.byte			Dn3, v100
	.byte	W04
	.byte		N96	, En3, v112
	.byte	W96
	.byte			Ds3
	.byte	W96
	.byte			Dn3
	.byte	W96
	.byte		N84	, Bn2
	.byte	W84
	.byte		N04	, An2, v080
	.byte	W03
	.byte			Bn2, v088
	.byte	W03
	.byte			Cn3, v092
	.byte	W03
	.byte			Dn3, v096
	.byte	W03
	.byte		N96	, En3, v112
	.byte	W96
	.byte			Ds3
	.byte	W96
	.byte			Dn3
	.byte	W96
	.byte		N84	, Bn2
	.byte	W84
	.byte		N04	, Dn3, v080
	.byte	W03
	.byte			En3, v088
	.byte	W03
	.byte			Fn3, v092
	.byte	W03
	.byte			Gn3, v096
	.byte	W03
	.byte		N96	, An3, v112
	.byte	W96
	.byte			En3
	.byte	W96
	.byte			Gn3
	.byte	W96
	.byte		N84	, En3
	.byte	W84
	.byte		N04	, Dn3, v080
	.byte	W03
	.byte			En3, v088
	.byte	W03
	.byte			Fn3, v092
	.byte	W03
	.byte			Gn3, v096
	.byte	W03
	.byte		N96	, An3, v112
	.byte	W96
	.byte			En3
	.byte	W96
	.byte		N84	, Fs3
	.byte	W84
	.byte		N18	, Bn2
	.byte	W12
	.byte	W12
	.byte		N12	
	.byte	W12
	.byte		N12	
	.byte	W12
	.byte		N12	
	.byte	W60
	.byte	W96
	.byte	GOTO	
		.word	song0015_7_1
	.byte	FINE

	@********************** Track  8 **********************@

	.global song0015_8
song0015_8:	@ 0x08C59E41
	.byte	KEYSH	, 0
	.byte	VOICE	, 74
	.byte	VOL	, v094
	.byte	PAN	, c_v
	.byte	W03
	.byte	W96
	.byte	W96
	.byte	W96
	.byte	W96
	.byte	W96
song0015_8_2:
	.byte	W96
	.byte	W96
	.byte	W96
	.byte	W96
	.byte	W96
	.byte	W96
	.byte	W96
	.byte	W96
	.byte	W96
	.byte	W96
	.byte	W96
	.byte	W96
	.byte	W96
	.byte	W96
	.byte	W96
	.byte	W96
	.byte	W96
	.byte	W24
	.byte		N18	, An2, v112
	.byte	W24
	.byte		N09	, An2, v100
	.byte	W12
	.byte			Cs3
	.byte	W12
	.byte			En3
	.byte	W12
	.byte			Gs3
	.byte	W12
song0015_8_1:
	.byte	W12
	.byte		N09	, Gs3, v100
	.byte	W24
	.byte		N06	
	.byte	W12
	.byte		N12	
	.byte	W12
	.byte			An3
	.byte	W12
	.byte		N09	, Bn3
	.byte	W12
	.byte		N12	, Dn4
	.byte	W12
	.byte	PEND
	.byte	W12
	.byte		N09	
	.byte	W24
	.byte		N09	
	.byte	W12
	.byte		N12	
	.byte	W12
	.byte			Cs4
	.byte	W12
	.byte		N09	, Bn3
	.byte	W12
	.byte		N60	, En3
	.byte	W12
	.byte	W96
	.byte	W24
	.byte		N18	, An2
	.byte	W24
	.byte		N09	
	.byte	W12
	.byte			Cs3
	.byte	W12
	.byte			En3
	.byte	W12
	.byte			Gs3
	.byte	W12
	.byte	PATT	
		.word	song0015_8_1
	.byte	W12
	.byte		N09	, Dn4, v100
	.byte	W24
	.byte		N09	
	.byte	W12
	.byte		N12	, Cs4
	.byte	W12
	.byte			Dn4
	.byte	W12
	.byte			Ds4
	.byte	W12
	.byte		N72	, En4
	.byte	W12
	.byte	W96
	.byte	W96
	.byte	W96
	.byte	W96
	.byte	W96
	.byte	W24
	.byte		N18	, Dn4
	.byte	W24
	.byte		N12	
	.byte	W12
	.byte			Cs4
	.byte	W12
	.byte		N09	, Bn3
	.byte	W12
	.byte		N48	, An3
	.byte	W12
	.byte	W60
	.byte		N12	, En4
	.byte	W12
	.byte		N09	
	.byte	W12
	.byte		N09	
	.byte	W12
	.byte		N18	, Ds4
	.byte	W24
	.byte		N09	
	.byte	W12
	.byte		N18	, En4
	.byte	W24
	.byte		N24	, Fs4
	.byte	W24
	.byte		N18	, En4
	.byte	W12
	.byte	W12
	.byte		N09	
	.byte	W12
	.byte		N09	
	.byte	W12
	.byte		N06	
	.byte	W60
	.byte	W96
	.byte	GOTO	
		.word	song0015_8_2
	.byte	FINE

	@********************** Track  9 **********************@

	.global song0015_9
song0015_9:	@ 0x08C59EEA
	.byte	KEYSH	, 0
	.byte	VOICE	, 106
	.byte	VOL	, v062
	.byte	BENDR	, 12
	.byte	PAN	, c_v
	.byte	W03
	.byte	W96
	.byte	W96
	.byte	W96
	.byte	W96
	.byte	BEND	, c_v+63
	.byte	W96
song0015_9_3:
	.byte		N96	, An5, v120
	.byte	W36
	.byte	BEND	, c_v+63
	.byte	W01
	.byte		c_v+63
	.byte	W01
	.byte		c_v+63
	.byte	W01
	.byte		c_v+63
	.byte	W01
	.byte		c_v+63
	.byte	W01
	.byte		c_v+62
	.byte	W01
	.byte		c_v+62
	.byte	W01
	.byte		c_v+62
	.byte	W01
	.byte		c_v+61
	.byte	W01
	.byte		c_v+60
	.byte	W01
	.byte		c_v+60
	.byte	W01
	.byte		c_v+59
	.byte	W01
	.byte		c_v+58
	.byte	W01
	.byte		c_v+57
	.byte	W01
	.byte		c_v+56
	.byte	W01
	.byte		c_v+55
	.byte	W01
	.byte		c_v+53
	.byte	W01
	.byte		c_v+52
	.byte	W01
	.byte		c_v+51
	.byte	W01
	.byte		c_v+50
	.byte	W01
	.byte		c_v+48
	.byte	W01
	.byte		c_v+47
	.byte	W01
	.byte		c_v+46
	.byte	W01
	.byte		c_v+44
	.byte	W01
	.byte		c_v+42
	.byte	W01
	.byte		c_v+40
	.byte	W01
	.byte		c_v+39
	.byte	W01
	.byte		c_v+37
	.byte	W01
	.byte		c_v+34
	.byte	W01
	.byte		c_v+32
	.byte	W01
	.byte		c_v+31
	.byte	W01
	.byte		c_v+29
	.byte	W01
	.byte		c_v+25
	.byte	W01
	.byte		c_v+23
	.byte	W01
	.byte		c_v+21
	.byte	W01
	.byte		c_v+19
	.byte	W01
	.byte		c_v+15
	.byte	W01
	.byte		c_v+13
	.byte	W01
	.byte		c_v+11
	.byte	W01
	.byte		c_v+9
	.byte	W01
	.byte		c_v+4
	.byte	W01
	.byte		c_v+2
	.byte	W01
	.byte		c_v
	.byte	W01
	.byte		c_v-3
	.byte	W01
	.byte		c_v-8
	.byte	W01
	.byte		c_v-11
	.byte	W01
	.byte		c_v-13
	.byte	W01
	.byte		c_v-16
	.byte	W01
	.byte		c_v-21
	.byte	W01
	.byte		c_v-24
	.byte	W01
	.byte		c_v-27
	.byte	W01
	.byte		c_v-30
	.byte	W01
	.byte		c_v-36
	.byte	W01
	.byte		c_v-39
	.byte	W01
	.byte		c_v-42
	.byte	W01
	.byte		c_v-45
	.byte	W01
	.byte		c_v-51
	.byte	W01
	.byte		c_v-55
	.byte	W01
	.byte		c_v-58
	.byte	W01
	.byte		c_v-64
	.byte	W01
	.byte	PEND
song0015_9_1:
	.byte		N04	, An4, v100
	.byte	W06
	.byte		N04	
	.byte	W06
	.byte		N09	
	.byte	W12
	.byte		N09	
	.byte	W12
	.byte		N04	
	.byte	W06
	.byte		N09	
	.byte	W12
	.byte		N04	
	.byte	W06
	.byte		N09	
	.byte	W12
	.byte		N04	
	.byte	W06
	.byte		N04	
	.byte	W06
	.byte		N04	
	.byte	W06
	.byte		N04	
	.byte	W06
	.byte	PEND
song0015_9_2:
	.byte		N04	, An4, v100
	.byte	W06
	.byte		N04	
	.byte	W06
	.byte		N04	
	.byte	W06
	.byte		N04	
	.byte	W06
	.byte		N09	
	.byte	W12
	.byte		N04	
	.byte	W06
	.byte		N09	
	.byte	W12
	.byte		N04	
	.byte	W06
	.byte		N04	
	.byte	W06
	.byte		N04	
	.byte	W06
	.byte		N09	
	.byte	W12
	.byte		N04	
	.byte	W06
	.byte		N04	
	.byte	W06
	.byte	PEND
	.byte	PATT	
		.word	song0015_9_1
	.byte	PATT	
		.word	song0015_9_2
song0015_9_4:
	.byte		N04	, Gn4, v100
	.byte	W06
	.byte		N04	
	.byte	W06
	.byte		N09	
	.byte	W12
	.byte		N09	
	.byte	W12
	.byte		N04	
	.byte	W06
	.byte		N09	
	.byte	W12
	.byte		N04	
	.byte	W06
	.byte		N09	
	.byte	W12
	.byte		N04	
	.byte	W06
	.byte		N04	
	.byte	W06
	.byte		N04	
	.byte	W06
	.byte		N04	
	.byte	W06
	.byte	PEND
song0015_9_5:
	.byte		N04	, Gn4, v100
	.byte	W06
	.byte		N04	
	.byte	W06
	.byte		N04	
	.byte	W06
	.byte		N04	
	.byte	W06
	.byte		N09	
	.byte	W12
	.byte		N04	
	.byte	W06
	.byte		N09	
	.byte	W12
	.byte		N04	
	.byte	W06
	.byte		N04	
	.byte	W06
	.byte		N04	
	.byte	W06
	.byte		N09	
	.byte	W12
	.byte		N04	
	.byte	W06
	.byte		N04	
	.byte	W06
	.byte	PEND
	.byte			An4
	.byte	W06
	.byte		N04	
	.byte	W06
	.byte		N09	
	.byte	W12
	.byte		N09	
	.byte	W12
	.byte		N04	
	.byte	W06
	.byte		N09	
	.byte	W12
	.byte		N04	
	.byte	W06
	.byte		N09	
	.byte	W12
	.byte		N04	
	.byte	W06
	.byte		N04	
	.byte	W06
	.byte		N04	
	.byte	W06
	.byte		N04	
	.byte	W05
	.byte	BEND	, c_v+63
	.byte	W01
	.byte	PATT	
		.word	song0015_9_3
	.byte	PATT	
		.word	song0015_9_1
	.byte	PATT	
		.word	song0015_9_2
	.byte	PATT	
		.word	song0015_9_1
	.byte	PATT	
		.word	song0015_9_2
	.byte	PATT	
		.word	song0015_9_4
	.byte	PATT	
		.word	song0015_9_5
	.byte		N04	, Dn5, v100
	.byte	W06
	.byte		N04	
	.byte	W06
	.byte		N09	
	.byte	W12
	.byte		N09	
	.byte	W12
	.byte		N04	
	.byte	W06
	.byte		N09	
	.byte	W12
	.byte		N04	
	.byte	W06
	.byte		N09	
	.byte	W12
	.byte		N04	
	.byte	W06
	.byte		N04	
	.byte	W06
	.byte		N04	
	.byte	W06
	.byte		N04	
	.byte	W06
	.byte		N04	
	.byte	W06
	.byte		N04	
	.byte	W06
	.byte		N04	
	.byte	W06
	.byte		N04	
	.byte	W06
	.byte		N09	
	.byte	W12
	.byte		N04	
	.byte	W06
	.byte		N09	
	.byte	W12
	.byte		N04	
	.byte	W06
	.byte		N04	
	.byte	W06
	.byte		N04	
	.byte	W06
	.byte		N09	
	.byte	W12
	.byte		N04	
	.byte	W06
	.byte		N04	
	.byte	W06
	.byte	PATT	
		.word	song0015_9_1
song0015_9_6:
	.byte		N04	, Gs4, v100
	.byte	W06
	.byte		N04	
	.byte	W06
	.byte		N04	
	.byte	W06
	.byte		N04	
	.byte	W06
	.byte		N09	
	.byte	W12
	.byte		N04	
	.byte	W06
	.byte		N09	
	.byte	W12
	.byte		N04	
	.byte	W06
	.byte		N04	
	.byte	W06
	.byte		N04	
	.byte	W06
	.byte		N09	
	.byte	W12
	.byte		N04	
	.byte	W06
	.byte		N04	
	.byte	W06
	.byte	PEND
	.byte	PATT	
		.word	song0015_9_4
song0015_9_7:
	.byte		N04	, En5, v100
	.byte	W06
	.byte		N04	
	.byte	W06
	.byte		N04	
	.byte	W06
	.byte		N04	
	.byte	W06
	.byte		N09	
	.byte	W12
	.byte		N04	
	.byte	W06
	.byte		N09	
	.byte	W12
	.byte		N04	
	.byte	W06
	.byte		N04	
	.byte	W06
	.byte		N04	
	.byte	W06
	.byte		N09	
	.byte	W12
	.byte		N04	
	.byte	W06
	.byte		N04	
	.byte	W06
	.byte	PEND
	.byte	PATT	
		.word	song0015_9_1
	.byte	PATT	
		.word	song0015_9_6
	.byte	PATT	
		.word	song0015_9_4
	.byte	PATT	
		.word	song0015_9_7
song0015_9_8:
	.byte		N04	, Dn4, v100
	.byte	W06
	.byte		N04	
	.byte	W06
	.byte		N09	
	.byte	W12
	.byte		N09	
	.byte	W12
	.byte		N04	
	.byte	W06
	.byte		N09	
	.byte	W12
	.byte		N04	
	.byte	W06
	.byte		N09	
	.byte	W12
	.byte		N04	
	.byte	W06
	.byte		N04	
	.byte	W06
	.byte		N04	
	.byte	W06
	.byte		N04	
	.byte	W06
	.byte	PEND
song0015_9_9:
	.byte		N04	, Cs4, v100
	.byte	W06
	.byte		N04	
	.byte	W06
	.byte		N04	
	.byte	W06
	.byte		N04	
	.byte	W06
	.byte		N09	
	.byte	W12
	.byte		N04	
	.byte	W06
	.byte		N09	
	.byte	W12
	.byte		N04	
	.byte	W06
	.byte		N04	
	.byte	W06
	.byte		N04	
	.byte	W06
	.byte		N09	
	.byte	W12
	.byte		N04	
	.byte	W06
	.byte		N04	
	.byte	W06
	.byte	PEND
	.byte			Cn4
	.byte	W06
	.byte		N04	
	.byte	W06
	.byte		N09	
	.byte	W12
	.byte		N09	
	.byte	W12
	.byte		N04	
	.byte	W06
	.byte		N09	
	.byte	W12
	.byte		N04	
	.byte	W06
	.byte		N09	
	.byte	W12
	.byte		N04	
	.byte	W06
	.byte		N04	
	.byte	W06
	.byte		N04	
	.byte	W06
	.byte		N04	
	.byte	W06
	.byte	PATT	
		.word	song0015_9_2
	.byte	PATT	
		.word	song0015_9_8
	.byte	PATT	
		.word	song0015_9_9
	.byte		N04	, Ds4, v100
	.byte	W06
	.byte		N04	
	.byte	W06
	.byte		N09	
	.byte	W12
	.byte		N09	
	.byte	W12
	.byte		N04	
	.byte	W06
	.byte		N09	
	.byte	W12
	.byte		N04	
	.byte	W06
	.byte		N09	
	.byte	W12
	.byte		N04	
	.byte	W06
	.byte		N04	
	.byte	W06
	.byte		N04	
	.byte	W06
	.byte		N04	
	.byte	W06
	.byte			En4
	.byte	W06
	.byte		N04	
	.byte	W06
	.byte		N04	
	.byte	W06
	.byte		N04	
	.byte	W06
	.byte		N09	
	.byte	W12
	.byte		N04	
	.byte	W06
	.byte		N09	
	.byte	W12
	.byte		N04	
	.byte	W06
	.byte		N04	
	.byte	W06
	.byte		N04	
	.byte	W06
	.byte		N09	
	.byte	W12
	.byte		N04	
	.byte	W06
	.byte		N04	
	.byte	W06
	.byte	BEND	, c_v+63
	.byte	W96
	.byte	GOTO	
		.word	song0015_9_3
	.byte	FINE

	@********************** Track  10 **********************@

	.global song0015_10
song0015_10:	@ 0x08C5A15A
	.byte	KEYSH	, 0
	.byte	VOICE	, 74
	.byte	VOL	, v094
	.byte	PAN	, c_v
	.byte	PRIO	, 15
	.byte	W03
	.byte	W96
	.byte	W96
	.byte	W96
	.byte	W96
	.byte	W96
song0015_10_2:
	.byte	W96
	.byte	W96
	.byte	W96
	.byte	W96
	.byte	W96
	.byte	W96
	.byte	W96
	.byte	W96
	.byte	W96
	.byte	W96
	.byte	W96
	.byte	W96
	.byte	W96
	.byte	W96
	.byte	W96
	.byte	W96
	.byte	W96
	.byte	W24
	.byte		N18	, An1, v112
	.byte	W24
	.byte		N09	, An1, v100
	.byte	W12
	.byte			Cs2
	.byte	W12
	.byte			En2
	.byte	W12
	.byte			Gs2
	.byte	W12
song0015_10_1:
	.byte	W12
	.byte		N09	, Gs2, v100
	.byte	W24
	.byte		N06	
	.byte	W12
	.byte		N12	
	.byte	W12
	.byte			An2
	.byte	W12
	.byte		N09	, Bn2
	.byte	W12
	.byte		N12	, Dn3
	.byte	W12
	.byte	PEND
	.byte	W12
	.byte		N09	
	.byte	W24
	.byte		N09	
	.byte	W12
	.byte		N12	
	.byte	W12
	.byte			Cs3
	.byte	W12
	.byte		N09	, Bn2
	.byte	W12
	.byte		N60	, En2
	.byte	W12
	.byte	W96
	.byte	W24
	.byte		N18	, An1
	.byte	W24
	.byte		N09	
	.byte	W12
	.byte			Cs2
	.byte	W12
	.byte			En2
	.byte	W12
	.byte			Gs2
	.byte	W12
	.byte	PATT	
		.word	song0015_10_1
	.byte	W12
	.byte		N09	, Dn3, v100
	.byte	W24
	.byte		N09	
	.byte	W12
	.byte		N12	, Cs3
	.byte	W12
	.byte			Dn3
	.byte	W12
	.byte			Ds3
	.byte	W12
	.byte		N72	, En3
	.byte	W12
	.byte	W96
	.byte	W96
	.byte	W96
	.byte	W96
	.byte	W96
	.byte	W24
	.byte		N18	, Dn3
	.byte	W24
	.byte		N12	
	.byte	W12
	.byte			Cs3
	.byte	W12
	.byte		N09	, Bn2
	.byte	W12
	.byte		N48	, An2
	.byte	W12
	.byte	W60
	.byte		N12	, En3
	.byte	W12
	.byte		N09	
	.byte	W12
	.byte		N09	
	.byte	W12
	.byte		N18	, Ds3
	.byte	W24
	.byte		N09	
	.byte	W12
	.byte		N18	, En3
	.byte	W24
	.byte		N24	, Fs3
	.byte	W24
	.byte		N18	, En3
	.byte	W12
	.byte	W12
	.byte		N09	
	.byte	W12
	.byte		N09	
	.byte	W12
	.byte		N06	
	.byte	W60
	.byte	W96
	.byte	GOTO	
		.word	song0015_10_2
	.byte	FINE

	.align 2
	.global song0015
song0015:	@ 0x08C5A208
	.byte	10		@ trackCount
	.byte	0		@ blockCount
	.byte	0		@ priority
	.byte	128		@ reverb

	.word	voicegroup022		@ voicegroup/tone

	.word	song0015_1		@ track
	.word	song0015_2		@ track
	.word	song0015_3		@ track
	.word	song0015_4		@ track
	.word	song0015_5		@ track
	.word	song0015_6		@ track
	.word	song0015_7		@ track
	.word	song0015_8		@ track
	.word	song0015_9		@ track
	.word	song0015_10		@ track
