	.include "MPlayDef.s"

	.section .rodata

	@********************** Track  1 **********************@

	.align 2
	.global song0026_1
song0026_1:	@ 0x08C6ABF0
	.byte	KEYSH	, 0
song0026_1_6:
	.byte	TEMPO	, 80
	.byte	VOICE	, 127
	.byte	VOL	, v110
	.byte	PAN	, c_v
	.byte	BENDR	, 3
	.byte		N03	, Dn1, v044
	.byte		N03	, Ds2, v127
	.byte	W06
	.byte			Dn1, v028
	.byte	W06
	.byte		N03	
	.byte	W06
	.byte		N03	
	.byte	W06
	.byte			Dn1, v044
	.byte		N03	, Ds2, v127
	.byte	W06
	.byte			Dn1, v028
	.byte	W06
	.byte		N03	
	.byte	W06
	.byte		N03	
	.byte	W06
	.byte			Dn1, v044
	.byte		N03	, Ds2, v127
	.byte	W06
	.byte			Dn1, v028
	.byte	W06
	.byte		N03	
	.byte	W06
	.byte		N03	
	.byte	W06
	.byte			Dn1, v044
	.byte		N03	, Ds2, v127
	.byte	W06
	.byte			Dn1, v028
	.byte	W06
	.byte		N03	
	.byte	W06
	.byte		N03	
	.byte	W06
song0026_1_1:
	.byte		N03	, Dn1, v044
	.byte		N03	, Ds2, v127
	.byte	W06
	.byte			Dn1, v028
	.byte	W06
	.byte		N03	
	.byte	W06
	.byte		N03	
	.byte	W06
	.byte			Dn1, v044
	.byte		N03	, Ds2, v127
	.byte	W06
	.byte			Dn1, v028
	.byte	W06
	.byte		N03	
	.byte	W06
	.byte		N03	
	.byte	W06
	.byte			Dn1, v044
	.byte		N03	, Ds2, v127
	.byte	W06
	.byte			Dn1, v028
	.byte	W06
	.byte		N03	
	.byte	W06
	.byte		N03	
	.byte	W06
	.byte			Dn1, v044
	.byte		N03	, Ds2, v127
	.byte	W06
	.byte			Dn1, v028
	.byte	W06
	.byte		N03	
	.byte	W06
	.byte		N03	
	.byte	W06
	.byte	PEND
	.byte	PATT	
		.word	song0026_1_1
	.byte	PATT	
		.word	song0026_1_1
song0026_1_2:
	.byte		N03	, Dn1, v044
	.byte		N03	, Ds2, v127
	.byte	W06
	.byte			Dn1, v028
	.byte	W06
	.byte		N04	, Ds1, v068
	.byte	W06
	.byte		N03	, Dn1, v028
	.byte	W06
	.byte			Dn1, v044
	.byte		N03	, Ds2, v127
	.byte	W06
	.byte			Dn1, v028
	.byte	W06
	.byte		N04	, Ds1, v068
	.byte	W06
	.byte		N03	, Dn1, v028
	.byte	W06
	.byte			Dn1, v044
	.byte		N03	, Ds2, v127
	.byte	W06
	.byte			Dn1, v028
	.byte	W06
	.byte		N04	, Ds1, v068
	.byte	W06
	.byte		N03	, Dn1, v028
	.byte	W06
	.byte			Dn1, v044
	.byte		N03	, Ds2, v127
	.byte	W06
	.byte			Dn1, v028
	.byte	W06
	.byte		N04	, Ds1, v068
	.byte	W06
	.byte		N03	, Dn1, v028
	.byte	W06
	.byte	PEND
	.byte	PATT	
		.word	song0026_1_2
	.byte	PATT	
		.word	song0026_1_2
	.byte	PATT	
		.word	song0026_1_2
song0026_1_3:
	.byte		N03	, Dn1, v044
	.byte		N03	, Ds2, v127
	.byte	W06
	.byte			Dn1, v028
	.byte	W06
	.byte		N04	, Ds1, v068
	.byte	W06
	.byte		N03	, Dn1, v028
	.byte	W06
	.byte			Dn1, v044
	.byte		N03	, Ds2, v127
	.byte	W06
	.byte			Dn1, v028
	.byte	W06
	.byte		N04	, Dn1, v068
	.byte	W06
	.byte		N03	, Dn1, v028
	.byte	W06
	.byte			Dn1, v044
	.byte		N03	, Ds2, v127
	.byte	W06
	.byte			Dn1, v028
	.byte	W06
	.byte		N04	, Dn1, v068
	.byte	W06
	.byte		N03	, Dn1, v028
	.byte	W06
	.byte			Dn1, v044
	.byte		N03	, Ds2, v127
	.byte	W06
	.byte			Dn1, v028
	.byte	W06
	.byte		N04	, Dn1, v068
	.byte	W06
	.byte		N03	, Dn1, v028
	.byte	W06
	.byte	PEND
	.byte	PATT	
		.word	song0026_1_3
	.byte	PATT	
		.word	song0026_1_3
	.byte	PATT	
		.word	song0026_1_3
	.byte	PATT	
		.word	song0026_1_3
	.byte	PATT	
		.word	song0026_1_3
	.byte	PATT	
		.word	song0026_1_3
	.byte	PATT	
		.word	song0026_1_3
	.byte	PATT	
		.word	song0026_1_3
	.byte	PATT	
		.word	song0026_1_3
	.byte	PATT	
		.word	song0026_1_3
	.byte	PATT	
		.word	song0026_1_3
	.byte	PATT	
		.word	song0026_1_3
	.byte	PATT	
		.word	song0026_1_3
	.byte	PATT	
		.word	song0026_1_3
	.byte	PATT	
		.word	song0026_1_3
	.byte	PATT	
		.word	song0026_1_3
	.byte	PATT	
		.word	song0026_1_3
	.byte	PATT	
		.word	song0026_1_3
	.byte	PATT	
		.word	song0026_1_3
song0026_1_4:
	.byte		N03	, Ds1, v076
	.byte		N03	, Ds2, v127
	.byte	W06
	.byte			Dn1, v028
	.byte	W06
	.byte			Dn1, v080
	.byte	W06
	.byte			Dn1, v028
	.byte	W06
	.byte			Ds1, v076
	.byte		N03	, Ds2, v127
	.byte	W06
	.byte			Dn1, v028
	.byte	W06
	.byte			Dn1, v080
	.byte	W06
	.byte			Dn1, v028
	.byte	W06
	.byte			Ds1, v076
	.byte		N03	, Ds2, v127
	.byte	W06
	.byte			Dn1, v028
	.byte	W06
	.byte			Dn1, v080
	.byte	W06
	.byte			Dn1, v028
	.byte	W06
	.byte			Ds1, v076
	.byte		N03	, Ds2, v127
	.byte	W06
	.byte			Dn1, v028
	.byte	W06
	.byte			Dn1, v080
	.byte	W06
	.byte			Dn1, v028
	.byte	W06
	.byte	PEND
song0026_1_5:
	.byte		N03	, Ds1, v076
	.byte		N03	, Ds2, v127
	.byte	W06
	.byte			Dn1, v028
	.byte	W06
	.byte			Dn1, v080
	.byte	W06
	.byte			Dn1, v028
	.byte	W06
	.byte			Ds1, v076
	.byte		N03	, Ds2, v127
	.byte	W06
	.byte			Ds1, v060
	.byte	W06
	.byte			Dn1, v080
	.byte	W06
	.byte			Dn1, v028
	.byte	W06
	.byte			Ds1, v076
	.byte		N03	, Ds2, v127
	.byte	W06
	.byte			Ds1, v060
	.byte	W06
	.byte			Dn1, v080
	.byte	W06
	.byte			Dn1, v028
	.byte	W06
	.byte			Ds1, v076
	.byte		N03	, Ds2, v127
	.byte	W06
	.byte			Dn1, v028
	.byte	W06
	.byte			Dn1, v080
	.byte	W06
	.byte			Dn1, v028
	.byte	W06
	.byte	PEND
	.byte	PATT	
		.word	song0026_1_4
	.byte	PATT	
		.word	song0026_1_5
	.byte	PATT	
		.word	song0026_1_4
	.byte	PATT	
		.word	song0026_1_5
	.byte	PATT	
		.word	song0026_1_4
	.byte	PATT	
		.word	song0026_1_5
	.byte	PATT	
		.word	song0026_1_4
	.byte	PATT	
		.word	song0026_1_5
	.byte	PATT	
		.word	song0026_1_4
	.byte	PATT	
		.word	song0026_1_5
	.byte	PATT	
		.word	song0026_1_4
	.byte	PATT	
		.word	song0026_1_5
	.byte	PATT	
		.word	song0026_1_4
	.byte	PATT	
		.word	song0026_1_5
	.byte	GOTO	
		.word	song0026_1_6
	.byte	PATT	
		.word	song0026_1_4
	.byte	PATT	
		.word	song0026_1_5
	.byte		N03	, Ds1, v076
	.byte		N03	, Ds2, v127
	.byte	W06
	.byte			Dn1, v028
	.byte	W06
	.byte			Dn1, v080
	.byte	W06
	.byte			Dn1, v028
	.byte	W03
	.byte	FINE

	@********************** Track  2 **********************@

	.global song0026_2
song0026_2:	@ 0x08C6AE4D
	.byte	KEYSH	, 0
song0026_2_5:
	.byte	VOICE	, 84
	.byte	VOL	, v110
	.byte	PAN	, c_v
	.byte	BENDR	, 13
	.byte	LFOS	, 18
	.byte	LFODL	, 20
	.byte	MOD	, 0
	.byte	MODT	, 0
	.byte	BEND	, c_v
	.byte	W96
	.byte	W96
song0026_2_1:
	.byte	W24
	.byte		N11	, As2, v127
	.byte		N09	, Dn3, v120
	.byte		N13	, Gn3, v127
	.byte	W11
	.byte		N04	, Fn3, v056
	.byte	W03
	.byte		N02	, En3, v088
	.byte	W03
	.byte		N01	, Dn3, v096
	.byte	W01
	.byte			Cn3, v100
	.byte	W01
	.byte			Bn2, v076
	.byte	W02
	.byte			An2, v096
	.byte	W02
	.byte			Gn2, v092
	.byte	W36
	.byte	W02
	.byte		N12	, An2, v096
	.byte		N09	, Fs3, v100
	.byte	W11
	.byte	PEND
song0026_2_2:
	.byte	W36
	.byte		N08	, Fn3, v120
	.byte	W01
	.byte			Gs2, v116
	.byte	W32
	.byte	W03
	.byte		N12	, Gn2, v096
	.byte		N12	, En3, v104
	.byte	W24
	.byte	PEND
	.byte	W96
	.byte	W96
	.byte	PATT	
		.word	song0026_2_1
	.byte	PATT	
		.word	song0026_2_2
	.byte	W96
	.byte	W96
song0026_2_3:
	.byte	W24
	.byte		N12	, Gn2, v116
	.byte		N12	, En3, v120
	.byte	W24
	.byte			An2, v108
	.byte		N12	, Fn3, v120
	.byte	W24
	.byte			As2, v116
	.byte		N12	, Gn3
	.byte	W24
	.byte	PEND
song0026_2_4:
	.byte	W24
	.byte		N12	, Gn2, v108
	.byte		N12	, En3, v116
	.byte	W24
	.byte			An2, v108
	.byte		N12	, Fn3, v116
	.byte	W24
	.byte			As2
	.byte		N12	, Gn3
	.byte	W24
	.byte	PEND
	.byte	W96
	.byte	W96
	.byte	PATT	
		.word	song0026_2_3
	.byte	PATT	
		.word	song0026_2_4
	.byte	W96
	.byte	W96
	.byte	W96
	.byte	W96
	.byte	W96
	.byte	W96
	.byte	W96
	.byte	W96
	.byte	W96
	.byte	W96
	.byte	W96
	.byte	W96
	.byte	W96
	.byte	W96
	.byte	W48
	.byte	W03
	.byte		N44	, Gn1, v127
	.byte	W44
	.byte		N48	, Dn2
	.byte	W01
	.byte	W48
	.byte	W01
	.byte		N44	, Gn2
	.byte	W44
	.byte	W01
	.byte		TIE	, Dn3
	.byte	W02
	.byte	W96
	.byte	W23
	.byte		EOT	
	.byte	W72
	.byte	W01
	.byte	W96
	.byte	W96
	.byte	W96
	.byte	W96
	.byte	W01
	.byte		N48	, As1
	.byte	W48
	.byte		N92	, Dn2
	.byte	W44
	.byte	W03
	.byte	W44
	.byte	W03
	.byte		TIE	, Gn2
	.byte	W48
	.byte	W01
	.byte	W92
	.byte	W01
	.byte		EOT	
	.byte	W03
	.byte	W96
	.byte	W96
	.byte	W96
	.byte	GOTO	
		.word	song0026_2_5
	.byte	FINE

	@********************** Track  3 **********************@

	.global song0026_3
song0026_3:	@ 0x08C6AF25
	.byte	KEYSH	, 0
song0026_3_5:
	.byte	VOICE	, 83
	.byte	VOL	, v095
	.byte	PAN	, c_v
	.byte	BENDR	, 3
	.byte	LFOS	, 56
	.byte	LFODL	, 0
	.byte	MOD	, 0
	.byte	MODT	, 2
	.byte		N06	, Gn1, v127
	.byte	W06
	.byte		N06	
	.byte	W06
	.byte			An1
	.byte	W06
	.byte			Gn1
	.byte	W06
	.byte			As1
	.byte	W06
	.byte		N06	
	.byte	W06
	.byte			Gn1
	.byte	W06
	.byte		N06	
	.byte	W06
	.byte			Cn2
	.byte	W06
	.byte		N06	
	.byte	W06
	.byte			As1
	.byte	W06
	.byte		N06	
	.byte	W06
	.byte			Cs2
	.byte	W06
	.byte		N06	
	.byte	W06
	.byte			Dn2
	.byte	W06
	.byte		N06	
	.byte	W06
song0026_3_1:
	.byte		N06	, Gn1, v127
	.byte	W06
	.byte		N06	
	.byte	W06
	.byte			An1
	.byte	W06
	.byte			Gn1
	.byte	W06
	.byte			As1
	.byte	W06
	.byte		N06	
	.byte	W06
	.byte			Gn1
	.byte	W06
	.byte		N06	
	.byte	W06
	.byte			Cn2
	.byte	W06
	.byte		N06	
	.byte	W06
	.byte			As1
	.byte	W06
	.byte		N06	
	.byte	W06
	.byte			Cs2
	.byte	W06
	.byte		N06	
	.byte	W06
	.byte			Dn2
	.byte	W06
	.byte		N06	
	.byte	W06
	.byte	PEND
	.byte	PATT	
		.word	song0026_3_1
	.byte	PATT	
		.word	song0026_3_1
	.byte	PATT	
		.word	song0026_3_1
	.byte	PATT	
		.word	song0026_3_1
	.byte	PATT	
		.word	song0026_3_1
	.byte	PATT	
		.word	song0026_3_1
	.byte	PATT	
		.word	song0026_3_1
	.byte	PATT	
		.word	song0026_3_1
	.byte	PATT	
		.word	song0026_3_1
	.byte	PATT	
		.word	song0026_3_1
	.byte	PATT	
		.word	song0026_3_1
	.byte	PATT	
		.word	song0026_3_1
	.byte	PATT	
		.word	song0026_3_1
	.byte	PATT	
		.word	song0026_3_1
	.byte	PATT	
		.word	song0026_3_1
	.byte	PATT	
		.word	song0026_3_1
	.byte	PATT	
		.word	song0026_3_1
	.byte	PATT	
		.word	song0026_3_1
song0026_3_2:
	.byte		N06	, As1, v127
	.byte	W06
	.byte		N06	
	.byte	W06
	.byte		N06	
	.byte	W06
	.byte		N06	
	.byte	W06
	.byte			Dn2
	.byte	W12
	.byte			As1
	.byte	W06
	.byte		N06	
	.byte	W06
	.byte			Fn2
	.byte	W12
	.byte			As1
	.byte	W06
	.byte		N06	
	.byte	W06
	.byte			Dn2
	.byte	W06
	.byte		N06	
	.byte	W06
	.byte			Fn2
	.byte	W06
	.byte			Fn3
	.byte	W06
	.byte	PEND
	.byte	PATT	
		.word	song0026_3_2
song0026_3_3:
	.byte		N06	, Cn2, v127
	.byte	W06
	.byte		N06	
	.byte	W06
	.byte		N06	
	.byte	W06
	.byte		N06	
	.byte	W06
	.byte			En2
	.byte	W12
	.byte			Cn2
	.byte	W06
	.byte		N06	
	.byte	W06
	.byte			Gn2
	.byte	W12
	.byte			Cn2
	.byte	W06
	.byte		N06	
	.byte	W06
	.byte			En2
	.byte	W06
	.byte		N06	
	.byte	W06
	.byte			Gn2
	.byte	W06
	.byte			Gn3
	.byte	W06
	.byte	PEND
	.byte	PATT	
		.word	song0026_3_3
	.byte	PATT	
		.word	song0026_3_2
	.byte	PATT	
		.word	song0026_3_2
	.byte	PATT	
		.word	song0026_3_3
	.byte	PATT	
		.word	song0026_3_3
song0026_3_4:
	.byte		N05	, Gn1, v127
	.byte	W06
	.byte		N05	
	.byte	W06
	.byte			An1
	.byte	W06
	.byte		N05	
	.byte	W06
	.byte			As1
	.byte	W06
	.byte			Cn2
	.byte	W06
	.byte			Gn1
	.byte	W06
	.byte		N05	
	.byte	W06
	.byte		N05	
	.byte	W06
	.byte		N05	
	.byte	W06
	.byte			An1
	.byte	W06
	.byte		N05	
	.byte	W06
	.byte			As1
	.byte	W06
	.byte			Cn2
	.byte	W06
	.byte			Gn1
	.byte	W06
	.byte		N06	
	.byte	W06
	.byte	PEND
	.byte	PATT	
		.word	song0026_3_4
	.byte	PATT	
		.word	song0026_3_4
	.byte	PATT	
		.word	song0026_3_4
	.byte	PATT	
		.word	song0026_3_4
	.byte	PATT	
		.word	song0026_3_4
	.byte	PATT	
		.word	song0026_3_4
	.byte	PATT	
		.word	song0026_3_4
	.byte	PATT	
		.word	song0026_3_4
	.byte	PATT	
		.word	song0026_3_4
	.byte	PATT	
		.word	song0026_3_4
	.byte	PATT	
		.word	song0026_3_4
	.byte	PATT	
		.word	song0026_3_4
	.byte	PATT	
		.word	song0026_3_4
	.byte	PATT	
		.word	song0026_3_4
	.byte	PATT	
		.word	song0026_3_4
	.byte	GOTO	
		.word	song0026_3_5
	.byte	PATT	
		.word	song0026_3_4
	.byte	PATT	
		.word	song0026_3_4
	.byte		N05	, Gn1, v127
	.byte	W06
	.byte		N05	
	.byte	W06
	.byte			An1
	.byte	W06
	.byte		N05	
	.byte	W05
	.byte	FINE

	@********************** Track  4 **********************@

	.global song0026_4
song0026_4:	@ 0x08C6B0BA
	.byte	KEYSH	, 0
song0026_4_7:
	.byte	VOICE	, 85
	.byte	VOL	, v067
	.byte	PAN	, c_v
	.byte	BENDR	, 3
	.byte	LFOS	, 56
	.byte	LFODL	, 0
	.byte	MOD	, 0
	.byte	MODT	, 2
	.byte	W96
	.byte	W96
	.byte	W96
	.byte	W96
	.byte	W96
	.byte	W96
	.byte	W96
	.byte	W96
song0026_4_2:
	.byte		N05	, Gn0, v127
	.byte	W06
	.byte			As0
	.byte	W06
	.byte			Dn1
	.byte	W06
	.byte			Gn1
	.byte	W06
	.byte			As1
	.byte	W06
	.byte			Dn2
	.byte	W06
	.byte			Gn2
	.byte	W06
	.byte			As2
	.byte	W06
	.byte			Dn3
	.byte	W06
	.byte			Gn3
	.byte	W06
	.byte			As3
	.byte	W06
	.byte		N05	
	.byte	W06
	.byte			Gn3
	.byte	W06
	.byte			Dn3
	.byte	W06
	.byte			As2
	.byte	W06
	.byte			Gn2
	.byte	W06
	.byte	PEND
song0026_4_3:
	.byte		N05	, Dn2, v127
	.byte	W06
	.byte			As1
	.byte	W06
	.byte			Gn1
	.byte	W06
	.byte			Dn1
	.byte	W06
	.byte			As0
	.byte	W06
	.byte			Gn0
	.byte	W06
	.byte		N05	
	.byte	W06
	.byte			As0
	.byte	W06
	.byte			Dn1
	.byte	W06
	.byte			Gn1
	.byte	W06
	.byte			As1
	.byte	W06
	.byte			Dn2
	.byte	W06
	.byte			Gn2
	.byte	W06
	.byte			As2
	.byte	W06
	.byte			Dn3
	.byte	W06
	.byte			Gn3
	.byte	W06
	.byte	PEND
song0026_4_1:
	.byte		N05	, Gn1, v127
	.byte	W06
	.byte			Cn2
	.byte	W06
	.byte			Gn1
	.byte	W06
	.byte			Gn2
	.byte	W06
	.byte			Cn3
	.byte	W06
	.byte			Cn4
	.byte	W06
	.byte			Cn3
	.byte	W06
	.byte			Cn5
	.byte	W06
	.byte			En3
	.byte	W06
	.byte			Cn4
	.byte	W06
	.byte			Cn5
	.byte	W06
	.byte			Cn4
	.byte	W06
	.byte			Cn2
	.byte	W06
	.byte			Cn3
	.byte	W06
	.byte			Gn3
	.byte	W06
	.byte			En3
	.byte	W06
	.byte	PEND
	.byte	PATT	
		.word	song0026_4_1
	.byte	PATT	
		.word	song0026_4_2
	.byte	PATT	
		.word	song0026_4_3
	.byte	PATT	
		.word	song0026_4_1
	.byte	PATT	
		.word	song0026_4_1
	.byte	W96
	.byte	W96
	.byte	W96
	.byte	W96
	.byte	W24
	.byte		N05	, As2, v127
	.byte	W06
	.byte			Fn2
	.byte	W06
	.byte			As2
	.byte	W06
	.byte			Fn2
	.byte	W06
	.byte			Dn3
	.byte	W06
	.byte			As2
	.byte	W06
	.byte			Dn3
	.byte	W06
	.byte			As2
	.byte	W06
	.byte			Fn3
	.byte	W06
	.byte			Dn3
	.byte	W06
	.byte			Fn3
	.byte	W06
	.byte			Dn3
	.byte	W06
song0026_4_4:
	.byte		N05	, As3, v127
	.byte	W06
	.byte			Fn3
	.byte	W06
	.byte			As3
	.byte	W06
	.byte			Fn3
	.byte	W06
	.byte			Dn4
	.byte	W06
	.byte			As3
	.byte	W06
	.byte			Dn4
	.byte	W06
	.byte			As3
	.byte	W06
	.byte			Fn4
	.byte	W06
	.byte			Dn4
	.byte	W06
	.byte			Fn4
	.byte	W06
	.byte			Dn4
	.byte	W06
	.byte			As4
	.byte	W06
	.byte			Fn4
	.byte	W06
	.byte			As4
	.byte	W06
	.byte			Fn4
	.byte	W06
	.byte	PEND
song0026_4_5:
	.byte		N05	, As4, v112
	.byte	W06
	.byte			Fn4
	.byte	W06
	.byte			As4
	.byte	W06
	.byte			Fn4
	.byte	W06
	.byte			Cn3, v127
	.byte	W06
	.byte			Gn2
	.byte	W06
	.byte			Cn3
	.byte	W06
	.byte			Gn2
	.byte	W06
	.byte			En3
	.byte	W06
	.byte			Cn3
	.byte	W06
	.byte			En3
	.byte	W06
	.byte			Cn3
	.byte	W06
	.byte			Gn3
	.byte	W06
	.byte			En3
	.byte	W06
	.byte			Gn3
	.byte	W06
	.byte			En3
	.byte	W06
	.byte	PEND
song0026_4_6:
	.byte		N05	, Cn4, v127
	.byte	W06
	.byte			Gn3
	.byte	W06
	.byte			Cn4
	.byte	W06
	.byte			Gn3
	.byte	W06
	.byte			En4
	.byte	W06
	.byte			Cn4
	.byte	W06
	.byte			En4
	.byte	W06
	.byte			Cn4
	.byte	W06
	.byte			Gn4
	.byte	W06
	.byte			En4
	.byte	W06
	.byte			Gn4
	.byte	W06
	.byte			En4
	.byte	W06
	.byte			Cn5
	.byte	W06
	.byte			Gn4
	.byte	W06
	.byte			Cn5
	.byte	W06
	.byte			Gn4
	.byte	W06
	.byte	PEND
	.byte			Cn5, v112
	.byte	W06
	.byte			Gn4
	.byte	W06
	.byte			Cn5
	.byte	W06
	.byte			Gn4
	.byte	W06
	.byte			As2, v127
	.byte	W06
	.byte			Fn2
	.byte	W06
	.byte			As2
	.byte	W06
	.byte			Fn2
	.byte	W06
	.byte			Dn3
	.byte	W06
	.byte			As2
	.byte	W06
	.byte			Dn3
	.byte	W06
	.byte			As2
	.byte	W06
	.byte			Fn3
	.byte	W06
	.byte			Dn3
	.byte	W06
	.byte			Fn3
	.byte	W06
	.byte			Dn3
	.byte	W06
	.byte	PATT	
		.word	song0026_4_4
	.byte	PATT	
		.word	song0026_4_5
	.byte	PATT	
		.word	song0026_4_6
	.byte		N05	, Cn5, v104
	.byte	W06
	.byte			Gn4
	.byte	W06
	.byte			Cn5
	.byte	W06
	.byte			Gn4
	.byte	W78
	.byte	W96
	.byte	W96
	.byte	W96
	.byte	W96
	.byte	W96
	.byte	W96
	.byte	W96
	.byte	W96
	.byte	W96
	.byte	W96
	.byte	W96
	.byte	W96
	.byte	W96
	.byte	W96
	.byte	W96
	.byte	GOTO	
		.word	song0026_4_7
	.byte	FINE

	@********************** Track  5 **********************@

	.global song0026_5
song0026_5:	@ 0x08C6B22F
	.byte	KEYSH	, 0
song0026_5_8:
	.byte	VOICE	, 81
	.byte	PRIO	, 30
	.byte	MOD	, 4
	.byte	VOL	, v110
	.byte	PAN	, c_v+63
	.byte	BENDR	, 3
	.byte	PAN	, c_v-64
	.byte	LFOS	, 23
	.byte	LFODL	, 22
	.byte	MOD	, 4
	.byte	MODT	, 0
	.byte		N04	, Gn1, v127
	.byte	W06
	.byte			Gn2
	.byte	W06
	.byte			Gn3
	.byte	W06
	.byte			Gn4, v124
	.byte	W06
	.byte			Gn4, v127
	.byte	W06
	.byte			Gn3
	.byte	W06
	.byte			Gn2
	.byte	W06
	.byte			Gn1
	.byte	W06
	.byte	PAN	, c_v-64
	.byte		N04	, Gn1, v088
	.byte	W06
	.byte			Gn2
	.byte	W06
	.byte			Gn3
	.byte	W06
	.byte			Gn4, v084
	.byte	W06
	.byte			Gn4, v088
	.byte	W06
	.byte			Gn3
	.byte	W06
	.byte			Gn2
	.byte	W06
	.byte			Gn1
	.byte	W06
song0026_5_1:
	.byte		N04	, Gn1, v127
	.byte	W06
	.byte		N04	
	.byte	W06
	.byte			An1
	.byte	W06
	.byte			Gn1
	.byte	W06
	.byte			As1
	.byte	W06
	.byte		N04	
	.byte	W06
	.byte			Gn1
	.byte	W06
	.byte		N04	
	.byte	W06
	.byte			Cn2
	.byte	W06
	.byte		N04	
	.byte	W06
	.byte			As1
	.byte	W06
	.byte		N04	
	.byte	W06
	.byte			Cs2
	.byte	W06
	.byte		N04	
	.byte	W06
	.byte			Dn2
	.byte	W06
	.byte		N04	
	.byte	W06
	.byte	PEND
	.byte	PATT	
		.word	song0026_5_1
	.byte	PATT	
		.word	song0026_5_1
	.byte	MOD	, 4
	.byte	PAN	, c_v+63
	.byte		N04	, Gn1, v127
	.byte	W06
	.byte			Gn2
	.byte	W06
	.byte			Gn3
	.byte	W06
	.byte			Gn4, v124
	.byte	W06
	.byte			Gn4, v127
	.byte	W06
	.byte			Gn3
	.byte	W06
	.byte			Gn2
	.byte	W06
	.byte			Gn1
	.byte	W06
	.byte	PAN	, c_v-64
	.byte		N04	, Gn1, v088
	.byte	W06
	.byte			Gn2
	.byte	W06
	.byte			Gn3
	.byte	W06
	.byte			Gn4, v084
	.byte	W06
	.byte			Gn4, v088
	.byte	W06
	.byte			Gn3
	.byte	W06
	.byte			Gn2
	.byte	W06
	.byte			Gn1
	.byte	W06
	.byte	PATT	
		.word	song0026_5_1
	.byte	PATT	
		.word	song0026_5_1
	.byte		N04	, Gn1, v127
	.byte	W06
	.byte		N04	
	.byte	W06
	.byte			An1
	.byte	W06
	.byte			Gn1
	.byte	W06
	.byte			As1
	.byte	W06
	.byte		N04	
	.byte	W06
	.byte			Gn1
	.byte	W06
	.byte		N04	
	.byte	W06
	.byte			Cn2
	.byte	W06
	.byte		N04	
	.byte	W06
	.byte			As1
	.byte	W06
	.byte		N04	
	.byte	W06
	.byte			Cs2
	.byte	W06
	.byte		N04	
	.byte	W06
	.byte			Dn2
	.byte	W06
	.byte		N04	
	.byte	W04
	.byte	PAN	, c_v
	.byte		N02	, Cs4
	.byte	W02
song0026_5_2:
	.byte	W01
	.byte		N22	, Dn4, v127
	.byte	W22
	.byte		N09	, Cn4
	.byte	W10
	.byte		N24	, Dn4
	.byte	W24
	.byte	W03
	.byte		N10	, Cn4
	.byte	W10
	.byte		N68	, Dn4
	.byte	W24
	.byte	W02
	.byte	PEND
song0026_5_3:
	.byte	W48
	.byte		N11	, Gn3, v127
	.byte	W12
	.byte			As3
	.byte	W10
	.byte		N02	, En4
	.byte	W02
	.byte		N11	, Fn4
	.byte	W12
	.byte		TIE	, En4
	.byte	W12
	.byte	PEND
	.byte	W96
	.byte	W68
	.byte	W02
	.byte		EOT	
	.byte	W24
	.byte		N02	, Cs4
	.byte	W02
	.byte	PATT	
		.word	song0026_5_2
	.byte	PATT	
		.word	song0026_5_3
	.byte	W96
	.byte	W68
	.byte	W02
	.byte		EOT	, En4
	.byte	W24
	.byte	W02
song0026_5_4:
	.byte		N06	, Gn1, v127
	.byte	W06
	.byte		N06	
	.byte	W06
	.byte			An1
	.byte	W06
	.byte			Gn1
	.byte	W06
	.byte			As1
	.byte	W06
	.byte		N06	
	.byte	W06
	.byte			Gn1
	.byte	W06
	.byte		N06	
	.byte	W06
	.byte			Cn2
	.byte	W06
	.byte		N06	
	.byte	W06
	.byte			As1
	.byte	W06
	.byte		N06	
	.byte	W06
	.byte			Cs2
	.byte	W06
	.byte		N06	
	.byte	W06
	.byte			Dn2
	.byte	W06
	.byte		N06	
	.byte	W06
	.byte	PEND
	.byte	PATT	
		.word	song0026_5_4
	.byte	PATT	
		.word	song0026_5_4
	.byte	PATT	
		.word	song0026_5_4
song0026_5_5:
	.byte	W24
	.byte		N24	, Fn3, v127
	.byte	W24
	.byte			Fn4
	.byte	W24
	.byte			Fn3
	.byte	W24
	.byte	PEND
	.byte	PATT	
		.word	song0026_5_5
song0026_5_6:
	.byte	W24
	.byte		N24	, Gn3, v127
	.byte	W24
	.byte			Gn4
	.byte	W24
	.byte			Gn3
	.byte	W24
	.byte	PEND
	.byte	W96
	.byte	PATT	
		.word	song0026_5_5
	.byte	PATT	
		.word	song0026_5_5
	.byte	PATT	
		.word	song0026_5_6
	.byte	W96
song0026_5_7:
	.byte	PAN	, c_v+63
	.byte		N05	, Gn2, v127
	.byte	W06
	.byte			Gn3
	.byte	W06
	.byte			Gn4
	.byte	W06
	.byte			Gn5, v124
	.byte	W06
	.byte			Gn5, v127
	.byte	W06
	.byte			Gn4
	.byte	W06
	.byte			Gn3
	.byte	W06
	.byte			Gn2
	.byte	W06
	.byte	PAN	, c_v-64
	.byte		N05	, Gn2, v088
	.byte	W06
	.byte			Gn3
	.byte	W06
	.byte			Gn4
	.byte	W06
	.byte			Gn5, v084
	.byte	W06
	.byte			Gn5, v088
	.byte	W06
	.byte			Gn4
	.byte	W06
	.byte			Gn3
	.byte	W06
	.byte			Gn2
	.byte	W06
	.byte	PEND
	.byte	W96
	.byte	PAN	, c_v+63
	.byte		N05	, Gn2, v127
	.byte	W06
	.byte			Gn3
	.byte	W06
	.byte			Gn4
	.byte	W06
	.byte			Gn5, v124
	.byte	W06
	.byte			Gn5, v127
	.byte	W06
	.byte			Gn4
	.byte	W06
	.byte			Gn3
	.byte	W06
	.byte			Gn2
	.byte	W54
	.byte	W96
	.byte	W96
	.byte	MOD	, 8
	.byte	W24
	.byte		N36	, An3
	.byte	W36
	.byte	W03
	.byte			Bn3
	.byte	W32
	.byte	W01
	.byte	W02
	.byte		N21	, Cn4
	.byte	W21
	.byte		N15	, Fn4
	.byte	W16
	.byte		N60	, Cn4, v100
	.byte	W56
	.byte	W01
	.byte	W02
	.byte		N05	, Bn3, v127
	.byte	W04
	.byte		N08	, Cn4
	.byte	W07
	.byte		N36	, An3
	.byte	W36
	.byte	W01
	.byte		N05	, Gn3
	.byte	W04
	.byte		N08	, An3
	.byte	W06
	.byte		N32	, Fn3
	.byte	W36
	.byte	PATT	
		.word	song0026_5_7
	.byte	W96
	.byte	W96
	.byte	W96
	.byte	PAN	, c_v+63
	.byte		N05	, Gn2, v127
	.byte	W06
	.byte			Gn3
	.byte	W06
	.byte			Gn4
	.byte	W06
	.byte			Gn5, v124
	.byte	W06
	.byte			Gn5, v127
	.byte	W06
	.byte			Gn4
	.byte	W06
	.byte			Gn3
	.byte	W06
	.byte			Gn2
	.byte	W06
	.byte	PAN	, c_v-64
	.byte		N05	, Gn2, v088
	.byte	W06
	.byte			Gn3
	.byte	W06
	.byte			Gn4
	.byte	W06
	.byte			Gn5, v084
	.byte	W06
	.byte			Gn5, v088
	.byte	W06
	.byte			Gn4
	.byte	W06
	.byte			Gn3
	.byte	W06
	.byte			Gn2
	.byte	W05
	.byte		N01	, Dn4, v127
	.byte	W01
	.byte		N44	
	.byte	W44
	.byte	W03
	.byte			As3
	.byte	W44
	.byte	W03
	.byte		N03	, Gs3
	.byte	W02
	.byte	W01
	.byte		N44	, An3
	.byte	W44
	.byte	W03
	.byte		N01	, Ds3
	.byte	W01
	.byte		N48	, Fn3
	.byte	W44
	.byte	W03
	.byte	W02
	.byte		N92	, Dn3
	.byte	W92
	.byte	W02
	.byte	GOTO	
		.word	song0026_5_8
	.byte	FINE

	@********************** Track  6 **********************@

	.global song0026_6
song0026_6:	@ 0x08C6B460
	.byte	KEYSH	, 0
song0026_6_2:
	.byte	VOICE	, 56
	.byte	MOD	, 4
	.byte	VOL	, v110
	.byte	PAN	, c_v+63
	.byte	BENDR	, 13
	.byte	PAN	, c_v
	.byte	LFOS	, 18
	.byte	LFODL	, 20
	.byte	MOD	, 0
	.byte	MODT	, 0
	.byte	BEND	, c_v
	.byte		N05	, Gn1, v127
	.byte	W06
	.byte			Gn2
	.byte	W06
	.byte			Gn3
	.byte	W06
	.byte			Gn4, v124
	.byte	W06
	.byte			Gn4, v127
	.byte	W06
	.byte			Gn3
	.byte	W06
	.byte			Gn2
	.byte	W06
	.byte			Gn1
	.byte	W06
	.byte	PAN	, c_v-64
	.byte		N05	, Gn1, v088
	.byte	W06
	.byte			Gn2
	.byte	W06
	.byte			Gn3
	.byte	W06
	.byte			Gn4, v084
	.byte	W06
	.byte			Gn4, v088
	.byte	W06
	.byte			Gn3
	.byte	W06
	.byte			Gn2
	.byte	W06
	.byte			Gn1
	.byte	W06
	.byte	W96
	.byte	W96
	.byte	W96
	.byte	MOD	, 4
	.byte	PAN	, c_v+63
	.byte		N05	, Gn1, v127
	.byte	W06
	.byte			Gn2
	.byte	W06
	.byte			Gn3
	.byte	W06
	.byte			Gn4, v124
	.byte	W06
	.byte			Gn4, v127
	.byte	W06
	.byte			Gn3
	.byte	W06
	.byte			Gn2
	.byte	W06
	.byte			Gn1
	.byte	W06
	.byte	PAN	, c_v-64
	.byte		N05	, Gn1, v088
	.byte	W06
	.byte			Gn2
	.byte	W06
	.byte			Gn3
	.byte	W06
	.byte			Gn4, v084
	.byte	W06
	.byte			Gn4, v088
	.byte	W06
	.byte			Gn3
	.byte	W06
	.byte			Gn2
	.byte	W06
	.byte			Gn1
	.byte	W06
	.byte	W96
	.byte	W96
	.byte	W96
	.byte	W96
	.byte	W96
	.byte	W96
	.byte	W96
	.byte	W96
	.byte	W96
	.byte	W96
	.byte	W96
	.byte	VOL	, v110
	.byte	W96
	.byte	W96
	.byte	W96
	.byte	W96
	.byte	W96
	.byte	W96
	.byte	W96
	.byte	W96
	.byte	W96
	.byte	W96
	.byte	W96
	.byte	W96
song0026_6_1:
	.byte	MOD	, 4
	.byte	PAN	, c_v+63
	.byte		N05	, Gn1, v088
	.byte	W06
	.byte			Gn2
	.byte	W06
	.byte			Gn3
	.byte	W06
	.byte			Gn4, v084
	.byte	W06
	.byte			Gn4, v088
	.byte	W06
	.byte			Gn3
	.byte	W06
	.byte			Gn2
	.byte	W06
	.byte			Gn1
	.byte	W06
	.byte	PAN	, c_v-64
	.byte		N05	, Gn1, v048
	.byte	W06
	.byte			Gn2
	.byte	W06
	.byte			Gn3
	.byte	W06
	.byte			Gn4, v044
	.byte	W06
	.byte			Gn4, v048
	.byte	W06
	.byte			Gn3
	.byte	W06
	.byte			Gn2
	.byte	W06
	.byte			Gn1
	.byte	W06
	.byte	PEND
	.byte	W96
	.byte	MOD	, 4
	.byte	PAN	, c_v+63
	.byte		N05	, Gn1, v088
	.byte	W06
	.byte			Gn2
	.byte	W06
	.byte			Gn3
	.byte	W06
	.byte			Gn4, v084
	.byte	W06
	.byte			Gn4, v088
	.byte	W06
	.byte			Gn3
	.byte	W06
	.byte			Gn2
	.byte	W06
	.byte			Gn1
	.byte	W54
	.byte	W96
	.byte	W96
	.byte	W96
	.byte	W96
	.byte	W96
	.byte	PATT	
		.word	song0026_6_1
	.byte	W96
	.byte	W96
	.byte	W96
	.byte	PATT	
		.word	song0026_6_1
	.byte	W96
	.byte	W96
	.byte	W96
	.byte	GOTO	
		.word	song0026_6_2
	.byte	FINE

	@********************** Track  7 **********************@

	.global song0026_7
song0026_7:	@ 0x08C6B54F
	.byte	KEYSH	, 0
song0026_7_6:
	.byte	VOICE	, 82
	.byte	VOL	, v103
	.byte	PAN	, c_v
	.byte	MOD	, 0
	.byte	W96
	.byte	W96
song0026_7_1:
	.byte		N02	, Gn2, v127
	.byte	W06
	.byte		N02	
	.byte	W06
	.byte		N02	
	.byte	W06
	.byte		N02	
	.byte	W06
	.byte		N02	
	.byte	W06
	.byte		N02	
	.byte	W06
	.byte		N02	
	.byte	W06
	.byte		N02	
	.byte	W06
	.byte		N02	
	.byte	W06
	.byte		N02	
	.byte	W06
	.byte		N02	
	.byte	W06
	.byte		N02	
	.byte	W06
	.byte		N02	
	.byte	W06
	.byte		N02	
	.byte	W06
	.byte		N02	
	.byte	W06
	.byte		N02	
	.byte	W06
	.byte	PEND
song0026_7_2:
	.byte		N02	, Gn2, v127
	.byte	W06
	.byte		N02	
	.byte	W06
	.byte		N02	
	.byte	W06
	.byte		N02	
	.byte	W06
	.byte		N02	
	.byte	W06
	.byte		N02	
	.byte	W06
	.byte		N02	
	.byte	W06
	.byte		N02	
	.byte	W06
	.byte		N02	
	.byte	W06
	.byte		N02	
	.byte	W06
	.byte		N02	
	.byte	W06
	.byte		N02	
	.byte	W06
	.byte		N02	
	.byte	W06
	.byte		N02	
	.byte	W06
	.byte		N02	
	.byte	W06
	.byte		N01	
	.byte	W06
	.byte	PEND
	.byte	W96
	.byte	W96
	.byte	PATT	
		.word	song0026_7_1
	.byte	PATT	
		.word	song0026_7_2
song0026_7_4:
	.byte		N05	, Gn1, v100
	.byte	W06
	.byte			As1, v088
	.byte	W06
	.byte			Dn2, v092
	.byte	W06
	.byte			Gn2, v100
	.byte	W06
	.byte			As2, v088
	.byte	W06
	.byte			Dn3, v092
	.byte	W06
	.byte			Gn3, v100
	.byte	W06
	.byte			As3, v088
	.byte	W06
	.byte			Dn4, v092
	.byte	W06
	.byte			Gn4, v100
	.byte	W06
	.byte			As4, v088
	.byte	W06
	.byte		N05	
	.byte	W06
	.byte			Gn4, v100
	.byte	W06
	.byte			Dn4, v092
	.byte	W06
	.byte			As3, v088
	.byte	W06
	.byte			Gn3, v100
	.byte	W06
	.byte	PEND
song0026_7_5:
	.byte		N05	, Dn3, v092
	.byte	W06
	.byte			As2, v088
	.byte	W06
	.byte			Gn2, v100
	.byte	W06
	.byte			Dn2, v092
	.byte	W06
	.byte			As1, v088
	.byte	W06
	.byte			Gn1, v100
	.byte	W06
	.byte		N05	
	.byte	W06
	.byte			As1, v088
	.byte	W06
	.byte			Dn2, v092
	.byte	W06
	.byte			Gn2, v100
	.byte	W06
	.byte			As2, v088
	.byte	W06
	.byte			Dn3, v092
	.byte	W06
	.byte			Gn3, v100
	.byte	W06
	.byte			As3, v088
	.byte	W06
	.byte			Dn4, v092
	.byte	W06
	.byte			Gn4, v100
	.byte	W06
	.byte	PEND
song0026_7_3:
	.byte		N05	, Gn2, v092
	.byte	W06
	.byte			Cn3, v088
	.byte	W06
	.byte			Gn2, v092
	.byte	W06
	.byte			Gn3
	.byte	W06
	.byte			Cn4, v088
	.byte	W06
	.byte			Cn5
	.byte	W06
	.byte			Cn4
	.byte	W06
	.byte			Cn6
	.byte	W06
	.byte			En4
	.byte	W06
	.byte			Cn5
	.byte	W06
	.byte			Cn6
	.byte	W06
	.byte			Cn5
	.byte	W06
	.byte			Cn3
	.byte	W06
	.byte			Cn4
	.byte	W06
	.byte			Gn4, v092
	.byte	W06
	.byte			En4, v088
	.byte	W06
	.byte	PEND
	.byte	PATT	
		.word	song0026_7_3
	.byte	PATT	
		.word	song0026_7_4
	.byte	PATT	
		.word	song0026_7_5
	.byte	PATT	
		.word	song0026_7_3
	.byte	PATT	
		.word	song0026_7_3
	.byte	W96
	.byte	W96
	.byte	W96
	.byte	W96
	.byte	W96
	.byte	W96
	.byte	W96
	.byte	W96
	.byte	W96
	.byte	W96
	.byte	W96
	.byte	W96
	.byte	W96
	.byte	W96
	.byte	W96
	.byte	W96
	.byte	W96
	.byte	W96
	.byte	W96
	.byte	W96
	.byte	W96
	.byte	W96
	.byte	W96
	.byte	W96
	.byte	W96
	.byte	W96
	.byte	W96
	.byte	W96
	.byte	GOTO	
		.word	song0026_7_6
	.byte	FINE

	@********************** Track  8 **********************@

	.global song0026_8
song0026_8:	@ 0x08C6B672
	.byte	KEYSH	, 0
song0026_8_7:
	.byte	VOICE	, 88
	.byte	VOL	, v103
	.byte	PAN	, c_v-62
	.byte	MOD	, 0
	.byte	W96
	.byte	W96
	.byte	W96
	.byte	W96
	.byte	W96
	.byte	W96
	.byte	W96
	.byte	W96
	.byte	W96
	.byte	W96
	.byte	W96
	.byte	W96
	.byte	W96
	.byte	W96
	.byte	W96
	.byte	W96
	.byte	W96
	.byte	W96
song0026_8_1:
	.byte		N06	, Gn1, v068
	.byte	W06
	.byte		N06	
	.byte	W06
	.byte			An1
	.byte	W06
	.byte			Gn1
	.byte	W06
	.byte			As1
	.byte	W06
	.byte		N06	
	.byte	W06
	.byte			Gn1
	.byte	W06
	.byte		N06	
	.byte	W06
	.byte			Cn2
	.byte	W06
	.byte		N06	
	.byte	W06
	.byte			As1
	.byte	W06
	.byte		N06	
	.byte	W06
	.byte			Cs2
	.byte	W06
	.byte		N06	
	.byte	W06
	.byte			Dn2
	.byte	W06
	.byte		N06	
	.byte	W06
	.byte	PEND
	.byte	PATT	
		.word	song0026_8_1
song0026_8_2:
	.byte	VOL	, v054
	.byte	W06
	.byte		v058
	.byte	W06
	.byte		v061
	.byte	W06
	.byte		v064
	.byte	W06
	.byte		v068
	.byte	W06
	.byte		v071
	.byte	W06
	.byte		v075
	.byte	W06
	.byte		v078
	.byte		N24	, Fn3, v060
	.byte	W06
	.byte	VOL	, v082
	.byte	W06
	.byte		v085
	.byte	W06
	.byte		v089
	.byte	W06
	.byte		v092
	.byte		N24	, Fn4
	.byte	W06
	.byte	VOL	, v096
	.byte	W06
	.byte		v099
	.byte	W06
	.byte		v103
	.byte	W06
	.byte		v106
	.byte		N24	, Fn3, v040
	.byte	W06
	.byte	PEND
song0026_8_3:
	.byte	VOL	, v110
	.byte	W06
	.byte		v107
	.byte	W06
	.byte		v103
	.byte	W06
	.byte		v100
	.byte	W06
	.byte		v097
	.byte	W06
	.byte		v094
	.byte	W06
	.byte		v090
	.byte	W06
	.byte		v088
	.byte		N24	, Fn3, v068
	.byte	W06
	.byte	VOL	, v084
	.byte	W06
	.byte		v081
	.byte	W06
	.byte		v078
	.byte	W06
	.byte		v075
	.byte		N24	, Fn4, v052
	.byte	W06
	.byte	VOL	, v071
	.byte	W06
	.byte		v069
	.byte	W06
	.byte		v065
	.byte	W06
	.byte		v062
	.byte		N24	, Fn3, v056
	.byte	W06
	.byte	PEND
song0026_8_4:
	.byte	VOL	, v054
	.byte	W06
	.byte		v058
	.byte	W06
	.byte		v061
	.byte	W06
	.byte		v064
	.byte	W06
	.byte		v068
	.byte	W06
	.byte		v071
	.byte	W06
	.byte		v075
	.byte	W06
	.byte		v078
	.byte		N24	, Gn3, v056
	.byte	W06
	.byte	VOL	, v082
	.byte	W06
	.byte		v085
	.byte	W06
	.byte		v089
	.byte	W06
	.byte		v092
	.byte		N24	, Gn4, v068
	.byte	W06
	.byte	VOL	, v096
	.byte	W06
	.byte		v099
	.byte	W06
	.byte		v103
	.byte	W06
	.byte		v106
	.byte		N24	, Gn3
	.byte	W06
	.byte	PEND
song0026_8_5:
	.byte	VOL	, v110
	.byte	W06
	.byte		v107
	.byte	W06
	.byte		v103
	.byte	W06
	.byte		v100
	.byte	W06
	.byte		v097
	.byte	W06
	.byte		v094
	.byte	W06
	.byte		v090
	.byte	W06
	.byte		v088
	.byte	W06
	.byte		v084
	.byte	W06
	.byte		v081
	.byte	W06
	.byte		v078
	.byte	W06
	.byte		v075
	.byte	W06
	.byte		v071
	.byte	W06
	.byte		v069
	.byte	W06
	.byte		v065
	.byte	W06
	.byte		v062
	.byte	W06
	.byte	PEND
	.byte	PATT	
		.word	song0026_8_2
	.byte	PATT	
		.word	song0026_8_3
	.byte	PATT	
		.word	song0026_8_4
	.byte	PATT	
		.word	song0026_8_5
song0026_8_6:
	.byte		N05	, Gn1, v127
	.byte	W06
	.byte		N05	
	.byte	W06
	.byte			An1
	.byte	W06
	.byte		N05	
	.byte	W06
	.byte			As1
	.byte	W06
	.byte			Cn2
	.byte	W06
	.byte			Gn1
	.byte	W06
	.byte		N05	
	.byte	W06
	.byte		N05	
	.byte	W06
	.byte		N05	
	.byte	W06
	.byte			An1
	.byte	W06
	.byte		N05	
	.byte	W06
	.byte			As1
	.byte	W06
	.byte			Cn2
	.byte	W06
	.byte			Gn1
	.byte	W06
	.byte		N06	
	.byte	W06
	.byte	PEND
	.byte	PATT	
		.word	song0026_8_6
	.byte	PATT	
		.word	song0026_8_6
	.byte	PATT	
		.word	song0026_8_6
	.byte	PATT	
		.word	song0026_8_6
	.byte	PATT	
		.word	song0026_8_6
	.byte	PATT	
		.word	song0026_8_6
	.byte	PATT	
		.word	song0026_8_6
	.byte	PATT	
		.word	song0026_8_6
	.byte	PATT	
		.word	song0026_8_6
	.byte	PATT	
		.word	song0026_8_6
	.byte	PATT	
		.word	song0026_8_6
	.byte	PATT	
		.word	song0026_8_6
	.byte	PATT	
		.word	song0026_8_6
	.byte	PATT	
		.word	song0026_8_6
	.byte	PATT	
		.word	song0026_8_6
	.byte	GOTO	
		.word	song0026_8_7
	.byte	PATT	
		.word	song0026_8_6
	.byte	PATT	
		.word	song0026_8_6
	.byte		N05	, Gn1, v127
	.byte	W06
	.byte		N05	
	.byte	W06
	.byte			An1
	.byte	W06
	.byte		N05	
	.byte	W05
	.byte	FINE

	@********************** Track  9 **********************@

	.global song0026_9
song0026_9:	@ 0x08C6B7F9
	.byte	KEYSH	, 0
song0026_9_1:
	.byte	VOICE	, 65
	.byte	VOL	, v080
	.byte	PAN	, c_v
	.byte	BENDR	, 3
	.byte	LFOS	, 56
	.byte	LFODL	, 0
	.byte	MOD	, 0
	.byte	MODT	, 2
	.byte	W96
	.byte		TIE	, Dn3, v127
	.byte		TIE	, Gn3
	.byte	W96
	.byte	W24
	.byte		EOT	, Dn3
	.byte			Gn3
	.byte	W72
	.byte	W96
	.byte	W96
	.byte	W24
	.byte		N96	, Dn3
	.byte		N96	, Gn3
	.byte	W72
	.byte	W96
	.byte	W96
	.byte		N92	, Dn3, v116
	.byte		N92	, Gn3, v108
	.byte	W96
	.byte			Dn3, v116
	.byte		N92	, Fn3, v092
	.byte	W96
	.byte		TIE	, Cn3
	.byte		TIE	, En3, v096
	.byte	W96
	.byte	W92
	.byte	W03
	.byte		EOT	, Cn3
	.byte			En3
	.byte	W01
	.byte		N92	, Dn3, v088
	.byte		N92	, Gn3, v104
	.byte	W96
	.byte			Dn3, v088
	.byte		N92	, Fn3, v076
	.byte	W96
	.byte		TIE	, Cn3, v096
	.byte		TIE	, En3, v088
	.byte	W96
	.byte	W96
	.byte		EOT	, Cn3
	.byte			En3
	.byte	W96
	.byte	W96
	.byte		N05	, Gn3, v108
	.byte	W06
	.byte			Dn4
	.byte	W06
	.byte			Gn4
	.byte	W06
	.byte			Dn5
	.byte	W06
	.byte			Gn5
	.byte	W06
	.byte		N05	
	.byte	W06
	.byte			Dn5
	.byte	W06
	.byte			Gn4
	.byte	W06
	.byte			Dn4
	.byte	W06
	.byte			Gn3
	.byte	W06
	.byte		N05	
	.byte	W06
	.byte			Dn4
	.byte	W06
	.byte			Gn4
	.byte	W06
	.byte			Dn5
	.byte	W06
	.byte			Gn5
	.byte	W06
	.byte		N05	
	.byte	W06
	.byte			Dn5
	.byte	W06
	.byte			Gn4
	.byte	W06
	.byte			Dn4
	.byte	W06
	.byte			Gn3
	.byte	W06
	.byte			Gn3, v104
	.byte	W06
	.byte			Dn4, v096
	.byte	W06
	.byte			Gn4, v088
	.byte	W06
	.byte			Dn5, v076
	.byte	W06
	.byte			Gn3, v068
	.byte	W06
	.byte			Dn4, v060
	.byte	W06
	.byte			Gn4, v048
	.byte	W06
	.byte			Dn5, v040
	.byte	W06
	.byte			Gn3, v032
	.byte	W06
	.byte			Dn4, v020
	.byte	W06
	.byte			Gn4, v012
	.byte	W06
	.byte			Dn5, v004
	.byte	W06
	.byte		N92	, As2, v127
	.byte		N92	, As3
	.byte	W92
	.byte	W02
	.byte		N44	, An2
	.byte		N44	, An3
	.byte	W02
	.byte	W44
	.byte	W02
	.byte		N48	, As2
	.byte		N48	, As3
	.byte	W48
	.byte	W01
	.byte		N92	, Cn3
	.byte		N92	, Cn4
	.byte	W01
	.byte	W92
	.byte	W02
	.byte		N44	, Gn2
	.byte		N44	, Gn3
	.byte	W02
	.byte	W44
	.byte	W02
	.byte		N48	, An2
	.byte		N48	, An3
	.byte	W48
	.byte	W02
	.byte		N92	, As2
	.byte		N92	, As3
	.byte	W92
	.byte	W03
	.byte		N44	, An2
	.byte		N44	, An3
	.byte	W01
	.byte	W44
	.byte	W02
	.byte			As2
	.byte		N44	, As3
	.byte	W44
	.byte	W03
	.byte		TIE	, Cn3
	.byte		TIE	, Cn4
	.byte	W03
	.byte	W92
	.byte	W02
	.byte		EOT	, Cn3
	.byte			Cn4
	.byte	W01
	.byte		N44	, Dn3
	.byte		N44	, Dn4
	.byte	W01
	.byte	W44
	.byte	W03
	.byte			En3
	.byte		N44	, En4
	.byte	W48
	.byte	W01
	.byte	W96
	.byte	W96
	.byte	W96
	.byte	W96
	.byte	W96
	.byte	W96
	.byte	W96
	.byte	W96
	.byte	W96
	.byte	W96
	.byte	W96
	.byte	W96
	.byte	W96
	.byte	W96
	.byte	W96
	.byte	W96
	.byte	GOTO	
		.word	song0026_9_1
	.byte	FINE

	@********************** Track  10 **********************@

	.global song0026_10
song0026_10:	@ 0x08C6B909
	.byte	KEYSH	, 0
song0026_10_1:
	.byte	VOICE	, 89
	.byte	VOL	, v069
	.byte	PAN	, c_v
	.byte	BENDR	, 3
	.byte	LFOS	, 56
	.byte	LFODL	, 0
	.byte	MOD	, 0
	.byte	MODT	, 2
	.byte		N92	, Gn2, v127
	.byte	W96
	.byte	W96
	.byte	W96
	.byte	W96
	.byte		N92	
	.byte	W96
	.byte	W96
	.byte	W96
	.byte	W96
	.byte		N92	
	.byte	W96
	.byte	W96
	.byte	W96
	.byte	W96
	.byte		N92	
	.byte	W96
	.byte	W96
	.byte	W96
	.byte	W96
	.byte		N92	
	.byte	W96
	.byte	W96
	.byte	W96
	.byte	W96
	.byte	W96
	.byte	W96
	.byte	W96
	.byte	W96
	.byte	W96
	.byte	W96
	.byte	W96
	.byte	W96
	.byte		N92	
	.byte	W96
	.byte	W96
	.byte	W96
	.byte	W96
	.byte	W96
	.byte	W96
	.byte	W96
	.byte	W96
	.byte	W96
	.byte	W96
	.byte	W96
	.byte	W96
	.byte	W96
	.byte	W96
	.byte	W96
	.byte	W96
	.byte	GOTO	
		.word	song0026_10_1
	.byte	FINE

	@********************** Track  11 **********************@

	.global song0026_11
song0026_11:	@ 0x08C6B955
	.byte	KEYSH	, 0
song0026_11_1:
	.byte	VOICE	, 76
	.byte	VOL	, v105
	.byte	PAN	, c_v
	.byte	BENDR	, 3
	.byte	LFOS	, 56
	.byte	LFODL	, 0
	.byte	MOD	, 0
	.byte	MODT	, 2
	.byte	W96
	.byte	W96
	.byte	W96
	.byte	W96
	.byte	W96
	.byte	W96
	.byte	W96
	.byte	W96
	.byte	W96
	.byte	W96
	.byte	W96
	.byte	W96
	.byte	W96
	.byte	W96
	.byte	W96
	.byte	W96
	.byte	W96
	.byte	W96
	.byte	W96
	.byte	W96
	.byte	W96
	.byte	W96
	.byte	W96
	.byte	W96
	.byte	W96
	.byte	W96
	.byte	W96
	.byte	W96
	.byte		N90	, Dn2, v127
	.byte		N92	, Gn2
	.byte	W92
	.byte	W03
	.byte			Cs2
	.byte		N92	, Fs2
	.byte	W01
	.byte	W92
	.byte	W01
	.byte		TIE	, Fn2
	.byte	W01
	.byte			Cn2
	.byte	W02
	.byte	W96
	.byte	W84
	.byte		EOT	
	.byte	W01
	.byte		EOT	, Fn2
	.byte	W11
	.byte		N12	, Bn1
	.byte		N12	, En2
	.byte	W18
	.byte			Cn2
	.byte		N12	, Fn2
	.byte	W17
	.byte		TIE	, Dn2
	.byte		TIE	, Gn2
	.byte	W60
	.byte	W01
	.byte	W24
	.byte		N36	, An3
	.byte	W36
	.byte	W03
	.byte		N32	, Bn3
	.byte	W32
	.byte		EOT	, Gn2
	.byte	W01
	.byte			Dn2
	.byte	W02
	.byte		N20	, Cn4
	.byte	W21
	.byte		N15	, Fn4
	.byte	W16
	.byte		N56	, Cn4, v100
	.byte	W56
	.byte	W01
	.byte	W02
	.byte		N03	, Bn3, v127
	.byte	W04
	.byte		N06	, Cn4
	.byte	W07
	.byte		N36	, An3
	.byte	W36
	.byte	W01
	.byte		N03	, Gn3
	.byte	W04
	.byte		N06	, An3
	.byte	W06
	.byte		N36	, Fn3
	.byte	W32
	.byte	W03
	.byte		N92	, Dn2
	.byte		N96	, Gn2
	.byte	W01
	.byte	W92
	.byte	W03
	.byte		N92	, Cs2
	.byte		N92	, Fs2
	.byte	W01
	.byte	W92
	.byte	W03
	.byte		TIE	, Cn2
	.byte		TIE	, Fn2
	.byte	W01
	.byte	W96
	.byte	W84
	.byte	W03
	.byte		EOT	, Cn2
	.byte			Fn2
	.byte	W09
	.byte		N12	, Bn1
	.byte		N12	, En2
	.byte	W18
	.byte			Cn2
	.byte		N12	, Fn2
	.byte	W18
	.byte		TIE	, Dn2
	.byte		TIE	, Gn2
	.byte	W56
	.byte	W03
	.byte		N01	, Dn4
	.byte	W01
	.byte		N44	
	.byte	W44
	.byte	W03
	.byte			As3
	.byte	W36
	.byte	W03
	.byte		EOT	, Dn2
	.byte			Gn2
	.byte	W08
	.byte		N03	, Gs3
	.byte	W02
	.byte	W01
	.byte		N44	, An3
	.byte	W44
	.byte	W03
	.byte		N01	, Ds3
	.byte	W01
	.byte		N48	, Fn3
	.byte	W44
	.byte	W03
	.byte	W02
	.byte		N92	, Dn3
	.byte	W92
	.byte	W02
	.byte	GOTO	
		.word	song0026_11_1
	.byte	FINE

	.align 2
	.global song0026
song0026:	@ 0x08C6BA2C
	.byte	11		@ trackCount
	.byte	0		@ blockCount
	.byte	0		@ priority
	.byte	128		@ reverb

	.word	voicegroup013		@ voicegroup/tone

	.word	song0026_1		@ track
	.word	song0026_2		@ track
	.word	song0026_3		@ track
	.word	song0026_4		@ track
	.word	song0026_5		@ track
	.word	song0026_6		@ track
	.word	song0026_7		@ track
	.word	song0026_8		@ track
	.word	song0026_9		@ track
	.word	song0026_10		@ track
	.word	song0026_11		@ track
