	.include "MPlayDef.s"

	.section .rodata

	@********************** Track  1 **********************@

	.align 2
	.global song0019_1
song0019_1:	@ 0x08C5DDD4
	.byte	KEYSH	, 0
	.byte	TEMPO	, 70
	.byte	VOICE	, 124
	.byte	VOL	, v086
	.byte	W96
	.byte	W96
	.byte	W96
	.byte	W96
song0019_1_1:
	.byte	W12
	.byte		N05	, Cs1, v127
	.byte	W06
	.byte			Dn1
	.byte	W06
	.byte			Ds1
	.byte	W06
	.byte			En1
	.byte	W06
	.byte			Fn1
	.byte	W06
	.byte			Fs1
	.byte	W12
	.byte			Gs1
	.byte	W06
	.byte			An1
	.byte	W06
	.byte			As1
	.byte	W06
	.byte			Bn1
	.byte	W06
	.byte			Cn2
	.byte	W06
	.byte			Cs2
	.byte	W06
	.byte			Dn2
	.byte	W06
	.byte	PEND
song0019_1_2:
	.byte	W12
	.byte		N05	, Fn2, v127
	.byte	W06
	.byte			Fs2
	.byte	W06
	.byte			Gn2
	.byte	W06
	.byte			Gs2
	.byte	W06
	.byte			An2
	.byte	W06
	.byte			As2
	.byte	W12
	.byte			Cn3
	.byte	W06
	.byte			Cs3
	.byte	W06
	.byte			Dn3
	.byte	W06
	.byte			Ds3
	.byte	W06
	.byte			En3
	.byte	W06
	.byte			Fn3
	.byte	W06
	.byte			Fs3
	.byte	W06
	.byte	PEND
	.byte	PATT	
		.word	song0019_1_1
song0019_1_4:
	.byte	W12
	.byte		N05	, Fn2, v127
	.byte	W06
	.byte			Fs2
	.byte	W06
	.byte			Gn2
	.byte	W06
	.byte			Gs2
	.byte	W06
	.byte			An2
	.byte	W06
	.byte			As2
	.byte	W12
	.byte		N02	, Cn3
	.byte	W03
	.byte		N02	
	.byte	W03
	.byte		N05	, Cs3
	.byte	W06
	.byte			Dn3
	.byte	W06
	.byte			Ds3
	.byte	W06
	.byte			En3
	.byte	W06
	.byte			Fn3
	.byte	W06
	.byte			Fs3
	.byte	W06
	.byte	PEND
	.byte	PATT	
		.word	song0019_1_1
	.byte	PATT	
		.word	song0019_1_2
	.byte	PATT	
		.word	song0019_1_1
	.byte	PATT	
		.word	song0019_1_2
	.byte	PATT	
		.word	song0019_1_1
	.byte	PATT	
		.word	song0019_1_2
	.byte	PATT	
		.word	song0019_1_1
song0019_1_3:
	.byte	W12
	.byte		N05	, Fn2, v127
	.byte	W06
	.byte			Fs2
	.byte	W06
	.byte			Gn2
	.byte	W06
	.byte			Gs2
	.byte	W06
	.byte			An2
	.byte	W06
	.byte			As2
	.byte	W12
	.byte			Cn3
	.byte	W06
	.byte			Dn2
	.byte	W06
	.byte		N05	
	.byte	W06
	.byte			Ds3
	.byte	W06
	.byte		N02	, Dn2
	.byte	W03
	.byte		N02	
	.byte	W03
	.byte		N02	
	.byte	W03
	.byte		N02	
	.byte	W03
	.byte		N05	, Fs3
	.byte	W06
	.byte	PEND
	.byte	PATT	
		.word	song0019_1_1
	.byte	W12
	.byte		N05	, Gs2, v127
	.byte	W06
	.byte		N05	
	.byte	W06
	.byte			Fn2
	.byte	W06
	.byte			Gs2
	.byte	W06
	.byte			Dn2
	.byte	W06
	.byte			As2
	.byte	W18
	.byte			Cs3
	.byte	W06
	.byte			Dn3
	.byte	W18
	.byte			Fn3
	.byte	W06
	.byte			Fs3
	.byte	W06
	.byte	PATT	
		.word	song0019_1_1
	.byte	PATT	
		.word	song0019_1_2
	.byte	W12
	.byte		N05	, Cs1, v127
	.byte	W06
	.byte			Dn1
	.byte	W18
	.byte			Fn1
	.byte	W06
	.byte			Fs1
	.byte	W18
	.byte			An1
	.byte	W06
	.byte			As1
	.byte	W18
	.byte			Cs2
	.byte	W06
	.byte			Dn2
	.byte	W06
	.byte	PATT	
		.word	song0019_1_2
	.byte	PATT	
		.word	song0019_1_1
	.byte	PATT	
		.word	song0019_1_3
	.byte	PATT	
		.word	song0019_1_1
	.byte	PATT	
		.word	song0019_1_2
	.byte	PATT	
		.word	song0019_1_1
	.byte	PATT	
		.word	song0019_1_4
	.byte	PATT	
		.word	song0019_1_1
	.byte	PATT	
		.word	song0019_1_2
	.byte	PATT	
		.word	song0019_1_1
	.byte	PATT	
		.word	song0019_1_2
	.byte	PATT	
		.word	song0019_1_1
	.byte	PATT	
		.word	song0019_1_2
	.byte	PATT	
		.word	song0019_1_1
	.byte	PATT	
		.word	song0019_1_3
	.byte	PATT	
		.word	song0019_1_1
	.byte	PATT	
		.word	song0019_1_2
	.byte	PATT	
		.word	song0019_1_1
	.byte	PATT	
		.word	song0019_1_2
	.byte	PATT	
		.word	song0019_1_1
	.byte	PATT	
		.word	song0019_1_2
	.byte	PATT	
		.word	song0019_1_1
	.byte	PATT	
		.word	song0019_1_4
	.byte	W96
	.byte	W96
	.byte	W96
	.byte	W96
	.byte	GOTO	
		.word	song0019_1_1
	.byte	FINE

	@********************** Track  2 **********************@

	.global song0019_2
song0019_2:	@ 0x08C5DF40
	.byte	KEYSH	, 0
	.byte	VOICE	, 127
	.byte	VOL	, v110
	.byte		N05	, Dn1, v028
	.byte		N68	, Fs2, v124
	.byte	W06
	.byte		N05	, Dn1, v048
	.byte	W06
	.byte		N11	, Ds1
	.byte	W12
	.byte		N05	, Dn1, v028
	.byte		N23	, Ds2, v124
	.byte	W06
	.byte		N05	, Dn1, v048
	.byte	W06
	.byte		N11	, Ds1
	.byte	W12
	.byte		N05	, Dn1, v028
	.byte	W06
	.byte			Dn1, v048
	.byte	W06
	.byte		N11	, Ds1
	.byte	W12
	.byte		N05	, Dn1, v028
	.byte		N23	, Ds2, v124
	.byte	W06
	.byte		N05	, Dn1, v048
	.byte	W06
	.byte		N11	, Ds1
	.byte	W12
song0019_2_4:
	.byte		N05	, Dn1, v028
	.byte		N68	, Gn2, v124
	.byte	W06
	.byte		N05	, Dn1, v048
	.byte	W06
	.byte		N11	, Ds1
	.byte	W12
	.byte		N05	, Dn1, v028
	.byte		N23	, Ds2, v124
	.byte	W06
	.byte		N05	, Dn1, v048
	.byte	W06
	.byte		N11	, Ds1
	.byte	W12
	.byte		N05	, Dn1, v028
	.byte	W06
	.byte			Dn1, v048
	.byte	W06
	.byte		N11	, Ds1
	.byte	W12
	.byte		N05	, Dn1, v028
	.byte		N23	, Ds2, v124
	.byte	W06
	.byte		N05	, Dn1, v048
	.byte	W06
	.byte		N11	, Ds1
	.byte	W12
	.byte	PEND
song0019_2_5:
	.byte		N05	, Dn1, v028
	.byte		N68	, Fs2, v124
	.byte	W06
	.byte		N05	, Dn1, v048
	.byte	W06
	.byte		N11	, Ds1
	.byte	W12
	.byte		N05	, Dn1, v028
	.byte		N23	, Ds2, v124
	.byte	W06
	.byte		N05	, Dn1, v048
	.byte	W06
	.byte		N11	, Ds1
	.byte	W12
	.byte		N05	, Dn1, v028
	.byte	W06
	.byte			Dn1, v048
	.byte	W06
	.byte		N11	, Ds1
	.byte	W12
	.byte		N05	, Dn1, v028
	.byte		N23	, Ds2, v124
	.byte	W06
	.byte		N05	, Dn1, v048
	.byte	W06
	.byte		N11	, Ds1
	.byte	W12
	.byte	PEND
song0019_2_6:
	.byte		N05	, Dn1, v028
	.byte		N44	, Gn2, v124
	.byte	W06
	.byte		N05	, Dn1, v048
	.byte	W06
	.byte		N11	, Ds1
	.byte	W12
	.byte		N05	, Dn1, v028
	.byte		N23	, Ds2, v124
	.byte	W06
	.byte		N05	, Dn1, v048
	.byte	W06
	.byte		N11	, Ds1
	.byte	W12
	.byte		N05	, Dn1, v028
	.byte		N11	, Ds2, v124
	.byte	W06
	.byte		N05	, Dn1, v048
	.byte	W06
	.byte		N11	, Ds1
	.byte		N02	, En2, v124
	.byte	W03
	.byte		N02	
	.byte	W03
	.byte		N02	
	.byte	W03
	.byte		N02	
	.byte	W03
	.byte		N05	, Dn1, v028
	.byte		N05	, En2, v124
	.byte	W06
	.byte			Dn1, v048
	.byte		N05	, Ds2, v124
	.byte	W06
	.byte		N11	, Ds1, v048
	.byte		N05	, En2, v124
	.byte	W06
	.byte		N05	
	.byte	W06
	.byte	PEND
song0019_2_2:
	.byte		N05	, Dn1, v028
	.byte		N11	, Ds2, v127
	.byte		N92	, Fs2
	.byte	W06
	.byte		N05	, Dn1, v048
	.byte	W06
	.byte		N11	, Ds1
	.byte	W12
	.byte		N05	, Dn1, v028
	.byte		N11	, Ds2, v127
	.byte	W06
	.byte		N05	, Dn1, v048
	.byte	W06
	.byte		N11	, Ds1
	.byte	W12
	.byte		N05	, Dn1, v028
	.byte		N11	, Ds2, v127
	.byte	W06
	.byte		N05	, Dn1, v048
	.byte	W06
	.byte		N11	, Ds1
	.byte	W12
	.byte		N05	, Dn1, v028
	.byte		N11	, Ds2, v127
	.byte	W06
	.byte		N05	, Dn1, v048
	.byte	W06
	.byte		N11	, Ds1
	.byte	W12
	.byte	PEND
song0019_2_1:
	.byte		N05	, Dn1, v028
	.byte		N11	, Ds2, v127
	.byte	W06
	.byte		N05	, Dn1, v048
	.byte	W06
	.byte		N11	, Ds1
	.byte	W12
	.byte		N05	, Dn1, v028
	.byte		N11	, Ds2, v127
	.byte	W06
	.byte		N05	, Dn1, v048
	.byte	W06
	.byte		N11	, Ds1
	.byte	W12
	.byte		N05	, Dn1, v028
	.byte		N11	, Ds2, v127
	.byte	W06
	.byte		N05	, Dn1, v048
	.byte	W06
	.byte		N11	, Ds1
	.byte	W12
	.byte		N05	, Dn1, v028
	.byte		N11	, Ds2, v127
	.byte	W06
	.byte		N05	, Dn1, v048
	.byte	W06
	.byte		N11	, Ds1
	.byte	W12
	.byte	PEND
	.byte	PATT	
		.word	song0019_2_1
	.byte	PATT	
		.word	song0019_2_1
	.byte	PATT	
		.word	song0019_2_2
	.byte	PATT	
		.word	song0019_2_1
	.byte	PATT	
		.word	song0019_2_1
	.byte	PATT	
		.word	song0019_2_1
	.byte	PATT	
		.word	song0019_2_1
	.byte	PATT	
		.word	song0019_2_1
	.byte	PATT	
		.word	song0019_2_1
	.byte	PATT	
		.word	song0019_2_1
	.byte		N05	, Dn1, v028
	.byte		N11	, Ds2, v127
	.byte		N32	, Fs2
	.byte	W06
	.byte		N05	, Dn1, v048
	.byte	W06
	.byte		N11	, Ds1
	.byte	W12
	.byte		N05	, Dn1, v028
	.byte		N11	, Ds2, v127
	.byte	W06
	.byte		N05	, Dn1, v048
	.byte	W06
	.byte		N11	, Ds1
	.byte	W12
	.byte		N05	, Dn1, v028
	.byte		N11	, Ds2, v127
	.byte	W06
	.byte		N05	, Dn1, v048
	.byte	W06
	.byte		N11	, Ds1
	.byte	W12
	.byte		N05	, Dn1, v028
	.byte		N11	, Ds2, v127
	.byte	W06
	.byte		N05	, Dn1, v048
	.byte	W06
	.byte		N11	, Ds1
	.byte	W12
	.byte		N05	, Dn1, v028
	.byte		N11	, Ds2, v127
	.byte	W06
	.byte		N05	, Dn1, v048
	.byte	W06
	.byte		N11	, Ds1
	.byte	W12
	.byte		N05	, Dn1, v028
	.byte		N11	, Ds2, v127
	.byte	W06
	.byte		N05	, Dn1, v048
	.byte	W06
	.byte		N11	, Ds1
	.byte	W12
	.byte		N05	, Dn1, v028
	.byte		N11	, Ds2, v127
	.byte		N23	, Fs2
	.byte	W06
	.byte		N05	, Dn1, v048
	.byte	W06
	.byte		N11	, Ds1
	.byte	W12
	.byte		N05	, Dn1, v028
	.byte		N11	, Ds2, v127
	.byte		N23	, Fs2
	.byte	W06
	.byte		N05	, Dn1, v048
	.byte	W06
	.byte		N11	, Ds1
	.byte	W12
song0019_2_3:
	.byte		N05	, Dn1, v028
	.byte		N11	, Ds2, v127
	.byte		N44	, Gn2
	.byte	W06
	.byte		N05	, Dn1, v048
	.byte	W06
	.byte		N11	, Ds1
	.byte	W12
	.byte		N05	, Dn1, v028
	.byte		N11	, Ds2, v127
	.byte	W06
	.byte		N05	, Dn1, v048
	.byte	W06
	.byte		N11	, Ds1
	.byte	W12
	.byte		N05	, Dn1, v028
	.byte		N11	, Ds2, v127
	.byte	W06
	.byte		N05	, Dn1, v048
	.byte	W06
	.byte		N11	, Ds1
	.byte	W12
	.byte		N05	, Dn1, v028
	.byte		N11	, Ds2, v127
	.byte	W06
	.byte		N05	, Dn1, v048
	.byte	W06
	.byte		N11	, Ds1
	.byte	W12
	.byte	PEND
	.byte		N05	, Dn1, v028
	.byte		N11	, Ds2, v127
	.byte	W06
	.byte		N05	, Dn1, v048
	.byte	W06
	.byte		N11	, Ds1
	.byte	W12
	.byte		N05	, Dn1, v028
	.byte		N11	, Ds2, v127
	.byte	W06
	.byte		N05	, Dn1, v048
	.byte	W06
	.byte		N11	, Ds1
	.byte	W12
	.byte		N05	, Dn1, v028
	.byte		N11	, Ds2, v127
	.byte		N11	, Fs2
	.byte	W06
	.byte		N05	, Dn1, v048
	.byte	W06
	.byte		N11	, Ds1
	.byte	W12
	.byte		N05	, Dn1, v028
	.byte		N11	, Ds2, v127
	.byte		N23	, Fs2
	.byte	W06
	.byte		N05	, Dn1, v048
	.byte	W06
	.byte		N11	, Ds1
	.byte	W12
	.byte	PATT	
		.word	song0019_2_3
	.byte	PATT	
		.word	song0019_2_1
	.byte	PATT	
		.word	song0019_2_1
	.byte	PATT	
		.word	song0019_2_1
	.byte		N05	, Dn1, v028
	.byte		N11	, Ds2, v127
	.byte		N23	, Gn2
	.byte	W06
	.byte		N05	, Dn1, v048
	.byte	W06
	.byte		N11	, Ds1
	.byte	W12
	.byte		N05	, Dn1, v028
	.byte		N11	, Ds2, v127
	.byte	W06
	.byte		N05	, Dn1, v048
	.byte	W06
	.byte		N11	, Ds1
	.byte	W12
	.byte		N05	, Dn1, v028
	.byte		N11	, Ds2, v127
	.byte	W06
	.byte		N05	, Dn1, v048
	.byte	W06
	.byte		N11	, Ds1
	.byte	W12
	.byte		N05	, Dn1, v028
	.byte		N11	, Ds2, v127
	.byte	W06
	.byte		N05	, Dn1, v048
	.byte	W06
	.byte		N11	, Ds1
	.byte	W12
	.byte	PATT	
		.word	song0019_2_1
	.byte	PATT	
		.word	song0019_2_1
	.byte	PATT	
		.word	song0019_2_1
	.byte	PATT	
		.word	song0019_2_2
	.byte	PATT	
		.word	song0019_2_1
	.byte	PATT	
		.word	song0019_2_1
	.byte	PATT	
		.word	song0019_2_1
	.byte	PATT	
		.word	song0019_2_1
	.byte	PATT	
		.word	song0019_2_1
	.byte	PATT	
		.word	song0019_2_1
	.byte	PATT	
		.word	song0019_2_1
	.byte		N05	, Dn1, v028
	.byte		N11	, Ds2, v127
	.byte		N23	, Fs2
	.byte	W06
	.byte		N05	, Dn1, v048
	.byte	W06
	.byte		N11	, Ds1
	.byte	W12
	.byte		N05	, Dn1, v028
	.byte		N11	, Ds2, v127
	.byte	W06
	.byte		N05	, Dn1, v048
	.byte	W06
	.byte		N11	, Ds1
	.byte	W12
	.byte		N05	, Dn1, v028
	.byte		N11	, Ds2, v127
	.byte	W06
	.byte		N05	, Dn1, v048
	.byte	W06
	.byte		N11	, Ds1
	.byte	W12
	.byte		N05	, Dn1, v028
	.byte		N11	, Ds2, v127
	.byte	W06
	.byte		N05	, Dn1, v048
	.byte	W06
	.byte		N11	, Ds1
	.byte	W12
	.byte	PATT	
		.word	song0019_2_1
	.byte	PATT	
		.word	song0019_2_1
	.byte	PATT	
		.word	song0019_2_1
	.byte	PATT	
		.word	song0019_2_1
	.byte	PATT	
		.word	song0019_2_1
	.byte	PATT	
		.word	song0019_2_1
	.byte	PATT	
		.word	song0019_2_1
	.byte		N05	, Dn1, v028
	.byte		N23	, Ds2, v124
	.byte		N68	, Fs2
	.byte	W06
	.byte		N05	, Dn1, v048
	.byte	W06
	.byte		N11	, Ds1
	.byte	W12
	.byte		N05	, Dn1, v028
	.byte		N23	, Ds2, v124
	.byte	W06
	.byte		N05	, Dn1, v048
	.byte	W06
	.byte		N11	, Ds1
	.byte	W12
	.byte		N05	, Dn1, v028
	.byte	W06
	.byte			Dn1, v048
	.byte	W06
	.byte		N11	, Ds1
	.byte	W12
	.byte		N05	, Dn1, v028
	.byte		N23	, Ds2, v124
	.byte	W06
	.byte		N05	, Dn1, v048
	.byte	W06
	.byte		N11	, Ds1
	.byte	W12
	.byte	PATT	
		.word	song0019_2_4
	.byte	PATT	
		.word	song0019_2_5
	.byte	PATT	
		.word	song0019_2_6
	.byte	GOTO	
		.word	song0019_2_2
	.byte	FINE

	@********************** Track  3 **********************@

	.global song0019_3
song0019_3:	@ 0x08C5E2EE
	.byte	KEYSH	, 0
	.byte	VOICE	, 49
	.byte	VOL	, v110
	.byte		N80	, Dn2, v116
	.byte	W84
	.byte		N05	, Cn3
	.byte	W06
	.byte			Cs3
	.byte	W06
	.byte		N92	, Dn3
	.byte	W96
song0019_3_8:
	.byte		N80	, Dn2, v116
	.byte	W84
	.byte		N05	, Cn3
	.byte	W06
	.byte			Cs3
	.byte	W06
	.byte	PEND
song0019_3_9:
	.byte		N44	, Dn3, v116
	.byte	W48
	.byte			Dn2
	.byte	W48
	.byte	PEND
song0019_3_1:
	.byte		N09	, Gn2, v127
	.byte	W24
	.byte		N16	
	.byte	W18
	.byte		N05	, Dn2, v100
	.byte	W06
	.byte		N08	, Gn2, v127
	.byte	W12
	.byte		N18	, Dn2, v100
	.byte	W24
	.byte		N10	, En2, v127
	.byte	W12
	.byte	PEND
	.byte	PATT	
		.word	song0019_3_1
	.byte	PATT	
		.word	song0019_3_1
	.byte	PATT	
		.word	song0019_3_1
	.byte	PATT	
		.word	song0019_3_1
song0019_3_3:
	.byte		N09	, Gn2, v127
	.byte	W24
	.byte		N16	
	.byte	W18
	.byte		N05	, Dn2, v100
	.byte	W06
	.byte		N08	, Gn2, v127
	.byte	W12
	.byte		N18	, Dn2, v100
	.byte	W24
	.byte		N10	, Gn2, v127
	.byte	W12
	.byte	PEND
song0019_3_2:
	.byte		N09	, Cn2, v127
	.byte	W24
	.byte		N16	
	.byte	W18
	.byte		N05	, Gn2, v100
	.byte	W06
	.byte		N08	, Cn2, v127
	.byte	W12
	.byte		N18	, Gn2, v100
	.byte	W24
	.byte		N10	, Cn2, v127
	.byte	W12
	.byte	PEND
	.byte	PATT	
		.word	song0019_3_2
	.byte	PATT	
		.word	song0019_3_1
	.byte	PATT	
		.word	song0019_3_3
song0019_3_5:
	.byte		N09	, Fn2, v127
	.byte	W24
	.byte		N16	
	.byte	W18
	.byte		N05	, Cn2, v100
	.byte	W06
	.byte		N08	, Fn2, v127
	.byte	W12
	.byte		N18	, Cn2, v100
	.byte	W24
	.byte		N10	, Dn2, v127
	.byte	W12
	.byte	PEND
song0019_3_6:
	.byte		N09	, Fn2, v127
	.byte	W24
	.byte		N16	
	.byte	W18
	.byte		N05	, Cn2, v100
	.byte	W06
	.byte		N08	, Fn2, v127
	.byte	W12
	.byte		N18	, Cn2, v100
	.byte	W24
	.byte		N10	, Fn2, v127
	.byte	W12
	.byte	PEND
song0019_3_4:
	.byte		N09	, Dn2, v127
	.byte	W24
	.byte		N16	
	.byte	W18
	.byte		N05	, An2, v100
	.byte	W06
	.byte		N08	, Dn2, v127
	.byte	W12
	.byte		N18	, An2, v100
	.byte	W24
	.byte		N10	, Dn2, v127
	.byte	W12
	.byte	PEND
	.byte		N09	
	.byte	W24
	.byte		N16	
	.byte	W18
	.byte		N05	, An2, v100
	.byte	W06
	.byte		N23	, Dn2, v127
	.byte	W24
	.byte			Cs2
	.byte	W24
	.byte	PATT	
		.word	song0019_3_2
	.byte		N09	, Cn2, v127
	.byte	W24
	.byte		N16	
	.byte	W18
	.byte		N05	, Gn2, v100
	.byte	W06
	.byte		N11	, Cn2, v127
	.byte	W12
	.byte		N05	, Gn2
	.byte	W06
	.byte			Cn2
	.byte	W06
	.byte		N11	, Bn1
	.byte	W12
	.byte		N05	, Fs2
	.byte	W06
	.byte			Bn1
	.byte	W06
	.byte		N09	, As1
	.byte	W24
	.byte		N16	
	.byte	W18
	.byte		N05	, Fn2, v100
	.byte	W06
	.byte		N08	, As1, v127
	.byte	W12
	.byte		N18	, Fn2, v100
	.byte	W24
	.byte		N10	, Cn3, v127
	.byte	W12
	.byte		N09	, As2
	.byte	W24
	.byte		N16	
	.byte	W18
	.byte		N05	, Fn2, v100
	.byte	W06
	.byte		N08	, As2, v127
	.byte	W12
	.byte		N18	, Fn2, v100
	.byte	W24
	.byte		N10	, As2, v127
	.byte	W12
	.byte		N09	, An2
	.byte	W24
	.byte		N16	
	.byte	W18
	.byte		N05	, En2, v100
	.byte	W06
	.byte		N08	, An2, v127
	.byte	W12
	.byte		N18	, En2, v100
	.byte	W24
	.byte		N10	, Ds2, v127
	.byte	W12
	.byte	PATT	
		.word	song0019_3_4
	.byte	PATT	
		.word	song0019_3_1
	.byte	PATT	
		.word	song0019_3_1
	.byte	PATT	
		.word	song0019_3_1
	.byte	PATT	
		.word	song0019_3_1
	.byte	PATT	
		.word	song0019_3_1
	.byte	PATT	
		.word	song0019_3_3
	.byte	PATT	
		.word	song0019_3_2
	.byte	PATT	
		.word	song0019_3_2
	.byte	PATT	
		.word	song0019_3_1
	.byte	PATT	
		.word	song0019_3_3
	.byte	PATT	
		.word	song0019_3_5
	.byte	PATT	
		.word	song0019_3_6
	.byte		N09	, Fs2, v127
	.byte	W24
	.byte		N16	
	.byte	W18
	.byte		N05	, Cs2, v100
	.byte	W06
	.byte		N08	, Fs2, v127
	.byte	W12
	.byte		N18	, Cs2, v100
	.byte	W24
	.byte		N10	, Fs2, v127
	.byte	W12
	.byte		N09	, Bn1
	.byte	W24
	.byte		N16	
	.byte	W18
	.byte		N05	, Fs2, v100
	.byte	W06
	.byte		N08	, Bn2, v127
	.byte	W12
	.byte		N18	, Fs2, v100
	.byte	W24
	.byte		N10	, Bn1, v127
	.byte	W12
song0019_3_7:
	.byte		N09	, En2, v127
	.byte	W24
	.byte		N16	
	.byte	W18
	.byte		N05	, Bn1, v100
	.byte	W06
	.byte		N08	, En2, v127
	.byte	W12
	.byte		N18	, Bn1, v100
	.byte	W24
	.byte		N10	, En2, v127
	.byte	W12
	.byte	PEND
	.byte	PATT	
		.word	song0019_3_7
	.byte	PATT	
		.word	song0019_3_6
	.byte		N09	, As1, v127
	.byte	W24
	.byte		N16	
	.byte	W18
	.byte		N05	, Fn2, v100
	.byte	W06
	.byte		N08	, As2, v127
	.byte	W12
	.byte		N18	, Fn2, v100
	.byte	W24
	.byte		N10	, As1, v127
	.byte	W12
	.byte		N09	, Ds2
	.byte	W24
	.byte		N16	
	.byte	W18
	.byte		N05	, As1, v100
	.byte	W06
	.byte		N08	, Ds2, v127
	.byte	W12
	.byte		N18	, As1, v100
	.byte	W24
	.byte		N10	, Ds2, v127
	.byte	W12
	.byte		N09	, Gs1
	.byte	W24
	.byte		N16	
	.byte	W18
	.byte		N05	, Ds2, v100
	.byte	W06
	.byte		N08	, Gs2, v127
	.byte	W12
	.byte		N18	, Ds2, v100
	.byte	W24
	.byte		N10	, Gs1, v127
	.byte	W12
	.byte	PATT	
		.word	song0019_3_8
	.byte		N92	, Dn3, v116
	.byte	W96
	.byte	PATT	
		.word	song0019_3_8
	.byte	PATT	
		.word	song0019_3_9
	.byte	GOTO	
		.word	song0019_3_1
	.byte	FINE

	@********************** Track  4 **********************@

	.global song0019_4
song0019_4:	@ 0x08C5E511
	.byte	KEYSH	, 0
	.byte	VOICE	, 66
	.byte	VOL	, v077
	.byte	W96
	.byte	W96
	.byte	W96
	.byte	W96
song0019_4_1:
	.byte	W48
	.byte		N08	, Fn2, v127
	.byte	W12
	.byte		N20	
	.byte	W24
	.byte		N09	
	.byte	W12
	.byte	PEND
song0019_4_2:
	.byte		N05	, Gn2, v127
	.byte	W24
	.byte		N14	
	.byte	W18
	.byte		N05	
	.byte	W06
	.byte			Fn2
	.byte	W12
	.byte		N19	
	.byte	W24
	.byte		N05	
	.byte	W12
	.byte	PEND
	.byte	PATT	
		.word	song0019_4_1
	.byte	PATT	
		.word	song0019_4_2
song0019_4_3:
	.byte	W42
	.byte		N05	, Cn2, v064
	.byte	W12
	.byte		N05	
	.byte	W30
	.byte		N04	
	.byte	W12
	.byte	PEND
	.byte	PATT	
		.word	song0019_4_3
song0019_4_4:
	.byte		N07	, Fn2, v127
	.byte	W24
	.byte		N16	
	.byte	W24
	.byte		N05	
	.byte	W12
	.byte		N23	
	.byte	W36
	.byte	PEND
	.byte	PATT	
		.word	song0019_4_4
	.byte	PATT	
		.word	song0019_4_3
	.byte	PATT	
		.word	song0019_4_3
	.byte	W96
	.byte	W96
	.byte		N07	, Gn2, v127
	.byte	W24
	.byte		N16	
	.byte	W24
	.byte		N05	
	.byte	W12
	.byte		N23	
	.byte	W36
	.byte		N07	
	.byte	W24
	.byte		N11	
	.byte	W12
	.byte		N02	, Bn1, v064
	.byte	W03
	.byte			Cs2, v080
	.byte	W03
	.byte			Ds2, v096
	.byte	W03
	.byte			Fn2, v112
	.byte	W03
	.byte		N23	, Gn2, v127
	.byte	W24
	.byte			Fs2
	.byte	W24
	.byte	PATT	
		.word	song0019_4_4
	.byte	PATT	
		.word	song0019_4_4
song0019_4_5:
	.byte	W42
	.byte		N05	, Fn2, v064
	.byte	W12
	.byte		N05	
	.byte	W30
	.byte		N04	
	.byte	W12
	.byte	PEND
	.byte	PATT	
		.word	song0019_4_5
	.byte	PATT	
		.word	song0019_4_4
	.byte		N07	, Fn2, v127
	.byte	W24
	.byte		N16	
	.byte	W24
	.byte		N05	, Gn2
	.byte	W12
	.byte		N23	
	.byte	W36
	.byte	PATT	
		.word	song0019_4_1
	.byte	PATT	
		.word	song0019_4_2
	.byte	PATT	
		.word	song0019_4_1
	.byte	PATT	
		.word	song0019_4_2
	.byte	PATT	
		.word	song0019_4_3
	.byte	PATT	
		.word	song0019_4_3
	.byte	PATT	
		.word	song0019_4_4
	.byte	PATT	
		.word	song0019_4_4
	.byte	PATT	
		.word	song0019_4_3
	.byte	PATT	
		.word	song0019_4_3
	.byte	W96
	.byte	W96
	.byte	W42
	.byte		N05	, Dn2, v064
	.byte	W12
	.byte		N05	
	.byte	W30
	.byte		N04	
	.byte	W12
	.byte	W42
	.byte		N05	, En2
	.byte	W12
	.byte		N05	
	.byte	W30
	.byte		N04	
	.byte	W12
	.byte	PATT	
		.word	song0019_4_3
	.byte	PATT	
		.word	song0019_4_3
	.byte	W96
	.byte	W96
	.byte	W96
	.byte		N07	, Bn1, v108
	.byte	W24
	.byte		N16	
	.byte	W18
	.byte		N05	, Bn1, v036
	.byte	W06
	.byte			Bn1, v108
	.byte	W12
	.byte		N23	
	.byte	W30
	.byte		N05	, Bn1, v036
	.byte	W06
	.byte	W96
	.byte	W96
	.byte	W96
	.byte	W96
	.byte	GOTO	
		.word	song0019_4_1
	.byte	FINE

	@********************** Track  5 **********************@

	.global song0019_5
song0019_5:	@ 0x08C5E622
	.byte	KEYSH	, 0
	.byte	VOICE	, 67
	.byte	VOL	, v077
	.byte	W96
	.byte	W96
	.byte	W96
	.byte	W96
song0019_5_1:
	.byte		N03	, En2, v127
	.byte	W24
	.byte		N12	
	.byte	W18
	.byte		N03	
	.byte	W54
	.byte	PEND
	.byte	W96
	.byte	PATT	
		.word	song0019_5_1
	.byte	W96
song0019_5_2:
	.byte		N07	, En2, v127
	.byte	W24
	.byte		N16	
	.byte	W24
	.byte		N05	
	.byte	W12
	.byte		N23	
	.byte	W36
	.byte	PEND
	.byte	PATT	
		.word	song0019_5_2
	.byte	W96
	.byte	W96
	.byte	PATT	
		.word	song0019_5_2
	.byte	PATT	
		.word	song0019_5_2
song0019_5_3:
	.byte	W42
	.byte		N05	, Dn2, v064
	.byte	W12
	.byte		N05	
	.byte	W30
	.byte		N04	
	.byte	W12
	.byte	PEND
	.byte	PATT	
		.word	song0019_5_3
	.byte	W96
	.byte	W96
	.byte	W96
	.byte	W96
	.byte	W96
	.byte	W96
	.byte	W96
	.byte	W96
	.byte	PATT	
		.word	song0019_5_1
	.byte	W96
	.byte	PATT	
		.word	song0019_5_1
	.byte	W96
	.byte	PATT	
		.word	song0019_5_2
	.byte	PATT	
		.word	song0019_5_2
	.byte	W96
	.byte	W96
	.byte	PATT	
		.word	song0019_5_2
	.byte	PATT	
		.word	song0019_5_2
	.byte	PATT	
		.word	song0019_5_3
	.byte	PATT	
		.word	song0019_5_3
	.byte		N07	, Fs2, v127
	.byte	W24
	.byte		N16	
	.byte	W24
	.byte		N05	
	.byte	W12
	.byte		N23	
	.byte	W36
	.byte		N07	, Gs2
	.byte	W24
	.byte		N16	
	.byte	W24
	.byte		N05	
	.byte	W12
	.byte		N23	
	.byte	W36
song0019_5_4:
	.byte		N07	, An2, v127
	.byte	W24
	.byte		N16	
	.byte	W24
	.byte		N05	
	.byte	W12
	.byte		N23	
	.byte	W36
	.byte	PEND
	.byte	PATT	
		.word	song0019_5_4
	.byte		N07	, An2, v127
	.byte	W24
	.byte		N16	
	.byte	W18
	.byte		N05	, Dn2, v064
	.byte	W06
	.byte			An2, v127
	.byte	W06
	.byte			Dn2, v064
	.byte	W06
	.byte		N23	, An2, v127
	.byte	W24
	.byte		N04	, Dn2, v064
	.byte	W12
	.byte		N07	, Gn2, v127
	.byte	W24
	.byte		N16	
	.byte	W24
	.byte		N05	
	.byte	W12
	.byte		N23	
	.byte	W36
	.byte		N07	
	.byte	W24
	.byte		N16	
	.byte	W18
	.byte		N05	, Cn2, v064
	.byte	W06
	.byte			Gn2, v127
	.byte	W06
	.byte			Cn2, v064
	.byte	W06
	.byte		N23	, Gn2, v127
	.byte	W24
	.byte		N04	, Cn2, v064
	.byte	W12
	.byte	W96
	.byte	W96
	.byte	W96
	.byte	W96
	.byte	W96
	.byte	GOTO	
		.word	song0019_5_1
	.byte	FINE

	@********************** Track  6 **********************@

	.global song0019_6
song0019_6:	@ 0x08C5E701
	.byte	KEYSH	, 0
	.byte	VOICE	, 68
	.byte	VOL	, v069
	.byte	W96
	.byte	W96
	.byte	W96
	.byte	W96
song0019_6_4:
	.byte	W96
	.byte	W96
	.byte	W96
	.byte	W96
	.byte	W96
	.byte	W96
song0019_6_1:
	.byte	W42
	.byte		N05	, Gn2, v064
	.byte	W12
	.byte		N05	
	.byte	W30
	.byte		N04	
	.byte	W12
	.byte	PEND
	.byte	PATT	
		.word	song0019_6_1
	.byte	PATT	
		.word	song0019_6_1
	.byte	PATT	
		.word	song0019_6_1
song0019_6_2:
	.byte		N07	, Cn3, v100
	.byte	W24
	.byte		N16	
	.byte	W24
	.byte		N05	
	.byte	W12
	.byte		N23	
	.byte	W36
	.byte	PEND
	.byte	PATT	
		.word	song0019_6_2
	.byte	W42
	.byte		N05	, An2, v064
	.byte	W12
	.byte		N05	
	.byte	W30
	.byte		N04	
	.byte	W12
	.byte	W96
	.byte	PATT	
		.word	song0019_6_1
	.byte	PATT	
		.word	song0019_6_1
song0019_6_3:
	.byte		N07	, Dn3, v127
	.byte	W24
	.byte		N16	
	.byte	W18
	.byte		N05	, Gn2, v064
	.byte	W06
	.byte			Dn3, v127
	.byte	W06
	.byte			Gn2, v064
	.byte	W06
	.byte		N23	, Dn3, v127
	.byte	W24
	.byte		N04	, Gn2, v064
	.byte	W12
	.byte	PEND
	.byte	PATT	
		.word	song0019_6_3
	.byte	PATT	
		.word	song0019_6_1
	.byte	W42
	.byte		N05	, Gn2, v064
	.byte	W12
	.byte			An2
	.byte	W30
	.byte		N04	
	.byte	W12
	.byte	W96
	.byte	W96
	.byte	W96
	.byte	W96
	.byte	W96
	.byte	W96
	.byte	PATT	
		.word	song0019_6_1
	.byte	PATT	
		.word	song0019_6_1
	.byte	PATT	
		.word	song0019_6_1
	.byte	PATT	
		.word	song0019_6_1
	.byte	PATT	
		.word	song0019_6_2
	.byte	PATT	
		.word	song0019_6_2
	.byte	W96
	.byte	W96
	.byte	W96
	.byte	W96
	.byte	W96
	.byte	W42
	.byte		N05	, Fn2, v064
	.byte	W12
	.byte		N05	
	.byte	W30
	.byte		N04	
	.byte	W12
	.byte	W96
	.byte		N07	, Cn3, v108
	.byte	W24
	.byte		N16	
	.byte	W18
	.byte		N05	, Cn3, v036
	.byte	W06
	.byte			Cn3, v108
	.byte	W12
	.byte		N23	
	.byte	W30
	.byte		N05	, Cn3, v036
	.byte	W06
	.byte	W96
	.byte	W96
	.byte	W96
	.byte	W96
	.byte	GOTO	
		.word	song0019_6_4
	.byte	FINE

	@********************** Track  7 **********************@

	.global song0019_7
song0019_7:	@ 0x08C5E7CA
	.byte	KEYSH	, 0
	.byte	VOICE	, 78
	.byte	VOL	, v110
	.byte	W24
	.byte		N23	, Bn3, v104
	.byte	W24
	.byte			Gn3, v120
	.byte	W24
	.byte			An3, v116
	.byte	W24
song0019_7_1:
	.byte		N23	, En3, v096
	.byte	W24
	.byte			Gn3, v116
	.byte	W24
	.byte			Dn3, v108
	.byte	W24
	.byte			An2, v092
	.byte	W24
	.byte	PEND
song0019_7_2:
	.byte		N23	, Dn2, v056
	.byte	W24
	.byte			Dn3, v076
	.byte	W24
	.byte			Dn2, v052
	.byte	W24
	.byte			Dn3, v064
	.byte	W24
	.byte	PEND
song0019_7_3:
	.byte		N23	, Dn2, v064
	.byte	W24
	.byte			Dn3, v072
	.byte	W24
	.byte			Dn4, v076
	.byte	W24
	.byte		N24	, Dn3, v080
	.byte	W24
	.byte	PEND
song0019_7_4:
	.byte	W96
	.byte	W96
	.byte	W96
	.byte	W96
	.byte	W96
	.byte	W96
	.byte	W96
	.byte	W96
	.byte	W96
	.byte	W96
	.byte	W96
	.byte	W96
	.byte	W96
	.byte	W96
	.byte	W96
	.byte	W96
	.byte	W96
	.byte	W96
	.byte	W96
	.byte	W96
	.byte	W24
	.byte		N23	, Gn3, v127
	.byte	W24
	.byte			Bn2
	.byte	W24
	.byte			Dn3, v124
	.byte	W24
	.byte			Gn2, v112
	.byte	W24
	.byte			Bn2, v100
	.byte	W24
	.byte			Dn2, v088
	.byte	W24
	.byte			Gn2, v076
	.byte	W24
	.byte			Bn1, v064
	.byte	W24
	.byte		N17	, Dn2, v052
	.byte	W72
	.byte	W96
	.byte	W96
	.byte	W96
	.byte	W96
	.byte	W96
	.byte	W96
	.byte	W96
	.byte	W96
	.byte	W96
	.byte	W04
	.byte		N44	, En2, v108
	.byte	W44
	.byte	W02
	.byte			En3, v100
	.byte	W44
	.byte	W02
	.byte	W01
	.byte			Ds3, v120
	.byte	W44
	.byte	W03
	.byte		N48	, Bn3, v104
	.byte	W48
	.byte	W01
	.byte		N44	, Bn2
	.byte	W48
	.byte			En3, v112
	.byte	W44
	.byte	W03
	.byte			Gn3, v116
	.byte	W48
	.byte	W01
	.byte			Bn2, v108
	.byte	W44
	.byte	W03
	.byte	W01
	.byte		N90	, Fn3, v096
	.byte	W92
	.byte	W03
	.byte	W96
	.byte	W96
	.byte	W96
	.byte	W24
	.byte		N23	, Bn3, v104
	.byte	W24
	.byte			Gn3, v120
	.byte	W24
	.byte			An3, v116
	.byte	W24
	.byte	PATT	
		.word	song0019_7_1
	.byte	PATT	
		.word	song0019_7_2
	.byte	PATT	
		.word	song0019_7_3
	.byte	GOTO	
		.word	song0019_7_4
	.byte	W02
	.byte	FINE

	@********************** Track  8 **********************@

	.global song0019_8
song0019_8:	@ 0x08C5E88D
	.byte	KEYSH	, 0
	.byte	VOICE	, 65
	.byte	VOL	, v086
	.byte		N11	, Gn3, v080
	.byte		N11	, Bn3
	.byte	W12
	.byte			Dn3
	.byte		N11	, Gn3
	.byte	W12
	.byte			Gn3, v076
	.byte		N11	, Bn3
	.byte	W12
	.byte			Dn3
	.byte		N11	, Gn3
	.byte	W12
	.byte			Fs3, v072
	.byte		N11	, An3
	.byte	W12
	.byte			Dn3
	.byte		N11	, Fs3
	.byte	W12
	.byte			Fs3, v068
	.byte		N11	, An3
	.byte	W12
	.byte			Dn3
	.byte		N11	, Fs3
	.byte	W12
song0019_8_1:
	.byte		N11	, En3, v064
	.byte		N11	, Gn3
	.byte	W12
	.byte			Cn3
	.byte		N11	, En3
	.byte	W12
	.byte			En3, v060
	.byte		N11	, Gn3
	.byte	W12
	.byte			Cn3
	.byte		N11	, En3
	.byte	W12
	.byte			Dn3, v056
	.byte		N11	, Fs3
	.byte	W12
	.byte			An2
	.byte		N11	, Dn3
	.byte	W12
	.byte			Dn3, v052
	.byte		N11	, Fs3
	.byte	W12
	.byte			An2
	.byte		N11	, Dn3
	.byte	W12
	.byte	PEND
song0019_8_2:
	.byte		N11	, En3, v048
	.byte		N11	, Gn3
	.byte	W12
	.byte			Bn2, v052
	.byte		N11	, Dn3
	.byte	W12
	.byte			En3, v060
	.byte		N11	, Gn3
	.byte	W12
	.byte			Bn2, v064
	.byte		N11	, Dn3
	.byte	W12
	.byte			Fs3, v072
	.byte		N11	, An3
	.byte	W12
	.byte			An2, v076
	.byte		N11	, Dn3
	.byte	W12
	.byte			Fs3, v084
	.byte		N11	, An3
	.byte	W12
	.byte			An2, v092
	.byte		N11	, Dn3
	.byte	W12
	.byte	PEND
song0019_8_3:
	.byte		N11	, Fs3, v092
	.byte	W12
	.byte			Dn3, v088
	.byte	W12
	.byte			Fs3, v084
	.byte	W12
	.byte			Dn3, v076
	.byte	W12
	.byte			An3, v072
	.byte	W12
	.byte			Fs3, v068
	.byte	W12
	.byte			An3, v064
	.byte	W12
	.byte			Fs3, v056
	.byte	W12
	.byte	PEND
song0019_8_4:
	.byte	W96
	.byte	W96
	.byte	W96
	.byte	W96
	.byte	W96
	.byte	W96
	.byte	W96
	.byte	W96
	.byte	W96
	.byte	W96
	.byte	W96
	.byte	W96
	.byte	W96
	.byte	W96
	.byte	W96
	.byte	W96
	.byte	W96
	.byte	W96
	.byte	W96
	.byte	W96
	.byte	W96
	.byte	W96
	.byte	W96
	.byte	W96
	.byte	W96
	.byte		N23	, Dn4, v100
	.byte	W24
	.byte			Gn3, v096
	.byte	W24
	.byte			Bn3, v092
	.byte	W24
	.byte			Dn3, v076
	.byte	W24
	.byte		N68	, Gn2, v080
	.byte	W96
	.byte	W96
	.byte	W96
	.byte		N23	, Dn4, v108
	.byte	W24
	.byte			Gn3, v100
	.byte	W24
	.byte			Bn3, v096
	.byte	W24
	.byte			Dn3
	.byte	W24
	.byte		N80	, An2
	.byte	W96
	.byte	W96
	.byte	W96
	.byte	W96
	.byte	W96
	.byte	W96
	.byte	W96
	.byte	W96
	.byte	W96
	.byte	W96
	.byte		N11	, Gn3, v080
	.byte		N11	, Bn3
	.byte	W12
	.byte			Dn3
	.byte		N11	, Gn3
	.byte	W12
	.byte			Gn3, v076
	.byte		N11	, Bn3
	.byte	W12
	.byte			Dn3
	.byte		N11	, Gn3
	.byte	W12
	.byte			Fs3, v072
	.byte		N11	, An3
	.byte	W12
	.byte			Dn3
	.byte		N11	, Fs3
	.byte	W12
	.byte			Fs3, v068
	.byte		N11	, An3
	.byte	W12
	.byte			Dn3
	.byte		N11	, Fs3
	.byte	W12
	.byte	PATT	
		.word	song0019_8_1
	.byte	PATT	
		.word	song0019_8_2
	.byte	PATT	
		.word	song0019_8_3
	.byte	GOTO	
		.word	song0019_8_4
	.byte	FINE

	@********************** Track  9 **********************@

	.global song0019_9
song0019_9:	@ 0x08C5E9A0
	.byte	KEYSH	, 0
	.byte	VOICE	, 2
	.byte	VOL	, v069
	.byte	W96
	.byte	W96
song0019_9_1:
	.byte		N02	, An2, v004
	.byte	W03
	.byte			Dn3
	.byte	W03
	.byte			Gn3, v008
	.byte	W03
	.byte			An3
	.byte	W03
	.byte			Dn3, v012
	.byte	W03
	.byte			Gn3, v016
	.byte	W03
	.byte			An3
	.byte	W03
	.byte			Dn4, v020
	.byte	W03
	.byte			Gn3, v024
	.byte	W03
	.byte			An3
	.byte	W03
	.byte			Dn4, v028
	.byte	W03
	.byte			Gn4
	.byte	W03
	.byte			An3, v032
	.byte	W03
	.byte			Dn4, v036
	.byte	W03
	.byte			Gn4
	.byte	W03
	.byte			An4, v040
	.byte	W03
	.byte			Dn4, v044
	.byte	W03
	.byte			Gn4
	.byte	W03
	.byte			An4, v048
	.byte	W03
	.byte			Dn5
	.byte	W03
	.byte			Gn4, v052
	.byte	W03
	.byte			An4, v056
	.byte	W03
	.byte			Dn5
	.byte	W03
	.byte			Gn5, v060
	.byte	W03
	.byte			An4, v064
	.byte	W03
	.byte			Dn5
	.byte	W03
	.byte			Gn5, v068
	.byte	W03
	.byte			An5
	.byte	W03
	.byte			Dn5, v072
	.byte	W03
	.byte			Gn5, v076
	.byte	W03
	.byte			An5
	.byte	W03
	.byte			Dn6, v080
	.byte	W03
	.byte	PEND
song0019_9_2:
	.byte		N02	, An5, v076
	.byte	W03
	.byte			Dn6
	.byte	W03
	.byte			An5, v072
	.byte	W03
	.byte			Fs5
	.byte	W03
	.byte			Dn5, v068
	.byte	W03
	.byte			Fs5
	.byte	W03
	.byte			An5, v064
	.byte	W03
	.byte			Fs5, v060
	.byte	W03
	.byte			Dn5
	.byte	W03
	.byte			An4, v056
	.byte	W03
	.byte			Fs5
	.byte	W03
	.byte			Dn5, v052
	.byte	W03
	.byte			An4, v048
	.byte	W03
	.byte			Fs4
	.byte	W03
	.byte			Dn5, v044
	.byte	W03
	.byte			An4
	.byte	W03
	.byte			Fs4, v040
	.byte	W03
	.byte			Dn4
	.byte	W03
	.byte			An4, v036
	.byte	W03
	.byte			Fs4, v032
	.byte	W03
	.byte			Dn4
	.byte	W03
	.byte			An3, v028
	.byte	W03
	.byte			Fs4
	.byte	W03
	.byte			Dn4, v024
	.byte	W03
	.byte			An3, v020
	.byte	W03
	.byte			Fs3
	.byte	W03
	.byte			Dn4, v016
	.byte	W03
	.byte			An3
	.byte	W03
	.byte			Fs3, v012
	.byte	W03
	.byte			Dn3
	.byte	W03
	.byte			Fs3, v008
	.byte	W03
	.byte			Dn3, v004
	.byte	W03
	.byte	PEND
song0019_9_3:
	.byte	W96
	.byte	W96
	.byte	W96
	.byte	W96
	.byte	W96
	.byte	W96
	.byte	W96
	.byte	W96
	.byte	W96
	.byte	W96
	.byte	W96
	.byte	W96
	.byte	W96
	.byte	W96
	.byte	W96
	.byte	W96
	.byte	W96
	.byte	W96
	.byte	W96
	.byte	W96
	.byte		N02	, Dn3, v024
	.byte	W03
	.byte			Gn3, v032
	.byte	W03
	.byte			An3, v040
	.byte	W03
	.byte			Dn4, v048
	.byte	W03
	.byte			Gn4, v056
	.byte	W03
	.byte			An4, v064
	.byte	W03
	.byte			Dn5, v072
	.byte	W03
	.byte			Gn5, v084
	.byte	W03
	.byte			An5, v092
	.byte	W03
	.byte			Dn6
	.byte	W03
	.byte			An5
	.byte	W03
	.byte			Gn5
	.byte	W03
	.byte			Dn5, v088
	.byte	W03
	.byte			Gn5
	.byte	W03
	.byte			An5, v084
	.byte	W03
	.byte			Gn5
	.byte	W03
	.byte			Dn5, v080
	.byte	W03
	.byte			An4
	.byte	W03
	.byte			Dn5
	.byte	W03
	.byte			Gn5, v076
	.byte	W03
	.byte			Dn5
	.byte	W03
	.byte			An4, v072
	.byte	W03
	.byte			Gn4
	.byte	W03
	.byte			An4
	.byte	W03
	.byte			Dn5, v068
	.byte	W03
	.byte			An4
	.byte	W03
	.byte			Gn4, v064
	.byte	W03
	.byte			Dn4
	.byte	W03
	.byte			Gn4, v060
	.byte	W03
	.byte			An4
	.byte	W03
	.byte			Gn4
	.byte	W03
	.byte			Dn4, v056
	.byte	W03
	.byte			An3
	.byte	W03
	.byte			Dn4, v052
	.byte	W03
	.byte			An4
	.byte	W03
	.byte			Fs4, v048
	.byte	W03
	.byte			Dn4
	.byte	W03
	.byte			An3
	.byte	W03
	.byte			Dn4, v044
	.byte	W03
	.byte			Fs4
	.byte	W03
	.byte			Dn4, v040
	.byte	W03
	.byte			An3
	.byte	W03
	.byte			Fs3
	.byte	W03
	.byte			An3, v036
	.byte	W03
	.byte			Dn4
	.byte	W03
	.byte			An3, v032
	.byte	W03
	.byte			Fs3
	.byte	W03
	.byte			Dn3, v028
	.byte	W03
	.byte			Fs3
	.byte	W03
	.byte			An3
	.byte	W03
	.byte			Fs3, v024
	.byte	W03
	.byte			Dn3
	.byte	W03
	.byte			An2, v020
	.byte	W03
	.byte			Dn3
	.byte	W03
	.byte			Fs3, v016
	.byte	W03
	.byte			Dn3
	.byte	W03
	.byte			An2
	.byte	W03
	.byte			Fs2, v012
	.byte	W03
	.byte			An2
	.byte	W03
	.byte			Dn3, v008
	.byte	W03
	.byte			An2
	.byte	W03
	.byte			Fs2
	.byte	W03
	.byte			Dn2, v004
	.byte	W03
	.byte			Fs2
	.byte	W03
	.byte	W96
	.byte	W96
	.byte	W96
	.byte	W96
	.byte	W96
	.byte	W96
	.byte	W96
	.byte	W96
	.byte	W96
	.byte	W96
	.byte	W96
	.byte	W96
	.byte	W96
	.byte	W96
	.byte	W96
	.byte	W96
	.byte	W96
	.byte	W96
	.byte	W96
	.byte	W96
	.byte	PATT	
		.word	song0019_9_1
	.byte	PATT	
		.word	song0019_9_2
	.byte	GOTO	
		.word	song0019_9_3
	.byte	FINE

	@********************** Track  10 **********************@

	.global song0019_10
song0019_10:	@ 0x08C5EB2B
	.byte	KEYSH	, 0
	.byte	VOICE	, 10
	.byte	VOL	, v051
	.byte	BENDR	, 12
	.byte		N02	, Dn3, v032
	.byte	W03
	.byte			Gn3, v040
	.byte	W03
	.byte			An3, v052
	.byte	W03
	.byte			Dn4, v060
	.byte	W03
	.byte			Gn4, v068
	.byte	W03
	.byte			An4, v076
	.byte	W03
	.byte			Dn5, v084
	.byte	W03
	.byte			Gn5, v092
	.byte	W03
	.byte			An5, v104
	.byte	W03
	.byte			Dn6
	.byte	W03
	.byte			An5
	.byte	W03
	.byte			Gn5, v100
	.byte	W03
	.byte			Dn5
	.byte	W03
	.byte			Gn5, v096
	.byte	W03
	.byte			An5
	.byte	W03
	.byte			Gn5
	.byte	W03
	.byte			Dn5, v092
	.byte	W03
	.byte			An4
	.byte	W03
	.byte			Dn5, v088
	.byte	W03
	.byte			Gn5
	.byte	W03
	.byte			Dn5
	.byte	W03
	.byte			An4, v084
	.byte	W03
	.byte			Gn4
	.byte	W03
	.byte			An4, v080
	.byte	W03
	.byte			Dn5
	.byte	W03
	.byte			An4, v076
	.byte	W03
	.byte			Gn4
	.byte	W03
	.byte			Dn4
	.byte	W03
	.byte			Gn4, v072
	.byte	W03
	.byte			An4
	.byte	W03
	.byte			Gn4, v068
	.byte	W03
	.byte			Dn4
	.byte	W03
song0019_10_1:
	.byte		N02	, An3, v064
	.byte	W03
	.byte			Dn4
	.byte	W03
	.byte			An4
	.byte	W03
	.byte			Fs4, v060
	.byte	W03
	.byte			Dn4
	.byte	W03
	.byte			An3, v056
	.byte	W03
	.byte			Dn4
	.byte	W03
	.byte			Fs4
	.byte	W03
	.byte			Dn4, v052
	.byte	W03
	.byte			An3
	.byte	W03
	.byte			Fs3, v048
	.byte	W03
	.byte			An3
	.byte	W03
	.byte			Dn4, v044
	.byte	W03
	.byte			An3
	.byte	W03
	.byte			Fs3
	.byte	W03
	.byte			Dn3, v040
	.byte	W03
	.byte			Fs3
	.byte	W03
	.byte			An3, v036
	.byte	W03
	.byte			Fs3
	.byte	W03
	.byte			Dn3, v032
	.byte	W03
	.byte			An2
	.byte	W03
	.byte			Dn3
	.byte	W03
	.byte			Fs3, v028
	.byte	W03
	.byte			Dn3
	.byte	W03
	.byte			An2, v024
	.byte	W03
	.byte			Fs2
	.byte	W03
	.byte			An2
	.byte	W03
	.byte			Dn3, v020
	.byte	W03
	.byte			An2
	.byte	W03
	.byte			Fs2, v016
	.byte	W03
	.byte			Dn2
	.byte	W03
	.byte			Fs2, v012
	.byte	W03
	.byte	PEND
	.byte	VOL	, v000
	.byte	BEND	, c_v-64
	.byte		TIE	, Dn4, v080
	.byte	W03
	.byte	VOL	, v005
	.byte	W03
	.byte		v009
	.byte	W03
	.byte		v013
	.byte	W03
	.byte		v018
	.byte	W03
	.byte		v022
	.byte	W03
	.byte		v025
	.byte	W03
	.byte		v030
	.byte	W03
	.byte		v034
	.byte	W03
	.byte		v038
	.byte	W03
	.byte		v043
	.byte	W03
	.byte		v046
	.byte	W03
	.byte		v049
	.byte	W03
	.byte		v054
	.byte	W03
	.byte		v058
	.byte	W03
	.byte		v058
	.byte	W03
	.byte		v060
	.byte	W03
	.byte		v062
	.byte	W03
	.byte		v064
	.byte	W03
	.byte		v064
	.byte	W03
	.byte		v066
	.byte	W03
	.byte		v068
	.byte	W03
	.byte		v070
	.byte	W03
	.byte		v071
	.byte	W03
	.byte		v073
	.byte	W03
	.byte		v075
	.byte	W03
	.byte		v077
	.byte	W03
	.byte		v077
	.byte	W03
	.byte		v079
	.byte	W03
	.byte		v081
	.byte	W01
	.byte	BEND	, c_v-64
	.byte	W01
	.byte		c_v-61
	.byte	W01
	.byte	VOL	, v083
	.byte	W01
	.byte	BEND	, c_v-57
	.byte	W01
	.byte		c_v-53
	.byte	W01
	.byte	VOL	, v084
	.byte	W01
	.byte	BEND	, c_v-50
	.byte	W01
	.byte		c_v-46
	.byte	W01
song0019_10_2:
	.byte	VOL	, v086
	.byte	W01
	.byte	BEND	, c_v-42
	.byte	W01
	.byte		c_v-39
	.byte	W01
	.byte	VOL	, v085
	.byte	W01
	.byte	BEND	, c_v-35
	.byte	W01
	.byte		c_v-31
	.byte	W01
	.byte	VOL	, v084
	.byte	W01
	.byte	BEND	, c_v-28
	.byte	W01
	.byte		c_v-24
	.byte	W01
	.byte	VOL	, v082
	.byte	W01
	.byte	BEND	, c_v-20
	.byte	W01
	.byte		c_v-16
	.byte	W01
	.byte	VOL	, v080
	.byte	W01
	.byte	BEND	, c_v-13
	.byte	W01
	.byte		c_v-9
	.byte	W01
	.byte	VOL	, v078
	.byte	W01
	.byte	BEND	, c_v-5
	.byte	W01
	.byte		c_v-2
	.byte	W01
	.byte	VOL	, v077
	.byte	BEND	, c_v
	.byte	W03
	.byte	VOL	, v075
	.byte	W03
	.byte		v073
	.byte	W03
	.byte		v071
	.byte	W03
	.byte		v070
	.byte	W03
	.byte		v069
	.byte	W03
	.byte		v067
	.byte	W03
	.byte		v065
	.byte	W03
	.byte		v064
	.byte	W03
	.byte		v062
	.byte	W03
	.byte		v060
	.byte	W03
	.byte		v058
	.byte	W03
	.byte		v055
	.byte	W03
	.byte		v051
	.byte	W03
	.byte		v046
	.byte	W03
	.byte		v042
	.byte	W03
	.byte		v038
	.byte	W03
	.byte		v033
	.byte	W03
	.byte		v029
	.byte	W03
	.byte		v025
	.byte	W03
	.byte		v020
	.byte	W03
	.byte		v016
	.byte	W03
	.byte		v012
	.byte	W03
	.byte		v007
	.byte	W03
	.byte		v003
	.byte	W02
	.byte	PEND
	.byte		EOT	, Dn4
	.byte	W01
	.byte	VOL	, v000
	.byte	W03
song0019_10_3:
	.byte	W96
	.byte	VOL	, v086
	.byte	W96
	.byte	W96
	.byte	W96
	.byte	W96
	.byte	W96
	.byte	W96
	.byte	W96
	.byte	W96
	.byte	W96
	.byte	W96
	.byte	W96
	.byte	W96
	.byte	W96
	.byte	W96
	.byte	W96
	.byte	W96
	.byte	W96
	.byte	W96
	.byte	W96
	.byte	W96
	.byte		v000
	.byte	BEND	, c_v-64
	.byte		TIE	, Dn5, v060
	.byte	W03
	.byte	VOL	, v005
	.byte	W03
	.byte		v009
	.byte	W03
	.byte		v013
	.byte	W03
	.byte		v018
	.byte	W03
	.byte		v022
	.byte	W03
	.byte		v025
	.byte	W03
	.byte		v030
	.byte	W03
	.byte		v034
	.byte	W03
	.byte		v038
	.byte	W03
	.byte		v043
	.byte	W03
	.byte		v046
	.byte	W03
	.byte		v049
	.byte	W03
	.byte		v054
	.byte	W03
	.byte		v058
	.byte	W03
	.byte		v058
	.byte	W03
	.byte		v060
	.byte	W03
	.byte		v062
	.byte	W03
	.byte		v064
	.byte	W03
	.byte		v064
	.byte	W03
	.byte		v066
	.byte	W03
	.byte		v068
	.byte	W03
	.byte		v070
	.byte	W03
	.byte		v071
	.byte	W03
	.byte		v073
	.byte	W03
	.byte		v075
	.byte	W03
	.byte		v077
	.byte	W03
	.byte		v077
	.byte	W03
	.byte		v079
	.byte	W03
	.byte		v081
	.byte	W01
	.byte	BEND	, c_v-64
	.byte	W01
	.byte		c_v-59
	.byte	W01
	.byte	VOL	, v083
	.byte	W01
	.byte	BEND	, c_v-53
	.byte	W01
	.byte		c_v-47
	.byte	W01
	.byte	VOL	, v084
	.byte	W01
	.byte	BEND	, c_v-41
	.byte	W01
	.byte		c_v-35
	.byte	W01
	.byte	VOL	, v086
	.byte	W01
	.byte	BEND	, c_v-29
	.byte	W01
	.byte		c_v-24
	.byte	W01
	.byte	VOL	, v085
	.byte	W01
	.byte	BEND	, c_v-18
	.byte	W01
	.byte		c_v-12
	.byte	W01
	.byte	VOL	, v084
	.byte	W01
	.byte	BEND	, c_v-6
	.byte	W01
	.byte		c_v
	.byte	W01
	.byte	VOL	, v082
	.byte	W03
	.byte		v080
	.byte	W03
	.byte		v078
	.byte	W03
	.byte		v077
	.byte	W03
	.byte		v075
	.byte	W03
	.byte		v073
	.byte	W03
	.byte		v071
	.byte	W03
	.byte		v070
	.byte	W03
	.byte		v069
	.byte	W03
	.byte		v067
	.byte	W03
	.byte		v065
	.byte	W03
	.byte		v064
	.byte	W03
	.byte		v062
	.byte	W03
	.byte		v060
	.byte	W03
	.byte		v058
	.byte	W03
	.byte		v055
	.byte	W03
	.byte		v051
	.byte	W03
	.byte		v046
	.byte	W03
	.byte		v042
	.byte	W03
	.byte		v038
	.byte	W03
	.byte		v033
	.byte	W03
	.byte		v029
	.byte	W03
	.byte		v025
	.byte	W03
	.byte		v020
	.byte	W03
	.byte		v016
	.byte	W03
	.byte		v012
	.byte	W03
	.byte		v007
	.byte	W03
	.byte		v003
	.byte	W02
	.byte		EOT	
	.byte	W01
	.byte	VOL	, v000
	.byte	W03
	.byte	W96
	.byte	W96
	.byte	VOICE	, 10
	.byte	VOL	, v077
	.byte	BENDR	, 12
	.byte	W96
	.byte	W48
	.byte		N05	, En2, v024
	.byte	W06
	.byte			Gn2
	.byte	W06
	.byte			An2, v028
	.byte	W06
	.byte			Cn3
	.byte	W06
	.byte			En3, v032
	.byte	W06
	.byte			Gn3, v036
	.byte	W06
	.byte			An3
	.byte	W06
	.byte			Cn4, v040
	.byte	W06
	.byte			En3
	.byte	W06
	.byte			Gn3, v044
	.byte	W06
	.byte			An3
	.byte	W06
	.byte			Cn4, v048
	.byte	W06
	.byte			En4, v052
	.byte	W06
	.byte			Gn4
	.byte	W06
	.byte			An4, v056
	.byte	W06
	.byte			Cn5
	.byte	W06
	.byte			En4, v060
	.byte	W06
	.byte			Gn4
	.byte	W06
	.byte			An4, v064
	.byte	W06
	.byte			Cn5
	.byte	W06
	.byte			En5, v068
	.byte	W06
	.byte			Gn5, v072
	.byte	W06
	.byte			An5
	.byte	W06
	.byte			Cn6, v076
	.byte	W06
	.byte		N11	, Bn5
	.byte	W96
	.byte	W96
	.byte	W48
	.byte		N05	, Fn2, v024
	.byte	W06
	.byte			Gn2
	.byte	W06
	.byte			An2, v028
	.byte	W06
	.byte			Cn3
	.byte	W06
	.byte			Fn3, v032
	.byte	W06
	.byte			Gn3, v036
	.byte	W06
	.byte			An3
	.byte	W06
	.byte			Cn4, v040
	.byte	W06
	.byte			Fn3
	.byte	W06
	.byte			Gn3, v044
	.byte	W06
	.byte			An3
	.byte	W06
	.byte			Cn4, v048
	.byte	W06
	.byte			Fn4, v052
	.byte	W06
	.byte			Gn4
	.byte	W06
	.byte			An4, v056
	.byte	W06
	.byte			Cn5
	.byte	W06
	.byte			Fn4, v060
	.byte	W06
	.byte			Gn4
	.byte	W06
	.byte			An4, v064
	.byte	W06
	.byte			Cn5
	.byte	W06
	.byte			Fn5, v068
	.byte	W06
	.byte			Gn5, v072
	.byte	W06
	.byte			An5
	.byte	W06
	.byte			Cn6, v076
	.byte	W06
	.byte	W96
	.byte	W96
	.byte	W96
	.byte	W96
	.byte	W96
	.byte	W96
	.byte	W96
	.byte	VOICE	, 10
	.byte	VOL	, v069
	.byte	BENDR	, 12
	.byte	W96
	.byte		N02	, Dn3, v032
	.byte	W03
	.byte			Gn3, v040
	.byte	W03
	.byte			An3, v052
	.byte	W03
	.byte			Dn4, v060
	.byte	W03
	.byte			Gn4, v068
	.byte	W03
	.byte			An4, v076
	.byte	W03
	.byte			Dn5, v084
	.byte	W03
	.byte			Gn5, v092
	.byte	W03
	.byte			An5, v104
	.byte	W03
	.byte			Dn6
	.byte	W03
	.byte			An5
	.byte	W03
	.byte			Gn5, v100
	.byte	W03
	.byte			Dn5
	.byte	W03
	.byte			Gn5, v096
	.byte	W03
	.byte			An5
	.byte	W03
	.byte			Gn5
	.byte	W03
	.byte			Dn5, v092
	.byte	W03
	.byte			An4
	.byte	W03
	.byte			Dn5, v088
	.byte	W03
	.byte			Gn5
	.byte	W03
	.byte			Dn5
	.byte	W03
	.byte			An4, v084
	.byte	W03
	.byte			Gn4
	.byte	W03
	.byte			An4, v080
	.byte	W03
	.byte			Dn5
	.byte	W03
	.byte			An4, v076
	.byte	W03
	.byte			Gn4
	.byte	W03
	.byte			Dn4
	.byte	W03
	.byte			Gn4, v072
	.byte	W03
	.byte			An4
	.byte	W03
	.byte			Gn4, v068
	.byte	W03
	.byte			Dn4
	.byte	W03
	.byte	PATT	
		.word	song0019_10_1
	.byte	VOL	, v001
	.byte	BEND	, c_v-64
	.byte		TIE	, Dn4, v080
	.byte	W03
	.byte	VOL	, v005
	.byte	W03
	.byte		v009
	.byte	W03
	.byte		v013
	.byte	W03
	.byte		v018
	.byte	W03
	.byte		v022
	.byte	W03
	.byte		v025
	.byte	W03
	.byte		v030
	.byte	W03
	.byte		v034
	.byte	W03
	.byte		v038
	.byte	W03
	.byte		v043
	.byte	W03
	.byte		v046
	.byte	W03
	.byte		v049
	.byte	W03
	.byte		v054
	.byte	W03
	.byte		v058
	.byte	W03
	.byte		v058
	.byte	W03
	.byte		v060
	.byte	W03
	.byte		v062
	.byte	W03
	.byte		v064
	.byte	W03
	.byte		v064
	.byte	W03
	.byte		v066
	.byte	W03
	.byte		v068
	.byte	W03
	.byte		v070
	.byte	W03
	.byte		v071
	.byte	W03
	.byte		v073
	.byte	W03
	.byte		v075
	.byte	W03
	.byte		v077
	.byte	W03
	.byte		v077
	.byte	W03
	.byte		v079
	.byte	W03
	.byte		v081
	.byte	W01
	.byte	BEND	, c_v-64
	.byte	W01
	.byte		c_v-61
	.byte	W01
	.byte	VOL	, v083
	.byte	W01
	.byte	BEND	, c_v-57
	.byte	W01
	.byte		c_v-53
	.byte	W01
	.byte	VOL	, v084
	.byte	W01
	.byte	BEND	, c_v-50
	.byte	W01
	.byte		c_v-46
	.byte	W01
	.byte	PATT	
		.word	song0019_10_2
	.byte		EOT	, Dn4
	.byte	W01
	.byte	VOL	, v000
	.byte	W03
	.byte	GOTO	
		.word	song0019_10_3
	.byte	FINE

	@********************** Track  11 **********************@

	.global song0019_11
song0019_11:	@ 0x08C5EEBB
	.byte	KEYSH	, 0
	.byte	VOICE	, 64
	.byte	VOL	, v086
	.byte	BENDR	, 12
	.byte	W96
	.byte	W96
	.byte	W96
song0019_11_2:
	.byte	VOL	, v110
	.byte	W01
	.byte		N90	, An3, v120
	.byte	W05
	.byte	VOL	, v094
	.byte	W03
	.byte		v072
	.byte	W03
	.byte		v051
	.byte	W03
	.byte		v045
	.byte	W03
	.byte		v048
	.byte	W03
	.byte		v051
	.byte	W03
	.byte		v054
	.byte	W03
	.byte		v057
	.byte	W03
	.byte		v060
	.byte	W03
	.byte		v063
	.byte	W03
	.byte		v065
	.byte	W03
	.byte		v069
	.byte	W03
	.byte		v071
	.byte	W03
	.byte		v075
	.byte	W03
	.byte		v077
	.byte	W03
	.byte		v080
	.byte	W03
	.byte		v083
	.byte	W03
	.byte		v085
	.byte	W03
	.byte		v089
	.byte	W03
	.byte		v091
	.byte	W03
	.byte		v095
	.byte	W03
	.byte		v097
	.byte	W03
	.byte		v101
	.byte	W03
	.byte		v103
	.byte	W03
	.byte		v106
	.byte	W03
	.byte		v110
	.byte	W14
	.byte		N16	, Dn4
	.byte	W01
	.byte	PEND
song0019_11_1:
	.byte	W13
	.byte		N01	, Cs4, v040
	.byte	W02
	.byte			Cn4, v076
	.byte	W02
	.byte		N02	, As3, v068
	.byte	W03
	.byte			Gs3, v044
	.byte	W02
	.byte			Fs3, v056
	.byte	W02
	.byte			Fn3
	.byte	W03
	.byte			Ds3
	.byte	W03
	.byte			Cs3, v024
	.byte	W03
	.byte		N03	, Cn3, v012
	.byte	W60
	.byte	W03
	.byte	PEND
	.byte	W96
	.byte	W96
	.byte	W96
	.byte	W96
	.byte	W96
	.byte	W96
	.byte	W96
	.byte	W96
	.byte	W96
	.byte	W96
	.byte	W84
	.byte	VOL	, v110
	.byte	W12
	.byte		N11	, An3, v120
	.byte	W36
	.byte		TIE	
	.byte	W06
	.byte	VOL	, v103
	.byte	W03
	.byte		v074
	.byte	W03
	.byte		v045
	.byte	W03
	.byte		v028
	.byte	W03
	.byte		v031
	.byte	W03
	.byte		v034
	.byte	W03
	.byte		v038
	.byte	W03
	.byte		v040
	.byte	W03
	.byte		v044
	.byte	W03
	.byte		v047
	.byte	W03
	.byte		v050
	.byte	W03
	.byte		v053
	.byte	W03
	.byte		v057
	.byte	W03
	.byte		v059
	.byte	W03
	.byte		v063
	.byte	W03
	.byte		v066
	.byte	W03
	.byte		v069
	.byte	W03
	.byte		v072
	.byte	W03
	.byte		v075
	.byte	W03
	.byte		v078
	.byte	W03
	.byte		v082
	.byte	W03
	.byte		v084
	.byte	W03
	.byte		v088
	.byte	W03
	.byte		v091
	.byte	W03
	.byte		v093
	.byte	W03
	.byte		v097
	.byte	W03
	.byte		v100
	.byte	W03
	.byte		v103
	.byte	W03
	.byte		v106
	.byte	W03
	.byte		v110
	.byte	W08
	.byte		EOT	
	.byte	W07
	.byte		N16	
	.byte	W24
	.byte			Gs3
	.byte	W24
	.byte		N11	, Gn3
	.byte	W36
	.byte		TIE	
	.byte	W06
	.byte	VOL	, v103
	.byte	W03
	.byte		v088
	.byte	W03
	.byte		v073
	.byte	W03
	.byte		v058
	.byte	W03
	.byte		v044
	.byte	W03
	.byte		v029
	.byte	W03
	.byte		v029
	.byte	W03
	.byte		v033
	.byte	W03
	.byte		v037
	.byte	W03
	.byte		v041
	.byte	W03
	.byte		v045
	.byte	W03
	.byte		v048
	.byte	W03
	.byte		v052
	.byte	W03
	.byte		v056
	.byte	W03
	.byte		v059
	.byte	W03
	.byte		v063
	.byte	W03
	.byte		v067
	.byte	W03
	.byte		v071
	.byte	W03
	.byte		v075
	.byte	W03
	.byte		v078
	.byte	W03
	.byte		v082
	.byte	W03
	.byte		v086
	.byte	W03
	.byte		v089
	.byte	W03
	.byte		v093
	.byte	W03
	.byte		v097
	.byte	W03
	.byte		v101
	.byte	W03
	.byte		v104
	.byte	W03
	.byte		v109
	.byte	W03
	.byte		v110
	.byte	W11
	.byte		EOT	
	.byte	W07
	.byte		N07	
	.byte	W24
	.byte		N23	
	.byte	W24
	.byte		N15	, Fn3
	.byte	W15
	.byte		N01	, En3, v040
	.byte	W02
	.byte			Ds3, v076
	.byte	W02
	.byte		N02	, Cs3, v068
	.byte	W03
	.byte			Bn2, v044
	.byte	W02
	.byte			An2, v056
	.byte	W02
	.byte			Gs2
	.byte	W03
	.byte			Fs2
	.byte	W03
	.byte			En2, v024
	.byte	W03
	.byte		N03	, Ds2, v012
	.byte	W60
	.byte	W01
	.byte	W96
	.byte	W96
	.byte	VOL	, v006
	.byte		N44	, Gn3, v120
	.byte	W03
	.byte	VOL	, v015
	.byte	W03
	.byte		v024
	.byte	W03
	.byte		v033
	.byte	W03
	.byte		v042
	.byte	W03
	.byte		v045
	.byte	W03
	.byte		v048
	.byte	W03
	.byte		v051
	.byte	W03
	.byte		v054
	.byte	W03
	.byte		v057
	.byte	W03
	.byte		v060
	.byte	W03
	.byte		v063
	.byte	W03
	.byte		v065
	.byte	W03
	.byte		v069
	.byte	W03
	.byte		v071
	.byte	W03
	.byte		v075
	.byte	W03
	.byte		v077
	.byte		N44	, An3
	.byte	W03
	.byte	VOL	, v080
	.byte	W03
	.byte		v083
	.byte	W03
	.byte		v085
	.byte	W03
	.byte		v089
	.byte	W03
	.byte		v091
	.byte	W03
	.byte		v095
	.byte	W03
	.byte		v097
	.byte	W03
	.byte		v101
	.byte	W03
	.byte		v103
	.byte	W03
	.byte		v106
	.byte	W03
	.byte		v110
	.byte	W14
	.byte		N16	, Dn4
	.byte	W01
	.byte	PATT	
		.word	song0019_11_1
	.byte	W96
	.byte	W96
	.byte	W96
	.byte	W96
	.byte	W96
	.byte	W96
	.byte	W96
	.byte	W96
	.byte	W96
	.byte	W96
	.byte	W96
	.byte	W96
	.byte	W96
	.byte	W96
	.byte	W96
	.byte	W96
	.byte	W96
	.byte	VOL	, v110
	.byte		N90	, As3, v120
	.byte	W06
	.byte	VOL	, v094
	.byte	W03
	.byte		v072
	.byte	W03
	.byte		v051
	.byte	W03
	.byte		v045
	.byte	W03
	.byte		v048
	.byte	W03
	.byte		v051
	.byte	W03
	.byte		v054
	.byte	W03
	.byte		v057
	.byte	W03
	.byte		v060
	.byte	W03
	.byte		v063
	.byte	W03
	.byte		v065
	.byte	W03
	.byte		v069
	.byte	W03
	.byte		v071
	.byte	W03
	.byte		v075
	.byte	W03
	.byte		v077
	.byte	W03
	.byte		v080
	.byte	W03
	.byte		v083
	.byte	W03
	.byte		v085
	.byte	W03
	.byte		v089
	.byte	W03
	.byte		v091
	.byte	W03
	.byte		v095
	.byte	W03
	.byte		v097
	.byte	W03
	.byte		v101
	.byte	W03
	.byte		v103
	.byte	W03
	.byte		v106
	.byte	W03
	.byte		v110
	.byte	W12
	.byte		v095
	.byte	W03
	.byte		v064
	.byte		N90	, Ds4
	.byte	W03
	.byte	VOL	, v045
	.byte	W03
	.byte		v046
	.byte	W03
	.byte		v049
	.byte	W03
	.byte		v051
	.byte	W03
	.byte		v054
	.byte	W03
	.byte		v056
	.byte	W03
	.byte		v058
	.byte	W03
	.byte		v061
	.byte	W03
	.byte		v064
	.byte	W03
	.byte		v066
	.byte	W03
	.byte		v069
	.byte	W03
	.byte		v071
	.byte	W03
	.byte		v073
	.byte	W03
	.byte		v076
	.byte	W03
	.byte		v078
	.byte	W03
	.byte		v081
	.byte	W03
	.byte		v084
	.byte	W03
	.byte		v086
	.byte	W03
	.byte		v089
	.byte	W03
	.byte		v090
	.byte	W03
	.byte		v093
	.byte	W03
	.byte		v096
	.byte	W03
	.byte		v098
	.byte	W03
	.byte		v101
	.byte	W03
	.byte		v103
	.byte	W03
	.byte		v106
	.byte	W03
	.byte		v108
	.byte	W03
	.byte		v110
	.byte	W12
	.byte		N13	, Dn4
	.byte	W13
	.byte		N01	, Cs4, v040
	.byte	W02
	.byte			Cn4, v076
	.byte	W02
	.byte		N02	, As3, v068
	.byte	W03
	.byte			Gs3, v044
	.byte	W02
	.byte			Fs3, v056
	.byte	W02
	.byte			Fn3
	.byte	W03
	.byte			Ds3
	.byte	W03
	.byte			Cs3, v024
	.byte	W03
	.byte		N03	, Cn3, v012
	.byte	W60
	.byte	W03
	.byte	W96
	.byte	W96
	.byte	PATT	
		.word	song0019_11_2
	.byte	GOTO	
		.word	song0019_11_1
	.byte	W13
	.byte		N01	, Cs4, v040
	.byte	W02
	.byte			Cn4, v076
	.byte	W02
	.byte		N02	, As3, v068
	.byte	W03
	.byte			Gs3, v044
	.byte	W02
	.byte			Fs3, v056
	.byte	W02
	.byte			Fn3
	.byte	W03
	.byte			Ds3
	.byte	W03
	.byte			Cs3, v024
	.byte	W03
	.byte		N03	, Cn3, v012
	.byte	W03
	.byte	FINE

	@********************** Track  12 **********************@

	.global song0019_12
song0019_12:	@ 0x08C5F101
	.byte	KEYSH	, 0
	.byte	VOICE	, 102
	.byte	VOL	, v095
	.byte	BENDR	, 12
	.byte	W96
	.byte	W96
	.byte	W96
	.byte	W96
song0019_12_1:
	.byte	W96
	.byte	W96
	.byte	W24
	.byte		N03	, Dn4, v040
	.byte		N03	, Bn4
	.byte	W06
	.byte			Dn4
	.byte		N03	, Bn4
	.byte	W06
	.byte			An3
	.byte		N03	, Fs4
	.byte	W06
	.byte			An3, v036
	.byte		N03	, Fs4
	.byte	W06
	.byte			Bn3
	.byte		N03	, Gn4
	.byte	W06
	.byte			Bn3
	.byte		N03	, Gn4
	.byte	W06
	.byte			Fs3, v032
	.byte		N03	, Dn4
	.byte	W06
	.byte			Fs3
	.byte		N03	, Dn4
	.byte	W06
	.byte			Bn3
	.byte		N03	, Fs4
	.byte	W06
	.byte			Bn3
	.byte		N03	, Fs4
	.byte	W06
	.byte			Dn3, v028
	.byte		N03	, Bn3
	.byte	W06
	.byte			Dn3
	.byte		N03	, Bn3
	.byte	W06
	.byte			Fs3
	.byte		N03	, Dn4
	.byte	W06
	.byte			Fs3, v024
	.byte		N03	, Dn4
	.byte	W06
	.byte			Bn2
	.byte		N03	, Gn3
	.byte	W06
	.byte			Bn2
	.byte		N03	, Gn3
	.byte	W06
	.byte			Dn3, v020
	.byte		N03	, Bn3
	.byte	W06
	.byte			Dn3
	.byte		N03	, Bn3
	.byte	W06
	.byte			Gn2
	.byte		N03	, Dn3
	.byte	W06
	.byte			Gn2
	.byte		N03	, Dn3
	.byte	W06
	.byte			Bn2, v016
	.byte		N03	, Fs3
	.byte	W06
	.byte			Bn2
	.byte		N03	, Fs3
	.byte	W06
	.byte			Dn2
	.byte		N03	, Bn2
	.byte	W06
	.byte			Dn2, v012
	.byte		N03	, Bn2
	.byte	W18
	.byte		N05	, Gn1, v004
	.byte	W06
	.byte		N05	
	.byte	W06
	.byte	W96
	.byte	W96
	.byte	W96
	.byte	W96
	.byte	W96
	.byte	W96
	.byte	W96
	.byte	W96
	.byte	W96
	.byte	W96
	.byte	W96
	.byte	W96
	.byte	W96
	.byte	W96
	.byte	W96
	.byte	W96
	.byte	W96
	.byte	W96
	.byte	W24
	.byte		N03	, Dn4, v032
	.byte		N03	, Bn4
	.byte	W06
	.byte			Dn4, v028
	.byte		N03	, Bn4
	.byte	W06
	.byte			An3
	.byte		N03	, Fs4
	.byte	W06
	.byte			An3
	.byte		N03	, Fs4
	.byte	W06
	.byte			Bn3
	.byte		N03	, Gn4
	.byte	W06
	.byte			Bn3, v024
	.byte		N03	, Gn4
	.byte	W06
	.byte			Fs3
	.byte		N03	, Dn4
	.byte	W06
	.byte			Fs3
	.byte		N03	, Dn4
	.byte	W06
	.byte			Bn3, v020
	.byte		N03	, Fs4
	.byte	W06
	.byte			Bn3
	.byte		N03	, Fs4
	.byte	W06
	.byte			Dn3
	.byte		N03	, Bn3
	.byte	W06
	.byte			Dn3, v016
	.byte		N03	, Bn3
	.byte	W06
	.byte			Fs3
	.byte		N03	, Dn4
	.byte	W06
	.byte			Fs3
	.byte		N03	, Dn4
	.byte	W06
	.byte			Bn2
	.byte		N03	, Gn3
	.byte	W06
	.byte			Bn2, v012
	.byte		N03	, Gn3
	.byte	W06
	.byte			Dn3
	.byte		N03	, Bn3
	.byte	W06
	.byte			Dn3
	.byte		N03	, Bn3
	.byte	W06
	.byte			Gn2, v008
	.byte		N03	, Dn3
	.byte	W06
	.byte			Gn2
	.byte		N03	, Dn3
	.byte	W06
	.byte			Bn2
	.byte		N03	, Fs3
	.byte	W06
	.byte			Bn2, v004
	.byte		N03	, Fs3
	.byte	W06
	.byte			Dn2
	.byte		N03	, Bn2
	.byte	W06
	.byte			Dn2
	.byte		N03	, Bn2
	.byte	W18
	.byte		N05	, Gn1
	.byte	W06
	.byte		N05	
	.byte	W06
	.byte	W96
	.byte	W96
	.byte	W96
	.byte	W96
	.byte	W96
	.byte	W96
	.byte	W96
	.byte	W96
	.byte	W96
	.byte	W96
	.byte	W96
	.byte	W96
	.byte	W96
	.byte	W96
	.byte	W96
	.byte	W96
	.byte	W96
	.byte	W96
	.byte	W96
	.byte	W96
	.byte	GOTO	
		.word	song0019_12_1
	.byte	FINE

	@********************** Track  13 **********************@

	.global song0019_13
song0019_13:	@ 0x08C5F21A
	.byte	KEYSH	, 0
	.byte	VOICE	, 79
	.byte	VOL	, v086
	.byte	LFOS	, 26
	.byte	MODT	, 1
	.byte	LFODL	, 28
	.byte	W96
	.byte	W96
	.byte	W96
	.byte	W96
song0019_13_1:
	.byte	W96
	.byte	W96
	.byte	W96
	.byte	W72
	.byte	VOL	, v051
	.byte		N24	, Dn3, v096
	.byte	W12
	.byte	VOL	, v049
	.byte	W12
	.byte		v071
	.byte	W01
	.byte		N36	, Dn4
	.byte	W11
	.byte	VOL	, v070
	.byte	W12
	.byte		v073
	.byte	W12
	.byte		v071
	.byte	W02
	.byte		N01	, As3, v076
	.byte	W02
	.byte		N92	, Bn3, v084
	.byte	W08
	.byte	MOD	, 4
	.byte	VOL	, v064
	.byte	W12
	.byte	MOD	, 15
	.byte	VOL	, v071
	.byte	W12
	.byte	MOD	, 31
	.byte	VOL	, v071
	.byte	W12
	.byte	MOD	, 46
	.byte	VOL	, v064
	.byte	W12
	.byte	MOD	, 59
	.byte	VOL	, v057
	.byte	W12
	.byte	MOD	, 57
	.byte	VOL	, v045
	.byte	W12
	.byte	MOD	, 43
	.byte	VOL	, v030
	.byte	W12
	.byte	MOD	, 0
	.byte	VOL	, v011
	.byte	W10
	.byte		N02	, Fs3, v076
	.byte	W02
	.byte	VOL	, v064
	.byte	W01
	.byte		N23	, Gn3, v084
	.byte	W11
	.byte	VOL	, v064
	.byte	W12
	.byte		v077
	.byte		N24	, Fs3
	.byte	W12
	.byte	VOL	, v075
	.byte	W12
	.byte		v081
	.byte	W01
	.byte		TIE	, En3, v080
	.byte	W11
	.byte	VOL	, v073
	.byte	W12
	.byte	MOD	, 6
	.byte	VOL	, v077
	.byte	W12
	.byte	MOD	, 12
	.byte	VOL	, v081
	.byte	W12
	.byte	MOD	, 26
	.byte	VOL	, v081
	.byte	W12
	.byte	MOD	, 36
	.byte	VOL	, v079
	.byte	W12
	.byte	MOD	, 43
	.byte	VOL	, v071
	.byte	W12
	.byte		v071
	.byte	W12
	.byte		v057
	.byte	W12
	.byte	MOD	, 44
	.byte	VOL	, v043
	.byte	W12
	.byte		v045
	.byte	W12
	.byte	MOD	, 24
	.byte	VOL	, v019
	.byte	W12
	.byte	MOD	, 0
	.byte	VOL	, v000
	.byte	W08
	.byte		EOT	
	.byte	W16
	.byte	VOL	, v064
	.byte		N24	, Dn3, v092
	.byte	W12
	.byte	VOL	, v064
	.byte	W12
	.byte		v076
	.byte	W02
	.byte		N36	, Dn4, v100
	.byte	W10
	.byte	VOL	, v063
	.byte	W12
	.byte		v071
	.byte	W12
	.byte		v075
	.byte	W03
	.byte		N03	, As3, v072
	.byte	W03
	.byte		N90	, Bn3, v088
	.byte	W06
	.byte	MOD	, 3
	.byte	VOL	, v065
	.byte	W12
	.byte	MOD	, 24
	.byte	VOL	, v067
	.byte	W12
	.byte	MOD	, 34
	.byte	VOL	, v057
	.byte	W12
	.byte	MOD	, 43
	.byte	VOL	, v064
	.byte	W12
	.byte	MOD	, 48
	.byte	VOL	, v051
	.byte	W12
	.byte	MOD	, 52
	.byte	VOL	, v051
	.byte	W12
	.byte	MOD	, 54
	.byte	VOL	, v042
	.byte	W12
	.byte	MOD	, 23
	.byte	VOL	, v000
	.byte	W12
	.byte	MOD	, 0
	.byte	VOL	, v069
	.byte		N02	, Fs3, v064
	.byte	W03
	.byte		N22	, Gn3, v096
	.byte	W09
	.byte	VOL	, v071
	.byte	W12
	.byte		v090
	.byte	W01
	.byte		N24	, Fs3, v088
	.byte	W11
	.byte	VOL	, v090
	.byte	W12
	.byte		v081
	.byte	W02
	.byte		TIE	, Fn3, v084
	.byte	W10
	.byte	VOL	, v072
	.byte	W12
	.byte	MOD	, 13
	.byte	VOL	, v072
	.byte	W12
	.byte	MOD	, 26
	.byte	VOL	, v068
	.byte	W12
	.byte	MOD	, 37
	.byte	VOL	, v068
	.byte	W12
	.byte	MOD	, 46
	.byte	VOL	, v066
	.byte	W12
	.byte	MOD	, 48
	.byte	VOL	, v064
	.byte	W12
	.byte	MOD	, 52
	.byte	VOL	, v059
	.byte	W12
	.byte	MOD	, 55
	.byte	VOL	, v055
	.byte	W12
	.byte	MOD	, 57
	.byte	VOL	, v051
	.byte	W12
	.byte	MOD	, 58
	.byte	VOL	, v049
	.byte	W12
	.byte	MOD	, 27
	.byte	VOL	, v035
	.byte	W12
	.byte	MOD	, 0
	.byte	VOL	, v000
	.byte	W04
	.byte		EOT	
	.byte	W20
	.byte	VOL	, v071
	.byte		N11	, Gn3, v092
	.byte	W12
	.byte	VOL	, v077
	.byte		N11	, Gs3, v096
	.byte	W12
	.byte	VOL	, v097
	.byte		N32	, An3, v084
	.byte	W12
	.byte	VOL	, v091
	.byte	W12
	.byte	MOD	, 5
	.byte	VOL	, v091
	.byte	W12
	.byte	MOD	, 24
	.byte	VOL	, v080
	.byte		TIE	, Dn3, v092
	.byte	W12
	.byte	MOD	, 26
	.byte	VOL	, v077
	.byte	W12
	.byte		v076
	.byte	W12
	.byte	MOD	, 46
	.byte	VOL	, v068
	.byte	W12
	.byte	MOD	, 56
	.byte	VOL	, v064
	.byte	W12
	.byte	MOD	, 50
	.byte	VOL	, v058
	.byte	W12
	.byte	MOD	, 24
	.byte	VOL	, v054
	.byte	W12
	.byte	MOD	, 0
	.byte	VOL	, v000
	.byte	W12
	.byte		v051
	.byte	W03
	.byte		EOT	
	.byte	W08
	.byte		N03	, Cs4, v072
	.byte	W01
	.byte	VOL	, v110
	.byte	W02
	.byte		N21	, Dn4, v088
	.byte	W10
	.byte	VOL	, v056
	.byte	W12
	.byte		v110
	.byte		N23	, Cs4, v092
	.byte	W12
	.byte	VOL	, v078
	.byte	W12
	.byte		v100
	.byte		N32	, Cn4, v080
	.byte	W12
	.byte	VOL	, v076
	.byte	W12
	.byte		v066
	.byte	W12
	.byte		v080
	.byte		TIE	, En3, v076
	.byte	W12
	.byte	MOD	, 4
	.byte	VOL	, v071
	.byte	W12
	.byte	MOD	, 15
	.byte	VOL	, v074
	.byte	W12
	.byte	MOD	, 26
	.byte	VOL	, v074
	.byte	W12
	.byte	MOD	, 45
	.byte	VOL	, v076
	.byte	W12
	.byte	MOD	, 50
	.byte	VOL	, v068
	.byte	W12
	.byte	MOD	, 51
	.byte	VOL	, v066
	.byte	W12
	.byte		v058
	.byte	W12
	.byte	MOD	, 36
	.byte	VOL	, v044
	.byte	W12
	.byte	MOD	, 0
	.byte	VOL	, v000
	.byte	W02
	.byte		EOT	
	.byte	W22
	.byte	VOL	, v077
	.byte		N11	, En3, v080
	.byte	W12
	.byte	VOL	, v073
	.byte		N11	, Fs3, v076
	.byte	W12
	.byte	VOL	, v077
	.byte		N80	, Gn3, v088
	.byte	W12
	.byte	VOL	, v075
	.byte	W12
	.byte		v071
	.byte	W12
	.byte		v071
	.byte	W12
	.byte		v067
	.byte	W12
	.byte		v067
	.byte	W12
	.byte		v071
	.byte	W12
	.byte		v071
	.byte		N66	, En3, v084
	.byte	W12
	.byte	VOL	, v069
	.byte	W12
	.byte	MOD	, 7
	.byte	VOL	, v064
	.byte	W12
	.byte	MOD	, 47
	.byte	VOL	, v059
	.byte	W12
	.byte	MOD	, 30
	.byte	VOL	, v032
	.byte	W12
	.byte	MOD	, 0
	.byte	VOL	, v000
	.byte	W12
	.byte		v091
	.byte		N11	, En3, v068
	.byte	W12
	.byte	VOL	, v086
	.byte		N11	, Gn3, v084
	.byte	W12
	.byte	VOL	, v090
	.byte		N11	, Bn3, v068
	.byte	W12
	.byte	VOL	, v086
	.byte		N64	, Dn4, v080
	.byte	W12
	.byte	VOL	, v076
	.byte	W12
	.byte	MOD	, 27
	.byte	VOL	, v076
	.byte	W12
	.byte	MOD	, 51
	.byte	VOL	, v070
	.byte	W12
	.byte	MOD	, 55
	.byte	VOL	, v077
	.byte	W12
	.byte	MOD	, 56
	.byte	VOL	, v000
	.byte	W09
	.byte		N03	, Cs4, v088
	.byte	W03
	.byte	MOD	, 0
	.byte	VOL	, v087
	.byte		N09	, Dn4
	.byte	W11
	.byte		N01	, Cs4, v104
	.byte	W01
	.byte	VOL	, v094
	.byte		N30	, Dn4, v056
	.byte	W12
	.byte	VOL	, v074
	.byte	W12
	.byte		v020
	.byte	W10
	.byte		N02	, Cn4, v072
	.byte	W02
	.byte	VOL	, v000
	.byte		N02	, Bn3, v068
	.byte	W03
	.byte		N03	, An3, v060
	.byte	W04
	.byte		N02	, Gn3, v048
	.byte	W02
	.byte		N03	, Fn3, v024
	.byte	W03
	.byte			En3, v008
	.byte	W60
	.byte	W96
	.byte	W96
	.byte	VOL	, v075
	.byte	W96
	.byte	W72
	.byte		v090
	.byte		N24	, Dn3, v096
	.byte	W12
	.byte	VOL	, v086
	.byte	W12
	.byte		v090
	.byte	W01
	.byte		N36	, Dn4
	.byte	W11
	.byte	VOL	, v091
	.byte	W12
	.byte		v080
	.byte	W12
	.byte		v073
	.byte	W02
	.byte		N01	, As3, v076
	.byte	W02
	.byte		N92	, Bn3, v084
	.byte	W08
	.byte	VOL	, v077
	.byte	W12
	.byte	MOD	, 23
	.byte	VOL	, v081
	.byte	W12
	.byte	MOD	, 39
	.byte	VOL	, v073
	.byte	W12
	.byte	MOD	, 55
	.byte	VOL	, v065
	.byte	W12
	.byte	MOD	, 63
	.byte	VOL	, v063
	.byte	W12
	.byte	MOD	, 59
	.byte	VOL	, v053
	.byte	W12
	.byte	MOD	, 51
	.byte	VOL	, v000
	.byte	W12
	.byte	MOD	, 0
	.byte	VOL	, v016
	.byte	W10
	.byte		N02	, Fs3, v076
	.byte	W02
	.byte	VOL	, v067
	.byte	W01
	.byte		N23	, Gn3, v084
	.byte	W11
	.byte	VOL	, v081
	.byte	W12
	.byte		v090
	.byte		N24	, Fs3
	.byte	W12
	.byte	VOL	, v082
	.byte	W12
	.byte		v084
	.byte	W01
	.byte		TIE	, En3, v080
	.byte	W11
	.byte	MOD	, 10
	.byte	VOL	, v074
	.byte	W12
	.byte	MOD	, 24
	.byte	VOL	, v078
	.byte	W12
	.byte	MOD	, 37
	.byte	VOL	, v077
	.byte	W12
	.byte	MOD	, 46
	.byte	VOL	, v074
	.byte	W12
	.byte	MOD	, 52
	.byte	VOL	, v068
	.byte	W12
	.byte	MOD	, 54
	.byte	VOL	, v060
	.byte	W12
	.byte	MOD	, 53
	.byte	VOL	, v055
	.byte	W12
	.byte	MOD	, 51
	.byte	VOL	, v051
	.byte	W12
	.byte	MOD	, 48
	.byte	VOL	, v045
	.byte	W12
	.byte	MOD	, 37
	.byte	VOL	, v043
	.byte	W12
	.byte	MOD	, 7
	.byte	VOL	, v019
	.byte	W12
	.byte	MOD	, 0
	.byte	VOL	, v000
	.byte	W08
	.byte		EOT	
	.byte	W16
	.byte	VOL	, v053
	.byte		N24	, Dn3, v092
	.byte	W12
	.byte	VOL	, v058
	.byte	W12
	.byte		v063
	.byte	W02
	.byte		N36	, Dn4, v100
	.byte	W10
	.byte	VOL	, v058
	.byte	W12
	.byte		v058
	.byte	W12
	.byte	MOD	, 2
	.byte	VOL	, v064
	.byte	W03
	.byte		N03	, As3, v072
	.byte	W03
	.byte		N90	, Bn3, v088
	.byte	W06
	.byte	MOD	, 8
	.byte	VOL	, v059
	.byte	W12
	.byte	MOD	, 29
	.byte	VOL	, v059
	.byte	W12
	.byte	MOD	, 41
	.byte	VOL	, v055
	.byte	W12
	.byte	MOD	, 42
	.byte	VOL	, v053
	.byte	W12
	.byte	MOD	, 45
	.byte	VOL	, v045
	.byte	W12
	.byte		v041
	.byte	W12
	.byte		v000
	.byte	W12
	.byte	MOD	, 3
	.byte	VOL	, v011
	.byte	W12
	.byte	MOD	, 0
	.byte	VOL	, v055
	.byte		N02	, Fs3, v064
	.byte	W03
	.byte		N22	, Gn3, v096
	.byte	W09
	.byte	VOL	, v067
	.byte	W12
	.byte		v079
	.byte	W01
	.byte		N24	, Fs3, v088
	.byte	W11
	.byte	VOL	, v081
	.byte	W12
	.byte		v063
	.byte	W02
	.byte		TIE	, Fn3, v084
	.byte	W10
	.byte	MOD	, 7
	.byte	VOL	, v058
	.byte	W12
	.byte	MOD	, 12
	.byte	VOL	, v061
	.byte	W12
	.byte	MOD	, 20
	.byte	VOL	, v063
	.byte	W12
	.byte	MOD	, 36
	.byte	VOL	, v059
	.byte	W12
	.byte	MOD	, 37
	.byte	VOL	, v061
	.byte	W12
	.byte		v057
	.byte	W12
	.byte		v058
	.byte	W12
	.byte	MOD	, 38
	.byte	VOL	, v051
	.byte	W12
	.byte	MOD	, 37
	.byte	VOL	, v047
	.byte	W12
	.byte	MOD	, 13
	.byte	VOL	, v038
	.byte	W12
	.byte	MOD	, 0
	.byte	VOL	, v017
	.byte	W12
	.byte		v000
	.byte	W04
	.byte		EOT	
	.byte	W20
	.byte	VOL	, v047
	.byte		N11	, Fs3, v104
	.byte	W12
	.byte	VOL	, v058
	.byte		N11	, Gs3, v100
	.byte	W12
	.byte	MOD	, 1
	.byte	VOL	, v058
	.byte		N68	, An3
	.byte	W12
	.byte	MOD	, 15
	.byte	VOL	, v061
	.byte	W12
	.byte	MOD	, 26
	.byte	VOL	, v069
	.byte	W12
	.byte	MOD	, 36
	.byte	VOL	, v065
	.byte	W12
	.byte	MOD	, 22
	.byte	VOL	, v065
	.byte	W12
	.byte	MOD	, 0
	.byte	VOL	, v069
	.byte	W12
	.byte		v051
	.byte		N23	, En3, v080
	.byte	W12
	.byte	VOL	, v055
	.byte	W12
	.byte		v060
	.byte		N23	, Ds3, v096
	.byte	W12
	.byte	VOL	, v050
	.byte	W12
	.byte		v070
	.byte		N23	, Cn4, v092
	.byte	W12
	.byte	VOL	, v078
	.byte	W12
	.byte	MOD	, 5
	.byte	VOL	, v067
	.byte		N23	, Bn3, v080
	.byte	W12
	.byte	MOD	, 12
	.byte	VOL	, v065
	.byte	W12
	.byte	MOD	, 1
	.byte	VOL	, v069
	.byte		N20	, An3, v100
	.byte	W12
	.byte	MOD	, 0
	.byte	VOL	, v067
	.byte	W12
	.byte		v059
	.byte		N44	, An3, v112
	.byte	W12
	.byte	VOL	, v071
	.byte	W12
	.byte		v077
	.byte	W12
	.byte	MOD	, 1
	.byte	VOL	, v076
	.byte	W12
	.byte		v072
	.byte		N23	, Gn3, v076
	.byte	W12
	.byte	VOL	, v066
	.byte	W12
	.byte		v068
	.byte		N11	, Fs3, v088
	.byte	W12
	.byte	VOL	, v062
	.byte		N60	, Gn3, v092
	.byte	W12
	.byte	MOD	, 20
	.byte	VOL	, v056
	.byte	W12
	.byte	MOD	, 40
	.byte	VOL	, v056
	.byte	W12
	.byte	MOD	, 44
	.byte	VOL	, v050
	.byte	W12
	.byte	MOD	, 45
	.byte	VOL	, v045
	.byte	W12
	.byte	MOD	, 10
	.byte	VOL	, v000
	.byte	W12
	.byte	MOD	, 0
	.byte	W12
	.byte	VOL	, v070
	.byte		N11	, En3, v072
	.byte	W12
	.byte	VOL	, v075
	.byte		N11	, Fs3, v080
	.byte	W12
	.byte	VOL	, v081
	.byte		N32	, Gn3, v100
	.byte	W12
	.byte	VOL	, v075
	.byte	W12
	.byte		v075
	.byte	W12
	.byte		v075
	.byte		N44	, Cn3, v068
	.byte	W12
	.byte	VOL	, v069
	.byte	W12
	.byte		v063
	.byte	W12
	.byte		v057
	.byte	W12
	.byte		v088
	.byte		N11	, En3, v104
	.byte	W12
	.byte	VOL	, v084
	.byte		N32	, Dn3, v088
	.byte	W12
	.byte	VOL	, v070
	.byte	W12
	.byte		v074
	.byte	W12
	.byte		v071
	.byte		N56	, Fn2, v076
	.byte	W12
	.byte	VOL	, v057
	.byte	W12
	.byte		v047
	.byte	W12
	.byte		v045
	.byte	W12
	.byte		v006
	.byte	W12
	.byte		v000
	.byte	W24
	.byte		v051
	.byte		N05	, Fn2, v068
	.byte	W06
	.byte			Gn2, v080
	.byte	W06
	.byte	VOL	, v078
	.byte		N07	, As2, v104
	.byte	W12
	.byte	VOL	, v088
	.byte		N10	, As2, v100
	.byte	W12
	.byte	VOL	, v090
	.byte		N05	, Cn3, v060
	.byte	W06
	.byte			As2, v088
	.byte	W06
	.byte	VOL	, v101
	.byte		N11	, Cn3, v104
	.byte	W12
	.byte	VOL	, v077
	.byte		N04	, Dn3, v072
	.byte	W06
	.byte		N05	, Cn3, v080
	.byte	W06
	.byte	VOL	, v089
	.byte		N10	, Dn3, v100
	.byte	W12
	.byte	VOL	, v078
	.byte		N04	, Fn3, v048
	.byte	W06
	.byte		N02	, Dn3, v056
	.byte	W06
	.byte	VOL	, v078
	.byte		N11	, Fn3, v092
	.byte	W12
	.byte	VOL	, v090
	.byte		N04	, As3, v060
	.byte	W06
	.byte		N02	, Fn3, v056
	.byte	W06
	.byte	VOL	, v080
	.byte		N11	, As3, v096
	.byte	W12
	.byte	VOL	, v069
	.byte		N05	, Cn4, v092
	.byte	W06
	.byte		N03	, As3, v072
	.byte	W06
	.byte	VOL	, v073
	.byte		N11	, Cn4, v096
	.byte	W12
	.byte	VOL	, v079
	.byte		N05	, Dn4, v092
	.byte	W06
	.byte		N03	, En4, v072
	.byte	W06
	.byte	VOL	, v076
	.byte	W02
	.byte		N06	, Dn4, v092
	.byte	W05
	.byte		N07	, En4, v084
	.byte	W05
	.byte	VOL	, v077
	.byte	W01
	.byte		N06	, Dn4, v072
	.byte	W06
	.byte		N05	, En4, v080
	.byte	W05
	.byte	VOL	, v072
	.byte	W02
	.byte		N03	, Dn4
	.byte	W04
	.byte		N04	, En4
	.byte	W05
	.byte		N03	, Dn4, v068
	.byte	W01
	.byte	VOL	, v071
	.byte	W02
	.byte		N05	, En4, v080
	.byte	W05
	.byte		N03	, Dn4, v072
	.byte	W04
	.byte			En4, v080
	.byte	W01
	.byte	VOL	, v062
	.byte	W04
	.byte		N04	, Dn4, v076
	.byte	W04
	.byte			En4, v072
	.byte	W04
	.byte	VOL	, v062
	.byte	W01
	.byte		N04	, Dn4, v080
	.byte	W04
	.byte			En4, v084
	.byte	W06
	.byte		N02	, Dn4, v080
	.byte	W01
	.byte	VOL	, v054
	.byte	W02
	.byte		N03	, En4, v084
	.byte	W05
	.byte			Dn4, v068
	.byte	W03
	.byte		N04	, En4, v076
	.byte	W02
	.byte	VOL	, v051
	.byte	W03
	.byte		N03	, Dn4, v068
	.byte	W04
	.byte		N04	, En4
	.byte	W05
	.byte	VOL	, v044
	.byte	W01
	.byte		N03	, Dn4
	.byte	W03
	.byte		N05	, En4, v076
	.byte	W06
	.byte		N03	, Dn4, v068
	.byte	W02
	.byte	VOL	, v042
	.byte	W02
	.byte		N05	, En4, v080
	.byte	W05
	.byte		N03	, Dn4, v068
	.byte	W04
	.byte		N04	, En4, v084
	.byte	W01
	.byte	VOL	, v036
	.byte	W04
	.byte		N03	, Dn4, v068
	.byte	W04
	.byte		N04	, En4, v076
	.byte	W04
	.byte	VOL	, v038
	.byte	W01
	.byte		N03	, Dn4, v068
	.byte	W04
	.byte			En4, v080
	.byte	W05
	.byte		N04	, Dn4, v076
	.byte	W02
	.byte	VOL	, v032
	.byte	W03
	.byte		N04	, En4, v072
	.byte	W04
	.byte		N05	, Dn4, v080
	.byte	W05
	.byte	VOL	, v030
	.byte		N04	, En4
	.byte	W05
	.byte			Dn4, v088
	.byte	W04
	.byte			En4
	.byte	W03
	.byte	VOL	, v025
	.byte	W02
	.byte		N05	, Dn4, v084
	.byte	W10
	.byte	VOL	, v025
	.byte	W12
	.byte		v000
	.byte	W96
	.byte	W96
	.byte	GOTO	
		.word	song0019_13_1
	.byte	FINE

	@********************** Track  14 **********************@

	.global song0019_14
song0019_14:	@ 0x08C5F7D6
	.byte	KEYSH	, 0
	.byte	VOICE	, 56
	.byte	VOL	, v051
	.byte	W96
	.byte	W96
	.byte	W96
	.byte	W96
song0019_14_6:
	.byte	W96
	.byte	W96
	.byte	W96
	.byte	VOICE	, 56
	.byte	VOL	, v051
	.byte	W72
	.byte		N24	, Dn4, v104
	.byte	W24
song0019_14_1:
	.byte	W01
	.byte		N36	, Bn4, v104
	.byte	W36
	.byte	W01
	.byte		N01	, Fs4, v084
	.byte	W02
	.byte		N92	, Gn4, v096
	.byte	W56
	.byte	PEND
song0019_14_2:
	.byte	W44
	.byte	W02
	.byte		N02	, As3, v084
	.byte	W03
	.byte		N23	, Bn3, v096
	.byte	W23
	.byte		N24	, An3
	.byte	W24
	.byte	PEND
song0019_14_3:
	.byte	W01
	.byte		TIE	, Gn3, v092
	.byte	W92
	.byte	W03
	.byte	PEND
	.byte	W56
	.byte		EOT	
	.byte	W16
	.byte		N24	, Dn4, v100
	.byte	W24
song0019_14_4:
	.byte	W02
	.byte		N36	, Bn4, v108
	.byte	W36
	.byte	W01
	.byte		N03	, Fs4, v080
	.byte	W03
	.byte		N90	, Gn4, v096
	.byte	W54
	.byte	PEND
song0019_14_5:
	.byte	W48
	.byte		N02	, As3, v076
	.byte	W03
	.byte		N22	, Bn3, v104
	.byte	W22
	.byte		N24	, Dn4, v100
	.byte	W23
	.byte	PEND
	.byte	W02
	.byte		TIE	, An3, v096
	.byte	W92
	.byte	W02
	.byte	W52
	.byte		EOT	
	.byte	W20
	.byte		N11	, En4, v100
	.byte	W12
	.byte			Fn4, v108
	.byte	W12
	.byte		N32	, Fs4, v096
	.byte	W36
	.byte		TIE	, An3, v100
	.byte	W60
	.byte	W36
	.byte	W03
	.byte		EOT	
	.byte	W08
	.byte		N03	, Fn4, v080
	.byte	W03
	.byte		N21	, Fs4, v096
	.byte	W22
	.byte		N23	, Fn4, v104
	.byte	W24
	.byte		N32	, En4, v088
	.byte	W36
	.byte		TIE	, Cn4, v084
	.byte	W60
	.byte	W48
	.byte	W02
	.byte		EOT	
	.byte	W22
	.byte		N11	, Gn3, v092
	.byte	W12
	.byte			An3, v084
	.byte	W12
	.byte		N80	, As3, v096
	.byte	W84
	.byte		N66	, Gn3
	.byte	W12
	.byte	W60
	.byte		N11	, Cn4, v080
	.byte	W12
	.byte			En4, v096
	.byte	W12
	.byte			Gn4, v076
	.byte	W12
	.byte		N64	, Gn4, v092
	.byte	W68
	.byte	W01
	.byte		N03	, Fs4, v100
	.byte	W03
	.byte		N09	, Gn4, v096
	.byte	W11
	.byte		N01	, Fn4, v116
	.byte	W01
	.byte		N30	, Fs4, v068
	.byte	W12
	.byte	W96
	.byte	W96
	.byte	W96
	.byte	W96
	.byte	W72
	.byte		N24	, Dn4, v104
	.byte	W24
	.byte	PATT	
		.word	song0019_14_1
	.byte	PATT	
		.word	song0019_14_2
	.byte	PATT	
		.word	song0019_14_3
	.byte	W56
	.byte		EOT	, Gn3
	.byte	W16
	.byte		N24	, Bn3, v100
	.byte	W24
	.byte	PATT	
		.word	song0019_14_4
	.byte	PATT	
		.word	song0019_14_5
	.byte	W02
	.byte		TIE	, Cn4, v096
	.byte	W92
	.byte	W02
	.byte	VOICE	, 1
	.byte	VOL	, v077
	.byte	W52
	.byte		EOT	
	.byte	W44
	.byte		N80	, En3, v076
	.byte	W84
	.byte		N05	, Fs3
	.byte	W06
	.byte			En3, v084
	.byte	W06
	.byte		N88	, Ds3, v092
	.byte	W96
	.byte		N92	, Dn3, v080
	.byte	W96
	.byte		N24	, Bn2, v048
	.byte	W30
	.byte		N17	, En3, v080
	.byte	W18
	.byte		N23	, Fs3, v076
	.byte	W24
	.byte			Gn3, v088
	.byte	W24
	.byte		N32	, Cn4
	.byte	W36
	.byte		N44	, An3, v080
	.byte	W48
	.byte		N11	, Cn4
	.byte	W12
	.byte		N32	, As3, v088
	.byte	W36
	.byte		N52	, Fn3
	.byte	W60
	.byte	W96
	.byte	W96
	.byte	W96
	.byte	W96
	.byte	W96
	.byte	W96
	.byte	GOTO	
		.word	song0019_14_6
	.byte	FINE

	.align 2
	.global song0019
song0019:	@ 0x08C5F90C
	.byte	14		@ trackCount
	.byte	0		@ blockCount
	.byte	0		@ priority
	.byte	128		@ reverb

	.word	voicegroup014		@ voicegroup/tone

	.word	song0019_1		@ track
	.word	song0019_2		@ track
	.word	song0019_3		@ track
	.word	song0019_4		@ track
	.word	song0019_5		@ track
	.word	song0019_6		@ track
	.word	song0019_7		@ track
	.word	song0019_8		@ track
	.word	song0019_9		@ track
	.word	song0019_10		@ track
	.word	song0019_11		@ track
	.word	song0019_12		@ track
	.word	song0019_13		@ track
	.word	song0019_14		@ track
