	.include "MPlayDef.s"

	.section .rodata

	@********************** Track  1 **********************@

	.align 2
	.global song0402_1
song0402_1:	@ 0x08C850A4
	.byte	KEYSH	, 0
	.byte	TEMPO	, 65
	.byte	VOICE	, 127
	.byte	VOL	, v095
	.byte	PAN	, c_v
	.byte	BENDR	, 127
	.byte	W24
	.byte		N06	, Cn1, v127
	.byte		N78	, Cs2, v088
	.byte	W06
	.byte		N06	, Cn1, v127
	.byte	W12
	.byte		N18	, Cs1
	.byte	W18
	.byte		N06	, Cn1
	.byte	W06
	.byte		N06	
	.byte	W12
	.byte		N18	, Cs1
	.byte	W18
	.byte		N06	, Gs1
	.byte	W06
	.byte		N06	
	.byte	W06
	.byte			Gn1
	.byte	W06
	.byte		N06	
	.byte	W06
	.byte		N05	, Cn1
	.byte	W06
	.byte			Cs1
	.byte		N11	, Cs2, v088
	.byte	W12
	.byte			Cs1, v127
	.byte		N54	, Cs2, v088
	.byte	W42
	.byte		N06	, Gn1, v127
	.byte	W06
	.byte		N06	
	.byte	W06
	.byte		N23	, Fs1
	.byte		N84	, Cs2, v088
	.byte	W84
	.byte	FINE

	@********************** Track  2 **********************@

	.global song0402_2
song0402_2:	@ 0x08C850EB
	.byte	KEYSH	, 0
	.byte	VOICE	, 15
	.byte	MOD	, 2
	.byte	VOL	, v039
	.byte	PAN	, c_v
	.byte	BENDR	, 32
	.byte	W24
	.byte		N06	, En4, v076
	.byte	W06
	.byte			En4, v096
	.byte	W12
	.byte		N18	, En4, v120
	.byte	W18
	.byte		N06	, Dn4, v092
	.byte	W06
	.byte		N06	
	.byte	W12
	.byte		N18	, Dn4, v100
	.byte	W18
	.byte		N06	, Gs3, v088
	.byte	W06
	.byte			As3, v108
	.byte	W06
	.byte			Cn4, v100
	.byte	W06
	.byte			Dn4, v092
	.byte	W12
	.byte			Fn4
	.byte	W12
	.byte		N54	, En4, v100
	.byte	W54
	.byte	FINE

	@********************** Track  3 **********************@

	.global song0402_3
song0402_3:	@ 0x08C85121
	.byte	KEYSH	, 0
	.byte	VOICE	, 16
	.byte	VOL	, v107
	.byte	PAN	, c_v
	.byte	BENDR	, 0
	.byte	W12
	.byte		N02	, Cn2, v112
	.byte	W03
	.byte		N01	, Ds2
	.byte	W02
	.byte			Fs2
	.byte	W02
	.byte			An2
	.byte	W02
	.byte		N02	, Cs3
	.byte	W03
	.byte		N06	, Gn3
	.byte	W06
	.byte		N06	
	.byte	W12
	.byte		N18	
	.byte	W18
	.byte		N06	, Fn3
	.byte	W06
	.byte		N06	
	.byte	W12
	.byte		N14	
	.byte	W14
	.byte		N02	, Ds3
	.byte	W01
	.byte			Dn3
	.byte	W01
	.byte			Cn3
	.byte	W02
	.byte			Gn2
	.byte	W01
	.byte			Fs2
	.byte	W02
	.byte			Fn2
	.byte	W03
	.byte		N06	, Cs3
	.byte	W06
	.byte			Ds3
	.byte	W06
	.byte			Fn3
	.byte	W12
	.byte		N06	
	.byte	W12
	.byte		N54	, Gn3
	.byte	W54
	.byte	FINE

	@********************** Track  4 **********************@

	.global song0402_4
song0402_4:	@ 0x08C85162
	.byte	KEYSH	, 0
	.byte	VOICE	, 17
	.byte	VOL	, v059
	.byte	PAN	, c_v
	.byte	BENDR	, 0
	.byte	W24
	.byte		N06	, Cn3, v112
	.byte	W06
	.byte		N06	
	.byte	W06
	.byte			Gn3
	.byte	W06
	.byte		N18	, Cn4
	.byte	W18
	.byte		N06	, Cn3
	.byte	W06
	.byte		N06	
	.byte	W06
	.byte			Gn3
	.byte	W06
	.byte		N18	, Cn4
	.byte	W18
	.byte		N06	, Gs2
	.byte	W06
	.byte			Gs3
	.byte	W06
	.byte			Gs2
	.byte	W06
	.byte			Gs3
	.byte	W12
	.byte		N06	
	.byte	W12
	.byte		N54	, Cn3
	.byte	W54
	.byte	FINE

	@********************** Track  5 **********************@

	.global song0402_5
song0402_5:	@ 0x08C85191
	.byte	KEYSH	, 0
	.byte	VOICE	, 17
	.byte	VOL	, v059
	.byte	PAN	, c_v
	.byte	BENDR	, 0
	.byte	W24
	.byte		N06	, Cn3, v112
	.byte	W06
	.byte		N06	
	.byte	W06
	.byte			Gn3
	.byte	W06
	.byte		N18	, Cn4
	.byte	W18
	.byte		N06	, Cn3
	.byte	W06
	.byte		N06	
	.byte	W06
	.byte			Gn3
	.byte	W06
	.byte		N18	, Cn4
	.byte	W18
	.byte		N06	, Gs2
	.byte	W06
	.byte			Gs3
	.byte	W06
	.byte			Gs2
	.byte	W06
	.byte			Gs3
	.byte	W12
	.byte		N06	
	.byte	W12
	.byte		N54	, Cn3
	.byte	W54
	.byte	FINE

	@********************** Track  6 **********************@

	.global song0402_6
song0402_6:	@ 0x08C851C0
	.byte	KEYSH	, 0
	.byte	VOICE	, 11
	.byte	MOD	, 2
	.byte	VOL	, v071
	.byte	PAN	, c_v
	.byte	BENDR	, 32
	.byte	W24
	.byte		N06	, En4, v076
	.byte	W06
	.byte			En4, v096
	.byte	W12
	.byte		N18	, En4, v120
	.byte	W18
	.byte		N06	, Dn4, v092
	.byte	W06
	.byte		N06	
	.byte	W12
	.byte		N18	, Dn4, v100
	.byte	W18
	.byte		N06	, Gs3, v088
	.byte	W06
	.byte			As3, v108
	.byte	W06
	.byte			Cn4, v100
	.byte	W06
	.byte			Dn4, v092
	.byte	W12
	.byte			Fn4
	.byte	W12
	.byte		N54	, En4, v100
	.byte	W54
	.byte	FINE

	@********************** Track  7 **********************@

	.global song0402_7
song0402_7:	@ 0x08C851F6
	.byte	KEYSH	, 0
	.byte	VOICE	, 11
	.byte	MOD	, 2
	.byte	VOL	, v071
	.byte	PAN	, c_v
	.byte	BENDR	, 32
	.byte	W24
	.byte		N03	, Cn3, v127
	.byte	W06
	.byte		N05	, Cn3, v108
	.byte	W12
	.byte		N18	, Cn3, v127
	.byte	W18
	.byte		N02	, As2, v116
	.byte	W06
	.byte		N04	, As2, v108
	.byte	W12
	.byte		N15	, As2, v127
	.byte	W14
	.byte		N03	, An2, v108
	.byte	W02
	.byte			Gn2, v072
	.byte	W02
	.byte		N04	, Fn2, v108
	.byte	W06
	.byte			Gn2
	.byte	W06
	.byte			Gs2
	.byte	W06
	.byte			As2
	.byte	W12
	.byte			Dn3
	.byte	W12
	.byte		N52	, En3
	.byte	W52
	.byte	FINE

	@********************** Track  8 **********************@

	.global song0402_8
song0402_8:	@ 0x08C85232
	.byte	KEYSH	, 0
	.byte	VOICE	, 21
	.byte	MOD	, 2
	.byte	VOL	, v042
	.byte	PAN	, c_v
	.byte	BENDR	, 32
	.byte	W24
	.byte		N03	, Cn4, v127
	.byte	W06
	.byte		N05	, Cn4, v108
	.byte	W12
	.byte		N18	, Cn4, v127
	.byte	W18
	.byte		N02	, As3, v116
	.byte	W06
	.byte		N04	, As3, v108
	.byte	W12
	.byte		N15	, As3, v127
	.byte	W14
	.byte		N03	, An3, v108
	.byte	W02
	.byte			Gn3, v072
	.byte	W02
	.byte		N04	, Fn3, v108
	.byte	W06
	.byte			Gn3
	.byte	W06
	.byte			Gs3
	.byte	W06
	.byte			As3
	.byte	W12
	.byte			Dn4
	.byte	W12
	.byte		N52	, En4
	.byte	W52
	.byte	FINE

	.align 2
	.global song0402
song0402:	@ 0x08C85270
	.byte	8		@ trackCount
	.byte	0		@ blockCount
	.byte	0		@ priority
	.byte	128		@ reverb

	.word	voicegroup008		@ voicegroup/tone

	.word	song0402_1		@ track
	.word	song0402_2		@ track
	.word	song0402_3		@ track
	.word	song0402_4		@ track
	.word	song0402_5		@ track
	.word	song0402_6		@ track
	.word	song0402_7		@ track
	.word	song0402_8		@ track
