	.include "MPlayDef.s"

	.section .rodata

	@********************** Track  1 **********************@

	.align 2
	.global song0043_1
song0043_1:	@ 0x08C76F20
	.byte	KEYSH	, 0
	.byte	TEMPO	, 89
	.byte	VOICE	, 67
	.byte	VOL	, v086
	.byte	PAN	, c_v
	.byte	W03
song0043_1_1:
	.byte		N06	, Gn1, v127
	.byte	W06
	.byte		N06	
	.byte	W06
	.byte			Gn2
	.byte	W06
	.byte			Gn1
	.byte	W06
	.byte		N06	
	.byte	W06
	.byte			Gn2
	.byte	W06
	.byte			Gn1
	.byte	W06
	.byte		N06	
	.byte	W06
	.byte			Gn2
	.byte	W06
	.byte			Gn1
	.byte	W06
	.byte		N06	
	.byte	W06
	.byte			Gn2
	.byte	W06
	.byte			Gn1
	.byte	W06
	.byte		N06	
	.byte	W06
	.byte			Gn2
	.byte	W06
	.byte			Gn1
	.byte	W06
	.byte	PEND
song0043_1_2:
	.byte		N06	, An1, v127
	.byte	W06
	.byte		N06	
	.byte	W06
	.byte			An2
	.byte	W06
	.byte			An1
	.byte	W06
	.byte		N06	
	.byte	W06
	.byte			An2
	.byte	W06
	.byte			An1
	.byte	W06
	.byte		N06	
	.byte	W06
	.byte			An2
	.byte	W06
	.byte			An1
	.byte	W06
	.byte		N06	
	.byte	W06
	.byte			An2
	.byte	W06
	.byte			An1
	.byte	W06
	.byte			An3
	.byte	W06
	.byte			An2
	.byte	W06
	.byte			An1
	.byte	W06
	.byte	PEND
song0043_1_3:
	.byte		N06	, As1, v127
	.byte	W06
	.byte		N06	
	.byte	W06
	.byte			As2
	.byte	W06
	.byte			As1
	.byte	W06
	.byte		N06	
	.byte	W06
	.byte			As2
	.byte	W06
	.byte			As1
	.byte	W06
	.byte		N06	
	.byte	W06
	.byte			As2
	.byte	W06
	.byte			As1
	.byte	W06
	.byte		N06	
	.byte	W06
	.byte			As2
	.byte	W06
	.byte			As1
	.byte	W06
	.byte			As2
	.byte	W06
	.byte			As1
	.byte	W06
	.byte		N06	
	.byte	W06
	.byte	PEND
song0043_1_4:
	.byte		N06	, Ds2, v127
	.byte	W06
	.byte		N06	
	.byte	W06
	.byte			Ds3
	.byte	W06
	.byte			Ds2
	.byte	W06
	.byte		N06	
	.byte	W06
	.byte			Ds3
	.byte	W06
	.byte			Ds2
	.byte	W06
	.byte		N06	
	.byte	W06
	.byte			Ds3
	.byte	W06
	.byte			Ds2
	.byte	W06
	.byte		N06	
	.byte	W06
	.byte			Ds3
	.byte	W06
	.byte			Ds2
	.byte	W06
	.byte			Ds3
	.byte	W06
	.byte			Fs2
	.byte	W06
	.byte			Fs1
	.byte	W06
	.byte	PEND
	.byte	PATT	
		.word	song0043_1_1
	.byte	PATT	
		.word	song0043_1_2
	.byte	PATT	
		.word	song0043_1_3
	.byte	PATT	
		.word	song0043_1_4
	.byte	PATT	
		.word	song0043_1_1
	.byte	PATT	
		.word	song0043_1_2
	.byte	PATT	
		.word	song0043_1_3
	.byte	PATT	
		.word	song0043_1_4
	.byte	PATT	
		.word	song0043_1_1
	.byte		N06	, As1, v127
	.byte	W06
	.byte		N06	
	.byte	W06
	.byte			As2
	.byte	W06
	.byte			As1
	.byte	W06
	.byte		N06	
	.byte	W06
	.byte			As2
	.byte	W06
	.byte			As1
	.byte	W06
	.byte		N06	
	.byte	W06
	.byte			As2
	.byte	W06
	.byte			As1
	.byte	W06
	.byte		N06	
	.byte	W06
	.byte			As2
	.byte	W06
	.byte			As1
	.byte	W06
	.byte			As3
	.byte	W06
	.byte			As2
	.byte	W06
	.byte			As1
	.byte	W06
	.byte			Cn2
	.byte	W06
	.byte		N06	
	.byte	W06
	.byte			Cn3
	.byte	W06
	.byte			Cn2
	.byte	W06
	.byte		N06	
	.byte	W06
	.byte			Cn3
	.byte	W06
	.byte			Cn2
	.byte	W06
	.byte		N06	
	.byte	W06
	.byte			Cn3
	.byte	W06
	.byte			Cn2
	.byte	W06
	.byte		N06	
	.byte	W06
	.byte			Cn3
	.byte	W06
	.byte			Cn2
	.byte	W06
	.byte			Cn3
	.byte	W06
	.byte			Cn2
	.byte	W06
	.byte		N06	
	.byte	W06
	.byte			Dn2
	.byte	W06
	.byte		N06	
	.byte	W06
	.byte			Dn3
	.byte	W06
	.byte			Dn2
	.byte	W06
	.byte		N06	
	.byte	W06
	.byte			Dn3
	.byte	W06
	.byte			Dn2
	.byte	W06
	.byte		N06	
	.byte	W06
	.byte			Dn3
	.byte	W06
	.byte			Dn2
	.byte	W06
	.byte		N06	
	.byte	W06
	.byte			Dn3
	.byte	W06
	.byte			Dn2
	.byte	W06
	.byte			Dn3
	.byte	W06
	.byte			Fn2
	.byte	W06
	.byte			Fn1
	.byte	W06
	.byte	TEMPO	, 89
	.byte			An1
	.byte	W06
	.byte			An2
	.byte	W06
	.byte			An1
	.byte	W06
	.byte		N06	
	.byte	W06
	.byte	TEMPO	, 90
	.byte		N06	
	.byte	W06
	.byte			An2
	.byte	W06
	.byte			An1
	.byte	W06
	.byte		N06	
	.byte	W06
	.byte	TEMPO	, 90
	.byte		N06	
	.byte	W06
	.byte			An2
	.byte	W06
	.byte			An1
	.byte	W06
	.byte		N06	
	.byte	W06
	.byte	TEMPO	, 91
	.byte		N06	
	.byte	W06
	.byte			An2
	.byte	W06
	.byte			An1
	.byte	W06
	.byte		N06	
	.byte	W06
	.byte	TEMPO	, 91
	.byte		N06	
	.byte	W06
	.byte			An2
	.byte	W06
	.byte			An1
	.byte	W06
	.byte		N06	
	.byte	W06
	.byte		N06	
	.byte	W06
	.byte			An2
	.byte	W06
	.byte			An1
	.byte	W06
	.byte		N06	
	.byte	W06
	.byte	TEMPO	, 92
	.byte		N06	
	.byte	W06
	.byte			An2
	.byte	W06
	.byte			An1
	.byte	W06
	.byte		N06	
	.byte	W06
	.byte		N06	
	.byte	W06
	.byte			An3
	.byte	W06
	.byte			An2
	.byte	W06
	.byte			An1
	.byte	W06
	.byte	TEMPO	, 92
	.byte		N06	
	.byte	W06
	.byte			An2
	.byte	W06
	.byte			An1
	.byte	W06
	.byte		N06	
	.byte	W06
	.byte		N06	
	.byte	W06
	.byte			An2
	.byte	W06
	.byte			An1
	.byte	W06
	.byte		N06	
	.byte	W06
	.byte	TEMPO	, 93
	.byte		N06	
	.byte	W06
	.byte			An2
	.byte	W06
	.byte			An1
	.byte	W06
	.byte		N06	
	.byte	W06
	.byte		N06	
	.byte	W06
	.byte			An2
	.byte	W06
	.byte			An1
	.byte	W06
	.byte		N06	
	.byte	W06
	.byte	TEMPO	, 93
	.byte		N06	
	.byte	W06
	.byte			An2
	.byte	W06
	.byte			An1
	.byte	W06
	.byte		N06	
	.byte	W06
	.byte		N06	
	.byte	W06
	.byte			An2
	.byte	W06
	.byte			An1
	.byte	W06
	.byte		N06	
	.byte	W06
	.byte	TEMPO	, 94
	.byte		N06	
	.byte	W06
	.byte			An2
	.byte	W06
	.byte			An1
	.byte	W06
	.byte		N06	
	.byte	W06
	.byte		N06	
	.byte	W06
	.byte			An3
	.byte	W06
	.byte			An2
	.byte	W06
	.byte			An1
	.byte	W06
	.byte	TEMPO	, 94
	.byte			Bn1
	.byte	W06
	.byte			Bn2
	.byte	W06
	.byte			Bn1
	.byte	W06
	.byte		N06	
	.byte	W06
	.byte		N06	
	.byte	W06
	.byte			Bn2
	.byte	W06
	.byte			Bn1
	.byte	W06
	.byte		N06	
	.byte	W06
	.byte	TEMPO	, 95
	.byte		N06	
	.byte	W06
	.byte			Bn2
	.byte	W06
	.byte			Bn1
	.byte	W06
	.byte		N06	
	.byte	W06
	.byte		N06	
	.byte	W06
	.byte			Bn2
	.byte	W06
	.byte			Bn1
	.byte	W06
	.byte		N06	
	.byte	W06
	.byte	TEMPO	, 95
	.byte		N06	
	.byte	W06
	.byte			Bn2
	.byte	W06
	.byte			Bn1
	.byte	W06
	.byte		N06	
	.byte	W06
	.byte		N06	
	.byte	W06
	.byte			Bn2
	.byte	W06
	.byte			Bn1
	.byte	W06
	.byte		N06	
	.byte	W06
	.byte	TEMPO	, 96
	.byte		N06	
	.byte	W06
	.byte			Bn2
	.byte	W06
	.byte			Bn1
	.byte	W06
	.byte		N06	
	.byte	W06
	.byte		N06	
	.byte	W06
	.byte			Bn3
	.byte	W06
	.byte			Bn2
	.byte	W06
	.byte			Bn1
	.byte	W06
	.byte	TEMPO	, 96
	.byte		N06	
	.byte	W06
	.byte			Bn2
	.byte	W06
	.byte			Bn1
	.byte	W06
	.byte		N06	
	.byte	W06
	.byte		N06	
	.byte	W06
	.byte			Bn2
	.byte	W06
	.byte			Bn1
	.byte	W06
	.byte		N06	
	.byte	W06
	.byte	TEMPO	, 97
	.byte		N06	
	.byte	W06
	.byte			Bn2
	.byte	W06
	.byte			Bn1
	.byte	W06
	.byte		N06	
	.byte	W06
	.byte		N06	
	.byte	W06
	.byte			Bn2
	.byte	W06
	.byte			Bn1
	.byte	W06
	.byte		N06	
	.byte	W06
	.byte	TEMPO	, 97
	.byte		N06	
	.byte	W06
	.byte			Bn2
	.byte	W06
	.byte			Bn1
	.byte	W06
	.byte		N06	
	.byte	W06
	.byte		N06	
	.byte	W06
	.byte			Bn2
	.byte	W06
	.byte			Bn1
	.byte	W06
	.byte		N06	
	.byte	W06
	.byte		N06	
	.byte	W06
	.byte			Bn2
	.byte	W06
	.byte			Bn1
	.byte	W06
	.byte		N06	
	.byte	W06
	.byte		N06	
	.byte	W06
	.byte			Bn3
	.byte	W06
	.byte			Bn2
	.byte	W06
	.byte			Bn1
	.byte	W06
	.byte		TIE	, Cn3
	.byte	W24
	.byte	VOL	, v085
	.byte	W01
	.byte		v083
	.byte	W01
	.byte		v081
	.byte	W01
	.byte		v081
	.byte	W01
	.byte		v079
	.byte	W02
	.byte		v078
	.byte	W01
	.byte		v077
	.byte	W01
	.byte		v076
	.byte	W01
	.byte		v075
	.byte	W02
	.byte		v074
	.byte	W01
	.byte		v073
	.byte	W01
	.byte		v071
	.byte	W01
	.byte		v070
	.byte	W02
	.byte		v070
	.byte	W01
	.byte		v068
	.byte	W01
	.byte		v067
	.byte	W01
	.byte		v066
	.byte	W02
	.byte		v065
	.byte	W01
	.byte		v064
	.byte	W01
	.byte		v063
	.byte	W01
	.byte		v062
	.byte	W01
	.byte		v061
	.byte	W02
	.byte		v060
	.byte	W01
	.byte		v059
	.byte	W01
	.byte		v058
	.byte	W01
	.byte		v057
	.byte	W02
	.byte		v056
	.byte	W01
	.byte		v055
	.byte	W01
	.byte		v055
	.byte	W01
	.byte		v053
	.byte	W02
	.byte		v052
	.byte	W01
	.byte		v051
	.byte	W01
	.byte		v051
	.byte	W01
	.byte		v050
	.byte	W02
	.byte		v049
	.byte	W01
	.byte		v048
	.byte	W01
	.byte		v047
	.byte	W01
	.byte		v046
	.byte	W01
	.byte		v045
	.byte	W02
	.byte		v044
	.byte	W01
	.byte		v044
	.byte	W01
	.byte		v043
	.byte	W01
	.byte		v042
	.byte	W02
	.byte		v041
	.byte	W01
	.byte		v040
	.byte	W01
	.byte		v040
	.byte	W01
	.byte		v039
	.byte	W02
	.byte		v038
	.byte	W01
	.byte		v037
	.byte	W01
	.byte		v037
	.byte	W01
	.byte		v036
	.byte	W02
	.byte		v035
	.byte	W01
	.byte		v034
	.byte	W01
	.byte		v033
	.byte	W01
	.byte		v033
	.byte	W03
	.byte		v032
	.byte	W01
	.byte		v031
	.byte	W01
	.byte		v030
	.byte	W01
	.byte		v029
	.byte	W02
	.byte		v029
	.byte	W01
	.byte		v028
	.byte	W02
	.byte		v027
	.byte	W02
	.byte		v026
	.byte	W01
	.byte		v025
	.byte	W01
	.byte		v025
	.byte	W02
	.byte		v024
	.byte	W02
	.byte		v023
	.byte	W01
	.byte		v022
	.byte	W02
	.byte		v022
	.byte	W02
	.byte		v021
	.byte	W02
	.byte		v020
	.byte	W01
	.byte		v019
	.byte	W03
	.byte		v018
	.byte	W01
	.byte		v018
	.byte	W03
	.byte		v017
	.byte	W02
	.byte		v016
	.byte	W01
	.byte		v015
	.byte	W03
	.byte		v014
	.byte	W02
	.byte		v014
	.byte	W03
	.byte		v013
	.byte	W02
	.byte		v012
	.byte	W03
	.byte		v011
	.byte	W02
	.byte		v011
	.byte	W03
	.byte		v010
	.byte	W03
	.byte		v009
	.byte	W04
	.byte		v008
	.byte	W02
	.byte		v007
	.byte	W05
	.byte		v007
	.byte	W04
	.byte		v006
	.byte	W05
	.byte		v005
	.byte	W07
	.byte		v004
	.byte	W17
	.byte		EOT	
	.byte	W48
	.byte	TEMPO	, 72
	.byte	W48
	.byte	FINE

	@********************** Track  2 **********************@

	.global song0043_2
song0043_2:	@ 0x08C77228
	.byte	KEYSH	, 0
	.byte	VOICE	, 127
	.byte	VOL	, v098
	.byte	W03
song0043_2_1:
	.byte		N18	, Ds2, v120
	.byte	W24
	.byte		N18	
	.byte	W24
	.byte		N18	
	.byte	W24
	.byte		N18	
	.byte	W24
	.byte	PEND
song0043_2_2:
	.byte		N18	, Ds2, v120
	.byte	W24
	.byte		N18	
	.byte	W24
	.byte		N18	
	.byte	W18
	.byte		N06	, Ds2, v112
	.byte	W06
	.byte		N12	, Ds2, v120
	.byte	W12
	.byte		N12	
	.byte	W12
	.byte	PEND
	.byte	PATT	
		.word	song0043_2_1
	.byte	PATT	
		.word	song0043_2_2
	.byte	PATT	
		.word	song0043_2_1
	.byte	PATT	
		.word	song0043_2_2
	.byte	PATT	
		.word	song0043_2_1
	.byte	PATT	
		.word	song0043_2_2
	.byte	PATT	
		.word	song0043_2_1
	.byte	PATT	
		.word	song0043_2_2
	.byte	PATT	
		.word	song0043_2_1
	.byte		N06	, Gs2, v120
	.byte	W06
	.byte		N06	
	.byte	W06
	.byte		N06	
	.byte	W06
	.byte		N06	
	.byte	W06
	.byte		N06	
	.byte	W06
	.byte		N06	
	.byte	W06
	.byte		N06	
	.byte	W06
	.byte		N06	
	.byte	W06
	.byte		N04	, As2
	.byte	W04
	.byte		N04	
	.byte	W04
	.byte		N04	
	.byte	W04
	.byte		N04	
	.byte	W04
	.byte		N04	
	.byte	W04
	.byte		N04	
	.byte	W04
	.byte		N04	
	.byte	W04
	.byte		N04	
	.byte	W04
	.byte		N04	
	.byte	W04
	.byte		N04	
	.byte	W04
	.byte		N04	
	.byte	W04
	.byte		N04	
	.byte	W04
	.byte	PATT	
		.word	song0043_2_1
	.byte	PATT	
		.word	song0043_2_2
	.byte	PATT	
		.word	song0043_2_1
	.byte	PATT	
		.word	song0043_2_2
	.byte	PATT	
		.word	song0043_2_1
	.byte	PATT	
		.word	song0043_2_2
	.byte	PATT	
		.word	song0043_2_1
	.byte	PATT	
		.word	song0043_2_2
	.byte	PATT	
		.word	song0043_2_1
	.byte	PATT	
		.word	song0043_2_2
	.byte	PATT	
		.word	song0043_2_1
	.byte	PATT	
		.word	song0043_2_2
	.byte		N18	, Ds2, v120
	.byte	W96
	.byte	W96
	.byte	W96
	.byte	FINE

	@********************** Track  3 **********************@

	.global song0043_3
song0043_3:	@ 0x08C772E8
	.byte	KEYSH	, 0
	.byte	VOICE	, 127
	.byte	VOL	, v094
	.byte	W03
song0043_3_1:
	.byte		N12	, Ds1, v072
	.byte	W12
	.byte		N06	, Dn1, v060
	.byte	W06
	.byte			Dn1, v052
	.byte	W06
	.byte		N12	, Ds1, v072
	.byte	W12
	.byte		N06	, Dn1, v060
	.byte	W06
	.byte			Dn1, v052
	.byte	W06
	.byte		N12	, Ds1, v072
	.byte	W12
	.byte		N06	, Dn1, v060
	.byte	W06
	.byte			Dn1, v052
	.byte	W06
	.byte		N12	, Ds1, v072
	.byte	W12
	.byte		N06	, Dn1, v060
	.byte	W06
	.byte			Dn1, v052
	.byte	W06
	.byte	PEND
	.byte	PATT	
		.word	song0043_3_1
	.byte	PATT	
		.word	song0043_3_1
	.byte		N12	, Ds1, v072
	.byte	W12
	.byte		N06	, Dn1, v060
	.byte	W06
	.byte			Dn1, v052
	.byte	W06
	.byte		N12	, Ds1, v072
	.byte	W12
	.byte		N06	, Dn1, v060
	.byte	W06
	.byte			Dn1, v052
	.byte	W06
	.byte		N12	, Ds1, v072
	.byte	W12
	.byte		N06	, Dn1, v060
	.byte	W06
	.byte			Dn1, v052
	.byte	W06
	.byte		N12	, Ds1, v072
	.byte	W12
	.byte		N06	, Dn1, v060
	.byte	W06
	.byte			En1, v052
	.byte	W06
	.byte		N24	, Cs2, v127
	.byte	W12
	.byte		N06	, Dn1, v060
	.byte	W06
	.byte			Dn1, v052
	.byte	W06
	.byte		N12	, Ds1, v072
	.byte	W12
	.byte		N06	, Dn1, v060
	.byte	W06
	.byte			Dn1, v052
	.byte	W06
	.byte		N12	, Ds1, v072
	.byte	W12
	.byte		N06	, Dn1, v060
	.byte	W06
	.byte			Dn1, v052
	.byte	W06
	.byte		N12	, Ds1, v072
	.byte	W12
	.byte		N06	, Dn1, v060
	.byte	W06
	.byte			Dn1, v052
	.byte	W06
	.byte	PATT	
		.word	song0043_3_1
	.byte	PATT	
		.word	song0043_3_1
	.byte		N11	, Ds1, v072
	.byte	W12
	.byte		N06	, Dn1, v060
	.byte	W06
	.byte			Dn1, v052
	.byte	W06
	.byte		N12	, Ds1, v072
	.byte	W12
	.byte		N06	, Dn1, v060
	.byte	W06
	.byte			Dn1, v052
	.byte	W06
	.byte		N12	, Ds1, v072
	.byte	W12
	.byte		N06	, Dn1, v060
	.byte	W06
	.byte			Dn1, v052
	.byte	W06
	.byte		N12	, Ds1, v072
	.byte	W12
	.byte		N06	, Dn1, v060
	.byte	W06
	.byte			Dn1, v052
	.byte	W06
	.byte	PATT	
		.word	song0043_3_1
	.byte		N12	, Ds1, v072
	.byte	W12
	.byte		N06	, Dn1, v060
	.byte	W06
	.byte			Dn1, v052
	.byte	W06
	.byte		N12	, Ds1, v072
	.byte	W12
	.byte		N06	, Dn1, v060
	.byte	W06
	.byte			Dn1, v052
	.byte	W06
	.byte		N12	, En1, v072
	.byte	W12
	.byte		N06	, Ds1, v060
	.byte	W06
	.byte			Ds1, v052
	.byte	W06
	.byte		N12	, En1, v072
	.byte	W12
	.byte		N06	, Ds1, v060
	.byte	W06
	.byte			Ds1, v052
	.byte	W06
	.byte		N11	, En1, v072
	.byte	W12
	.byte		N06	, Ds1, v060
	.byte	W06
	.byte			Ds1, v052
	.byte	W06
	.byte		N12	, En1, v072
	.byte	W12
	.byte		N06	, Ds1, v060
	.byte	W06
	.byte			Ds1, v052
	.byte	W06
	.byte		N12	, En1, v072
	.byte	W12
	.byte		N06	, Ds1, v060
	.byte	W06
	.byte			Ds1, v052
	.byte	W06
	.byte		N12	, En1, v072
	.byte	W12
	.byte		N06	, Ds1, v060
	.byte	W06
	.byte			Ds1, v052
	.byte	W06
	.byte			Dn1, v072
	.byte	W06
	.byte			Dn1, v052
	.byte	W06
	.byte			Dn1, v060
	.byte	W06
	.byte			Dn1, v052
	.byte	W06
	.byte			Dn1, v072
	.byte	W06
	.byte			Dn1, v052
	.byte	W06
	.byte			Dn1, v060
	.byte	W06
	.byte			Dn1, v052
	.byte	W06
	.byte		N12	, En1, v072
	.byte	W12
	.byte		N06	, Ds1, v060
	.byte	W06
	.byte			Ds1, v052
	.byte	W06
	.byte		N12	, En1, v072
	.byte	W12
	.byte		N06	, Ds1, v060
	.byte	W06
	.byte			Ds1, v052
	.byte	W06
	.byte		N36	, Cs2, v120
	.byte	W24
	.byte		N06	, Dn1, v072
	.byte	W06
	.byte			Dn1, v052
	.byte	W06
	.byte			Dn1, v060
	.byte	W06
	.byte			Dn1, v052
	.byte	W06
	.byte			Dn1, v072
	.byte	W06
	.byte			Dn1, v052
	.byte	W06
	.byte			Dn1, v060
	.byte	W06
	.byte			Dn1, v052
	.byte	W06
	.byte			Dn1, v072
	.byte	W06
	.byte			Dn1, v052
	.byte	W06
	.byte			Dn1, v060
	.byte	W06
	.byte			Dn1, v052
	.byte	W06
	.byte			Dn1, v072
	.byte	W06
	.byte			Dn1, v052
	.byte	W06
	.byte			Dn1, v060
	.byte	W06
	.byte			Dn1, v052
	.byte	W06
	.byte			Dn1, v072
	.byte	W06
	.byte			Dn1, v052
	.byte	W06
	.byte			Dn1, v060
	.byte	W06
	.byte			Dn1, v052
	.byte	W06
	.byte			Ds1, v072
	.byte	W06
	.byte			Dn1, v052
	.byte	W06
	.byte			Dn1, v060
	.byte	W06
	.byte			Dn1, v052
	.byte	W06
	.byte			Dn1, v072
	.byte	W06
	.byte			Dn1, v052
	.byte	W06
	.byte			Ds1, v072
	.byte	W06
	.byte			Dn1, v052
	.byte	W06
	.byte			Dn1, v072
	.byte	W06
	.byte			Dn1, v052
	.byte	W06
	.byte			Dn1, v060
	.byte	W06
	.byte			Dn1, v052
	.byte	W06
	.byte			Dn1, v072
	.byte	W06
	.byte			Dn1, v052
	.byte	W06
	.byte			Dn1, v060
	.byte	W06
	.byte			Dn1, v052
	.byte	W06
	.byte			Dn1, v072
	.byte	W06
	.byte			Dn1, v052
	.byte	W06
	.byte			Dn1, v060
	.byte	W06
	.byte			Dn1, v052
	.byte	W06
	.byte			Dn1, v072
	.byte	W06
	.byte			Dn1, v052
	.byte	W06
	.byte			Dn1, v060
	.byte	W06
	.byte			Dn1, v052
	.byte	W06
	.byte			Dn1, v072
	.byte	W06
	.byte			Dn1, v052
	.byte	W06
	.byte			Dn1, v060
	.byte	W06
	.byte			Dn1, v052
	.byte	W06
	.byte			Dn1, v072
	.byte	W06
	.byte			Dn1, v052
	.byte	W06
	.byte			Dn1, v060
	.byte	W06
	.byte			Dn1, v052
	.byte	W06
	.byte			Dn1, v072
	.byte	W06
	.byte			Dn1, v052
	.byte	W06
	.byte			Ds1, v080
	.byte	W06
	.byte			Dn1, v052
	.byte	W06
	.byte			Dn1, v072
	.byte	W06
	.byte			Dn1, v052
	.byte	W06
	.byte		N12	, Ds1, v080
	.byte	W12
	.byte		N24	, Cs2, v120
	.byte	W12
	.byte		N06	, Dn1, v060
	.byte	W06
	.byte			Dn1, v052
	.byte	W06
	.byte		N12	, Ds1, v072
	.byte	W12
	.byte		N06	, Dn1, v060
	.byte	W06
	.byte			Dn1, v052
	.byte	W06
	.byte		N12	, Ds1, v072
	.byte	W12
	.byte		N06	, Dn1, v060
	.byte	W06
	.byte			Dn1, v052
	.byte	W06
	.byte		N12	, Ds1, v072
	.byte	W12
	.byte		N06	, Dn1, v060
	.byte	W06
	.byte			Dn1, v052
	.byte	W06
	.byte	PATT	
		.word	song0043_3_1
	.byte	PATT	
		.word	song0043_3_1
	.byte		N12	, Ds1, v072
	.byte	W12
	.byte		N06	, Dn1, v060
	.byte	W06
	.byte			Dn1, v052
	.byte	W06
	.byte		N12	, Ds1, v072
	.byte	W12
	.byte		N06	, Dn1, v060
	.byte	W06
	.byte			Dn1, v052
	.byte	W06
	.byte			Ds1, v060
	.byte	W06
	.byte		N06	
	.byte	W06
	.byte			En1
	.byte	W06
	.byte			Ds1
	.byte	W06
	.byte		N06	
	.byte	W06
	.byte		N06	
	.byte	W06
	.byte			En1
	.byte	W06
	.byte			Ds1
	.byte	W06
	.byte		N24	, Fs2, v120
	.byte	W12
	.byte		N06	, Dn1, v060
	.byte	W06
	.byte			Dn1, v052
	.byte	W06
	.byte		N12	, En1, v072
	.byte	W12
	.byte		N06	, Ds1, v060
	.byte	W06
	.byte			Ds1, v052
	.byte	W06
	.byte		N12	, En1, v072
	.byte	W12
	.byte		N06	, Ds1, v060
	.byte	W06
	.byte			Ds1, v052
	.byte	W06
	.byte		N12	, En1, v072
	.byte	W12
	.byte		N06	, Ds1, v060
	.byte	W06
	.byte			Ds1, v052
	.byte	W06
song0043_3_2:
	.byte		N12	, En1, v072
	.byte	W12
	.byte		N06	, Ds1, v060
	.byte	W06
	.byte			Ds1, v052
	.byte	W06
	.byte		N12	, En1, v072
	.byte	W12
	.byte		N06	, Ds1, v060
	.byte	W06
	.byte			Ds1, v052
	.byte	W06
	.byte		N12	, En1, v072
	.byte	W12
	.byte		N06	, Ds1, v060
	.byte	W06
	.byte			Ds1, v052
	.byte	W06
	.byte		N12	, En1, v072
	.byte	W12
	.byte		N06	, Ds1, v060
	.byte	W06
	.byte			Ds1, v052
	.byte	W06
	.byte	PEND
	.byte	PATT	
		.word	song0043_3_2
	.byte		N12	, En1, v072
	.byte	W12
	.byte		N06	, Ds1, v060
	.byte	W06
	.byte			Ds1, v052
	.byte	W06
	.byte		N12	, En1, v072
	.byte	W12
	.byte		N06	, Ds1, v060
	.byte	W06
	.byte			Ds1, v052
	.byte	W06
	.byte			En1, v060
	.byte	W06
	.byte		N06	
	.byte	W06
	.byte			Fn1
	.byte	W06
	.byte			En1
	.byte	W06
	.byte		N06	
	.byte	W06
	.byte		N06	
	.byte	W06
	.byte			Fn1
	.byte	W06
	.byte			En1
	.byte	W06
	.byte		N24	, Cs2, v120
	.byte	W96
	.byte	W96
	.byte	W96
	.byte	FINE

	@********************** Track  4 **********************@

	.global song0043_4
song0043_4:	@ 0x08C775DF
	.byte	KEYSH	, 0
	.byte	VOICE	, 2
	.byte	VOL	, v070
	.byte	PAN	, c_v-30
	.byte	MOD	, 2
	.byte	W03
	.byte		N04	, Dn7, v072
	.byte	W04
	.byte			Gn6
	.byte	W04
	.byte			Dn7
	.byte	W04
	.byte			Gn6
	.byte	W04
	.byte			Dn7
	.byte	W04
	.byte			Gn6
	.byte	W04
	.byte			Dn7
	.byte	W04
	.byte			Gn6
	.byte	W04
	.byte			Dn7
	.byte	W04
	.byte			Gn6
	.byte	W04
	.byte			Cs7
	.byte	W04
	.byte			Gn6
	.byte	W04
	.byte			Cs7
	.byte	W04
	.byte			Gn6
	.byte	W04
	.byte			Cs7
	.byte	W04
	.byte			Gn6
	.byte	W04
	.byte			Cs7
	.byte	W04
	.byte			Gn6
	.byte	W04
	.byte			Cn7
	.byte	W04
	.byte			Gn6
	.byte	W04
	.byte			Cn7
	.byte	W04
	.byte			Gn6
	.byte	W04
	.byte			Cn7
	.byte	W04
	.byte			Gn6
	.byte	W04
	.byte			Cn7
	.byte	W04
	.byte			Gn6
	.byte	W04
	.byte			Cn7
	.byte	W04
	.byte			Gn6
	.byte	W04
	.byte			Bn6
	.byte	W04
	.byte			En6
	.byte	W04
	.byte			Bn6
	.byte	W04
	.byte			En6
	.byte	W04
	.byte			Bn6
	.byte	W04
	.byte			En6
	.byte	W04
	.byte			Bn6
	.byte	W04
	.byte			En6
	.byte	W04
	.byte			As6
	.byte	W04
	.byte			En6
	.byte	W04
	.byte			As6
	.byte	W04
	.byte			En6
	.byte	W04
	.byte			As6
	.byte	W04
	.byte			En6
	.byte	W04
	.byte			An6
	.byte	W04
	.byte			En6
	.byte	W04
	.byte			An6
	.byte	W04
	.byte			En6
	.byte	W04
	.byte			An6
	.byte	W04
	.byte			En6
	.byte	W04
	.byte			Gn6
	.byte	W04
	.byte			Dn6
	.byte	W04
	.byte			Gn6
	.byte	W04
	.byte			Dn6
	.byte	W04
	.byte			Gn6
	.byte	W04
	.byte			Dn6
	.byte	W04
	.byte			Gn6
	.byte	W04
	.byte			Dn6
	.byte	W04
	.byte			Gn6
	.byte	W04
	.byte			Dn6
	.byte	W04
	.byte			Fs6
	.byte	W04
	.byte			Dn6
	.byte	W04
	.byte			Fs6
	.byte	W04
	.byte			Dn6
	.byte	W04
	.byte			Fs6
	.byte	W04
	.byte			Dn6
	.byte	W04
	.byte			Fs6
	.byte	W04
	.byte			Dn6
	.byte	W04
	.byte			Fn6
	.byte	W04
	.byte			Dn6
	.byte	W04
	.byte			Fn6
	.byte	W04
	.byte			Dn6
	.byte	W04
	.byte			Fn6
	.byte	W04
	.byte			Dn6
	.byte	W04
	.byte			Fn6
	.byte	W04
	.byte			Dn6
	.byte	W04
	.byte			Fn6
	.byte	W04
	.byte			Dn6
	.byte	W04
	.byte			Ds6
	.byte	W04
	.byte			Gn5
	.byte	W04
	.byte			Ds6
	.byte	W04
	.byte			Gn5
	.byte	W04
	.byte			Ds6
	.byte	W04
	.byte			Gn5
	.byte	W04
	.byte			Ds6
	.byte	W04
	.byte			Gn5
	.byte	W04
	.byte			Dn6
	.byte	W04
	.byte			Gn5
	.byte	W04
	.byte			Dn6
	.byte	W04
	.byte			Gn5
	.byte	W04
	.byte			Dn6
	.byte	W04
	.byte			Gn5
	.byte	W04
	.byte			Cs6
	.byte	W04
	.byte			Gn5
	.byte	W04
	.byte			Cs6
	.byte	W04
	.byte			Gn5
	.byte	W04
	.byte			Cs6
	.byte	W04
	.byte			Gn5
	.byte	W04
	.byte			Dn5
	.byte	W04
	.byte			Dn6
	.byte	W04
	.byte			Dn5
	.byte	W04
	.byte			Dn6
	.byte	W04
	.byte			Dn5
	.byte	W04
	.byte			Dn6
	.byte	W04
	.byte			Dn5
	.byte	W04
	.byte			Dn6
	.byte	W04
	.byte			Dn5
	.byte	W04
	.byte			Cs6
	.byte	W04
	.byte			Cs5
	.byte	W04
	.byte			Cs6
	.byte	W04
	.byte			Cs5
	.byte	W04
	.byte			Cs6
	.byte	W04
	.byte			Cs5
	.byte	W04
	.byte			Cs6
	.byte	W04
	.byte			Cs5
	.byte	W04
	.byte			Cs6
	.byte	W04
	.byte			Cn5
	.byte	W04
	.byte			Cn6
	.byte	W04
	.byte			Cn5
	.byte	W04
	.byte			Cn6
	.byte	W04
	.byte			Cn5
	.byte	W04
	.byte			Cn6
	.byte	W04
	.byte			Cn5
	.byte	W04
	.byte			Cn6
	.byte	W04
	.byte			Cn5
	.byte	W04
	.byte			Bn5
	.byte	W04
	.byte			Bn4
	.byte	W04
	.byte			Bn5
	.byte	W04
	.byte			Bn4
	.byte	W04
	.byte			Bn5
	.byte	W04
	.byte			Bn4
	.byte	W04
	.byte			Bn5
	.byte	W04
	.byte			Bn4
	.byte	W04
	.byte			Bn5
	.byte	W04
	.byte			As4
	.byte	W04
	.byte			As5
	.byte	W04
	.byte			As4
	.byte	W04
	.byte			As5
	.byte	W04
	.byte			As4
	.byte	W04
	.byte			As5
	.byte	W04
	.byte			An4
	.byte	W04
	.byte			An5
	.byte	W04
	.byte			An4
	.byte	W04
	.byte			An5
	.byte	W04
	.byte			An4
	.byte	W04
	.byte			An5
	.byte	W04
	.byte			Gn4
	.byte	W04
	.byte			Gn5
	.byte	W04
	.byte			Gn4
	.byte	W04
	.byte			Gn5
	.byte	W04
	.byte			Gn4
	.byte	W04
	.byte			Gn5
	.byte	W04
	.byte			Gn4
	.byte	W04
	.byte			Gn5
	.byte	W04
	.byte			Gn4
	.byte	W04
	.byte			Fs5
	.byte	W04
	.byte			Fs4
	.byte	W04
	.byte			Fs5
	.byte	W04
	.byte			Fs4
	.byte	W04
	.byte			Fs5
	.byte	W04
	.byte			Fs4
	.byte	W04
	.byte			Fs5
	.byte	W04
	.byte			Fs4
	.byte	W04
	.byte			Fs5
	.byte	W04
	.byte			Fn4
	.byte	W04
	.byte			Fn5
	.byte	W04
	.byte			Fn4
	.byte	W04
	.byte			Fn5
	.byte	W04
	.byte			Fn4
	.byte	W04
	.byte			Fn5
	.byte	W04
	.byte			Fn4
	.byte	W04
	.byte			Fn5
	.byte	W04
	.byte			Fn4
	.byte	W04
	.byte			Ds5
	.byte	W04
	.byte			Ds4
	.byte	W04
	.byte			Ds5
	.byte	W04
	.byte			Ds4
	.byte	W04
	.byte			Ds5
	.byte	W04
	.byte			Ds4
	.byte	W04
	.byte			Ds5
	.byte	W04
	.byte			Ds4
	.byte	W04
	.byte			Ds5
	.byte	W04
	.byte			Dn4
	.byte	W04
	.byte			Dn5
	.byte	W04
	.byte			Dn4
	.byte	W04
	.byte			Dn5
	.byte	W04
	.byte			Dn4
	.byte	W04
	.byte			Dn5
	.byte	W04
	.byte			Cs4
	.byte	W04
	.byte			Cs5
	.byte	W04
	.byte			Cs4
	.byte	W04
	.byte			Cs5
	.byte	W04
	.byte			Cs4
	.byte	W04
	.byte			Cs5
	.byte	W04
	.byte			Dn5
	.byte	W04
	.byte			Gn4
	.byte	W04
	.byte			Dn5
	.byte	W04
	.byte			Gn4
	.byte	W04
	.byte			Dn5
	.byte	W04
	.byte			Gn4
	.byte	W04
	.byte			Dn5
	.byte	W04
	.byte			Gn4
	.byte	W04
	.byte			Dn5
	.byte	W04
	.byte			Gn4
	.byte	W04
	.byte			Cs5
	.byte	W04
	.byte			Gn4
	.byte	W04
	.byte			Cs5
	.byte	W04
	.byte			Gn4
	.byte	W04
	.byte			Cs5
	.byte	W04
	.byte			Gn4
	.byte	W04
	.byte			Cs5
	.byte	W04
	.byte			Gn4
	.byte	W04
	.byte			Cn5
	.byte	W04
	.byte			Gn4
	.byte	W04
	.byte			Cn5
	.byte	W04
	.byte			Gn4
	.byte	W04
	.byte			Cn5
	.byte	W04
	.byte			Gn4
	.byte	W04
	.byte			Cn5
	.byte	W04
	.byte			Gn4
	.byte	W04
	.byte			Cn5
	.byte	W04
	.byte			Gn4
	.byte	W04
	.byte			Bn4
	.byte	W04
	.byte			En4
	.byte	W04
	.byte			Bn4
	.byte	W04
	.byte			En4
	.byte	W04
	.byte			Bn4
	.byte	W04
	.byte			En4
	.byte	W04
	.byte			Bn4
	.byte	W04
	.byte			En4
	.byte	W04
	.byte			As4
	.byte	W04
	.byte			En4
	.byte	W04
	.byte			As4
	.byte	W04
	.byte			En4
	.byte	W04
	.byte			As4
	.byte	W04
	.byte			En4
	.byte	W04
	.byte			An4
	.byte	W04
	.byte			En4
	.byte	W04
	.byte			An4
	.byte	W04
	.byte			En4
	.byte	W04
	.byte			An4
	.byte	W04
	.byte			En4
	.byte	W04
	.byte			Gn4
	.byte	W04
	.byte			Dn4
	.byte	W04
	.byte			Gn4
	.byte	W04
	.byte			Dn4
	.byte	W04
	.byte			Gn4
	.byte	W04
	.byte			Dn4
	.byte	W04
	.byte			Gn4
	.byte	W04
	.byte			Dn4
	.byte	W04
	.byte			Gn4
	.byte	W04
	.byte			Dn4
	.byte	W04
	.byte			Fs4
	.byte	W04
	.byte			Dn4
	.byte	W04
	.byte			Fs4
	.byte	W04
	.byte			Dn4
	.byte	W04
	.byte			Fs4
	.byte	W04
	.byte			Dn4
	.byte	W04
	.byte			Fs4
	.byte	W04
	.byte			Dn4
	.byte	W04
	.byte			Fn4
	.byte	W04
	.byte			Dn4
	.byte	W04
	.byte			Fn4
	.byte	W04
	.byte			Dn4
	.byte	W04
	.byte			Fn4
	.byte	W04
	.byte			Dn4
	.byte	W04
	.byte			Fn4
	.byte	W04
	.byte			Dn4
	.byte	W04
	.byte			Fn4
	.byte	W04
	.byte			Dn4
	.byte	W04
	.byte			Ds4
	.byte	W04
	.byte			Gn3
	.byte	W04
	.byte			Ds4
	.byte	W04
	.byte			Gn3
	.byte	W04
	.byte			Ds4
	.byte	W04
	.byte			Gn3
	.byte	W04
	.byte			Ds4
	.byte	W04
	.byte			Gn3
	.byte	W04
	.byte			Dn4
	.byte	W04
	.byte			Gn3
	.byte	W04
	.byte			Dn4
	.byte	W04
	.byte			Gn3
	.byte	W04
	.byte			Dn4
	.byte	W04
	.byte			Gn3
	.byte	W04
	.byte			Cs4
	.byte	W04
	.byte			Gn3
	.byte	W04
	.byte			Cs4
	.byte	W04
	.byte			Gn3
	.byte	W04
	.byte			Cs4
	.byte	W04
	.byte			Gn3
	.byte	W04
	.byte		N06	, Gn1
	.byte	W06
	.byte			Gn2
	.byte	W06
	.byte			Gn3
	.byte	W06
	.byte			Gn2
	.byte	W06
	.byte			Gn1
	.byte	W06
	.byte			Gn3
	.byte	W06
	.byte			Gn2
	.byte	W06
	.byte			Gn1
	.byte	W06
	.byte			Gn3
	.byte	W06
	.byte			Gn2
	.byte	W06
	.byte			Gn1
	.byte	W06
	.byte			Gn3
	.byte	W06
	.byte			Gn2
	.byte	W06
	.byte			Gn1
	.byte	W06
	.byte			Gn3
	.byte	W06
	.byte			Gn2
	.byte	W06
	.byte			As1
	.byte	W06
	.byte			As2
	.byte	W06
	.byte			As3
	.byte	W06
	.byte			As2
	.byte	W06
	.byte			As1
	.byte	W06
	.byte			As3
	.byte	W06
	.byte			As2
	.byte	W06
	.byte			As1
	.byte	W06
	.byte			As3
	.byte	W06
	.byte			As2
	.byte	W06
	.byte			As1
	.byte	W06
	.byte			As3
	.byte	W06
	.byte			As2
	.byte	W06
	.byte			As1
	.byte	W06
	.byte			As3
	.byte	W06
	.byte			As2
	.byte	W06
	.byte			Cn2
	.byte	W06
	.byte			Cn3
	.byte	W06
	.byte			Cn4
	.byte	W06
	.byte			Cn3
	.byte	W06
	.byte			Cn2
	.byte	W06
	.byte			Cn4
	.byte	W06
	.byte			Cn3
	.byte	W06
	.byte			Cn2
	.byte	W06
	.byte			Cn4
	.byte	W06
	.byte			Cn3
	.byte	W06
	.byte			Cn2
	.byte	W06
	.byte			Cn4
	.byte	W06
	.byte			Cn3
	.byte	W06
	.byte			Cn2
	.byte	W06
	.byte			Cn4
	.byte	W06
	.byte			Cn3
	.byte	W06
	.byte			Dn2
	.byte	W06
	.byte			Dn3
	.byte	W06
	.byte			Dn4
	.byte	W06
	.byte			Dn3
	.byte	W06
	.byte			Dn2
	.byte	W06
	.byte			Dn4
	.byte	W06
	.byte			Dn3
	.byte	W06
	.byte			Dn2
	.byte	W06
	.byte			Dn4
	.byte	W06
	.byte			Dn3
	.byte	W06
	.byte			Dn2
	.byte	W06
	.byte			Dn4
	.byte	W06
	.byte			Dn3
	.byte	W06
	.byte			Dn2
	.byte	W06
	.byte			Dn4
	.byte	W06
	.byte			Dn3
	.byte	W06
	.byte	W96
	.byte	W96
	.byte	W96
	.byte	W96
song0043_4_1:
	.byte		N06	, Bn3, v080
	.byte	W06
	.byte			Bn4
	.byte	W06
	.byte			Bn2
	.byte	W06
	.byte			Bn4
	.byte	W06
	.byte			Bn3
	.byte	W06
	.byte			Bn4
	.byte	W06
	.byte			Cn3
	.byte	W06
	.byte			Cn5
	.byte	W06
	.byte			Cn4
	.byte	W06
	.byte			Cn5
	.byte	W06
	.byte			Cn3
	.byte	W06
	.byte			Cn5
	.byte	W06
	.byte			Dn4
	.byte	W06
	.byte			Dn5
	.byte	W06
	.byte			Dn3
	.byte	W06
	.byte			Dn5
	.byte	W06
	.byte	PEND
song0043_4_2:
	.byte		N06	, Dn4, v080
	.byte	W06
	.byte			Dn5
	.byte	W06
	.byte			Gs2
	.byte	W06
	.byte			Gs4
	.byte	W06
	.byte			Gs3
	.byte	W06
	.byte			Gs4
	.byte	W06
	.byte			Gs2
	.byte	W06
	.byte			Gs4
	.byte	W06
	.byte			An3
	.byte	W06
	.byte			An4
	.byte	W06
	.byte			An2
	.byte	W06
	.byte			An4
	.byte	W06
	.byte			As3
	.byte	W06
	.byte			As4
	.byte	W06
	.byte			As2
	.byte	W06
	.byte			As4
	.byte	W06
	.byte	PEND
	.byte	PATT	
		.word	song0043_4_1
	.byte	PATT	
		.word	song0043_4_2
	.byte		TIE	, Fs4, v080
	.byte	W24
	.byte	VOL	, v055
	.byte	W01
	.byte		v053
	.byte	W02
	.byte		v052
	.byte	W01
	.byte		v051
	.byte	W02
	.byte		v051
	.byte	W01
	.byte		v050
	.byte	W01
	.byte		v049
	.byte	W01
	.byte		v048
	.byte	W02
	.byte		v048
	.byte	W01
	.byte		v047
	.byte	W02
	.byte		v046
	.byte	W02
	.byte		v045
	.byte	W01
	.byte		v044
	.byte	W01
	.byte		v044
	.byte	W01
	.byte		v043
	.byte	W02
	.byte		v042
	.byte	W02
	.byte		v041
	.byte	W01
	.byte		v040
	.byte	W01
	.byte		v040
	.byte	W02
	.byte		v039
	.byte	W02
	.byte		v038
	.byte	W01
	.byte		v037
	.byte	W02
	.byte		v037
	.byte	W02
	.byte		v036
	.byte	W01
	.byte		v035
	.byte	W02
	.byte		v034
	.byte	W02
	.byte		v033
	.byte	W01
	.byte		v033
	.byte	W02
	.byte		v032
	.byte	W02
	.byte		v031
	.byte	W01
	.byte		v030
	.byte	W03
	.byte		v029
	.byte	W01
	.byte		v029
	.byte	W02
	.byte		v028
	.byte	W02
	.byte		v027
	.byte	W02
	.byte		v026
	.byte	W03
	.byte		v025
	.byte	W01
	.byte		v025
	.byte	W02
	.byte		v024
	.byte	W02
	.byte		v023
	.byte	W02
	.byte		v022
	.byte	W02
	.byte		v022
	.byte	W03
	.byte		v021
	.byte	W02
	.byte		v020
	.byte	W02
	.byte		v019
	.byte	W02
	.byte		v018
	.byte	W03
	.byte		v018
	.byte	W02
	.byte		v017
	.byte	W04
	.byte		v016
	.byte	W02
	.byte		v015
	.byte	W03
	.byte		v014
	.byte	W02
	.byte		v014
	.byte	W04
	.byte		v013
	.byte	W02
	.byte		v012
	.byte	W04
	.byte		v011
	.byte	W04
	.byte		v011
	.byte	W02
	.byte		v010
	.byte	W05
	.byte		v009
	.byte	W04
	.byte		v008
	.byte	W05
	.byte		v007
	.byte	W05
	.byte		v007
	.byte	W05
	.byte		v006
	.byte	W07
	.byte		v005
	.byte	W09
	.byte		v004
	.byte	W20
	.byte		EOT	
	.byte	W96
	.byte	FINE

	@********************** Track  5 **********************@

	.global song0043_5
song0043_5:	@ 0x08C77989
	.byte	KEYSH	, 0
	.byte	VOICE	, 12
	.byte	VOL	, v070
	.byte	PAN	, c_v+30
	.byte	MOD	, 0
	.byte	W03
	.byte		N04	, Dn6, v072
	.byte	W04
	.byte			Dn7
	.byte	W04
	.byte			Dn6
	.byte	W04
	.byte			Dn7
	.byte	W04
	.byte			Dn6
	.byte	W04
	.byte			Dn7
	.byte	W04
	.byte			Dn6
	.byte	W04
	.byte			Dn7
	.byte	W04
	.byte			Dn6
	.byte	W04
	.byte			Cs7
	.byte	W04
	.byte			Cs6
	.byte	W04
	.byte			Cs7
	.byte	W04
	.byte			Cs6
	.byte	W04
	.byte			Cs7
	.byte	W04
	.byte			Cs6
	.byte	W04
	.byte			Cs7
	.byte	W04
	.byte			Cs6
	.byte	W04
	.byte			Cs7
	.byte	W04
	.byte			Cn6
	.byte	W04
	.byte			Cn7
	.byte	W04
	.byte			Cn6
	.byte	W04
	.byte			Cn7
	.byte	W04
	.byte			Cn6
	.byte	W04
	.byte			Cn7
	.byte	W04
	.byte			Cn6
	.byte	W04
	.byte			Cn7
	.byte	W04
	.byte			Cn6
	.byte	W04
	.byte			Bn6
	.byte	W04
	.byte			Bn5
	.byte	W04
	.byte			Bn6
	.byte	W04
	.byte			Bn5
	.byte	W04
	.byte			Bn6
	.byte	W04
	.byte			Bn5
	.byte	W04
	.byte			Bn6
	.byte	W04
	.byte			Bn5
	.byte	W04
	.byte			Bn6
	.byte	W04
	.byte			As5
	.byte	W04
	.byte			As6
	.byte	W04
	.byte			As5
	.byte	W04
	.byte			As6
	.byte	W04
	.byte			As5
	.byte	W04
	.byte			As6
	.byte	W04
	.byte			An5
	.byte	W04
	.byte			An6
	.byte	W04
	.byte			An5
	.byte	W04
	.byte			An6
	.byte	W04
	.byte			An5
	.byte	W04
	.byte			An6
	.byte	W04
	.byte			Gn5
	.byte	W04
	.byte			Gn6
	.byte	W04
	.byte			Gn5
	.byte	W04
	.byte			Gn6
	.byte	W04
	.byte			Gn5
	.byte	W04
	.byte			Gn6
	.byte	W04
	.byte			Gn5
	.byte	W04
	.byte			Gn6
	.byte	W04
	.byte			Gn5
	.byte	W04
	.byte			Fs6
	.byte	W04
	.byte			Fs5
	.byte	W04
	.byte			Fs6
	.byte	W04
	.byte			Fs5
	.byte	W04
	.byte			Fs6
	.byte	W04
	.byte			Fs5
	.byte	W04
	.byte			Fs6
	.byte	W04
	.byte			Fs5
	.byte	W04
	.byte			Fs6
	.byte	W04
	.byte			Fn5
	.byte	W04
	.byte			Fn6
	.byte	W04
	.byte			Fn5
	.byte	W04
	.byte			Fn6
	.byte	W04
	.byte			Fn5
	.byte	W04
	.byte			Fn6
	.byte	W04
	.byte			Fn5
	.byte	W04
	.byte			Fn6
	.byte	W04
	.byte			Fn5
	.byte	W04
	.byte			Ds6
	.byte	W04
	.byte			Ds5
	.byte	W04
	.byte			Ds6
	.byte	W04
	.byte			Ds5
	.byte	W04
	.byte			Ds6
	.byte	W04
	.byte			Ds5
	.byte	W04
	.byte			Ds6
	.byte	W04
	.byte			Ds5
	.byte	W04
	.byte			Ds6
	.byte	W04
	.byte			Dn5
	.byte	W04
	.byte			Dn6
	.byte	W04
	.byte			Dn5
	.byte	W04
	.byte			Dn6
	.byte	W04
	.byte			Dn5
	.byte	W04
	.byte			Dn6
	.byte	W04
	.byte			Cs5
	.byte	W04
	.byte			Cs6
	.byte	W04
	.byte			Cs5
	.byte	W04
	.byte			Cs6
	.byte	W04
	.byte			Cs5
	.byte	W04
	.byte			Cs6
	.byte	W04
	.byte			Dn6
	.byte	W04
	.byte			Gn5
	.byte	W04
	.byte			Dn6
	.byte	W04
	.byte			Gn5
	.byte	W04
	.byte			Dn6
	.byte	W04
	.byte			Gn5
	.byte	W04
	.byte			Dn6
	.byte	W04
	.byte			Gn5
	.byte	W04
	.byte			Dn6
	.byte	W04
	.byte			Gn5
	.byte	W04
	.byte			Cs6
	.byte	W04
	.byte			Gn5
	.byte	W04
	.byte			Cs6
	.byte	W04
	.byte			Gn5
	.byte	W04
	.byte			Cs6
	.byte	W04
	.byte			Gn5
	.byte	W04
	.byte			Cs6
	.byte	W04
	.byte			Gn5
	.byte	W04
	.byte			Cn6
	.byte	W04
	.byte			Gn5
	.byte	W04
	.byte			Cn6
	.byte	W04
	.byte			Gn5
	.byte	W04
	.byte			Cn6
	.byte	W04
	.byte			Gn5
	.byte	W04
	.byte			Cn6
	.byte	W04
	.byte			Gn5
	.byte	W04
	.byte			Cn6
	.byte	W04
	.byte			Gn5
	.byte	W04
	.byte			Bn5
	.byte	W04
	.byte			En5
	.byte	W04
	.byte			Bn5
	.byte	W04
	.byte			En5
	.byte	W04
	.byte			Bn5
	.byte	W04
	.byte			En5
	.byte	W04
	.byte			Bn5
	.byte	W04
	.byte			En5
	.byte	W04
	.byte			As5
	.byte	W04
	.byte			En5
	.byte	W04
	.byte			As5
	.byte	W04
	.byte			En5
	.byte	W04
	.byte			As5
	.byte	W04
	.byte			En5
	.byte	W04
	.byte			An5
	.byte	W04
	.byte			En5
	.byte	W04
	.byte			An5
	.byte	W04
	.byte			En5
	.byte	W04
	.byte			An5
	.byte	W04
	.byte			En5
	.byte	W04
	.byte			Gn5
	.byte	W04
	.byte			Dn5
	.byte	W04
	.byte			Gn5
	.byte	W04
	.byte			Dn5
	.byte	W04
	.byte			Gn5
	.byte	W04
	.byte			Dn5
	.byte	W04
	.byte			Gn5
	.byte	W04
	.byte			Dn5
	.byte	W04
	.byte			Gn5
	.byte	W04
	.byte			Dn5
	.byte	W04
	.byte			Fs5
	.byte	W04
	.byte			Dn5
	.byte	W04
	.byte			Fs5
	.byte	W04
	.byte			Dn5
	.byte	W04
	.byte			Fs5
	.byte	W04
	.byte			Dn5
	.byte	W04
	.byte			Fs5
	.byte	W04
	.byte			Dn5
	.byte	W04
	.byte			Fn5
	.byte	W04
	.byte			Dn5
	.byte	W04
	.byte			Fn5
	.byte	W04
	.byte			Dn5
	.byte	W04
	.byte			Fn5
	.byte	W04
	.byte			Dn5
	.byte	W04
	.byte			Fn5
	.byte	W04
	.byte			Dn5
	.byte	W04
	.byte			Fn5
	.byte	W04
	.byte			Dn5
	.byte	W04
	.byte			Ds5
	.byte	W04
	.byte			Gn4
	.byte	W04
	.byte			Ds5
	.byte	W04
	.byte			Gn4
	.byte	W04
	.byte			Ds5
	.byte	W04
	.byte			Gn4
	.byte	W04
	.byte			Ds5
	.byte	W04
	.byte			Gn4
	.byte	W04
	.byte			Dn5
	.byte	W04
	.byte			Gn4
	.byte	W04
	.byte			Dn5
	.byte	W04
	.byte			Gn4
	.byte	W04
	.byte			Dn5
	.byte	W04
	.byte			Gn4
	.byte	W04
	.byte			Cs5
	.byte	W04
	.byte			Gn4
	.byte	W04
	.byte			Cs5
	.byte	W04
	.byte			Gn4
	.byte	W04
	.byte			Cs5
	.byte	W04
	.byte			Gn4
	.byte	W04
	.byte			Dn4
	.byte	W04
	.byte			Dn5
	.byte	W04
	.byte			Dn4
	.byte	W04
	.byte			Dn5
	.byte	W04
	.byte			Dn4
	.byte	W04
	.byte			Dn5
	.byte	W04
	.byte			Dn4
	.byte	W04
	.byte			Dn5
	.byte	W04
	.byte			Dn4
	.byte	W04
	.byte			Cs5
	.byte	W04
	.byte			Cs4
	.byte	W04
	.byte			Cs5
	.byte	W04
	.byte			Cs4
	.byte	W04
	.byte			Cs5
	.byte	W04
	.byte			Cs4
	.byte	W04
	.byte			Cs5
	.byte	W04
	.byte			Cs4
	.byte	W04
	.byte			Cs5
	.byte	W04
	.byte			Cn4
	.byte	W04
	.byte			Cn5
	.byte	W04
	.byte			Cn4
	.byte	W04
	.byte			Cn5
	.byte	W04
	.byte			Cn4
	.byte	W04
	.byte			Cn5
	.byte	W04
	.byte			Cn4
	.byte	W04
	.byte			Cn5
	.byte	W04
	.byte			Cn4
	.byte	W04
	.byte			Bn4
	.byte	W04
	.byte			Bn3
	.byte	W04
	.byte			Bn4
	.byte	W04
	.byte			Bn3
	.byte	W04
	.byte			Bn4
	.byte	W04
	.byte			Bn3
	.byte	W04
	.byte			Bn4
	.byte	W04
	.byte			Bn3
	.byte	W04
	.byte			Bn4
	.byte	W04
	.byte			As3
	.byte	W04
	.byte			As4
	.byte	W04
	.byte			As3
	.byte	W04
	.byte			As4
	.byte	W04
	.byte			As3
	.byte	W04
	.byte			As4
	.byte	W04
	.byte			An3
	.byte	W04
	.byte			An4
	.byte	W04
	.byte			An3
	.byte	W04
	.byte			An4
	.byte	W04
	.byte			An3
	.byte	W04
	.byte			An4
	.byte	W04
	.byte			Gn3
	.byte	W04
	.byte			Gn4
	.byte	W04
	.byte			Gn3
	.byte	W04
	.byte			Gn4
	.byte	W04
	.byte			Gn3
	.byte	W04
	.byte			Gn4
	.byte	W04
	.byte			Gn3
	.byte	W04
	.byte			Gn4
	.byte	W04
	.byte			Gn3
	.byte	W04
	.byte			Fs4
	.byte	W04
	.byte			Fs3
	.byte	W04
	.byte			Fs4
	.byte	W04
	.byte			Fs3
	.byte	W04
	.byte			Fs4
	.byte	W04
	.byte			Fs3
	.byte	W04
	.byte			Fs4
	.byte	W04
	.byte			Fs3
	.byte	W04
	.byte			Fs4
	.byte	W04
	.byte			Fn3
	.byte	W04
	.byte			Fn4
	.byte	W04
	.byte			Fn3
	.byte	W04
	.byte			Fn4
	.byte	W04
	.byte			Fn3
	.byte	W04
	.byte			Fn4
	.byte	W04
	.byte			Fn3
	.byte	W04
	.byte			Fn4
	.byte	W04
	.byte			Fn3
	.byte	W04
	.byte			Ds4
	.byte	W04
	.byte			Ds3
	.byte	W04
	.byte			Ds4
	.byte	W04
	.byte			Ds3
	.byte	W04
	.byte			Ds4
	.byte	W04
	.byte			Ds3
	.byte	W04
	.byte			Ds4
	.byte	W04
	.byte			Ds3
	.byte	W04
	.byte			Ds4
	.byte	W04
	.byte			Dn3
	.byte	W04
	.byte			Dn4
	.byte	W04
	.byte			Dn3
	.byte	W04
	.byte			Dn4
	.byte	W04
	.byte			Dn3
	.byte	W04
	.byte			Dn4
	.byte	W04
	.byte			Cs3
	.byte	W04
	.byte			Cs4
	.byte	W04
	.byte			Cs3
	.byte	W04
	.byte			Cs4
	.byte	W04
	.byte			Cs3
	.byte	W04
	.byte			Cs4
	.byte	W04
	.byte		N06	, Gn2
	.byte	W06
	.byte			Gn3
	.byte	W06
	.byte			Gn1
	.byte	W06
	.byte			Gn3
	.byte	W06
	.byte			Gn2
	.byte	W06
	.byte			Gn1
	.byte	W06
	.byte			Gn3
	.byte	W06
	.byte			Gn2
	.byte	W06
	.byte			Gn1
	.byte	W06
	.byte			Gn3
	.byte	W06
	.byte			Gn2
	.byte	W06
	.byte			Gn1
	.byte	W06
	.byte			Gn3
	.byte	W06
	.byte			Gn2
	.byte	W06
	.byte			Gn1
	.byte	W06
	.byte			Gn3
	.byte	W06
	.byte			As2
	.byte	W06
	.byte			As3
	.byte	W06
	.byte			As1
	.byte	W06
	.byte			As3
	.byte	W06
	.byte			As2
	.byte	W06
	.byte			As1
	.byte	W06
	.byte			As3
	.byte	W06
	.byte			As2
	.byte	W06
	.byte			As1
	.byte	W06
	.byte			As3
	.byte	W06
	.byte			As2
	.byte	W06
	.byte			As1
	.byte	W06
	.byte			As3
	.byte	W06
	.byte			As2
	.byte	W06
	.byte			As1
	.byte	W06
	.byte			As3
	.byte	W06
	.byte			Cn3
	.byte	W06
	.byte			Cn4
	.byte	W06
	.byte			Cn2
	.byte	W06
	.byte			Cn4
	.byte	W06
	.byte			Cn3
	.byte	W06
	.byte			Cn2
	.byte	W06
	.byte			Cn4
	.byte	W06
	.byte			Cn3
	.byte	W06
	.byte			Cn2
	.byte	W06
	.byte			Cn4
	.byte	W06
	.byte			Cn3
	.byte	W06
	.byte			Cn2
	.byte	W06
	.byte			Cn4
	.byte	W06
	.byte			Cn3
	.byte	W06
	.byte			Cn2
	.byte	W06
	.byte			Cn4
	.byte	W06
	.byte			Dn3
	.byte	W06
	.byte			Dn4
	.byte	W06
	.byte			Dn2
	.byte	W06
	.byte			Dn4
	.byte	W06
	.byte			Dn3
	.byte	W06
	.byte			Dn2
	.byte	W06
	.byte			Dn4
	.byte	W06
	.byte			Dn3
	.byte	W06
	.byte			Dn2
	.byte	W06
	.byte			Dn4
	.byte	W06
	.byte			Dn3
	.byte	W06
	.byte			Dn2
	.byte	W06
	.byte			Dn4
	.byte	W06
	.byte			Dn3
	.byte	W06
	.byte			Dn2
	.byte	W06
	.byte			Dn4
	.byte	W06
	.byte	W96
	.byte	W96
	.byte	W96
	.byte	W96
song0043_5_1:
	.byte		N06	, Bn2, v080
	.byte	W06
	.byte			Bn3
	.byte	W06
	.byte			Bn4
	.byte	W06
	.byte			Bn3
	.byte	W06
	.byte			Bn2
	.byte	W06
	.byte			Bn3
	.byte	W06
	.byte			Cn5
	.byte	W06
	.byte			Cn4
	.byte	W06
	.byte			Cn3
	.byte	W06
	.byte			Cn4
	.byte	W06
	.byte			Cn5
	.byte	W06
	.byte			Cn4
	.byte	W06
	.byte			Dn3
	.byte	W06
	.byte			Dn4
	.byte	W06
	.byte			Dn5
	.byte	W06
	.byte			Dn4
	.byte	W06
	.byte	PEND
song0043_5_2:
	.byte		N06	, Dn3, v080
	.byte	W06
	.byte			Dn4
	.byte	W06
	.byte			Gs4
	.byte	W06
	.byte			Gs3
	.byte	W06
	.byte			Gs2
	.byte	W06
	.byte			Gs3
	.byte	W06
	.byte			Gs4
	.byte	W06
	.byte			Gs3
	.byte	W06
	.byte			An2
	.byte	W06
	.byte			An3
	.byte	W06
	.byte			An4
	.byte	W06
	.byte			An3
	.byte	W06
	.byte			As2
	.byte	W06
	.byte			As3
	.byte	W06
	.byte			As4
	.byte	W06
	.byte			As3
	.byte	W06
	.byte	PEND
	.byte	PATT	
		.word	song0043_5_1
	.byte	PATT	
		.word	song0043_5_2
	.byte		TIE	, An3, v080
	.byte	W24
	.byte	VOL	, v055
	.byte	W01
	.byte		v053
	.byte	W02
	.byte		v052
	.byte	W01
	.byte		v051
	.byte	W02
	.byte		v051
	.byte	W01
	.byte		v050
	.byte	W01
	.byte		v049
	.byte	W01
	.byte		v048
	.byte	W02
	.byte		v048
	.byte	W01
	.byte		v047
	.byte	W02
	.byte		v046
	.byte	W02
	.byte		v045
	.byte	W01
	.byte		v044
	.byte	W01
	.byte		v044
	.byte	W01
	.byte		v043
	.byte	W02
	.byte		v042
	.byte	W02
	.byte		v041
	.byte	W01
	.byte		v040
	.byte	W01
	.byte		v040
	.byte	W02
	.byte		v039
	.byte	W02
	.byte		v038
	.byte	W01
	.byte		v037
	.byte	W02
	.byte		v037
	.byte	W02
	.byte		v036
	.byte	W01
	.byte		v035
	.byte	W02
	.byte		v034
	.byte	W02
	.byte		v033
	.byte	W01
	.byte		v033
	.byte	W02
	.byte		v032
	.byte	W02
	.byte		v031
	.byte	W01
	.byte		v030
	.byte	W03
	.byte		v029
	.byte	W01
	.byte		v029
	.byte	W02
	.byte		v028
	.byte	W02
	.byte		v027
	.byte	W02
	.byte		v026
	.byte	W03
	.byte		v025
	.byte	W01
	.byte		v025
	.byte	W02
	.byte		v024
	.byte	W02
	.byte		v023
	.byte	W02
	.byte		v022
	.byte	W02
	.byte		v022
	.byte	W03
	.byte		v021
	.byte	W02
	.byte		v020
	.byte	W02
	.byte		v019
	.byte	W02
	.byte		v018
	.byte	W03
	.byte		v018
	.byte	W02
	.byte		v017
	.byte	W04
	.byte		v016
	.byte	W02
	.byte		v015
	.byte	W03
	.byte		v014
	.byte	W02
	.byte		v014
	.byte	W04
	.byte		v013
	.byte	W02
	.byte		v012
	.byte	W04
	.byte		v011
	.byte	W04
	.byte		v011
	.byte	W02
	.byte		v010
	.byte	W05
	.byte		v009
	.byte	W04
	.byte		v008
	.byte	W05
	.byte		v007
	.byte	W05
	.byte		v007
	.byte	W05
	.byte		v006
	.byte	W07
	.byte		v005
	.byte	W09
	.byte		v004
	.byte	W20
	.byte		EOT	
	.byte	W96
	.byte	FINE

	@********************** Track  6 **********************@

	.global song0043_6
song0043_6:	@ 0x08C77D33
	.byte	KEYSH	, 0
	.byte	VOICE	, 96
	.byte	PAN	, c_v
	.byte	VOL	, v094
	.byte	W03
song0043_6_1:
	.byte		N18	, Gn2, v127
	.byte	W12
	.byte			Dn3
	.byte	W12
	.byte		N12	, Cn3
	.byte	W06
	.byte		N18	, As2
	.byte	W12
	.byte		N12	, Gn2
	.byte	W12
	.byte		N12	
	.byte	W06
	.byte		N18	, Dn3
	.byte	W12
	.byte			Cn3
	.byte	W12
	.byte			As2
	.byte	W12
	.byte	PEND
song0043_6_2:
	.byte		N18	, An2, v127
	.byte	W12
	.byte			Ds3
	.byte	W12
	.byte		N12	, Dn3
	.byte	W06
	.byte		N18	, Cn3
	.byte	W12
	.byte		N12	, An2
	.byte	W12
	.byte		N12	
	.byte	W06
	.byte		N18	, Ds3
	.byte	W12
	.byte			Dn3
	.byte	W12
	.byte			Cn3
	.byte	W12
	.byte	PEND
song0043_6_3:
	.byte		N18	, As2, v127
	.byte	W12
	.byte			Fn3
	.byte	W12
	.byte		N12	, Ds3
	.byte	W06
	.byte		N18	, Dn3
	.byte	W12
	.byte		N12	, As2
	.byte	W12
	.byte		N12	
	.byte	W06
	.byte		N18	, Fn3
	.byte	W12
	.byte			Ds3
	.byte	W12
	.byte			Dn3
	.byte	W12
	.byte	PEND
song0043_6_4:
	.byte		N18	, Cn3, v127
	.byte	W12
	.byte			Fs3
	.byte	W12
	.byte		N12	, Fn3
	.byte	W06
	.byte		N18	, Ds3
	.byte	W12
	.byte			Dn3
	.byte	W12
	.byte		N12	, Cn3
	.byte	W06
	.byte		N18	, As2
	.byte	W12
	.byte			An2
	.byte	W12
	.byte			Fs2
	.byte	W12
	.byte	PEND
	.byte	PATT	
		.word	song0043_6_1
	.byte	PATT	
		.word	song0043_6_2
	.byte	PATT	
		.word	song0043_6_3
	.byte	PATT	
		.word	song0043_6_4
	.byte	PATT	
		.word	song0043_6_1
	.byte	PATT	
		.word	song0043_6_2
	.byte		N18	, As2, v127
	.byte	W96
	.byte	W96
	.byte	W96
	.byte	W96
	.byte	W96
	.byte	W96
song0043_6_5:
	.byte		N36	, An3, v112
	.byte	W36
	.byte			As3
	.byte	W36
	.byte			Cn4
	.byte	W24
	.byte	PEND
song0043_6_6:
	.byte	W12
	.byte		N36	, Fs3, v112
	.byte	W36
	.byte		N24	, Gn3
	.byte	W24
	.byte			Gs3
	.byte	W24
	.byte	PEND
	.byte	PATT	
		.word	song0043_6_5
	.byte	PATT	
		.word	song0043_6_6
song0043_6_7:
	.byte		N36	, Bn3, v112
	.byte	W36
	.byte			Cn4
	.byte	W36
	.byte			Dn4
	.byte	W24
	.byte	PEND
	.byte	W12
	.byte			Gs3
	.byte	W36
	.byte		N24	, An3
	.byte	W24
	.byte			As3
	.byte	W24
	.byte	PATT	
		.word	song0043_6_7
	.byte	W12
	.byte		N36	, Dn4, v112
	.byte	W36
	.byte		N24	, Cs4
	.byte	W24
	.byte			Dn4
	.byte	W24
	.byte		N96	, Ds4
	.byte	W96
	.byte	W96
	.byte	W96
	.byte	FINE

	@********************** Track  7 **********************@

	.global song0043_7
song0043_7:	@ 0x08C77E0B
	.byte	KEYSH	, 0
	.byte	VOICE	, 117
	.byte	VOL	, v094
	.byte	PAN	, c_v
	.byte	PRIO	, 15
	.byte	W03
	.byte	W96
	.byte	W96
	.byte	W96
	.byte	W96
	.byte	W96
	.byte	W96
	.byte	W96
	.byte	W96
	.byte	W96
	.byte	W96
	.byte	W96
	.byte	W96
	.byte	W96
	.byte	W96
	.byte	W96
	.byte	W96
song0043_7_1:
	.byte		N36	, An2, v112
	.byte	W36
	.byte			As2
	.byte	W36
	.byte			Cn3
	.byte	W24
	.byte	PEND
song0043_7_2:
	.byte	W12
	.byte		N36	, Fs2, v112
	.byte	W36
	.byte		N24	, Gn2
	.byte	W24
	.byte			Gs2
	.byte	W24
	.byte	PEND
	.byte	PATT	
		.word	song0043_7_1
	.byte	PATT	
		.word	song0043_7_2
song0043_7_3:
	.byte		N36	, Bn2, v112
	.byte	W36
	.byte			Cn3
	.byte	W36
	.byte			Dn3
	.byte	W24
	.byte	PEND
	.byte	W12
	.byte			Gs2
	.byte	W36
	.byte		N24	, An2
	.byte	W24
	.byte			As2
	.byte	W24
	.byte	PATT	
		.word	song0043_7_3
	.byte	W12
	.byte		N36	, Dn3, v112
	.byte	W36
	.byte		N24	, Cs3
	.byte	W24
	.byte			Dn3
	.byte	W24
	.byte		N96	, Ds3
	.byte	W96
	.byte	W96
	.byte	W96
	.byte	FINE

	@********************** Track  8 **********************@

	.global song0043_8
song0043_8:	@ 0x08C77E6A
	.byte	KEYSH	, 0
	.byte	VOICE	, 89
	.byte	VOL	, v094
	.byte	BENDR	, 12
	.byte	W03
	.byte	W96
	.byte	PAN	, c_v+30
	.byte	W96
	.byte	W96
	.byte	W96
	.byte	W96
	.byte	W96
	.byte	W96
	.byte	W96
	.byte	W96
	.byte	W96
	.byte	W96
	.byte	W96
	.byte	W96
	.byte	W96
	.byte	W96
	.byte	W11
	.byte		c_v-30
	.byte	W01
	.byte		N12	, As3, v100
	.byte	W23
	.byte	PAN	, c_v+30
	.byte	W01
	.byte		N24	, Cs4
	.byte	W23
	.byte	PAN	, c_v-30
	.byte	W01
	.byte		N12	, Cn4
	.byte	W11
	.byte	PAN	, c_v+30
	.byte	W01
	.byte		N12	, Gs3
	.byte	W11
	.byte	PAN	, c_v-30
	.byte	W01
	.byte		N12	, Fn3
	.byte	W12
	.byte	W96
	.byte	W96
	.byte	W96
	.byte	W96
	.byte	W96
	.byte	W96
	.byte	W96
	.byte	W96
	.byte	W96
	.byte	W96
	.byte	W96
	.byte	FINE

	@********************** Track  9 **********************@

	.global song0043_9
song0043_9:	@ 0x08C77EAF
	.byte	KEYSH	, 0
	.byte	VOICE	, 106
	.byte	VOL	, v062
	.byte	PAN	, c_v-30
	.byte	W03
	.byte	W96
	.byte	W96
	.byte	W96
	.byte	W96
	.byte	W96
	.byte	W96
song0043_9_1:
	.byte		N36	, Dn4, v100
	.byte	W36
	.byte			Cs4
	.byte	W36
	.byte			Cn4
	.byte	W24
	.byte	PEND
song0043_9_2:
	.byte	W12
	.byte		N36	, Bn3, v100
	.byte	W36
	.byte		N24	, As3
	.byte	W24
	.byte			An3
	.byte	W24
	.byte	PEND
	.byte		N36	, Gn3
	.byte	W36
	.byte			Fs3
	.byte	W36
	.byte			Fn3
	.byte	W24
	.byte	W12
	.byte			En4
	.byte	W36
	.byte		N24	, Ds4
	.byte	W24
	.byte			Dn4
	.byte	W24
	.byte	PATT	
		.word	song0043_9_1
	.byte	PATT	
		.word	song0043_9_2
	.byte	W60
	.byte		N24	, Gn2, v120
	.byte	W24
	.byte		N12	, Gn2, v112
	.byte	W12
	.byte			As2, v120
	.byte	W60
	.byte		N24	
	.byte	W24
	.byte		N12	, As2, v112
	.byte	W12
	.byte			Cn3, v120
	.byte	W60
	.byte		N24	
	.byte	W24
	.byte		N12	, Cn3, v112
	.byte	W12
	.byte			Dn3, v120
	.byte	W96
	.byte	W96
	.byte	W96
	.byte	W96
	.byte	W96
	.byte	W96
	.byte	W96
	.byte	W96
	.byte	W96
	.byte	W96
	.byte	W96
	.byte	W96
	.byte	FINE

	@********************** Track  10 **********************@

	.global song0043_10
song0043_10:	@ 0x08C77F15
	.byte	KEYSH	, 0
	.byte	VOICE	, 106
	.byte	VOL	, v062
	.byte	PAN	, c_v+30
	.byte	MOD	, 0
	.byte	W03
	.byte	W96
	.byte	W96
	.byte	W96
	.byte	W96
song0043_10_1:
	.byte		N36	, Dn4, v100
	.byte	W36
	.byte			Cs4
	.byte	W36
	.byte			Cn4
	.byte	W24
	.byte	PEND
song0043_10_2:
	.byte	W12
	.byte		N36	, Bn3, v100
	.byte	W36
	.byte		N24	, As3
	.byte	W24
	.byte			An3
	.byte	W24
	.byte	PEND
song0043_10_3:
	.byte		N36	, Gn3, v100
	.byte	W36
	.byte			Fs3
	.byte	W36
	.byte			Fn3
	.byte	W24
	.byte	PEND
song0043_10_4:
	.byte	W12
	.byte		N36	, Ds3, v100
	.byte	W36
	.byte		N24	, Dn3
	.byte	W24
	.byte			Cs3
	.byte	W24
	.byte	PEND
	.byte	PATT	
		.word	song0043_10_1
	.byte	PATT	
		.word	song0043_10_2
	.byte	PATT	
		.word	song0043_10_3
	.byte	PATT	
		.word	song0043_10_4
	.byte	W60
	.byte		N24	, Dn3, v120
	.byte	W24
	.byte		N12	, Dn3, v112
	.byte	W12
	.byte			Fn3, v120
	.byte	W60
	.byte		N24	, As3
	.byte	W24
	.byte		N12	, As3, v112
	.byte	W12
	.byte			Cn4, v120
	.byte	W60
	.byte		N24	
	.byte	W24
	.byte		N12	, Cn4, v112
	.byte	W12
	.byte			An3, v120
	.byte	W96
	.byte	W96
	.byte	W96
	.byte	W96
	.byte	W96
	.byte	W96
	.byte	W96
	.byte	W96
	.byte	W96
	.byte	W96
	.byte	W96
	.byte	W96
	.byte	FINE

	@********************** Track  11 **********************@

	.global song0043_11
song0043_11:	@ 0x08C77F8B
	.byte	KEYSH	, 0
	.byte	VOICE	, 103
	.byte	VOL	, v082
	.byte	BENDR	, 3
	.byte	PAN	, c_v
	.byte	W03
	.byte	W96
	.byte	W96
	.byte	W96
	.byte	W96
	.byte	W96
	.byte	W96
	.byte	W96
	.byte	W96
	.byte	W96
	.byte	W96
	.byte		N06	, Cn3, v100
	.byte	W06
	.byte		N06	
	.byte	W06
	.byte		N12	
	.byte	W01
	.byte	BEND	, c_v+21
	.byte	W01
	.byte		c_v+42
	.byte	W01
	.byte		c_v+63
	.byte	W06
	.byte		c_v+62
	.byte	W01
	.byte		c_v+41
	.byte	W01
	.byte		c_v+20
	.byte	W01
	.byte		c_v
	.byte		N06	
	.byte	W06
	.byte			As2
	.byte	W06
	.byte			Cn3
	.byte	W06
	.byte		N06	
	.byte	W06
	.byte		N12	
	.byte	W01
	.byte	BEND	, c_v+21
	.byte	W01
	.byte		c_v+42
	.byte	W01
	.byte		c_v+63
	.byte	W06
	.byte		c_v+62
	.byte	W01
	.byte		c_v+41
	.byte	W01
	.byte		c_v+20
	.byte	W01
	.byte		c_v
	.byte		N06	
	.byte	W06
	.byte			As2
	.byte	W06
	.byte		N12	, Cn3
	.byte	W01
	.byte	BEND	, c_v+21
	.byte	W01
	.byte		c_v+42
	.byte	W01
	.byte		c_v+63
	.byte	W06
	.byte		c_v+62
	.byte	W01
	.byte		c_v+41
	.byte	W01
	.byte		c_v+20
	.byte	W01
	.byte		c_v
	.byte		N06	
	.byte	W06
	.byte			As2
	.byte	W06
	.byte			Cn3
	.byte	W06
	.byte			As2
	.byte	W06
	.byte	BEND	, c_v-64
	.byte		N24	, Gn3
	.byte	W01
	.byte	BEND	, c_v-43
	.byte	W01
	.byte		c_v-22
	.byte	W01
	.byte		c_v
	.byte	W21
	.byte		N06	, Fn3
	.byte	W06
	.byte			Gn3
	.byte	W06
	.byte			Fn3
	.byte	W06
	.byte			Gn3
	.byte	W06
	.byte			Fn3
	.byte	W06
	.byte			Ds3
	.byte	W06
	.byte		N12	, Cn3
	.byte	W01
	.byte	BEND	, c_v+21
	.byte	W01
	.byte		c_v+42
	.byte	W01
	.byte		c_v+63
	.byte	W06
	.byte		c_v+62
	.byte	W01
	.byte		c_v+41
	.byte	W01
	.byte		c_v+20
	.byte	W01
	.byte		c_v
	.byte		N06	
	.byte	W06
	.byte		N05	, As2
	.byte	W05
	.byte	BEND	, c_v-64
	.byte	W01
	.byte		TIE	, Gn3
	.byte	W01
	.byte	BEND	, c_v-54
	.byte	W01
	.byte		c_v-43
	.byte	W01
	.byte		c_v-33
	.byte	W01
	.byte		c_v-22
	.byte	W01
	.byte		c_v-11
	.byte	W01
	.byte		c_v
	.byte	W90
	.byte	W60
	.byte		EOT	
	.byte	BEND	, c_v
	.byte		N28	
	.byte	W01
	.byte	BEND	, c_v+21
	.byte	W01
	.byte		c_v+42
	.byte	W01
	.byte		c_v+63
	.byte	W18
	.byte		c_v+63
	.byte	W01
	.byte		c_v+42
	.byte	W01
	.byte		c_v+21
	.byte	W01
	.byte		c_v
	.byte	W05
	.byte		c_v-64
	.byte	W01
	.byte		N24	, Cn4
	.byte	W01
	.byte	BEND	, c_v-54
	.byte	W01
	.byte		c_v-44
	.byte	W01
	.byte		c_v-34
	.byte	W01
	.byte		c_v-23
	.byte	W01
	.byte		c_v-13
	.byte	W01
	.byte		c_v
	.byte	W18
	.byte		N06	, As3
	.byte	W06
	.byte		N12	, Gn3
	.byte	W12
	.byte		N06	, Fn3
	.byte	W06
	.byte			Gn3
	.byte	W06
	.byte		N12	, As3
	.byte	W06
	.byte	BEND	, c_v
	.byte	W01
	.byte		c_v+13
	.byte	W01
	.byte		c_v+27
	.byte	W01
	.byte		c_v+42
	.byte	W01
	.byte		c_v+28
	.byte	W01
	.byte		c_v
	.byte	W01
	.byte		N06	
	.byte	W06
	.byte			Gn3
	.byte	W06
	.byte		N12	, As3
	.byte	W06
	.byte	BEND	, c_v
	.byte	W01
	.byte		c_v+13
	.byte	W01
	.byte		c_v+27
	.byte	W01
	.byte		c_v+42
	.byte	W01
	.byte		c_v+28
	.byte	W01
	.byte		c_v
	.byte	W01
	.byte		N06	
	.byte	W06
	.byte			Gn3
	.byte	W06
	.byte		N12	, As3
	.byte	W06
	.byte	BEND	, c_v
	.byte	W01
	.byte		c_v+13
	.byte	W01
	.byte		c_v+27
	.byte	W01
	.byte		c_v+42
	.byte	W01
	.byte		c_v+28
	.byte	W01
	.byte		c_v
	.byte	W01
	.byte		N06	
	.byte	W06
	.byte			Gn3
	.byte	W06
	.byte		N12	, Fn3
	.byte	W03
	.byte	BEND	, c_v
	.byte	W01
	.byte		c_v-15
	.byte	W01
	.byte		c_v-30
	.byte	W01
	.byte		c_v-44
	.byte	W05
	.byte		c_v
	.byte	W01
	.byte		N06	, Cn3
	.byte	W06
	.byte			As2
	.byte	W06
	.byte		N12	, Ds3
	.byte	W03
	.byte	BEND	, c_v
	.byte	W01
	.byte		c_v-22
	.byte	W01
	.byte		c_v-43
	.byte	W01
	.byte		c_v-64
	.byte	W05
	.byte		c_v
	.byte	W01
	.byte		N06	, As2
	.byte	W06
	.byte			Gn2
	.byte	W06
	.byte		N12	, Cn3
	.byte	W03
	.byte	BEND	, c_v
	.byte	W01
	.byte		c_v-15
	.byte	W01
	.byte		c_v-30
	.byte	W01
	.byte		c_v-44
	.byte	W05
	.byte		c_v
	.byte	W01
	.byte		N06	, Gn2
	.byte	W06
	.byte			Ds2
	.byte	W06
	.byte	BEND	, c_v-48
	.byte		N36	, Dn3, v092
	.byte	W01
	.byte	BEND	, c_v-37
	.byte	W02
	.byte		c_v-25
	.byte	W01
	.byte		c_v-13
	.byte	W02
	.byte		c_v
	.byte	W30
	.byte		N36	, Ds3, v080
	.byte	W36
	.byte			Fn3, v084
	.byte	W24
	.byte	W12
	.byte			Bn2
	.byte	W36
	.byte		N24	, Cn3
	.byte	W24
	.byte			Cs3
	.byte	W24
	.byte	BEND	, c_v-48
	.byte		N36	, Dn3
	.byte	W01
	.byte	BEND	, c_v-37
	.byte	W02
	.byte		c_v-25
	.byte	W01
	.byte		c_v-13
	.byte	W02
	.byte		c_v
	.byte	W30
	.byte		N36	, Ds3
	.byte	W36
	.byte			Fn3
	.byte	W24
	.byte	W12
	.byte			Bn2, v088
	.byte	W36
	.byte		N24	, Cn3
	.byte	W24
	.byte			Cs3
	.byte	W24
	.byte	BEND	, c_v-48
	.byte		N36	, En3
	.byte	W01
	.byte	BEND	, c_v-37
	.byte	W02
	.byte		c_v-25
	.byte	W01
	.byte		c_v-13
	.byte	W02
	.byte		c_v
	.byte	W30
	.byte		N36	, Fn3
	.byte	W36
	.byte			Gn3
	.byte	W24
	.byte	W12
	.byte			Cs3
	.byte	W36
	.byte		N24	, Dn3, v092
	.byte	W24
	.byte			Ds3
	.byte	W24
	.byte	BEND	, c_v-48
	.byte		N36	, En3
	.byte	W01
	.byte	BEND	, c_v-37
	.byte	W02
	.byte		c_v-25
	.byte	W01
	.byte		c_v-13
	.byte	W02
	.byte		c_v
	.byte	W30
	.byte		N36	, Fn3
	.byte	W36
	.byte			Gn3
	.byte	W24
	.byte	W12
	.byte		N36	
	.byte	W36
	.byte		N24	, Fs3
	.byte	W24
	.byte			Gn3, v096
	.byte	W24
	.byte	BEND	, c_v-48
	.byte		TIE	, Gs3
	.byte	W01
	.byte	BEND	, c_v-37
	.byte	W02
	.byte		c_v-25
	.byte	W01
	.byte		c_v-13
	.byte	W02
	.byte		c_v
	.byte	W12
	.byte	VOL	, v081
	.byte	W01
	.byte		v080
	.byte	W01
	.byte		v079
	.byte	W01
	.byte		v077
	.byte	W01
	.byte		v077
	.byte	W02
	.byte		v075
	.byte	W01
	.byte		v074
	.byte	W01
	.byte		v073
	.byte	W01
	.byte		v072
	.byte	W02
	.byte		v071
	.byte	W01
	.byte		v070
	.byte	W01
	.byte		v069
	.byte	W01
	.byte		v067
	.byte	W02
	.byte		v066
	.byte	W01
	.byte		v066
	.byte	W01
	.byte		v064
	.byte	W01
	.byte		v063
	.byte	W02
	.byte		v062
	.byte	W01
	.byte		v062
	.byte	W01
	.byte		v060
	.byte	W01
	.byte		v059
	.byte	W01
	.byte		v059
	.byte	W02
	.byte		v058
	.byte	W01
	.byte		v056
	.byte	W01
	.byte		v055
	.byte	W01
	.byte		v055
	.byte	W02
	.byte		v054
	.byte	W01
	.byte		v052
	.byte	W01
	.byte		v051
	.byte	W01
	.byte		v051
	.byte	W02
	.byte		v050
	.byte	W01
	.byte		v049
	.byte	W01
	.byte		v048
	.byte	W01
	.byte		v047
	.byte	W02
	.byte		v046
	.byte	W01
	.byte		v045
	.byte	W01
	.byte		v044
	.byte	W01
	.byte		v044
	.byte	W01
	.byte		v043
	.byte	W02
	.byte		v042
	.byte	W01
	.byte		v041
	.byte	W01
	.byte		v040
	.byte	W01
	.byte		v040
	.byte	W02
	.byte		v039
	.byte	W01
	.byte		v038
	.byte	W01
	.byte		v037
	.byte	W01
	.byte		v037
	.byte	W02
	.byte		v036
	.byte	W01
	.byte		v035
	.byte	W01
	.byte		v034
	.byte	W01
	.byte		v033
	.byte	W02
	.byte		v033
	.byte	W01
	.byte		v032
	.byte	W01
	.byte		v031
	.byte	W01
	.byte		v030
	.byte	W01
	.byte		v029
	.byte	W02
	.byte		v029
	.byte	W01
	.byte		v028
	.byte	W01
	.byte		v027
	.byte	W03
	.byte		v026
	.byte	W01
	.byte		v025
	.byte	W01
	.byte		v025
	.byte	W01
	.byte		v024
	.byte	W01
	.byte	W01
	.byte		v023
	.byte	W02
	.byte		v022
	.byte	W01
	.byte		v022
	.byte	W02
	.byte		v021
	.byte	W02
	.byte		v020
	.byte	W01
	.byte		v019
	.byte	W01
	.byte		v018
	.byte	W03
	.byte		v018
	.byte	W01
	.byte		v017
	.byte	W03
	.byte		v016
	.byte	W01
	.byte		v015
	.byte	W02
	.byte		v014
	.byte	W02
	.byte		v014
	.byte	W02
	.byte		v013
	.byte	W01
	.byte		v012
	.byte	W03
	.byte		v011
	.byte	W02
	.byte		v011
	.byte	W03
	.byte		v010
	.byte	W02
	.byte		v009
	.byte	W03
	.byte		v008
	.byte	W02
	.byte		v007
	.byte	W03
	.byte		v007
	.byte	W02
	.byte		v006
	.byte	W03
	.byte		v005
	.byte	W03
	.byte		v004
	.byte	W04
	.byte		v003
	.byte	W04
	.byte		v003
	.byte	W03
	.byte		v002
	.byte	W04
	.byte		v001
	.byte	W06
	.byte		v000
	.byte	W08
	.byte		v000
	.byte	W16
	.byte		EOT	
	.byte	W96
	.byte	FINE

	@********************** Track  12 **********************@

	.global song0043_12
song0043_12:	@ 0x08C78215
	.byte	KEYSH	, 0
	.byte	VOICE	, 59
	.byte	VOL	, v098
	.byte	PAN	, c_v
	.byte	W03
	.byte	W96
	.byte	W96
	.byte	W96
	.byte	W96
	.byte	W96
	.byte	W96
	.byte	W96
	.byte	W96
	.byte	W96
	.byte	W96
	.byte	W96
	.byte	W96
	.byte		N03	, Ds3, v127
	.byte	W03
	.byte		N24	, En3
	.byte	W92
	.byte	W01
	.byte	W96
	.byte	W96
	.byte	W96
	.byte	W96
	.byte	W96
	.byte	W96
	.byte	W96
	.byte	W96
	.byte	W96
	.byte	W96
	.byte	W96
	.byte	W96
	.byte	W54
	.byte		N48	, Fn2, v080
	.byte	W42
	.byte	W96
	.byte	FINE

	@********************** Track  13 **********************@

	.global song0043_13
song0043_13:	@ 0x08C78245
	.byte	KEYSH	, 0
	.byte	VOICE	, 83
	.byte	VOL	, v086
	.byte	PAN	, c_v
	.byte	W03
	.byte	W96
	.byte	W96
	.byte	W96
	.byte	W96
	.byte	W96
	.byte	W96
	.byte	W96
	.byte	W96
	.byte	W96
	.byte	W96
	.byte	W96
	.byte	W96
	.byte	W96
	.byte	W96
	.byte	W96
	.byte	W96
	.byte	W96
	.byte	W96
	.byte	W96
	.byte	W96
	.byte	W96
	.byte	W96
	.byte	W96
	.byte	W96
	.byte	W96
	.byte	W54
	.byte		N48	, An2, v100
	.byte	W42
	.byte	W96
	.byte	FINE

	.align 2
	.global song0043
song0043:	@ 0x08C78270
	.byte	13		@ trackCount
	.byte	0		@ blockCount
	.byte	0		@ priority
	.byte	128		@ reverb

	.word	voicegroup022		@ voicegroup/tone

	.word	song0043_1		@ track
	.word	song0043_2		@ track
	.word	song0043_3		@ track
	.word	song0043_4		@ track
	.word	song0043_5		@ track
	.word	song0043_6		@ track
	.word	song0043_7		@ track
	.word	song0043_8		@ track
	.word	song0043_9		@ track
	.word	song0043_10		@ track
	.word	song0043_11		@ track
	.word	song0043_12		@ track
	.word	song0043_13		@ track
