	.include "MPlayDef.s"

	.section .rodata

	@********************** Track  1 **********************@

	.align 2
	.global song0020_1
song0020_1:	@ 0x08C5F94C
	.byte	KEYSH	, 0
song0020_1_1:
	.byte	TEMPO	, 100
	.byte	VOICE	, 79
	.byte	VOL	, v086
	.byte	LFOS	, 26
	.byte	MODT	, 1
	.byte	LFODL	, 28
	.byte	W96
	.byte	W96
	.byte	W96
	.byte	W96
	.byte	W96
	.byte	W96
	.byte	VOICE	, 79
	.byte	VOL	, v086
	.byte	LFOS	, 26
	.byte	MODT	, 1
	.byte	LFODL	, 28
	.byte	W96
	.byte	MOD	, 54
	.byte	W60
	.byte	W03
	.byte	VOL	, v012
	.byte	W01
	.byte		v013
	.byte	W01
	.byte		v019
	.byte	W01
	.byte		v021
	.byte	W01
	.byte		v023
	.byte	W01
	.byte		v027
	.byte	W01
	.byte		v032
	.byte	W02
	.byte		v050
	.byte	W01
	.byte		v055
	.byte	W01
	.byte		v068
	.byte		N24	, Fs2, v092
	.byte	W01
	.byte	VOL	, v075
	.byte	W01
	.byte		v077
	.byte	W01
	.byte		v084
	.byte	W01
	.byte		v086
	.byte	W02
	.byte		v090
	.byte	W01
	.byte		v090
	.byte	W02
	.byte		v090
	.byte	W05
	.byte		v092
	.byte	W02
	.byte		v094
	.byte	W02
	.byte		v096
	.byte	W01
	.byte		v097
	.byte	W03
	.byte		v100
	.byte	W01
	.byte	W01
	.byte		v103
	.byte	W01
	.byte		v107
	.byte	W01
	.byte		N32	, Fs3
	.byte	W01
	.byte	VOL	, v110
	.byte	W36
	.byte		N04	, Dn3, v072
	.byte	W04
	.byte		N88	, Ds3, v076
	.byte	W40
	.byte	VOL	, v110
	.byte	W01
	.byte		v108
	.byte	W01
	.byte		v106
	.byte	W01
	.byte		v104
	.byte	W02
	.byte		v103
	.byte	W02
	.byte		v101
	.byte	W01
	.byte		v099
	.byte	W01
	.byte		v097
	.byte	W01
	.byte		v097
	.byte	W01
	.byte		v095
	.byte	W01
	.byte	W01
	.byte		v091
	.byte	W01
	.byte		v090
	.byte	W01
	.byte		v089
	.byte	W01
	.byte		v087
	.byte	W01
	.byte		v085
	.byte	W01
	.byte		v084
	.byte	W01
	.byte		v082
	.byte	W02
	.byte		v078
	.byte	W01
	.byte		v077
	.byte	W01
	.byte		v076
	.byte	W02
	.byte		v073
	.byte	W01
	.byte		v071
	.byte	W03
	.byte		v067
	.byte	W01
	.byte		v065
	.byte	W01
	.byte		v064
	.byte	W01
	.byte		v062
	.byte	W02
	.byte		v058
	.byte	W01
	.byte		v056
	.byte	W02
	.byte		v051
	.byte	W01
	.byte		v051
	.byte	W01
	.byte		v045
	.byte	W01
	.byte		v040
	.byte	W01
	.byte		v038
	.byte	W01
	.byte		v025
	.byte	W01
	.byte		v014
	.byte	W02
	.byte		v000
	.byte	W08
	.byte		v022
	.byte	W01
	.byte		v024
	.byte	W01
	.byte		v026
	.byte	W01
	.byte		v032
	.byte	W01
	.byte		v033
	.byte	W01
	.byte		v045
	.byte	W01
	.byte		v056
	.byte	W02
	.byte		v081
	.byte	W01
	.byte		v092
	.byte	W01
	.byte		v105
	.byte		N22	, Bn2, v096
	.byte	W01
	.byte	VOL	, v110
	.byte	W22
	.byte		N23	, As2, v088
	.byte	W22
	.byte	W02
	.byte		TIE	, Gs2, v076
	.byte	W80
	.byte	W01
	.byte	VOL	, v108
	.byte	W01
	.byte		v106
	.byte	W02
	.byte		v104
	.byte	W01
	.byte		v103
	.byte	W01
	.byte		v102
	.byte	W03
	.byte		v097
	.byte	W01
	.byte		v097
	.byte	W02
	.byte		v092
	.byte	W01
	.byte		v090
	.byte	W01
	.byte		v090
	.byte	W01
	.byte		v088
	.byte	W02
	.byte		v086
	.byte	W03
	.byte		v084
	.byte	W02
	.byte		v084
	.byte	W03
	.byte		v082
	.byte	W01
	.byte		v080
	.byte	W01
	.byte		v078
	.byte	W01
	.byte		v077
	.byte	W01
	.byte		v074
	.byte	W01
	.byte		v072
	.byte	W01
	.byte		v071
	.byte	W02
	.byte		v069
	.byte	W01
	.byte		v067
	.byte	W02
	.byte		v064
	.byte	W01
	.byte		v063
	.byte	W02
	.byte		v059
	.byte	W02
	.byte		v058
	.byte	W01
	.byte		v057
	.byte	W02
	.byte		v055
	.byte	W03
	.byte		v053
	.byte	W02
	.byte		v051
	.byte	W01
	.byte		v051
	.byte	W02
	.byte		v042
	.byte	W01
	.byte		v038
	.byte	W01
	.byte		v025
	.byte	W01
	.byte		v010
	.byte	W02
	.byte		v000
	.byte	W05
	.byte		EOT	
	.byte	W19
	.byte	VOL	, v019
	.byte	W01
	.byte		v033
	.byte	W01
	.byte		v049
	.byte	W01
	.byte		v062
	.byte	W01
	.byte		v074
	.byte	W01
	.byte		v090
	.byte		N22	, Fs2, v088
	.byte	W01
	.byte	VOL	, v097
	.byte	W02
	.byte		v107
	.byte	W01
	.byte		v110
	.byte	W07
	.byte		v109
	.byte	W03
	.byte		v107
	.byte	W01
	.byte		v105
	.byte	W01
	.byte		v103
	.byte	W01
	.byte		v101
	.byte	W01
	.byte		v099
	.byte	W01
	.byte		v097
	.byte	W01
	.byte		v097
	.byte	W02
	.byte		v097
	.byte	W01
	.byte		v102
	.byte	W01
	.byte		v110
	.byte	W01
	.byte		N36	, Fs3, v092
	.byte	W36
	.byte	W01
	.byte		N04	, Dn3, v068
	.byte	W05
	.byte		N88	, Ds3, v064
	.byte	W52
	.byte	W01
	.byte	W20
	.byte	VOL	, v109
	.byte	W02
	.byte		v106
	.byte	W02
	.byte		v103
	.byte	W01
	.byte		v101
	.byte	W02
	.byte		v090
	.byte	W01
	.byte		v082
	.byte	W01
	.byte		v069
	.byte	W01
	.byte		v051
	.byte	W01
	.byte		v039
	.byte	W01
	.byte		v011
	.byte	W01
	.byte		v000
	.byte	W15
	.byte		v037
	.byte	W01
	.byte		v055
	.byte	W01
	.byte		N24	, Bn2, v100
	.byte	W01
	.byte	VOL	, v091
	.byte	W01
	.byte		v106
	.byte	W01
	.byte		v110
	.byte	W23
	.byte		N21	, As2, v076
	.byte	W20
	.byte	W02
	.byte		TIE	, An2, v068
	.byte	W92
	.byte	W02
	.byte	W09
	.byte	VOL	, v108
	.byte	W01
	.byte		v106
	.byte	W01
	.byte		v104
	.byte	W01
	.byte		v103
	.byte	W02
	.byte		v099
	.byte	W02
	.byte		v097
	.byte	W01
	.byte		v097
	.byte	W02
	.byte		v095
	.byte	W01
	.byte		v093
	.byte	W01
	.byte		v091
	.byte	W01
	.byte		v087
	.byte	W01
	.byte		v084
	.byte	W01
	.byte		v075
	.byte	W01
	.byte		v064
	.byte	W01
	.byte		v058
	.byte	W01
	.byte		v034
	.byte	W01
	.byte		v017
	.byte	W02
	.byte		v000
	.byte	W04
	.byte		EOT	
	.byte	W12
	.byte	VOL	, v025
	.byte	W01
	.byte		v033
	.byte	W01
	.byte		v056
	.byte	W01
	.byte		v071
	.byte	W01
	.byte		v078
	.byte		N14	, Bn2, v092
	.byte	W01
	.byte	VOL	, v102
	.byte	W01
	.byte		v110
	.byte	W22
	.byte		N14	, Cn3
	.byte	W22
	.byte	W02
	.byte		N32	, Cs3, v088
	.byte	W36
	.byte	W03
	.byte		N88	, Fs2, v060
	.byte	W24
	.byte	VOL	, v108
	.byte	W01
	.byte		v106
	.byte	W04
	.byte		v104
	.byte	W04
	.byte		v106
	.byte	W04
	.byte		v108
	.byte	W05
	.byte		v110
	.byte	W06
	.byte		v108
	.byte	W01
	.byte		v106
	.byte	W01
	.byte		v104
	.byte	W01
	.byte		v101
	.byte	W01
	.byte		v099
	.byte	W01
	.byte		v097
	.byte	W01
	.byte		v097
	.byte	W01
	.byte	W01
	.byte		v095
	.byte	W08
	.byte		v093
	.byte	W01
	.byte		v091
	.byte	W04
	.byte		v089
	.byte	W02
	.byte		v087
	.byte	W01
	.byte		v085
	.byte	W01
	.byte		v084
	.byte	W02
	.byte		v079
	.byte	W02
	.byte		v073
	.byte	W01
	.byte		v066
	.byte	W01
	.byte		v061
	.byte	W01
	.byte		v042
	.byte	W01
	.byte		v025
	.byte	W01
	.byte		v018
	.byte	W01
	.byte		v000
	.byte	W18
	.byte		v045
	.byte	W01
	.byte		v071
	.byte	W01
	.byte		v085
	.byte	W01
	.byte		v110
	.byte		N22	, Fs3, v088
	.byte	W24
	.byte	W01
	.byte		N19	, Fn3, v080
	.byte	W22
	.byte	W03
	.byte		N32	, En3, v084
	.byte	W36
	.byte		TIE	, Gs2, v068
	.byte	W16
	.byte	VOL	, v104
	.byte	W01
	.byte		v103
	.byte	W01
	.byte		v102
	.byte	W02
	.byte		v100
	.byte	W05
	.byte		v098
	.byte	W03
	.byte		v097
	.byte	W07
	.byte		v096
	.byte	W02
	.byte		v093
	.byte	W01
	.byte		v091
	.byte	W02
	.byte		v090
	.byte	W03
	.byte		v089
	.byte	W02
	.byte		v087
	.byte	W03
	.byte		v085
	.byte	W04
	.byte		v084
	.byte	W05
	.byte	W02
	.byte		v084
	.byte	W02
	.byte		v083
	.byte	W04
	.byte		v081
	.byte	W04
	.byte		v083
	.byte	W01
	.byte		v081
	.byte	W02
	.byte		v078
	.byte	W01
	.byte		v077
	.byte	W02
	.byte		v074
	.byte	W03
	.byte		v072
	.byte	W02
	.byte		v071
	.byte	W03
	.byte		v070
	.byte	W03
	.byte		v068
	.byte	W02
	.byte		v070
	.byte	W03
	.byte		v071
	.byte	W03
	.byte		v068
	.byte	W01
	.byte		v066
	.byte	W02
	.byte		v064
	.byte	W02
	.byte		v063
	.byte	W01
	.byte		v061
	.byte	W02
	.byte		v045
	.byte	W01
	.byte		v032
	.byte	W01
	.byte		v012
	.byte	W01
	.byte		v000
	.byte	W19
	.byte		EOT	
	.byte	W06
	.byte		N20	, As2, v100
	.byte	W01
	.byte	VOL	, v025
	.byte	W01
	.byte		v042
	.byte	W01
	.byte		v051
	.byte	W01
	.byte		v074
	.byte	W01
	.byte		v088
	.byte	W01
	.byte		v094
	.byte	W01
	.byte		v110
	.byte	W13
	.byte		v108
	.byte	W03
	.byte		v110
	.byte	W02
	.byte		N78	, Bn2, v076
	.byte	W80
	.byte	W02
	.byte	VOL	, v108
	.byte	W04
	.byte		v106
	.byte	W01
	.byte		v108
	.byte	W03
	.byte		v110
	.byte	W02
	.byte		N19	, Gs2, v084
	.byte	W01
	.byte	VOL	, v108
	.byte	W01
	.byte	W03
	.byte		v110
	.byte	W12
	.byte		N12	, Bn2, v064
	.byte	W09
	.byte		N15	, Gs2, v076
	.byte	W14
	.byte		N13	, Fs2
	.byte	W15
	.byte	VOL	, v108
	.byte	W01
	.byte		v106
	.byte	W01
	.byte		v104
	.byte	W02
	.byte		v100
	.byte	W02
	.byte		v098
	.byte	W03
	.byte		v100
	.byte		N10	, Fs2, v060
	.byte	W01
	.byte	VOL	, v102
	.byte	W02
	.byte		v104
	.byte	W01
	.byte		v103
	.byte	W01
	.byte		v104
	.byte	W03
	.byte		v107
	.byte	W03
	.byte		v105
	.byte		N20	, En2, v036
	.byte	W01
	.byte	VOL	, v103
	.byte	W01
	.byte		v103
	.byte	W01
	.byte		v101
	.byte	W02
	.byte		v097
	.byte	W01
	.byte		v094
	.byte	W02
	.byte		v090
	.byte	W01
	.byte		v088
	.byte	W02
	.byte		v086
	.byte	W02
	.byte		v083
	.byte	W01
	.byte		v080
	.byte	W02
	.byte		v078
	.byte	W07
	.byte	W01
	.byte		v077
	.byte	W01
	.byte		v076
	.byte	W01
	.byte		v074
	.byte	W01
	.byte		v072
	.byte	W01
	.byte		v071
	.byte	W01
	.byte		v070
	.byte	W01
	.byte		v067
	.byte	W01
	.byte		v065
	.byte	W01
	.byte		v058
	.byte	W01
	.byte		v051
	.byte	W02
	.byte		v019
	.byte	W01
	.byte		v012
	.byte	W01
	.byte		v000
	.byte	W22
	.byte		N10	, Cs2, v072
	.byte	W10
	.byte	VOL	, v018
	.byte	W01
	.byte		v029
	.byte	W01
	.byte		v034
	.byte		N10	, En2, v064
	.byte	W01
	.byte	VOL	, v053
	.byte	W01
	.byte		v060
	.byte	W02
	.byte		v071
	.byte	W01
	.byte		v076
	.byte	W01
	.byte		v078
	.byte	W01
	.byte		v080
	.byte	W02
	.byte		v082
	.byte	W03
	.byte		v080
	.byte	W01
	.byte		v078
	.byte	W01
	.byte		N10	, Gs2, v060
	.byte	W01
	.byte	VOL	, v077
	.byte	W02
	.byte		v074
	.byte	W03
	.byte		v072
	.byte	W02
	.byte		v074
	.byte	W01
	.byte		v076
	.byte	W01
	.byte		v079
	.byte	W01
	.byte		v084
	.byte		N11	, Bn2, v072
	.byte	W01
	.byte	VOL	, v085
	.byte	W02
	.byte		v090
	.byte	W03
	.byte		v090
	.byte	W02
	.byte		v092
	.byte	W01
	.byte		v094
	.byte	W04
	.byte		N10	, Ds3, v076
	.byte	W04
	.byte	VOL	, v103
	.byte	W01
	.byte		v105
	.byte	W01
	.byte		v110
	.byte	W04
	.byte	W02
	.byte		N42	, Fs3, v104
	.byte	W48
	.byte		N17	, Fs3, v088
	.byte	W21
	.byte		N10	, Fs3, v100
	.byte	W14
	.byte		N16	, Fs3, v088
	.byte	W11
	.byte	W02
	.byte		N18	, Ds3, v076
	.byte	W17
	.byte	VOL	, v108
	.byte	W02
	.byte		v106
	.byte	W02
	.byte		N13	, Fs3, v056
	.byte	W02
	.byte	VOL	, v108
	.byte	W01
	.byte		v110
	.byte	W10
	.byte		N08	, Ds3, v052
	.byte	W05
	.byte	VOL	, v109
	.byte	W01
	.byte		v104
	.byte	W01
	.byte		v103
	.byte	W01
	.byte		v102
	.byte	W01
	.byte		v098
	.byte	W01
	.byte		v097
	.byte	W01
	.byte		v093
	.byte	W01
	.byte		v090
	.byte	W02
	.byte		v084
	.byte	W01
	.byte		v082
	.byte	W01
	.byte		v078
	.byte	W01
	.byte		v072
	.byte	W01
	.byte		v069
	.byte	W01
	.byte		v067
	.byte	W01
	.byte		v059
	.byte	W01
	.byte		v058
	.byte	W01
	.byte		v054
	.byte	W01
	.byte		v045
	.byte	W01
	.byte		v043
	.byte	W01
	.byte		v032
	.byte	W01
	.byte		v025
	.byte	W01
	.byte		v019
	.byte	W01
	.byte		v009
	.byte	W01
	.byte		v006
	.byte	W01
	.byte		v000
	.byte	W30
	.byte	W96
	.byte	W96
	.byte	W64
	.byte	W01
	.byte		v012
	.byte	W01
	.byte		v016
	.byte	W01
	.byte		v027
	.byte	W01
	.byte		v036
	.byte	W01
	.byte		v040
	.byte	W01
	.byte		v058
	.byte	W01
	.byte		v067
	.byte	W01
	.byte		N20	, Fs2, v088
	.byte	W01
	.byte	VOL	, v081
	.byte	W01
	.byte		v087
	.byte	W01
	.byte		v091
	.byte	W01
	.byte		v095
	.byte	W01
	.byte		v097
	.byte	W01
	.byte		v099
	.byte	W01
	.byte		v101
	.byte	W03
	.byte		v103
	.byte	W02
	.byte		v104
	.byte	W02
	.byte		v105
	.byte	W03
	.byte		v107
	.byte	W05
	.byte		v110
	.byte	W02
	.byte	W01
	.byte		N32	, Fs3
	.byte	W36
	.byte	W01
	.byte		N02	, Dn3, v052
	.byte	W03
	.byte		N90	, Ds3, v072
	.byte	W54
	.byte	W01
	.byte	W09
	.byte	VOL	, v109
	.byte	W01
	.byte		v107
	.byte	W01
	.byte		v104
	.byte	W02
	.byte		v103
	.byte	W01
	.byte		v098
	.byte	W01
	.byte		v097
	.byte	W02
	.byte		v094
	.byte	W02
	.byte		v091
	.byte	W01
	.byte		v090
	.byte	W02
	.byte		v087
	.byte	W01
	.byte		v085
	.byte	W02
	.byte		v084
	.byte	W01
	.byte		v081
	.byte	W02
	.byte		v079
	.byte	W01
	.byte		v077
	.byte	W01
	.byte		v075
	.byte	W01
	.byte		v073
	.byte	W01
	.byte		v071
	.byte	W01
	.byte		v067
	.byte	W01
	.byte		v061
	.byte	W01
	.byte		v055
	.byte	W01
	.byte		v049
	.byte	W01
	.byte		v045
	.byte	W01
	.byte		v032
	.byte	W01
	.byte		v025
	.byte	W02
	.byte		v017
	.byte	W01
	.byte		v015
	.byte	W02
	.byte		v017
	.byte	W02
	.byte		v025
	.byte	W01
	.byte		v031
	.byte	W02
	.byte		v053
	.byte		N24	, Bn2, v088
	.byte	W01
	.byte	VOL	, v069
	.byte	W01
	.byte		v084
	.byte	W01
	.byte		v098
	.byte	W01
	.byte		v110
	.byte	W20
	.byte		N24	, As2, v072
	.byte	W23
	.byte	W02
	.byte		TIE	, Gs2, v052
	.byte	W84
	.byte	VOL	, v109
	.byte	W01
	.byte		v107
	.byte	W06
	.byte		v105
	.byte	W03
	.byte	W01
	.byte		v102
	.byte	W08
	.byte		v100
	.byte	W01
	.byte		v098
	.byte	W01
	.byte		v097
	.byte	W01
	.byte		v095
	.byte	W02
	.byte		v090
	.byte	W01
	.byte		v089
	.byte	W02
	.byte		v084
	.byte	W01
	.byte		v080
	.byte	W01
	.byte		v077
	.byte	W01
	.byte		v077
	.byte	W01
	.byte		v074
	.byte	W01
	.byte		v069
	.byte	W01
	.byte		v066
	.byte	W02
	.byte		v063
	.byte	W01
	.byte		v061
	.byte	W02
	.byte		v059
	.byte	W02
	.byte		v058
	.byte	W01
	.byte		v057
	.byte	W02
	.byte		v050
	.byte	W01
	.byte		v046
	.byte	W01
	.byte		v038
	.byte	W01
	.byte		v030
	.byte	W01
	.byte		v025
	.byte	W01
	.byte		v012
	.byte	W01
	.byte		v006
	.byte	W02
	.byte		v000
	.byte	W10
	.byte		EOT	
	.byte	W19
	.byte	VOL	, v024
	.byte	W01
	.byte		v035
	.byte		N23	, Fs2, v080
	.byte	W02
	.byte	VOL	, v058
	.byte	W01
	.byte		v070
	.byte	W01
	.byte		v084
	.byte	W01
	.byte		v092
	.byte	W02
	.byte		v103
	.byte	W01
	.byte		v105
	.byte	W01
	.byte		v108
	.byte	W01
	.byte		v110
	.byte	W03
	.byte		v109
	.byte	W06
	.byte		v110
	.byte	W06
	.byte	W01
	.byte		N32	, Fs3, v076
	.byte	W36
	.byte		N92	, Ds3, v068
	.byte	W56
	.byte	W03
	.byte	W05
	.byte	VOL	, v109
	.byte	W01
	.byte		v107
	.byte	W02
	.byte		v109
	.byte	W01
	.byte		v110
	.byte	W05
	.byte		v109
	.byte	W02
	.byte		v104
	.byte	W02
	.byte		v103
	.byte	W01
	.byte		v102
	.byte	W01
	.byte		v100
	.byte	W02
	.byte		v097
	.byte	W02
	.byte		v094
	.byte	W01
	.byte		v091
	.byte	W02
	.byte		v085
	.byte	W01
	.byte		v084
	.byte	W01
	.byte		v075
	.byte	W01
	.byte		v069
	.byte	W01
	.byte		v066
	.byte	W01
	.byte		v056
	.byte	W01
	.byte		v050
	.byte	W02
	.byte		v038
	.byte	W01
	.byte		v034
	.byte	W01
	.byte		v030
	.byte	W01
	.byte		v025
	.byte	W01
	.byte		v024
	.byte	W04
	.byte		v025
	.byte	W01
	.byte		v026
	.byte	W01
	.byte		v029
	.byte	W01
	.byte		v031
	.byte	W01
	.byte		v032
	.byte	W01
	.byte		v034
	.byte	W01
	.byte		v038
	.byte		N01	, As2
	.byte	W01
	.byte		N24	, Bn2, v084
	.byte	W01
	.byte	VOL	, v050
	.byte	W01
	.byte		v059
	.byte	W01
	.byte		v070
	.byte	W01
	.byte		v085
	.byte	W01
	.byte		v095
	.byte	W01
	.byte		v103
	.byte	W01
	.byte		v110
	.byte	W19
	.byte		N21	, As2, v076
	.byte	W20
	.byte	W02
	.byte		TIE	, An2, v056
	.byte	W56
	.byte	W03
	.byte	VOL	, v106
	.byte	W01
	.byte		v104
	.byte	W08
	.byte		v103
	.byte	W02
	.byte		v101
	.byte	W01
	.byte		v098
	.byte	W01
	.byte		v097
	.byte	W01
	.byte		v094
	.byte	W07
	.byte		v090
	.byte	W01
	.byte		v087
	.byte	W01
	.byte		v085
	.byte	W01
	.byte		v078
	.byte	W01
	.byte		v077
	.byte	W05
	.byte		v076
	.byte	W02
	.byte		v072
	.byte	W01
	.byte		v071
	.byte	W01
	.byte		v070
	.byte	W01
	.byte		v067
	.byte	W01
	.byte		v065
	.byte	W02
	.byte		v067
	.byte	W02
	.byte		v069
	.byte	W03
	.byte		v067
	.byte	W02
	.byte		v064
	.byte	W02
	.byte		v063
	.byte	W01
	.byte		v061
	.byte	W01
	.byte		v059
	.byte	W01
	.byte		v058
	.byte	W01
	.byte		v057
	.byte	W02
	.byte		v051
	.byte	W01
	.byte		v045
	.byte	W01
	.byte		v043
	.byte	W01
	.byte		v027
	.byte	W01
	.byte		v023
	.byte	W01
	.byte		v010
	.byte	W01
	.byte		v000
	.byte	W23
	.byte		EOT	
	.byte	W22
	.byte	VOL	, v017
	.byte	W01
	.byte		v022
	.byte	W01
	.byte		v038
	.byte	W01
	.byte		v056
	.byte	W02
	.byte		v081
	.byte		N13	, Bn2, v088
	.byte	W01
	.byte	VOL	, v096
	.byte	W01
	.byte		v101
	.byte	W01
	.byte		v110
	.byte	W11
	.byte		N10	, Cn3, v068
	.byte	W08
	.byte	W03
	.byte		N66	, Cs3, v084
	.byte	W68
	.byte		N24	, Gs2, v064
	.byte	W18
	.byte	VOL	, v109
	.byte	W01
	.byte		v104
	.byte	W02
	.byte		v101
	.byte	W01
	.byte		v098
	.byte	W02
	.byte		v097
	.byte	W01
	.byte		v094
	.byte	W01
	.byte		v091
	.byte	W01
	.byte		v090
	.byte		N24	, Gn2, v076
	.byte	W01
	.byte	VOL	, v089
	.byte	W01
	.byte		v085
	.byte	W03
	.byte		v084
	.byte	W05
	.byte		v083
	.byte	W01
	.byte		v081
	.byte	W02
	.byte		v079
	.byte	W05
	.byte		v081
	.byte	W01
	.byte		v084
	.byte	W02
	.byte		v094
	.byte	W01
	.byte		v102
	.byte	W01
	.byte		v110
	.byte	W02
	.byte		N23	, En3, v052
	.byte	W24
	.byte		N24	, Ds3, v068
	.byte	W24
	.byte	W01
	.byte		N17	, Cs3, v080
	.byte	W20
	.byte	W02
	.byte		N48	, Cs3, v096
	.byte	W48
	.byte		N21	, Bn2, v072
	.byte	W22
	.byte		N11	, As2, v064
	.byte	W12
	.byte		N66	, Bn2, v056
	.byte	W12
	.byte	W28
	.byte	VOL	, v108
	.byte	W02
	.byte		v103
	.byte	W01
	.byte		v101
	.byte	W02
	.byte		v099
	.byte	W01
	.byte		v097
	.byte	W01
	.byte		v096
	.byte	W03
	.byte		v093
	.byte	W01
	.byte		v089
	.byte	W01
	.byte		v087
	.byte	W01
	.byte		v083
	.byte	W01
	.byte		v078
	.byte	W01
	.byte		v074
	.byte	W01
	.byte		v062
	.byte	W02
	.byte		v033
	.byte	W01
	.byte		v014
	.byte	W02
	.byte		v000
	.byte	W21
	.byte		v032
	.byte	W01
	.byte		v049
	.byte	W01
	.byte		v058
	.byte		N15	, Gs2, v064
	.byte	W01
	.byte	VOL	, v080
	.byte	W01
	.byte		v086
	.byte	W01
	.byte		v106
	.byte	W01
	.byte		v110
	.byte	W10
	.byte		v107
	.byte	W01
	.byte		v104
	.byte		N09	, As2
	.byte	W02
	.byte	VOL	, v109
	.byte	W02
	.byte		v110
	.byte	W05
	.byte	W01
	.byte		N36	, Bn2, v088
	.byte	W40
	.byte		N32	, En2
	.byte	W21
	.byte	VOL	, v108
	.byte	W04
	.byte		v106
	.byte	W06
	.byte		v108
	.byte	W01
	.byte		N21	, Gs2, v084
	.byte	W01
	.byte	VOL	, v110
	.byte	W21
	.byte		N36	, Fs2, v080
	.byte	W01
	.byte	W14
	.byte	VOL	, v109
	.byte	W02
	.byte		v107
	.byte	W01
	.byte		v105
	.byte	W03
	.byte		v103
	.byte	W10
	.byte		v103
	.byte	W04
	.byte		v101
	.byte	W01
	.byte		v099
	.byte	W04
	.byte		N44	, An1, v084
	.byte	W07
	.byte	VOL	, v097
	.byte	W01
	.byte		v097
	.byte	W01
	.byte		v095
	.byte	W01
	.byte		v093
	.byte	W02
	.byte		v090
	.byte	W01
	.byte		v089
	.byte	W01
	.byte		v087
	.byte	W03
	.byte		v085
	.byte	W01
	.byte		v084
	.byte	W02
	.byte		v081
	.byte	W02
	.byte		v079
	.byte	W01
	.byte		v077
	.byte	W02
	.byte		v077
	.byte	W06
	.byte		v075
	.byte	W14
	.byte		v073
	.byte	W04
	.byte		v071
	.byte	W05
	.byte		v071
	.byte	W01
	.byte		v069
	.byte	W02
	.byte	W01
	.byte		v067
	.byte	W02
	.byte		v064
	.byte	W01
	.byte		v063
	.byte	W01
	.byte		v061
	.byte	W01
	.byte		v059
	.byte	W01
	.byte		v056
	.byte	W01
	.byte		v043
	.byte	W01
	.byte		v029
	.byte	W02
	.byte		v000
	.byte	W32
	.byte		v019
	.byte	W01
	.byte		v033
	.byte	W01
	.byte		v039
	.byte	W01
	.byte		v059
	.byte	W01
	.byte		v064
	.byte	W01
	.byte		v072
	.byte	W01
	.byte		v077
	.byte	W01
	.byte		v079
	.byte		N12	, An2, v072
	.byte	W01
	.byte	VOL	, v084
	.byte	W01
	.byte		v086
	.byte	W01
	.byte		v089
	.byte	W01
	.byte		v090
	.byte	W03
	.byte		v090
	.byte	W02
	.byte		v085
	.byte	W01
	.byte		v084
	.byte	W01
	.byte		v083
	.byte	W01
	.byte		v081
	.byte	W02
	.byte		N10	, Bn2
	.byte	W06
	.byte	VOL	, v087
	.byte	W01
	.byte		v089
	.byte	W01
	.byte		v097
	.byte	W01
	.byte		v103
	.byte	W01
	.byte		v104
	.byte	W01
	.byte		v110
	.byte		N10	, Dn3, v064
	.byte	W11
	.byte		N09	, En3, v044
	.byte	W10
	.byte	W03
	.byte		N11	, Fn3, v056
	.byte	W11
	.byte		N18	, Fs3, v088
	.byte	W19
	.byte		N10	, En3, v056
	.byte	W11
	.byte			Dn3, v072
	.byte	W14
	.byte			An2, v048
	.byte	W05
	.byte	VOL	, v106
	.byte	W01
	.byte		v104
	.byte	W03
	.byte		v103
	.byte	W02
	.byte		v100
	.byte	W03
	.byte		v102
	.byte		N08	, Gn2, v096
	.byte	W06
	.byte	VOL	, v100
	.byte	W01
	.byte		v098
	.byte	W01
	.byte		v097
	.byte	W01
	.byte		v091
	.byte	W01
	.byte		N11	, Fn2, v072
	.byte	W01
	.byte	VOL	, v087
	.byte	W01
	.byte		v083
	.byte	W02
	.byte		v078
	.byte	W03
	.byte		v077
	.byte	W05
	.byte		v083
	.byte	W01
	.byte		v084
	.byte	W01
	.byte		v087
	.byte		N11	, Fs2, v068
	.byte	W03
	.byte	VOL	, v089
	.byte	W03
	.byte		v091
	.byte	W01
	.byte		v094
	.byte	W02
	.byte		v096
	.byte	W05
	.byte		v092
	.byte	W01
	.byte		N72	, Fs2, v080
	.byte	W07
	.byte	VOL	, v094
	.byte	W03
	.byte		v092
	.byte	W02
	.byte		v090
	.byte	W01
	.byte		v089
	.byte	W02
	.byte		v084
	.byte	W02
	.byte		v080
	.byte	W01
	.byte		v077
	.byte	W02
	.byte		v075
	.byte	W01
	.byte		v073
	.byte	W01
	.byte		v071
	.byte	W01
	.byte		v071
	.byte	W02
	.byte		v066
	.byte	W01
	.byte		v064
	.byte	W01
	.byte		v062
	.byte	W01
	.byte		v058
	.byte	W01
	.byte		v054
	.byte	W02
	.byte		v048
	.byte	W02
	.byte		v046
	.byte	W01
	.byte		v042
	.byte	W01
	.byte		v039
	.byte	W01
	.byte		v032
	.byte	W01
	.byte		v025
	.byte	W02
	.byte		v016
	.byte	W01
	.byte		v014
	.byte	W01
	.byte		v011
	.byte	W01
	.byte		v006
	.byte	W01
	.byte		v003
	.byte	W01
	.byte		v000
	.byte	W36
	.byte	W01
	.byte	W96
	.byte	W96
	.byte	W96
	.byte	W96
	.byte	W96
	.byte	W96
	.byte	W96
	.byte	W96
	.byte	W96
	.byte	VOICE	, 84
	.byte	VOL	, v110
	.byte	LFOS	, 26
	.byte	MODT	, 1
	.byte	LFODL	, 28
	.byte	W96
	.byte	W64
	.byte		N08	, Ds4, v127
	.byte	W10
	.byte			En4, v092
	.byte	W10
	.byte		N09	, Gn4, v080
	.byte	W07
	.byte		N05	, An4, v092
	.byte	W05
	.byte	W02
	.byte		N10	, En4, v127
	.byte		N11	, Cn5, v124
	.byte	W36
	.byte	W02
	.byte		N09	, As4, v127
	.byte	W08
	.byte		N13	, Gn4, v100
	.byte	W36
	.byte	W02
	.byte		N12	, Fs4, v127
	.byte		N12	, Cn5, v116
	.byte	W10
	.byte	W01
	.byte		N09	, Fn4, v096
	.byte	W15
	.byte			Ds4, v112
	.byte	W09
	.byte		N14	, Cn4, v080
	.byte	W24
	.byte	W03
	.byte		N12	, Fn4, v127
	.byte	W13
	.byte		N11	, Ds4, v104
	.byte	W09
	.byte		N09	, Cn4, v080
	.byte	W13
	.byte			As3, v104
	.byte	W09
	.byte		N05	, Gs3, v084
	.byte	W05
	.byte		N16	, An3, v092
	.byte	W23
	.byte		N14	, Cn4, v124
	.byte	W16
	.byte		N16	, An3, v056
	.byte	W28
	.byte	W01
	.byte		N14	, An3, v096
	.byte	W15
	.byte		N18	, Fn3, v040
	.byte	W08
	.byte	W15
	.byte		N08	, Fn3, v088
	.byte	W10
	.byte		N30	, Cn3, v072
	.byte	W68
	.byte	W03
	.byte	W24
	.byte		N05	, Gn3, v108
	.byte	W24
	.byte		N17	, Gn3, v127
	.byte	W24
	.byte		N14	, An3, v112
	.byte	W24
	.byte		N02	, Gn3, v080
	.byte		N18	, As3, v127
	.byte	W24
	.byte		N11	, An3, v116
	.byte	W15
	.byte		N12	, Gn3, v084
	.byte	W24
	.byte		N04	, As2, v028
	.byte	W09
	.byte		N11	, Dn3, v124
	.byte	W15
	.byte		N03	, Cn3, v060
	.byte	W09
	.byte		N10	, Ds3, v124
	.byte	W15
	.byte		N11	, Ds3, v116
	.byte	W09
	.byte		N12	, Dn3, v088
	.byte	W24
	.byte		N22	, Dn3, v127
	.byte	W24
	.byte		N11	, Cn3, v104
	.byte	W15
	.byte		N44	, Fn2, v092
	.byte	W09
	.byte	W96
	.byte	W16
	.byte		N08	, As2, v127
	.byte	W11
	.byte		N07	, Bn2, v076
	.byte	W08
	.byte			Dn3, v088
	.byte	W09
	.byte		N05	, En3
	.byte	W07
	.byte		N14	, Gn3, v120
	.byte	W24
	.byte		N12	, As3, v127
	.byte	W15
	.byte		N15	, Bn3, v120
	.byte	W06
	.byte	W16
	.byte		N09	, Bn3, v116
	.byte	W11
	.byte			Gn3, v112
	.byte	W13
	.byte		N06	, Dn3, v088
	.byte	W10
	.byte		N12	, Cs3, v127
	.byte		N13	, Gn3, v124
	.byte	W15
	.byte		N04	, Cn3, v056
	.byte	W13
	.byte		N08	, As2, v100
	.byte	W18
	.byte		N03	, An2, v112
	.byte	W15
	.byte		N05	, An2, v064
	.byte	W09
	.byte		N10	, An2, v112
	.byte	W15
	.byte		N07	, Cn3, v080
	.byte	W09
	.byte		N14	, Dn3, v127
	.byte	W15
	.byte			Cn3, v088
	.byte	W32
	.byte	W01
	.byte		N11	, Ds3, v127
	.byte	W15
	.byte		N12	, Ds3, v124
	.byte	W09
	.byte		N13	, Dn3, v120
	.byte	W15
	.byte		N18	, Cn3, v100
	.byte	W56
	.byte	W01
	.byte	W48
	.byte	W02
	.byte		N10	, Gn3, v120
	.byte	W15
	.byte		N07	, As3, v096
	.byte	W08
	.byte		N12	, Cn4, v124
	.byte	W23
	.byte	W01
	.byte		N11	, Cs4, v127
	.byte	W14
	.byte		N09	
	.byte	W10
	.byte		N15	, Cn4, v120
	.byte	W19
	.byte		N04	, Cs3, v056
	.byte	W07
	.byte		N10	, Cs4, v127
	.byte	W14
	.byte			Cs4, v124
	.byte	W12
	.byte			Cn4, v104
	.byte	W12
	.byte		N09	, As3, v120
	.byte	W07
	.byte	W03
	.byte		N11	, An3, v104
	.byte	W15
	.byte		N07	, Gs3, v127
	.byte	W19
	.byte		N04	, An3, v040
	.byte	W04
	.byte		N08	, Cn4, v096
	.byte	W06
	.byte		N11	, En4, v116
	.byte	W16
	.byte		N14	, Gn4, v127
	.byte	W11
	.byte			Fs4, v116
	.byte	W22
	.byte	W01
	.byte		N11	, Fn4, v127
	.byte	W17
	.byte		N05	, An3, v020
	.byte	W07
	.byte		N10	, Cn4, v100
	.byte	W15
	.byte			En4, v127
	.byte	W10
	.byte			Ds4, v108
	.byte	W15
	.byte		N04	, Bn3, v052
	.byte	W09
	.byte		N09	, As3, v120
	.byte	W15
	.byte		N07	, Gs3, v112
	.byte	W07
	.byte	W03
	.byte		N09	, Gn3
	.byte	W13
	.byte		N08	
	.byte	W09
	.byte		N14	, An3
	.byte	W24
	.byte	W01
	.byte		N19	, Cn4, v127
	.byte	W23
	.byte		N14	, An3, v120
	.byte	W23
	.byte	W01
	.byte		N11	, Ds4, v127
	.byte		N19	, Gn4
	.byte	W15
	.byte		N07	, En4, v088
	.byte	W10
	.byte		N24	, Gn4, v120
	.byte	W01
	.byte		N12	, Ds4, v127
	.byte	W14
	.byte		N13	, En4, v112
	.byte	W54
	.byte	W01
	.byte	W36
	.byte	W02
	.byte		N05	, Gn3, v084
	.byte	W10
	.byte		N10	, Gn4, v127
	.byte	W15
	.byte		N09	, Gn4, v124
	.byte	W11
	.byte		N10	, Fs4, v120
	.byte	W13
	.byte		N09	, Fs4, v127
	.byte	W09
	.byte	W03
	.byte		N08	, Fn4, v124
	.byte	W12
	.byte			Fn4, v120
	.byte	W11
	.byte		N10	, Ds4
	.byte	W13
	.byte		N17	, En4, v127
	.byte	W23
	.byte		N07	, Cn4, v116
	.byte	W10
	.byte		N22	, Gn3, v108
	.byte	W24
	.byte	W48
	.byte	W02
	.byte		N12	, Ds4, v127
	.byte		N12	, Gn4
	.byte	W14
	.byte		N07	, En4, v080
	.byte	W10
	.byte		N11	, Gn4, v127
	.byte	W01
	.byte		N13	, Ds4
	.byte	W13
	.byte		N06	, En4, v108
	.byte	W02
	.byte		N03	, Gn4, v092
	.byte	W06
	.byte	W03
	.byte		N09	, Cn4, v120
	.byte		N09	, Gn4, v108
	.byte	W14
	.byte		N12	, Cn4, v116
	.byte		N13	, Gn4
	.byte	W32
	.byte	W02
	.byte		N12	, Ds4, v127
	.byte		N14	, Gn4, v124
	.byte	W24
	.byte			Ds4, v127
	.byte	W02
	.byte			Gn4, v084
	.byte	W14
	.byte		N13	, Dn4, v104
	.byte	W03
	.byte		N10	, Gn4, v064
	.byte	W02
	.byte	W18
	.byte		N08	, Dn4, v124
	.byte		N15	, Gn4, v116
	.byte	W09
	.byte		N17	, Cn4, v100
	.byte	W22
	.byte		N11	, Dn4, v120
	.byte	W14
	.byte		N07	, Cn4, v092
	.byte	W10
	.byte		N14	, An3, v088
	.byte	W23
	.byte	W02
	.byte		N17	, Cn4, v127
	.byte	W21
	.byte			An3, v076
	.byte	W22
	.byte		N09	, Fn3, v084
	.byte	W20
	.byte			Fn3, v108
	.byte	W10
	.byte		N16	, Cn3, v092
	.byte	W21
	.byte	W64
	.byte	W01
	.byte		N07	, Cn3, v116
	.byte	W09
	.byte		N09	, Dn3, v104
	.byte	W08
	.byte		N06	, Ds3, v108
	.byte	W08
	.byte			En3, v096
	.byte	W06
	.byte	W02
	.byte		N14	, Gn3, v124
	.byte	W24
	.byte	W01
	.byte		N13	, An3, v127
	.byte	W17
	.byte		N03	, Gn3, v056
	.byte	W08
	.byte		N10	, As3, v127
	.byte	W14
	.byte		N14	
	.byte	W09
	.byte		N12	, An3, v104
	.byte	W15
	.byte		N06	, Gn3, v084
	.byte	W06
	.byte	W03
	.byte		N11	, Gs3, v112
	.byte	W14
	.byte		N03	, An3, v076
	.byte	W09
	.byte		N10	, Dn4, v127
	.byte	W14
	.byte		N08	, Cs4, v120
	.byte	W11
	.byte		N12	, Cn4
	.byte	W13
	.byte		N05	, En3, v080
	.byte	W09
	.byte		N07	, Fn3, v068
	.byte	W13
	.byte		N10	, As3, v127
	.byte	W10
	.byte	W01
	.byte		N09	, An3, v096
	.byte	W12
	.byte		N07	, Fn3, v084
	.byte	W11
	.byte		N10	, Cn3
	.byte	W14
	.byte		N09	, As2, v120
	.byte	W09
	.byte			An2, v076
	.byte	W14
	.byte			Gs2, v120
	.byte	W11
	.byte			An2, v096
	.byte	W11
	.byte		N08	, Cn3, v084
	.byte	W13
	.byte	W01
	.byte		N13	, Dn3, v108
	.byte	W15
	.byte		N09	, En3, v116
	.byte	W23
	.byte		N12	, Fn3, v127
	.byte	W10
	.byte		N09	, Ds3, v116
	.byte	W14
	.byte		N10	, En3, v092
	.byte	W10
	.byte			Gs3, v116
	.byte	W14
	.byte		N07	, Bn3, v112
	.byte	W09
	.byte	W04
	.byte		N11	, En4, v127
	.byte	W12
	.byte		N07	, Ds4, v120
	.byte	W11
	.byte		N19	, En4, v124
	.byte	W24
	.byte		N10	, Dn4, v127
	.byte	W15
	.byte		N03	, Cn4, v088
	.byte	W08
	.byte		N11	, Dn4, v127
	.byte	W14
	.byte		N17	, Cn4
	.byte	W08
	.byte	W14
	.byte		N05	, Bn3, v100
	.byte	W09
	.byte		N18	, Cn4, v124
	.byte	W19
	.byte		N03	, Cn3, v060
	.byte	W07
	.byte		N11	, An3, v124
	.byte	W14
	.byte		N08	, En3, v084
	.byte	W09
	.byte		N11	, Dn3, v108
	.byte	W16
	.byte		N04	, Cn3, v068
	.byte	W08
	.byte		N07	, Dn3, v096
	.byte	W05
	.byte		N18	, Ds3, v092
	.byte		N16	, An3, v064
	.byte	W03
	.byte		N04	, Gn3, v028
	.byte	W19
	.byte		N19	, Ds3, v127
	.byte		N18	, An3, v112
	.byte	W24
	.byte	W01
	.byte		N08	, Dn3, v120
	.byte	W01
	.byte		N12	, An3, v096
	.byte	W12
	.byte		N04	, Cn3, v060
	.byte	W08
	.byte		N19	, An3, v112
	.byte	W01
	.byte		N14	, Dn3, v116
	.byte	W22
	.byte	W03
	.byte		N12	, Cn3, v108
	.byte	W17
	.byte		N06	, An2, v032
	.byte	W30
	.byte			Dn3, v112
	.byte	W08
	.byte		N07	, Cn3, v072
	.byte	W08
	.byte		N08	, Dn3, v060
	.byte	W07
	.byte		N06	, Ds3, v108
	.byte	W07
	.byte		N07	, Dn3, v076
	.byte	W08
	.byte		N08	, Ds3, v072
	.byte	W08
	.byte		N07	, Fn3, v084
	.byte	W08
	.byte		N10	, Ds3, v068
	.byte	W08
	.byte			Fn3, v060
	.byte	W08
	.byte		N07	, Gn3, v108
	.byte	W07
	.byte		N08	, Fn3, v096
	.byte	W10
	.byte		N09	, Gn3, v100
	.byte	W07
	.byte		N07	, As3, v120
	.byte	W09
	.byte		N06	, Gn3, v068
	.byte	W08
	.byte		N08	, As3, v084
	.byte	W07
	.byte		N07	, Cn4, v096
	.byte	W08
	.byte		N12	, As3, v080
	.byte	W08
	.byte		N13	, Cn4, v096
	.byte	W08
	.byte	W01
	.byte		N09	, Dn4, v124
	.byte	W24
	.byte	W01
	.byte		N11	, Ds4, v127
	.byte	W14
	.byte		N07	, Fn4, v096
	.byte	W09
	.byte		N09	, Fs4, v124
	.byte	W14
	.byte		N10	, As4, v127
	.byte	W11
	.byte		N09	, An4, v120
	.byte	W13
	.byte		N10	, Gs4, v127
	.byte	W09
	.byte	W02
	.byte		N07	, Gn4, v100
	.byte	W13
	.byte		N12	, Fs4, v127
	.byte	W10
	.byte		N08	, Fn4, v096
	.byte	W13
	.byte		N12	, Ds4, v127
	.byte	W13
	.byte		N07	, Bn3, v068
	.byte	W12
	.byte		N11	, As3, v127
	.byte	W10
	.byte		N09	, Gs3, v104
	.byte	W13
	.byte			Fs3, v100
	.byte	W10
	.byte	GOTO	
		.word	song0020_1_1
	.byte	FINE

	@********************** Track  2 **********************@

	.global song0020_2
song0020_2:	@ 0x08C6042C
	.byte	KEYSH	, 0
song0020_2_12:
	.byte	VOICE	, 127
	.byte	VOL	, v110
	.byte		N23	, Cn1, v127
	.byte		N36	, Ds1, v060
	.byte	W24
	.byte		N15	, Cs1, v127
	.byte	W16
	.byte		N23	, Cn1
	.byte		N16	, Ds1, v060
	.byte	W24
	.byte		N07	, Gn1, v127
	.byte	W08
	.byte		N23	, Fs1
	.byte	W24
song0020_2_5:
	.byte		N23	, Cn1, v127
	.byte		N36	, Ds1, v060
	.byte	W24
	.byte		N15	, Cs1, v127
	.byte	W16
	.byte		N23	, Cn1
	.byte		N16	, Ds1, v060
	.byte	W24
	.byte		N07	, Cs1, v127
	.byte	W08
	.byte		N23	
	.byte	W24
	.byte	PEND
song0020_2_6:
	.byte		N23	, Cn1, v127
	.byte		N36	, Ds1, v060
	.byte	W24
	.byte		N15	, Cs1, v127
	.byte	W16
	.byte		N23	, Cn1
	.byte		N16	, Ds1, v060
	.byte	W24
	.byte		N07	, Cs1, v127
	.byte	W08
	.byte		N15	
	.byte	W16
	.byte		N23	, Cn1
	.byte		N36	, Ds1, v060
	.byte	W08
	.byte	PEND
song0020_2_7:
	.byte	W16
	.byte		N07	, Cs1, v127
	.byte	W08
	.byte		N15	
	.byte	W16
	.byte		N07	, Gs1
	.byte	W08
	.byte			Cn1
	.byte	W08
	.byte			Cs1, v060
	.byte	W08
	.byte			Cs1, v100
	.byte	W08
	.byte			Cs1, v127
	.byte		N08	, Dn1, v048
	.byte	W16
	.byte		N07	, Gn1, v100
	.byte	W08
	.byte	PEND
song0020_2_8:
	.byte		N08	, Cn1, v127
	.byte		N96	, Cs2
	.byte	W16
	.byte		N08	, Dn1, v048
	.byte	W08
	.byte			Cs1, v127
	.byte		N08	, Ds1, v064
	.byte		N24	, Fs3, v092
	.byte	W16
	.byte		N08	, Dn1, v048
	.byte	W08
	.byte			Cn1, v127
	.byte		N08	, Dn1, v048
	.byte	W16
	.byte		N08	
	.byte	W08
	.byte			Cs1, v127
	.byte		N08	, Ds1, v064
	.byte		N24	, Fs3, v092
	.byte	W16
	.byte		N08	, Cn1, v127
	.byte		N23	, Ds1, v068
	.byte	W08
	.byte	PEND
song0020_2_1:
	.byte	W16
	.byte		N08	, Cn1, v127
	.byte		N08	, Dn1, v048
	.byte	W08
	.byte			Cs1, v127
	.byte		N08	, Ds1, v064
	.byte		N24	, Fs3, v092
	.byte	W16
	.byte		N08	, Dn1, v048
	.byte	W08
	.byte			Cn1, v127
	.byte		N08	, Dn1, v048
	.byte	W16
	.byte		N08	
	.byte	W08
	.byte			Cs1, v127
	.byte		N08	, Ds1, v064
	.byte		N24	, Fs3, v092
	.byte	W16
	.byte		N08	, Dn1, v048
	.byte	W08
	.byte	PEND
song0020_2_2:
	.byte		N08	, Cn1, v127
	.byte		N08	, Dn1, v048
	.byte	W16
	.byte		N08	
	.byte	W08
	.byte			Cs1, v127
	.byte		N08	, Ds1, v064
	.byte		N24	, Fs3, v092
	.byte	W16
	.byte		N08	, Dn1, v048
	.byte	W08
	.byte			Cn1, v127
	.byte		N08	, Dn1, v048
	.byte	W16
	.byte		N08	
	.byte	W08
	.byte			Cs1, v127
	.byte		N08	, Ds1, v064
	.byte		N24	, Fs3, v092
	.byte	W16
	.byte		N08	, Cn1, v127
	.byte		N23	, Ds1, v068
	.byte	W08
	.byte	PEND
song0020_2_4:
	.byte	W16
	.byte		N08	, Cn1, v127
	.byte		N08	, Dn1, v048
	.byte	W08
	.byte			Cs1, v127
	.byte		N08	, Ds1, v064
	.byte		N24	, Fs3, v092
	.byte	W16
	.byte		N08	, Dn1, v048
	.byte	W08
	.byte			Cn1, v127
	.byte		N08	, Dn1, v048
	.byte	W16
	.byte			Cs1, v127
	.byte		N08	, Dn1, v048
	.byte	W08
	.byte			Cs1, v127
	.byte		N08	, Ds1, v064
	.byte		N24	, Fs3, v092
	.byte	W16
	.byte		N08	, Dn1, v048
	.byte	W08
	.byte	PEND
song0020_2_3:
	.byte		N08	, Cn1, v127
	.byte		N08	, Dn1, v048
	.byte		N96	, Cs2, v127
	.byte	W16
	.byte		N08	, Dn1, v048
	.byte	W08
	.byte			Cs1, v127
	.byte		N08	, Ds1, v064
	.byte		N24	, Fs3, v092
	.byte	W16
	.byte		N08	, Dn1, v048
	.byte	W08
	.byte			Cn1, v127
	.byte		N08	, Dn1, v048
	.byte	W16
	.byte		N08	
	.byte	W08
	.byte			Cs1, v127
	.byte		N08	, Ds1, v064
	.byte		N24	, Fs3, v092
	.byte	W16
	.byte		N08	, Cn1, v127
	.byte		N23	, Ds1, v068
	.byte	W08
	.byte	PEND
	.byte	PATT	
		.word	song0020_2_1
	.byte	PATT	
		.word	song0020_2_2
	.byte	PATT	
		.word	song0020_2_1
	.byte	PATT	
		.word	song0020_2_2
	.byte	PATT	
		.word	song0020_2_1
	.byte	PATT	
		.word	song0020_2_2
	.byte	PATT	
		.word	song0020_2_1
	.byte	PATT	
		.word	song0020_2_3
song0020_2_10:
	.byte	W16
	.byte		N08	, Cn1, v127
	.byte		N08	, Dn1, v048
	.byte	W08
	.byte			Cs1, v127
	.byte		N08	, Ds1, v064
	.byte		N24	, Fs3, v092
	.byte	W16
	.byte		N08	, Dn1, v048
	.byte	W08
	.byte			Cn1, v127
	.byte		N15	, Ds1, v084
	.byte	W16
	.byte		N08	, Cs1, v127
	.byte		N08	, Dn1, v048
	.byte	W08
	.byte			Cn1, v127
	.byte		N15	, Ds1, v084
	.byte		N24	, Fs3, v092
	.byte	W16
	.byte		N08	, Cs1, v127
	.byte	W08
	.byte	PEND
	.byte	PATT	
		.word	song0020_2_3
song0020_2_11:
	.byte	W16
	.byte		N08	, Cn1, v127
	.byte		N08	, Dn1, v048
	.byte	W08
	.byte			Cs1, v127
	.byte		N08	, Ds1, v064
	.byte		N24	, Fs3, v092
	.byte	W16
	.byte		N08	, Dn1, v048
	.byte	W08
	.byte			Cn1, v127
	.byte		N15	, Ds1, v084
	.byte	W16
	.byte		N08	, Cs1, v127
	.byte		N08	, Dn1, v048
	.byte	W08
	.byte			Cn1, v127
	.byte		N24	, Fs3, v092
	.byte	W08
	.byte		N08	, Cs1, v056
	.byte	W08
	.byte			Cs1, v127
	.byte	W08
	.byte	PEND
	.byte	PATT	
		.word	song0020_2_2
	.byte	PATT	
		.word	song0020_2_1
	.byte	PATT	
		.word	song0020_2_2
song0020_2_9:
	.byte	W16
	.byte		N08	, Cn1, v127
	.byte		N08	, Dn1, v048
	.byte	W08
	.byte			Cs1, v127
	.byte		N08	, Ds1, v064
	.byte		N24	, Fs3, v092
	.byte	W16
	.byte		N08	, Dn1, v048
	.byte	W08
	.byte			Cn1, v127
	.byte		N08	, Dn1, v048
	.byte	W16
	.byte		N07	, Cs1, v127
	.byte		N08	, Dn1, v048
	.byte	W08
	.byte		N07	, Cs1, v127
	.byte		N08	, Ds1, v064
	.byte		N24	, Fs3, v092
	.byte	W08
	.byte		N07	, Cs1, v127
	.byte	W08
	.byte		N08	
	.byte		N08	, Dn1, v048
	.byte	W08
	.byte	PEND
	.byte	PATT	
		.word	song0020_2_3
	.byte	PATT	
		.word	song0020_2_1
	.byte	PATT	
		.word	song0020_2_2
	.byte	PATT	
		.word	song0020_2_4
	.byte	PATT	
		.word	song0020_2_3
	.byte	PATT	
		.word	song0020_2_1
	.byte	PATT	
		.word	song0020_2_2
	.byte	PATT	
		.word	song0020_2_1
	.byte	PATT	
		.word	song0020_2_2
	.byte	PATT	
		.word	song0020_2_1
	.byte	PATT	
		.word	song0020_2_2
	.byte	PATT	
		.word	song0020_2_4
	.byte	PATT	
		.word	song0020_2_3
	.byte	PATT	
		.word	song0020_2_1
	.byte	PATT	
		.word	song0020_2_3
	.byte	PATT	
		.word	song0020_2_1
	.byte	PATT	
		.word	song0020_2_3
	.byte	PATT	
		.word	song0020_2_1
	.byte	PATT	
		.word	song0020_2_2
	.byte	PATT	
		.word	song0020_2_4
	.byte		N23	, Cn1, v127
	.byte		N36	, Ds1, v060
	.byte	W24
	.byte		N15	, Cs1, v127
	.byte	W16
	.byte		N23	, Cn1
	.byte		N16	, Ds1, v060
	.byte	W24
	.byte		N07	, Gn1, v127
	.byte	W08
	.byte		N23	, Fs1
	.byte	W24
	.byte	PATT	
		.word	song0020_2_5
	.byte	PATT	
		.word	song0020_2_6
	.byte	PATT	
		.word	song0020_2_7
	.byte	PATT	
		.word	song0020_2_8
	.byte	PATT	
		.word	song0020_2_1
	.byte	PATT	
		.word	song0020_2_2
	.byte	PATT	
		.word	song0020_2_4
	.byte	PATT	
		.word	song0020_2_3
	.byte	PATT	
		.word	song0020_2_1
	.byte	PATT	
		.word	song0020_2_2
	.byte	PATT	
		.word	song0020_2_9
	.byte	PATT	
		.word	song0020_2_3
	.byte	PATT	
		.word	song0020_2_1
	.byte	PATT	
		.word	song0020_2_2
	.byte	PATT	
		.word	song0020_2_1
	.byte	PATT	
		.word	song0020_2_2
	.byte	PATT	
		.word	song0020_2_1
	.byte	PATT	
		.word	song0020_2_2
	.byte	PATT	
		.word	song0020_2_1
	.byte	PATT	
		.word	song0020_2_3
	.byte	PATT	
		.word	song0020_2_10
	.byte	PATT	
		.word	song0020_2_3
	.byte	PATT	
		.word	song0020_2_11
	.byte	PATT	
		.word	song0020_2_2
	.byte	PATT	
		.word	song0020_2_1
	.byte	PATT	
		.word	song0020_2_2
	.byte	PATT	
		.word	song0020_2_9
	.byte	PATT	
		.word	song0020_2_3
	.byte	PATT	
		.word	song0020_2_1
	.byte	PATT	
		.word	song0020_2_2
	.byte	PATT	
		.word	song0020_2_4
	.byte	PATT	
		.word	song0020_2_3
	.byte	PATT	
		.word	song0020_2_1
	.byte	PATT	
		.word	song0020_2_2
	.byte	PATT	
		.word	song0020_2_1
	.byte	PATT	
		.word	song0020_2_2
	.byte	PATT	
		.word	song0020_2_1
	.byte	PATT	
		.word	song0020_2_2
	.byte	PATT	
		.word	song0020_2_4
	.byte	PATT	
		.word	song0020_2_3
	.byte	PATT	
		.word	song0020_2_1
	.byte	PATT	
		.word	song0020_2_3
	.byte	PATT	
		.word	song0020_2_1
	.byte	PATT	
		.word	song0020_2_3
	.byte	PATT	
		.word	song0020_2_1
	.byte	PATT	
		.word	song0020_2_2
	.byte	PATT	
		.word	song0020_2_4
	.byte	GOTO	
		.word	song0020_2_12
	.byte	FINE

	@********************** Track  3 **********************@

	.global song0020_3
song0020_3:	@ 0x08C607C9
	.byte	KEYSH	, 0
song0020_3_16:
	.byte	VOICE	, 49
	.byte	VOL	, v110
	.byte		N30	, Fs2, v127
	.byte	W36
	.byte	W03
	.byte		N52	
	.byte	W56
	.byte	W01
song0020_3_7:
	.byte		N28	, Fs3, v127
	.byte	W36
	.byte	W03
	.byte		N44	
	.byte	W56
	.byte	W01
	.byte	PEND
song0020_3_8:
	.byte		N30	, Fs2, v127
	.byte	W36
	.byte	W03
	.byte		N19	
	.byte	W24
	.byte		N14	, Cs3
	.byte	W24
	.byte		N36	, Fs3
	.byte	W09
	.byte	PEND
song0020_3_9:
	.byte	W36
	.byte	W03
	.byte		N54	, Fs2, v127
	.byte	W56
	.byte	W01
	.byte	PEND
song0020_3_1:
	.byte		N10	, Bn1, v127
	.byte	W24
	.byte		N14	
	.byte	W24
	.byte		N14	
	.byte	W15
	.byte		N08	, Fs1
	.byte	W09
	.byte		N14	, Gs1
	.byte	W15
	.byte		N17	, Bn1
	.byte	W09
	.byte	PEND
song0020_3_2:
	.byte	W15
	.byte		N08	, Bn1, v127
	.byte	W09
	.byte		N14	, Fs1
	.byte	W15
	.byte		N08	, Gs1
	.byte	W09
	.byte		N23	, Bn1
	.byte	W24
	.byte			Fs2
	.byte	W24
	.byte	PEND
	.byte	PATT	
		.word	song0020_3_1
	.byte	PATT	
		.word	song0020_3_2
	.byte	PATT	
		.word	song0020_3_1
	.byte	PATT	
		.word	song0020_3_2
song0020_3_3:
	.byte		N10	, En2, v127
	.byte	W24
	.byte		N14	
	.byte	W24
	.byte		N14	
	.byte	W15
	.byte		N08	, Bn1
	.byte	W09
	.byte		N14	, Cs2
	.byte	W15
	.byte		N17	, En2
	.byte	W09
	.byte	PEND
song0020_3_4:
	.byte	W15
	.byte		N08	, En2, v127
	.byte	W09
	.byte		N14	, Bn1
	.byte	W15
	.byte		N08	, Cs2
	.byte	W09
	.byte		N23	, En2
	.byte	W24
	.byte			Fs2
	.byte	W24
	.byte	PEND
	.byte	PATT	
		.word	song0020_3_1
song0020_3_5:
	.byte	W15
	.byte		N08	, Bn1, v127
	.byte	W09
	.byte		N14	, Fs1
	.byte	W15
	.byte		N08	, Gs1
	.byte	W09
	.byte		N23	, Bn1
	.byte	W24
	.byte			As1
	.byte	W24
	.byte	PEND
song0020_3_6:
	.byte		N10	, An1, v127
	.byte	W24
	.byte		N14	
	.byte	W24
	.byte		N14	
	.byte	W15
	.byte		N08	, En1
	.byte	W09
	.byte		N14	, Fs1
	.byte	W15
	.byte		N17	, An1
	.byte	W09
	.byte	PEND
	.byte	W15
	.byte		N08	
	.byte	W09
	.byte		N14	, En1
	.byte	W15
	.byte		N08	, Fs1
	.byte	W09
	.byte		N23	, An1
	.byte	W24
	.byte			En2
	.byte	W24
	.byte		N10	, Fs2
	.byte	W24
	.byte		N14	
	.byte	W24
	.byte		N14	
	.byte	W15
	.byte		N08	, Cs2
	.byte	W09
	.byte		N14	, Ds2
	.byte	W15
	.byte		N17	, Fs2
	.byte	W09
	.byte	W15
	.byte		N08	
	.byte	W09
	.byte		N14	, Cs2
	.byte	W15
	.byte		N08	, Ds2
	.byte	W09
	.byte		N23	, Fs2
	.byte	W24
	.byte			Fn2
	.byte	W24
	.byte	PATT	
		.word	song0020_3_3
	.byte	W15
	.byte		N08	, En2, v127
	.byte	W09
	.byte		N14	, Bn1
	.byte	W15
	.byte		N08	, Cs2
	.byte	W09
	.byte		N23	, En2
	.byte	W24
	.byte			Ds2
	.byte	W24
	.byte		N10	, Dn2
	.byte	W24
	.byte		N14	
	.byte	W24
	.byte		N14	
	.byte	W15
	.byte		N08	, An1
	.byte	W09
	.byte		N14	, Bn1
	.byte	W15
	.byte		N17	, Dn2
	.byte	W09
	.byte	W15
	.byte		N08	
	.byte	W09
	.byte		N14	, An1
	.byte	W15
	.byte		N08	, Bn1
	.byte	W09
	.byte		N14	, Dn2
	.byte	W15
	.byte		N08	, An2
	.byte	W09
	.byte		N23	, Dn2
	.byte	W24
	.byte		N10	, Cs2
	.byte	W24
	.byte		N14	
	.byte	W24
	.byte		N14	
	.byte	W15
	.byte		N08	, Ds2
	.byte	W09
	.byte		N14	, En2
	.byte	W15
	.byte		N17	, Fs2
	.byte	W09
	.byte	W15
	.byte		N08	
	.byte	W09
	.byte		N14	, Cs2
	.byte	W24
	.byte		N23	, Fs2
	.byte	W24
	.byte			Fs1
	.byte	W24
	.byte	PATT	
		.word	song0020_3_1
	.byte	PATT	
		.word	song0020_3_2
	.byte	PATT	
		.word	song0020_3_1
	.byte	PATT	
		.word	song0020_3_2
	.byte	PATT	
		.word	song0020_3_1
	.byte	PATT	
		.word	song0020_3_2
	.byte	PATT	
		.word	song0020_3_3
	.byte	PATT	
		.word	song0020_3_4
	.byte	PATT	
		.word	song0020_3_1
	.byte	PATT	
		.word	song0020_3_5
	.byte	PATT	
		.word	song0020_3_6
	.byte	W15
	.byte		N08	, An1, v127
	.byte	W09
	.byte		N14	, En1
	.byte	W15
	.byte		N08	, Fs1
	.byte	W09
	.byte		N23	, An1
	.byte	W24
	.byte		N23	
	.byte	W24
	.byte		N10	, As1
	.byte	W24
	.byte		N14	
	.byte	W24
	.byte		N14	
	.byte	W15
	.byte		N08	, Bn1
	.byte	W09
	.byte		N14	, Cs2
	.byte	W15
	.byte		N17	, Ds2
	.byte	W09
	.byte	W15
	.byte		N08	
	.byte	W09
	.byte		N14	, As1
	.byte	W24
	.byte		N23	, Ds2
	.byte	W24
	.byte			Gn2
	.byte	W24
	.byte		N10	, Gs2
	.byte	W24
	.byte		N14	
	.byte	W24
	.byte		N23	
	.byte	W24
	.byte		N14	, Ds2
	.byte	W15
	.byte		N17	, Gs2
	.byte	W09
	.byte	W15
	.byte		N08	
	.byte	W09
	.byte		N23	, Ds2
	.byte	W24
	.byte			Gs2
	.byte	W24
	.byte			Gs1
	.byte	W24
	.byte		N10	, An1
	.byte	W24
	.byte		N14	
	.byte	W24
	.byte		N14	
	.byte	W15
	.byte		N08	, Bn1
	.byte	W09
	.byte		N14	, Cs2
	.byte	W15
	.byte		N17	, Dn2
	.byte	W09
	.byte	W15
	.byte		N08	
	.byte	W09
	.byte		N14	, An1
	.byte	W15
	.byte		N08	, Bn1
	.byte	W09
	.byte		N23	, Dn2
	.byte	W24
	.byte			An2
	.byte	W24
	.byte		N10	, Gn2
	.byte	W24
	.byte		N14	
	.byte	W24
	.byte		N14	
	.byte	W15
	.byte		N08	, Dn2
	.byte	W09
	.byte		N14	, Gn1
	.byte	W15
	.byte		N17	, Cn2
	.byte	W09
	.byte	W15
	.byte		N08	
	.byte	W09
	.byte		N14	, Gn1
	.byte	W15
	.byte		N08	, An1
	.byte	W09
	.byte		N23	, Cn2
	.byte	W24
	.byte			Fn2
	.byte	W24
	.byte		N30	, Fs2
	.byte	W36
	.byte	W03
	.byte		N52	
	.byte	W56
	.byte	W01
	.byte	PATT	
		.word	song0020_3_7
	.byte	PATT	
		.word	song0020_3_8
	.byte	PATT	
		.word	song0020_3_9
	.byte	PATT	
		.word	song0020_3_1
	.byte	PATT	
		.word	song0020_3_2
	.byte	PATT	
		.word	song0020_3_1
	.byte	W15
	.byte		N08	, Bn1, v127
	.byte	W09
	.byte		N14	, Fs1
	.byte	W15
	.byte		N08	, Gs1
	.byte	W09
	.byte		N23	, Bn1
	.byte	W24
	.byte		N11	, As1
	.byte	W12
	.byte			Bn1
	.byte	W12
song0020_3_10:
	.byte		N10	, Cn2, v127
	.byte	W24
	.byte		N14	
	.byte	W24
	.byte		N14	
	.byte	W15
	.byte		N08	, Gn1
	.byte	W09
	.byte		N14	, An1
	.byte	W15
	.byte		N17	, Cn2
	.byte	W09
	.byte	PEND
song0020_3_11:
	.byte	W15
	.byte		N08	, Cn2, v127
	.byte	W09
	.byte		N14	, Gn1
	.byte	W15
	.byte		N08	, An1
	.byte	W09
	.byte		N23	, Cn2
	.byte	W24
	.byte			Gn2
	.byte	W24
	.byte	PEND
	.byte	PATT	
		.word	song0020_3_10
	.byte	W15
	.byte		N08	, Cn2, v127
	.byte	W09
	.byte		N14	, Gn1
	.byte	W15
	.byte		N08	, An1
	.byte	W09
	.byte		N23	, Cn2
	.byte	W24
	.byte			Gn1
	.byte	W24
	.byte	PATT	
		.word	song0020_3_10
	.byte	PATT	
		.word	song0020_3_11
song0020_3_12:
	.byte		N10	, Fn2, v127
	.byte	W24
	.byte		N14	
	.byte	W24
	.byte		N14	
	.byte	W15
	.byte		N08	, Cn2
	.byte	W09
	.byte		N14	, Dn2
	.byte	W15
	.byte		N17	, Fn2
	.byte	W09
	.byte	PEND
song0020_3_13:
	.byte	W15
	.byte		N08	, Fn2, v127
	.byte	W09
	.byte		N14	, Cn2
	.byte	W15
	.byte		N08	, Dn2
	.byte	W09
	.byte		N23	, Fn2
	.byte	W24
	.byte			Gn2
	.byte	W24
	.byte	PEND
	.byte	PATT	
		.word	song0020_3_10
song0020_3_14:
	.byte	W15
	.byte		N08	, Cn2, v127
	.byte	W09
	.byte		N14	, Gn1
	.byte	W15
	.byte		N08	, An1
	.byte	W09
	.byte		N23	, Cn2
	.byte	W24
	.byte			Bn1
	.byte	W24
	.byte	PEND
song0020_3_15:
	.byte		N10	, As1, v127
	.byte	W24
	.byte		N14	
	.byte	W24
	.byte		N14	
	.byte	W15
	.byte		N08	, Fn1
	.byte	W09
	.byte		N14	, Gn1
	.byte	W15
	.byte		N17	, As1
	.byte	W09
	.byte	PEND
	.byte	W15
	.byte		N08	
	.byte	W09
	.byte		N14	, Fn1
	.byte	W15
	.byte		N08	, Gn1
	.byte	W09
	.byte		N23	, As1
	.byte	W24
	.byte			Fn2
	.byte	W24
	.byte		N10	, Gn2
	.byte	W24
	.byte		N14	
	.byte	W24
	.byte		N14	
	.byte	W15
	.byte		N08	, Dn2
	.byte	W09
	.byte		N14	, En2
	.byte	W15
	.byte		N17	, Gn2
	.byte	W09
	.byte	W15
	.byte		N08	
	.byte	W09
	.byte		N14	, Dn2
	.byte	W15
	.byte		N08	, En2
	.byte	W09
	.byte		N23	, Gn2
	.byte	W24
	.byte			Fs2
	.byte	W24
	.byte	PATT	
		.word	song0020_3_12
	.byte	W15
	.byte		N08	, Fn2, v127
	.byte	W09
	.byte		N14	, Cn2
	.byte	W15
	.byte		N08	, Dn2
	.byte	W09
	.byte		N23	, Fn2
	.byte	W24
	.byte			En2
	.byte	W24
	.byte		N10	, Ds2
	.byte	W24
	.byte		N14	
	.byte	W24
	.byte		N14	
	.byte	W15
	.byte		N08	, As1
	.byte	W09
	.byte		N14	, Cn2
	.byte	W15
	.byte		N17	, Ds2
	.byte	W09
	.byte	W15
	.byte		N08	
	.byte	W09
	.byte		N14	, As1
	.byte	W15
	.byte		N08	, Cn2
	.byte	W09
	.byte		N14	, Ds2
	.byte	W15
	.byte		N08	, As2
	.byte	W09
	.byte		N23	, Ds2
	.byte	W24
	.byte		N10	, Dn2
	.byte	W24
	.byte		N14	
	.byte	W24
	.byte		N14	
	.byte	W15
	.byte		N08	, En2
	.byte	W09
	.byte		N14	, Fn2
	.byte	W15
	.byte		N17	, Gn2
	.byte	W09
	.byte	W15
	.byte		N08	
	.byte	W09
	.byte		N14	, Dn2
	.byte	W24
	.byte		N23	, Gn2
	.byte	W24
	.byte			Gn1
	.byte	W24
	.byte	PATT	
		.word	song0020_3_10
	.byte	PATT	
		.word	song0020_3_11
	.byte	PATT	
		.word	song0020_3_10
	.byte	PATT	
		.word	song0020_3_11
	.byte	PATT	
		.word	song0020_3_10
	.byte	PATT	
		.word	song0020_3_11
	.byte	PATT	
		.word	song0020_3_12
	.byte	PATT	
		.word	song0020_3_13
	.byte	PATT	
		.word	song0020_3_10
	.byte	PATT	
		.word	song0020_3_14
	.byte	PATT	
		.word	song0020_3_15
	.byte	W15
	.byte		N08	, As1, v127
	.byte	W09
	.byte		N14	, Fn1
	.byte	W15
	.byte		N08	, Gn1
	.byte	W09
	.byte		N23	, As1
	.byte	W24
	.byte		N23	
	.byte	W24
	.byte		N10	, Bn1
	.byte	W24
	.byte		N14	
	.byte	W24
	.byte		N14	
	.byte	W15
	.byte		N08	, Cn2
	.byte	W09
	.byte		N14	, Dn2
	.byte	W15
	.byte		N17	, En2
	.byte	W09
	.byte	W15
	.byte		N08	
	.byte	W09
	.byte		N14	, Bn1
	.byte	W24
	.byte		N23	, En2
	.byte	W24
	.byte			Gs2
	.byte	W24
	.byte		N10	, An2
	.byte	W24
	.byte		N14	
	.byte	W24
	.byte		N23	
	.byte	W24
	.byte		N14	, En2
	.byte	W15
	.byte		N17	, An2
	.byte	W09
	.byte	W15
	.byte		N08	
	.byte	W09
	.byte		N23	, En2
	.byte	W24
	.byte			An2
	.byte	W24
	.byte			An1
	.byte	W24
	.byte		N10	, As1
	.byte	W24
	.byte		N14	
	.byte	W24
	.byte		N14	
	.byte	W15
	.byte		N08	, Cn2
	.byte	W09
	.byte		N14	, Dn2
	.byte	W15
	.byte		N17	, Ds2
	.byte	W09
	.byte	W15
	.byte		N08	
	.byte	W09
	.byte		N14	, As1
	.byte	W15
	.byte		N08	, Cn2
	.byte	W09
	.byte		N23	, Ds2
	.byte	W24
	.byte			As2
	.byte	W24
	.byte		N10	, Gs2
	.byte	W24
	.byte		N14	
	.byte	W24
	.byte		N14	
	.byte	W15
	.byte		N08	, Ds2
	.byte	W09
	.byte		N14	, Gs1
	.byte	W15
	.byte		N17	, Cs2
	.byte	W09
	.byte	W15
	.byte		N08	
	.byte	W09
	.byte		N14	, Gs1
	.byte	W15
	.byte		N08	, As1
	.byte	W09
	.byte		N23	, Cs2
	.byte	W24
	.byte		N23	
	.byte	W24
	.byte	GOTO	
		.word	song0020_3_16
	.byte	FINE

	@********************** Track  4 **********************@

	.global song0020_4
song0020_4:	@ 0x08C60BA9
	.byte	KEYSH	, 0
song0020_4_9:
	.byte	VOICE	, 66
	.byte	VOL	, v069
	.byte		N30	, Bn2, v127
	.byte	W36
	.byte	W03
	.byte		N48	
	.byte	W56
	.byte	W01
song0020_4_4:
	.byte		N28	, En3, v127
	.byte	W36
	.byte	W03
	.byte		N48	
	.byte	W56
	.byte	W01
	.byte	PEND
	.byte	W96
song0020_4_5:
	.byte	W16
	.byte		N02	, Gn3, v064
	.byte	W02
	.byte		N01	, Fs3, v076
	.byte	W02
	.byte		N03	, En3, v100
	.byte	W04
	.byte			Dn3, v080
	.byte	W03
	.byte			Cs3, v056
	.byte	W03
	.byte		N02	, Bn2, v084
	.byte	W03
	.byte		N03	, An2
	.byte	W04
	.byte		N02	, Gn2, v076
	.byte	W03
	.byte			Fs2, v080
	.byte	W02
	.byte			En2, v092
	.byte	W03
	.byte			Dn2, v080
	.byte	W02
	.byte		N03	, Cs2, v052
	.byte	W04
	.byte		N01	, Bn1, v024
	.byte	W02
	.byte			Gn1, v056
	.byte	W02
	.byte			Fs1, v072
	.byte	W01
	.byte		N09	, An1, v004
	.byte	W10
	.byte		N02	, Cs2, v100
	.byte	W03
	.byte			Dn2
	.byte	W03
	.byte			En2, v096
	.byte	W02
	.byte			Fs2, v092
	.byte	W03
	.byte			Gn2, v084
	.byte	W03
	.byte		N01	, An2, v088
	.byte	W01
	.byte			Bn2, v092
	.byte	W02
	.byte		N02	, Cs3
	.byte	W03
	.byte		N01	, Dn3, v096
	.byte	W02
	.byte		N02	, En3, v120
	.byte	W02
	.byte		N01	, Fs3
	.byte	W02
	.byte		N02	, Gn3, v116
	.byte	W02
	.byte		N01	, An3, v112
	.byte	W02
	.byte	PEND
song0020_4_1:
	.byte		N10	, En3, v096
	.byte	W24
	.byte		N09	, En3, v092
	.byte	W24
	.byte		N32	, En3, v096
	.byte	W36
	.byte	W03
	.byte		N44	
	.byte	W09
	.byte	PEND
	.byte	W48
	.byte		N32	, En3, v088
	.byte	W48
	.byte	PATT	
		.word	song0020_4_1
	.byte	W48
	.byte		N32	, En3, v088
	.byte	W48
	.byte	PATT	
		.word	song0020_4_1
	.byte	W48
	.byte		N32	, En3, v088
	.byte	W48
	.byte	W96
	.byte	W96
	.byte	PATT	
		.word	song0020_4_1
song0020_4_2:
	.byte	W48
	.byte		N23	, En3, v088
	.byte	W24
	.byte			Ds3
	.byte	W24
	.byte	PEND
song0020_4_3:
	.byte		N10	, Dn3, v096
	.byte	W24
	.byte		N09	, Dn3, v092
	.byte	W24
	.byte		N32	, Dn3, v096
	.byte	W36
	.byte	W03
	.byte		N44	
	.byte	W09
	.byte	PEND
	.byte	W48
	.byte		N32	, Dn3, v088
	.byte	W48
	.byte	W96
	.byte	W96
	.byte	W96
	.byte	W96
	.byte	W96
	.byte	W96
	.byte	W96
	.byte	W96
	.byte	PATT	
		.word	song0020_4_1
	.byte	W48
	.byte		N32	, En3, v088
	.byte	W48
	.byte	PATT	
		.word	song0020_4_1
	.byte	W48
	.byte		N32	, En3, v088
	.byte	W48
	.byte	PATT	
		.word	song0020_4_1
	.byte	W48
	.byte		N32	, En3, v088
	.byte	W48
	.byte	W96
	.byte	W96
	.byte	PATT	
		.word	song0020_4_1
	.byte	PATT	
		.word	song0020_4_2
	.byte	PATT	
		.word	song0020_4_3
	.byte	W48
	.byte		N32	, Dn3, v088
	.byte	W48
	.byte	W96
	.byte	W36
	.byte	W03
	.byte		N24	, Cn3, v096
	.byte	W56
	.byte	W01
	.byte	W96
	.byte	W72
	.byte		N23	, Cs3, v100
	.byte	W24
	.byte	PATT	
		.word	song0020_4_3
	.byte	W40
	.byte		N28	, Dn3, v112
	.byte	W32
	.byte		N19	, Dn3, v088
	.byte	W24
	.byte	W84
	.byte	W03
	.byte		N44	, Ds3, v096
	.byte	W09
	.byte	W40
	.byte		N28	, Ds3, v112
	.byte	W32
	.byte		N20	
	.byte	W24
	.byte		N30	, Bn2, v127
	.byte	W36
	.byte	W03
	.byte		N48	
	.byte	W56
	.byte	W01
	.byte	PATT	
		.word	song0020_4_4
	.byte	W96
	.byte	PATT	
		.word	song0020_4_5
	.byte	PATT	
		.word	song0020_4_1
	.byte	W48
	.byte		N32	, En3, v088
	.byte	W48
	.byte	PATT	
		.word	song0020_4_1
	.byte	W48
	.byte		N32	, En3, v088
	.byte	W48
song0020_4_6:
	.byte		N10	, Fn3, v096
	.byte	W24
	.byte		N09	, Fn3, v092
	.byte	W24
	.byte		N32	, Fn3, v096
	.byte	W36
	.byte	W03
	.byte		N44	
	.byte	W09
	.byte	PEND
	.byte	W48
	.byte		N32	, Fn3, v088
	.byte	W48
	.byte	PATT	
		.word	song0020_4_6
	.byte	W48
	.byte		N32	, Fn3, v088
	.byte	W48
	.byte	PATT	
		.word	song0020_4_6
	.byte	W48
	.byte		N32	, Fn3, v088
	.byte	W48
	.byte	W96
	.byte	W96
	.byte	PATT	
		.word	song0020_4_6
song0020_4_7:
	.byte	W48
	.byte		N23	, Fn3, v088
	.byte	W24
	.byte			En3
	.byte	W24
	.byte	PEND
song0020_4_8:
	.byte		N10	, Ds3, v096
	.byte	W24
	.byte		N09	, Ds3, v092
	.byte	W24
	.byte		N32	, Ds3, v096
	.byte	W36
	.byte	W03
	.byte		N44	
	.byte	W09
	.byte	PEND
	.byte	W48
	.byte		N32	, Ds3, v088
	.byte	W48
	.byte	W96
	.byte	W96
	.byte	W96
	.byte	W96
	.byte	W96
	.byte	W96
	.byte	W96
	.byte	W96
	.byte	PATT	
		.word	song0020_4_6
	.byte	W48
	.byte		N32	, Fn3, v088
	.byte	W48
	.byte	PATT	
		.word	song0020_4_6
	.byte	W48
	.byte		N32	, Fn3, v088
	.byte	W48
	.byte	PATT	
		.word	song0020_4_6
	.byte	W48
	.byte		N32	, Fn3, v088
	.byte	W48
	.byte	W96
	.byte	W96
	.byte	PATT	
		.word	song0020_4_6
	.byte	PATT	
		.word	song0020_4_7
	.byte	PATT	
		.word	song0020_4_8
	.byte	W48
	.byte		N32	, Ds3, v088
	.byte	W48
	.byte	W96
	.byte	W36
	.byte	W03
	.byte		N24	, Cs3, v096
	.byte	W56
	.byte	W01
	.byte	W96
	.byte	W72
	.byte		N23	, Dn3, v100
	.byte	W24
	.byte	PATT	
		.word	song0020_4_8
	.byte	W40
	.byte		N28	, Ds3, v112
	.byte	W32
	.byte		N19	, Ds3, v088
	.byte	W24
	.byte	W84
	.byte	W03
	.byte		N44	, En3, v096
	.byte	W09
	.byte	W40
	.byte		N28	, En3, v112
	.byte	W32
	.byte		N20	
	.byte	W24
	.byte	GOTO	
		.word	song0020_4_9
	.byte	FINE

	@********************** Track  5 **********************@

	.global song0020_5
song0020_5:	@ 0x08C60DB8
	.byte	KEYSH	, 0
song0020_5_4:
	.byte	VOICE	, 67
	.byte	VOL	, v069
	.byte		N30	, Ds3, v127
	.byte	W36
	.byte	W03
	.byte		N48	
	.byte	W56
	.byte	W01
	.byte	W96
song0020_5_2:
	.byte		N30	, Cs3, v127
	.byte	W36
	.byte	W03
	.byte		N15	
	.byte	W24
	.byte		N10	, Dn3
	.byte	W24
	.byte		N16	, Ds3
	.byte	W09
	.byte	PEND
	.byte	W96
	.byte	W96
	.byte	W96
	.byte	W96
	.byte	W96
	.byte	W96
	.byte	W96
song0020_5_1:
	.byte		N10	, Cs3, v096
	.byte	W24
	.byte		N09	, Cs3, v092
	.byte	W24
	.byte		N32	, Cs3, v096
	.byte	W36
	.byte	W03
	.byte		N44	
	.byte	W09
	.byte	PEND
	.byte	W48
	.byte		N32	, Cs3, v088
	.byte	W48
	.byte	W96
	.byte	W96
	.byte	W96
	.byte	W96
	.byte		N10	, Ds3, v096
	.byte	W24
	.byte		N09	, Ds3, v092
	.byte	W24
	.byte		N32	, Ds3, v096
	.byte	W36
	.byte	W03
	.byte		N44	
	.byte	W09
	.byte	W48
	.byte		N23	, Ds3, v088
	.byte	W24
	.byte			Dn3
	.byte	W24
	.byte	PATT	
		.word	song0020_5_1
	.byte	W48
	.byte		N23	, Cs3, v088
	.byte	W24
	.byte			Cn3
	.byte	W24
	.byte		N10	, Bn2, v096
	.byte	W24
	.byte		N09	, Bn2, v092
	.byte	W24
	.byte		N32	, Bn2, v096
	.byte	W36
	.byte	W03
	.byte		N44	
	.byte	W09
	.byte	W48
	.byte		N36	, Bn2, v088
	.byte	W48
	.byte	PATT	
		.word	song0020_5_1
	.byte	W40
	.byte		N28	, Ds3, v112
	.byte	W32
	.byte		N19	, Ds3, v088
	.byte	W24
	.byte	W96
	.byte	W96
	.byte	W96
	.byte	W96
	.byte	W96
	.byte	W96
	.byte	PATT	
		.word	song0020_5_1
	.byte	W48
	.byte		N32	, Cs3, v088
	.byte	W48
	.byte	W96
	.byte	W96
	.byte	W96
	.byte	W96
	.byte		N10	, Ds3, v096
	.byte	W24
	.byte		N09	, Ds3, v092
	.byte	W24
	.byte		N32	, Ds3, v096
	.byte	W36
	.byte	W03
	.byte		N44	, Cs3
	.byte	W09
	.byte	W72
	.byte		N18	, Cn3, v104
	.byte	W24
	.byte	PATT	
		.word	song0020_5_1
	.byte	W48
	.byte		N23	, Cs3, v088
	.byte	W48
	.byte	W96
	.byte	W96
	.byte		N10	, En3, v096
	.byte	W24
	.byte		N09	, En3, v092
	.byte	W24
	.byte		N32	, En3, v096
	.byte	W48
	.byte	W96
	.byte		N30	, Ds3, v127
	.byte	W36
	.byte	W03
	.byte		N48	
	.byte	W56
	.byte	W01
	.byte	W96
	.byte	PATT	
		.word	song0020_5_2
	.byte	W96
	.byte	W96
	.byte	W96
	.byte	W96
	.byte	W96
	.byte	W96
	.byte	W96
	.byte	W96
	.byte	W96
	.byte	W96
	.byte	W96
song0020_5_3:
	.byte		N10	, Dn3, v096
	.byte	W24
	.byte		N09	, Dn3, v092
	.byte	W24
	.byte		N32	, Dn3, v096
	.byte	W36
	.byte	W03
	.byte		N44	
	.byte	W09
	.byte	PEND
	.byte	W48
	.byte		N32	, Dn3, v088
	.byte	W48
	.byte	W96
	.byte	W96
	.byte	W96
	.byte	W96
	.byte		N10	, En3, v096
	.byte	W24
	.byte		N09	, En3, v092
	.byte	W24
	.byte		N32	, En3, v096
	.byte	W36
	.byte	W03
	.byte		N44	
	.byte	W09
	.byte	W48
	.byte		N23	, En3, v088
	.byte	W24
	.byte			Ds3
	.byte	W24
	.byte	PATT	
		.word	song0020_5_3
	.byte	W48
	.byte		N23	, Dn3, v088
	.byte	W24
	.byte			Cs3
	.byte	W24
	.byte		N10	, Cn3, v096
	.byte	W24
	.byte		N09	, Cn3, v092
	.byte	W24
	.byte		N32	, Cn3, v096
	.byte	W36
	.byte	W03
	.byte		N44	
	.byte	W09
	.byte	W48
	.byte		N36	, Cn3, v088
	.byte	W48
	.byte	PATT	
		.word	song0020_5_3
	.byte	W40
	.byte		N28	, En3, v112
	.byte	W32
	.byte		N19	, En3, v088
	.byte	W24
	.byte	W96
	.byte	W96
	.byte	W96
	.byte	W96
	.byte	W96
	.byte	W96
	.byte	PATT	
		.word	song0020_5_3
	.byte	W48
	.byte		N32	, Dn3, v088
	.byte	W48
	.byte	W96
	.byte	W96
	.byte	W96
	.byte	W96
	.byte		N10	, En3, v096
	.byte	W24
	.byte		N09	, En3, v092
	.byte	W24
	.byte		N32	, En3, v096
	.byte	W36
	.byte	W03
	.byte		N44	, Dn3
	.byte	W09
	.byte	W72
	.byte		N18	, Cs3, v104
	.byte	W24
	.byte	PATT	
		.word	song0020_5_3
	.byte	W48
	.byte		N23	, Dn3, v088
	.byte	W48
	.byte	W96
	.byte	W96
	.byte		N10	, Fn3, v096
	.byte	W24
	.byte		N09	, Fn3, v092
	.byte	W24
	.byte		N32	, Fn3, v096
	.byte	W48
	.byte	W96
	.byte	GOTO	
		.word	song0020_5_4
	.byte	FINE

	@********************** Track  6 **********************@

	.global song0020_6
song0020_6:	@ 0x08C60F39
	.byte	KEYSH	, 0
song0020_6_3:
	.byte	VOICE	, 68
	.byte	VOL	, v060
	.byte	W96
song0020_6_1:
	.byte		N30	, Fs3, v127
	.byte	W36
	.byte	W03
	.byte		N48	
	.byte	W56
	.byte	W01
	.byte	PEND
song0020_6_2:
	.byte		N30	, Bn3, v127
	.byte	W36
	.byte	W03
	.byte		N15	
	.byte	W24
	.byte		N10	, Cn4
	.byte	W24
	.byte		N16	, Cs4
	.byte	W09
	.byte	PEND
	.byte	W96
	.byte	W96
	.byte	W96
	.byte	W96
	.byte	W96
	.byte	W96
	.byte	W96
	.byte	W96
	.byte	W96
	.byte	W96
	.byte	W96
	.byte	W96
	.byte	W96
	.byte	W96
	.byte	W96
	.byte	W96
	.byte	W96
	.byte	W96
	.byte	W96
	.byte	W96
	.byte	W96
	.byte	W96
	.byte	W96
	.byte	W96
	.byte	W96
	.byte	W96
	.byte	W96
	.byte	W96
	.byte	W96
	.byte	W96
	.byte	W96
	.byte	W96
	.byte	W96
	.byte	W96
	.byte	W96
	.byte	W96
	.byte	W96
	.byte	W96
	.byte	W96
	.byte	W96
	.byte	W96
	.byte	W96
	.byte	PATT	
		.word	song0020_6_1
	.byte	PATT	
		.word	song0020_6_2
	.byte	W96
	.byte	W96
	.byte	W96
	.byte	W96
	.byte	W96
	.byte	W96
	.byte	W96
	.byte	W96
	.byte	W96
	.byte	W96
	.byte	W96
	.byte	W96
	.byte	W96
	.byte	W96
	.byte	W96
	.byte	W96
	.byte	W96
	.byte	W96
	.byte	W96
	.byte	W96
	.byte	W96
	.byte	W96
	.byte	W96
	.byte	W96
	.byte	W96
	.byte	W96
	.byte	W96
	.byte	W96
	.byte	W96
	.byte	W96
	.byte	W96
	.byte	W96
	.byte	W96
	.byte	W96
	.byte	W96
	.byte	W96
	.byte	W96
	.byte	W96
	.byte	W96
	.byte	W96
	.byte	W96
	.byte	W96
	.byte	W96
	.byte	W96
	.byte	W96
	.byte	GOTO	
		.word	song0020_6_3
	.byte	FINE

	@********************** Track  7 **********************@

	.global song0020_7
song0020_7:	@ 0x08C60FBE
	.byte	KEYSH	, 0
song0020_7_4:
	.byte	VOICE	, 78
	.byte	VOL	, v110
	.byte	W96
	.byte	W96
	.byte	W96
	.byte	W96
	.byte	W96
	.byte	W48
	.byte		N44	, Bn3, v108
	.byte	W48
song0020_7_1:
	.byte		N44	, Fs3, v112
	.byte	W48
	.byte			Gs3, v108
	.byte	W48
	.byte	PEND
song0020_7_2:
	.byte		N44	, Ds3, v104
	.byte	W48
	.byte			Fs3
	.byte	W48
	.byte	PEND
	.byte		TIE	, Bn2, v096
	.byte	W96
	.byte	W72
	.byte	W02
	.byte		EOT	
	.byte	W22
	.byte	W96
	.byte	W96
	.byte	W96
	.byte	W96
	.byte	W96
	.byte	W96
	.byte	W96
	.byte	W96
	.byte	W96
	.byte	W96
	.byte	W96
	.byte	W96
	.byte	W96
	.byte	W96
	.byte	W96
	.byte	W48
	.byte		N44	, Bn3, v108
	.byte	W48
	.byte	PATT	
		.word	song0020_7_1
	.byte	PATT	
		.word	song0020_7_2
	.byte		TIE	, Bn2, v096
	.byte	W96
	.byte	W72
	.byte	W02
	.byte		EOT	
	.byte	W22
	.byte	W96
	.byte	W96
	.byte	W96
	.byte	W96
	.byte	W96
	.byte	W96
	.byte		N44	, En2, v100
	.byte	W48
	.byte			En3, v096
	.byte	W48
	.byte			Ds3, v120
	.byte	W48
	.byte			Gn3, v108
	.byte	W48
	.byte			Gs3, v120
	.byte	W48
	.byte			Ds3, v108
	.byte	W48
	.byte			Gs3
	.byte	W48
	.byte			Bn3, v096
	.byte	W48
	.byte			Cs4, v100
	.byte	W96
	.byte	W96
	.byte	W96
	.byte	W96
	.byte	W96
	.byte	W96
	.byte	W96
	.byte	W96
	.byte	W96
	.byte	W48
	.byte			Bn3, v108
	.byte	W48
	.byte	PATT	
		.word	song0020_7_1
	.byte	PATT	
		.word	song0020_7_2
	.byte	W48
	.byte		N44	, Cn4, v108
	.byte	W48
song0020_7_3:
	.byte		N44	, Gn3, v112
	.byte	W48
	.byte			An3, v108
	.byte	W48
	.byte	PEND
	.byte			En3, v104
	.byte	W48
	.byte			Gn3
	.byte	W48
	.byte		TIE	, Cn3, v096
	.byte	W96
	.byte	W72
	.byte	W02
	.byte		EOT	
	.byte	W22
	.byte	W96
	.byte	W96
	.byte	W96
	.byte	W96
	.byte	W96
	.byte	W96
	.byte	W96
	.byte	W96
	.byte	W96
	.byte	W96
	.byte	W96
	.byte	W96
	.byte	W96
	.byte	W96
	.byte	W96
	.byte	W96
	.byte	W48
	.byte		N44	, Cn4, v108
	.byte	W48
	.byte	PATT	
		.word	song0020_7_3
	.byte		N44	, En3, v104
	.byte	W48
	.byte			Gn3
	.byte	W48
	.byte		TIE	, Cn3, v096
	.byte	W96
	.byte	W72
	.byte	W02
	.byte		EOT	
	.byte	W22
	.byte	W96
	.byte	W96
	.byte	W96
	.byte	W96
	.byte	W96
	.byte	W96
	.byte		N44	, Fn2, v100
	.byte	W48
	.byte			Fn3, v096
	.byte	W48
	.byte			En3, v120
	.byte	W48
	.byte			Gs3, v108
	.byte	W48
	.byte			An3, v120
	.byte	W48
	.byte			En3, v108
	.byte	W48
	.byte			An3
	.byte	W48
	.byte			Cn4, v096
	.byte	W48
	.byte			Dn4, v100
	.byte	W96
	.byte	W96
	.byte	W96
	.byte	W96
	.byte	GOTO	
		.word	song0020_7_4
	.byte	FINE

	@********************** Track  8 **********************@

	.global song0020_8
song0020_8:	@ 0x08C610AE
	.byte	KEYSH	, 0
song0020_8_1:
	.byte	VOICE	, 65
	.byte	VOL	, v086
	.byte	W96
	.byte	W96
	.byte	W96
	.byte	W96
	.byte	W96
	.byte	W96
	.byte	W96
	.byte	W96
	.byte	W96
	.byte	W96
	.byte	W96
	.byte	W96
	.byte	W96
	.byte	W96
	.byte	W96
	.byte	W96
	.byte	W96
	.byte	W96
	.byte	W96
	.byte	W96
	.byte	W96
	.byte	W96
	.byte	W96
	.byte	W96
	.byte	W96
	.byte	W96
	.byte	W96
	.byte	W96
	.byte	W96
	.byte		N23	, Fs4, v108
	.byte	W24
	.byte			Bn3, v100
	.byte	W24
	.byte			Ds4, v104
	.byte	W24
	.byte			Fs3, v108
	.byte	W24
	.byte		N56	, Bn3, v096
	.byte	W96
	.byte	W96
	.byte	W96
	.byte		N23	, Fs4, v108
	.byte	W24
	.byte			Bn3, v100
	.byte	W24
	.byte			Ds4, v104
	.byte	W24
	.byte			Dn4, v108
	.byte	W24
	.byte		N56	, Cs4, v096
	.byte	W96
	.byte	W96
	.byte	W96
	.byte	W96
	.byte	W96
	.byte	W96
	.byte	W96
	.byte	W96
	.byte	W96
	.byte	W96
	.byte	W96
	.byte	W96
	.byte	W96
	.byte	W96
	.byte	W96
	.byte	W96
	.byte	W96
	.byte	W96
	.byte	W96
	.byte	W96
	.byte	W96
	.byte	W96
	.byte	W96
	.byte	W96
	.byte	W96
	.byte	W96
	.byte	W96
	.byte	W96
	.byte	W96
	.byte	W96
	.byte	W96
	.byte	W96
	.byte	W96
	.byte	W96
	.byte	W96
	.byte	W96
	.byte	W96
	.byte	W96
	.byte	W96
	.byte	W96
	.byte	W96
	.byte	W96
	.byte	W96
	.byte		N23	, Gn4, v108
	.byte	W24
	.byte			Cn4, v100
	.byte	W24
	.byte			En4, v104
	.byte	W24
	.byte			Gn3, v108
	.byte	W24
	.byte		N56	, Cn4, v096
	.byte	W96
	.byte	W96
	.byte	W96
	.byte		N23	, Gn4, v108
	.byte	W24
	.byte			Cn4, v100
	.byte	W24
	.byte			En4, v104
	.byte	W24
	.byte			Ds4, v108
	.byte	W24
	.byte		N56	, Dn4, v096
	.byte	W96
	.byte	W96
	.byte	W96
	.byte	W96
	.byte	W96
	.byte	W96
	.byte	W96
	.byte	W96
	.byte	W96
	.byte	W96
	.byte	GOTO	
		.word	song0020_8_1
	.byte	FINE

	@********************** Track  9 **********************@

	.global song0020_9
song0020_9:	@ 0x08C61152
	.byte	KEYSH	, 0
song0020_9_4:
	.byte	VOICE	, 1
	.byte	VOL	, v051
	.byte		N30	, Fs3, v076
	.byte	W36
	.byte	W03
	.byte		N48	, Fs3, v072
	.byte	W56
	.byte	W01
	.byte		N30	, Fs3, v096
	.byte	W36
	.byte	W03
	.byte		N52	, Fs3, v080
	.byte	W56
	.byte	W01
	.byte		N28	, Gs3, v092
	.byte	W36
	.byte	W03
	.byte		N15	, Gs3, v088
	.byte	W24
	.byte		N13	, An3
	.byte	W24
	.byte		N32	, As3, v096
	.byte	W09
	.byte	W36
	.byte	W03
	.byte		N56	, Cs4, v100
	.byte	W56
	.byte	W01
	.byte		N22	, Ds4, v092
	.byte	W96
	.byte	W96
	.byte	W72
	.byte	VOL	, v080
	.byte	W03
	.byte		v080
	.byte	W13
	.byte		TIE	, Fs4, v036
	.byte	W05
	.byte	VOL	, v080
	.byte	W01
	.byte		v072
	.byte	W01
	.byte		v066
	.byte	W01
song0020_9_1:
	.byte	VOL	, v058
	.byte	W01
	.byte		v049
	.byte	W01
	.byte		v044
	.byte	W01
	.byte		v035
	.byte	W01
	.byte		v026
	.byte	W01
	.byte		v025
	.byte	W01
	.byte		v026
	.byte	W01
	.byte		v027
	.byte	W01
	.byte		v028
	.byte	W01
	.byte		v029
	.byte	W01
	.byte		v030
	.byte	W01
	.byte		v031
	.byte	W01
	.byte		v032
	.byte	W01
	.byte		v032
	.byte	W01
	.byte		v033
	.byte	W01
	.byte		v034
	.byte	W01
	.byte		v035
	.byte	W01
	.byte		v037
	.byte	W01
	.byte		v038
	.byte	W01
	.byte		v038
	.byte	W01
	.byte		v039
	.byte	W01
	.byte		v040
	.byte	W01
	.byte		v041
	.byte	W01
	.byte		v042
	.byte	W01
	.byte		v043
	.byte	W01
	.byte		v044
	.byte	W01
	.byte		v045
	.byte	W01
	.byte		v045
	.byte	W01
	.byte		v046
	.byte	W01
	.byte		v048
	.byte	W01
	.byte		v049
	.byte	W01
	.byte		v050
	.byte	W01
	.byte		v051
	.byte	W01
	.byte		v051
	.byte	W01
	.byte		v052
	.byte	W01
	.byte		v053
	.byte	W01
	.byte		v054
	.byte	W01
	.byte		v055
	.byte	W01
	.byte		v056
	.byte	W01
	.byte		v057
	.byte	W01
	.byte		v058
	.byte	W01
	.byte		v058
	.byte	W01
	.byte		v060
	.byte	W01
	.byte		v061
	.byte	W01
	.byte		v062
	.byte	W01
	.byte		v063
	.byte	W01
	.byte		v064
	.byte	W01
	.byte		v064
	.byte	W01
	.byte		v065
	.byte	W01
	.byte		v066
	.byte	W01
	.byte		v067
	.byte	W01
	.byte		v068
	.byte	W01
	.byte		v069
	.byte	W01
	.byte		v070
	.byte	W01
	.byte		v071
	.byte	W01
	.byte		v072
	.byte	W01
	.byte		v073
	.byte	W01
	.byte		v074
	.byte	W01
	.byte		v075
	.byte	W01
	.byte		v076
	.byte	W01
	.byte		v077
	.byte	W01
	.byte		v077
	.byte	W01
	.byte		v078
	.byte	W01
	.byte		v080
	.byte	W32
	.byte	W01
	.byte	PEND
	.byte		EOT	, Fs4
	.byte	W96
	.byte	W96
	.byte	W96
	.byte	W96
	.byte	W96
	.byte	W96
	.byte	W96
	.byte	W96
	.byte	W96
	.byte	W96
	.byte	W96
	.byte	W96
	.byte	W96
	.byte	W96
	.byte	W96
	.byte	W96
	.byte	W96
song0020_9_2:
	.byte	VOICE	, 1
	.byte	VOL	, v051
	.byte	W96
	.byte	PEND
	.byte		v080
	.byte	W03
	.byte		v080
	.byte	W13
	.byte		TIE	, Fs4, v036
	.byte	W05
	.byte	VOL	, v080
	.byte	W01
	.byte		v072
	.byte	W01
	.byte		v066
	.byte	W01
	.byte		v058
	.byte	W01
	.byte		v049
	.byte	W01
	.byte		v044
	.byte	W01
	.byte		v035
	.byte	W01
	.byte		v026
	.byte	W01
	.byte		v025
	.byte	W03
	.byte		v026
	.byte	W02
	.byte		v027
	.byte	W02
	.byte		v028
	.byte	W01
	.byte		v029
	.byte	W02
	.byte		v030
	.byte	W02
	.byte		v031
	.byte	W02
	.byte		v032
	.byte	W01
	.byte		v032
	.byte	W02
	.byte		v033
	.byte	W02
	.byte		v034
	.byte	W02
	.byte		v035
	.byte	W01
	.byte		v036
	.byte	W02
	.byte		v037
	.byte	W02
	.byte		v038
	.byte	W02
	.byte		v038
	.byte	W01
	.byte		v039
	.byte	W02
	.byte		v040
	.byte	W02
	.byte		v041
	.byte	W02
	.byte		v042
	.byte	W01
	.byte		v043
	.byte	W02
	.byte		v044
	.byte	W02
	.byte		v045
	.byte	W02
	.byte		v045
	.byte	W01
	.byte		v046
	.byte	W02
	.byte		v047
	.byte	W02
	.byte		v048
	.byte	W02
	.byte		v049
	.byte	W01
	.byte		v050
	.byte	W02
	.byte		v051
	.byte	W02
	.byte		v051
	.byte	W02
	.byte		v052
	.byte	W01
	.byte		v053
	.byte	W02
	.byte		v054
	.byte	W02
	.byte		v055
	.byte	W02
	.byte		v056
	.byte	W01
	.byte		v057
	.byte	W02
	.byte		v058
	.byte	W01
song0020_9_3:
	.byte	W01
	.byte	VOL	, v058
	.byte	W02
	.byte		v059
	.byte	W01
	.byte		v060
	.byte	W02
	.byte		v061
	.byte	W02
	.byte		v062
	.byte	W02
	.byte		v063
	.byte	W01
	.byte		v064
	.byte	W02
	.byte		v064
	.byte	W02
	.byte		v065
	.byte	W02
	.byte		v066
	.byte	W01
	.byte		v067
	.byte	W02
	.byte		v068
	.byte	W02
	.byte		v069
	.byte	W02
	.byte		v070
	.byte	W01
	.byte		v071
	.byte	W02
	.byte		v071
	.byte	W02
	.byte		v072
	.byte	W02
	.byte		v073
	.byte	W01
	.byte		v074
	.byte	W02
	.byte		v075
	.byte	W02
	.byte		v076
	.byte	W02
	.byte		v077
	.byte	W01
	.byte		v077
	.byte	W02
	.byte		v078
	.byte	W02
	.byte		v079
	.byte	W01
	.byte		v080
	.byte	W52
	.byte	PEND
	.byte		EOT	, Fs4
	.byte	VOICE	, 56
	.byte	VOL	, v051
	.byte	W04
	.byte		N36	, Ds4, v112
	.byte	W32
	.byte	W03
	.byte		N90	, Bn3
	.byte	W56
	.byte	W01
	.byte	W48
	.byte		N23	, Ds4, v108
	.byte	W24
	.byte			Cs4, v116
	.byte	W24
	.byte		TIE	, Bn3, v096
	.byte	W96
	.byte	W36
	.byte		EOT	
	.byte	W36
	.byte		N23	, Ds3, v108
	.byte	W24
	.byte		N32	, Ds4, v112
	.byte	W36
	.byte	W03
	.byte		N92	, Bn3, v104
	.byte	W56
	.byte	W01
	.byte	W48
	.byte		N23	, Ds4
	.byte	W24
	.byte			Dn4
	.byte	W24
	.byte		TIE	, Cs4, v120
	.byte	W96
	.byte	W30
	.byte	W01
	.byte		EOT	
	.byte	W17
	.byte	VOICE	, 1
	.byte	VOL	, v051
	.byte	W48
	.byte		N78	, En3, v108
	.byte	W84
	.byte		N05	, Fs3, v080
	.byte	W06
	.byte			En3, v072
	.byte	W06
	.byte		N42	, Ds3, v104
	.byte	W48
	.byte		N23	, Ds3, v092
	.byte	W24
	.byte			Gn3, v104
	.byte	W24
	.byte		N42	, Gs3, v084
	.byte	W48
	.byte		N23	, Gs3, v100
	.byte	W24
	.byte		N14	, Ds3, v080
	.byte	W15
	.byte		N32	, Gs3, v096
	.byte	W09
	.byte	W24
	.byte		N23	, Ds3, v100
	.byte	W24
	.byte			Gs3
	.byte	W24
	.byte			Bn3, v096
	.byte	W24
	.byte		N36	, Gs3, v104
	.byte	W36
	.byte	W03
	.byte		N30	, Bn3, v116
	.byte	W32
	.byte	W01
	.byte		N18	, Gs3
	.byte	W24
	.byte		N32	, An3, v100
	.byte	W36
	.byte	W03
	.byte		N56	, Cs3, v112
	.byte	W56
	.byte	W01
	.byte	W96
	.byte	W96
	.byte		N30	, Fs3, v104
	.byte	W36
	.byte	W03
	.byte		N48	, Fs3, v100
	.byte	W56
	.byte	W01
	.byte		N30	, Fs3, v124
	.byte	W36
	.byte	W03
	.byte		N52	, Fs3, v112
	.byte	W56
	.byte	W01
	.byte		N28	, Gs3, v120
	.byte	W36
	.byte	W03
	.byte		N15	, Gs3, v116
	.byte	W24
	.byte		N13	, An3, v120
	.byte	W24
	.byte		N32	, As3, v124
	.byte	W09
	.byte	W36
	.byte	W03
	.byte		N56	, Cs4, v127
	.byte	W56
	.byte	W01
	.byte		N22	, Ds4, v120
	.byte	W96
	.byte	W96
	.byte	W72
	.byte	VOL	, v080
	.byte	W03
	.byte		v080
	.byte	W13
	.byte		TIE	, Fs4, v064
	.byte	W05
	.byte	VOL	, v080
	.byte	W01
	.byte		v072
	.byte	W01
	.byte		v066
	.byte	W01
	.byte	PATT	
		.word	song0020_9_1
	.byte		EOT	, Fs4
	.byte	W96
	.byte	W96
	.byte	W72
	.byte	VOL	, v080
	.byte	W03
	.byte		v080
	.byte	W13
	.byte		TIE	, Gn4, v064
	.byte	W05
	.byte	VOL	, v080
	.byte	W01
	.byte		v072
	.byte	W01
	.byte		v066
	.byte	W01
	.byte	PATT	
		.word	song0020_9_1
	.byte		EOT	, Gn4
	.byte	W96
	.byte	W96
	.byte	W96
	.byte	W96
	.byte	W96
	.byte	W96
	.byte	W96
	.byte	W96
	.byte	W96
	.byte	W96
	.byte	W96
	.byte	W96
	.byte	W96
	.byte	W96
	.byte	W96
	.byte	W96
	.byte	W96
	.byte	PATT	
		.word	song0020_9_2
	.byte	VOL	, v080
	.byte	W03
	.byte		v080
	.byte	W13
	.byte		TIE	, Gn4, v036
	.byte	W05
	.byte	VOL	, v080
	.byte	W01
	.byte		v072
	.byte	W01
	.byte		v066
	.byte	W01
	.byte		v058
	.byte	W01
	.byte		v049
	.byte	W01
	.byte		v044
	.byte	W01
	.byte		v035
	.byte	W01
	.byte		v026
	.byte	W01
	.byte		v025
	.byte	W03
	.byte		v026
	.byte	W02
	.byte		v027
	.byte	W02
	.byte		v028
	.byte	W01
	.byte		v029
	.byte	W02
	.byte		v030
	.byte	W02
	.byte		v031
	.byte	W02
	.byte		v032
	.byte	W01
	.byte		v032
	.byte	W02
	.byte		v033
	.byte	W02
	.byte		v034
	.byte	W02
	.byte		v035
	.byte	W01
	.byte		v036
	.byte	W02
	.byte		v037
	.byte	W02
	.byte		v038
	.byte	W02
	.byte		v038
	.byte	W01
	.byte		v039
	.byte	W02
	.byte		v040
	.byte	W02
	.byte		v041
	.byte	W02
	.byte		v042
	.byte	W01
	.byte		v043
	.byte	W02
	.byte		v044
	.byte	W02
	.byte		v045
	.byte	W02
	.byte		v045
	.byte	W01
	.byte		v046
	.byte	W02
	.byte		v047
	.byte	W02
	.byte		v048
	.byte	W02
	.byte		v049
	.byte	W01
	.byte		v050
	.byte	W02
	.byte		v051
	.byte	W02
	.byte		v051
	.byte	W02
	.byte		v052
	.byte	W01
	.byte		v053
	.byte	W02
	.byte		v054
	.byte	W02
	.byte		v055
	.byte	W02
	.byte		v056
	.byte	W01
	.byte		v057
	.byte	W02
	.byte		v058
	.byte	W01
	.byte	PATT	
		.word	song0020_9_3
	.byte		EOT	, Gn4
	.byte	VOICE	, 56
	.byte	VOL	, v051
	.byte	W96
	.byte	W96
	.byte	W96
	.byte	W96
	.byte	W96
	.byte	W96
	.byte	W96
	.byte	W48
	.byte	VOICE	, 1
	.byte	VOL	, v051
	.byte	W48
	.byte	W96
	.byte	W96
	.byte	W96
	.byte	W96
	.byte	W96
	.byte	W96
	.byte	W96
	.byte	W96
	.byte	GOTO	
		.word	song0020_9_4
	.byte	FINE

	@********************** Track  10 **********************@

	.global song0020_10
song0020_10:	@ 0x08C6145F
	.byte	KEYSH	, 0
song0020_10_4:
	.byte	VOICE	, 12
	.byte	VOL	, v064
	.byte	BENDR	, 12
	.byte		N04	, Cs6, v068
	.byte	W04
	.byte			As5, v080
	.byte	W04
	.byte			Fs5, v056
	.byte	W04
	.byte			As5, v080
	.byte	W04
	.byte			Fs5
	.byte	W04
	.byte			Cs5, v076
	.byte	W04
	.byte			Fs5, v084
	.byte	W04
	.byte			Cs5, v064
	.byte	W04
	.byte			As4, v096
	.byte	W04
	.byte			Cs5, v080
	.byte	W04
	.byte			As4, v096
	.byte	W04
	.byte			Fs4, v084
	.byte	W04
	.byte			As4, v096
	.byte	W04
	.byte			Fs4, v088
	.byte	W04
	.byte			Cs4, v068
	.byte	W04
	.byte			Fs4, v084
	.byte	W04
	.byte			Cs4, v076
	.byte	W04
	.byte			As3, v088
	.byte	W04
	.byte			Cs4, v076
	.byte	W04
	.byte			As3, v088
	.byte	W04
	.byte			Fs3, v068
	.byte	W04
	.byte			As3, v092
	.byte	W04
	.byte			Fs3, v084
	.byte	W04
	.byte			Cs3, v068
	.byte	W04
song0020_10_1:
	.byte		N04	, Ds6, v088
	.byte	W04
	.byte			Bn5, v092
	.byte	W04
	.byte			Fs5, v076
	.byte	W04
	.byte			Bn5, v084
	.byte	W04
	.byte			Fs5, v076
	.byte	W04
	.byte			Ds5, v088
	.byte	W04
	.byte			Fs5
	.byte	W04
	.byte			Ds5
	.byte	W04
	.byte			Bn4, v076
	.byte	W04
	.byte			Ds5, v084
	.byte	W04
	.byte			Bn4
	.byte	W04
	.byte			Fs4, v068
	.byte	W04
	.byte			Bn4, v072
	.byte	W04
	.byte			Fs4, v080
	.byte	W04
	.byte			Ds4, v088
	.byte	W04
	.byte			Fs4, v084
	.byte	W04
	.byte			Ds4, v092
	.byte	W04
	.byte			Bn3, v080
	.byte	W04
	.byte			Ds4, v076
	.byte	W04
	.byte			Bn3, v084
	.byte	W04
	.byte			Fs3, v072
	.byte	W04
	.byte			Bn3, v084
	.byte	W04
	.byte			Fs3, v076
	.byte	W04
	.byte			Ds3, v084
	.byte	W04
	.byte	PEND
song0020_10_2:
	.byte		N04	, En6, v084
	.byte	W04
	.byte			Bn5
	.byte	W04
	.byte			Gs5, v088
	.byte	W04
	.byte			Bn5, v084
	.byte	W04
	.byte			Gs5, v088
	.byte	W04
	.byte			En5, v056
	.byte	W04
	.byte			Gs5, v076
	.byte	W04
	.byte			En5
	.byte	W04
	.byte			Bn4, v056
	.byte	W04
	.byte			En5, v084
	.byte	W04
	.byte			Bn4, v080
	.byte	W04
	.byte			Gs4
	.byte	W04
	.byte			Bn4
	.byte	W04
	.byte			Gs4
	.byte	W04
	.byte			En4, v072
	.byte	W04
	.byte			Gs4, v080
	.byte	W04
	.byte			En4, v076
	.byte	W04
	.byte			Bn3, v068
	.byte	W04
	.byte			En4, v076
	.byte	W04
	.byte			Bn3, v080
	.byte	W04
	.byte			Gs3
	.byte	W04
	.byte			Bn3, v084
	.byte	W04
	.byte			Gs3, v080
	.byte	W04
	.byte			En3, v076
	.byte	W04
	.byte	PEND
song0020_10_3:
	.byte		N04	, Cs3, v072
	.byte	W04
	.byte			Fs3, v084
	.byte	W04
	.byte			As3, v080
	.byte	W04
	.byte			Fs3, v084
	.byte	W04
	.byte			As3, v076
	.byte	W04
	.byte			Cs4, v084
	.byte	W04
	.byte			As3
	.byte	W04
	.byte			Cs4
	.byte	W04
	.byte			Fs4, v096
	.byte	W04
	.byte			Cs4, v080
	.byte	W04
	.byte			Fs4, v084
	.byte	W04
	.byte			As4, v104
	.byte	W04
	.byte			Fs4, v088
	.byte	W04
	.byte			As4, v100
	.byte	W04
	.byte			Cs5, v076
	.byte	W04
	.byte			As4, v084
	.byte	W04
	.byte			Cs5, v076
	.byte	W04
	.byte			Fs5, v084
	.byte	W04
	.byte			Cs5, v056
	.byte	W04
	.byte			Fs5, v076
	.byte	W04
	.byte			As5, v072
	.byte	W04
	.byte			Fs5, v092
	.byte	W04
	.byte			As5, v080
	.byte	W04
	.byte			Cs6, v088
	.byte	W04
	.byte	PEND
	.byte	W96
	.byte	W96
	.byte	W96
	.byte	W96
	.byte	W96
	.byte	W96
	.byte	W96
	.byte	W96
	.byte	W96
	.byte	W96
	.byte	W96
	.byte	W96
	.byte	W96
	.byte	W96
	.byte	W96
	.byte	W96
	.byte	W96
	.byte	W96
	.byte	W96
	.byte	W96
	.byte			Fs5, v096
	.byte	W04
	.byte			Bn5
	.byte	W04
	.byte			Fs5, v092
	.byte	W04
	.byte			Ds5
	.byte	W04
	.byte			Fs5, v088
	.byte	W04
	.byte			Ds5
	.byte	W04
	.byte			Bn4, v084
	.byte	W04
	.byte			Ds5
	.byte	W04
	.byte			Bn4, v080
	.byte	W04
	.byte			Fs4
	.byte	W04
	.byte			Bn4, v076
	.byte	W04
	.byte			Fs4
	.byte	W04
	.byte			Ds4, v072
	.byte	W04
	.byte			Fs4
	.byte	W04
	.byte			Ds4, v068
	.byte	W04
	.byte			Bn3
	.byte	W04
	.byte			Ds4, v064
	.byte	W04
	.byte			Bn3, v060
	.byte	W04
	.byte			Fs3
	.byte	W04
	.byte			Bn3, v056
	.byte	W04
	.byte			Fs3
	.byte	W04
	.byte			Ds3, v052
	.byte	W04
	.byte			Fs3
	.byte	W04
	.byte			Ds3, v048
	.byte	W04
	.byte			Fs4, v088
	.byte	W04
	.byte			Bn4, v084
	.byte	W04
	.byte			Fs4
	.byte	W04
	.byte			Ds4, v080
	.byte	W04
	.byte			Fs4
	.byte	W04
	.byte			Ds4, v076
	.byte	W04
	.byte			Bn3, v072
	.byte	W04
	.byte			Ds4
	.byte	W04
	.byte			Bn3, v068
	.byte	W04
	.byte			Fs3
	.byte	W04
	.byte			Bn3, v064
	.byte	W04
	.byte			Fs3
	.byte	W04
	.byte			Ds3, v060
	.byte	W04
	.byte			Fs3, v056
	.byte	W04
	.byte			Ds3
	.byte	W04
	.byte			Bn2, v052
	.byte	W04
	.byte			Ds3
	.byte	W04
	.byte			Bn2, v048
	.byte	W04
	.byte			Fs2, v044
	.byte	W04
	.byte			Bn2
	.byte	W04
	.byte			Fs2, v040
	.byte	W04
	.byte			Ds2
	.byte	W04
	.byte			Fs2, v036
	.byte	W04
	.byte			Ds2
	.byte	W04
	.byte			Bn2
	.byte	W04
	.byte			Ds3, v040
	.byte	W04
	.byte			Bn2
	.byte	W04
	.byte			Ds3, v044
	.byte	W04
	.byte			Fs3
	.byte	W04
	.byte			Ds3, v048
	.byte	W04
	.byte			Fs3
	.byte	W04
	.byte			Bn3, v052
	.byte	W04
	.byte			Fs3
	.byte	W04
	.byte			Bn3, v056
	.byte	W04
	.byte			Ds4
	.byte	W04
	.byte			Bn3, v060
	.byte	W04
	.byte			Ds4
	.byte	W04
	.byte			Fs4, v064
	.byte	W04
	.byte			Ds4
	.byte	W04
	.byte			Fs4, v068
	.byte	W04
	.byte			Bn4, v072
	.byte	W04
	.byte			Fs4
	.byte	W04
	.byte			Bn4, v076
	.byte	W04
	.byte			Ds5
	.byte	W04
	.byte			Bn4, v080
	.byte	W04
	.byte			Ds5
	.byte	W04
	.byte			Fs5, v084
	.byte	W04
	.byte			Ds5
	.byte	W04
	.byte			Bn3, v036
	.byte	W04
	.byte			Ds4, v040
	.byte	W04
	.byte			Bn3
	.byte	W04
	.byte			Ds4, v044
	.byte	W04
	.byte			Fs4, v048
	.byte	W04
	.byte			Ds4, v052
	.byte	W04
	.byte			Fs4
	.byte	W04
	.byte			Bn4, v056
	.byte	W04
	.byte			Fs4, v060
	.byte	W04
	.byte			Bn4, v064
	.byte	W04
	.byte			Ds5
	.byte	W04
	.byte			Bn4, v068
	.byte	W04
	.byte			Ds5, v072
	.byte	W04
	.byte			Fs5, v076
	.byte	W04
	.byte			Ds5
	.byte	W04
	.byte			Fs5, v080
	.byte	W04
	.byte			Bn5, v084
	.byte	W04
	.byte			Fs5, v088
	.byte	W04
	.byte			Bn5
	.byte	W04
	.byte			Ds6, v092
	.byte	W04
	.byte			Bn5, v096
	.byte	W04
	.byte			Ds6, v100
	.byte	W04
	.byte			Fs6
	.byte	W04
	.byte			Ds6, v104
	.byte	W04
	.byte	W96
	.byte	W96
	.byte	W96
	.byte	W96
	.byte	W96
	.byte	W96
	.byte	W96
	.byte	W96
	.byte	W96
	.byte	W96
	.byte	W96
	.byte	W96
	.byte	W96
	.byte	W96
	.byte	W96
	.byte	W96
	.byte			Cs6, v068
	.byte	W04
	.byte			As5, v080
	.byte	W04
	.byte			Fs5, v056
	.byte	W04
	.byte			As5, v080
	.byte	W04
	.byte			Fs5
	.byte	W04
	.byte			Cs5, v076
	.byte	W04
	.byte			Fs5, v084
	.byte	W04
	.byte			Cs5, v064
	.byte	W04
	.byte			As4, v096
	.byte	W04
	.byte			Cs5, v080
	.byte	W04
	.byte			As4, v096
	.byte	W04
	.byte			Fs4, v084
	.byte	W04
	.byte			As4, v096
	.byte	W04
	.byte			Fs4, v088
	.byte	W04
	.byte			Cs4, v068
	.byte	W04
	.byte			Fs4, v084
	.byte	W04
	.byte			Cs4, v076
	.byte	W04
	.byte			As3, v088
	.byte	W04
	.byte			Cs4, v076
	.byte	W04
	.byte			As3, v088
	.byte	W04
	.byte			Fs3, v068
	.byte	W04
	.byte			As3, v092
	.byte	W04
	.byte			Fs3, v084
	.byte	W04
	.byte			Cs3, v068
	.byte	W04
	.byte	PATT	
		.word	song0020_10_1
	.byte	PATT	
		.word	song0020_10_2
	.byte	PATT	
		.word	song0020_10_3
	.byte	W96
	.byte	W96
	.byte	W96
	.byte	W96
	.byte	W96
	.byte	W96
	.byte	W96
	.byte	W96
	.byte	W96
	.byte	W96
	.byte	W96
	.byte	W96
	.byte	W96
	.byte	W96
	.byte	W96
	.byte	W96
	.byte	W96
	.byte	W96
	.byte	W96
	.byte	W96
	.byte	W96
	.byte	W96
	.byte	W96
	.byte	W96
	.byte		N04	, Gn5, v096
	.byte	W04
	.byte			Cn6
	.byte	W04
	.byte			Gn5, v092
	.byte	W04
	.byte			En5
	.byte	W04
	.byte			Gn5, v088
	.byte	W04
	.byte			En5
	.byte	W04
	.byte			Cn5, v084
	.byte	W04
	.byte			En5
	.byte	W04
	.byte			Cn5, v080
	.byte	W04
	.byte			Gn4
	.byte	W04
	.byte			Cn5, v076
	.byte	W04
	.byte			Gn4
	.byte	W04
	.byte			En4, v072
	.byte	W04
	.byte			Gn4
	.byte	W04
	.byte			En4, v068
	.byte	W04
	.byte			Cn4
	.byte	W04
	.byte			En4, v064
	.byte	W04
	.byte			Cn4, v060
	.byte	W04
	.byte			Gn3
	.byte	W04
	.byte			Cn4, v056
	.byte	W04
	.byte			Gn3
	.byte	W04
	.byte			En3, v052
	.byte	W04
	.byte			Gn3
	.byte	W04
	.byte			En3, v048
	.byte	W04
	.byte			Gn4, v088
	.byte	W04
	.byte			Cn5, v084
	.byte	W04
	.byte			Gn4
	.byte	W04
	.byte			En4, v080
	.byte	W04
	.byte			Gn4
	.byte	W04
	.byte			En4, v076
	.byte	W04
	.byte			Cn4, v072
	.byte	W04
	.byte			En4
	.byte	W04
	.byte			Cn4, v068
	.byte	W04
	.byte			Gn3
	.byte	W04
	.byte			Cn4, v064
	.byte	W04
	.byte			Gn3
	.byte	W04
	.byte			En3, v060
	.byte	W04
	.byte			Gn3, v056
	.byte	W04
	.byte			En3
	.byte	W04
	.byte			Cn3, v052
	.byte	W04
	.byte			En3
	.byte	W04
	.byte			Cn3, v048
	.byte	W04
	.byte			Gn2, v044
	.byte	W04
	.byte			Cn3
	.byte	W04
	.byte			Gn2, v040
	.byte	W04
	.byte			En2
	.byte	W04
	.byte			Gn2, v036
	.byte	W04
	.byte			En2
	.byte	W04
	.byte			Cn3
	.byte	W04
	.byte			En3, v040
	.byte	W04
	.byte			Cn3
	.byte	W04
	.byte			En3, v044
	.byte	W04
	.byte			Gn3
	.byte	W04
	.byte			En3, v048
	.byte	W04
	.byte			Gn3
	.byte	W04
	.byte			Cn4, v052
	.byte	W04
	.byte			Gn3
	.byte	W04
	.byte			Cn4, v056
	.byte	W04
	.byte			En4
	.byte	W04
	.byte			Cn4, v060
	.byte	W04
	.byte			En4
	.byte	W04
	.byte			Gn4, v064
	.byte	W04
	.byte			En4
	.byte	W04
	.byte			Gn4, v068
	.byte	W04
	.byte			Cn5, v072
	.byte	W04
	.byte			Gn4
	.byte	W04
	.byte			Cn5, v076
	.byte	W04
	.byte			En5
	.byte	W04
	.byte			Cn5, v080
	.byte	W04
	.byte			En5
	.byte	W04
	.byte			Gn5, v084
	.byte	W04
	.byte			En5
	.byte	W04
	.byte			Cn4, v036
	.byte	W04
	.byte			En4, v040
	.byte	W04
	.byte			Cn4
	.byte	W04
	.byte			En4, v044
	.byte	W04
	.byte			Gn4, v048
	.byte	W04
	.byte			En4, v052
	.byte	W04
	.byte			Gn4
	.byte	W04
	.byte			Cn5, v056
	.byte	W04
	.byte			Gn4, v060
	.byte	W04
	.byte			Cn5, v064
	.byte	W04
	.byte			En5
	.byte	W04
	.byte			Cn5, v068
	.byte	W04
	.byte			En5, v072
	.byte	W04
	.byte			Gn5, v076
	.byte	W04
	.byte			En5
	.byte	W04
	.byte			Gn5, v080
	.byte	W04
	.byte			Cn6, v084
	.byte	W04
	.byte			Gn5, v088
	.byte	W04
	.byte			Cn6
	.byte	W04
	.byte			En6, v092
	.byte	W04
	.byte			Cn6, v096
	.byte	W04
	.byte			En6, v100
	.byte	W04
	.byte			Gn6
	.byte	W04
	.byte			En6, v104
	.byte	W04
	.byte	W96
	.byte	W96
	.byte	W96
	.byte	W96
	.byte	W96
	.byte	W96
	.byte	W96
	.byte	W96
	.byte	W96
	.byte	W96
	.byte	W96
	.byte	W96
	.byte	W96
	.byte	W96
	.byte	W96
	.byte	W96
	.byte	GOTO	
		.word	song0020_10_4
	.byte	FINE

	@********************** Track  11 **********************@

	.global song0020_11
song0020_11:	@ 0x08C6181D
	.byte	KEYSH	, 0
song0020_11_8:
	.byte	VOICE	, 63
	.byte	VOL	, v110
	.byte	BENDR	, 12
	.byte	VOL	, v110
	.byte		N30	, As2, v084
	.byte		N30	, Cs3
	.byte	W36
	.byte	W03
	.byte		N48	, As2, v080
	.byte		N48	, Cs3
	.byte	W07
	.byte	VOL	, v104
	.byte	W01
	.byte		v098
	.byte	W01
	.byte		v090
	.byte	W01
	.byte		v081
	.byte	W01
	.byte		v076
	.byte	W02
	.byte		v077
	.byte	W01
	.byte		v077
	.byte	W01
	.byte		v078
	.byte	W01
	.byte		v079
	.byte	W01
	.byte		v081
	.byte	W01
	.byte		v082
	.byte	W01
	.byte		v083
	.byte	W01
	.byte		v084
	.byte	W01
	.byte		v084
	.byte	W01
	.byte		v085
	.byte	W01
	.byte		v086
	.byte	W01
	.byte		v087
	.byte	W01
	.byte		v088
	.byte	W01
	.byte		v090
	.byte	W01
	.byte		v090
	.byte	W01
	.byte		v091
	.byte	W01
	.byte		v092
	.byte	W01
	.byte		v093
	.byte	W01
	.byte		v094
	.byte	W01
	.byte		v095
	.byte	W01
	.byte		v096
	.byte	W01
	.byte		v097
	.byte	W01
	.byte		v098
	.byte	W01
	.byte		v099
	.byte	W01
	.byte		v100
	.byte	W01
	.byte		v101
	.byte	W01
	.byte		v102
	.byte	W01
	.byte		v103
	.byte	W01
	.byte		v103
	.byte	W01
	.byte		v104
	.byte	W01
	.byte		v105
	.byte	W01
	.byte		v107
	.byte	W01
	.byte		v108
	.byte	W01
	.byte		v109
	.byte	W01
	.byte		v110
	.byte	W10
	.byte		N30	, Bn2, v104
	.byte		N30	, Ds3
	.byte	W36
	.byte	W03
	.byte		N52	, Bn2, v092
	.byte		N52	, Ds3
	.byte	W07
	.byte	VOL	, v101
	.byte	W01
	.byte		v084
	.byte	W01
	.byte		v072
	.byte	W02
	.byte		v074
	.byte	W01
	.byte		v075
	.byte	W01
	.byte		v076
	.byte	W01
	.byte		v077
	.byte	W01
	.byte		v077
	.byte	W01
	.byte		v078
	.byte	W01
	.byte		v079
	.byte	W01
	.byte		v080
	.byte	W01
	.byte		v081
	.byte	W01
	.byte		v083
	.byte	W01
	.byte		v084
	.byte	W01
	.byte		v084
	.byte	W01
	.byte		v085
	.byte	W01
	.byte		v086
	.byte	W01
	.byte		v087
	.byte	W01
	.byte		v088
	.byte	W01
	.byte		v089
	.byte	W01
	.byte		v090
	.byte	W01
	.byte		v091
	.byte	W01
	.byte		v092
	.byte	W01
	.byte		v093
	.byte	W01
	.byte		v094
	.byte	W01
	.byte		v095
	.byte	W01
	.byte		v096
	.byte	W01
	.byte		v097
	.byte	W01
	.byte		v097
	.byte	W01
	.byte		v098
	.byte	W01
	.byte		v100
	.byte	W01
	.byte		v101
	.byte	W01
	.byte		v102
	.byte	W01
	.byte		v103
	.byte	W01
	.byte		v103
	.byte	W01
	.byte		v104
	.byte	W01
	.byte		v105
	.byte	W01
	.byte		v106
	.byte	W01
	.byte		v107
	.byte	W01
	.byte		v109
	.byte	W01
	.byte		v110
	.byte	W09
	.byte		N28	, Bn2, v100
	.byte		N28	, En3
	.byte	W36
	.byte	W03
	.byte		N15	, Bn2, v096
	.byte		N15	, En3
	.byte	W24
	.byte		N13	, Cn3, v100
	.byte		N13	, Fn3
	.byte	W24
	.byte		N32	, Cs3, v104
	.byte		N32	, Fs3
	.byte	W09
	.byte	W36
	.byte	W03
	.byte		N56	, Fs3, v108
	.byte		N56	, As3
	.byte	W10
	.byte	VOL	, v093
	.byte	W01
	.byte		v069
	.byte	W01
	.byte		v057
	.byte	W01
	.byte		v058
	.byte	W01
	.byte		v059
	.byte	W01
	.byte		v061
	.byte	W01
	.byte		v062
	.byte	W01
	.byte		v064
	.byte	W01
	.byte		v065
	.byte	W01
	.byte		v067
	.byte	W01
	.byte		v068
	.byte	W01
	.byte		v070
	.byte	W01
	.byte		v071
	.byte	W01
	.byte		v073
	.byte	W01
	.byte		v074
	.byte	W01
	.byte		v076
	.byte	W01
	.byte		v077
	.byte	W01
	.byte		v079
	.byte	W01
	.byte		v080
	.byte	W01
	.byte		v082
	.byte	W01
	.byte		v084
	.byte	W01
	.byte		v085
	.byte	W01
	.byte		v086
	.byte	W01
	.byte		v088
	.byte	W01
	.byte		v090
	.byte	W01
	.byte		v091
	.byte	W01
	.byte		v092
	.byte	W01
	.byte		v094
	.byte	W01
	.byte		v096
	.byte	W01
	.byte		v097
	.byte	W01
	.byte		v098
	.byte	W01
	.byte		v100
	.byte	W01
	.byte		v102
	.byte	W01
	.byte		v103
	.byte	W01
	.byte		v104
	.byte	W01
	.byte		v106
	.byte	W01
	.byte		v108
	.byte	W01
	.byte		v110
	.byte	W10
	.byte		N22	, Fs3, v100
	.byte		N22	, Bn3
	.byte	W96
	.byte	W96
	.byte	VOICE	, 64
	.byte	VOL	, v110
	.byte	BENDR	, 12
	.byte	W72
	.byte	VOL	, v080
	.byte	W03
	.byte		v080
	.byte	W13
	.byte		TIE	, Fs4, v104
	.byte	W05
	.byte	VOL	, v080
	.byte	W01
	.byte		v072
	.byte	W01
	.byte		v066
	.byte	W01
song0020_11_1:
	.byte	VOL	, v058
	.byte	W01
	.byte		v049
	.byte	W01
	.byte		v044
	.byte	W01
	.byte		v035
	.byte	W01
	.byte		v026
	.byte	W01
	.byte		v025
	.byte	W01
	.byte		v026
	.byte	W01
	.byte		v027
	.byte	W01
	.byte		v028
	.byte	W01
	.byte		v029
	.byte	W01
	.byte		v030
	.byte	W01
	.byte		v031
	.byte	W01
	.byte		v032
	.byte	W01
	.byte		v032
	.byte	W01
	.byte		v033
	.byte	W01
	.byte		v034
	.byte	W01
	.byte		v035
	.byte	W01
	.byte		v037
	.byte	W01
	.byte		v038
	.byte	W01
	.byte		v038
	.byte	W01
	.byte		v039
	.byte	W01
	.byte		v040
	.byte	W01
	.byte		v041
	.byte	W01
	.byte		v042
	.byte	W01
	.byte		v043
	.byte	W01
	.byte		v044
	.byte	W01
	.byte		v045
	.byte	W01
	.byte		v045
	.byte	W01
	.byte		v046
	.byte	W01
	.byte		v048
	.byte	W01
	.byte		v049
	.byte	W01
	.byte		v050
	.byte	W01
	.byte		v051
	.byte	W01
	.byte		v051
	.byte	W01
	.byte		v052
	.byte	W01
	.byte		v053
	.byte	W01
	.byte		v054
	.byte	W01
	.byte		v055
	.byte	W01
	.byte		v056
	.byte	W01
	.byte		v057
	.byte	W01
	.byte		v058
	.byte	W01
	.byte		v058
	.byte	W01
	.byte		v060
	.byte	W01
	.byte		v061
	.byte	W01
	.byte		v062
	.byte	W01
	.byte		v063
	.byte	W01
	.byte		v064
	.byte	W01
	.byte		v064
	.byte	W01
	.byte		v065
	.byte	W01
	.byte		v066
	.byte	W01
	.byte		v067
	.byte	W01
	.byte		v068
	.byte	W01
	.byte		v069
	.byte	W01
	.byte		v070
	.byte	W01
	.byte		v071
	.byte	W01
	.byte		v072
	.byte	W01
	.byte		v073
	.byte	W01
	.byte		v074
	.byte	W01
	.byte		v075
	.byte	W01
	.byte		v076
	.byte	W01
	.byte		v077
	.byte	W01
	.byte		v077
	.byte	W01
	.byte		v078
	.byte	W01
	.byte		v080
	.byte	W32
	.byte	W01
	.byte	PEND
	.byte		EOT	, Fs4
	.byte	W96
	.byte	W96
	.byte	W96
	.byte	W96
	.byte	W96
	.byte	W96
	.byte	W96
	.byte	W96
	.byte	VOL	, v077
	.byte		TIE	, Cs4, v127
	.byte	W12
	.byte	VOL	, v075
	.byte	W01
	.byte		v071
	.byte	W01
	.byte		v066
	.byte	W01
	.byte		v062
	.byte	W01
	.byte		v058
	.byte	W01
	.byte		v053
	.byte	W01
	.byte		v049
	.byte	W01
	.byte		v045
	.byte	W01
	.byte		v040
	.byte	W01
	.byte		v036
	.byte	W01
	.byte		v032
	.byte	W01
	.byte		v027
	.byte	W01
	.byte		v023
	.byte	W01
	.byte		v020
	.byte	W02
	.byte		v021
	.byte	W01
	.byte		v022
	.byte	W01
	.byte		v023
	.byte	W02
	.byte		v024
	.byte	W01
	.byte		v025
	.byte	W01
	.byte		v025
	.byte	W01
	.byte		v026
	.byte	W01
	.byte		v027
	.byte	W01
	.byte		v028
	.byte	W01
	.byte		v029
	.byte	W01
	.byte		v030
	.byte	W02
	.byte		v031
	.byte	W01
	.byte		v032
	.byte	W01
	.byte		v032
	.byte	W01
	.byte		v033
	.byte	W01
	.byte		v034
	.byte	W01
	.byte		v035
	.byte	W01
	.byte		v036
	.byte	W01
	.byte		v037
	.byte	W02
	.byte		v038
	.byte	W01
	.byte		v038
	.byte	W01
	.byte		v039
	.byte	W01
	.byte		v040
	.byte	W01
	.byte		v041
	.byte	W01
	.byte		v042
	.byte	W01
	.byte		v043
	.byte	W01
	.byte		v044
	.byte	W02
	.byte		v045
	.byte	W01
	.byte		v045
	.byte	W01
	.byte		v046
	.byte	W01
	.byte		v047
	.byte	W01
	.byte		v048
	.byte	W01
	.byte		v049
	.byte	W01
	.byte		v050
	.byte	W01
	.byte		v051
	.byte	W02
	.byte		v051
	.byte	W01
	.byte		v052
	.byte	W01
	.byte		v053
	.byte	W01
	.byte		v054
	.byte	W01
	.byte		v055
	.byte	W01
	.byte		v056
	.byte	W01
	.byte		v057
	.byte	W01
	.byte		v058
	.byte	W02
	.byte		v058
	.byte	W01
	.byte		v059
	.byte	W01
	.byte		v060
	.byte	W01
	.byte		v061
	.byte	W01
	.byte		v062
	.byte	W01
	.byte		v063
	.byte	W01
	.byte		v064
	.byte	W01
	.byte		v064
	.byte	W02
	.byte		v065
	.byte	W01
	.byte		v066
	.byte	W01
	.byte		v067
	.byte	W01
	.byte		v068
	.byte	W01
	.byte		v069
	.byte	W01
	.byte		v070
	.byte	W01
	.byte		v071
	.byte	W01
	.byte		v071
	.byte	W02
	.byte		v072
	.byte	W01
	.byte		v073
	.byte	W01
song0020_11_2:
	.byte	VOL	, v074
	.byte	W01
	.byte		v075
	.byte	W01
	.byte		v076
	.byte	W01
	.byte		v077
	.byte	W36
	.byte	W01
	.byte	PEND
	.byte		EOT	, Cs4
	.byte	W08
	.byte		N18	, Cs4, v127
	.byte	W24
	.byte			Cn4
	.byte	W24
	.byte		TIE	, Bn3
	.byte	W12
	.byte	VOL	, v072
	.byte	W01
	.byte		v066
	.byte	W01
	.byte		v058
	.byte	W01
	.byte		v049
	.byte	W01
	.byte		v043
	.byte	W01
	.byte		v034
	.byte	W01
	.byte		v025
	.byte	W01
	.byte		v022
	.byte	W03
	.byte		v023
	.byte	W01
	.byte		v024
	.byte	W02
	.byte		v025
	.byte	W01
	.byte		v025
	.byte	W02
	.byte		v026
	.byte	W01
	.byte		v027
	.byte	W02
	.byte		v028
	.byte	W01
	.byte		v029
	.byte	W02
	.byte		v030
	.byte	W01
	.byte		v031
	.byte	W02
	.byte		v032
	.byte	W01
	.byte		v032
	.byte	W02
	.byte		v033
	.byte	W01
	.byte		v034
	.byte	W02
	.byte		v035
	.byte	W01
	.byte		v036
	.byte	W02
	.byte		v037
	.byte	W01
	.byte		v038
	.byte	W02
	.byte		v038
	.byte	W01
	.byte		v039
	.byte	W02
	.byte		v040
	.byte	W01
	.byte		v041
	.byte	W02
	.byte		v042
	.byte	W01
	.byte		v043
	.byte	W02
	.byte		v044
	.byte	W01
	.byte		v045
	.byte	W02
	.byte		v045
	.byte	W01
	.byte		v046
	.byte	W02
	.byte		v047
	.byte	W01
	.byte		v048
	.byte	W02
	.byte		v049
	.byte	W01
	.byte		v050
	.byte	W02
	.byte		v051
	.byte	W01
	.byte		v051
	.byte	W02
	.byte		v052
	.byte	W01
	.byte		v053
	.byte	W02
	.byte		v054
	.byte	W01
	.byte		v055
	.byte	W02
	.byte		v056
	.byte	W01
	.byte		v057
	.byte	W02
	.byte		v058
	.byte	W01
	.byte		v058
	.byte	W02
	.byte		v059
	.byte	W01
	.byte		v060
	.byte	W02
	.byte		v061
	.byte	W01
	.byte		v062
	.byte	W02
	.byte		v063
	.byte	W01
	.byte		v064
	.byte	W02
	.byte		v064
	.byte	W01
	.byte		v065
	.byte	W01
song0020_11_3:
	.byte	W01
	.byte	VOL	, v066
	.byte	W01
	.byte		v067
	.byte	W02
	.byte		v068
	.byte	W01
	.byte		v069
	.byte	W02
	.byte		v070
	.byte	W01
	.byte		v071
	.byte	W02
	.byte		v071
	.byte	W01
	.byte		v072
	.byte	W02
	.byte		v073
	.byte	W01
	.byte		v074
	.byte	W02
	.byte		v075
	.byte	W01
	.byte		v076
	.byte	W02
	.byte		v077
	.byte	W01
	.byte		v077
	.byte	W20
	.byte	PEND
	.byte		EOT	, Bn3
	.byte	W08
	.byte		N18	, Bn3, v127
	.byte	W24
	.byte			As3
	.byte	W24
	.byte		N24	, An3
	.byte	W96
	.byte	W96
	.byte	VOL	, v079
	.byte	W68
	.byte	W03
	.byte		v079
	.byte	W16
	.byte		TIE	, Cs4
	.byte	W06
	.byte	VOL	, v079
	.byte	W01
	.byte		v066
	.byte	W01
	.byte		v058
	.byte	W01
song0020_11_4:
	.byte	VOL	, v045
	.byte	W01
	.byte		v032
	.byte	W01
	.byte		v023
	.byte	W02
	.byte		v024
	.byte	W01
	.byte		v025
	.byte	W01
	.byte		v025
	.byte	W01
	.byte		v026
	.byte	W01
	.byte		v027
	.byte	W01
	.byte		v028
	.byte	W01
	.byte		v029
	.byte	W01
	.byte		v030
	.byte	W01
	.byte		v031
	.byte	W01
	.byte		v032
	.byte	W01
	.byte		v032
	.byte	W01
	.byte		v033
	.byte	W01
	.byte		v034
	.byte	W01
	.byte		v035
	.byte	W02
	.byte		v036
	.byte	W01
	.byte		v037
	.byte	W01
	.byte		v038
	.byte	W01
	.byte		v038
	.byte	W01
	.byte		v039
	.byte	W01
	.byte		v040
	.byte	W01
	.byte		v041
	.byte	W01
	.byte		v042
	.byte	W01
	.byte		v043
	.byte	W01
	.byte		v044
	.byte	W01
	.byte		v045
	.byte	W01
	.byte		v045
	.byte	W01
	.byte		v046
	.byte	W01
	.byte		v047
	.byte	W01
	.byte		v048
	.byte	W01
	.byte		v049
	.byte	W01
	.byte		v050
	.byte	W01
	.byte		v051
	.byte	W01
	.byte		v051
	.byte	W01
	.byte		v052
	.byte	W01
	.byte		v053
	.byte	W01
	.byte		v054
	.byte	W01
	.byte		v055
	.byte	W01
	.byte		v056
	.byte	W01
	.byte		v057
	.byte	W01
	.byte		v058
	.byte	W01
	.byte		v058
	.byte	W01
	.byte		v059
	.byte	W01
	.byte		v060
	.byte	W01
	.byte		v061
	.byte	W01
	.byte		v062
	.byte	W01
	.byte		v063
	.byte	W01
	.byte		v064
	.byte	W01
	.byte		v064
	.byte	W01
	.byte		v065
	.byte	W01
	.byte		v066
	.byte	W01
	.byte		v067
	.byte	W01
	.byte		v068
	.byte	W01
	.byte		v069
	.byte	W01
	.byte		v070
	.byte	W02
	.byte		v071
	.byte	W01
	.byte		v071
	.byte	W01
	.byte		v072
	.byte	W01
	.byte		v073
	.byte	W01
	.byte		v074
	.byte	W01
	.byte		v075
	.byte	W01
	.byte		v076
	.byte	W01
	.byte		v077
	.byte	W01
	.byte		v077
	.byte	W01
	.byte		v078
	.byte	W01
	.byte		v079
	.byte	W24
	.byte	W01
	.byte	PEND
	.byte		EOT	, Cs4
	.byte	W01
	.byte		N32	, Fs3, v127
	.byte	W96
	.byte	W96
	.byte	VOL	, v080
	.byte	W03
	.byte		v080
	.byte	W13
	.byte		TIE	, Fs4, v104
	.byte	W05
	.byte	VOL	, v080
	.byte	W01
	.byte		v072
	.byte	W01
	.byte		v066
	.byte	W01
	.byte		v058
	.byte	W01
	.byte		v049
	.byte	W01
	.byte		v044
	.byte	W01
	.byte		v035
	.byte	W01
	.byte		v026
	.byte	W01
	.byte		v025
	.byte	W03
	.byte		v026
	.byte	W01
	.byte		v027
	.byte	W02
	.byte		v028
	.byte	W01
	.byte		v029
	.byte	W02
	.byte		v030
	.byte	W01
	.byte		v031
	.byte	W02
	.byte		v032
	.byte	W01
	.byte		v032
	.byte	W02
	.byte		v033
	.byte	W02
	.byte		v034
	.byte	W01
	.byte		v035
	.byte	W02
	.byte		v036
	.byte	W01
	.byte		v037
	.byte	W02
	.byte		v038
	.byte	W01
	.byte		v038
	.byte	W02
	.byte		v039
	.byte	W01
	.byte		v040
	.byte	W02
	.byte		v041
	.byte	W02
	.byte		v042
	.byte	W01
	.byte		v043
	.byte	W02
	.byte		v044
	.byte	W01
	.byte		v045
	.byte	W02
	.byte		v045
	.byte	W01
	.byte		v046
	.byte	W02
	.byte		v047
	.byte	W01
	.byte		v048
	.byte	W02
	.byte		v049
	.byte	W01
	.byte		v050
	.byte	W02
	.byte		v051
	.byte	W02
	.byte		v051
	.byte	W01
	.byte		v052
	.byte	W02
	.byte		v053
	.byte	W01
	.byte		v054
	.byte	W02
	.byte		v055
	.byte	W01
	.byte		v056
	.byte	W02
	.byte		v057
	.byte	W01
	.byte		v058
	.byte	W02
	.byte		v058
	.byte	W02
	.byte		v059
	.byte	W01
	.byte		v060
	.byte	W02
	.byte		v061
	.byte	W01
	.byte		v062
	.byte	W01
song0020_11_5:
	.byte	W01
	.byte	VOL	, v063
	.byte	W01
	.byte		v064
	.byte	W02
	.byte		v064
	.byte	W01
	.byte		v065
	.byte	W02
	.byte		v066
	.byte	W01
	.byte		v067
	.byte	W02
	.byte		v068
	.byte	W02
	.byte		v069
	.byte	W01
	.byte		v070
	.byte	W02
	.byte		v071
	.byte	W01
	.byte		v071
	.byte	W02
	.byte		v072
	.byte	W01
	.byte		v073
	.byte	W02
	.byte		v074
	.byte	W01
	.byte		v075
	.byte	W02
	.byte		v076
	.byte	W02
	.byte		v077
	.byte	W01
	.byte		v077
	.byte	W02
	.byte		v078
	.byte	W01
	.byte		v079
	.byte	W01
	.byte		v080
	.byte	W64
	.byte	W01
	.byte	PEND
	.byte		EOT	, Fs4
	.byte	W96
	.byte	W96
	.byte	W84
	.byte	W03
	.byte		N10	, Bn3, v120
	.byte	W09
	.byte	W15
	.byte		N30	
	.byte	W36
	.byte		N23	, Bn3, v116
	.byte	W23
	.byte		N24	, Cs4, v124
	.byte	W22
	.byte	W02
	.byte		N32	, Fs3, v127
	.byte	W92
	.byte	W02
	.byte	W96
	.byte	VOL	, v080
	.byte	W84
	.byte	W03
	.byte		TIE	, En4
	.byte	W04
	.byte	VOL	, v078
	.byte	W01
	.byte		v071
	.byte	W01
	.byte		v066
	.byte	W01
	.byte		v059
	.byte	W01
	.byte		v051
	.byte	W01
song0020_11_6:
	.byte	VOL	, v047
	.byte	W01
	.byte		v039
	.byte	W01
	.byte		v032
	.byte	W01
	.byte		v026
	.byte	W02
	.byte		v027
	.byte	W01
	.byte		v028
	.byte	W01
	.byte		v029
	.byte	W01
	.byte		v031
	.byte	W01
	.byte		v032
	.byte	W01
	.byte		v032
	.byte	W01
	.byte		v033
	.byte	W01
	.byte		v034
	.byte	W01
	.byte		v035
	.byte	W01
	.byte		v037
	.byte	W01
	.byte		v038
	.byte	W01
	.byte		v038
	.byte	W01
	.byte		v039
	.byte	W01
	.byte		v040
	.byte	W01
	.byte		v042
	.byte	W01
	.byte		v043
	.byte	W01
	.byte		v044
	.byte	W01
	.byte		v045
	.byte	W01
	.byte		v045
	.byte	W01
	.byte		v046
	.byte	W01
	.byte		v048
	.byte	W01
	.byte		v049
	.byte	W01
	.byte		v050
	.byte	W01
	.byte		v051
	.byte	W01
	.byte		v051
	.byte	W01
	.byte		v052
	.byte	W01
	.byte		v054
	.byte	W01
	.byte		v055
	.byte	W01
	.byte		v056
	.byte	W01
	.byte		v057
	.byte	W01
	.byte		v058
	.byte	W01
	.byte		v059
	.byte	W01
	.byte		v060
	.byte	W01
	.byte		v061
	.byte	W02
	.byte		v062
	.byte	W01
	.byte		v063
	.byte	W01
	.byte		v064
	.byte	W01
	.byte		v065
	.byte	W01
	.byte		v066
	.byte	W01
	.byte		v067
	.byte	W01
	.byte		v068
	.byte	W01
	.byte		v069
	.byte	W01
	.byte		v071
	.byte	W01
	.byte		v071
	.byte	W01
	.byte		v072
	.byte	W01
	.byte		v073
	.byte	W01
	.byte		v074
	.byte	W01
	.byte		v076
	.byte	W01
	.byte		v077
	.byte	W01
	.byte		v077
	.byte	W01
	.byte		v078
	.byte	W01
	.byte		v080
	.byte	W36
	.byte	W02
	.byte	PEND
	.byte		EOT	, En4
	.byte	W01
	.byte	W96
	.byte	W96
	.byte	W96
	.byte	W96
	.byte	W96
	.byte	W96
	.byte	W96
song0020_11_7:
	.byte	VOICE	, 63
	.byte	VOL	, v110
	.byte	BENDR	, 12
	.byte	W96
	.byte	PEND
	.byte	VOL	, v110
	.byte		N30	, As2, v104
	.byte		N30	, Cs3
	.byte	W36
	.byte	W03
	.byte		N48	, As2, v100
	.byte		N48	, Cs3
	.byte	W07
	.byte	VOL	, v104
	.byte	W01
	.byte		v098
	.byte	W01
	.byte		v090
	.byte	W01
	.byte		v081
	.byte	W01
	.byte		v076
	.byte	W02
	.byte		v077
	.byte	W01
	.byte		v077
	.byte	W01
	.byte		v078
	.byte	W01
	.byte		v079
	.byte	W01
	.byte		v081
	.byte	W01
	.byte		v082
	.byte	W01
	.byte		v083
	.byte	W01
	.byte		v084
	.byte	W01
	.byte		v084
	.byte	W01
	.byte		v085
	.byte	W01
	.byte		v086
	.byte	W01
	.byte		v087
	.byte	W01
	.byte		v088
	.byte	W01
	.byte		v090
	.byte	W01
	.byte		v090
	.byte	W01
	.byte		v091
	.byte	W01
	.byte		v092
	.byte	W01
	.byte		v093
	.byte	W01
	.byte		v094
	.byte	W01
	.byte		v095
	.byte	W01
	.byte		v096
	.byte	W01
	.byte		v097
	.byte	W01
	.byte		v098
	.byte	W01
	.byte		v099
	.byte	W01
	.byte		v100
	.byte	W01
	.byte		v101
	.byte	W01
	.byte		v102
	.byte	W01
	.byte		v103
	.byte	W01
	.byte		v103
	.byte	W01
	.byte		v104
	.byte	W01
	.byte		v105
	.byte	W01
	.byte		v107
	.byte	W01
	.byte		v108
	.byte	W01
	.byte		v109
	.byte	W01
	.byte		v110
	.byte	W10
	.byte		N30	, Bn2, v124
	.byte		N30	, Ds3
	.byte	W36
	.byte	W03
	.byte		N52	, Bn2, v112
	.byte		N52	, Ds3
	.byte	W07
	.byte	VOL	, v101
	.byte	W01
	.byte		v084
	.byte	W01
	.byte		v072
	.byte	W02
	.byte		v074
	.byte	W01
	.byte		v075
	.byte	W01
	.byte		v076
	.byte	W01
	.byte		v077
	.byte	W01
	.byte		v077
	.byte	W01
	.byte		v078
	.byte	W01
	.byte		v079
	.byte	W01
	.byte		v080
	.byte	W01
	.byte		v081
	.byte	W01
	.byte		v083
	.byte	W01
	.byte		v084
	.byte	W01
	.byte		v084
	.byte	W01
	.byte		v085
	.byte	W01
	.byte		v086
	.byte	W01
	.byte		v087
	.byte	W01
	.byte		v088
	.byte	W01
	.byte		v089
	.byte	W01
	.byte		v090
	.byte	W01
	.byte		v091
	.byte	W01
	.byte		v092
	.byte	W01
	.byte		v093
	.byte	W01
	.byte		v094
	.byte	W01
	.byte		v095
	.byte	W01
	.byte		v096
	.byte	W01
	.byte		v097
	.byte	W01
	.byte		v097
	.byte	W01
	.byte		v098
	.byte	W01
	.byte		v100
	.byte	W01
	.byte		v101
	.byte	W01
	.byte		v102
	.byte	W01
	.byte		v103
	.byte	W01
	.byte		v103
	.byte	W01
	.byte		v104
	.byte	W01
	.byte		v105
	.byte	W01
	.byte		v106
	.byte	W01
	.byte		v107
	.byte	W01
	.byte		v109
	.byte	W01
	.byte		v110
	.byte	W09
	.byte		N28	, Bn2, v120
	.byte		N28	, En3
	.byte	W36
	.byte	W03
	.byte		N15	, Bn2, v116
	.byte		N15	, En3
	.byte	W24
	.byte		N13	, Cn3, v120
	.byte		N13	, Fn3
	.byte	W24
	.byte		N32	, Cs3, v124
	.byte		N32	, Fs3
	.byte	W09
	.byte	W36
	.byte	W03
	.byte		N56	, Fs3, v127
	.byte		N56	, As3
	.byte	W10
	.byte	VOL	, v093
	.byte	W01
	.byte		v069
	.byte	W01
	.byte		v057
	.byte	W01
	.byte		v058
	.byte	W01
	.byte		v059
	.byte	W01
	.byte		v061
	.byte	W01
	.byte		v062
	.byte	W01
	.byte		v064
	.byte	W01
	.byte		v065
	.byte	W01
	.byte		v067
	.byte	W01
	.byte		v068
	.byte	W01
	.byte		v070
	.byte	W01
	.byte		v071
	.byte	W01
	.byte		v073
	.byte	W01
	.byte		v074
	.byte	W01
	.byte		v076
	.byte	W01
	.byte		v077
	.byte	W01
	.byte		v079
	.byte	W01
	.byte		v080
	.byte	W01
	.byte		v082
	.byte	W01
	.byte		v084
	.byte	W01
	.byte		v085
	.byte	W01
	.byte		v086
	.byte	W01
	.byte		v088
	.byte	W01
	.byte		v090
	.byte	W01
	.byte		v091
	.byte	W01
	.byte		v092
	.byte	W01
	.byte		v094
	.byte	W01
	.byte		v096
	.byte	W01
	.byte		v097
	.byte	W01
	.byte		v098
	.byte	W01
	.byte		v100
	.byte	W01
	.byte		v102
	.byte	W01
	.byte		v103
	.byte	W01
	.byte		v104
	.byte	W01
	.byte		v106
	.byte	W01
	.byte		v108
	.byte	W01
	.byte		v110
	.byte	W10
	.byte		N22	, Fs3, v120
	.byte		N22	, Bn3
	.byte	W96
	.byte	W96
	.byte	VOICE	, 64
	.byte	VOL	, v110
	.byte	BENDR	, 12
	.byte	W72
	.byte	VOL	, v080
	.byte	W03
	.byte		v080
	.byte	W13
	.byte		TIE	, Fs4, v124
	.byte	W05
	.byte	VOL	, v080
	.byte	W01
	.byte		v072
	.byte	W01
	.byte		v066
	.byte	W01
	.byte	PATT	
		.word	song0020_11_1
	.byte		EOT	, Fs4
	.byte		N32	, Gn4, v124
	.byte	W96
	.byte	W96
	.byte	W72
	.byte	VOL	, v080
	.byte	W03
	.byte		v080
	.byte	W13
	.byte		TIE	
	.byte	W05
	.byte	VOL	, v080
	.byte	W01
	.byte		v072
	.byte	W01
	.byte		v066
	.byte	W01
	.byte	PATT	
		.word	song0020_11_1
	.byte		EOT	, Gn4
	.byte	W96
	.byte	W96
	.byte	W96
	.byte	W96
	.byte	W96
	.byte	W96
	.byte	W96
	.byte	W96
	.byte	VOL	, v077
	.byte		TIE	, Dn4, v127
	.byte	W12
	.byte	VOL	, v075
	.byte	W01
	.byte		v071
	.byte	W01
	.byte		v066
	.byte	W01
	.byte		v062
	.byte	W01
	.byte		v058
	.byte	W01
	.byte		v053
	.byte	W01
	.byte		v049
	.byte	W01
	.byte		v045
	.byte	W01
	.byte		v040
	.byte	W01
	.byte		v036
	.byte	W01
	.byte		v032
	.byte	W01
	.byte		v027
	.byte	W01
	.byte		v023
	.byte	W01
	.byte		v020
	.byte	W02
	.byte		v021
	.byte	W01
	.byte		v022
	.byte	W01
	.byte		v023
	.byte	W02
	.byte		v024
	.byte	W01
	.byte		v025
	.byte	W01
	.byte		v025
	.byte	W01
	.byte		v026
	.byte	W01
	.byte		v027
	.byte	W01
	.byte		v028
	.byte	W01
	.byte		v029
	.byte	W01
	.byte		v030
	.byte	W02
	.byte		v031
	.byte	W01
	.byte		v032
	.byte	W01
	.byte		v032
	.byte	W01
	.byte		v033
	.byte	W01
	.byte		v034
	.byte	W01
	.byte		v035
	.byte	W01
	.byte		v036
	.byte	W01
	.byte		v037
	.byte	W02
	.byte		v038
	.byte	W01
	.byte		v038
	.byte	W01
	.byte		v039
	.byte	W01
	.byte		v040
	.byte	W01
	.byte		v041
	.byte	W01
	.byte		v042
	.byte	W01
	.byte		v043
	.byte	W01
	.byte		v044
	.byte	W02
	.byte		v045
	.byte	W01
	.byte		v045
	.byte	W01
	.byte		v046
	.byte	W01
	.byte		v047
	.byte	W01
	.byte		v048
	.byte	W01
	.byte		v049
	.byte	W01
	.byte		v050
	.byte	W01
	.byte		v051
	.byte	W02
	.byte		v051
	.byte	W01
	.byte		v052
	.byte	W01
	.byte		v053
	.byte	W01
	.byte		v054
	.byte	W01
	.byte		v055
	.byte	W01
	.byte		v056
	.byte	W01
	.byte		v057
	.byte	W01
	.byte		v058
	.byte	W02
	.byte		v058
	.byte	W01
	.byte		v059
	.byte	W01
	.byte		v060
	.byte	W01
	.byte		v061
	.byte	W01
	.byte		v062
	.byte	W01
	.byte		v063
	.byte	W01
	.byte		v064
	.byte	W01
	.byte		v064
	.byte	W02
	.byte		v065
	.byte	W01
	.byte		v066
	.byte	W01
	.byte		v067
	.byte	W01
	.byte		v068
	.byte	W01
	.byte		v069
	.byte	W01
	.byte		v070
	.byte	W01
	.byte		v071
	.byte	W01
	.byte		v071
	.byte	W02
	.byte		v072
	.byte	W01
	.byte		v073
	.byte	W01
	.byte	PATT	
		.word	song0020_11_2
	.byte		EOT	, Dn4
	.byte	W08
	.byte		N18	, Dn4, v127
	.byte	W24
	.byte			Cs4
	.byte	W24
	.byte		TIE	, Cn4
	.byte	W12
	.byte	VOL	, v072
	.byte	W01
	.byte		v066
	.byte	W01
	.byte		v058
	.byte	W01
	.byte		v049
	.byte	W01
	.byte		v043
	.byte	W01
	.byte		v034
	.byte	W01
	.byte		v025
	.byte	W01
	.byte		v022
	.byte	W03
	.byte		v023
	.byte	W01
	.byte		v024
	.byte	W02
	.byte		v025
	.byte	W01
	.byte		v025
	.byte	W02
	.byte		v026
	.byte	W01
	.byte		v027
	.byte	W02
	.byte		v028
	.byte	W01
	.byte		v029
	.byte	W02
	.byte		v030
	.byte	W01
	.byte		v031
	.byte	W02
	.byte		v032
	.byte	W01
	.byte		v032
	.byte	W02
	.byte		v033
	.byte	W01
	.byte		v034
	.byte	W02
	.byte		v035
	.byte	W01
	.byte		v036
	.byte	W02
	.byte		v037
	.byte	W01
	.byte		v038
	.byte	W02
	.byte		v038
	.byte	W01
	.byte		v039
	.byte	W02
	.byte		v040
	.byte	W01
	.byte		v041
	.byte	W02
	.byte		v042
	.byte	W01
	.byte		v043
	.byte	W02
	.byte		v044
	.byte	W01
	.byte		v045
	.byte	W02
	.byte		v045
	.byte	W01
	.byte		v046
	.byte	W02
	.byte		v047
	.byte	W01
	.byte		v048
	.byte	W02
	.byte		v049
	.byte	W01
	.byte		v050
	.byte	W02
	.byte		v051
	.byte	W01
	.byte		v051
	.byte	W02
	.byte		v052
	.byte	W01
	.byte		v053
	.byte	W02
	.byte		v054
	.byte	W01
	.byte		v055
	.byte	W02
	.byte		v056
	.byte	W01
	.byte		v057
	.byte	W02
	.byte		v058
	.byte	W01
	.byte		v058
	.byte	W02
	.byte		v059
	.byte	W01
	.byte		v060
	.byte	W02
	.byte		v061
	.byte	W01
	.byte		v062
	.byte	W02
	.byte		v063
	.byte	W01
	.byte		v064
	.byte	W02
	.byte		v064
	.byte	W01
	.byte		v065
	.byte	W01
	.byte	PATT	
		.word	song0020_11_3
	.byte		EOT	, Cn4
	.byte	W08
	.byte		N18	, Cn4, v127
	.byte	W24
	.byte			Bn3
	.byte	W24
	.byte		N24	, As3
	.byte	W96
	.byte	W96
	.byte	VOL	, v079
	.byte	W68
	.byte	W03
	.byte		v079
	.byte	W16
	.byte		TIE	, Dn4
	.byte	W06
	.byte	VOL	, v079
	.byte	W01
	.byte		v066
	.byte	W01
	.byte		v058
	.byte	W01
	.byte	PATT	
		.word	song0020_11_4
	.byte		EOT	, Dn4
	.byte	W01
	.byte		N32	, Gn3, v127
	.byte	W96
	.byte	W96
	.byte	VOL	, v080
	.byte	W03
	.byte		v080
	.byte	W13
	.byte		TIE	, Gn4, v104
	.byte	W05
	.byte	VOL	, v080
	.byte	W01
	.byte		v072
	.byte	W01
	.byte		v066
	.byte	W01
	.byte		v058
	.byte	W01
	.byte		v049
	.byte	W01
	.byte		v044
	.byte	W01
	.byte		v035
	.byte	W01
	.byte		v026
	.byte	W01
	.byte		v025
	.byte	W03
	.byte		v026
	.byte	W01
	.byte		v027
	.byte	W02
	.byte		v028
	.byte	W01
	.byte		v029
	.byte	W02
	.byte		v030
	.byte	W01
	.byte		v031
	.byte	W02
	.byte		v032
	.byte	W01
	.byte		v032
	.byte	W02
	.byte		v033
	.byte	W02
	.byte		v034
	.byte	W01
	.byte		v035
	.byte	W02
	.byte		v036
	.byte	W01
	.byte		v037
	.byte	W02
	.byte		v038
	.byte	W01
	.byte		v038
	.byte	W02
	.byte		v039
	.byte	W01
	.byte		v040
	.byte	W02
	.byte		v041
	.byte	W02
	.byte		v042
	.byte	W01
	.byte		v043
	.byte	W02
	.byte		v044
	.byte	W01
	.byte		v045
	.byte	W02
	.byte		v045
	.byte	W01
	.byte		v046
	.byte	W02
	.byte		v047
	.byte	W01
	.byte		v048
	.byte	W02
	.byte		v049
	.byte	W01
	.byte		v050
	.byte	W02
	.byte		v051
	.byte	W02
	.byte		v051
	.byte	W01
	.byte		v052
	.byte	W02
	.byte		v053
	.byte	W01
	.byte		v054
	.byte	W02
	.byte		v055
	.byte	W01
	.byte		v056
	.byte	W02
	.byte		v057
	.byte	W01
	.byte		v058
	.byte	W02
	.byte		v058
	.byte	W02
	.byte		v059
	.byte	W01
	.byte		v060
	.byte	W02
	.byte		v061
	.byte	W01
	.byte		v062
	.byte	W01
	.byte	PATT	
		.word	song0020_11_5
	.byte		EOT	, Gn4
	.byte	W96
	.byte	W96
	.byte	W84
	.byte	W03
	.byte		N10	, Cn4, v120
	.byte	W09
	.byte	W15
	.byte		N30	
	.byte	W36
	.byte		N23	, Cn4, v116
	.byte	W23
	.byte		N24	, Dn4, v124
	.byte	W22
	.byte	W02
	.byte		N32	, Gn3, v127
	.byte	W92
	.byte	W02
	.byte	W96
	.byte	VOL	, v080
	.byte	W84
	.byte	W03
	.byte		TIE	, Fn4
	.byte	W04
	.byte	VOL	, v078
	.byte	W01
	.byte		v071
	.byte	W01
	.byte		v066
	.byte	W01
	.byte		v059
	.byte	W01
	.byte		v051
	.byte	W01
	.byte	PATT	
		.word	song0020_11_6
	.byte		EOT	, Fn4
	.byte	W01
	.byte	W96
	.byte	W96
	.byte	W96
	.byte	W96
	.byte	W96
	.byte	W96
	.byte	W96
	.byte	PATT	
		.word	song0020_11_7
	.byte	GOTO	
		.word	song0020_11_8
	.byte	FINE

	@********************** Track  12 **********************@

	.global song0020_12
song0020_12:	@ 0x08C620CC
	.byte	KEYSH	, 0
song0020_12_16:
	.byte	VOICE	, 110
	.byte	VOL	, v092
	.byte	W96
	.byte	W96
	.byte	W96
	.byte	W96
song0020_12_1:
	.byte		N11	, Dn3, v127
	.byte	W24
	.byte		N11	
	.byte	W24
	.byte		N23	
	.byte	W48
	.byte	PEND
song0020_12_2:
	.byte	W48
	.byte		N23	, Dn3, v127
	.byte	W24
	.byte		N02	, Dn3, v048
	.byte	W15
	.byte		N02	
	.byte	W09
	.byte	PEND
	.byte	PATT	
		.word	song0020_12_1
	.byte	PATT	
		.word	song0020_12_2
	.byte	PATT	
		.word	song0020_12_1
	.byte	PATT	
		.word	song0020_12_2
song0020_12_3:
	.byte		N11	, Gn3, v127
	.byte	W24
	.byte		N11	
	.byte	W24
	.byte		N23	
	.byte	W48
	.byte	PEND
song0020_12_4:
	.byte	W48
	.byte		N23	, Gn3, v127
	.byte	W24
	.byte			An3
	.byte	W24
	.byte	PEND
	.byte	PATT	
		.word	song0020_12_1
song0020_12_5:
	.byte	W48
	.byte		N23	, Dn3, v127
	.byte	W24
	.byte			Cs3
	.byte	W24
	.byte	PEND
song0020_12_6:
	.byte		N11	, Cn3, v127
	.byte	W24
	.byte		N11	
	.byte	W24
	.byte		N23	
	.byte	W48
	.byte	PEND
song0020_12_7:
	.byte	W48
	.byte		N23	, Cn3, v127
	.byte	W24
	.byte		N02	, Cn3, v048
	.byte	W15
	.byte		N02	
	.byte	W09
	.byte	PEND
	.byte		N11	, An3, v127
	.byte	W24
	.byte		N11	
	.byte	W24
	.byte		N23	
	.byte	W48
	.byte	W48
	.byte		N23	
	.byte	W24
	.byte			Gs3
	.byte	W24
	.byte	PATT	
		.word	song0020_12_3
	.byte	W48
	.byte		N23	, Gn3, v127
	.byte	W24
	.byte			Fs3
	.byte	W24
song0020_12_15:
	.byte		N11	, Fn3, v127
	.byte	W24
	.byte		N11	
	.byte	W24
	.byte		N23	
	.byte	W48
	.byte	PEND
	.byte	W48
	.byte		N23	
	.byte	W24
	.byte		N23	
	.byte	W24
	.byte	PATT	
		.word	song0020_12_3
	.byte	W48
	.byte		N23	, An3, v127
	.byte	W24
	.byte		N23	
	.byte	W24
	.byte	PATT	
		.word	song0020_12_1
	.byte	PATT	
		.word	song0020_12_2
	.byte	PATT	
		.word	song0020_12_1
	.byte	PATT	
		.word	song0020_12_2
	.byte	PATT	
		.word	song0020_12_1
	.byte	PATT	
		.word	song0020_12_2
	.byte	PATT	
		.word	song0020_12_3
	.byte	PATT	
		.word	song0020_12_4
	.byte	PATT	
		.word	song0020_12_1
	.byte	PATT	
		.word	song0020_12_5
	.byte	PATT	
		.word	song0020_12_6
	.byte	PATT	
		.word	song0020_12_7
	.byte		N11	, En3, v127
	.byte	W24
	.byte		N11	
	.byte	W24
	.byte		N23	
	.byte	W48
	.byte	W48
	.byte			Fs3
	.byte	W24
	.byte		N02	, Fs3, v048
	.byte	W15
	.byte		N02	
	.byte	W09
	.byte	PATT	
		.word	song0020_12_1
	.byte	PATT	
		.word	song0020_12_2
	.byte	PATT	
		.word	song0020_12_6
	.byte	PATT	
		.word	song0020_12_7
	.byte		N11	, As2, v127
	.byte	W24
	.byte		N11	
	.byte	W24
	.byte		N23	
	.byte	W48
song0020_12_8:
	.byte	W48
	.byte		N23	, Ds3, v127
	.byte	W24
	.byte		N02	, Ds3, v048
	.byte	W15
	.byte		N02	
	.byte	W09
	.byte	PEND
	.byte	W96
	.byte	W96
	.byte	W96
	.byte	W96
	.byte	PATT	
		.word	song0020_12_1
	.byte	PATT	
		.word	song0020_12_2
	.byte	PATT	
		.word	song0020_12_1
	.byte	W48
	.byte		N23	, Dn3, v127
	.byte	W24
	.byte		N11	, Cs3
	.byte	W12
	.byte			Dn3
	.byte	W12
song0020_12_9:
	.byte		N11	, Ds3, v127
	.byte	W24
	.byte		N11	
	.byte	W24
	.byte		N23	
	.byte	W48
	.byte	PEND
	.byte	PATT	
		.word	song0020_12_8
	.byte	PATT	
		.word	song0020_12_9
	.byte	PATT	
		.word	song0020_12_8
	.byte	PATT	
		.word	song0020_12_9
	.byte	PATT	
		.word	song0020_12_8
song0020_12_10:
	.byte		N11	, Gs3, v127
	.byte	W24
	.byte		N11	
	.byte	W24
	.byte		N23	
	.byte	W48
	.byte	PEND
song0020_12_11:
	.byte	W48
	.byte		N23	, Gs3, v127
	.byte	W24
	.byte			As3
	.byte	W24
	.byte	PEND
	.byte	PATT	
		.word	song0020_12_9
song0020_12_12:
	.byte	W48
	.byte		N23	, Ds3, v127
	.byte	W24
	.byte			Dn3
	.byte	W24
	.byte	PEND
song0020_12_13:
	.byte		N11	, Cs3, v127
	.byte	W24
	.byte		N11	
	.byte	W24
	.byte		N23	
	.byte	W48
	.byte	PEND
song0020_12_14:
	.byte	W48
	.byte		N23	, Cs3, v127
	.byte	W24
	.byte		N02	, Cs3, v048
	.byte	W15
	.byte		N02	
	.byte	W09
	.byte	PEND
	.byte		N11	, As3, v127
	.byte	W24
	.byte		N11	
	.byte	W24
	.byte		N23	
	.byte	W48
	.byte	W48
	.byte		N23	
	.byte	W24
	.byte			An3
	.byte	W24
	.byte	PATT	
		.word	song0020_12_10
	.byte	W48
	.byte		N23	, Gs3, v127
	.byte	W24
	.byte			Gn3
	.byte	W24
	.byte		N11	, Fs3
	.byte	W24
	.byte		N11	
	.byte	W24
	.byte		N23	
	.byte	W48
	.byte	W48
	.byte		N23	
	.byte	W24
	.byte		N23	
	.byte	W24
	.byte	PATT	
		.word	song0020_12_10
	.byte	W48
	.byte		N23	, As3, v127
	.byte	W24
	.byte		N23	
	.byte	W24
	.byte	PATT	
		.word	song0020_12_9
	.byte	PATT	
		.word	song0020_12_8
	.byte	PATT	
		.word	song0020_12_9
	.byte	PATT	
		.word	song0020_12_8
	.byte	PATT	
		.word	song0020_12_9
	.byte	PATT	
		.word	song0020_12_8
	.byte	PATT	
		.word	song0020_12_10
	.byte	PATT	
		.word	song0020_12_11
	.byte	PATT	
		.word	song0020_12_9
	.byte	PATT	
		.word	song0020_12_12
	.byte	PATT	
		.word	song0020_12_13
	.byte	PATT	
		.word	song0020_12_14
	.byte	PATT	
		.word	song0020_12_15
	.byte	W48
	.byte		N23	, Gn3, v127
	.byte	W24
	.byte		N02	, Gn3, v048
	.byte	W15
	.byte		N02	
	.byte	W09
	.byte	PATT	
		.word	song0020_12_9
	.byte	PATT	
		.word	song0020_12_8
	.byte	PATT	
		.word	song0020_12_13
	.byte	PATT	
		.word	song0020_12_14
	.byte		N11	, Bn2, v127
	.byte	W24
	.byte		N11	
	.byte	W24
	.byte		N23	
	.byte	W48
	.byte	W48
	.byte			En3
	.byte	W24
	.byte		N02	, En3, v048
	.byte	W15
	.byte		N02	
	.byte	W09
	.byte	GOTO	
		.word	song0020_12_16
	.byte	FINE

	@********************** Track  13 **********************@

	.global song0020_13
song0020_13:	@ 0x08C622F4
	.byte	KEYSH	, 0
song0020_13_8:
	.byte	VOICE	, 111
	.byte	VOL	, v092
	.byte	W96
	.byte	W96
	.byte	W96
	.byte	W96
song0020_13_1:
	.byte	W68
	.byte	W03
	.byte		N15	, Dn3, v127
	.byte	W24
	.byte	W01
	.byte	PEND
	.byte	W96
	.byte	PATT	
		.word	song0020_13_1
	.byte	W96
	.byte	PATT	
		.word	song0020_13_1
	.byte	W96
song0020_13_2:
	.byte	W68
	.byte	W03
	.byte		N15	, Gn3, v127
	.byte	W24
	.byte	W01
	.byte	PEND
	.byte	W96
	.byte	PATT	
		.word	song0020_13_1
	.byte	W96
song0020_13_3:
	.byte	W68
	.byte	W03
	.byte		N15	, Cn3, v127
	.byte	W24
	.byte	W01
	.byte	PEND
	.byte	W96
	.byte	W68
	.byte	W03
	.byte			An3
	.byte	W24
	.byte	W01
	.byte	W96
	.byte	PATT	
		.word	song0020_13_2
	.byte	W96
song0020_13_7:
	.byte	W68
	.byte	W03
	.byte		N15	, Fn3, v127
	.byte	W24
	.byte	W01
	.byte	PEND
	.byte	W96
	.byte	PATT	
		.word	song0020_13_2
	.byte	W96
	.byte	PATT	
		.word	song0020_13_1
	.byte	W96
	.byte	PATT	
		.word	song0020_13_1
	.byte	W96
	.byte	PATT	
		.word	song0020_13_1
	.byte	W96
	.byte	PATT	
		.word	song0020_13_2
	.byte	W96
	.byte	PATT	
		.word	song0020_13_1
	.byte	W96
	.byte	PATT	
		.word	song0020_13_3
	.byte	W96
	.byte	W68
	.byte	W03
	.byte		N15	, En3, v127
	.byte	W24
	.byte	W01
	.byte	W96
	.byte	PATT	
		.word	song0020_13_1
	.byte	W96
	.byte	PATT	
		.word	song0020_13_3
	.byte	W96
	.byte	W68
	.byte	W03
	.byte		N15	, As2, v127
	.byte	W24
	.byte	W01
	.byte	W96
	.byte	W96
	.byte	W96
	.byte	W96
	.byte	W96
	.byte	PATT	
		.word	song0020_13_1
	.byte	W96
	.byte	PATT	
		.word	song0020_13_1
	.byte	W96
song0020_13_4:
	.byte	W68
	.byte	W03
	.byte		N15	, Ds3, v127
	.byte	W24
	.byte	W01
	.byte	PEND
	.byte	W96
	.byte	PATT	
		.word	song0020_13_4
	.byte	W96
	.byte	PATT	
		.word	song0020_13_4
	.byte	W96
song0020_13_5:
	.byte	W68
	.byte	W03
	.byte		N15	, Gs3, v127
	.byte	W24
	.byte	W01
	.byte	PEND
	.byte	W96
	.byte	PATT	
		.word	song0020_13_4
	.byte	W96
song0020_13_6:
	.byte	W68
	.byte	W03
	.byte		N15	, Cs3, v127
	.byte	W24
	.byte	W01
	.byte	PEND
	.byte	W96
	.byte	W68
	.byte	W03
	.byte			As3
	.byte	W24
	.byte	W01
	.byte	W96
	.byte	PATT	
		.word	song0020_13_5
	.byte	W96
	.byte	W68
	.byte	W03
	.byte		N15	, Fs3, v127
	.byte	W24
	.byte	W01
	.byte	W96
	.byte	PATT	
		.word	song0020_13_5
	.byte	W96
	.byte	PATT	
		.word	song0020_13_4
	.byte	W96
	.byte	PATT	
		.word	song0020_13_4
	.byte	W96
	.byte	PATT	
		.word	song0020_13_4
	.byte	W96
	.byte	PATT	
		.word	song0020_13_5
	.byte	W96
	.byte	PATT	
		.word	song0020_13_4
	.byte	W96
	.byte	PATT	
		.word	song0020_13_6
	.byte	W96
	.byte	PATT	
		.word	song0020_13_7
	.byte	W96
	.byte	PATT	
		.word	song0020_13_4
	.byte	W96
	.byte	PATT	
		.word	song0020_13_6
	.byte	W96
	.byte	W68
	.byte	W03
	.byte		N15	, Bn2, v127
	.byte	W24
	.byte	W01
	.byte	W96
	.byte	GOTO	
		.word	song0020_13_8
	.byte	FINE

	@********************** Track  14 **********************@

	.global song0020_14
song0020_14:	@ 0x08C62421
	.byte	KEYSH	, 0
song0020_14_8:
	.byte	VOICE	, 112
	.byte	VOL	, v092
	.byte	W96
	.byte	W96
	.byte	W96
	.byte	W96
song0020_14_1:
	.byte	W84
	.byte	W03
	.byte		N24	, Dn3, v127
	.byte	W09
	.byte	PEND
	.byte	W96
	.byte	PATT	
		.word	song0020_14_1
	.byte	W96
	.byte	PATT	
		.word	song0020_14_1
	.byte	W96
song0020_14_2:
	.byte	W84
	.byte	W03
	.byte		N24	, Gn3, v127
	.byte	W09
	.byte	PEND
	.byte	W96
	.byte	PATT	
		.word	song0020_14_1
	.byte	W96
song0020_14_3:
	.byte	W84
	.byte	W03
	.byte		N24	, Cn3, v127
	.byte	W09
	.byte	PEND
	.byte	W96
	.byte	W84
	.byte	W03
	.byte			An3
	.byte	W09
	.byte	W96
	.byte	PATT	
		.word	song0020_14_2
	.byte	W96
	.byte	W84
	.byte	W03
	.byte		N24	, Fn3, v127
	.byte	W09
	.byte	W96
	.byte	PATT	
		.word	song0020_14_2
	.byte	W96
	.byte	PATT	
		.word	song0020_14_1
	.byte	W96
	.byte	PATT	
		.word	song0020_14_1
	.byte	W96
	.byte	PATT	
		.word	song0020_14_1
	.byte	W96
	.byte	PATT	
		.word	song0020_14_2
	.byte	W96
	.byte	PATT	
		.word	song0020_14_1
	.byte	W96
	.byte	PATT	
		.word	song0020_14_3
	.byte	W96
song0020_14_6:
	.byte	W84
	.byte	W03
	.byte		N24	, Fs3, v127
	.byte	W09
	.byte	PEND
	.byte	W96
	.byte	PATT	
		.word	song0020_14_1
	.byte	W96
	.byte	PATT	
		.word	song0020_14_3
	.byte	W96
song0020_14_4:
	.byte	W84
	.byte	W03
	.byte		N24	, Ds3, v127
	.byte	W09
	.byte	PEND
	.byte	W96
	.byte	W96
	.byte	W96
	.byte	W96
	.byte	W96
	.byte	PATT	
		.word	song0020_14_1
	.byte	W96
	.byte	PATT	
		.word	song0020_14_1
	.byte	W96
	.byte	PATT	
		.word	song0020_14_4
	.byte	W96
	.byte	PATT	
		.word	song0020_14_4
	.byte	W96
	.byte	PATT	
		.word	song0020_14_4
	.byte	W96
song0020_14_5:
	.byte	W84
	.byte	W03
	.byte		N24	, Gs3, v127
	.byte	W09
	.byte	PEND
	.byte	W96
	.byte	PATT	
		.word	song0020_14_4
	.byte	W96
song0020_14_7:
	.byte	W84
	.byte	W03
	.byte		N24	, Cs3, v127
	.byte	W09
	.byte	PEND
	.byte	W96
	.byte	W84
	.byte	W03
	.byte			As3
	.byte	W09
	.byte	W96
	.byte	PATT	
		.word	song0020_14_5
	.byte	W96
	.byte	PATT	
		.word	song0020_14_6
	.byte	W96
	.byte	PATT	
		.word	song0020_14_5
	.byte	W96
	.byte	PATT	
		.word	song0020_14_4
	.byte	W96
	.byte	PATT	
		.word	song0020_14_4
	.byte	W96
	.byte	PATT	
		.word	song0020_14_4
	.byte	W96
	.byte	PATT	
		.word	song0020_14_5
	.byte	W96
	.byte	PATT	
		.word	song0020_14_4
	.byte	W96
	.byte	PATT	
		.word	song0020_14_7
	.byte	W96
	.byte	PATT	
		.word	song0020_14_2
	.byte	W96
	.byte	PATT	
		.word	song0020_14_4
	.byte	W96
	.byte	PATT	
		.word	song0020_14_7
	.byte	W96
	.byte	W84
	.byte	W03
	.byte		N24	, En3, v127
	.byte	W09
	.byte	W96
	.byte	GOTO	
		.word	song0020_14_8
	.byte	FINE

	@********************** Track  15 **********************@

	.global song0020_15
song0020_15:	@ 0x08C6253F
	.byte	KEYSH	, 0
song0020_15_8:
	.byte	VOICE	, 113
	.byte	VOL	, v092
	.byte	W96
	.byte	W96
	.byte	W96
	.byte	W96
	.byte	W96
song0020_15_1:
	.byte	W15
	.byte		N08	, Dn3, v127
	.byte	W80
	.byte	W01
	.byte	PEND
	.byte	W96
	.byte	PATT	
		.word	song0020_15_1
	.byte	W96
	.byte	PATT	
		.word	song0020_15_1
	.byte	W96
song0020_15_2:
	.byte	W15
	.byte		N08	, Gn3, v127
	.byte	W80
	.byte	W01
	.byte	PEND
	.byte	W96
	.byte	PATT	
		.word	song0020_15_1
	.byte	W96
song0020_15_3:
	.byte	W15
	.byte		N08	, Cn3, v127
	.byte	W80
	.byte	W01
	.byte	PEND
	.byte	W96
	.byte	W15
	.byte			An3
	.byte	W80
	.byte	W01
	.byte	W96
	.byte	PATT	
		.word	song0020_15_2
	.byte	W96
	.byte	W15
	.byte		N08	, Fn3, v127
	.byte	W80
	.byte	W01
	.byte	W96
	.byte	PATT	
		.word	song0020_15_2
	.byte	W96
	.byte	PATT	
		.word	song0020_15_1
	.byte	W96
	.byte	PATT	
		.word	song0020_15_1
	.byte	W96
	.byte	PATT	
		.word	song0020_15_1
	.byte	W96
	.byte	PATT	
		.word	song0020_15_2
	.byte	W96
	.byte	PATT	
		.word	song0020_15_1
	.byte	W96
	.byte	PATT	
		.word	song0020_15_3
	.byte	W96
song0020_15_6:
	.byte	W15
	.byte		N08	, Fs3, v127
	.byte	W80
	.byte	W01
	.byte	PEND
	.byte	W96
	.byte	PATT	
		.word	song0020_15_1
	.byte	W96
	.byte	PATT	
		.word	song0020_15_3
	.byte	W96
song0020_15_4:
	.byte	W15
	.byte		N08	, Ds3, v127
	.byte	W80
	.byte	W01
	.byte	PEND
	.byte	W96
	.byte	W96
	.byte	W96
	.byte	W96
	.byte	W96
	.byte	PATT	
		.word	song0020_15_1
	.byte	W96
	.byte	PATT	
		.word	song0020_15_1
	.byte	W96
	.byte	PATT	
		.word	song0020_15_4
	.byte	W96
	.byte	PATT	
		.word	song0020_15_4
	.byte	W96
	.byte	PATT	
		.word	song0020_15_4
	.byte	W96
song0020_15_5:
	.byte	W15
	.byte		N08	, Gs3, v127
	.byte	W80
	.byte	W01
	.byte	PEND
	.byte	W96
	.byte	PATT	
		.word	song0020_15_4
	.byte	W96
song0020_15_7:
	.byte	W15
	.byte		N08	, Cs3, v127
	.byte	W80
	.byte	W01
	.byte	PEND
	.byte	W96
	.byte	W15
	.byte			As3
	.byte	W80
	.byte	W01
	.byte	W96
	.byte	PATT	
		.word	song0020_15_5
	.byte	W96
	.byte	PATT	
		.word	song0020_15_6
	.byte	W96
	.byte	PATT	
		.word	song0020_15_5
	.byte	W96
	.byte	PATT	
		.word	song0020_15_4
	.byte	W96
	.byte	PATT	
		.word	song0020_15_4
	.byte	W96
	.byte	PATT	
		.word	song0020_15_4
	.byte	W96
	.byte	PATT	
		.word	song0020_15_5
	.byte	W96
	.byte	PATT	
		.word	song0020_15_4
	.byte	W96
	.byte	PATT	
		.word	song0020_15_7
	.byte	W96
	.byte	PATT	
		.word	song0020_15_2
	.byte	W96
	.byte	PATT	
		.word	song0020_15_4
	.byte	W96
	.byte	PATT	
		.word	song0020_15_7
	.byte	W96
	.byte	W15
	.byte		N08	, En3, v127
	.byte	W80
	.byte	W01
	.byte	GOTO	
		.word	song0020_15_8
	.byte	FINE

	@********************** Track  16 **********************@

	.global song0020_16
song0020_16:	@ 0x08C6265D
	.byte	KEYSH	, 0
song0020_16_1:
	.byte	VOICE	, 114
	.byte	VOL	, v092
	.byte	W96
	.byte	W96
	.byte	W96
	.byte	W96
	.byte	W96
	.byte	W24
	.byte		N23	, Dn3, v127
	.byte	W72
	.byte	W96
	.byte	W24
	.byte		N23	
	.byte	W72
	.byte	W96
	.byte	W24
	.byte		N23	
	.byte	W72
	.byte	W96
	.byte	W24
	.byte			Gn3
	.byte	W72
	.byte	W96
	.byte	W24
	.byte			Dn3
	.byte	W72
	.byte	W96
	.byte	W24
	.byte			Cn3
	.byte	W72
	.byte	W96
	.byte	W24
	.byte			An3
	.byte	W72
	.byte	W96
	.byte	W24
	.byte			Gn3
	.byte	W72
	.byte	W96
	.byte	W24
	.byte			Fn3
	.byte	W72
	.byte	W96
	.byte	W24
	.byte			Gn3
	.byte	W72
	.byte	W96
	.byte	W24
	.byte			Dn3
	.byte	W72
	.byte	W96
	.byte	W24
	.byte		N23	
	.byte	W72
	.byte	W96
	.byte	W24
	.byte		N23	
	.byte	W72
	.byte	W96
	.byte	W24
	.byte			Gn3
	.byte	W72
	.byte	W96
	.byte	W24
	.byte			Dn3
	.byte	W72
	.byte	W96
	.byte	W24
	.byte			Cn3
	.byte	W72
	.byte	W96
	.byte	W24
	.byte			Fs3
	.byte	W72
	.byte	W96
	.byte	W24
	.byte			Dn3
	.byte	W72
	.byte	W96
	.byte	W24
	.byte			Cn3
	.byte	W72
	.byte	W96
	.byte	W24
	.byte			Ds3
	.byte	W72
	.byte	W96
	.byte	W96
	.byte	W96
	.byte	W96
	.byte	W96
	.byte	W24
	.byte			Dn3
	.byte	W72
	.byte	W96
	.byte	W24
	.byte		N23	
	.byte	W72
	.byte	W96
	.byte	W24
	.byte			Ds3
	.byte	W72
	.byte	W96
	.byte	W24
	.byte		N23	
	.byte	W72
	.byte	W96
	.byte	W24
	.byte		N23	
	.byte	W72
	.byte	W96
	.byte	W24
	.byte			Gs3
	.byte	W72
	.byte	W96
	.byte	W24
	.byte			Ds3
	.byte	W72
	.byte	W96
	.byte	W24
	.byte			Cs3
	.byte	W72
	.byte	W96
	.byte	W24
	.byte			As3
	.byte	W72
	.byte	W96
	.byte	W24
	.byte			Gs3
	.byte	W72
	.byte	W96
	.byte	W24
	.byte			Fs3
	.byte	W72
	.byte	W96
	.byte	W24
	.byte			Gs3
	.byte	W72
	.byte	W96
	.byte	W24
	.byte			Ds3
	.byte	W72
	.byte	W96
	.byte	W24
	.byte		N23	
	.byte	W72
	.byte	W96
	.byte	W24
	.byte		N23	
	.byte	W72
	.byte	W96
	.byte	W24
	.byte			Gs3
	.byte	W72
	.byte	W96
	.byte	W24
	.byte			Ds3
	.byte	W72
	.byte	W96
	.byte	W24
	.byte			Cs3
	.byte	W72
	.byte	W96
	.byte	W24
	.byte			Gn3
	.byte	W72
	.byte	W96
	.byte	W24
	.byte			Ds3
	.byte	W72
	.byte	W96
	.byte	W24
	.byte			Cs3
	.byte	W72
	.byte	W96
	.byte	W24
	.byte			En3
	.byte	W72
	.byte	GOTO	
		.word	song0020_16_1
	.byte	FINE

	.align 2
	.global song0020
song0020:	@ 0x08C6271C
	.byte	16		@ trackCount
	.byte	0		@ blockCount
	.byte	0		@ priority
	.byte	128		@ reverb

	.word	voicegroup014		@ voicegroup/tone

	.word	song0020_1		@ track
	.word	song0020_2		@ track
	.word	song0020_3		@ track
	.word	song0020_4		@ track
	.word	song0020_5		@ track
	.word	song0020_6		@ track
	.word	song0020_7		@ track
	.word	song0020_8		@ track
	.word	song0020_9		@ track
	.word	song0020_10		@ track
	.word	song0020_11		@ track
	.word	song0020_12		@ track
	.word	song0020_13		@ track
	.word	song0020_14		@ track
	.word	song0020_15		@ track
	.word	song0020_16		@ track
