	.include "MPlayDef.s"

	.section .rodata

	@********************** Track  1 **********************@

	.align 2
	.global song0022_1
song0022_1:	@ 0x08C638FC
	.byte	KEYSH	, 0
	.byte	TEMPO	, 75
	.byte	VOICE	, 127
	.byte	VOL	, v110
	.byte	PAN	, c_v
	.byte	BENDR	, 3
	.byte		N12	, En1, v032
	.byte		N06	, Ds2, v127
	.byte	W18
	.byte		N03	, Dn1, v048
	.byte	W06
	.byte			Dn1, v072
	.byte		N06	, Ds2, v127
	.byte	W12
	.byte		N03	, Dn1, v048
	.byte	W06
	.byte		N03	
	.byte	W06
	.byte			Dn1, v072
	.byte		N06	, Ds2, v127
	.byte	W12
	.byte		N03	, Dn1, v048
	.byte	W06
	.byte		N03	
	.byte	W06
	.byte			Dn1, v072
	.byte		N06	, Ds2, v127
	.byte	W12
	.byte		N11	, En1, v048
	.byte	W12
	.byte		N06	, Ds2, v127
	.byte	W12
	.byte		N03	, Dn1, v072
	.byte	W06
	.byte		N03	
	.byte	W06
	.byte		N03	
	.byte		N06	, Ds2, v127
	.byte	W12
	.byte		N03	, Dn1, v048
	.byte	W06
	.byte		N03	
	.byte	W06
	.byte			Dn1, v072
	.byte		N06	, Ds2, v127
	.byte	W12
	.byte		N03	, Dn1, v048
	.byte	W06
	.byte		N03	
	.byte	W06
	.byte			Dn1, v072
	.byte		N06	, Ds2, v127
	.byte	W12
	.byte		N10	, En1, v048
	.byte	W12
	.byte		N12	, En1, v032
	.byte		N06	, Ds2, v127
	.byte	W18
	.byte		N03	, Dn1, v048
	.byte	W06
	.byte			Dn1, v072
	.byte		N06	, Ds2, v127
	.byte	W12
	.byte		N03	, Dn1, v048
	.byte	W06
	.byte		N03	
	.byte	W06
	.byte			Dn1, v072
	.byte		N06	, Ds2, v127
	.byte	W12
	.byte		N03	, Dn1, v048
	.byte	W06
	.byte		N03	
	.byte	W06
	.byte			Dn1, v072
	.byte		N06	, Ds2, v127
	.byte	W12
	.byte		N11	, En1, v048
	.byte	W12
	.byte		N06	, Ds2, v127
	.byte	W12
	.byte		N03	, Dn1, v072
	.byte	W06
	.byte		N03	
	.byte	W06
	.byte		N06	, Cs1, v112
	.byte		N03	, Dn1, v072
	.byte		N06	, Ds2, v127
	.byte	W12
	.byte		N03	, Dn1, v048
	.byte	W06
	.byte		N03	
	.byte	W06
	.byte		N06	, Cs1, v112
	.byte		N03	, Dn1, v072
	.byte		N06	, Ds2, v127
	.byte	W12
	.byte		N03	, Dn1, v048
	.byte	W06
	.byte		N03	
	.byte	W06
	.byte		N06	, Cs1, v112
	.byte		N03	, Dn1, v072
	.byte		N06	, Ds2, v127
	.byte	W06
	.byte			Cs1, v112
	.byte	W06
	.byte		N06	
	.byte		N10	, En1, v048
	.byte	W06
	.byte		N06	, Cs1, v112
	.byte	W06
song0022_1_8:
	.byte		N12	, En1, v032
	.byte		N06	, Ds2, v127
	.byte	W18
	.byte		N03	, Dn1, v048
	.byte	W06
	.byte		N06	, Cs1, v127
	.byte		N03	, Dn1, v072
	.byte		N06	, Ds2, v127
	.byte	W12
	.byte		N03	, Dn1, v048
	.byte	W06
	.byte		N03	
	.byte	W06
	.byte			Dn1, v072
	.byte		N06	, Ds2, v127
	.byte	W12
	.byte		N03	, Dn1, v048
	.byte	W06
	.byte		N03	
	.byte	W06
	.byte		N06	, Cs1, v127
	.byte		N03	, Dn1, v072
	.byte		N06	, Ds2, v127
	.byte	W12
	.byte		N11	, En1, v048
	.byte	W12
song0022_1_1:
	.byte		N06	, Ds2, v127
	.byte	W12
	.byte		N03	, Dn1, v072
	.byte	W06
	.byte		N03	
	.byte	W06
	.byte		N06	, Cs1, v127
	.byte		N03	, Dn1, v072
	.byte		N06	, Ds2, v127
	.byte	W12
	.byte		N03	, Dn1, v048
	.byte	W06
	.byte		N03	
	.byte	W06
	.byte			Dn1, v072
	.byte		N06	, Ds2, v127
	.byte	W06
	.byte			Cs1
	.byte	W06
	.byte		N03	, Dn1, v048
	.byte	W06
	.byte		N03	
	.byte	W06
	.byte		N06	, Cs1, v127
	.byte		N03	, Dn1, v072
	.byte		N06	, Ds2, v127
	.byte	W12
	.byte		N10	, En1, v048
	.byte	W12
	.byte	PEND
song0022_1_2:
	.byte		N06	, Ds2, v127
	.byte	W12
	.byte		N03	, Dn1, v048
	.byte	W06
	.byte		N03	
	.byte	W06
	.byte		N06	, Cs1, v127
	.byte		N03	, Dn1, v072
	.byte		N06	, Ds2, v127
	.byte	W12
	.byte		N03	, Dn1, v048
	.byte	W06
	.byte		N03	
	.byte	W06
	.byte			Dn1, v072
	.byte		N06	, Ds2, v127
	.byte	W12
	.byte		N03	, Dn1, v048
	.byte	W06
	.byte		N03	
	.byte	W06
	.byte		N06	, Cs1, v127
	.byte		N03	, Dn1, v072
	.byte		N06	, Ds2, v127
	.byte	W12
	.byte		N11	, En1, v048
	.byte	W12
	.byte	PEND
	.byte	PATT	
		.word	song0022_1_1
	.byte	PATT	
		.word	song0022_1_2
	.byte	PATT	
		.word	song0022_1_1
	.byte	PATT	
		.word	song0022_1_2
song0022_1_3:
	.byte		N06	, Ds2, v127
	.byte	W12
	.byte		N03	, Dn1, v072
	.byte	W06
	.byte		N03	
	.byte	W06
	.byte		N06	, Cs1, v127
	.byte		N03	, Dn1, v072
	.byte		N06	, Ds2, v127
	.byte	W12
	.byte		N03	, Dn1, v048
	.byte	W06
	.byte		N03	
	.byte	W06
	.byte			Dn1, v072
	.byte		N06	, Ds2, v127
	.byte	W06
	.byte			Cs1
	.byte	W06
	.byte		N03	, Dn1, v048
	.byte	W06
	.byte		N03	
	.byte	W06
	.byte		N06	, Cs1, v127
	.byte		N03	, Dn1, v072
	.byte		N06	, Ds2, v127
	.byte	W12
	.byte			Cs1
	.byte		N10	, En1, v048
	.byte	W06
	.byte		N06	, Cs1, v127
	.byte	W06
	.byte	PEND
	.byte	PATT	
		.word	song0022_1_2
song0022_1_4:
	.byte		N06	, Ds2, v127
	.byte	W12
	.byte		N03	, Dn1, v072
	.byte	W06
	.byte		N03	
	.byte	W06
	.byte		N06	, Cs1, v127
	.byte		N03	, Dn1, v072
	.byte		N06	, Ds2, v127
	.byte	W12
	.byte		N03	, Dn1, v048
	.byte	W06
	.byte		N03	
	.byte	W06
	.byte			Dn1, v072
	.byte		N06	, Ds2, v127
	.byte	W12
	.byte		N03	, Dn1, v048
	.byte	W06
	.byte		N03	
	.byte	W06
	.byte		N06	, Cs1, v127
	.byte		N03	, Dn1, v072
	.byte		N06	, Ds2, v127
	.byte	W12
	.byte		N10	, En1, v048
	.byte	W06
	.byte		N06	, Cs1, v127
	.byte	W06
	.byte	PEND
	.byte	PATT	
		.word	song0022_1_2
	.byte	PATT	
		.word	song0022_1_3
	.byte	PATT	
		.word	song0022_1_2
song0022_1_5:
	.byte		N06	, Ds2, v127
	.byte	W12
	.byte		N03	, Dn1, v072
	.byte	W06
	.byte		N03	
	.byte	W06
	.byte		N06	, Cs1, v127
	.byte		N03	, Dn1, v072
	.byte		N06	, Ds2, v127
	.byte	W12
	.byte		N03	, Dn1, v048
	.byte	W06
	.byte		N03	
	.byte	W06
	.byte			Dn1, v072
	.byte		N06	, Ds2, v127
	.byte	W12
	.byte		N03	, Dn1, v048
	.byte	W06
	.byte		N03	
	.byte	W06
	.byte		N06	, Cs1, v127
	.byte		N03	, Dn1, v072
	.byte		N06	, Ds2, v127
	.byte	W12
	.byte			Cs1
	.byte		N10	, En1, v048
	.byte	W06
	.byte		N06	, Cs1, v127
	.byte	W06
	.byte	PEND
	.byte	PATT	
		.word	song0022_1_2
song0022_1_6:
	.byte		N06	, Ds2, v127
	.byte	W12
	.byte		N03	, Dn1, v072
	.byte	W06
	.byte		N03	
	.byte	W06
	.byte		N06	, Cs1, v127
	.byte		N03	, Dn1, v072
	.byte		N06	, Ds2, v127
	.byte	W12
	.byte		N03	, Dn1, v048
	.byte	W06
	.byte		N03	
	.byte	W06
	.byte			Dn1, v072
	.byte		N06	, Ds2, v127
	.byte	W06
	.byte			Cs1
	.byte	W06
	.byte		N03	, Dn1, v048
	.byte	W06
	.byte		N03	
	.byte	W06
	.byte		N06	, Cs1, v127
	.byte		N03	, Dn1, v072
	.byte		N06	, Ds2, v127
	.byte	W06
	.byte			Cs1
	.byte	W06
	.byte		N06	
	.byte		N10	, En1, v048
	.byte	W06
	.byte		N06	, Cs1, v127
	.byte	W06
	.byte	PEND
	.byte	PATT	
		.word	song0022_1_2
	.byte	PATT	
		.word	song0022_1_4
	.byte	PATT	
		.word	song0022_1_2
	.byte	PATT	
		.word	song0022_1_3
	.byte	PATT	
		.word	song0022_1_2
	.byte	PATT	
		.word	song0022_1_5
	.byte	PATT	
		.word	song0022_1_2
	.byte	PATT	
		.word	song0022_1_6
	.byte	PATT	
		.word	song0022_1_2
	.byte	PATT	
		.word	song0022_1_4
	.byte	PATT	
		.word	song0022_1_2
	.byte		N06	, Ds2, v127
	.byte	W12
	.byte		N03	, Dn1, v072
	.byte	W06
	.byte		N03	
	.byte	W06
	.byte		N06	, Cs1, v127
	.byte		N03	, Dn1, v072
	.byte		N06	, Ds2, v127
	.byte	W12
	.byte		N03	, Dn1, v048
	.byte	W06
	.byte		N03	
	.byte	W06
	.byte			Dn1, v072
	.byte		N06	, Ds2, v127
	.byte	W12
	.byte			Cs1
	.byte		N03	, Dn1, v048
	.byte	W06
	.byte		N03	
	.byte	W06
	.byte		N06	, Cs1, v127
	.byte		N03	, Dn1, v072
	.byte		N06	, Ds2, v127
	.byte	W12
	.byte			Cs1
	.byte		N10	, En1, v048
	.byte	W12
	.byte	PATT	
		.word	song0022_1_2
	.byte	PATT	
		.word	song0022_1_3
	.byte	PATT	
		.word	song0022_1_2
	.byte	PATT	
		.word	song0022_1_3
	.byte	PATT	
		.word	song0022_1_2
song0022_1_7:
	.byte		N06	, Ds2, v127
	.byte	W12
	.byte		N03	, Dn1, v072
	.byte	W06
	.byte		N03	
	.byte	W06
	.byte		N06	, Cs1, v127
	.byte		N03	, Dn1, v072
	.byte		N06	, Ds2, v127
	.byte	W12
	.byte		N03	, Dn1, v048
	.byte	W06
	.byte		N03	
	.byte	W06
	.byte			Dn1, v072
	.byte		N06	, Ds2, v127
	.byte	W12
	.byte		N03	, Dn1, v048
	.byte	W06
	.byte		N03	
	.byte	W06
	.byte		N06	, Cs1, v127
	.byte		N03	, Dn1, v072
	.byte		N06	, Ds2, v127
	.byte	W12
	.byte		N10	, En1, v048
	.byte	W12
	.byte	PEND
	.byte	PATT	
		.word	song0022_1_2
	.byte	PATT	
		.word	song0022_1_7
	.byte	GOTO	
		.word	song0022_1_8
	.byte	PATT	
		.word	song0022_1_2
	.byte	PATT	
		.word	song0022_1_7
	.byte	PATT	
		.word	song0022_1_2
	.byte		N06	, Ds2, v127
	.byte	W12
	.byte		N03	, Dn1, v072
	.byte	W06
	.byte		N03	
	.byte	W06
	.byte		N06	, Cs1, v127
	.byte		N03	, Dn1, v072
	.byte		N06	, Ds2, v127
	.byte	W12
	.byte		N03	, Dn1, v048
	.byte	W06
	.byte		N03	
	.byte	W06
	.byte			Dn1, v072
	.byte		N06	, Ds2, v127
	.byte	W12
	.byte		N03	, Dn1, v048
	.byte	W06
	.byte		N03	
	.byte	W06
	.byte		N06	, Cs1, v127
	.byte		N03	, Dn1, v072
	.byte		N06	, Ds2, v127
	.byte	W12
	.byte		N10	, En1, v048
	.byte	W10
	.byte	FINE

	@********************** Track  2 **********************@

	.global song0022_2
song0022_2:	@ 0x08C63C96
	.byte	KEYSH	, 0
	.byte	VOICE	, 74
	.byte	VOL	, v090
	.byte	PAN	, c_v
	.byte	BENDR	, 13
	.byte	LFOS	, 18
	.byte	LFODL	, 20
	.byte	MOD	, 0
	.byte	MODT	, 0
	.byte	BEND	, c_v
	.byte	W96
	.byte	W96
	.byte	W96
	.byte	W96
song0022_2_6:
	.byte	W96
	.byte	W96
	.byte	W96
	.byte	W96
	.byte	W96
	.byte	W96
	.byte	W96
	.byte	W96
song0022_2_1:
	.byte	W23
	.byte		N14	, En3, v127
	.byte		N21	, An3, v120
	.byte	W21
	.byte		N03	, Gn3, v064
	.byte	W02
	.byte		N02	, Fn3, v072
	.byte	W02
	.byte			En3, v104
	.byte	W02
	.byte		N01	, Dn3
	.byte	W02
	.byte		N02	, Cn3, v072
	.byte	W01
	.byte			Bn2, v088
	.byte	W02
	.byte		N01	, An2, v092
	.byte	W02
	.byte			Gn2, v100
	.byte	W36
	.byte	W03
	.byte	PEND
	.byte	W96
song0022_2_2:
	.byte	W84
	.byte		N22	, Dn3, v108
	.byte		N22	, Gn3
	.byte	W12
	.byte	PEND
song0022_2_3:
	.byte	W12
	.byte		N03	, Cs3, v096
	.byte		N03	, Fs3, v072
	.byte	W12
	.byte		N12	, Bn2, v120
	.byte		N12	, En3, v108
	.byte	W24
	.byte		N03	, Dn3, v120
	.byte		N03	, Gn3, v104
	.byte	W12
	.byte		N17	, En3, v127
	.byte		N17	, An3
	.byte	W18
	.byte		N02	, Gn3, v096
	.byte	W01
	.byte			Fn3, v104
	.byte	W02
	.byte			En3, v116
	.byte	W02
	.byte			Dn3
	.byte	W01
	.byte			Cn3, v108
	.byte	W01
	.byte			Bn2, v116
	.byte	W02
	.byte			An2, v108
	.byte	W01
	.byte		N01	, Gn2, v104
	.byte	W04
	.byte			En2, v076
	.byte	W04
	.byte	PEND
song0022_2_4:
	.byte	W80
	.byte	W03
	.byte		N32	, En3, v116
	.byte		N32	, An3
	.byte	W13
	.byte	PEND
	.byte	W22
	.byte		N07	, Dn3, v108
	.byte		N06	, Gn3, v104
	.byte	W24
	.byte	W01
	.byte		N07	, Dn3, v108
	.byte		N06	, Fs3
	.byte	W24
	.byte	W01
	.byte		N07	, Bn2, v104
	.byte		N06	, En3, v108
	.byte	W24
	.byte		N07	, Cs3, v104
	.byte		N06	, En3, v108
	.byte	W06
	.byte		N02	, Ds3, v096
	.byte	W01
	.byte			Cs3, v104
	.byte	W02
	.byte			Cn3, v116
	.byte	W01
	.byte			As2
	.byte	W01
	.byte			Gs2, v108
	.byte	W02
	.byte			Gn2, v116
	.byte	W01
	.byte			Fn2, v108
	.byte	W02
	.byte		N01	, Ds2, v104
	.byte	W03
	.byte			Cn2, v076
	.byte	W52
	.byte	W01
	.byte		N06	, An2, v127
	.byte		N06	, En3
	.byte	W12
	.byte		N08	, En2
	.byte		N08	, An2
	.byte	W12
song0022_2_5:
	.byte	W12
	.byte		N06	, Gn2, v127
	.byte		N06	, Cs3
	.byte	W12
	.byte		N08	, Dn2
	.byte		N08	, Gn2
	.byte	W24
	.byte		N06	, En2
	.byte		N06	, Bn2
	.byte	W12
	.byte		N08	, Bn1
	.byte		N08	, En2
	.byte	W24
	.byte		N06	
	.byte		N06	, An2
	.byte	W12
	.byte	PEND
	.byte	PATT	
		.word	song0022_2_1
	.byte	W96
	.byte	PATT	
		.word	song0022_2_2
	.byte	PATT	
		.word	song0022_2_3
	.byte	PATT	
		.word	song0022_2_4
	.byte	W22
	.byte		N08	, Gn3, v104
	.byte	W24
	.byte	W01
	.byte			Fs3, v108
	.byte	W24
	.byte	W01
	.byte			En3
	.byte	W24
	.byte		N05	, Dn3, v104
	.byte	W06
	.byte		N02	, Cs3, v096
	.byte	W01
	.byte			Bn2, v104
	.byte	W02
	.byte			As2, v116
	.byte	W01
	.byte			Gs2
	.byte	W01
	.byte			Fs2, v108
	.byte	W02
	.byte			Fn2, v116
	.byte	W01
	.byte			Ds2, v108
	.byte	W02
	.byte		N01	, Cs2, v104
	.byte	W03
	.byte			As1, v076
	.byte	W52
	.byte	W01
	.byte		N06	, An2, v127
	.byte		N06	, En3
	.byte	W12
	.byte		N08	, En2
	.byte		N08	, An2
	.byte	W12
	.byte	PATT	
		.word	song0022_2_5
	.byte	W96
	.byte	W24
	.byte		N23	, Bn2, v120
	.byte	W24
	.byte		N24	, En3, v104
	.byte	W24
	.byte	W01
	.byte		N15	, Bn3
	.byte	W14
	.byte		N06	, An3, v092
	.byte	W05
	.byte			Gs3, v100
	.byte	W04
	.byte	W01
	.byte		TIE	, Fs3, v092
	.byte	W92
	.byte	W03
	.byte	W52
	.byte		EOT	
	.byte	W44
	.byte	W96
	.byte	W24
	.byte		N24	, Bn2, v116
	.byte	W24
	.byte			En3, v096
	.byte	W24
	.byte		N18	, Bn3, v104
	.byte	W16
	.byte		N06	, An3, v096
	.byte	W04
	.byte			Gs3
	.byte	W04
	.byte		TIE	, Fs3, v100
	.byte	W96
	.byte	W20
	.byte		EOT	
	.byte	W03
	.byte		N24	, Fs3, v088
	.byte	W24
	.byte		N23	, Gs3, v096
	.byte	W24
	.byte			An3
	.byte	W24
	.byte		N92	, Bn3
	.byte	W01
	.byte	W92
	.byte	W03
	.byte			An3
	.byte	W01
	.byte	W92
	.byte	W03
	.byte			Gs3
	.byte	W01
	.byte	W92
	.byte	W03
	.byte			Fs3
	.byte	W01
	.byte	W96
	.byte	GOTO	
		.word	song0022_2_6
	.byte	FINE

	@********************** Track  3 **********************@

	.global song0022_3
song0022_3:	@ 0x08C63E32
	.byte	KEYSH	, 0
	.byte	VOICE	, 2
	.byte	VOL	, v095
	.byte	PAN	, c_v
	.byte	BENDR	, 3
	.byte	LFOS	, 56
	.byte	LFODL	, 0
	.byte	MOD	, 0
	.byte	MODT	, 2
	.byte		N11	, An1, v127
	.byte	W12
	.byte		N11	
	.byte	W12
	.byte		N11	
	.byte	W12
	.byte		N11	
	.byte	W12
	.byte		N11	
	.byte	W12
	.byte		N11	
	.byte	W12
	.byte		N11	
	.byte	W12
	.byte		N23	, Gn1
	.byte	W12
song0022_3_1:
	.byte	W12
	.byte		N11	, Gn1, v127
	.byte	W12
	.byte		N11	
	.byte	W12
	.byte		N11	
	.byte	W12
	.byte		N11	
	.byte	W12
	.byte		N11	
	.byte	W12
	.byte		N11	
	.byte	W12
	.byte		N23	, An1
	.byte	W12
	.byte	PEND
song0022_3_2:
	.byte	W12
	.byte		N11	, An1, v127
	.byte	W12
	.byte		N11	
	.byte	W12
	.byte		N11	
	.byte	W12
	.byte		N11	
	.byte	W12
	.byte		N11	
	.byte	W12
	.byte		N11	
	.byte	W12
	.byte		N23	, Gn1
	.byte	W12
	.byte	PEND
song0022_3_3:
	.byte	W12
	.byte		N11	, Gn1, v127
	.byte	W12
	.byte		N11	
	.byte	W12
	.byte		N11	
	.byte	W12
	.byte		N11	
	.byte	W12
	.byte		N11	
	.byte	W12
	.byte		N11	
	.byte	W12
	.byte		N11	
	.byte	W12
	.byte	PEND
song0022_3_4:
	.byte		N11	, An1, v127
	.byte	W12
	.byte		N11	
	.byte	W12
	.byte		N11	
	.byte	W12
	.byte		N11	
	.byte	W12
	.byte		N11	
	.byte	W12
	.byte		N11	
	.byte	W12
	.byte		N11	
	.byte	W12
	.byte		N23	, Gn1
	.byte	W12
	.byte	PEND
	.byte	PATT	
		.word	song0022_3_1
	.byte	PATT	
		.word	song0022_3_2
	.byte	PATT	
		.word	song0022_3_3
	.byte	PATT	
		.word	song0022_3_4
	.byte	PATT	
		.word	song0022_3_1
	.byte	PATT	
		.word	song0022_3_2
	.byte	PATT	
		.word	song0022_3_3
song0022_3_5:
	.byte		N10	, An1, v127
	.byte	W12
	.byte		N10	
	.byte	W12
	.byte		N10	
	.byte	W12
	.byte		N10	
	.byte	W12
	.byte		N10	
	.byte	W12
	.byte		N10	
	.byte	W12
	.byte		N10	
	.byte	W12
	.byte		N20	, Gn1
	.byte	W12
	.byte	PEND
song0022_3_6:
	.byte	W12
	.byte		N10	, Gn1, v127
	.byte	W12
	.byte		N10	
	.byte	W12
	.byte		N10	
	.byte	W12
	.byte		N10	
	.byte	W12
	.byte			En1
	.byte	W12
	.byte			Gn1
	.byte	W12
	.byte			Bn1
	.byte	W12
	.byte	PEND
	.byte	PATT	
		.word	song0022_3_5
song0022_3_7:
	.byte	W12
	.byte		N10	, Gn1, v127
	.byte	W12
	.byte		N10	
	.byte	W12
	.byte		N10	
	.byte	W12
	.byte		N10	
	.byte	W12
	.byte		N10	
	.byte	W12
	.byte		N10	
	.byte	W12
	.byte		N10	
	.byte	W12
	.byte	PEND
	.byte	PATT	
		.word	song0022_3_5
	.byte	PATT	
		.word	song0022_3_6
	.byte	PATT	
		.word	song0022_3_5
	.byte	PATT	
		.word	song0022_3_7
	.byte	PATT	
		.word	song0022_3_5
	.byte	PATT	
		.word	song0022_3_6
	.byte	PATT	
		.word	song0022_3_5
	.byte	PATT	
		.word	song0022_3_7
	.byte	PATT	
		.word	song0022_3_5
	.byte	PATT	
		.word	song0022_3_6
	.byte	PATT	
		.word	song0022_3_5
	.byte	PATT	
		.word	song0022_3_7
song0022_3_8:
	.byte		N11	, En1, v127
	.byte	W12
	.byte			Bn1
	.byte	W12
	.byte			En2
	.byte	W12
	.byte			Bn1
	.byte	W12
	.byte			En1
	.byte	W12
	.byte			Bn1, v124
	.byte	W12
	.byte			An1, v127
	.byte	W12
	.byte		N23	, En1
	.byte	W12
	.byte	PEND
song0022_3_9:
	.byte	W12
	.byte		N11	, En2, v127
	.byte	W12
	.byte			Bn1
	.byte	W12
	.byte			En1
	.byte	W12
	.byte			En2
	.byte	W12
	.byte			En1
	.byte	W12
	.byte			Bn1
	.byte	W12
	.byte		N09	, En2
	.byte	W12
	.byte	PEND
song0022_3_10:
	.byte		N11	, Dn1, v127
	.byte	W12
	.byte			An1
	.byte	W12
	.byte			Dn2
	.byte	W12
	.byte			An1
	.byte	W12
	.byte			Dn1
	.byte	W12
	.byte			An1, v124
	.byte	W12
	.byte			Gn1, v127
	.byte	W12
	.byte		N23	, Dn1
	.byte	W12
	.byte	PEND
song0022_3_11:
	.byte	W12
	.byte		N11	, Dn2, v127
	.byte	W12
	.byte			An1
	.byte	W12
	.byte			Dn1
	.byte	W12
	.byte			Dn2
	.byte	W12
	.byte			Dn1
	.byte	W12
	.byte			An1
	.byte	W12
	.byte		N09	, Dn2
	.byte	W12
	.byte	PEND
	.byte	PATT	
		.word	song0022_3_8
	.byte	PATT	
		.word	song0022_3_9
	.byte	PATT	
		.word	song0022_3_10
	.byte	PATT	
		.word	song0022_3_11
song0022_3_12:
	.byte		N11	, Bn1, v127
	.byte	W12
	.byte			Fs2
	.byte	W12
	.byte			Bn2
	.byte	W12
	.byte			Fs2
	.byte	W12
	.byte			Bn1
	.byte	W12
	.byte			Fs2, v124
	.byte	W12
	.byte			En2, v127
	.byte	W12
	.byte		N23	, Bn1
	.byte	W12
	.byte	PEND
song0022_3_13:
	.byte	W12
	.byte		N11	, Bn2, v127
	.byte	W12
	.byte			Fs2
	.byte	W12
	.byte			Bn1
	.byte	W12
	.byte			Bn2
	.byte	W12
	.byte			Bn1
	.byte	W12
	.byte			Fs2
	.byte	W12
	.byte		N09	, Bn2
	.byte	W12
	.byte	PEND
	.byte	PATT	
		.word	song0022_3_12
	.byte	W12
	.byte		N11	, Bn2, v127
	.byte	W12
	.byte			Fs2
	.byte	W12
	.byte			Bn1
	.byte	W12
	.byte			Bn2
	.byte	W12
	.byte			Bn1
	.byte	W12
	.byte			Fs2
	.byte	W12
	.byte			Bn2
	.byte	W12
	.byte	GOTO	
		.word	song0022_3_4
	.byte	PATT	
		.word	song0022_3_12
	.byte	PATT	
		.word	song0022_3_13
	.byte	PATT	
		.word	song0022_3_12
	.byte	W12
	.byte		N11	, Bn2, v127
	.byte	W12
	.byte			Fs2
	.byte	W12
	.byte			Bn1
	.byte	W12
	.byte			Bn2
	.byte	W12
	.byte			Bn1
	.byte	W12
	.byte			Fs2
	.byte	W12
	.byte			Bn2
	.byte	W11
	.byte	FINE

	@********************** Track  4 **********************@

	.global song0022_4
song0022_4:	@ 0x08C6400A
	.byte	KEYSH	, 0
	.byte	VOICE	, 5
	.byte	VOL	, v073
	.byte	PAN	, c_v
	.byte	BENDR	, 3
	.byte	LFOS	, 56
	.byte	LFODL	, 0
	.byte	MOD	, 0
	.byte	MODT	, 2
	.byte	W96
	.byte	W96
	.byte	W96
	.byte	W96
song0022_4_1:
	.byte		N18	, En4, v116
	.byte	W24
	.byte		N12	, En4, v120
	.byte	W24
	.byte			Cs4, v108
	.byte	W12
	.byte		N06	, En4, v100
	.byte	W24
	.byte		N66	, Bn3, v116
	.byte	W12
	.byte	PEND
song0022_4_2:
	.byte	W60
	.byte		N18	, An3, v076
	.byte	W24
	.byte		N12	, An3, v096
	.byte	W12
	.byte	PEND
song0022_4_3:
	.byte	W12
	.byte		N12	, An3, v108
	.byte	W24
	.byte		N30	, Cs4, v076
	.byte	W36
	.byte		N06	, En3, v092
	.byte	W12
	.byte		N32	, Bn3, v104
	.byte	W12
	.byte	PEND
song0022_4_4:
	.byte	W24
	.byte		N06	, Gn3, v092
	.byte	W12
	.byte		N36	, Dn4, v104
	.byte	W60
	.byte	PEND
	.byte	PATT	
		.word	song0022_4_1
	.byte	PATT	
		.word	song0022_4_2
	.byte	PATT	
		.word	song0022_4_3
	.byte	PATT	
		.word	song0022_4_4
	.byte	W96
	.byte	W96
	.byte	W96
	.byte	W96
	.byte	W96
	.byte	W96
	.byte	W96
	.byte	W96
	.byte	W96
	.byte	W96
	.byte	W96
	.byte	W96
	.byte	W96
	.byte	W96
	.byte	W96
	.byte	W96
	.byte	W96
	.byte	W96
	.byte	W96
	.byte	W96
	.byte	W96
	.byte	W96
	.byte	W96
	.byte	W96
	.byte	W96
	.byte	W96
	.byte	W96
	.byte	W96
	.byte	GOTO	
		.word	song0022_4_1
	.byte	FINE

	@********************** Track  5 **********************@

	.global song0022_5
song0022_5:	@ 0x08C64090
	.byte	KEYSH	, 0
	.byte	VOICE	, 6
	.byte	VOL	, v073
	.byte	PAN	, c_v
	.byte	BENDR	, 3
	.byte	LFOS	, 23
	.byte	LFODL	, 22
	.byte	MOD	, 4
	.byte	MODT	, 0
	.byte	W96
	.byte	W96
	.byte	W96
	.byte	W96
song0022_5_1:
	.byte		N12	, An3, v120
	.byte	W24
	.byte			An3, v108
	.byte	W24
	.byte			En3, v092
	.byte	W12
	.byte		N06	, An3, v120
	.byte	W24
	.byte		N66	, Gn3, v104
	.byte	W12
	.byte	PEND
song0022_5_2:
	.byte	W60
	.byte		N18	, Gn3, v080
	.byte	W24
	.byte		N12	, En3, v108
	.byte	W12
	.byte	PEND
song0022_5_3:
	.byte	W12
	.byte		N12	, Cs3, v108
	.byte	W24
	.byte		N30	, En3, v100
	.byte	W36
	.byte		N06	, An2, v080
	.byte	W12
	.byte		N32	, Gn3, v108
	.byte	W12
	.byte	PEND
song0022_5_4:
	.byte	W24
	.byte		N06	, En3, v080
	.byte	W12
	.byte		N36	, Gn3, v108
	.byte	W60
	.byte	PEND
	.byte	PATT	
		.word	song0022_5_1
	.byte	PATT	
		.word	song0022_5_2
	.byte	PATT	
		.word	song0022_5_3
	.byte	PATT	
		.word	song0022_5_4
	.byte	W96
	.byte	W96
	.byte	W96
	.byte	W96
	.byte	W96
	.byte	W96
	.byte	W96
	.byte	W96
	.byte	W96
	.byte	W96
	.byte	W96
	.byte	W96
	.byte	W96
	.byte	W96
	.byte	W96
	.byte	W96
	.byte	W96
	.byte	W96
	.byte	W96
	.byte	W96
	.byte	W96
	.byte	W96
	.byte	W96
	.byte	W96
	.byte	W96
	.byte	W96
	.byte	W96
	.byte	W96
	.byte	GOTO	
		.word	song0022_5_1
	.byte	FINE

	@********************** Track  6 **********************@

	.global song0022_6
song0022_6:	@ 0x08C64115
	.byte	KEYSH	, 0
	.byte	VOICE	, 4
	.byte	PRIO	, 30
	.byte	VOL	, v051
	.byte	PAN	, c_v
	.byte	BENDR	, 3
	.byte	LFOS	, 23
	.byte	LFODL	, 22
	.byte	MOD	, 0
	.byte	MODT	, 0
	.byte	W96
	.byte	W96
	.byte	W96
	.byte	W96
song0022_6_7:
	.byte	W96
	.byte	W96
	.byte	W96
	.byte	W96
	.byte	W96
	.byte	W96
	.byte	W96
	.byte	W96
song0022_6_1:
	.byte	W24
	.byte		N11	, Cs4, v127
	.byte	W12
	.byte		N06	, Dn4
	.byte	W12
	.byte		N10	, En4
	.byte	W12
	.byte		N19	, An3
	.byte	W24
	.byte		N30	, Bn3
	.byte	W12
	.byte	PEND
	.byte	W96
	.byte	W24
	.byte		N12	, Cs4
	.byte	W12
	.byte		N09	, An3
	.byte	W12
	.byte		N11	, Cs4
	.byte	W12
	.byte			Dn4
	.byte	W12
	.byte		N06	, En4
	.byte	W12
	.byte		N20	, Gn4
	.byte	W12
song0022_6_2:
	.byte	W12
	.byte		N06	, Fs4, v127
	.byte	W12
	.byte		N08	, En4
	.byte	W72
	.byte	PEND
song0022_6_3:
	.byte	W24
	.byte		N10	, Cs4, v127
	.byte	W12
	.byte		N08	, Dn4
	.byte	W12
	.byte		N11	, En4
	.byte	W12
	.byte		N16	, An3
	.byte	W24
	.byte		N20	, Bn3
	.byte	W12
	.byte	PEND
song0022_6_4:
	.byte	W24
	.byte		N18	, Gn3, v127
	.byte	W24
	.byte		N16	, Bn3
	.byte	W24
	.byte		N17	, Dn4
	.byte	W24
	.byte	PEND
song0022_6_5:
	.byte		N28	, Cs4, v127
	.byte	W36
	.byte		N19	, Dn4
	.byte	W36
	.byte		N10	, En4
	.byte	W12
	.byte		N19	, An3
	.byte	W12
	.byte	PEND
song0022_6_6:
	.byte	W12
	.byte		N09	, Cs4, v127
	.byte	W12
	.byte		N19	, Gn3
	.byte	W72
	.byte	PEND
	.byte	PATT	
		.word	song0022_6_1
	.byte	W96
	.byte	W24
	.byte		N12	, Cs4, v127
	.byte	W12
	.byte		N09	, An3
	.byte	W12
	.byte		N11	, Cs4
	.byte	W12
	.byte		N14	, Dn4
	.byte	W12
	.byte		N06	, En4
	.byte	W12
	.byte		N20	, Gn4
	.byte	W12
	.byte	PATT	
		.word	song0022_6_2
	.byte	PATT	
		.word	song0022_6_3
	.byte	PATT	
		.word	song0022_6_4
	.byte	PATT	
		.word	song0022_6_5
	.byte	PATT	
		.word	song0022_6_6
	.byte		N05	, Bn4, v064
	.byte	W06
	.byte			En4
	.byte	W06
	.byte			Gs3, v032
	.byte	W06
	.byte			En5, v064
	.byte	W06
	.byte			Bn4
	.byte	W06
	.byte			En4
	.byte	W06
	.byte			Gs3, v032
	.byte	W06
	.byte			En5, v064
	.byte	W06
	.byte			Bn4
	.byte	W06
	.byte			En4
	.byte	W06
	.byte			Gs3, v032
	.byte	W06
	.byte			En5, v064
	.byte	W06
	.byte			Bn4
	.byte	W06
	.byte			En4
	.byte	W06
	.byte			Gs3, v032
	.byte	W06
	.byte			En5, v064
	.byte	W06
	.byte			Bn4
	.byte	W06
	.byte			En4
	.byte	W06
	.byte			Gs3, v032
	.byte	W06
	.byte			En5, v064
	.byte	W06
	.byte			Bn4
	.byte	W06
	.byte			En4
	.byte	W06
	.byte			Gs3, v032
	.byte	W06
	.byte			En5, v064
	.byte	W54
	.byte			An3, v076
	.byte	W06
	.byte			An5
	.byte	W06
	.byte			An2
	.byte	W06
	.byte			Dn4, v068
	.byte	W06
	.byte			An3, v076
	.byte	W06
	.byte			An5
	.byte	W06
	.byte			An2
	.byte	W06
	.byte			Dn4, v068
	.byte	W06
	.byte			An3, v076
	.byte	W06
	.byte			An5
	.byte	W06
	.byte			An2
	.byte	W06
	.byte			Dn4, v068
	.byte	W06
	.byte			An3, v076
	.byte	W06
	.byte			An5
	.byte	W06
	.byte			An2
	.byte	W06
	.byte			Dn4, v068
	.byte	W06
	.byte			An3, v076
	.byte	W06
	.byte			An5
	.byte	W06
	.byte			An2
	.byte	W06
	.byte			Dn4, v068
	.byte	W06
	.byte			An3, v076
	.byte	W06
	.byte			An5
	.byte	W06
	.byte			An2
	.byte	W06
	.byte			Dn4, v068
	.byte	W54
	.byte			En3, v064
	.byte	W06
	.byte			Bn3
	.byte	W06
	.byte			Bn2
	.byte	W06
	.byte			Bn4
	.byte	W06
	.byte			En3
	.byte	W06
	.byte			Bn3
	.byte	W06
	.byte			Bn2
	.byte	W06
	.byte			Bn4
	.byte	W06
	.byte			En3
	.byte	W06
	.byte			Bn3
	.byte	W06
	.byte			Bn2
	.byte	W06
	.byte			Bn4
	.byte	W06
	.byte			En3
	.byte	W06
	.byte			Bn3
	.byte	W06
	.byte			Bn2
	.byte	W06
	.byte			Bn4
	.byte	W06
	.byte			En3
	.byte	W06
	.byte			Bn3
	.byte	W06
	.byte			Bn2
	.byte	W06
	.byte			Bn4
	.byte	W06
	.byte			En3
	.byte	W06
	.byte			Bn3
	.byte	W06
	.byte			Bn2
	.byte	W06
	.byte			Bn4
	.byte	W54
	.byte			Dn3, v068
	.byte	W06
	.byte			An2, v076
	.byte	W06
	.byte			Dn5, v068
	.byte	W06
	.byte			Dn4
	.byte	W06
	.byte			Dn3
	.byte	W06
	.byte			An2, v076
	.byte	W06
	.byte			Dn5, v068
	.byte	W06
	.byte			Dn4
	.byte	W06
	.byte			Dn3
	.byte	W06
	.byte			An2, v076
	.byte	W06
	.byte			Dn5, v068
	.byte	W06
	.byte			Dn4
	.byte	W06
	.byte			Dn3
	.byte	W06
	.byte			An2, v076
	.byte	W06
	.byte			Dn5, v068
	.byte	W06
	.byte			Dn4
	.byte	W06
	.byte			Dn3
	.byte	W06
	.byte			An2, v076
	.byte	W06
	.byte			Dn5, v068
	.byte	W06
	.byte			Dn4
	.byte	W06
	.byte			Dn3
	.byte	W06
	.byte			An2, v076
	.byte	W06
	.byte			Dn5, v068
	.byte	W06
	.byte			Dn4
	.byte	W54
	.byte	W96
	.byte	W96
	.byte	W96
	.byte	W96
	.byte	GOTO	
		.word	song0022_6_7
	.byte	FINE

	@********************** Track  7 **********************@

	.global song0022_7
song0022_7:	@ 0x08C642BD
	.byte	KEYSH	, 0
	.byte	VOICE	, 0
	.byte	VOL	, v069
	.byte	PAN	, c_v
	.byte	BENDR	, 3
	.byte	LFOS	, 23
	.byte	LFODL	, 22
	.byte	MOD	, 4
	.byte	MODT	, 0
	.byte		N05	, Cs3, v104
	.byte	W06
	.byte	PAN	, c_v-61
	.byte		N05	, An3, v096
	.byte	W06
	.byte	PAN	, c_v-57
	.byte		N05	, Cs3, v104
	.byte	W06
	.byte	PAN	, c_v-53
	.byte		N05	, En5, v100
	.byte	W06
	.byte	PAN	, c_v-49
	.byte		N05	, Cs3, v104
	.byte	W06
	.byte	PAN	, c_v-45
	.byte		N05	, An3, v096
	.byte	W06
	.byte	PAN	, c_v-41
	.byte		N05	, Cs3, v104
	.byte	W06
	.byte	PAN	, c_v-37
	.byte		N05	, En5, v100
	.byte	W06
	.byte	PAN	, c_v-33
	.byte		N05	, Cs3, v104
	.byte	W06
	.byte	PAN	, c_v-29
	.byte		N05	, An3, v096
	.byte	W06
	.byte	PAN	, c_v-25
	.byte		N05	, Cs3, v104
	.byte	W06
	.byte	PAN	, c_v-21
	.byte		N05	, En5, v100
	.byte	W06
	.byte	PAN	, c_v-17
	.byte		N05	, Cs3, v104
	.byte	W06
	.byte	PAN	, c_v-13
	.byte		N05	, An3, v096
	.byte	W06
	.byte	PAN	, c_v-9
	.byte		N05	, Cs3, v104
	.byte	W06
	.byte	PAN	, c_v-5
	.byte		N05	, En5, v100
	.byte	W06
	.byte	PAN	, c_v-1
	.byte		N05	, Bn5, v088
	.byte	W06
	.byte	PAN	, c_v+3
	.byte		N05	, Dn3
	.byte	W06
	.byte	PAN	, c_v+7
	.byte		N05	, Bn5
	.byte	W06
	.byte	PAN	, c_v+11
	.byte		N05	, Gn2, v108
	.byte	W06
	.byte	PAN	, c_v+15
	.byte		N05	, Bn5, v088
	.byte	W06
	.byte	PAN	, c_v+19
	.byte		N05	, Dn3
	.byte	W06
	.byte	PAN	, c_v+23
	.byte		N05	, Bn5
	.byte	W06
	.byte	PAN	, c_v+27
	.byte		N05	, Gn2, v108
	.byte	W06
	.byte	PAN	, c_v+31
	.byte		N05	, Bn5, v088
	.byte	W06
	.byte	PAN	, c_v+35
	.byte		N05	, Dn3
	.byte	W06
	.byte	PAN	, c_v+39
	.byte		N05	, Bn5
	.byte	W06
	.byte	PAN	, c_v+43
	.byte		N05	, Gn2, v108
	.byte	W06
	.byte	PAN	, c_v+47
	.byte		N05	, Bn5, v088
	.byte	W06
	.byte	PAN	, c_v+51
	.byte		N05	, Dn3
	.byte	W06
	.byte	PAN	, c_v+55
	.byte		N05	, Bn5
	.byte	W06
	.byte	PAN	, c_v+59
	.byte		N05	, Gn2, v108
	.byte	W06
	.byte	PAN	, c_v+63
	.byte		N05	, En4, v092
	.byte	W06
	.byte	PAN	, c_v+60
	.byte		N05	, An3, v108
	.byte	W06
	.byte	PAN	, c_v+56
	.byte		N05	, An2
	.byte	W06
	.byte	PAN	, c_v+52
	.byte		N05	, Cs3, v100
	.byte	W06
	.byte	PAN	, c_v+48
	.byte		N05	, En4, v092
	.byte	W06
	.byte	PAN	, c_v+44
	.byte		N05	, An3, v108
	.byte	W06
	.byte	PAN	, c_v+40
	.byte		N05	, An2
	.byte	W06
	.byte	PAN	, c_v+36
	.byte		N05	, Cs3, v100
	.byte	W06
	.byte	PAN	, c_v+32
	.byte		N05	, En4, v092
	.byte	W06
	.byte	PAN	, c_v+28
	.byte		N05	, An3, v108
	.byte	W06
	.byte	PAN	, c_v+24
	.byte		N05	, An2
	.byte	W06
	.byte	PAN	, c_v+20
	.byte		N05	, Cs3, v100
	.byte	W06
	.byte	PAN	, c_v+16
	.byte		N05	, En4, v092
	.byte	W06
	.byte	PAN	, c_v+12
	.byte		N05	, An3, v108
	.byte	W06
	.byte	PAN	, c_v+8
	.byte		N05	, An2
	.byte	W06
	.byte	PAN	, c_v+4
	.byte		N05	, Cs3, v100
	.byte	W06
	.byte	PAN	, c_v
	.byte		N05	, Gn4
	.byte	W06
	.byte	PAN	, c_v-4
	.byte		N05	, Bn5, v096
	.byte	W06
	.byte	PAN	, c_v-8
	.byte		N05	, Gn3, v100
	.byte	W06
	.byte	PAN	, c_v-12
	.byte		N05	, Bn5, v096
	.byte	W06
	.byte	PAN	, c_v-16
	.byte		N05	, Gn4, v100
	.byte	W06
	.byte	PAN	, c_v-20
	.byte		N05	, Bn5, v096
	.byte	W06
	.byte	PAN	, c_v-24
	.byte		N05	, Gn3, v100
	.byte	W06
	.byte	PAN	, c_v-28
	.byte		N05	, Bn5, v096
	.byte	W06
	.byte	PAN	, c_v-32
	.byte		N05	, Gn4, v100
	.byte	W06
	.byte	PAN	, c_v-36
	.byte		N05	, Bn5, v096
	.byte	W06
	.byte	PAN	, c_v-40
	.byte		N05	, Gn3, v100
	.byte	W06
	.byte	PAN	, c_v-44
	.byte		N05	, Bn5, v096
	.byte	W06
	.byte	PAN	, c_v-48
	.byte		N05	, Gn4, v100
	.byte	W06
	.byte	PAN	, c_v-52
	.byte		N05	, Bn5, v096
	.byte	W06
	.byte	PAN	, c_v-56
	.byte		N05	, Gn3, v100
	.byte	W06
	.byte	PAN	, c_v-60
	.byte		N05	, Bn5, v096
	.byte	W06
song0022_7_7:
	.byte	VOL	, v069
	.byte	W96
	.byte	W96
	.byte	W96
	.byte	W72
	.byte		N05	, Dn3, v092
	.byte	W06
	.byte			Bn3, v096
	.byte	W06
	.byte			Bn4
	.byte	W06
	.byte			Dn5, v092
	.byte	W06
	.byte	W96
	.byte	W96
	.byte	W96
	.byte	W48
	.byte			Gn4, v100
	.byte	W06
	.byte			Dn5, v092
	.byte	W06
	.byte		N05	
	.byte	W06
	.byte			Gn4, v100
	.byte	W06
	.byte			Dn3, v092
	.byte	W06
	.byte			Bn3, v096
	.byte	W06
	.byte			Bn4
	.byte	W06
	.byte			Dn5, v092
	.byte	W06
song0022_7_1:
	.byte	W24
	.byte		N14	, Cs4, v127
	.byte	W12
	.byte		N06	, Dn4
	.byte	W12
	.byte		N10	, En4
	.byte	W12
	.byte		N19	, An3
	.byte	W24
	.byte		N30	, Bn3
	.byte	W12
	.byte	PEND
	.byte	W96
song0022_7_2:
	.byte	W24
	.byte		N12	, Cs4, v127
	.byte	W12
	.byte		N09	, An3
	.byte	W12
	.byte		N12	, Cs4
	.byte	W12
	.byte		N14	, Dn4
	.byte	W12
	.byte		N06	, En4
	.byte	W12
	.byte		N20	, Gn4
	.byte	W12
	.byte	PEND
song0022_7_3:
	.byte	W12
	.byte		N06	, Fs4, v127
	.byte	W12
	.byte		N08	, En4
	.byte	W72
	.byte	PEND
song0022_7_4:
	.byte	W24
	.byte		N10	, Cs4, v127
	.byte	W12
	.byte		N08	, Dn4
	.byte	W12
	.byte		N11	, En4
	.byte	W12
	.byte		N16	, An3
	.byte	W24
	.byte		N20	, Bn3
	.byte	W12
	.byte	PEND
song0022_7_5:
	.byte	W24
	.byte		N18	, Gn3, v127
	.byte	W24
	.byte		N16	, Bn3
	.byte	W24
	.byte		N17	, Dn4
	.byte	W24
	.byte	PEND
song0022_7_6:
	.byte		N28	, Cs4, v127
	.byte	W36
	.byte		N19	, Dn4
	.byte	W36
	.byte		N10	, En4
	.byte	W12
	.byte		N19	, An3
	.byte	W12
	.byte	PEND
	.byte	W12
	.byte		N09	, Cs4
	.byte	W12
	.byte		N19	, Gn3
	.byte	W24
	.byte		N05	, Bn4, v092
	.byte	W06
	.byte			Bn5
	.byte	W06
	.byte			Dn3
	.byte	W06
	.byte			Gn3, v108
	.byte	W06
	.byte			Bn4, v092
	.byte	W06
	.byte			Bn5
	.byte	W06
	.byte			Dn3
	.byte	W06
	.byte			Gn3, v108
	.byte	W06
	.byte	PATT	
		.word	song0022_7_1
	.byte	W96
	.byte	PATT	
		.word	song0022_7_2
	.byte	PATT	
		.word	song0022_7_3
	.byte	PATT	
		.word	song0022_7_4
	.byte	PATT	
		.word	song0022_7_5
	.byte	PATT	
		.word	song0022_7_6
	.byte	W12
	.byte		N09	, Cs4, v127
	.byte	W12
	.byte		N19	, Gn3
	.byte	W72
	.byte	VOL	, v074
	.byte		N05	, Bn2, v104
	.byte	W06
	.byte	VOL	, v072
	.byte		N05	, Bn3
	.byte	W06
	.byte	VOL	, v070
	.byte		N05	, Gs5, v096
	.byte	W06
	.byte	VOL	, v067
	.byte		N05	, Gs3
	.byte	W06
	.byte	VOL	, v065
	.byte		N05	, Bn2, v104
	.byte	W06
	.byte	VOL	, v063
	.byte		N05	, Bn3
	.byte	W06
	.byte	VOL	, v060
	.byte		N05	, Gs5, v096
	.byte	W06
	.byte	VOL	, v058
	.byte		N05	, Gs3
	.byte	W06
	.byte	VOL	, v056
	.byte		N05	, Bn2, v104
	.byte	W06
	.byte	VOL	, v053
	.byte		N05	, Bn3
	.byte	W06
	.byte	VOL	, v051
	.byte		N05	, Gs5, v096
	.byte	W06
	.byte	VOL	, v049
	.byte		N05	, Gs3
	.byte	W06
	.byte	VOL	, v046
	.byte		N05	, Bn2, v104
	.byte	W06
	.byte	VOL	, v045
	.byte		N05	, Bn3
	.byte	W06
	.byte	VOL	, v042
	.byte		N05	, Gs5, v096
	.byte	W06
	.byte	VOL	, v039
	.byte		N05	, Gs3
	.byte	W06
	.byte	VOL	, v037
	.byte		N05	, Bn2, v104
	.byte	W06
	.byte	VOL	, v035
	.byte		N05	, Bn3
	.byte	W06
	.byte	VOL	, v032
	.byte		N05	, Gs5, v096
	.byte	W06
	.byte	VOL	, v030
	.byte		N05	, Gs3
	.byte	W06
	.byte	VOL	, v028
	.byte		N05	, Bn2, v104
	.byte	W06
	.byte	VOL	, v025
	.byte		N05	, Bn3
	.byte	W06
	.byte	VOL	, v023
	.byte		N05	, Gs5, v096
	.byte	W06
	.byte	VOL	, v021
	.byte		N05	, Gs3
	.byte	W06
	.byte	VOL	, v019
	.byte	W06
	.byte		v016
	.byte	W06
	.byte		v014
	.byte	W06
	.byte		v012
	.byte	W06
	.byte		v009
	.byte	W06
	.byte		v007
	.byte	W06
	.byte		v005
	.byte	W06
	.byte		v002
	.byte	W06
	.byte		v074
	.byte		N05	, An3, v108
	.byte	W06
	.byte	VOL	, v072
	.byte		N05	, An5
	.byte	W06
	.byte	VOL	, v070
	.byte		N05	, Dn5, v104
	.byte	W06
	.byte	VOL	, v067
	.byte		N05	, An5, v108
	.byte	W06
	.byte	VOL	, v065
	.byte		N05	, An3
	.byte	W06
	.byte	VOL	, v063
	.byte		N05	, An5
	.byte	W06
	.byte	VOL	, v060
	.byte		N05	, Dn5, v104
	.byte	W06
	.byte	VOL	, v058
	.byte		N05	, An5, v108
	.byte	W06
	.byte	VOL	, v056
	.byte		N05	, An3
	.byte	W06
	.byte	VOL	, v053
	.byte		N05	, An5
	.byte	W06
	.byte	VOL	, v051
	.byte		N05	, Dn5, v104
	.byte	W06
	.byte	VOL	, v049
	.byte		N05	, An5, v108
	.byte	W06
	.byte	VOL	, v046
	.byte		N05	, An3
	.byte	W06
	.byte	VOL	, v045
	.byte		N05	, An5
	.byte	W06
	.byte	VOL	, v042
	.byte		N05	, Dn5, v104
	.byte	W06
	.byte	VOL	, v039
	.byte		N05	, An5, v108
	.byte	W06
	.byte	VOL	, v037
	.byte		N05	, An3
	.byte	W06
	.byte	VOL	, v035
	.byte		N05	, An5
	.byte	W06
	.byte	VOL	, v032
	.byte		N05	, Dn5, v104
	.byte	W06
	.byte	VOL	, v030
	.byte		N05	, An5, v108
	.byte	W06
	.byte	VOL	, v028
	.byte		N05	, An3
	.byte	W06
	.byte	VOL	, v025
	.byte		N05	, An5
	.byte	W06
	.byte	VOL	, v023
	.byte		N05	, Dn5, v104
	.byte	W06
	.byte	VOL	, v021
	.byte		N05	, An5, v108
	.byte	W06
	.byte	VOL	, v019
	.byte	W06
	.byte		v016
	.byte	W06
	.byte		v014
	.byte	W06
	.byte		v012
	.byte	W06
	.byte		v009
	.byte	W06
	.byte		v007
	.byte	W06
	.byte		v005
	.byte	W06
	.byte		v002
	.byte	W06
	.byte		v074
	.byte		N05	, Gs3, v064
	.byte	W06
	.byte	VOL	, v072
	.byte		N05	, Bn3, v096
	.byte	W06
	.byte	VOL	, v070
	.byte		N05	, En4
	.byte	W06
	.byte	VOL	, v067
	.byte		N05	, Bn4
	.byte	W06
	.byte	VOL	, v065
	.byte		N05	, Gs5, v064
	.byte	W06
	.byte	VOL	, v063
	.byte		N05	, Bn4, v096
	.byte	W06
	.byte	VOL	, v060
	.byte		N05	, Bn2
	.byte	W06
	.byte	VOL	, v058
	.byte		N05	, En5
	.byte	W06
	.byte	VOL	, v056
	.byte		N05	, Gs5, v064
	.byte	W06
	.byte	VOL	, v053
	.byte		N05	, En3, v096
	.byte	W06
	.byte	VOL	, v051
	.byte		N05	, Gs5, v064
	.byte	W06
	.byte	VOL	, v049
	.byte		N05	, En4, v096
	.byte	W06
	.byte	VOL	, v046
	.byte		N05	, Gs4, v064
	.byte	W06
	.byte	VOL	, v045
	.byte		N05	, Gs5
	.byte	W06
	.byte	VOL	, v042
	.byte		N05	, Bn4, v096
	.byte	W06
	.byte	VOL	, v039
	.byte		N05	, Gs5, v064
	.byte	W06
	.byte	VOL	, v037
	.byte		N05	, Bn4, v096
	.byte	W06
	.byte	VOL	, v035
	.byte		N05	, Gs4, v064
	.byte	W06
	.byte	VOL	, v032
	.byte		N05	, Gs5
	.byte	W06
	.byte	VOL	, v030
	.byte		N05	, Bn4, v096
	.byte	W06
	.byte	VOL	, v028
	.byte		N05	, Gs4, v064
	.byte	W06
	.byte	VOL	, v025
	.byte		N05	, En4, v096
	.byte	W06
	.byte	VOL	, v023
	.byte		N05	, Bn2
	.byte	W06
	.byte	VOL	, v021
	.byte		N05	, En5
	.byte	W06
	.byte	VOL	, v019
	.byte		N05	, Gs5, v064
	.byte	W06
	.byte	VOL	, v016
	.byte		N05	, Bn2, v096
	.byte	W06
	.byte	VOL	, v014
	.byte		N05	, Gs2, v064
	.byte	W06
	.byte	VOL	, v012
	.byte		N05	, Bn5, v096
	.byte	W06
	.byte	VOL	, v009
	.byte		N05	, Gs5, v064
	.byte	W06
	.byte	VOL	, v007
	.byte		N05	, En5, v096
	.byte	W06
	.byte	VOL	, v005
	.byte		N05	, En4
	.byte	W06
	.byte	VOL	, v002
	.byte		N05	, En3
	.byte	W06
	.byte	VOL	, v074
	.byte		N05	, Dn4, v100
	.byte	W06
	.byte	VOL	, v072
	.byte		N05	, An5, v108
	.byte	W06
	.byte	VOL	, v070
	.byte		N05	, An2
	.byte	W06
	.byte	VOL	, v067
	.byte		N05	, An4
	.byte	W06
	.byte	VOL	, v065
	.byte		N05	, Dn5, v100
	.byte	W06
	.byte	VOL	, v063
	.byte		N05	, An5, v108
	.byte	W06
	.byte	VOL	, v060
	.byte		N05	, An2
	.byte	W06
	.byte	VOL	, v058
	.byte		N05	, Dn5, v100
	.byte	W06
	.byte	VOL	, v056
	.byte		N05	, Dn3
	.byte	W06
	.byte	VOL	, v053
	.byte		N05	, Dn5
	.byte	W06
	.byte	VOL	, v051
	.byte		N05	, An3, v108
	.byte	W06
	.byte	VOL	, v049
	.byte		N05	, Dn3, v100
	.byte	W06
	.byte	VOL	, v046
	.byte		N05	, Dn5
	.byte	W06
	.byte	VOL	, v045
	.byte		N05	, An3, v108
	.byte	W06
	.byte	VOL	, v042
	.byte		N05	, An4
	.byte	W06
	.byte	VOL	, v039
	.byte		N05	, Dn5, v100
	.byte	W06
	.byte	VOL	, v037
	.byte		N05	, An2, v108
	.byte	W06
	.byte	VOL	, v035
	.byte		N05	, Dn3, v100
	.byte	W06
	.byte	VOL	, v032
	.byte		N05	, Dn4
	.byte	W06
	.byte	VOL	, v030
	.byte		N05	, An2, v108
	.byte	W06
	.byte	VOL	, v028
	.byte		N05	, Dn4, v100
	.byte	W06
	.byte	VOL	, v025
	.byte		N05	, An2, v108
	.byte	W06
	.byte	VOL	, v023
	.byte		N05	, Dn5, v100
	.byte	W06
	.byte	VOL	, v021
	.byte		N05	, An5, v108
	.byte	W06
	.byte	VOL	, v019
	.byte		N05	, An3
	.byte	W06
	.byte	VOL	, v016
	.byte		N05	, Dn3, v100
	.byte	W06
	.byte	VOL	, v014
	.byte		N05	, An4, v108
	.byte	W06
	.byte	VOL	, v012
	.byte		N05	, An2
	.byte	W06
	.byte	VOL	, v009
	.byte		N05	, Dn3, v100
	.byte	W06
	.byte	VOL	, v007
	.byte		N05	, Dn4
	.byte	W06
	.byte	VOL	, v005
	.byte		N05	, Dn3
	.byte	W06
	.byte	VOL	, v002
	.byte		N05	, Dn5
	.byte	W06
	.byte	W96
	.byte	W96
	.byte	W96
	.byte	W96
	.byte	GOTO	
		.word	song0022_7_7
	.byte	FINE

	@********************** Track  8 **********************@

	.global song0022_8
song0022_8:	@ 0x08C647A8
	.byte	KEYSH	, 0
	.byte	VOICE	, 1
	.byte	VOL	, v069
	.byte	PAN	, c_v
	.byte	BENDR	, 3
	.byte	LFOS	, 56
	.byte	LFODL	, 0
	.byte	MOD	, 0
	.byte	MODT	, 2
	.byte		N05	, An2, v096
	.byte	W06
	.byte	PAN	, c_v+60
	.byte		N05	, Cs3, v104
	.byte	W06
	.byte	PAN	, c_v+56
	.byte		N05	, An4, v096
	.byte	W06
	.byte	PAN	, c_v+52
	.byte		N05	, En3, v100
	.byte	W06
	.byte	PAN	, c_v+48
	.byte		N05	, An2, v096
	.byte	W06
	.byte	PAN	, c_v+44
	.byte		N05	, Cs3, v104
	.byte	W06
	.byte	PAN	, c_v+40
	.byte		N05	, An4, v096
	.byte	W06
	.byte	PAN	, c_v+36
	.byte		N05	, En3, v100
	.byte	W06
	.byte	PAN	, c_v+32
	.byte		N05	, An2, v096
	.byte	W06
	.byte	PAN	, c_v+28
	.byte		N05	, Cs3, v104
	.byte	W06
	.byte	PAN	, c_v+24
	.byte		N05	, An4, v096
	.byte	W06
	.byte	PAN	, c_v+20
	.byte		N05	, En3, v100
	.byte	W06
	.byte	PAN	, c_v+16
	.byte		N05	, An2, v096
	.byte	W06
	.byte	PAN	, c_v+12
	.byte		N05	, Cs3, v104
	.byte	W06
	.byte	PAN	, c_v+8
	.byte		N05	, An4, v096
	.byte	W06
	.byte	PAN	, c_v+4
	.byte		N05	, En3, v100
	.byte	W06
	.byte	PAN	, c_v
	.byte		N05	, Bn5, v088
	.byte	W06
	.byte	PAN	, c_v-4
	.byte		N05	, Gn4, v108
	.byte	W06
	.byte	PAN	, c_v-8
	.byte		N05	, Dn3, v088
	.byte	W06
	.byte	PAN	, c_v-12
	.byte		N05	, Dn5
	.byte	W06
	.byte	PAN	, c_v-16
	.byte		N05	, Bn5
	.byte	W06
	.byte	PAN	, c_v-20
	.byte		N05	, Gn4, v108
	.byte	W06
	.byte	PAN	, c_v-24
	.byte		N05	, Dn3, v088
	.byte	W06
	.byte	PAN	, c_v-28
	.byte		N05	, Dn5
	.byte	W06
	.byte	PAN	, c_v-32
	.byte		N05	, Bn5
	.byte	W06
	.byte	PAN	, c_v-36
	.byte		N05	, Gn4, v108
	.byte	W06
	.byte	PAN	, c_v-40
	.byte		N05	, Dn3, v088
	.byte	W06
	.byte	PAN	, c_v-44
	.byte		N05	, Dn5
	.byte	W06
	.byte	PAN	, c_v-48
	.byte		N05	, Bn5
	.byte	W06
	.byte	PAN	, c_v-52
	.byte		N05	, Gn4, v108
	.byte	W06
	.byte	PAN	, c_v-56
	.byte		N05	, Dn3, v088
	.byte	W06
	.byte	PAN	, c_v-60
	.byte		N05	, Dn5
	.byte	W06
	.byte	PAN	, c_v-64
	.byte		N05	, Cs5, v100
	.byte	W06
	.byte	PAN	, c_v-60
	.byte		N05	, Cs3
	.byte	W06
	.byte	PAN	, c_v-56
	.byte		N05	, An3, v108
	.byte	W06
	.byte	PAN	, c_v-52
	.byte		N05	, Cs4, v100
	.byte	W06
	.byte	PAN	, c_v-48
	.byte		N05	, Cs5
	.byte	W06
	.byte	PAN	, c_v-44
	.byte		N05	, Cs3
	.byte	W06
	.byte	PAN	, c_v-40
	.byte		N05	, An3, v108
	.byte	W06
	.byte	PAN	, c_v-36
	.byte		N05	, Cs4, v100
	.byte	W06
	.byte	PAN	, c_v-32
	.byte		N05	, Cs5
	.byte	W06
	.byte	PAN	, c_v-28
	.byte		N05	, Cs3
	.byte	W06
	.byte	PAN	, c_v-24
	.byte		N05	, An3, v108
	.byte	W06
	.byte	PAN	, c_v-19
	.byte		N05	, Cs4, v100
	.byte	W06
	.byte	PAN	, c_v-15
	.byte		N05	, Cs5
	.byte	W06
	.byte	PAN	, c_v-11
	.byte		N05	, Cs3
	.byte	W06
	.byte	PAN	, c_v-7
	.byte		N05	, An3, v108
	.byte	W06
	.byte	PAN	, c_v-3
	.byte		N05	, Cs4, v100
	.byte	W06
	.byte	PAN	, c_v+1
	.byte		N05	, Gn2
	.byte	W06
	.byte	PAN	, c_v+5
	.byte		N05	, Gn4
	.byte	W06
	.byte	PAN	, c_v+9
	.byte		N05	, Dn5, v092
	.byte	W06
	.byte	PAN	, c_v+13
	.byte		N05	, Bn2, v096
	.byte	W06
	.byte	PAN	, c_v+17
	.byte		N05	, Gn2, v100
	.byte	W06
	.byte	PAN	, c_v+22
	.byte		N05	, Gn4
	.byte	W06
	.byte	PAN	, c_v+26
	.byte		N05	, Dn5, v092
	.byte	W06
	.byte	PAN	, c_v+30
	.byte		N05	, Bn2, v096
	.byte	W06
	.byte	PAN	, c_v+34
	.byte		N05	, Gn2, v100
	.byte	W06
	.byte	PAN	, c_v+38
	.byte		N05	, Gn4
	.byte	W06
	.byte	PAN	, c_v+42
	.byte		N05	, Dn5, v092
	.byte	W06
	.byte	PAN	, c_v+46
	.byte		N05	, Bn2, v096
	.byte	W06
	.byte	PAN	, c_v+50
	.byte		N05	, Gn2, v100
	.byte	W06
	.byte	PAN	, c_v+54
	.byte		N05	, Gn4
	.byte	W06
	.byte	PAN	, c_v+58
	.byte		N05	, Dn5, v092
	.byte	W06
	.byte	PAN	, c_v+63
	.byte		N05	, Bn2, v096
	.byte	W06
song0022_8_6:
	.byte	VOL	, v069
	.byte	W96
	.byte	W96
	.byte	W96
song0022_8_1:
	.byte	W48
	.byte		N05	, Gn4, v100
	.byte	W06
	.byte			Bn4, v096
	.byte	W06
	.byte			Dn3, v092
	.byte	W06
	.byte			Gn5, v100
	.byte	W06
	.byte			Gn3
	.byte	W06
	.byte			Dn3, v092
	.byte	W06
	.byte			Gn3, v100
	.byte	W06
	.byte			Dn3, v092
	.byte	W06
	.byte	PEND
	.byte	W96
	.byte	W96
	.byte	W96
	.byte	PATT	
		.word	song0022_8_1
	.byte	VOICE	, 1
	.byte	VOL	, v069
	.byte	PAN	, c_v
	.byte	BENDR	, 3
	.byte	LFOS	, 56
	.byte	LFODL	, 0
	.byte	MOD	, 0
	.byte	MODT	, 2
	.byte		TIE	, An2, v127
	.byte	W96
	.byte	W02
	.byte		N88	, Gn2, v104
	.byte	W01
	.byte		EOT	, An2
	.byte	W92
	.byte	W01
song0022_8_2:
	.byte	W01
	.byte		N88	, An2, v104
	.byte	W92
	.byte	W03
	.byte	PEND
song0022_8_3:
	.byte	W01
	.byte		N90	, Bn2, v116
	.byte	W92
	.byte	W03
	.byte	PEND
song0022_8_4:
	.byte	W01
	.byte		N84	, An2, v108
	.byte	W92
	.byte	W03
	.byte	PEND
	.byte		N92	, Gn2, v104
	.byte	W96
song0022_8_5:
	.byte	W01
	.byte		N90	, An2, v108
	.byte	W92
	.byte	W03
	.byte	PEND
	.byte		N72	, Gn2
	.byte	W48
	.byte		N05	, Gn5
	.byte	W06
	.byte			Dn3, v092
	.byte	W06
	.byte			Gn5, v108
	.byte	W06
	.byte			Dn5, v092
	.byte	W06
	.byte			Gn5, v108
	.byte	W06
	.byte			Dn3, v092
	.byte	W06
	.byte			Gn5, v108
	.byte	W06
	.byte			Dn5, v092
	.byte	W06
	.byte		TIE	, An2, v127
	.byte	W96
	.byte	W02
	.byte		N88	, Gn2, v104
	.byte	W01
	.byte		EOT	, An2
	.byte	W92
	.byte	W01
	.byte	PATT	
		.word	song0022_8_2
	.byte	PATT	
		.word	song0022_8_3
	.byte	PATT	
		.word	song0022_8_4
	.byte		N92	, Gn2, v104
	.byte	W96
	.byte	PATT	
		.word	song0022_8_5
	.byte		N72	, Gn2, v108
	.byte	W96
	.byte	VOL	, v074
	.byte		N05	, Bn4, v096
	.byte	W06
	.byte	VOL	, v072
	.byte		N05	, En4
	.byte	W06
	.byte	VOL	, v070
	.byte		N05	, Gs3, v064
	.byte	W06
	.byte	VOL	, v067
	.byte		N05	, En5, v096
	.byte	W06
	.byte	VOL	, v065
	.byte		N05	, Bn4
	.byte	W06
	.byte	VOL	, v063
	.byte		N05	, En4
	.byte	W06
	.byte	VOL	, v060
	.byte		N05	, Gs3, v064
	.byte	W06
	.byte	VOL	, v058
	.byte		N05	, En5, v096
	.byte	W06
	.byte	VOL	, v056
	.byte		N05	, Bn4
	.byte	W06
	.byte	VOL	, v053
	.byte		N05	, En4
	.byte	W06
	.byte	VOL	, v051
	.byte		N05	, Gs3, v064
	.byte	W06
	.byte	VOL	, v049
	.byte		N05	, En5, v096
	.byte	W06
	.byte	VOL	, v046
	.byte		N05	, Bn4
	.byte	W06
	.byte	VOL	, v045
	.byte		N05	, En4
	.byte	W06
	.byte	VOL	, v042
	.byte		N05	, Gs3, v064
	.byte	W06
	.byte	VOL	, v039
	.byte		N05	, En5, v096
	.byte	W06
	.byte	VOL	, v037
	.byte		N05	, Bn4
	.byte	W06
	.byte	VOL	, v035
	.byte		N05	, En4
	.byte	W06
	.byte	VOL	, v032
	.byte		N05	, Gs3, v064
	.byte	W06
	.byte	VOL	, v030
	.byte		N05	, En5, v096
	.byte	W06
	.byte	VOL	, v028
	.byte		N05	, Bn4
	.byte	W06
	.byte	VOL	, v025
	.byte		N05	, En4
	.byte	W06
	.byte	VOL	, v023
	.byte		N05	, Gs3, v064
	.byte	W06
	.byte	VOL	, v021
	.byte		N05	, En5, v096
	.byte	W06
	.byte	VOL	, v019
	.byte	W06
	.byte		v016
	.byte	W06
	.byte		v014
	.byte	W06
	.byte		v012
	.byte	W06
	.byte		v009
	.byte	W06
	.byte		v007
	.byte	W06
	.byte		v005
	.byte	W06
	.byte		v002
	.byte	W06
	.byte		v074
	.byte		N05	, An3, v108
	.byte	W06
	.byte	VOL	, v072
	.byte		N05	, An5
	.byte	W06
	.byte	VOL	, v070
	.byte		N05	, An2
	.byte	W06
	.byte	VOL	, v067
	.byte		N05	, Dn4, v100
	.byte	W06
	.byte	VOL	, v065
	.byte		N05	, An3, v108
	.byte	W06
	.byte	VOL	, v063
	.byte		N05	, An5
	.byte	W06
	.byte	VOL	, v060
	.byte		N05	, An2
	.byte	W06
	.byte	VOL	, v058
	.byte		N05	, Dn4, v100
	.byte	W06
	.byte	VOL	, v056
	.byte		N05	, An3, v108
	.byte	W06
	.byte	VOL	, v053
	.byte		N05	, An5
	.byte	W06
	.byte	VOL	, v051
	.byte		N05	, An2
	.byte	W06
	.byte	VOL	, v049
	.byte		N05	, Dn4, v100
	.byte	W06
	.byte	VOL	, v046
	.byte		N05	, An3, v108
	.byte	W06
	.byte	VOL	, v045
	.byte		N05	, An5
	.byte	W06
	.byte	VOL	, v042
	.byte		N05	, An2
	.byte	W06
	.byte	VOL	, v039
	.byte		N05	, Dn4, v100
	.byte	W06
	.byte	VOL	, v037
	.byte		N05	, An3, v108
	.byte	W06
	.byte	VOL	, v035
	.byte		N05	, An5
	.byte	W06
	.byte	VOL	, v032
	.byte		N05	, An2
	.byte	W06
	.byte	VOL	, v030
	.byte		N05	, Dn4, v100
	.byte	W06
	.byte	VOL	, v028
	.byte		N05	, An3, v108
	.byte	W06
	.byte	VOL	, v025
	.byte		N05	, An5
	.byte	W06
	.byte	VOL	, v023
	.byte		N05	, An2
	.byte	W06
	.byte	VOL	, v021
	.byte		N05	, Dn4, v100
	.byte	W06
	.byte	VOL	, v019
	.byte	W06
	.byte		v016
	.byte	W06
	.byte		v014
	.byte	W06
	.byte		v012
	.byte	W06
	.byte		v009
	.byte	W06
	.byte		v007
	.byte	W06
	.byte		v005
	.byte	W06
	.byte		v002
	.byte	W06
	.byte		v074
	.byte		N05	, En3, v096
	.byte	W06
	.byte	VOL	, v072
	.byte		N05	, Bn3
	.byte	W06
	.byte	VOL	, v070
	.byte		N05	, Bn2
	.byte	W06
	.byte	VOL	, v067
	.byte		N05	, Bn4
	.byte	W06
	.byte	VOL	, v065
	.byte		N05	, En3
	.byte	W06
	.byte	VOL	, v063
	.byte		N05	, Bn3
	.byte	W06
	.byte	VOL	, v060
	.byte		N05	, Bn2
	.byte	W06
	.byte	VOL	, v058
	.byte		N05	, Bn4
	.byte	W06
	.byte	VOL	, v056
	.byte		N05	, En3
	.byte	W06
	.byte	VOL	, v053
	.byte		N05	, Bn3
	.byte	W06
	.byte	VOL	, v051
	.byte		N05	, Bn2
	.byte	W06
	.byte	VOL	, v049
	.byte		N05	, Bn4
	.byte	W06
	.byte	VOL	, v046
	.byte		N05	, En3
	.byte	W06
	.byte	VOL	, v045
	.byte		N05	, Bn3
	.byte	W06
	.byte	VOL	, v042
	.byte		N05	, Bn2
	.byte	W06
	.byte	VOL	, v039
	.byte		N05	, Bn4
	.byte	W06
	.byte	VOL	, v037
	.byte		N05	, En3
	.byte	W06
	.byte	VOL	, v035
	.byte		N05	, Bn3
	.byte	W06
	.byte	VOL	, v032
	.byte		N05	, Bn2
	.byte	W06
	.byte	VOL	, v030
	.byte		N05	, Bn4
	.byte	W06
	.byte	VOL	, v028
	.byte		N05	, En3
	.byte	W06
	.byte	VOL	, v025
	.byte		N05	, Bn3
	.byte	W06
	.byte	VOL	, v023
	.byte		N05	, Bn2
	.byte	W06
	.byte	VOL	, v021
	.byte		N05	, Bn4
	.byte	W06
	.byte	VOL	, v019
	.byte	W06
	.byte		v016
	.byte	W06
	.byte		v014
	.byte	W06
	.byte		v012
	.byte	W06
	.byte		v009
	.byte	W06
	.byte		v007
	.byte	W06
	.byte		v005
	.byte	W06
	.byte		v002
	.byte	W06
	.byte		v074
	.byte		N05	, Dn3, v100
	.byte	W06
	.byte	VOL	, v072
	.byte		N05	, An2, v108
	.byte	W06
	.byte	VOL	, v070
	.byte		N05	, Dn5, v100
	.byte	W06
	.byte	VOL	, v067
	.byte		N05	, Dn4
	.byte	W06
	.byte	VOL	, v065
	.byte		N05	, Dn3
	.byte	W06
	.byte	VOL	, v063
	.byte		N05	, An2, v108
	.byte	W06
	.byte	VOL	, v060
	.byte		N05	, Dn5, v100
	.byte	W06
	.byte	VOL	, v058
	.byte		N05	, Dn4
	.byte	W06
	.byte	VOL	, v056
	.byte		N05	, Dn3
	.byte	W06
	.byte	VOL	, v053
	.byte		N05	, An2, v108
	.byte	W06
	.byte	VOL	, v051
	.byte		N05	, Dn5, v100
	.byte	W06
	.byte	VOL	, v049
	.byte		N05	, Dn4
	.byte	W06
	.byte	VOL	, v046
	.byte		N05	, Dn3
	.byte	W06
	.byte	VOL	, v045
	.byte		N05	, An2, v108
	.byte	W06
	.byte	VOL	, v042
	.byte		N05	, Dn5, v100
	.byte	W06
	.byte	VOL	, v039
	.byte		N05	, Dn4
	.byte	W06
	.byte	VOL	, v037
	.byte		N05	, Dn3
	.byte	W06
	.byte	VOL	, v035
	.byte		N05	, An2, v108
	.byte	W06
	.byte	VOL	, v032
	.byte		N05	, Dn5, v100
	.byte	W06
	.byte	VOL	, v030
	.byte		N05	, Dn4
	.byte	W06
	.byte	VOL	, v028
	.byte		N05	, Dn3
	.byte	W06
	.byte	VOL	, v025
	.byte		N05	, An2, v108
	.byte	W06
	.byte	VOL	, v023
	.byte		N05	, Dn5, v100
	.byte	W06
	.byte	VOL	, v021
	.byte		N05	, Dn4
	.byte	W06
	.byte	VOL	, v019
	.byte	W06
	.byte		v016
	.byte	W06
	.byte		v014
	.byte	W06
	.byte		v012
	.byte	W06
	.byte		v009
	.byte	W06
	.byte		v007
	.byte	W06
	.byte		v005
	.byte	W06
	.byte		v002
	.byte	W06
	.byte	W96
	.byte	W96
	.byte	W96
	.byte	W96
	.byte	GOTO	
		.word	song0022_8_6
	.byte	FINE

	@********************** Track  9 **********************@

	.global song0022_9
song0022_9:	@ 0x08C64C1F
	.byte	KEYSH	, 0
	.byte	VOICE	, 8
	.byte	VOL	, v090
	.byte	PAN	, c_v
	.byte	BENDR	, 13
	.byte	LFOS	, 18
	.byte	LFODL	, 20
	.byte	MOD	, 0
	.byte	MODT	, 0
	.byte	BEND	, c_v
	.byte		N96	, En2, v116
	.byte		N96	, Cs3
	.byte	W96
	.byte			Dn2, v100
	.byte		N96	, Dn3
	.byte	W96
	.byte			Cs2, v104
	.byte		N96	, An2
	.byte	W96
	.byte			Dn2, v100
	.byte		N96	, Dn3
	.byte	W96
song0022_9_1:
	.byte		N12	, An3, v120
	.byte		N18	, En4, v116
	.byte	W24
	.byte		N12	, An3, v108
	.byte		N12	, En4, v120
	.byte	W24
	.byte			En3, v092
	.byte		N12	, Cs4, v108
	.byte	W12
	.byte		N06	, An3, v120
	.byte		N06	, En4, v100
	.byte	W24
	.byte		N66	, Gn3, v104
	.byte		N66	, Bn3, v116
	.byte	W12
	.byte	PEND
song0022_9_2:
	.byte	W60
	.byte		N18	, Gn3, v080
	.byte		N18	, An3, v076
	.byte	W24
	.byte		N12	, En3, v108
	.byte		N12	, An3, v096
	.byte	W12
	.byte	PEND
song0022_9_3:
	.byte	W12
	.byte		N12	, Cs3, v108
	.byte		N12	, An3
	.byte	W24
	.byte		N30	, En3, v100
	.byte		N30	, Cs4, v076
	.byte	W36
	.byte		N06	, An2, v080
	.byte		N06	, En3, v092
	.byte	W12
	.byte		N32	, Gn3, v108
	.byte		N32	, Bn3, v104
	.byte	W12
	.byte	PEND
song0022_9_4:
	.byte	W24
	.byte		N06	, En3, v080
	.byte		N06	, Gn3, v092
	.byte	W12
	.byte		N42	, Gn3, v108
	.byte		N42	, Dn4, v104
	.byte	W60
	.byte	PEND
	.byte	PATT	
		.word	song0022_9_1
	.byte	PATT	
		.word	song0022_9_2
	.byte	PATT	
		.word	song0022_9_3
	.byte	PATT	
		.word	song0022_9_4
	.byte	W96
	.byte	W96
	.byte	W96
	.byte	W96
	.byte	W96
	.byte	W96
	.byte	W96
	.byte	W96
	.byte	W96
	.byte	W24
	.byte		N23	, Gn2, v127
	.byte	W24
	.byte		N21	, Bn2
	.byte	W24
	.byte			Dn3
	.byte	W24
	.byte		N80	, Cs3
	.byte	W96
	.byte	W24
	.byte		N19	, Gn2
	.byte	W24
	.byte			Bn2
	.byte	W24
	.byte			Dn3
	.byte	W24
	.byte		N76	, En3
	.byte	W96
	.byte	W24
	.byte		N23	, Gn3
	.byte	W24
	.byte			Fs3
	.byte	W24
	.byte			En3
	.byte	W24
	.byte		N32	, Dn3
	.byte	W36
	.byte			Cs3
	.byte	W36
	.byte		TIE	, An2
	.byte	W24
	.byte	W92
	.byte	W03
	.byte		EOT	
	.byte	W01
	.byte	W96
	.byte	W96
	.byte	W96
	.byte	W96
	.byte	W96
	.byte	W96
	.byte	W96
	.byte	W96
	.byte	W01
	.byte		TIE	, Fs2
	.byte	W92
	.byte	W03
	.byte	W44
	.byte	W02
	.byte		N03	, As2, v060
	.byte	W02
	.byte		EOT	, Fs2
	.byte	W01
	.byte		N44	, Bn2, v116
	.byte	W44
	.byte	W03
	.byte		TIE	, Fs2, v096
	.byte	W96
	.byte	W44
	.byte	W01
	.byte		N07	, As2, v076
	.byte	W04
	.byte		EOT	, Fs2
	.byte		N44	, Bn2, v080
	.byte	W44
	.byte	W03
	.byte	GOTO	
		.word	song0022_9_1
	.byte	FINE

	.align 2
	.global song0022
song0022:	@ 0x08C64D24
	.byte	9		@ trackCount
	.byte	0		@ blockCount
	.byte	0		@ priority
	.byte	128		@ reverb

	.word	voicegroup013		@ voicegroup/tone

	.word	song0022_1		@ track
	.word	song0022_2		@ track
	.word	song0022_3		@ track
	.word	song0022_4		@ track
	.word	song0022_5		@ track
	.word	song0022_6		@ track
	.word	song0022_7		@ track
	.word	song0022_8		@ track
	.word	song0022_9		@ track
