	.include "MPlayDef.s"

	.section .rodata

	@********************** Track  1 **********************@

	.align 2
	.global song0042_1
song0042_1:	@ 0x08C76514
	.byte	KEYSH	, 0
	.byte	TEMPO	, 72
	.byte	VOICE	, 22
	.byte	VOL	, v100
	.byte	LFOS	, 84
	.byte	MODT	, 0
	.byte	PAN	, c_v
	.byte	MOD	, 78
	.byte	W02
	.byte		N12	, Gs1, v084
	.byte		N12	, Dn2
	.byte	W09
	.byte		N14	, Bn1
	.byte		N14	, Fn2
	.byte	W11
	.byte			Gs1
	.byte		N14	, Dn2
	.byte	W10
	.byte		N16	, Bn1
	.byte		N16	, Fn2
	.byte	W13
	.byte		N20	, Gs1
	.byte		N20	, Dn2
	.byte	W12
	.byte		N15	, Bn1, v060
	.byte		N15	, Fn2
	.byte	W14
	.byte		N30	, Gs1, v084
	.byte		N30	, Dn2
	.byte	W13
	.byte		N22	, Bn1, v068
	.byte		N22	, Fn2
	.byte	W12
	.byte	W11
	.byte		N13	, Gs1, v084
	.byte		N13	, Dn2
	.byte	W11
	.byte		N19	, Bn1, v088
	.byte		N19	, Fn2
	.byte	W18
	.byte		N13	, Gs1, v076
	.byte		N13	, Dn2
	.byte	W08
	.byte	W02
	.byte		N11	, Bn1, v088
	.byte		N11	, Fn2
	.byte	W10
	.byte		N16	, Gs1, v076
	.byte		N16	, Dn2
	.byte	W11
	.byte		N14	, Bn1, v048
	.byte		N14	, Fn2
	.byte	W13
	.byte		N12	, Gs1, v084
	.byte		N12	, Dn2
	.byte	W09
	.byte		N14	, Bn1
	.byte		N14	, Fn2
	.byte	W03
	.byte	W08
	.byte			Gs1
	.byte		N14	, Dn2
	.byte	W11
	.byte			Bn1, v076
	.byte		N14	, Fn2
	.byte	W12
	.byte		N15	, Gs1, v084
	.byte		N15	, Dn2
	.byte	W11
	.byte		N18	, Bn1, v060
	.byte		N18	, Fn2
	.byte	W06
	.byte	W10
	.byte		N14	, Gs1, v084
	.byte		N14	, Dn2
	.byte	W11
	.byte		N23	, Bn1, v096
	.byte		N23	, Fn2
	.byte	W15
	.byte		N16	, Gs1, v056
	.byte		N16	, Dn2
	.byte	W12
	.byte	W02
	.byte		N12	, Bn1, v100
	.byte		N12	, Fn2
	.byte	W11
	.byte			Gs1, v088
	.byte		N12	, Dn2
	.byte	W11
	.byte		N18	, Bn1, v060
	.byte		N18	, Fn2
	.byte	W16
	.byte		N14	, Gs1, v084
	.byte		N14	, Dn2
	.byte	W08
	.byte	W03
	.byte		N23	, Bn1, v096
	.byte		N23	, Fn2
	.byte	W15
	.byte		N16	, Gs1, v056
	.byte		N16	, Dn2
	.byte	W14
	.byte		N12	, Bn1, v100
	.byte		N12	, Fn2
	.byte	W11
	.byte			Gs1, v088
	.byte		N12	, Dn2
	.byte	W05
	.byte	W11
	.byte		N14	, Bn1, v096
	.byte		N14	, Fn2
	.byte	W02
	.byte		N10	, Gs1, v084
	.byte		N10	, Dn2
	.byte	W18
	.byte			Gs1, v088
	.byte		N10	, Dn2
	.byte	W09
	.byte		N15	, Bn1, v096
	.byte		N15	, Fn2
	.byte	W08
	.byte	W04
	.byte		N03	, Gn1, v040
	.byte		N03	, Cs2
	.byte	W04
	.byte		N13	, Gs1, v052
	.byte		N13	, Dn2
	.byte	W10
	.byte		N15	, Bn1, v092
	.byte		N15	, Fn2
	.byte	W11
	.byte			Gs1, v080
	.byte		N15	, Dn2
	.byte	W13
	.byte			Bn1, v072
	.byte		N15	, Fn2
	.byte	W06
	.byte	W06
	.byte		N16	, Gs1, v076
	.byte		N16	, Dn2
	.byte	W01
	.byte	VOL	, v100
	.byte	W04
	.byte		v099
	.byte	W02
	.byte		v098
	.byte	W02
	.byte		v097
	.byte	W02
	.byte		v096
	.byte	W01
	.byte		N17	, Bn1, v088
	.byte		N17	, Fn2
	.byte	W01
	.byte	VOL	, v096
	.byte	W03
	.byte		v095
	.byte	W02
	.byte		v094
	.byte	W02
	.byte		v093
	.byte	W02
	.byte		v092
	.byte	W02
	.byte		v092
	.byte	W01
	.byte		N16	, Gs1, v056
	.byte		N16	, Dn2
	.byte	W01
	.byte	VOL	, v091
	.byte	W02
	.byte		v090
	.byte	W02
	.byte		v089
	.byte	W02
	.byte		v088
	.byte	W02
	.byte		v088
	.byte	W02
	.byte		v087
	.byte	W02
	.byte		v086
	.byte	W01
	.byte		N11	, Bn1, v096
	.byte		N11	, Fn2
	.byte	W01
	.byte	VOL	, v085
	.byte	W02
	.byte	W01
	.byte		v085
	.byte	W02
	.byte		v084
	.byte	W02
	.byte		v083
	.byte	W02
	.byte		v082
	.byte	W01
	.byte		N08	, As1, v088
	.byte		N08	, En2
	.byte	W01
	.byte	VOL	, v081
	.byte	W02
	.byte		v081
	.byte	W02
	.byte		v080
	.byte	W02
	.byte		v079
	.byte	W02
	.byte		v078
	.byte		N13	, Gs1, v080
	.byte		N13	, Dn2
	.byte	W02
	.byte	VOL	, v077
	.byte	W02
	.byte		v077
	.byte	W02
	.byte		v076
	.byte	W02
	.byte		v075
	.byte	W02
	.byte		v074
	.byte	W02
	.byte		N13	, Bn1, v092
	.byte		N13	, Fn2
	.byte	W01
	.byte	VOL	, v074
	.byte	W02
	.byte		v073
	.byte	W02
	.byte		v072
	.byte	W02
	.byte		v071
	.byte	W02
	.byte		v070
	.byte	W02
	.byte		v070
	.byte		N11	, Gs1, v084
	.byte		N11	, Dn2
	.byte	W02
	.byte	VOL	, v069
	.byte	W02
	.byte		v068
	.byte	W02
	.byte		v067
	.byte	W02
	.byte	TEMPO	, 72
	.byte		v066
	.byte	W02
	.byte		v066
	.byte	W01
	.byte		N15	, Bn1
	.byte		N15	, Fn2
	.byte	W01
	.byte	VOL	, v065
	.byte	W02
	.byte		v064
	.byte	W03
	.byte		v063
	.byte	W02
	.byte		v062
	.byte	W02
	.byte		v062
	.byte	W01
	.byte		N14	, Gs1, v076
	.byte		N14	, Dn2
	.byte	W01
	.byte	VOL	, v061
	.byte	W02
	.byte		v060
	.byte	W02
	.byte		v059
	.byte	W02
	.byte		v059
	.byte	W01
	.byte		v058
	.byte	W02
	.byte		v057
	.byte	W02
	.byte		v056
	.byte		N14	, Bn1, v080
	.byte		N14	, Fn2
	.byte	W01
	.byte	VOL	, v055
	.byte	W01
	.byte		v055
	.byte	W01
	.byte		v054
	.byte	W01
	.byte		v053
	.byte	W02
	.byte		v052
	.byte	W01
	.byte		v051
	.byte	W01
	.byte		v051
	.byte	W01
	.byte		v050
	.byte	W01
	.byte		v049
	.byte		N14	, Gs1, v068
	.byte		N14	, Dn2
	.byte	W02
	.byte	VOL	, v048
	.byte	W01
	.byte		v048
	.byte	W01
	.byte		v047
	.byte	W01
	.byte		v046
	.byte	W01
	.byte		v045
	.byte	W02
	.byte		v044
	.byte	W01
	.byte		v044
	.byte	W01
	.byte		v043
	.byte	W01
	.byte		v042
	.byte		N12	, Bn1, v076
	.byte		N12	, Fn2
	.byte	W01
	.byte	VOL	, v041
	.byte	W02
	.byte		v040
	.byte	W01
	.byte		v040
	.byte	W01
	.byte		v039
	.byte	W01
	.byte		v038
	.byte	W01
	.byte		v037
	.byte	W02
	.byte		v037
	.byte	W01
	.byte		v036
	.byte		N14	, Gs1, v084
	.byte		N14	, Dn2
	.byte	W01
	.byte	VOL	, v035
	.byte	W01
	.byte		v034
	.byte	W01
	.byte		v033
	.byte	W02
	.byte		v033
	.byte	W01
	.byte		v032
	.byte	W01
	.byte		v031
	.byte	W01
	.byte		v030
	.byte	W01
	.byte		v029
	.byte	W01
	.byte		N12	, Bn1, v076
	.byte		N12	, Fn2
	.byte	W01
	.byte	VOL	, v029
	.byte	W01
	.byte		v028
	.byte	W01
	.byte		v027
	.byte	W01
	.byte		v026
	.byte	W01
	.byte		v025
	.byte	W02
	.byte		v025
	.byte	W01
	.byte		v024
	.byte	W01
	.byte		v023
	.byte	W01
	.byte		v022
	.byte	W01
	.byte		v022
	.byte		N10	, Fs1, v084
	.byte		N10	, Cn2
	.byte	W02
	.byte	VOL	, v021
	.byte	W01
	.byte		v020
	.byte	W01
	.byte		v019
	.byte	W01
	.byte		v018
	.byte	W01
	.byte		v018
	.byte		N13	, Gs1, v068
	.byte		N13	, Dn2
	.byte	W02
	.byte	VOL	, v017
	.byte	W01
	.byte		v016
	.byte	W01
	.byte		v015
	.byte	W01
	.byte		v014
	.byte	W01
	.byte		v014
	.byte	W02
	.byte		v013
	.byte	W01
	.byte		v012
	.byte	W01
	.byte		v011
	.byte	W01
	.byte		v011
	.byte	W01
	.byte	TEMPO	, 71
	.byte		v010
	.byte	W01
	.byte		N09	, Fs1, v084
	.byte		N09	, Cn2
	.byte	W01
	.byte	VOL	, v009
	.byte	W01
	.byte		v008
	.byte	W01
	.byte		v007
	.byte	W01
	.byte		v007
	.byte	W01
	.byte		v006
	.byte	W01
	.byte		N10	, Gs1, v072
	.byte		N10	, Dn2
	.byte	W01
	.byte	VOL	, v005
	.byte	W01
	.byte		v004
	.byte	W01
	.byte		v003
	.byte	W01
	.byte		v003
	.byte	W01
	.byte		v002
	.byte	W02
	.byte		v001
	.byte	W01
	.byte		v000
	.byte	W01
	.byte		v004
	.byte		TIE	, Gn1, v100
	.byte	W01
	.byte	VOL	, v014
	.byte	W01
	.byte		v029
	.byte	W01
	.byte		v044
	.byte	W01
	.byte		v054
	.byte	W01
	.byte		v069
	.byte	W01
	.byte		v084
	.byte	W01
	.byte		v094
	.byte	W01
	.byte		v100
	.byte	W24
	.byte	TEMPO	, 71
	.byte	W48
	.byte	TEMPO	, 70
	.byte	W48
	.byte	TEMPO	, 70
	.byte	W48
	.byte	W48
	.byte	W48
	.byte	W13
	.byte		v100
	.byte	W03
	.byte		v099
	.byte	W02
	.byte		v098
	.byte	W02
	.byte		v097
	.byte	W01
	.byte		v096
	.byte	W02
	.byte		v096
	.byte	W01
	.byte		v095
	.byte	W02
	.byte		v094
	.byte	W02
	.byte		v093
	.byte	W01
	.byte		v092
	.byte	W02
	.byte		v092
	.byte	W02
	.byte		v091
	.byte	W01
	.byte		v090
	.byte	W02
	.byte		v089
	.byte	W01
	.byte		v088
	.byte	W02
	.byte		v088
	.byte	W02
	.byte		v087
	.byte	W01
	.byte		v086
	.byte	W02
	.byte		v085
	.byte	W02
	.byte		v085
	.byte	W01
	.byte		v084
	.byte	W01
	.byte	W01
	.byte		v083
	.byte	W01
	.byte		v082
	.byte	W02
	.byte		v081
	.byte	W02
	.byte		v081
	.byte	W01
	.byte		v080
	.byte	W02
	.byte		v079
	.byte	W02
	.byte		v078
	.byte	W01
	.byte		v077
	.byte	W02
	.byte		v077
	.byte	W01
	.byte		v076
	.byte	W02
	.byte		v075
	.byte	W01
	.byte		v073
	.byte	W01
	.byte		v070
	.byte	W01
	.byte		v067
	.byte	W01
	.byte		v064
	.byte	W01
	.byte		v061
	.byte	W01
	.byte		v059
	.byte	W01
	.byte		v056
	.byte	W01
	.byte		v053
	.byte	W01
	.byte		v051
	.byte	W01
	.byte		v048
	.byte	W01
	.byte		v044
	.byte	W01
	.byte		v043
	.byte	W01
	.byte		v040
	.byte	W01
	.byte		v037
	.byte	W01
	.byte		v034
	.byte	W01
	.byte		v031
	.byte	W01
	.byte		v028
	.byte	W01
	.byte		v025
	.byte	W01
	.byte		v023
	.byte	W01
	.byte		v020
	.byte	W01
	.byte		v018
	.byte	W01
	.byte		v014
	.byte	W01
	.byte		v011
	.byte	W01
	.byte		v009
	.byte	W01
	.byte		v006
	.byte	W01
	.byte		v003
	.byte	W01
	.byte		v001
	.byte	W01
	.byte		v000
	.byte	W03
	.byte	TEMPO	, 60
	.byte	W12
	.byte	W04
	.byte		EOT	
	.byte	W44
	.byte	FINE

	@********************** Track  2 **********************@

	.global song0042_2
song0042_2:	@ 0x08C76831
	.byte	KEYSH	, 0
	.byte	W96
	.byte	W48
	.byte	W48
	.byte	W48
	.byte	W48
	.byte	W48
	.byte	W48
	.byte	W48
	.byte	W48
	.byte	W48
	.byte	W48
	.byte	W48
	.byte	W48
	.byte	W48
	.byte	W48
	.byte	W48
	.byte	W48
	.byte	W48
	.byte	VOICE	, 127
	.byte	VOL	, v100
	.byte	W48
	.byte	W48
	.byte	W48
	.byte	W12
	.byte	W24
	.byte		N06	, Cs1, v127
	.byte	W06
	.byte		N06	
	.byte	W06
	.byte			Ds2
	.byte	W06
	.byte		N06	
	.byte		N92	, Fs2
	.byte	W06
	.byte	W06
	.byte		N06	, Cs1
	.byte	W06
	.byte			Dn1, v036
	.byte	W06
	.byte			Ds2, v127
	.byte	W06
	.byte			Cs1
	.byte	W06
	.byte		N06	
	.byte	W06
	.byte			Dn1, v036
	.byte		N06	, Ds2, v127
	.byte	W06
	.byte			Ds1, v052
	.byte		N06	, Ds2, v127
	.byte	W06
	.byte			Dn1, v052
	.byte	W06
	.byte			Ds1
	.byte		N06	, Ds2, v127
	.byte	W06
	.byte			Dn1, v052
	.byte	W06
	.byte			Ds1
	.byte		N06	, Ds2, v127
	.byte	W12
	.byte		N03	, Cs1
	.byte	W03
	.byte		N03	
	.byte	W03
	.byte		N06	, Dn1, v036
	.byte		N06	, Gn1, v127
	.byte	W06
	.byte			Ds2
	.byte	W06
	.byte		N06	
	.byte		N40	, Gn2
	.byte	W06
	.byte		N06	, Cs1, v056
	.byte	W06
	.byte			Cs1, v127
	.byte		N06	, Dn1, v036
	.byte	W12
	.byte			Ds1, v052
	.byte		N06	, Ds2, v127
	.byte	W06
	.byte			Cs1
	.byte	W06
	.byte			Dn1, v036
	.byte		N06	, Fs1, v127
	.byte	W06
	.byte			Ds2
	.byte		N44	, Fs2
	.byte	W12
	.byte		N06	, Cs1
	.byte	W06
	.byte			Dn1, v036
	.byte	W06
	.byte			Cs1, v127
	.byte	W06
	.byte		N06	
	.byte	W06
	.byte			Gn1
	.byte	W06
	.byte			Dn1, v036
	.byte		N06	, Fs1, v127
	.byte	W06
	.byte			Ds2
	.byte		N92	, Gn2
	.byte	W06
	.byte	W06
	.byte		N11	, Cs1
	.byte	W06
	.byte		N06	, Dn1, v036
	.byte	W06
	.byte		N05	, Cs1, v127
	.byte	W06
	.byte		N06	
	.byte	W06
	.byte		N11	, Gs1
	.byte	W06
	.byte		N06	, Dn1, v036
	.byte	W06
	.byte		N05	, Gs1, v127
	.byte	W06
	.byte		N06	
	.byte	W06
	.byte		N11	, Gn1
	.byte	W06
	.byte		N06	, Dn1, v036
	.byte	W06
	.byte		N05	, Gn1, v127
	.byte	W06
	.byte			Ds2
	.byte	W06
	.byte			Gn1
	.byte	W06
	.byte			Cs1
	.byte		N06	, Dn1, v036
	.byte	W06
	.byte			Ds2, v127
	.byte		TIE	, Fs2
	.byte	W06
	.byte	W92
	.byte	W03
	.byte		EOT	
	.byte	FINE

	@********************** Track  3 **********************@

	.global song0042_3
song0042_3:	@ 0x08C76901
	.byte	KEYSH	, 0
	.byte	W96
	.byte	W48
	.byte	W48
	.byte	W48
	.byte	W48
	.byte	W48
	.byte	W48
	.byte	W48
	.byte	W48
	.byte	W48
	.byte	W48
	.byte	W48
	.byte	W48
	.byte	W48
	.byte	W48
	.byte	W48
	.byte	W48
	.byte	W48
	.byte	VOICE	, 49
	.byte	VOL	, v100
	.byte	PAN	, c_v
	.byte	W48
	.byte	W48
	.byte	W48
	.byte	W12
	.byte	W42
	.byte		N17	, Ds2, v127
	.byte	W06
	.byte	W42
	.byte		N09	, Fn1
	.byte	W12
	.byte		N07	, Gn1
	.byte	W12
	.byte		N08	, An1
	.byte	W30
	.byte		N22	, As1
	.byte	W24
	.byte		N17	
	.byte	W18
	.byte		N24	, Cn2
	.byte	W30
	.byte		N17	
	.byte	W18
	.byte		N66	, Dn2
	.byte	W06
	.byte	W72
	.byte		N05	, Dn3
	.byte	W06
	.byte			An2
	.byte	W06
	.byte			Dn2
	.byte	W06
	.byte		TIE	, En2
	.byte	W06
	.byte	W96
	.byte	W84
	.byte	W03
	.byte		EOT	
	.byte	FINE

	@********************** Track  4 **********************@

	.global song0042_4
song0042_4:	@ 0x08C7694B
	.byte	KEYSH	, 0
	.byte	W96
	.byte	W48
	.byte	W48
	.byte	W48
	.byte	W48
	.byte	W48
	.byte	W48
	.byte	W48
	.byte	W48
	.byte	W48
	.byte	W48
	.byte	W48
	.byte	W48
	.byte	W48
	.byte	W48
	.byte	W48
	.byte	W48
	.byte	W48
	.byte	VOICE	, 74
	.byte	VOL	, v100
	.byte	BENDR	, 8
	.byte	PAN	, c_v
	.byte	W48
	.byte	W48
	.byte	W48
	.byte	VOL	, v070
	.byte	W12
	.byte	W24
	.byte		N03	, Fn2, v048
	.byte		N03	, Fn3
	.byte	W03
	.byte			Gn2, v060
	.byte		N03	, Gn3
	.byte	W03
	.byte			Gs2, v072
	.byte		N03	, Gs3
	.byte	W03
	.byte			As2, v084
	.byte		N03	, As3
	.byte	W03
	.byte			Cn3, v096
	.byte		N03	, Cn4
	.byte	W03
	.byte			Dn3, v104
	.byte		N03	, Dn4
	.byte	W03
	.byte		N12	, Ds3, v116
	.byte		N12	, Ds4
	.byte	W06
	.byte	W42
	.byte		N06	, Ds3
	.byte	W12
	.byte			Fn3
	.byte	W12
	.byte			Gn3
	.byte	W30
	.byte		N20	, Gs3
	.byte	W05
	.byte	VOL	, v070
	.byte	W01
	.byte		v068
	.byte	W01
	.byte		v065
	.byte	W01
	.byte		v062
	.byte	W01
	.byte		v059
	.byte	W01
	.byte		v056
	.byte	W01
	.byte		v053
	.byte	W01
	.byte		v051
	.byte	W02
	.byte		v051
	.byte	W01
	.byte		v052
	.byte	W01
	.byte		v053
	.byte	W01
	.byte		v054
	.byte	W01
	.byte		v055
	.byte	W01
	.byte		v055
	.byte	W01
	.byte		v056
	.byte	W01
	.byte		v057
	.byte	W01
	.byte		v058
	.byte	W01
	.byte		v059
	.byte	W01
	.byte		v059
	.byte		N17	
	.byte	W01
	.byte	VOL	, v060
	.byte	W01
	.byte		v061
	.byte	W01
	.byte		v062
	.byte	W01
	.byte		v062
	.byte	W01
	.byte		v063
	.byte	W01
	.byte		v064
	.byte	W01
	.byte		v065
	.byte	W01
	.byte		v066
	.byte	W01
	.byte		v066
	.byte	W01
	.byte		v067
	.byte	W01
	.byte		v068
	.byte	W01
	.byte		v069
	.byte	W01
	.byte		v070
	.byte	W05
	.byte		N24	, As3
	.byte	W07
	.byte	VOL	, v069
	.byte	W01
	.byte		v066
	.byte	W01
	.byte		v062
	.byte	W01
	.byte		v059
	.byte	W01
	.byte		v057
	.byte	W01
	.byte		v054
	.byte	W01
	.byte		v051
	.byte	W02
	.byte		v051
	.byte	W01
	.byte		v052
	.byte	W01
	.byte		v054
	.byte	W01
	.byte		v055
	.byte	W01
	.byte		v055
	.byte	W01
	.byte		v056
	.byte	W01
	.byte		v057
	.byte	W01
	.byte		v058
	.byte	W01
	.byte		v059
	.byte	W01
	.byte		v060
	.byte	W01
	.byte		v061
	.byte	W01
	.byte		v062
	.byte	W01
	.byte		v062
	.byte	W01
	.byte		v063
	.byte	W01
	.byte		v064
	.byte	W01
	.byte		v065
	.byte		N17	
	.byte	W01
	.byte	VOL	, v066
	.byte	W01
	.byte		v067
	.byte	W01
	.byte		v068
	.byte	W01
	.byte		v069
	.byte	W01
	.byte		v070
	.byte	W13
	.byte		N72	, Cn4
	.byte	W06
	.byte	W02
	.byte	VOL	, v070
	.byte	W01
	.byte		v066
	.byte	W01
	.byte		v064
	.byte	W01
	.byte		v060
	.byte	W01
	.byte		v057
	.byte	W01
	.byte		v055
	.byte	W01
	.byte		v051
	.byte	W01
	.byte		v048
	.byte	W01
	.byte		v046
	.byte	W01
	.byte		v042
	.byte	W01
	.byte		v039
	.byte	W01
	.byte		v037
	.byte	W01
	.byte		v033
	.byte	W01
	.byte		v030
	.byte	W02
	.byte		v031
	.byte	W01
	.byte		v033
	.byte	W01
	.byte		v033
	.byte	W01
	.byte		v034
	.byte	W01
	.byte		v035
	.byte	W01
	.byte		v036
	.byte	W01
	.byte		v037
	.byte	W01
	.byte		v038
	.byte	W01
	.byte		v039
	.byte	W01
	.byte		v040
	.byte	W01
	.byte		v041
	.byte	W01
	.byte		v042
	.byte	W01
	.byte		v043
	.byte	W01
	.byte		v044
	.byte	W01
	.byte		v044
	.byte	W01
	.byte		v046
	.byte	W01
	.byte		v047
	.byte	W01
	.byte		v048
	.byte	W01
	.byte		v048
	.byte	W01
	.byte		v049
	.byte	W01
	.byte		v051
	.byte	W01
	.byte		v051
	.byte	W01
	.byte		v052
	.byte	W01
	.byte		v053
	.byte	W01
	.byte		v054
	.byte	W01
	.byte		v055
	.byte	W01
	.byte		v056
	.byte	W01
	.byte		v057
	.byte	W01
	.byte		v058
	.byte	W01
	.byte		v059
	.byte	W02
	.byte		v060
	.byte	W01
	.byte		v061
	.byte	W01
	.byte		v062
	.byte	W01
	.byte		v063
	.byte	W01
	.byte		v064
	.byte	W01
	.byte		v065
	.byte	W01
	.byte		v066
	.byte	W01
	.byte		v066
	.byte	W01
	.byte		v068
	.byte	W01
	.byte		v069
	.byte	W01
	.byte		v070
	.byte	W14
	.byte		N17	
	.byte	W18
	.byte		TIE	, Dn4
	.byte	W04
	.byte	VOL	, v070
	.byte	W01
	.byte		v065
	.byte	W01
	.byte		v062
	.byte	W01
	.byte		v057
	.byte	W01
	.byte		v052
	.byte	W01
	.byte		v049
	.byte	W01
	.byte		v044
	.byte	W01
	.byte		v040
	.byte	W01
	.byte		v037
	.byte	W04
	.byte		v038
	.byte	W02
	.byte		v039
	.byte	W03
	.byte		v040
	.byte	W02
	.byte		v040
	.byte	W02
	.byte		v041
	.byte	W02
	.byte		v042
	.byte	W02
	.byte		v043
	.byte	W02
	.byte		v044
	.byte	W03
	.byte		v044
	.byte	W02
	.byte		v045
	.byte	W02
	.byte		v046
	.byte	W02
	.byte		v047
	.byte	W02
	.byte		v048
	.byte	W03
	.byte		v048
	.byte	W02
	.byte		v049
	.byte	W02
	.byte		v050
	.byte	W02
	.byte		v051
	.byte	W02
	.byte		v051
	.byte	W02
	.byte		v052
	.byte	W03
	.byte		v053
	.byte	W02
	.byte		v054
	.byte	W02
	.byte		v055
	.byte	W02
	.byte		v055
	.byte	W02
	.byte		v056
	.byte	W02
	.byte		v057
	.byte	W03
	.byte		v058
	.byte	W02
	.byte		v059
	.byte	W02
	.byte		v059
	.byte	W02
	.byte		v060
	.byte	W02
	.byte		v061
	.byte	W03
	.byte		v062
	.byte	W02
	.byte		v062
	.byte	W02
	.byte		v063
	.byte	W02
	.byte		v064
	.byte	W02
	.byte		v065
	.byte	W02
	.byte		v066
	.byte	W03
	.byte		v066
	.byte	W02
	.byte		v067
	.byte	W02
	.byte		v068
	.byte	W02
	.byte		v069
	.byte	W01
	.byte	W01
	.byte		v070
	.byte	W01
	.byte		v070
	.byte	W92
	.byte	W02
	.byte		EOT	
	.byte	FINE

	@********************** Track  5 **********************@

	.global song0042_5
song0042_5:	@ 0x08C76B02
	.byte	KEYSH	, 0
	.byte	W96
	.byte	W48
	.byte	W48
	.byte	W48
	.byte	W48
	.byte	W48
	.byte	W48
	.byte	W48
	.byte	W48
	.byte	W48
	.byte	W48
	.byte	W48
	.byte	W48
	.byte	W48
	.byte	W48
	.byte	W48
	.byte	W48
	.byte	W48
	.byte	VOICE	, 111
	.byte	VOL	, v065
	.byte	PAN	, c_v
	.byte	W48
	.byte	W48
	.byte	W48
	.byte	W12
	.byte	W24
	.byte		N03	, Bn1, v040
	.byte	W01
	.byte		N04	, Cn2, v044
	.byte	W02
	.byte			Dn2, v052
	.byte	W02
	.byte			En2, v056
	.byte	W01
	.byte		N03	, Fn2, v064
	.byte	W01
	.byte			Gn2, v068
	.byte	W01
	.byte		N02	, An2, v072
	.byte	W01
	.byte			Bn2, v076
	.byte	W02
	.byte		N01	, Cn3, v080
	.byte	W01
	.byte		N02	, Dn3, v088
	.byte	W01
	.byte		N04	, En3
	.byte	W01
	.byte		N05	, Fn3, v096
	.byte	W04
	.byte		N14	, Gs3, v108
	.byte	W06
	.byte	W42
	.byte		N06	, Gs2, v124
	.byte	W12
	.byte			As2
	.byte	W12
	.byte			Cn3
	.byte	W30
	.byte		N24	, Cs2
	.byte	W24
	.byte		N17	
	.byte	W18
	.byte		N28	, Ds2
	.byte	W30
	.byte		N17	
	.byte	W18
	.byte		N78	, Fn2
	.byte	W06
	.byte	W72
	.byte		N17	
	.byte	W18
	.byte		TIE	, Gn2
	.byte	W06
	.byte	W96
	.byte	W96
	.byte		EOT	
	.byte	FINE

	@********************** Track  6 **********************@

	.global song0042_6
song0042_6:	@ 0x08C76B70
	.byte	KEYSH	, 0
	.byte	W96
	.byte	W48
	.byte	W48
	.byte	W48
	.byte	W48
	.byte	W48
	.byte	W48
	.byte	W48
	.byte	W48
	.byte	W48
	.byte	W48
	.byte	W48
	.byte	W48
	.byte	W48
	.byte	W48
	.byte	W48
	.byte	W48
	.byte	W48
	.byte	VOICE	, 0
	.byte	VOL	, v039
	.byte	MOD	, 0
	.byte	PAN	, c_v
	.byte	W48
	.byte	W48
	.byte	W48
	.byte	W12
	.byte	W42
	.byte		N17	, Ds2, v127
	.byte	W06
	.byte	W42
	.byte		N09	, Fn1
	.byte	W12
	.byte		N07	, Gn1
	.byte	W12
	.byte		N08	, An1
	.byte	W30
	.byte		N22	, As1
	.byte	W24
	.byte		N17	
	.byte	W18
	.byte		N24	, Cn2
	.byte	W30
	.byte		N17	
	.byte	W18
	.byte		N66	, Dn2
	.byte	W06
	.byte	W72
	.byte		N05	, Dn3
	.byte	W06
	.byte			An2
	.byte	W06
	.byte			Dn2
	.byte	W06
	.byte		TIE	, En2
	.byte	W06
	.byte	W96
	.byte	W84
	.byte	W03
	.byte		EOT	
	.byte	FINE

	@********************** Track  7 **********************@

	.global song0042_7
song0042_7:	@ 0x08C76BBC
	.byte	KEYSH	, 0
	.byte	W96
	.byte	W48
	.byte	W48
	.byte	W48
	.byte	W48
	.byte	W48
	.byte	W48
	.byte	W48
	.byte	W48
	.byte	W48
	.byte	W48
	.byte	W48
	.byte	W48
	.byte	W48
	.byte	W48
	.byte	W48
	.byte	W48
	.byte	W48
	.byte	VOICE	, 12
	.byte	VOL	, v070
	.byte	PAN	, c_v
	.byte	W48
	.byte	W48
	.byte	W48
	.byte	W12
	.byte	W42
	.byte		N02	, Ds5, v092
	.byte	W02
	.byte			As4, v088
	.byte	W02
	.byte			Gn4, v084
	.byte	W02
	.byte			As4, v080
	.byte	W02
	.byte			Gn4
	.byte	W02
	.byte			Ds4, v076
	.byte	W02
	.byte			Gn4, v072
	.byte	W02
	.byte			Ds4, v068
	.byte	W02
	.byte			As3, v064
	.byte	W02
	.byte			Ds4, v060
	.byte	W02
	.byte			As3, v056
	.byte	W02
	.byte			Gn3, v052
	.byte	W02
	.byte			As3, v048
	.byte	W02
	.byte			Gn3
	.byte	W02
	.byte			Ds3, v044
	.byte	W02
	.byte			Gn3, v040
	.byte	W02
	.byte			Ds3, v036
	.byte	W02
	.byte			As2, v032
	.byte	W02
	.byte			Ds3, v028
	.byte	W02
	.byte			As2, v024
	.byte	W02
	.byte			Gn2, v020
	.byte	W60
	.byte	W02
	.byte		N03	, Cn3, v040
	.byte	W03
	.byte			Ds3, v044
	.byte	W03
	.byte			Gs3, v048
	.byte	W03
	.byte			Cn4, v052
	.byte	W03
	.byte			Gs3, v056
	.byte	W03
	.byte			Cn4, v060
	.byte	W03
	.byte			Ds4, v064
	.byte	W03
	.byte			Gs4, v068
	.byte	W03
	.byte			Cn4, v072
	.byte	W03
	.byte			Ds4, v076
	.byte	W03
	.byte			Gs4, v080
	.byte	W03
	.byte			Cn5, v084
	.byte	W03
	.byte			Gs4, v088
	.byte	W03
	.byte			Cn5, v092
	.byte	W03
	.byte			Dn3, v028
	.byte	W03
	.byte			Fn3
	.byte	W03
	.byte			As3, v032
	.byte	W03
	.byte			Dn4, v036
	.byte	W03
	.byte			As3, v040
	.byte	W03
	.byte			Dn4, v044
	.byte	W03
	.byte			Fn4, v048
	.byte	W03
	.byte			As4, v052
	.byte	W03
	.byte			Dn4, v056
	.byte	W03
	.byte			Fn4, v060
	.byte	W03
	.byte			As4, v064
	.byte	W03
	.byte			Dn5, v068
	.byte	W03
	.byte			As4, v072
	.byte	W03
	.byte			Dn5, v076
	.byte	W03
	.byte			Fn5, v080
	.byte	W03
	.byte			As5, v084
	.byte	W03
	.byte			En3, v020
	.byte	W03
	.byte			Gn3, v024
	.byte	W03
	.byte			Cn4, v028
	.byte	W03
	.byte			En4, v032
	.byte	W03
	.byte			Cn4, v036
	.byte	W03
	.byte			En4, v040
	.byte	W03
	.byte			Gn4, v044
	.byte	W03
	.byte			Cn5, v048
	.byte	W03
	.byte			En4, v052
	.byte	W03
	.byte			Gn4, v056
	.byte	W03
	.byte			Cn5, v060
	.byte	W03
	.byte			En5, v064
	.byte	W03
	.byte			Cn5, v068
	.byte	W03
	.byte			En5, v072
	.byte	W03
	.byte			Gn5, v076
	.byte	W03
	.byte			Cn6, v080
	.byte	W03
	.byte			En6, v088
	.byte	W03
	.byte			Cn6, v084
	.byte	W03
	.byte			Gn5
	.byte	W03
	.byte			En5, v080
	.byte	W03
	.byte			Gn5, v076
	.byte	W03
	.byte			En5
	.byte	W03
	.byte			Cn5, v072
	.byte	W03
	.byte			Gn4
	.byte	W03
	.byte			Cn5, v068
	.byte	W03
	.byte			Gn4, v064
	.byte	W03
	.byte			En4
	.byte	W03
	.byte			Cn4, v060
	.byte	W03
	.byte			En4, v056
	.byte	W03
	.byte			Cn4
	.byte	W03
	.byte			Gn3, v052
	.byte	W03
	.byte			En3, v048
	.byte	W03
	.byte			An2, v028
	.byte	W03
	.byte			Dn3
	.byte	W03
	.byte			En3
	.byte	W03
	.byte			Fs3
	.byte	W03
	.byte			Dn3, v032
	.byte	W03
	.byte			En3
	.byte	W03
	.byte			Fs3
	.byte	W03
	.byte			An3, v036
	.byte	W03
	.byte			Fs3
	.byte	W03
	.byte			An3
	.byte	W03
	.byte			Dn4, v040
	.byte	W03
	.byte			En4
	.byte	W03
	.byte			An3
	.byte	W03
	.byte			Dn4
	.byte	W03
	.byte			En4, v044
	.byte	W03
	.byte			Fs4
	.byte	W03
	.byte			Dn4
	.byte	W03
	.byte			En4, v048
	.byte	W03
	.byte			Fs4
	.byte	W03
	.byte			An4
	.byte	W03
	.byte			Fs4, v052
	.byte	W03
	.byte			An4
	.byte	W03
	.byte			Dn5
	.byte	W03
	.byte			En5
	.byte	W03
	.byte			Fs5, v056
	.byte	W03
	.byte			An5
	.byte	W03
	.byte			Fs5
	.byte	W03
	.byte			En5, v060
	.byte	W03
	.byte			Dn5
	.byte	W03
	.byte			An4
	.byte	W03
	.byte			Dn5
	.byte	W03
	.byte			En5
	.byte	W03
	.byte			Dn5
	.byte	W03
	.byte			An4, v056
	.byte	W03
	.byte			Fs4
	.byte	W03
	.byte			En4
	.byte	W03
	.byte			Dn4, v052
	.byte	W03
	.byte			En4
	.byte	W03
	.byte			Fs4, v048
	.byte	W03
	.byte			An4
	.byte	W03
	.byte			Fs4
	.byte	W03
	.byte			En4, v044
	.byte	W03
	.byte			Dn4
	.byte	W03
	.byte			An3
	.byte	W03
	.byte			Dn4, v040
	.byte	W03
	.byte			En4
	.byte	W03
	.byte			Dn4, v036
	.byte	W03
	.byte			An3
	.byte	W03
	.byte			Fs3
	.byte	W03
	.byte			En3, v032
	.byte	W03
	.byte			Dn3
	.byte	W03
	.byte			En3, v028
	.byte	W03
	.byte			Fs3
	.byte	W03
	.byte			En3
	.byte	W03
	.byte			Dn3, v024
	.byte	W03
	.byte			An2
	.byte	W03
	.byte			Dn3
	.byte	W03
	.byte			En3, v020
	.byte	W03
	.byte			Dn3
	.byte	W03
	.byte			An2, v016
	.byte	W03
	.byte			Fs2
	.byte	W03
	.byte			En2
	.byte	W03
	.byte			Dn2, v012
	.byte	W03
	.byte	FINE

	@********************** Track  8 **********************@

	.global song0042_8
song0042_8:	@ 0x08C76D63
	.byte	KEYSH	, 0
	.byte	W96
	.byte	W48
	.byte	W48
	.byte	W48
	.byte	W48
	.byte	W48
	.byte	W48
	.byte	W48
	.byte	W48
	.byte	W48
	.byte	W48
	.byte	W48
	.byte	W48
	.byte	W48
	.byte	W48
	.byte	W48
	.byte	W48
	.byte	W48
	.byte	VOICE	, 78
	.byte	VOL	, v100
	.byte	BENDR	, 8
	.byte	PAN	, c_v
	.byte	W48
	.byte	W48
	.byte	W48
	.byte	VOL	, v070
	.byte	W12
	.byte	W48
	.byte	W42
	.byte		N06	, As2, v127
	.byte	W12
	.byte			Cn3
	.byte	W12
	.byte			Dn3
	.byte	W30
	.byte		N20	, Ds3
	.byte	W05
	.byte	VOL	, v070
	.byte	W01
	.byte		v068
	.byte	W01
	.byte		v065
	.byte	W01
	.byte		v062
	.byte	W01
	.byte		v059
	.byte	W01
	.byte		v056
	.byte	W01
	.byte		v053
	.byte	W01
	.byte		v051
	.byte	W02
	.byte		v051
	.byte	W01
	.byte		v052
	.byte	W01
	.byte		v053
	.byte	W01
	.byte		v054
	.byte	W01
	.byte		v055
	.byte	W01
	.byte		v055
	.byte	W01
	.byte		v056
	.byte	W01
	.byte		v057
	.byte	W01
	.byte		v058
	.byte	W01
	.byte		v059
	.byte	W01
	.byte		v059
	.byte		N17	
	.byte	W01
	.byte	VOL	, v060
	.byte	W01
	.byte		v061
	.byte	W01
	.byte		v062
	.byte	W01
	.byte		v062
	.byte	W01
	.byte		v063
	.byte	W01
	.byte		v064
	.byte	W01
	.byte		v065
	.byte	W01
	.byte		v066
	.byte	W01
	.byte		v066
	.byte	W01
	.byte		v067
	.byte	W01
	.byte		v068
	.byte	W01
	.byte		v069
	.byte	W01
	.byte		v070
	.byte	W05
	.byte		N24	, Fn3
	.byte	W07
	.byte	VOL	, v069
	.byte	W01
	.byte		v066
	.byte	W01
	.byte		v062
	.byte	W01
	.byte		v059
	.byte	W01
	.byte		v057
	.byte	W01
	.byte		v054
	.byte	W01
	.byte		v051
	.byte	W02
	.byte		v051
	.byte	W01
	.byte		v052
	.byte	W01
	.byte		v054
	.byte	W01
	.byte		v055
	.byte	W01
	.byte		v055
	.byte	W01
	.byte		v056
	.byte	W01
	.byte		v057
	.byte	W01
	.byte		v058
	.byte	W01
	.byte		v059
	.byte	W01
	.byte		v060
	.byte	W01
	.byte		v061
	.byte	W01
	.byte		v062
	.byte	W01
	.byte		v062
	.byte	W01
	.byte		v063
	.byte	W01
	.byte		v064
	.byte	W01
	.byte		v065
	.byte		N17	
	.byte	W01
	.byte	VOL	, v066
	.byte	W01
	.byte		v067
	.byte	W01
	.byte		v068
	.byte	W01
	.byte		v069
	.byte	W01
	.byte		v070
	.byte	W13
	.byte		N72	, Gn3
	.byte	W06
	.byte	W02
	.byte	VOL	, v070
	.byte	W01
	.byte		v066
	.byte	W01
	.byte		v064
	.byte	W01
	.byte		v060
	.byte	W01
	.byte		v057
	.byte	W01
	.byte		v055
	.byte	W01
	.byte		v051
	.byte	W01
	.byte		v048
	.byte	W01
	.byte		v046
	.byte	W01
	.byte		v042
	.byte	W01
	.byte		v039
	.byte	W01
	.byte		v037
	.byte	W01
	.byte		v033
	.byte	W01
	.byte		v030
	.byte	W02
	.byte		v031
	.byte	W01
	.byte		v033
	.byte	W01
	.byte		v033
	.byte	W01
	.byte		v034
	.byte	W01
	.byte		v035
	.byte	W01
	.byte		v036
	.byte	W01
	.byte		v037
	.byte	W01
	.byte		v038
	.byte	W01
	.byte		v039
	.byte	W01
	.byte		v040
	.byte	W01
	.byte		v041
	.byte	W01
	.byte		v042
	.byte	W01
	.byte		v043
	.byte	W01
	.byte		v044
	.byte	W01
	.byte		v044
	.byte	W01
	.byte		v046
	.byte	W01
	.byte		v047
	.byte	W01
	.byte		v048
	.byte	W01
	.byte		v048
	.byte	W01
	.byte		v049
	.byte	W01
	.byte		v051
	.byte	W01
	.byte		v051
	.byte	W01
	.byte		v052
	.byte	W01
	.byte		v053
	.byte	W01
	.byte		v054
	.byte	W01
	.byte		v055
	.byte	W01
	.byte		v056
	.byte	W01
	.byte		v057
	.byte	W01
	.byte		v058
	.byte	W01
	.byte		v059
	.byte	W02
	.byte		v060
	.byte	W01
	.byte		v061
	.byte	W01
	.byte		v062
	.byte	W01
	.byte		v063
	.byte	W01
	.byte		v064
	.byte	W01
	.byte		v065
	.byte	W01
	.byte		v066
	.byte	W01
	.byte		v066
	.byte	W01
	.byte		v068
	.byte	W01
	.byte		v069
	.byte	W01
	.byte		v070
	.byte	W14
	.byte		N17	
	.byte	W18
	.byte		TIE	, An3
	.byte	W04
	.byte	VOL	, v070
	.byte	W01
	.byte		v065
	.byte	W01
	.byte		v062
	.byte	W01
	.byte		v057
	.byte	W01
	.byte		v052
	.byte	W01
	.byte		v049
	.byte	W01
	.byte		v044
	.byte	W01
	.byte		v040
	.byte	W01
	.byte		v037
	.byte	W04
	.byte		v038
	.byte	W02
	.byte		v039
	.byte	W03
	.byte		v040
	.byte	W02
	.byte		v040
	.byte	W02
	.byte		v041
	.byte	W02
	.byte		v042
	.byte	W02
	.byte		v043
	.byte	W02
	.byte		v044
	.byte	W03
	.byte		v044
	.byte	W02
	.byte		v045
	.byte	W02
	.byte		v046
	.byte	W02
	.byte		v047
	.byte	W02
	.byte		v048
	.byte	W03
	.byte		v048
	.byte	W02
	.byte		v049
	.byte	W02
	.byte		v050
	.byte	W02
	.byte		v051
	.byte	W02
	.byte		v051
	.byte	W02
	.byte		v052
	.byte	W03
	.byte		v053
	.byte	W02
	.byte		v054
	.byte	W02
	.byte		v055
	.byte	W02
	.byte		v055
	.byte	W02
	.byte		v056
	.byte	W02
	.byte		v057
	.byte	W03
	.byte		v058
	.byte	W02
	.byte		v059
	.byte	W02
	.byte		v059
	.byte	W02
	.byte		v060
	.byte	W02
	.byte		v061
	.byte	W03
	.byte		v062
	.byte	W02
	.byte		v062
	.byte	W02
	.byte		v063
	.byte	W02
	.byte		v064
	.byte	W02
	.byte		v065
	.byte	W02
	.byte		v066
	.byte	W03
	.byte		v066
	.byte	W02
	.byte		v067
	.byte	W02
	.byte		v068
	.byte	W02
	.byte		v069
	.byte	W01
	.byte	W01
	.byte		v070
	.byte	W01
	.byte		v070
	.byte	W92
	.byte	W02
	.byte		EOT	
	.byte	FINE

	.align 2
	.global song0042
song0042:	@ 0x08C76EF8
	.byte	8		@ trackCount
	.byte	0		@ blockCount
	.byte	0		@ priority
	.byte	128		@ reverb

	.word	voicegroup020		@ voicegroup/tone

	.word	song0042_1		@ track
	.word	song0042_2		@ track
	.word	song0042_3		@ track
	.word	song0042_4		@ track
	.word	song0042_5		@ track
	.word	song0042_6		@ track
	.word	song0042_7		@ track
	.word	song0042_8		@ track
