	.include "MPlayDef.s"

	.section .rodata

	@********************** Track  1 **********************@

	.align 2
	.global song0037_1
song0037_1:	@ 0x08C74F70
	.byte	KEYSH	, 0
song0037_1_8:
	.byte	TEMPO	, 67
	.byte	VOICE	, 127
	.byte	VOL	, v100
	.byte	PAN	, c_v
	.byte	BENDR	, 3
	.byte		N44	, Cn2, v100
	.byte		N44	, Ds2
	.byte	W96
song0037_1_1:
	.byte		N11	, Cn2, v100
	.byte		N11	, Ds2
	.byte	W12
	.byte		N44	, Cn2
	.byte		N44	, Ds2
	.byte	W84
	.byte	PEND
	.byte			Cn2
	.byte		N44	, Ds2
	.byte	W96
	.byte	PATT	
		.word	song0037_1_1
song0037_1_2:
	.byte		N12	, Ds1, v048
	.byte		N44	, Cn2, v100
	.byte		N44	, Ds2
	.byte	W12
	.byte		N06	, Dn1, v040
	.byte	W06
	.byte			Dn1, v028
	.byte	W06
	.byte		N12	, Ds1, v048
	.byte	W12
	.byte		N06	, Dn1, v040
	.byte	W06
	.byte			Dn1, v028
	.byte	W06
	.byte		N12	, Ds1, v048
	.byte	W12
	.byte		N06	, Dn1, v040
	.byte	W06
	.byte			Dn1, v028
	.byte	W06
	.byte		N12	, Ds1, v048
	.byte	W12
	.byte		N06	, Dn1, v040
	.byte	W06
	.byte			Dn1, v028
	.byte	W06
	.byte	PEND
song0037_1_3:
	.byte		N12	, Ds1, v048
	.byte		N11	, Cn2, v100
	.byte		N11	, Ds2
	.byte	W12
	.byte		N06	, Dn1, v040
	.byte		N44	, Cn2, v100
	.byte		N44	, Ds2
	.byte	W06
	.byte		N06	, Dn1, v028
	.byte	W06
	.byte		N12	, Ds1, v048
	.byte	W12
	.byte		N06	, Dn1, v040
	.byte	W06
	.byte			Dn1, v028
	.byte	W06
	.byte		N12	, Ds1, v048
	.byte	W12
	.byte		N06	, Dn1, v040
	.byte	W06
	.byte			Dn1, v028
	.byte	W06
	.byte		N12	, Ds1, v048
	.byte	W12
	.byte		N06	, Dn1, v040
	.byte	W06
	.byte			Dn1, v028
	.byte	W06
	.byte	PEND
	.byte	PATT	
		.word	song0037_1_2
	.byte	PATT	
		.word	song0037_1_3
song0037_1_4:
	.byte		N06	, Dn1, v052
	.byte		N06	, Ds2, v104
	.byte	W06
	.byte			Dn1, v032
	.byte	W06
	.byte			Dn1, v044
	.byte	W06
	.byte			Dn1, v032
	.byte	W06
	.byte			Dn1, v052
	.byte		N06	, Ds2, v116
	.byte	W06
	.byte			Dn1, v032
	.byte	W06
	.byte			Dn1, v044
	.byte	W06
	.byte			Dn1, v032
	.byte	W06
	.byte			Dn1, v052
	.byte		N06	, Ds2, v108
	.byte	W06
	.byte			Dn1, v032
	.byte	W06
	.byte			Dn1, v044
	.byte	W06
	.byte			Dn1, v032
	.byte	W06
	.byte			Dn1, v052
	.byte		N06	, Ds2, v108
	.byte	W06
	.byte			Dn1, v032
	.byte	W06
	.byte			Dn1, v044
	.byte	W06
	.byte			Dn1, v032
	.byte	W06
	.byte	PEND
song0037_1_5:
	.byte		N06	, Dn1, v052
	.byte		N06	, Ds2, v104
	.byte	W06
	.byte			Dn1, v032
	.byte	W06
	.byte			Dn1, v044
	.byte	W06
	.byte			Dn1, v032
	.byte	W06
	.byte			Dn1, v052
	.byte		N06	, Ds2, v100
	.byte	W06
	.byte			Dn1, v032
	.byte	W06
	.byte			Dn1, v044
	.byte	W06
	.byte			Dn1, v032
	.byte	W06
	.byte			Ds1, v052
	.byte		N06	, Ds2, v108
	.byte	W06
	.byte			Dn1, v032
	.byte	W06
	.byte			Dn1, v044
	.byte	W06
	.byte			Dn1, v032
	.byte	W06
	.byte			Dn1, v052
	.byte		N06	, Ds2, v116
	.byte	W06
	.byte			Dn1, v032
	.byte	W06
	.byte			Ds1, v052
	.byte	W06
	.byte			Dn1, v032
	.byte	W06
	.byte	PEND
	.byte	PATT	
		.word	song0037_1_4
	.byte	PATT	
		.word	song0037_1_5
	.byte	PATT	
		.word	song0037_1_4
	.byte	PATT	
		.word	song0037_1_5
	.byte	PATT	
		.word	song0037_1_4
	.byte	PATT	
		.word	song0037_1_5
	.byte	PATT	
		.word	song0037_1_4
	.byte	PATT	
		.word	song0037_1_5
song0037_1_6:
	.byte		N12	, Ds1, v048
	.byte		N06	, Ds2, v104
	.byte	W12
	.byte			Dn1, v040
	.byte	W06
	.byte			Dn1, v028
	.byte	W06
	.byte		N12	, Ds1, v048
	.byte		N06	, Ds2, v116
	.byte	W12
	.byte			Dn1, v040
	.byte	W06
	.byte			Dn1, v028
	.byte	W06
	.byte		N12	, Ds1, v048
	.byte		N06	, Ds2, v108
	.byte	W12
	.byte			Dn1, v040
	.byte	W06
	.byte			Dn1, v028
	.byte	W06
	.byte		N12	, Ds1, v048
	.byte		N06	, Ds2, v108
	.byte	W12
	.byte			Dn1, v040
	.byte	W06
	.byte			Dn1, v028
	.byte	W06
	.byte	PEND
song0037_1_7:
	.byte		N12	, Ds1, v048
	.byte		N06	, Ds2, v104
	.byte	W12
	.byte			Dn1, v040
	.byte	W06
	.byte			Dn1, v028
	.byte	W06
	.byte		N12	, Ds1, v048
	.byte		N06	, Ds2, v100
	.byte	W12
	.byte			Dn1, v040
	.byte	W06
	.byte			Dn1, v028
	.byte	W06
	.byte			Ds1, v040
	.byte		N06	, Ds2, v108
	.byte	W06
	.byte			Ds1, v040
	.byte	W06
	.byte			En1
	.byte	W06
	.byte			Ds1
	.byte	W06
	.byte		N06	
	.byte		N06	, Ds2, v116
	.byte	W06
	.byte			Ds1, v040
	.byte	W06
	.byte			En1
	.byte	W06
	.byte			Ds1
	.byte	W06
	.byte	PEND
	.byte	PATT	
		.word	song0037_1_6
	.byte	PATT	
		.word	song0037_1_7
	.byte	PATT	
		.word	song0037_1_6
	.byte	PATT	
		.word	song0037_1_7
	.byte	PATT	
		.word	song0037_1_6
	.byte	PATT	
		.word	song0037_1_7
	.byte	PATT	
		.word	song0037_1_6
	.byte	PATT	
		.word	song0037_1_7
	.byte	PATT	
		.word	song0037_1_6
	.byte	PATT	
		.word	song0037_1_7
	.byte	PATT	
		.word	song0037_1_6
	.byte	PATT	
		.word	song0037_1_7
	.byte	PATT	
		.word	song0037_1_6
	.byte	PATT	
		.word	song0037_1_7
	.byte	PATT	
		.word	song0037_1_6
	.byte	PATT	
		.word	song0037_1_7
	.byte	PATT	
		.word	song0037_1_6
	.byte	PATT	
		.word	song0037_1_7
	.byte	PATT	
		.word	song0037_1_6
	.byte	PATT	
		.word	song0037_1_7
	.byte	GOTO	
		.word	song0037_1_8
	.byte	PATT	
		.word	song0037_1_6
	.byte	PATT	
		.word	song0037_1_7
	.byte	PATT	
		.word	song0037_1_6
	.byte	PATT	
		.word	song0037_1_7
	.byte	PATT	
		.word	song0037_1_6
	.byte	PATT	
		.word	song0037_1_7
	.byte	FINE

	@********************** Track  2 **********************@

	.global song0037_2
song0037_2:	@ 0x08C751A0
	.byte	KEYSH	, 0
song0037_2_3:
	.byte	VOICE	, 29
	.byte	PRIO	, 30
	.byte	VOL	, v083
	.byte	PAN	, c_v
	.byte	BENDR	, 13
	.byte	LFOS	, 18
	.byte	LFODL	, 20
	.byte	MOD	, 0
	.byte	MODT	, 0
	.byte	BEND	, c_v
	.byte	W24
	.byte		N19	, Cn2, v104
	.byte		N18	, Gn2
	.byte	W24
	.byte			Cs2
	.byte		N18	, Gs2
	.byte	W24
	.byte		N21	, As1
	.byte		N22	, Fn2, v108
	.byte	W24
song0037_2_1:
	.byte	W24
	.byte		N18	, Cn2, v108
	.byte		N17	, Gn2, v116
	.byte	W24
	.byte			Cs2, v108
	.byte		N19	, Gs2
	.byte	W24
	.byte		N21	, Ds2, v100
	.byte		N22	, As2, v116
	.byte	W24
	.byte	PEND
song0037_2_2:
	.byte	W24
	.byte		N19	, Cn2, v104
	.byte		N18	, Gn2
	.byte	W24
	.byte			Cs2
	.byte		N18	, Gs2
	.byte	W24
	.byte		N21	, As1
	.byte		N22	, Fn2, v108
	.byte	W24
	.byte	PEND
	.byte	PATT	
		.word	song0037_2_1
	.byte		N05	, Cn2, v116
	.byte	W06
	.byte			Cn3
	.byte	W06
	.byte		TIE	, Gn3, v108
	.byte	W12
	.byte		N19	, Cn2, v104
	.byte		N18	, Gn2
	.byte	W24
	.byte			Cs2
	.byte		N18	, Gs2
	.byte	W24
	.byte		N21	, As1
	.byte		N22	, Fn2, v108
	.byte	W24
	.byte	W24
	.byte		N18	, Cn2
	.byte		N17	, Gn2, v116
	.byte	W24
	.byte			Cs2, v108
	.byte		N19	, Gs2
	.byte	W24
	.byte		N21	, Ds2, v100
	.byte		N22	, As2, v116
	.byte	W19
	.byte		EOT	, Gn3
	.byte	W05
	.byte	PATT	
		.word	song0037_2_2
	.byte	PATT	
		.word	song0037_2_1
	.byte	W96
	.byte	W96
	.byte	W96
	.byte	W96
	.byte	W96
	.byte	W96
	.byte	W96
	.byte	W92
	.byte	W02
	.byte		N92	, Gn1, v127
	.byte	W02
	.byte	W92
	.byte	W02
	.byte		N48	, Cn2
	.byte	W02
	.byte	W48
	.byte		N36	, As1
	.byte	W36
	.byte	W01
	.byte		N10	, Gs1
	.byte	W11
	.byte		TIE	, Gn1
	.byte	W96
	.byte	W88
	.byte	W01
	.byte		EOT	
	.byte	W06
	.byte		N92	, Cn2
	.byte	W01
	.byte	W96
	.byte			Dn2
	.byte	W92
	.byte	W03
	.byte		N32	, Ds2
	.byte	W01
	.byte	W36
	.byte		N92	, As1
	.byte	W60
	.byte	W32
	.byte	W02
	.byte		N13	, An1
	.byte	W12
	.byte		N36	, As1
	.byte	W36
	.byte		N11	, Gs1
	.byte	W12
	.byte		TIE	, Gn1
	.byte	W02
	.byte	W96
	.byte	W76
	.byte	W01
	.byte		EOT	
	.byte	W18
	.byte		N92	, Dn2
	.byte	W01
	.byte	W96
	.byte		N44	, En2
	.byte	W44
	.byte	W03
	.byte			Fn2
	.byte	W48
	.byte	W01
	.byte		TIE	, An2
	.byte	W96
	.byte	W96
	.byte	W32
	.byte	W01
	.byte		EOT	
	.byte	W02
	.byte		N10	, Gn2
	.byte	W13
	.byte		N36	, An2
	.byte	W36
	.byte		N11	, Dn3
	.byte	W12
	.byte	W01
	.byte		TIE	, An2
	.byte	W92
	.byte	W03
	.byte	W92
	.byte	W01
	.byte		EOT	
	.byte	W03
	.byte	W96
	.byte	W96
	.byte	W96
	.byte	W96
	.byte	W96
	.byte	W96
	.byte	W96
	.byte	GOTO	
		.word	song0037_2_3
	.byte	FINE

	@********************** Track  3 **********************@

	.global song0037_3
song0037_3:	@ 0x08C752A1
	.byte	KEYSH	, 0
song0037_3_5:
	.byte	VOICE	, 19
	.byte	VOL	, v075
	.byte	PAN	, c_v
	.byte	BENDR	, 13
	.byte	LFOS	, 18
	.byte	LFODL	, 20
	.byte	MOD	, 0
	.byte	MODT	, 0
	.byte	BEND	, c_v
	.byte	W96
	.byte	W96
	.byte	W96
	.byte	W96
	.byte	W96
	.byte	W96
	.byte	W96
	.byte	W96
song0037_3_1:
	.byte		N17	, Cn3, v104
	.byte	W18
	.byte			Gn3, v116
	.byte	W18
	.byte			Fs3, v096
	.byte	W18
	.byte			Dn3, v104
	.byte	W18
	.byte		N11	, Ds3, v096
	.byte	W12
	.byte			Fn3, v100
	.byte	W12
	.byte	PEND
song0037_3_2:
	.byte		N17	, Cn3, v100
	.byte	W18
	.byte			Gn3, v116
	.byte	W18
	.byte			Fs3, v080
	.byte	W18
	.byte			Dn3, v116
	.byte	W18
	.byte		N11	, Ds3, v096
	.byte	W12
	.byte		N48	, Fn3
	.byte	W12
	.byte	PEND
	.byte	W96
	.byte	W96
	.byte	PATT	
		.word	song0037_3_1
	.byte	PATT	
		.word	song0037_3_2
	.byte	W96
	.byte	W96
	.byte	W96
	.byte	W96
	.byte	W96
	.byte	W96
	.byte	W96
	.byte	W96
	.byte	W96
	.byte	W96
	.byte	PATT	
		.word	song0037_3_1
	.byte	PATT	
		.word	song0037_3_2
	.byte		N48	, Dn3, v096
	.byte	W96
	.byte	W96
	.byte		N17	, Dn3, v104
	.byte	W18
	.byte			An3, v116
	.byte	W18
	.byte			Gs3, v096
	.byte	W18
	.byte			En3, v104
	.byte	W18
	.byte		N11	, Fn3, v096
	.byte	W12
	.byte			Gn3, v100
	.byte	W12
	.byte		N17	, Dn3
	.byte	W18
	.byte			An3, v116
	.byte	W18
	.byte			Gs3, v080
	.byte	W18
	.byte			En3, v116
	.byte	W18
	.byte		N11	, Fn3, v096
	.byte	W12
	.byte		N48	, Gn3
	.byte	W12
	.byte	W96
	.byte	W96
	.byte	W96
	.byte	W96
song0037_3_3:
	.byte	W12
	.byte		N17	, Dn4, v116
	.byte	W18
	.byte			Cs4
	.byte	W18
	.byte			Cn4
	.byte	W18
	.byte			As3
	.byte	W18
	.byte		N23	, Gn3, v104
	.byte	W12
	.byte	PEND
song0037_3_4:
	.byte	W12
	.byte		N17	, Dn4, v120
	.byte	W18
	.byte			Cs4, v116
	.byte	W18
	.byte			Cn4
	.byte	W18
	.byte			As3, v100
	.byte	W18
	.byte		N68	, Gn3, v116
	.byte	W12
	.byte	PEND
	.byte	W96
	.byte	W96
	.byte	PATT	
		.word	song0037_3_3
	.byte	PATT	
		.word	song0037_3_4
	.byte	GOTO	
		.word	song0037_3_5
	.byte	W56
	.byte	W01
	.byte	FINE

	@********************** Track  4 **********************@

	.global song0037_4
song0037_4:	@ 0x08C7536D
	.byte	KEYSH	, 0
song0037_4_6:
	.byte	VOICE	, 12
	.byte	VOL	, v086
	.byte	PAN	, c_v
	.byte	BENDR	, 3
	.byte	LFOS	, 56
	.byte	LFODL	, 0
	.byte	MOD	, 0
	.byte	MODT	, 2
	.byte		N72	, Cn2, v120
	.byte	W96
song0037_4_1:
	.byte		N06	, Cn2, v127
	.byte	W12
	.byte		N60	, Cn2, v120
	.byte	W84
	.byte	PEND
	.byte		N72	
	.byte	W96
	.byte	PATT	
		.word	song0037_4_1
	.byte		N72	, Cn2, v120
	.byte	W96
	.byte	PATT	
		.word	song0037_4_1
	.byte		N72	, Cn2, v120
	.byte	W96
	.byte	PATT	
		.word	song0037_4_1
song0037_4_2:
	.byte		N05	, Cn2, v100
	.byte	W06
	.byte			Cn2, v096
	.byte	W06
	.byte			Ds2
	.byte	W06
	.byte		N05	
	.byte	W06
	.byte			Cn2, v100
	.byte	W06
	.byte			Cn2, v096
	.byte	W06
	.byte			Gn2
	.byte	W06
	.byte		N05	
	.byte	W06
	.byte			Cn2, v100
	.byte	W06
	.byte			Cn2, v096
	.byte	W06
	.byte			Gs2
	.byte	W06
	.byte		N05	
	.byte	W06
	.byte			Gn2, v100
	.byte	W06
	.byte			Gn2, v096
	.byte	W06
	.byte			Ds2
	.byte	W06
	.byte		N05	
	.byte	W06
	.byte	PEND
	.byte	PATT	
		.word	song0037_4_2
	.byte	PATT	
		.word	song0037_4_2
	.byte	PATT	
		.word	song0037_4_2
	.byte	PATT	
		.word	song0037_4_2
	.byte	PATT	
		.word	song0037_4_2
	.byte	PATT	
		.word	song0037_4_2
	.byte	PATT	
		.word	song0037_4_2
	.byte	PATT	
		.word	song0037_4_2
	.byte	PATT	
		.word	song0037_4_2
	.byte	PATT	
		.word	song0037_4_2
	.byte	PATT	
		.word	song0037_4_2
	.byte	PATT	
		.word	song0037_4_2
	.byte	PATT	
		.word	song0037_4_2
	.byte	PATT	
		.word	song0037_4_2
	.byte	PATT	
		.word	song0037_4_2
	.byte	PATT	
		.word	song0037_4_2
	.byte	PATT	
		.word	song0037_4_2
song0037_4_3:
	.byte		N05	, Dn2, v100
	.byte	W06
	.byte			Dn2, v096
	.byte	W06
	.byte			Fn2
	.byte	W06
	.byte		N05	
	.byte	W06
	.byte			Dn2, v100
	.byte	W06
	.byte			Dn2, v096
	.byte	W06
	.byte			An2
	.byte	W06
	.byte		N05	
	.byte	W06
	.byte			Dn2, v100
	.byte	W06
	.byte			Dn2, v096
	.byte	W06
	.byte			As2
	.byte	W06
	.byte		N05	
	.byte	W06
	.byte			An2, v100
	.byte	W06
	.byte			An2, v096
	.byte	W06
	.byte			Fn2
	.byte	W06
	.byte		N05	
	.byte	W06
	.byte	PEND
	.byte	PATT	
		.word	song0037_4_3
	.byte	PATT	
		.word	song0037_4_3
	.byte	PATT	
		.word	song0037_4_3
	.byte	PATT	
		.word	song0037_4_3
	.byte	PATT	
		.word	song0037_4_3
	.byte	PATT	
		.word	song0037_4_3
	.byte	PATT	
		.word	song0037_4_3
song0037_4_4:
	.byte		N05	, Gn2, v127
	.byte	W06
	.byte			Gn2, v088
	.byte	W06
	.byte		N05	
	.byte	W06
	.byte		N05	
	.byte	W06
	.byte			Gn2, v127
	.byte	W06
	.byte			Gn2, v088
	.byte	W06
	.byte		N05	
	.byte	W06
	.byte		N05	
	.byte	W06
	.byte			Gn2, v127
	.byte	W06
	.byte			Gn2, v088
	.byte	W06
	.byte		N05	
	.byte	W06
	.byte		N05	
	.byte	W06
	.byte			Gn2, v127
	.byte	W06
	.byte			Gn2, v088
	.byte	W06
	.byte		N05	
	.byte	W06
	.byte		N05	
	.byte	W06
	.byte	PEND
song0037_4_5:
	.byte		N05	, Ds2, v127
	.byte	W06
	.byte			Ds2, v088
	.byte	W06
	.byte		N05	
	.byte	W06
	.byte		N05	
	.byte	W06
	.byte			Ds2, v127
	.byte	W06
	.byte			Ds2, v088
	.byte	W06
	.byte		N05	
	.byte	W06
	.byte		N05	
	.byte	W06
	.byte			Fn2, v127
	.byte	W06
	.byte			Fn2, v088
	.byte	W06
	.byte		N05	
	.byte	W06
	.byte		N05	
	.byte	W06
	.byte			Fn2, v127
	.byte	W06
	.byte			Fn2, v088
	.byte	W06
	.byte		N05	
	.byte	W06
	.byte		N05	
	.byte	W06
	.byte	PEND
	.byte	PATT	
		.word	song0037_4_4
	.byte	PATT	
		.word	song0037_4_4
	.byte	PATT	
		.word	song0037_4_4
	.byte	PATT	
		.word	song0037_4_5
	.byte	GOTO	
		.word	song0037_4_6
	.byte	PATT	
		.word	song0037_4_4
	.byte		N05	, Gn2, v127
	.byte	W06
	.byte			Gn2, v088
	.byte	W06
	.byte		N05	
	.byte	W06
	.byte		N05	
	.byte	W06
	.byte			Gn2, v127
	.byte	W06
	.byte			Gn2, v088
	.byte	W06
	.byte		N05	
	.byte	W06
	.byte		N05	
	.byte	W06
	.byte			Gn2, v127
	.byte	W06
	.byte			Gn2, v088
	.byte	W06
	.byte		N05	
	.byte	W06
	.byte		N05	
	.byte	W06
	.byte			Gn2, v127
	.byte	W06
	.byte			Gn2, v088
	.byte	W06
	.byte		N05	
	.byte	W06
	.byte		N05	
	.byte	W05
	.byte	FINE

	@********************** Track  5 **********************@

	.global song0037_5
song0037_5:	@ 0x08C7550D
	.byte	KEYSH	, 0
song0037_5_1:
	.byte	VOICE	, 21
	.byte	VOL	, v051
	.byte	PAN	, c_v
	.byte	BENDR	, 3
	.byte	LFOS	, 23
	.byte	LFODL	, 22
	.byte	MOD	, 4
	.byte	MODT	, 0
	.byte	W96
	.byte	W96
	.byte	W96
	.byte	W96
	.byte	W96
	.byte	W96
	.byte	W96
	.byte	W96
	.byte	W96
	.byte	W96
	.byte	W96
	.byte	W96
	.byte	W96
	.byte	W96
	.byte	W96
	.byte	W96
	.byte	W96
	.byte	W96
	.byte	W96
	.byte	W96
	.byte	W96
	.byte	W96
	.byte	W96
	.byte	W96
	.byte	W96
	.byte	W96
	.byte	W96
	.byte	W96
	.byte	W96
	.byte	W96
	.byte	W96
	.byte	W96
	.byte	W96
	.byte	W96
	.byte	W96
	.byte	W96
song0037_5_2:
	.byte	W48
	.byte		N06	, Dn4, v100
	.byte	W06
	.byte			An4, v096
	.byte	W06
	.byte			Dn5, v092
	.byte	W12
	.byte			Dn4, v084
	.byte	W06
	.byte			An4, v080
	.byte	W06
	.byte			Dn5, v076
	.byte	W12
	.byte	PEND
	.byte			Dn4, v068
	.byte	W06
	.byte			An4, v064
	.byte	W06
	.byte			Dn5, v060
	.byte	W12
	.byte			Dn4, v048
	.byte	W06
	.byte			An4, v044
	.byte	W06
	.byte			Dn5, v040
	.byte	W12
	.byte			Dn4, v032
	.byte	W06
	.byte			An4, v028
	.byte	W06
	.byte			Dn5, v024
	.byte	W12
	.byte			Dn4, v016
	.byte	W06
	.byte			An4, v012
	.byte	W06
	.byte			Dn5, v008
	.byte	W12
	.byte	W96
	.byte	W96
	.byte	GOTO	
		.word	song0037_5_1
	.byte	PATT	
		.word	song0037_5_2
	.byte		N06	, Dn4, v068
	.byte	W06
	.byte			An4, v064
	.byte	W06
	.byte			Dn5, v060
	.byte	W12
	.byte			Dn4, v048
	.byte	W06
	.byte			An4, v044
	.byte	W06
	.byte			Dn5, v040
	.byte	W12
	.byte			Dn4, v032
	.byte	W06
	.byte			An4, v028
	.byte	W06
	.byte			Dn5, v024
	.byte	W12
	.byte			Dn4, v016
	.byte	W06
	.byte			An4, v012
	.byte	W06
	.byte			Dn5, v008
	.byte	W06
	.byte	FINE

	@********************** Track  6 **********************@

	.global song0037_6
song0037_6:	@ 0x08C755AE
	.byte	KEYSH	, 0
song0037_6_1:
	.byte	VOICE	, 22
	.byte	VOL	, v043
	.byte	PAN	, c_v
	.byte	BENDR	, 13
	.byte	LFOS	, 18
	.byte	LFODL	, 20
	.byte	MOD	, 0
	.byte	MODT	, 0
	.byte	BEND	, c_v
	.byte	W96
	.byte	W96
	.byte	W96
	.byte	W96
	.byte	W96
	.byte	W96
	.byte	W96
	.byte	W96
	.byte	W96
	.byte	W96
	.byte	W96
	.byte	W96
	.byte	W96
	.byte	W96
	.byte	W96
	.byte	W96
	.byte	W96
	.byte	W96
	.byte	W96
	.byte	W96
	.byte	W96
	.byte	W96
	.byte	W96
	.byte	W96
	.byte	W96
	.byte	W96
	.byte	W96
	.byte	W96
	.byte	W96
	.byte	W96
	.byte	W96
	.byte	W96
	.byte	W96
	.byte	W96
	.byte	W96
	.byte	W96
song0037_6_2:
	.byte	W54
	.byte		N06	, Dn4, v100
	.byte	W06
	.byte			An4, v096
	.byte	W06
	.byte			Dn5, v092
	.byte	W12
	.byte			Dn4, v084
	.byte	W06
	.byte			An4, v080
	.byte	W06
	.byte			Dn5, v076
	.byte	W06
	.byte	PEND
song0037_6_3:
	.byte	W06
	.byte		N06	, Dn4, v068
	.byte	W06
	.byte			An4, v064
	.byte	W06
	.byte			Dn5, v060
	.byte	W12
	.byte			Dn4, v048
	.byte	W06
	.byte			An4, v044
	.byte	W06
	.byte			Dn5, v040
	.byte	W12
	.byte			Dn4, v032
	.byte	W06
	.byte			An4, v028
	.byte	W06
	.byte			Dn5, v024
	.byte	W12
	.byte			Dn4, v016
	.byte	W06
	.byte			An4, v012
	.byte	W06
	.byte			Dn5, v008
	.byte	W06
	.byte	PEND
	.byte	W96
	.byte	W96
	.byte	GOTO	
		.word	song0037_6_1
	.byte	PATT	
		.word	song0037_6_2
	.byte	PATT	
		.word	song0037_6_3
	.byte	FINE

	@********************** Track  7 **********************@

	.global song0037_7
song0037_7:	@ 0x08C75634
	.byte	KEYSH	, 0
song0037_7_5:
	.byte	VOICE	, 14
	.byte	VOL	, v062
	.byte	PAN	, c_v
	.byte	BENDR	, 3
	.byte	LFOS	, 23
	.byte	LFODL	, 22
	.byte	MOD	, 0
	.byte	MODT	, 0
	.byte		N72	, Cn2, v120
	.byte	W96
song0037_7_1:
	.byte		N06	, Cn2, v127
	.byte	W12
	.byte		N60	, Cn2, v120
	.byte	W84
	.byte	PEND
	.byte		N72	
	.byte	W96
	.byte	PATT	
		.word	song0037_7_1
	.byte		N72	, Cn2, v120
	.byte	W96
	.byte	PATT	
		.word	song0037_7_1
	.byte		N72	, Cn2, v120
	.byte	W96
	.byte	PATT	
		.word	song0037_7_1
	.byte	W96
	.byte	W96
song0037_7_2:
	.byte		N17	, Cn3, v104
	.byte	W18
	.byte			Gn3, v116
	.byte	W18
	.byte			Fs3, v096
	.byte	W18
	.byte			Dn3, v104
	.byte	W18
	.byte		N11	, Ds3, v096
	.byte	W12
	.byte			Fn3, v100
	.byte	W12
	.byte	PEND
song0037_7_3:
	.byte		N17	, Cn3, v100
	.byte	W18
	.byte			Gn3, v116
	.byte	W18
	.byte			Fs3, v080
	.byte	W18
	.byte			Dn3, v116
	.byte	W18
	.byte		N11	, Ds3, v096
	.byte	W12
	.byte		N48	, Fn3
	.byte	W12
	.byte	PEND
	.byte	W96
	.byte	W96
	.byte	W96
	.byte	W96
	.byte	W96
	.byte	W96
	.byte	W96
	.byte	W96
	.byte	PATT	
		.word	song0037_7_2
	.byte	PATT	
		.word	song0037_7_3
	.byte	W96
	.byte	W96
	.byte	W96
	.byte	W96
	.byte	W96
	.byte	W96
	.byte	W96
	.byte	W96
	.byte	W96
	.byte	W96
	.byte	W96
	.byte	W96
	.byte		N92	, Gn1, v108
	.byte		N92	, Dn2
	.byte	W96
song0037_7_4:
	.byte		N48	, Gs1, v076
	.byte		N48	, Ds2, v088
	.byte	W48
	.byte			Fn1, v096
	.byte		N48	, Cn2, v092
	.byte	W48
	.byte	PEND
	.byte		N92	, Gn1, v108
	.byte		N92	, Dn2
	.byte	W96
	.byte	W96
	.byte			Gn1
	.byte		N92	, Dn2
	.byte	W96
	.byte	PATT	
		.word	song0037_7_4
	.byte	GOTO	
		.word	song0037_7_5
	.byte		N92	, Gn1, v108
	.byte		N92	, Dn2
	.byte	W92
	.byte	W01
	.byte	FINE

	@********************** Track  8 **********************@

	.global song0037_8
song0037_8:	@ 0x08C756E7
	.byte	KEYSH	, 0
song0037_8_2:
	.byte	VOICE	, 28
	.byte	VOL	, v075
	.byte	PAN	, c_v
	.byte	BENDR	, 3
	.byte	LFOS	, 23
	.byte	LFODL	, 22
	.byte	MOD	, 0
	.byte	MODT	, 0
	.byte	W96
	.byte	W96
	.byte	W96
	.byte	W96
	.byte	W96
	.byte	W96
	.byte	W96
	.byte	W96
	.byte	W96
song0037_8_1:
	.byte	W48
	.byte		N05	, Gn4, v076
	.byte	W06
	.byte			Cn5, v068
	.byte	W06
	.byte			Gn5, v060
	.byte	W06
	.byte			Cn6, v052
	.byte	W06
	.byte			Gn6, v044
	.byte	W06
	.byte			Cn7, v036
	.byte	W18
	.byte	PEND
	.byte	W96
	.byte	W96
	.byte	W96
	.byte	PATT	
		.word	song0037_8_1
	.byte	W96
	.byte	W96
	.byte	W96
	.byte	PATT	
		.word	song0037_8_1
	.byte	W96
	.byte	W96
	.byte	W96
	.byte	PATT	
		.word	song0037_8_1
	.byte	W96
	.byte	W96
	.byte	W96
	.byte	PATT	
		.word	song0037_8_1
	.byte	W96
	.byte	W96
	.byte	W96
	.byte	W48
	.byte		N05	, An4, v076
	.byte	W06
	.byte			Dn5, v068
	.byte	W06
	.byte			An5, v060
	.byte	W06
	.byte			Dn6, v052
	.byte	W06
	.byte			An6, v044
	.byte	W06
	.byte			Dn7, v036
	.byte	W18
	.byte	W96
	.byte	W96
	.byte	W96
	.byte	W96
	.byte	W96
	.byte	W96
	.byte	W96
	.byte	W96
	.byte	W96
	.byte	W96
	.byte	GOTO	
		.word	song0037_8_2
	.byte	FINE

	@********************** Track  9 **********************@

	.global song0037_9
song0037_9:	@ 0x08C7575E
	.byte	KEYSH	, 0
song0037_9_8:
	.byte	VOICE	, 23
	.byte	VOL	, v062
	.byte	PAN	, c_v
	.byte	BENDR	, 12
	.byte	LFOS	, 23
	.byte	LFODL	, 22
	.byte	MOD	, 17
	.byte	MODT	, 0
	.byte	BEND	, c_v
	.byte		TIE	, Cn3, v092
	.byte	W68
	.byte	W03
	.byte	BEND	, c_v+5
	.byte	W02
	.byte		c_v+10
	.byte	W03
	.byte		c_v+18
	.byte	W02
	.byte		c_v+23
	.byte	W01
	.byte		c_v+26
	.byte	W01
	.byte		c_v+28
	.byte	W01
	.byte		c_v+31
	.byte	W02
	.byte		c_v+36
	.byte	W02
	.byte		c_v+41
	.byte	W01
	.byte		c_v+46
	.byte	W01
	.byte		c_v+49
	.byte	W01
	.byte		c_v+52
	.byte	W02
	.byte		c_v+57
	.byte	W01
	.byte		c_v+59
	.byte	W02
	.byte		c_v+63
	.byte	W02
	.byte		c_v+63
	.byte	W01
song0037_9_1:
	.byte	W72
	.byte	BEND	, c_v+63
	.byte	W03
	.byte		c_v+55
	.byte	W03
	.byte		c_v+47
	.byte	W03
	.byte		c_v+39
	.byte	W04
	.byte		c_v+26
	.byte	W01
	.byte		c_v+24
	.byte	W01
	.byte		c_v+21
	.byte	W01
	.byte		c_v+19
	.byte	W01
	.byte		c_v+16
	.byte	W01
	.byte		c_v+14
	.byte	W02
	.byte		c_v+8
	.byte	W02
	.byte		c_v
	.byte	W01
	.byte	PEND
	.byte		EOT	, Cn3
	.byte	W01
song0037_9_2:
	.byte	BEND	, c_v
	.byte		TIE	, Cn3, v092
	.byte	W68
	.byte	W03
	.byte	BEND	, c_v+5
	.byte	W02
	.byte		c_v+10
	.byte	W03
	.byte		c_v+18
	.byte	W02
	.byte		c_v+23
	.byte	W01
	.byte		c_v+26
	.byte	W01
	.byte		c_v+28
	.byte	W01
	.byte		c_v+31
	.byte	W02
	.byte		c_v+36
	.byte	W02
	.byte		c_v+41
	.byte	W01
	.byte		c_v+46
	.byte	W01
	.byte		c_v+49
	.byte	W01
	.byte		c_v+52
	.byte	W02
	.byte		c_v+57
	.byte	W01
	.byte		c_v+59
	.byte	W02
	.byte		c_v+63
	.byte	W02
	.byte		c_v+63
	.byte	W01
	.byte	PEND
	.byte	PATT	
		.word	song0037_9_1
	.byte		EOT	, Cn3
	.byte	W01
	.byte	PATT	
		.word	song0037_9_2
	.byte	PATT	
		.word	song0037_9_1
	.byte		EOT	, Cn3
	.byte	W01
	.byte	PATT	
		.word	song0037_9_2
	.byte	PATT	
		.word	song0037_9_1
	.byte		EOT	, Cn3
	.byte	W01
song0037_9_3:
	.byte		N05	, Gn1, v124
	.byte	W06
	.byte			Cn2, v116
	.byte	W06
	.byte			Gn2, v108
	.byte	W06
	.byte			Cn3, v100
	.byte	W06
	.byte			Gn3, v092
	.byte	W06
	.byte			Cn4, v084
	.byte	W06
	.byte			Gn4, v076
	.byte	W06
	.byte			Cn5, v068
	.byte	W06
	.byte			Gn1, v124
	.byte		N05	, Gn5, v060
	.byte	W06
	.byte			Cn2, v116
	.byte		N05	, Cn6, v052
	.byte	W06
	.byte			Gn2, v108
	.byte		N05	, Gn6, v044
	.byte	W06
	.byte			Cn3, v100
	.byte		N05	, Cn7, v036
	.byte	W06
	.byte			Gn3, v092
	.byte	W06
	.byte			Cn4, v084
	.byte	W06
	.byte			Gn4, v076
	.byte	W06
	.byte			Cn5, v068
	.byte	W06
	.byte	PEND
song0037_9_4:
	.byte		N05	, Gn5, v060
	.byte	W06
	.byte			Cn6, v052
	.byte	W06
	.byte			Gn6, v044
	.byte	W06
	.byte			Cn7, v036
	.byte	W78
	.byte	PEND
	.byte	PATT	
		.word	song0037_9_3
	.byte	PATT	
		.word	song0037_9_4
	.byte	PATT	
		.word	song0037_9_3
	.byte	PATT	
		.word	song0037_9_4
	.byte	PATT	
		.word	song0037_9_3
	.byte	PATT	
		.word	song0037_9_4
	.byte	PATT	
		.word	song0037_9_3
	.byte	PATT	
		.word	song0037_9_4
	.byte	PATT	
		.word	song0037_9_3
	.byte	PATT	
		.word	song0037_9_4
	.byte	PATT	
		.word	song0037_9_3
	.byte	PATT	
		.word	song0037_9_4
	.byte	PATT	
		.word	song0037_9_3
	.byte	PATT	
		.word	song0037_9_4
	.byte	PATT	
		.word	song0037_9_3
	.byte	PATT	
		.word	song0037_9_4
song0037_9_5:
	.byte		N05	, An1, v124
	.byte	W06
	.byte			Dn2, v116
	.byte	W06
	.byte			An2, v108
	.byte	W06
	.byte			Dn3, v100
	.byte	W06
	.byte			An3, v092
	.byte	W06
	.byte			Dn4, v084
	.byte	W06
	.byte			An4, v076
	.byte	W06
	.byte			Dn5, v068
	.byte	W06
	.byte			An1, v124
	.byte		N05	, An5, v060
	.byte	W06
	.byte			Dn2, v116
	.byte		N05	, Dn6, v052
	.byte	W06
	.byte			An2, v108
	.byte		N05	, An6, v044
	.byte	W06
	.byte			Dn3, v100
	.byte		N05	, Dn7, v036
	.byte	W06
	.byte			An3, v092
	.byte	W06
	.byte			Dn4, v084
	.byte	W06
	.byte			An4, v076
	.byte	W06
	.byte			Dn5, v068
	.byte	W06
	.byte	PEND
song0037_9_6:
	.byte		N05	, An5, v060
	.byte	W06
	.byte			Dn6, v052
	.byte	W06
	.byte			An6, v044
	.byte	W06
	.byte			Dn7, v036
	.byte	W78
	.byte	PEND
	.byte	PATT	
		.word	song0037_9_5
	.byte	PATT	
		.word	song0037_9_6
	.byte	PATT	
		.word	song0037_9_5
	.byte	PATT	
		.word	song0037_9_6
	.byte	PATT	
		.word	song0037_9_5
	.byte	PATT	
		.word	song0037_9_6
	.byte		N92	, Gn2, v108
	.byte	W96
song0037_9_7:
	.byte		N48	, Ds3, v088
	.byte	W48
	.byte			Fn2, v096
	.byte	W48
	.byte	PEND
	.byte		N92	, Gn2, v108
	.byte	W96
	.byte	W96
	.byte		N92	
	.byte	W96
	.byte	PATT	
		.word	song0037_9_7
	.byte	GOTO	
		.word	song0037_9_8
	.byte		N92	, Gn2, v108
	.byte	W92
	.byte	W01
	.byte	FINE

	@********************** Track  10 **********************@

	.global song0037_10
song0037_10:	@ 0x08C7592A
	.byte	KEYSH	, 0
song0037_10_7:
	.byte	VOICE	, 24
	.byte	VOL	, v062
	.byte	PAN	, c_v
	.byte	BENDR	, 12
	.byte	LFOS	, 23
	.byte	LFODL	, 22
	.byte	MOD	, 17
	.byte	MODT	, 0
	.byte	W24
	.byte		N18	, Gn3, v104
	.byte	W24
	.byte			Gs3
	.byte	W24
	.byte		N22	, Fn3, v108
	.byte	W24
song0037_10_1:
	.byte	W24
	.byte		N17	, Gn3, v116
	.byte	W24
	.byte		N19	, Gs3, v108
	.byte	W24
	.byte		N22	, As3, v116
	.byte	W24
	.byte	PEND
song0037_10_2:
	.byte	W24
	.byte		N18	, Gn3, v104
	.byte	W24
	.byte			Gs3
	.byte	W24
	.byte		N22	, Fn3, v108
	.byte	W24
	.byte	PEND
	.byte	PATT	
		.word	song0037_10_1
	.byte	PATT	
		.word	song0037_10_2
	.byte	PATT	
		.word	song0037_10_1
	.byte	PATT	
		.word	song0037_10_2
	.byte	PATT	
		.word	song0037_10_1
song0037_10_3:
	.byte		N05	, Cn2, v100
	.byte	W06
	.byte			Cn2, v096
	.byte	W06
	.byte			Ds2
	.byte	W06
	.byte		N05	
	.byte	W06
	.byte			Cn2, v100
	.byte	W06
	.byte			Cn2, v096
	.byte	W06
	.byte			Gn2
	.byte	W06
	.byte		N05	
	.byte	W06
	.byte			Cn2, v100
	.byte	W06
	.byte			Cn2, v096
	.byte	W06
	.byte			Gs2
	.byte	W06
	.byte		N05	
	.byte	W06
	.byte			Gn2, v100
	.byte	W06
	.byte			Gn2, v096
	.byte	W06
	.byte			Ds2
	.byte	W06
	.byte		N05	
	.byte	W06
	.byte	PEND
	.byte	PATT	
		.word	song0037_10_3
	.byte	PATT	
		.word	song0037_10_3
	.byte	PATT	
		.word	song0037_10_3
	.byte	PATT	
		.word	song0037_10_3
	.byte	PATT	
		.word	song0037_10_3
	.byte	PATT	
		.word	song0037_10_3
	.byte	PATT	
		.word	song0037_10_3
	.byte	PATT	
		.word	song0037_10_3
	.byte	PATT	
		.word	song0037_10_3
	.byte	PATT	
		.word	song0037_10_3
	.byte	PATT	
		.word	song0037_10_3
	.byte	PATT	
		.word	song0037_10_3
	.byte	PATT	
		.word	song0037_10_3
	.byte	PATT	
		.word	song0037_10_3
	.byte	PATT	
		.word	song0037_10_3
	.byte	PATT	
		.word	song0037_10_3
	.byte	PATT	
		.word	song0037_10_3
song0037_10_4:
	.byte		N05	, Dn2, v100
	.byte	W06
	.byte			Dn2, v096
	.byte	W06
	.byte			Fn2
	.byte	W06
	.byte		N05	
	.byte	W06
	.byte			Dn2, v100
	.byte	W06
	.byte			Dn2, v096
	.byte	W06
	.byte			An2
	.byte	W06
	.byte		N05	
	.byte	W06
	.byte			Dn2, v100
	.byte	W06
	.byte			Dn2, v096
	.byte	W06
	.byte			As2
	.byte	W06
	.byte		N05	
	.byte	W06
	.byte			An2, v100
	.byte	W06
	.byte			An2, v096
	.byte	W06
	.byte			Fn2
	.byte	W06
	.byte		N05	
	.byte	W06
	.byte	PEND
	.byte	PATT	
		.word	song0037_10_4
	.byte	PATT	
		.word	song0037_10_4
	.byte	PATT	
		.word	song0037_10_4
	.byte	PATT	
		.word	song0037_10_4
	.byte	PATT	
		.word	song0037_10_4
	.byte	PATT	
		.word	song0037_10_4
	.byte	PATT	
		.word	song0037_10_4
song0037_10_5:
	.byte		N05	, Gn2, v127
	.byte	W06
	.byte			Gn2, v088
	.byte	W06
	.byte		N05	
	.byte	W06
	.byte		N05	
	.byte	W06
	.byte			Gn2, v127
	.byte	W06
	.byte			Gn2, v088
	.byte	W06
	.byte		N05	
	.byte	W06
	.byte		N05	
	.byte	W06
	.byte			Gn2, v127
	.byte	W06
	.byte			Gn2, v088
	.byte	W06
	.byte		N05	
	.byte	W06
	.byte		N05	
	.byte	W06
	.byte			Gn2, v127
	.byte	W06
	.byte			Gn2, v088
	.byte	W06
	.byte		N05	
	.byte	W06
	.byte		N05	
	.byte	W06
	.byte	PEND
song0037_10_6:
	.byte		N05	, Ds2, v127
	.byte	W06
	.byte			Ds2, v088
	.byte	W06
	.byte		N05	
	.byte	W06
	.byte		N05	
	.byte	W06
	.byte			Ds2, v127
	.byte	W06
	.byte			Ds2, v088
	.byte	W06
	.byte		N05	
	.byte	W06
	.byte		N05	
	.byte	W06
	.byte			Fn2, v127
	.byte	W06
	.byte			Fn2, v088
	.byte	W06
	.byte		N05	
	.byte	W06
	.byte		N05	
	.byte	W06
	.byte			Fn2, v127
	.byte	W06
	.byte			Fn2, v088
	.byte	W06
	.byte		N05	
	.byte	W06
	.byte		N05	
	.byte	W06
	.byte	PEND
	.byte	PATT	
		.word	song0037_10_5
	.byte	PATT	
		.word	song0037_10_5
	.byte	PATT	
		.word	song0037_10_5
	.byte	PATT	
		.word	song0037_10_6
	.byte	GOTO	
		.word	song0037_10_7
	.byte	PATT	
		.word	song0037_10_5
	.byte		N05	, Gn2, v127
	.byte	W06
	.byte			Gn2, v088
	.byte	W06
	.byte		N05	
	.byte	W06
	.byte		N05	
	.byte	W06
	.byte			Gn2, v127
	.byte	W06
	.byte			Gn2, v088
	.byte	W06
	.byte		N05	
	.byte	W06
	.byte		N05	
	.byte	W06
	.byte			Gn2, v127
	.byte	W06
	.byte			Gn2, v088
	.byte	W06
	.byte		N05	
	.byte	W06
	.byte		N05	
	.byte	W06
	.byte			Gn2, v127
	.byte	W06
	.byte			Gn2, v088
	.byte	W06
	.byte		N05	
	.byte	W06
	.byte		N05	
	.byte	W05
	.byte	FINE

	@********************** Track  11 **********************@

	.global song0037_11
song0037_11:	@ 0x08C75AE2
	.byte	KEYSH	, 0
song0037_11_2:
	.byte	VOICE	, 25
	.byte	VOL	, v062
	.byte	PAN	, c_v
	.byte	BENDR	, 3
	.byte	LFOS	, 56
	.byte	LFODL	, 0
	.byte	MOD	, 0
	.byte	MODT	, 2
	.byte		N92	, Cn2, v127
	.byte	W96
song0037_11_1:
	.byte		N11	, Cn2, v127
	.byte	W12
	.byte		N80	
	.byte	W84
	.byte	PEND
	.byte		N92	
	.byte	W96
	.byte	PATT	
		.word	song0037_11_1
	.byte		N92	, Cn2, v127
	.byte	W96
	.byte	PATT	
		.word	song0037_11_1
	.byte		N92	, Cn2, v127
	.byte	W96
	.byte	PATT	
		.word	song0037_11_1
	.byte	W96
	.byte	W96
	.byte	W96
	.byte	W96
	.byte	W96
	.byte	W96
	.byte	W96
	.byte	W96
	.byte	W96
	.byte	W96
	.byte	W96
	.byte	W96
	.byte	W96
	.byte	W96
	.byte	W96
	.byte	W96
	.byte	W96
	.byte	W96
	.byte	W96
	.byte	W96
	.byte	W96
	.byte	W96
	.byte	W96
	.byte	W96
	.byte	W96
	.byte	W96
	.byte	W96
	.byte	W96
	.byte	W96
	.byte	W96
	.byte	W96
	.byte	W96
	.byte	GOTO	
		.word	song0037_11_2
	.byte	FINE

	@********************** Track  12 **********************@

	.global song0037_12
song0037_12:	@ 0x08C75B3E
	.byte	KEYSH	, 0
song0037_12_4:
	.byte	VOICE	, 36
	.byte	VOL	, v082
	.byte	PAN	, c_v
	.byte	BENDR	, 13
	.byte	LFOS	, 18
	.byte	LFODL	, 20
	.byte	MOD	, 0
	.byte	MODT	, 0
	.byte	BEND	, c_v
	.byte	W96
	.byte	W96
	.byte	W96
	.byte	W96
	.byte	W96
	.byte	W96
	.byte	W96
	.byte	W96
song0037_12_1:
	.byte		N05	, Gn1, v124
	.byte	W06
	.byte			Cn2, v116
	.byte	W06
	.byte			Gn2, v108
	.byte	W06
	.byte			Cn3, v100
	.byte	W06
	.byte			Gn3, v092
	.byte	W06
	.byte			Cn4, v084
	.byte	W06
	.byte			Gn4, v076
	.byte	W06
	.byte			Cn5, v068
	.byte	W06
	.byte			Gn5, v060
	.byte	W06
	.byte			Cn6, v052
	.byte	W06
	.byte			Gn6, v044
	.byte	W06
	.byte			Cn7, v036
	.byte	W30
	.byte	PEND
	.byte	W96
	.byte	PATT	
		.word	song0037_12_1
	.byte	W96
	.byte	PATT	
		.word	song0037_12_1
	.byte	W96
	.byte	PATT	
		.word	song0037_12_1
	.byte	W96
	.byte	PATT	
		.word	song0037_12_1
	.byte	W96
	.byte	PATT	
		.word	song0037_12_1
	.byte	W96
	.byte	PATT	
		.word	song0037_12_1
	.byte	W96
	.byte	PATT	
		.word	song0037_12_1
	.byte	W96
	.byte	PATT	
		.word	song0037_12_1
	.byte	W92
	.byte	W03
	.byte		N92	, Dn3, v127
	.byte	W01
	.byte	W96
	.byte		N44	, En3
	.byte	W44
	.byte	W03
	.byte			Fn3
	.byte	W48
	.byte	W01
	.byte		TIE	, An3
	.byte	W96
	.byte	W96
	.byte	W32
	.byte	W01
	.byte		EOT	
	.byte	W02
	.byte		N10	, Gn3
	.byte	W13
	.byte		N36	, An3
	.byte	W36
	.byte		N11	, Dn4
	.byte	W12
	.byte	W01
	.byte		TIE	, An3
	.byte	W92
	.byte	W03
	.byte	W88
	.byte		EOT	
	.byte	W08
	.byte	W96
song0037_12_2:
	.byte	W12
	.byte		N19	, Dn3, v116
	.byte	W18
	.byte		N16	, Cs3
	.byte	W17
	.byte		N21	, Cn3
	.byte	W19
	.byte		N17	, As2
	.byte	W17
	.byte		N24	, Gn2, v104
	.byte	W13
	.byte	PEND
song0037_12_3:
	.byte	W12
	.byte		N19	, Dn3, v120
	.byte	W18
	.byte		N17	, Cs3, v116
	.byte	W18
	.byte		N19	, Cn3
	.byte	W18
	.byte			As2, v100
	.byte	W18
	.byte		N21	, Gn2, v116
	.byte	W12
	.byte	PEND
	.byte	W96
	.byte	W96
	.byte	PATT	
		.word	song0037_12_2
	.byte	PATT	
		.word	song0037_12_3
	.byte	GOTO	
		.word	song0037_12_4
	.byte	W09
	.byte	FINE

	.align 2
	.global song0037
song0037:	@ 0x08C75C14
	.byte	12		@ trackCount
	.byte	0		@ blockCount
	.byte	0		@ priority
	.byte	128		@ reverb

	.word	voicegroup013		@ voicegroup/tone

	.word	song0037_1		@ track
	.word	song0037_2		@ track
	.word	song0037_3		@ track
	.word	song0037_4		@ track
	.word	song0037_5		@ track
	.word	song0037_6		@ track
	.word	song0037_7		@ track
	.word	song0037_8		@ track
	.word	song0037_9		@ track
	.word	song0037_10		@ track
	.word	song0037_11		@ track
	.word	song0037_12		@ track
