	.include "MPlayDef.s"

	.section .rodata

	@********************** Track  1 **********************@

	.align 2
	.global song0052_1
song0052_1:	@ 0x08C7DA48
	.byte	KEYSH	, 0
	.byte	TEMPO	, 77
	.byte	VOICE	, 45
	.byte	VOL	, v115
	.byte	PAN	, c_v
	.byte	BENDR	, 3
	.byte		N08	, As1, v108
	.byte	W12
	.byte		N07	, As1, v096
	.byte	W12
	.byte		N08	, As1, v092
	.byte	W12
	.byte		N07	
	.byte	W12
	.byte			As1, v084
	.byte	W12
	.byte		N10	, As2
	.byte	W12
	.byte			Fn2, v088
	.byte	W12
	.byte		N09	, As1, v096
	.byte	W12
	.byte	TEMPO	, 78
	.byte		N08	, As1, v108
	.byte	W12
	.byte		N07	, As1, v096
	.byte	W12
	.byte		N08	, As1, v092
	.byte	W12
	.byte		N07	
	.byte	W12
	.byte			As1, v084
	.byte	W12
	.byte		N07	
	.byte	W12
	.byte			As1, v088
	.byte	W12
	.byte		N06	, As1, v080
	.byte	W12
	.byte	TEMPO	, 79
	.byte		N08	, As1, v108
	.byte	W12
	.byte		N07	, As1, v096
	.byte	W12
	.byte		N08	, As1, v092
	.byte	W12
	.byte		N07	
	.byte	W12
	.byte			As1, v084
	.byte	W12
	.byte		N10	, As2
	.byte	W12
	.byte			Fn2, v088
	.byte	W12
	.byte		N09	, As1, v096
	.byte	W12
	.byte	TEMPO	, 81
	.byte		N08	, As1, v108
	.byte	W12
	.byte		N07	, As1, v096
	.byte	W12
	.byte		N08	, As1, v092
	.byte	W12
	.byte		N07	
	.byte	W12
	.byte			As1, v084
	.byte	W12
	.byte		N07	
	.byte	W12
	.byte			As1, v088
	.byte	W12
	.byte		N06	, As1, v080
	.byte	W12
	.byte	TEMPO	, 82
	.byte		N08	, Bn1, v108
	.byte	W12
	.byte		N07	, Bn1, v096
	.byte	W12
	.byte		N08	, Bn1, v092
	.byte	W12
	.byte		N07	
	.byte	W12
	.byte			Bn1, v084
	.byte	W12
	.byte		N08	, Bn2
	.byte	W12
	.byte			Fs2, v088
	.byte	W12
	.byte		N09	, Bn1, v096
	.byte	W12
	.byte	TEMPO	, 84
	.byte		N08	, Bn1, v108
	.byte	W12
	.byte		N07	, Bn1, v096
	.byte	W12
	.byte		N08	, Bn1, v092
	.byte	W12
	.byte		N07	
	.byte	W12
	.byte			Bn1, v084
	.byte	W12
	.byte		N07	
	.byte	W12
	.byte			Bn1, v088
	.byte	W12
	.byte		N06	, Bn1, v080
	.byte	W12
song0052_1_3:
	.byte		N08	, Bn1, v108
	.byte	W12
	.byte		N07	, Bn1, v096
	.byte	W12
	.byte		N08	, Bn1, v092
	.byte	W12
	.byte		N07	
	.byte	W12
	.byte			Bn1, v084
	.byte	W12
	.byte		N08	, Bn2
	.byte	W12
	.byte			Fs2, v088
	.byte	W12
	.byte		N09	, Bn1, v096
	.byte	W12
	.byte	PEND
song0052_1_4:
	.byte		N08	, Bn1, v108
	.byte	W12
	.byte		N07	, Bn1, v096
	.byte	W12
	.byte		N08	, Bn1, v092
	.byte	W12
	.byte		N07	
	.byte	W12
	.byte			Bn1, v084
	.byte	W12
	.byte		N07	
	.byte	W12
	.byte			Bn1, v088
	.byte	W12
	.byte		N06	, Bn1, v080
	.byte	W12
	.byte	PEND
song0052_1_1:
	.byte		N08	, As1, v108
	.byte	W12
	.byte		N07	, As1, v096
	.byte	W12
	.byte		N08	, As1, v092
	.byte	W12
	.byte		N07	
	.byte	W12
	.byte			As1, v084
	.byte	W12
	.byte		N10	, As2
	.byte	W12
	.byte			Fn2, v088
	.byte	W12
	.byte		N09	, As1, v096
	.byte	W12
	.byte	PEND
song0052_1_2:
	.byte		N08	, As1, v108
	.byte	W12
	.byte		N07	, As1, v096
	.byte	W12
	.byte		N08	, As1, v092
	.byte	W12
	.byte		N07	
	.byte	W12
	.byte			As1, v084
	.byte	W12
	.byte		N07	
	.byte	W12
	.byte			As1, v088
	.byte	W12
	.byte		N06	, As1, v080
	.byte	W12
	.byte	PEND
	.byte	PATT	
		.word	song0052_1_1
	.byte	PATT	
		.word	song0052_1_2
	.byte	PATT	
		.word	song0052_1_3
	.byte	PATT	
		.word	song0052_1_4
	.byte	PATT	
		.word	song0052_1_3
	.byte	PATT	
		.word	song0052_1_4
	.byte	GOTO	
		.word	song0052_1_1
	.byte		N06	, Bn1, v080
	.byte	W06
	.byte	FINE

	@********************** Track  2 **********************@

	.global song0052_2
song0052_2:	@ 0x08C7DB93
	.byte	KEYSH	, 0
	.byte	VOICE	, 127
	.byte	VOL	, v090
	.byte	PAN	, c_v
	.byte	BENDR	, 3
	.byte		N05	, Dn1, v048
	.byte		N60	, Cs2, v127
	.byte		N06	, Ds2
	.byte	W06
	.byte		N01	, Dn1, v048
	.byte	W06
	.byte		N12	, En1
	.byte	W12
	.byte		N06	, Dn1
	.byte		N06	, Ds2, v127
	.byte	W06
	.byte			Dn1, v048
	.byte	W06
	.byte		N12	, En1
	.byte	W12
	.byte		N06	, Dn1
	.byte		N06	, Ds2, v127
	.byte	W06
	.byte			Dn1, v048
	.byte	W06
	.byte		N12	, En1
	.byte		N24	, Fn2, v127
	.byte	W12
	.byte		N06	, Dn1, v048
	.byte		N06	, Ds2, v127
	.byte		N24	, Fs2
	.byte	W06
	.byte		N06	, Dn1, v048
	.byte	W06
	.byte		N12	, En1
	.byte		N36	, Cs2, v127
	.byte	W12
song0052_2_1:
	.byte		N06	, Dn1, v048
	.byte		N06	, Ds2, v127
	.byte	W06
	.byte			Dn1, v048
	.byte	W06
	.byte		N12	, En1
	.byte	W12
	.byte		N06	, Dn1
	.byte		N06	, Ds2, v127
	.byte		N06	, Bn2
	.byte	W06
	.byte			Dn1, v048
	.byte		N12	, Bn2, v127
	.byte	W06
	.byte			En1, v048
	.byte	W06
	.byte		N06	, Bn2, v127
	.byte	W06
	.byte			Dn1, v048
	.byte		N06	, Ds2, v127
	.byte		N06	, As2
	.byte	W06
	.byte			Dn1, v048
	.byte		N12	, As2, v127
	.byte	W06
	.byte			En1, v048
	.byte	W06
	.byte		N06	, As2, v127
	.byte	W06
	.byte			Dn1, v048
	.byte		N06	, Ds2, v127
	.byte		N06	, An2
	.byte	W06
	.byte			Dn1, v048
	.byte		N06	, An2, v127
	.byte	W06
	.byte		N12	, En1, v048
	.byte		N06	, Gs2, v127
	.byte	W06
	.byte		N06	
	.byte	W06
	.byte	PEND
song0052_2_2:
	.byte		N06	, Dn1, v048
	.byte		N60	, Cs2, v127
	.byte		N06	, Ds2
	.byte	W06
	.byte			Dn1, v048
	.byte	W06
	.byte		N12	, En1
	.byte	W12
	.byte		N06	, Dn1
	.byte		N06	, Ds2, v127
	.byte	W06
	.byte			Dn1, v048
	.byte	W06
	.byte		N12	, En1
	.byte	W12
	.byte		N06	, Dn1
	.byte		N06	, Ds2, v127
	.byte	W06
	.byte			Dn1, v048
	.byte	W06
	.byte		N12	, En1
	.byte		N24	, Fn2, v127
	.byte	W12
	.byte		N06	, Dn1, v048
	.byte		N06	, Ds2, v127
	.byte		N24	, Fs2
	.byte	W06
	.byte		N06	, Dn1, v048
	.byte	W06
	.byte		N12	, En1
	.byte		N36	, Cs2, v127
	.byte	W12
	.byte	PEND
song0052_2_3:
	.byte		N06	, Dn1, v048
	.byte		N06	, Ds2, v127
	.byte	W06
	.byte			Dn1, v048
	.byte	W06
	.byte		N12	, En1
	.byte	W12
	.byte		N06	, Dn1
	.byte		N06	, Ds2, v127
	.byte	W06
	.byte			Dn1, v048
	.byte	W06
	.byte		N12	, En1
	.byte	W12
	.byte		N06	, Dn1
	.byte		N06	, Ds2, v127
	.byte	W06
	.byte			Dn1, v048
	.byte	W06
	.byte		N12	, En1
	.byte	W12
	.byte		N06	, Dn1
	.byte		N06	, Ds2, v127
	.byte	W06
	.byte			Dn1, v048
	.byte	W06
	.byte		N12	, En1
	.byte	W12
	.byte	PEND
song0052_2_4:
	.byte		N05	, Dn1, v048
	.byte		N60	, Cs2, v127
	.byte		N06	, Ds2
	.byte	W06
	.byte		N01	, Dn1, v048
	.byte	W06
	.byte		N12	, En1
	.byte	W12
	.byte		N06	, Dn1
	.byte		N06	, Ds2, v127
	.byte	W06
	.byte			Dn1, v048
	.byte	W06
	.byte		N12	, En1
	.byte	W12
	.byte		N06	, Dn1
	.byte		N06	, Ds2, v127
	.byte	W06
	.byte			Dn1, v048
	.byte	W06
	.byte		N12	, En1
	.byte		N24	, Fn2, v127
	.byte	W12
	.byte		N06	, Dn1, v048
	.byte		N06	, Ds2, v127
	.byte	W06
	.byte			Dn1, v048
	.byte	W06
	.byte		N12	, En1
	.byte		N36	, Cs2, v127
	.byte	W12
	.byte	PEND
	.byte	PATT	
		.word	song0052_2_1
	.byte	PATT	
		.word	song0052_2_2
	.byte	PATT	
		.word	song0052_2_3
song0052_2_5:
	.byte		N05	, Dn1, v048
	.byte		N60	, Cs2, v127
	.byte		N06	, Ds2
	.byte	W06
	.byte		N01	, Dn1, v048
	.byte	W06
	.byte		N12	, En1
	.byte	W12
	.byte		N06	, Dn1
	.byte		N06	, Ds2, v127
	.byte	W06
	.byte			Dn1, v048
	.byte	W06
	.byte		N12	, En1
	.byte	W12
	.byte		N06	, Dn1
	.byte		N06	, Ds2, v127
	.byte	W06
	.byte			Dn1, v048
	.byte	W06
	.byte		N12	, En1
	.byte		N24	, Fn2, v127
	.byte	W12
	.byte		N06	, Dn1, v048
	.byte		N06	, Ds2, v127
	.byte		N24	, Fs2
	.byte	W06
	.byte		N06	, Dn1, v048
	.byte	W06
	.byte		N12	, En1
	.byte		N36	, Cs2, v127
	.byte	W12
	.byte	PATT	
		.word	song0052_2_1
	.byte	PATT	
		.word	song0052_2_2
	.byte	PATT	
		.word	song0052_2_3
	.byte	PATT	
		.word	song0052_2_4
	.byte	PATT	
		.word	song0052_2_1
	.byte	PATT	
		.word	song0052_2_2
	.byte	PATT	
		.word	song0052_2_3
	.byte	GOTO	
		.word	song0052_2_5
	.byte	FINE

	@********************** Track  3 **********************@

	.global song0052_3
song0052_3:	@ 0x08C7DD4C
	.byte	KEYSH	, 0
	.byte	VOICE	, 80
	.byte	VOL	, v115
	.byte	PAN	, c_v
	.byte	BENDR	, 3
	.byte	LFOS	, 55
	.byte	LFODL	, 0
	.byte	MOD	, 35
	.byte	MODT	, 2
	.byte	PRIO	, 30
	.byte		N84	, Fn3, v116
	.byte	W84
	.byte		TIE	, Ds3
	.byte	W12
	.byte	W96
	.byte		EOT	
	.byte	W96
	.byte	W96
song0052_3_1:
	.byte		N84	, Fs3, v116
	.byte	W84
	.byte		TIE	, En3
	.byte	W12
	.byte	PEND
	.byte	W96
	.byte		EOT	
	.byte	W96
	.byte	W96
song0052_3_2:
	.byte		N84	, Fn3, v116
	.byte	W84
	.byte		TIE	, Ds3
	.byte	W12
	.byte	W96
	.byte		EOT	
	.byte	W96
	.byte	W96
	.byte	PATT	
		.word	song0052_3_1
	.byte	W96
	.byte		EOT	, En3
	.byte	W96
	.byte	W96
	.byte	GOTO	
		.word	song0052_3_2
	.byte	FINE

	@********************** Track  4 **********************@

	.global song0052_4
song0052_4:	@ 0x08C7DD92
	.byte	KEYSH	, 0
	.byte	VOICE	, 12
	.byte	VOL	, v040
	.byte	PAN	, c_v
	.byte	BENDR	, 3
	.byte	LFOS	, 23
	.byte	LFODL	, 22
	.byte	MOD	, 4
	.byte	MODT	, 0
	.byte		N04	, As1, v120
	.byte	W04
	.byte			Cn2, v104
	.byte	W04
	.byte			Dn2, v100
	.byte	W04
	.byte			Fn2
	.byte	W04
	.byte			Gn2, v096
	.byte	W04
	.byte			As2, v092
	.byte	W04
	.byte			Cn3
	.byte	W04
	.byte			Dn3, v104
	.byte	W04
	.byte			Fn3, v096
	.byte	W04
	.byte			Gn3, v104
	.byte	W04
	.byte			As3
	.byte	W04
	.byte			Cn4, v096
	.byte	W04
	.byte			Dn4
	.byte	W04
	.byte			Fn4, v100
	.byte	W04
	.byte			Gn4, v104
	.byte	W04
	.byte			As4, v096
	.byte	W04
	.byte			Cn5, v092
	.byte	W04
	.byte			Dn5, v096
	.byte	W04
	.byte			Fn5, v092
	.byte	W04
	.byte			Gn5, v104
	.byte	W04
	.byte			As5, v116
	.byte	W04
	.byte			Gs5, v100
	.byte	W04
	.byte			Cn6, v096
	.byte	W04
	.byte			As5, v104
	.byte	W04
song0052_4_1:
	.byte		N04	, Gs5, v100
	.byte	W04
	.byte			Fn5, v096
	.byte	W04
	.byte			Ds5, v104
	.byte	W04
	.byte			Cn5, v092
	.byte	W04
	.byte			As4, v084
	.byte	W04
	.byte			Gs4, v112
	.byte	W04
	.byte			Fn4, v092
	.byte	W04
	.byte			Ds4, v096
	.byte	W04
	.byte			Cn4, v092
	.byte	W04
	.byte			As3, v104
	.byte	W04
	.byte			Gs3, v100
	.byte	W04
	.byte			Fn3, v104
	.byte	W04
	.byte			Ds3
	.byte	W04
	.byte			Cn3, v092
	.byte	W04
	.byte			As2, v108
	.byte	W04
	.byte			Gs2
	.byte	W04
	.byte			Fn2, v092
	.byte	W04
	.byte			Ds2, v108
	.byte	W04
	.byte			Cn2, v104
	.byte	W04
	.byte			As1, v120
	.byte	W04
	.byte			Gs1, v108
	.byte	W04
	.byte			As1
	.byte	W04
	.byte			Cn2, v096
	.byte	W04
	.byte			As1, v116
	.byte	W04
	.byte	PEND
song0052_4_2:
	.byte		N04	, Gn1, v108
	.byte	W04
	.byte			As1, v104
	.byte	W04
	.byte			Cn2, v088
	.byte	W04
	.byte			Ds2, v096
	.byte	W04
	.byte			Fn2
	.byte	W04
	.byte			Gn2
	.byte	W04
	.byte			As2, v104
	.byte	W04
	.byte			Cn3, v096
	.byte	W04
	.byte			Ds3, v100
	.byte	W04
	.byte			Fn3, v084
	.byte	W04
	.byte			Gn3, v100
	.byte	W04
	.byte			As3, v112
	.byte	W04
	.byte			Cn4, v096
	.byte	W04
	.byte			Ds4, v108
	.byte	W04
	.byte			Fn4, v096
	.byte	W04
	.byte			Gn4
	.byte	W04
	.byte			As4, v100
	.byte	W04
	.byte			Cn5, v096
	.byte	W04
	.byte			Ds5, v104
	.byte	W04
	.byte			Fn5, v084
	.byte	W04
	.byte			Gn5, v096
	.byte	W04
	.byte			Gs5, v116
	.byte	W04
	.byte			As5, v104
	.byte	W04
	.byte			Gs5, v096
	.byte	W04
	.byte	PEND
song0052_4_3:
	.byte		N04	, Fn5, v088
	.byte	W04
	.byte			Dn5, v096
	.byte	W04
	.byte			Cn5
	.byte	W04
	.byte			As4, v100
	.byte	W04
	.byte			Gs4, v116
	.byte	W04
	.byte			Fn4, v096
	.byte	W04
	.byte			Dn4
	.byte	W04
	.byte			Cn4, v088
	.byte	W04
	.byte			As3, v108
	.byte	W04
	.byte			Gs3
	.byte	W04
	.byte			Fn3, v096
	.byte	W04
	.byte			Dn3, v092
	.byte	W04
	.byte			Cn3, v084
	.byte	W04
	.byte			As2, v092
	.byte	W04
	.byte			Gs2, v096
	.byte	W04
	.byte			Fn2, v084
	.byte	W04
	.byte			Dn2, v096
	.byte	W04
	.byte			Cn2
	.byte	W04
	.byte			As1, v104
	.byte	W04
	.byte			Gs1, v108
	.byte	W04
	.byte			Fn1, v096
	.byte	W04
	.byte			Dn1, v104
	.byte	W04
	.byte			As0, v116
	.byte	W08
	.byte	PEND
song0052_4_4:
	.byte		N04	, Bn1, v120
	.byte	W04
	.byte			Cs2, v104
	.byte	W04
	.byte			Ds2, v100
	.byte	W04
	.byte			Fs2
	.byte	W04
	.byte			Gs2, v096
	.byte	W04
	.byte			Bn2, v092
	.byte	W04
	.byte			Cs3
	.byte	W04
	.byte			Ds3, v104
	.byte	W04
	.byte			Fs3, v096
	.byte	W04
	.byte			Gs3, v104
	.byte	W04
	.byte			Bn3
	.byte	W04
	.byte			Cs4, v096
	.byte	W04
	.byte			Ds4
	.byte	W04
	.byte			Fs4, v100
	.byte	W04
	.byte			Gs4, v104
	.byte	W04
	.byte			Bn4, v096
	.byte	W04
	.byte			Cs5, v092
	.byte	W04
	.byte			Ds5, v096
	.byte	W04
	.byte			Fs5, v092
	.byte	W04
	.byte			Gs5, v104
	.byte	W04
	.byte			Bn5, v116
	.byte	W04
	.byte			An5, v100
	.byte	W04
	.byte			Cs6, v096
	.byte	W04
	.byte			Bn5, v104
	.byte	W04
	.byte	PEND
song0052_4_5:
	.byte		N04	, An5, v100
	.byte	W04
	.byte			Fs5, v096
	.byte	W04
	.byte			En5, v104
	.byte	W04
	.byte			Cs5, v092
	.byte	W04
	.byte			Bn4, v084
	.byte	W04
	.byte			An4, v112
	.byte	W04
	.byte			Fs4, v092
	.byte	W04
	.byte			En4, v096
	.byte	W04
	.byte			Cs4, v092
	.byte	W04
	.byte			Bn3, v104
	.byte	W04
	.byte			An3, v100
	.byte	W04
	.byte			Fs3, v104
	.byte	W04
	.byte			En3
	.byte	W04
	.byte			Cs3, v092
	.byte	W04
	.byte			Bn2, v108
	.byte	W04
	.byte			An2
	.byte	W04
	.byte			Fs2, v092
	.byte	W04
	.byte			En2, v108
	.byte	W04
	.byte			Cs2, v104
	.byte	W04
	.byte			Bn1, v120
	.byte	W04
	.byte			An1, v108
	.byte	W04
	.byte			Bn1
	.byte	W04
	.byte			Cs2, v096
	.byte	W04
	.byte			Bn1, v116
	.byte	W04
	.byte	PEND
song0052_4_6:
	.byte		N04	, Gs1, v108
	.byte	W04
	.byte			Bn1, v104
	.byte	W04
	.byte			Cs2, v088
	.byte	W04
	.byte			En2, v096
	.byte	W04
	.byte			Fs2
	.byte	W04
	.byte			Gs2
	.byte	W04
	.byte			Bn2, v104
	.byte	W04
	.byte			Cs3, v096
	.byte	W04
	.byte			En3, v100
	.byte	W04
	.byte			Fs3, v084
	.byte	W04
	.byte			Gs3, v100
	.byte	W04
	.byte			Bn3, v112
	.byte	W04
	.byte			Cs4, v096
	.byte	W04
	.byte			En4, v108
	.byte	W04
	.byte			Fs4, v096
	.byte	W04
	.byte			Gs4
	.byte	W04
	.byte			Bn4, v100
	.byte	W04
	.byte			Cs5, v096
	.byte	W04
	.byte			En5, v104
	.byte	W04
	.byte			Fs5, v084
	.byte	W04
	.byte			Gs5, v096
	.byte	W04
	.byte			An5, v116
	.byte	W04
	.byte			Bn5, v104
	.byte	W04
	.byte			An5, v096
	.byte	W04
	.byte	PEND
song0052_4_7:
	.byte		N04	, Fs5, v088
	.byte	W04
	.byte			Ds5, v096
	.byte	W04
	.byte			Cs5
	.byte	W04
	.byte			Bn4, v100
	.byte	W04
	.byte			An4, v116
	.byte	W04
	.byte			Fs4, v096
	.byte	W04
	.byte			Ds4
	.byte	W04
	.byte			Cs4, v088
	.byte	W04
	.byte			Bn3, v108
	.byte	W04
	.byte			An3
	.byte	W04
	.byte			Fs3, v096
	.byte	W04
	.byte			Ds3, v092
	.byte	W04
	.byte			Cs3, v084
	.byte	W04
	.byte			Bn2, v092
	.byte	W04
	.byte			An2, v096
	.byte	W04
	.byte			Fs2, v084
	.byte	W04
	.byte			Ds2, v096
	.byte	W04
	.byte			Cs2
	.byte	W04
	.byte			Bn1, v104
	.byte	W04
	.byte			An1, v108
	.byte	W04
	.byte			Fs1, v096
	.byte	W04
	.byte			Ds1, v104
	.byte	W04
	.byte			Bn0, v116
	.byte	W08
	.byte	PEND
song0052_4_8:
	.byte		N04	, As1, v120
	.byte	W04
	.byte			Cn2, v104
	.byte	W04
	.byte			Dn2, v100
	.byte	W04
	.byte			Fn2
	.byte	W04
	.byte			Gn2, v096
	.byte	W04
	.byte			As2, v092
	.byte	W04
	.byte			Cn3
	.byte	W04
	.byte			Dn3, v104
	.byte	W04
	.byte			Fn3, v096
	.byte	W04
	.byte			Gn3, v104
	.byte	W04
	.byte			As3
	.byte	W04
	.byte			Cn4, v096
	.byte	W04
	.byte			Dn4
	.byte	W04
	.byte			Fn4, v100
	.byte	W04
	.byte			Gn4, v104
	.byte	W04
	.byte			As4, v096
	.byte	W04
	.byte			Cn5, v092
	.byte	W04
	.byte			Dn5, v096
	.byte	W04
	.byte			Fn5, v092
	.byte	W04
	.byte			Gn5, v104
	.byte	W04
	.byte			As5, v116
	.byte	W04
	.byte			Gs5, v100
	.byte	W04
	.byte			Cn6, v096
	.byte	W04
	.byte			As5, v104
	.byte	W04
	.byte	PATT	
		.word	song0052_4_1
	.byte	PATT	
		.word	song0052_4_2
	.byte	PATT	
		.word	song0052_4_3
	.byte	PATT	
		.word	song0052_4_4
	.byte	PATT	
		.word	song0052_4_5
	.byte	PATT	
		.word	song0052_4_6
	.byte	PATT	
		.word	song0052_4_7
	.byte	GOTO	
		.word	song0052_4_8
	.byte	FINE

	@********************** Track  5 **********************@

	.global song0052_5
song0052_5:	@ 0x08C7E03F
	.byte	KEYSH	, 0
	.byte	VOICE	, 87
	.byte	VOL	, v072
	.byte	PAN	, c_v
	.byte	BENDR	, 3
	.byte	LFOS	, 55
	.byte	LFODL	, 0
	.byte	MOD	, 35
	.byte	MODT	, 2
	.byte	PRIO	, 30
	.byte	W96
	.byte	W96
song0052_5_1:
	.byte		N80	, Dn3, v080
	.byte		N80	, Fn3, v100
	.byte		N80	, As3
	.byte	W84
	.byte		TIE	, Cn3
	.byte		TIE	, Gs3, v116
	.byte	W12
	.byte	PEND
	.byte	W84
	.byte	W03
	.byte		EOT	, Cn3
	.byte			Gs3
	.byte	W09
	.byte	W96
	.byte	W96
song0052_5_2:
	.byte		N80	, Ds3, v080
	.byte		N80	, Fs3, v100
	.byte		N80	, Bn3
	.byte	W84
	.byte		N56	, Cs3
	.byte		TIE	, An3, v116
	.byte	W12
	.byte	PEND
song0052_5_3:
	.byte	W44
	.byte	W02
	.byte		N04	, Cn3, v024
	.byte	W04
	.byte		N03	, As2, v048
	.byte	W02
	.byte		N02	, Gs2, v080
	.byte	W02
	.byte			Fs2, v064
	.byte	W03
	.byte			Fn2
	.byte	W02
	.byte			Ds2, v072
	.byte	W02
	.byte			Cs2, v092
	.byte	W02
	.byte			Cn2, v100
	.byte	W02
	.byte		N01	, As1, v108
	.byte	W01
	.byte			Gs1, v100
	.byte	W03
	.byte			Fs1, v044
	.byte	W02
	.byte		N08	, Fn1, v028
	.byte	W07
	.byte		N02	, Fs1, v084
	.byte	W02
	.byte			Gs1, v092
	.byte	W02
	.byte			As1, v084
	.byte	W02
	.byte			Cn2, v092
	.byte	W01
	.byte			Cs2
	.byte	W02
	.byte			Ds2, v064
	.byte	W01
	.byte			Fn2, v048
	.byte	W02
	.byte			Fs2, v080
	.byte	W02
	.byte		N01	, Gs2, v072
	.byte	W01
	.byte	PEND
	.byte		EOT	, An3
	.byte		N02	, As2, v064
	.byte	W01
	.byte		N01	, Cn3, v056
	.byte	W02
song0052_5_4:
	.byte	W96
	.byte	W96
	.byte	PATT	
		.word	song0052_5_1
	.byte	W84
	.byte	W03
	.byte		EOT	, Cn3
	.byte			Gs3
	.byte	W09
	.byte	W96
	.byte	W96
	.byte	PATT	
		.word	song0052_5_2
	.byte	PATT	
		.word	song0052_5_3
	.byte		EOT	, An3
	.byte		N02	, As2, v064
	.byte	W01
	.byte		N01	, Cn3, v056
	.byte	W02
	.byte	GOTO	
		.word	song0052_5_4
	.byte	FINE

	.align 2
	.global song0052
song0052:	@ 0x08C7E0F8
	.byte	5		@ trackCount
	.byte	0		@ blockCount
	.byte	0		@ priority
	.byte	128		@ reverb

	.word	voicegroup007		@ voicegroup/tone

	.word	song0052_1		@ track
	.word	song0052_2		@ track
	.word	song0052_3		@ track
	.word	song0052_4		@ track
	.word	song0052_5		@ track
