	.include "MPlayDef.s"

	.section .rodata

	@********************** Track  1 **********************@

	.align 2
	.global song0013_1
song0013_1:	@ 0x08C56EA8
	.byte	KEYSH	, 0
	.byte	TEMPO	, 77
	.byte	VOICE	, 45
	.byte	VOL	, v094
	.byte	PAN	, c_v
	.byte	W03
song0013_1_1:
	.byte		N05	, An1, v120
	.byte	W06
	.byte			An2
	.byte	W06
	.byte			En2
	.byte	W06
	.byte			An1
	.byte	W06
	.byte		N05	
	.byte	W06
	.byte			An2
	.byte	W06
	.byte			En2
	.byte	W06
	.byte			An1
	.byte	W06
	.byte		N05	
	.byte	W06
	.byte			An2
	.byte	W06
	.byte			En2
	.byte	W06
	.byte			An1
	.byte	W06
	.byte		N05	
	.byte	W06
	.byte			An2
	.byte	W06
	.byte			En2
	.byte	W06
	.byte			An1
	.byte	W06
	.byte	PEND
	.byte		N05	
	.byte	W06
	.byte			An2
	.byte	W06
	.byte			En2
	.byte	W06
	.byte			An1
	.byte	W12
	.byte			Ds2
	.byte	W12
	.byte			Dn2
	.byte	W18
	.byte		N09	, Ds2
	.byte	W12
	.byte		N05	, An1
	.byte	W06
	.byte			An2
	.byte	W06
	.byte			En2
	.byte	W06
	.byte			An1
	.byte	W06
	.byte	PATT	
		.word	song0013_1_1
	.byte		N18	, En2, v100
	.byte	W18
	.byte			Bn1
	.byte	W18
	.byte		N24	, Dn2
	.byte	W24
	.byte		N12	, Cs2
	.byte	W12
	.byte		N05	, An1, v120
	.byte	W06
	.byte			An2
	.byte	W06
	.byte			En2
	.byte	W06
	.byte			An1
	.byte	W06
	.byte	PATT	
		.word	song0013_1_1
	.byte		N05	, An1, v120
	.byte	W06
	.byte			An2
	.byte	W06
	.byte			En2
	.byte	W06
	.byte			An1
	.byte	W06
	.byte			An2
	.byte	W06
	.byte			En2
	.byte	W06
	.byte			Ds2
	.byte	W06
	.byte			En2
	.byte	W18
	.byte		N09	, Ds2
	.byte	W12
	.byte		N05	, An1
	.byte	W06
	.byte			An2
	.byte	W06
	.byte			En2
	.byte	W06
	.byte			An1
	.byte	W06
	.byte	PATT	
		.word	song0013_1_1
	.byte		N18	, En2, v100
	.byte	W18
	.byte			Bn1
	.byte	W18
	.byte		N24	, En2
	.byte	W24
	.byte		N12	
	.byte	W12
	.byte		N05	, En2, v120
	.byte	W06
	.byte			En3
	.byte	W06
	.byte			Bn2
	.byte	W06
	.byte			En2
	.byte	W06
	.byte	W96
	.byte	PATT	
		.word	song0013_1_1
	.byte	PATT	
		.word	song0013_1_1
	.byte	PATT	
		.word	song0013_1_1
	.byte	PATT	
		.word	song0013_1_1
	.byte	PATT	
		.word	song0013_1_1
	.byte	PATT	
		.word	song0013_1_1
song0013_1_2:
	.byte		N05	, En1, v120
	.byte	W06
	.byte			En2
	.byte	W06
	.byte			Bn1
	.byte	W06
	.byte			En1
	.byte	W06
	.byte		N05	
	.byte	W06
	.byte			En2
	.byte	W06
	.byte			Bn1
	.byte	W06
	.byte			En1
	.byte	W06
	.byte		N05	
	.byte	W06
	.byte			En2
	.byte	W06
	.byte			Bn1
	.byte	W06
	.byte			En1
	.byte	W06
	.byte		N05	
	.byte	W06
	.byte			En2
	.byte	W06
	.byte			Bn1
	.byte	W06
	.byte			En1
	.byte	W06
	.byte	PEND
	.byte	PATT	
		.word	song0013_1_2
	.byte	PATT	
		.word	song0013_1_1
	.byte	PATT	
		.word	song0013_1_1
	.byte	PATT	
		.word	song0013_1_1
	.byte	PATT	
		.word	song0013_1_1
	.byte	PATT	
		.word	song0013_1_1
	.byte	PATT	
		.word	song0013_1_1
	.byte	PATT	
		.word	song0013_1_2
	.byte	PATT	
		.word	song0013_1_2
song0013_1_3:
	.byte		N05	, Dn2, v120
	.byte	W06
	.byte			Dn3
	.byte	W06
	.byte			An2
	.byte	W06
	.byte			Dn2
	.byte	W06
	.byte		N05	
	.byte	W06
	.byte			Dn3
	.byte	W06
	.byte			An2
	.byte	W06
	.byte			Dn2
	.byte	W06
	.byte		N05	
	.byte	W06
	.byte			Dn3
	.byte	W06
	.byte			An2
	.byte	W06
	.byte			Dn2
	.byte	W06
	.byte		N05	
	.byte	W06
	.byte			Dn3
	.byte	W06
	.byte			An2
	.byte	W06
	.byte			Dn2
	.byte	W06
	.byte	PEND
	.byte			Cs2
	.byte	W06
	.byte			Cs3
	.byte	W06
	.byte			An2
	.byte	W06
	.byte			Cs2
	.byte	W06
	.byte		N05	
	.byte	W06
	.byte			Cs3
	.byte	W06
	.byte			An2
	.byte	W06
	.byte			Cs2
	.byte	W06
	.byte		N05	
	.byte	W06
	.byte			Cs3
	.byte	W06
	.byte			An2
	.byte	W06
	.byte			Cs2
	.byte	W06
	.byte		N05	
	.byte	W06
	.byte			Cs3
	.byte	W06
	.byte			An2
	.byte	W06
	.byte			Cs2
	.byte	W06
	.byte			Cn2
	.byte	W06
	.byte			Cn3
	.byte	W06
	.byte			An2
	.byte	W06
	.byte			Cn2
	.byte	W06
	.byte		N05	
	.byte	W06
	.byte			Cn3
	.byte	W06
	.byte			An2
	.byte	W06
	.byte			Cn2
	.byte	W06
	.byte		N05	
	.byte	W06
	.byte			Cn3
	.byte	W06
	.byte			An2
	.byte	W06
	.byte			Cn2
	.byte	W06
	.byte		N05	
	.byte	W06
	.byte			Cn3
	.byte	W06
	.byte			An2
	.byte	W06
	.byte			Cn2
	.byte	W06
	.byte			Bn1
	.byte	W06
	.byte			Bn2
	.byte	W06
	.byte			Gn2
	.byte	W06
	.byte			Bn1
	.byte	W06
	.byte		N05	
	.byte	W06
	.byte			Bn2
	.byte	W06
	.byte			Gn2
	.byte	W06
	.byte			Bn1
	.byte	W06
	.byte		N05	
	.byte	W06
	.byte			Bn2
	.byte	W06
	.byte			Gn2
	.byte	W06
	.byte			Bn1
	.byte	W06
	.byte		N05	
	.byte	W06
	.byte			Bn2
	.byte	W06
	.byte			Gn2
	.byte	W06
	.byte			Bn1
	.byte	W06
	.byte			As1
	.byte	W06
	.byte			As2
	.byte	W06
	.byte			Fn2
	.byte	W06
	.byte			As1
	.byte	W06
	.byte		N05	
	.byte	W06
	.byte			As2
	.byte	W06
	.byte			Fn2
	.byte	W06
	.byte			As1
	.byte	W06
	.byte		N05	
	.byte	W06
	.byte			As2
	.byte	W06
	.byte			Fn2
	.byte	W06
	.byte			As1
	.byte	W06
	.byte		N05	
	.byte	W06
	.byte			As2
	.byte	W06
	.byte			Fn2
	.byte	W06
	.byte			As1
	.byte	W06
song0013_1_4:
	.byte		N05	, Cn2, v120
	.byte	W06
	.byte			Cn3
	.byte	W06
	.byte			Gn2
	.byte	W06
	.byte			Cn2
	.byte	W06
	.byte		N05	
	.byte	W06
	.byte			Cn3
	.byte	W06
	.byte			Gn2
	.byte	W06
	.byte			Cn2
	.byte	W06
	.byte		N05	
	.byte	W06
	.byte			Cn3
	.byte	W06
	.byte			Gn2
	.byte	W06
	.byte			Cn2
	.byte	W06
	.byte		N05	
	.byte	W06
	.byte			Cn3
	.byte	W06
	.byte			Gn2
	.byte	W06
	.byte			Cn2
	.byte	W06
	.byte	PEND
	.byte	PATT	
		.word	song0013_1_3
	.byte	PATT	
		.word	song0013_1_4
song0013_1_5:
	.byte		N05	, Bn1, v120
	.byte	W06
	.byte			Bn2
	.byte	W06
	.byte			Fs2
	.byte	W06
	.byte			Bn1
	.byte	W06
	.byte		N05	
	.byte	W06
	.byte			Bn2
	.byte	W06
	.byte			Fs2
	.byte	W06
	.byte			Bn1
	.byte	W06
	.byte		N05	
	.byte	W06
	.byte			Bn2
	.byte	W06
	.byte			Fs2
	.byte	W06
	.byte			Bn1
	.byte	W06
	.byte		N05	
	.byte	W06
	.byte			Bn2
	.byte	W06
	.byte			Fs2
	.byte	W06
	.byte			Bn1
	.byte	W06
	.byte	PEND
	.byte			As1
	.byte	W06
	.byte			As2
	.byte	W06
	.byte			Fn2
	.byte	W06
	.byte			As1
	.byte	W06
	.byte		N05	
	.byte	W06
	.byte			As2
	.byte	W06
	.byte			Fn2
	.byte	W06
	.byte			As1
	.byte	W06
	.byte		N05	
	.byte	W06
	.byte			As2
	.byte	W06
	.byte			Fn2
	.byte	W06
	.byte			As1
	.byte	W06
	.byte			Cn2
	.byte	W06
	.byte			Cn3
	.byte	W06
	.byte			Gn2
	.byte	W06
	.byte			Cn2
	.byte	W06
	.byte	PATT	
		.word	song0013_1_3
	.byte	PATT	
		.word	song0013_1_4
	.byte	PATT	
		.word	song0013_1_5
	.byte	PATT	
		.word	song0013_1_1
	.byte	PATT	
		.word	song0013_1_1
	.byte	PATT	
		.word	song0013_1_1
	.byte	PATT	
		.word	song0013_1_1
	.byte	PATT	
		.word	song0013_1_1
	.byte	PATT	
		.word	song0013_1_1
	.byte	GOTO	
		.word	song0013_1_1
	.byte	W96
	.byte	FINE

	@********************** Track  2 **********************@

	.global song0013_2
song0013_2:	@ 0x08C570FC
	.byte	KEYSH	, 0
	.byte	VOICE	, 127
	.byte	VOL	, v094
	.byte	W03
song0013_2_1:
	.byte		N24	, Ds2, v120
	.byte	W24
	.byte		N24	
	.byte	W24
	.byte		N24	
	.byte	W24
	.byte		N24	
	.byte	W24
	.byte	PEND
song0013_2_2:
	.byte		N24	, Ds2, v120
	.byte	W24
	.byte		N24	
	.byte	W24
	.byte		N18	
	.byte	W18
	.byte		N06	, Ds2, v112
	.byte	W06
	.byte		N12	, Ds2, v120
	.byte	W12
	.byte		N12	
	.byte	W12
	.byte	PEND
	.byte	PATT	
		.word	song0013_2_1
	.byte		N24	, Ds2, v120
	.byte	W24
	.byte		N24	
	.byte	W24
	.byte		N18	
	.byte	W18
	.byte		N06	, Ds2, v112
	.byte	W06
	.byte			En2, v120
	.byte	W06
	.byte		N06	
	.byte	W06
	.byte			Gs1
	.byte	W06
	.byte		N06	
	.byte	W06
	.byte	PATT	
		.word	song0013_2_1
	.byte	PATT	
		.word	song0013_2_2
	.byte	PATT	
		.word	song0013_2_1
	.byte		N24	, Ds2, v120
	.byte	W24
	.byte		N24	
	.byte	W24
	.byte		N18	
	.byte	W18
	.byte		N06	, Ds2, v112
	.byte	W06
	.byte			An1, v120
	.byte	W06
	.byte			Gs1
	.byte	W06
	.byte			Gn1
	.byte	W06
	.byte			Fs1
	.byte	W06
song0013_2_6:
	.byte		N06	, En2, v120
	.byte	W06
	.byte		N06	
	.byte	W06
	.byte			Gs1
	.byte	W06
	.byte		N06	
	.byte	W06
	.byte			Gn1
	.byte	W06
	.byte			Fs1
	.byte	W06
	.byte			En2
	.byte	W06
	.byte		N06	
	.byte	W06
	.byte			Gs1
	.byte	W06
	.byte		N06	
	.byte	W06
	.byte			Gn1
	.byte	W06
	.byte			Fs1
	.byte	W06
	.byte		N12	, En2
	.byte	W12
	.byte		N06	
	.byte	W06
	.byte		N06	
	.byte	W06
	.byte	PEND
	.byte	PATT	
		.word	song0013_2_1
	.byte	PATT	
		.word	song0013_2_2
	.byte	PATT	
		.word	song0013_2_1
	.byte	PATT	
		.word	song0013_2_1
	.byte	PATT	
		.word	song0013_2_1
	.byte	PATT	
		.word	song0013_2_2
	.byte	PATT	
		.word	song0013_2_1
	.byte		N24	, Ds2, v120
	.byte	W24
	.byte		N24	
	.byte	W24
	.byte		N06	, En2
	.byte	W06
	.byte		N06	
	.byte	W06
	.byte		N06	
	.byte	W06
	.byte			Ds2, v112
	.byte	W06
	.byte			En2, v120
	.byte	W06
	.byte		N06	
	.byte	W06
	.byte			Gs1
	.byte	W06
	.byte			Fs1
	.byte	W06
song0013_2_3:
	.byte		N24	, Ds2, v120
	.byte	W24
	.byte			En2
	.byte	W24
	.byte			Ds2
	.byte	W24
	.byte			En2
	.byte	W24
	.byte	PEND
song0013_2_4:
	.byte		N24	, Ds2, v120
	.byte	W24
	.byte			En2
	.byte	W24
	.byte		N18	, Ds2
	.byte	W18
	.byte		N06	, Ds2, v112
	.byte	W06
	.byte		N12	, En2, v120
	.byte	W12
	.byte			Ds2
	.byte	W12
	.byte	PEND
	.byte	PATT	
		.word	song0013_2_3
	.byte		N24	, Ds2, v120
	.byte	W24
	.byte			En2
	.byte	W24
	.byte		N18	, Ds2
	.byte	W18
	.byte		N06	, Ds2, v112
	.byte	W06
	.byte		N12	, En2, v120
	.byte	W12
	.byte		N06	, Gs1
	.byte	W06
	.byte			Fs1
	.byte	W06
	.byte	PATT	
		.word	song0013_2_3
	.byte	PATT	
		.word	song0013_2_4
	.byte		N24	, Ds2, v120
	.byte	W24
	.byte			En2
	.byte	W24
	.byte		N18	, Ds2
	.byte	W18
	.byte		N06	, Ds2, v112
	.byte	W06
	.byte			An1, v120
	.byte	W06
	.byte		N06	
	.byte	W06
	.byte			Gn1
	.byte	W06
	.byte			Fs1
	.byte	W06
	.byte			Ds2
	.byte	W06
	.byte			En2
	.byte	W06
	.byte		N06	
	.byte	W06
	.byte			Ds2, v112
	.byte	W06
	.byte			En2, v120
	.byte	W06
	.byte		N06	
	.byte	W06
	.byte		N06	
	.byte	W06
	.byte		N06	
	.byte	W12
	.byte			An1
	.byte	W06
	.byte		N06	
	.byte	W06
	.byte			Gs1, v112
	.byte	W06
	.byte			En2, v120
	.byte	W06
	.byte		N06	
	.byte	W06
	.byte			Gn1
	.byte	W06
	.byte			Fs1
	.byte	W06
song0013_2_5:
	.byte		N24	, Ds2, v120
	.byte	W24
	.byte		N24	
	.byte	W24
	.byte		N24	
	.byte	W24
	.byte		N12	
	.byte	W12
	.byte			En2
	.byte	W12
	.byte	PEND
	.byte	PATT	
		.word	song0013_2_2
	.byte	PATT	
		.word	song0013_2_1
	.byte		N24	, Ds2, v120
	.byte	W24
	.byte		N24	
	.byte	W24
	.byte		N18	
	.byte	W18
	.byte		N06	, En2, v112
	.byte	W06
	.byte		N12	, Ds2, v120
	.byte	W12
	.byte		N12	
	.byte	W12
	.byte	PATT	
		.word	song0013_2_5
	.byte	PATT	
		.word	song0013_2_2
	.byte	PATT	
		.word	song0013_2_1
	.byte	PATT	
		.word	song0013_2_2
	.byte	PATT	
		.word	song0013_2_1
	.byte		N24	, Ds2, v120
	.byte	W24
	.byte		N24	
	.byte	W24
	.byte		N06	, En2
	.byte	W06
	.byte		N06	
	.byte	W06
	.byte		N06	
	.byte	W06
	.byte			Ds2, v112
	.byte	W06
	.byte			An1, v120
	.byte	W06
	.byte		N06	
	.byte	W06
	.byte			Gn1
	.byte	W06
	.byte			Fs1
	.byte	W06
	.byte	PATT	
		.word	song0013_2_3
	.byte	PATT	
		.word	song0013_2_4
	.byte	PATT	
		.word	song0013_2_3
	.byte	PATT	
		.word	song0013_2_4
	.byte	PATT	
		.word	song0013_2_6
	.byte	PATT	
		.word	song0013_2_1
	.byte	PATT	
		.word	song0013_2_2
	.byte	PATT	
		.word	song0013_2_1
	.byte	PATT	
		.word	song0013_2_2
	.byte	GOTO	
		.word	song0013_2_1
	.byte	W96
	.byte	FINE

	@********************** Track  3 **********************@

	.global song0013_3
song0013_3:	@ 0x08C572C8
	.byte	KEYSH	, 0
	.byte	VOICE	, 127
	.byte	VOL	, v094
	.byte	W03
song0013_3_9:
	.byte		N11	, Ds1, v072
	.byte	W12
	.byte		N06	, Dn1, v060
	.byte	W06
	.byte			Dn1, v052
	.byte	W06
	.byte		N12	, Ds1, v072
	.byte	W12
	.byte		N06	, Dn1, v060
	.byte	W06
	.byte			Dn1, v052
	.byte	W06
	.byte		N12	, Ds1, v072
	.byte	W12
	.byte		N06	, Dn1, v060
	.byte	W06
	.byte			Dn1, v052
	.byte	W06
	.byte		N12	, Ds1, v072
	.byte	W12
	.byte		N06	, Dn1, v060
	.byte	W06
	.byte			Dn1, v052
	.byte	W06
song0013_3_1:
	.byte		N12	, Ds1, v072
	.byte	W12
	.byte		N06	, Dn1, v060
	.byte	W06
	.byte			Dn1, v052
	.byte	W06
	.byte		N12	, Ds1, v072
	.byte	W12
	.byte		N06	, Dn1, v060
	.byte	W06
	.byte			Dn1, v052
	.byte	W06
	.byte		N12	, Ds1, v072
	.byte	W12
	.byte		N06	, Dn1, v060
	.byte	W06
	.byte			Dn1, v052
	.byte	W06
	.byte		N12	, Ds1, v072
	.byte	W12
	.byte		N06	, Dn1, v060
	.byte	W06
	.byte			Dn1, v052
	.byte	W06
	.byte	PEND
	.byte	PATT	
		.word	song0013_3_1
song0013_3_2:
	.byte		N12	, Ds1, v072
	.byte	W12
	.byte		N06	, Dn1, v060
	.byte	W06
	.byte			Dn1, v052
	.byte	W06
	.byte		N12	, Ds1, v072
	.byte	W12
	.byte		N06	, Dn1, v060
	.byte	W06
	.byte			Dn1, v052
	.byte	W06
	.byte		N12	, Ds1, v072
	.byte	W12
	.byte		N06	, Dn1, v060
	.byte	W06
	.byte			En1, v052
	.byte	W30
	.byte	PEND
song0013_3_6:
	.byte		N24	, Cs2, v120
	.byte	W12
	.byte		N06	, Dn1, v060
	.byte	W06
	.byte			Dn1, v052
	.byte	W06
	.byte		N12	, Ds1, v072
	.byte	W12
	.byte		N06	, Dn1, v060
	.byte	W06
	.byte			Dn1, v052
	.byte	W06
	.byte		N12	, Ds1, v072
	.byte	W12
	.byte		N06	, Dn1, v060
	.byte	W06
	.byte			Dn1, v052
	.byte	W06
	.byte		N12	, Ds1, v072
	.byte	W12
	.byte		N06	, Dn1, v060
	.byte	W06
	.byte			Dn1, v052
	.byte	W06
	.byte	PEND
	.byte	PATT	
		.word	song0013_3_1
	.byte	PATT	
		.word	song0013_3_1
	.byte	PATT	
		.word	song0013_3_2
	.byte		N24	, Cs2, v120
	.byte	W96
	.byte		N36	
	.byte	W12
	.byte		N06	, Dn1, v060
	.byte	W06
	.byte			Dn1, v052
	.byte	W06
	.byte			Dn1, v072
	.byte	W06
	.byte			Dn1, v052
	.byte	W06
	.byte			Dn1, v060
	.byte	W06
	.byte			Dn1, v052
	.byte	W06
	.byte			Dn1, v072
	.byte	W06
	.byte			Dn1, v052
	.byte	W06
	.byte			Dn1, v060
	.byte	W06
	.byte			Dn1, v052
	.byte	W06
	.byte			Dn1, v072
	.byte	W06
	.byte			Dn1, v052
	.byte	W06
	.byte			Dn1, v060
	.byte	W06
	.byte			Dn1, v052
	.byte	W06
song0013_3_3:
	.byte		N06	, Dn1, v072
	.byte	W06
	.byte			Dn1, v052
	.byte	W06
	.byte			Dn1, v060
	.byte	W06
	.byte			Dn1, v052
	.byte	W06
	.byte			Dn1, v072
	.byte	W06
	.byte			Dn1, v052
	.byte	W06
	.byte			Dn1, v060
	.byte	W06
	.byte			Dn1, v052
	.byte	W06
	.byte			Ds1, v072
	.byte	W06
	.byte			Dn1, v052
	.byte	W06
	.byte			Dn1, v060
	.byte	W06
	.byte			Dn1, v052
	.byte	W06
	.byte			Dn1, v072
	.byte	W06
	.byte			Dn1, v052
	.byte	W06
	.byte			Ds1, v072
	.byte	W06
	.byte			Dn1, v052
	.byte	W06
	.byte	PEND
song0013_3_4:
	.byte		N06	, Dn1, v072
	.byte	W06
	.byte			Dn1, v052
	.byte	W06
	.byte			Dn1, v060
	.byte	W06
	.byte			Dn1, v052
	.byte	W06
	.byte			Dn1, v072
	.byte	W06
	.byte			Dn1, v052
	.byte	W06
	.byte			Dn1, v060
	.byte	W06
	.byte			Dn1, v052
	.byte	W06
	.byte			Dn1, v072
	.byte	W06
	.byte			Dn1, v052
	.byte	W06
	.byte			Dn1, v060
	.byte	W06
	.byte			Dn1, v052
	.byte	W06
	.byte			Dn1, v072
	.byte	W06
	.byte			Dn1, v052
	.byte	W06
	.byte			Dn1, v060
	.byte	W06
	.byte			Dn1, v052
	.byte	W06
	.byte	PEND
song0013_3_5:
	.byte		N06	, Dn1, v072
	.byte	W06
	.byte			Dn1, v052
	.byte	W06
	.byte			Dn1, v060
	.byte	W06
	.byte			Dn1, v052
	.byte	W06
	.byte			Dn1, v072
	.byte	W06
	.byte			Dn1, v052
	.byte	W06
	.byte			Dn1, v060
	.byte	W06
	.byte			Dn1, v052
	.byte	W06
	.byte			Dn1, v072
	.byte	W06
	.byte			Dn1, v052
	.byte	W06
	.byte			Ds1, v080
	.byte	W06
	.byte			Dn1, v052
	.byte	W06
	.byte			Dn1, v072
	.byte	W06
	.byte			Dn1, v052
	.byte	W06
	.byte		N12	, Ds1, v080
	.byte	W12
	.byte	PEND
	.byte		N36	, Fs2, v120
	.byte	W12
	.byte		N06	, Dn1, v060
	.byte	W06
	.byte			Dn1, v052
	.byte	W06
	.byte			Dn1, v072
	.byte	W06
	.byte			Dn1, v052
	.byte	W06
	.byte			Dn1, v060
	.byte	W06
	.byte			Dn1, v052
	.byte	W06
	.byte			Dn1, v072
	.byte	W06
	.byte			Dn1, v052
	.byte	W06
	.byte			Dn1, v060
	.byte	W06
	.byte			Dn1, v052
	.byte	W06
	.byte			Dn1, v072
	.byte	W06
	.byte			Dn1, v052
	.byte	W06
	.byte			Dn1, v060
	.byte	W06
	.byte			Dn1, v052
	.byte	W06
	.byte	PATT	
		.word	song0013_3_3
	.byte	PATT	
		.word	song0013_3_4
	.byte	PATT	
		.word	song0013_3_5
	.byte	PATT	
		.word	song0013_3_6
	.byte	PATT	
		.word	song0013_3_1
	.byte		N12	, Ds1, v072
	.byte	W12
	.byte		N06	, Dn1, v060
	.byte	W06
	.byte			Dn1, v052
	.byte	W06
	.byte		N12	, Ds1, v072
	.byte	W12
	.byte		N06	, Dn1, v060
	.byte	W06
	.byte			Dn1, v052
	.byte	W06
	.byte			Ds1, v060
	.byte	W06
	.byte		N06	
	.byte	W06
	.byte			En1
	.byte	W06
	.byte			Ds1
	.byte	W06
	.byte		N06	
	.byte	W06
	.byte		N06	
	.byte	W06
	.byte			En1
	.byte	W06
	.byte			Ds1
	.byte	W06
	.byte	PATT	
		.word	song0013_3_1
	.byte		N24	, Fs2, v120
	.byte	W12
	.byte		N06	, Dn1, v060
	.byte	W06
	.byte			Dn1, v052
	.byte	W06
	.byte		N12	, Ds1, v072
	.byte	W12
	.byte		N06	, Dn1, v060
	.byte	W06
	.byte			Dn1, v052
	.byte	W06
	.byte		N12	, Ds1, v072
	.byte	W12
	.byte		N06	, Dn1, v060
	.byte	W06
	.byte			Dn1, v052
	.byte	W06
	.byte		N12	, Ds1, v072
	.byte	W12
	.byte		N06	, Dn1, v060
	.byte	W06
	.byte			Dn1, v052
	.byte	W06
	.byte	PATT	
		.word	song0013_3_1
	.byte		N12	, Ds1, v072
	.byte	W12
	.byte		N06	, Dn1, v060
	.byte	W06
	.byte			Dn1, v052
	.byte	W06
	.byte		N12	, Ds1, v072
	.byte	W12
	.byte		N06	, Dn1, v060
	.byte	W06
	.byte			Dn1, v052
	.byte	W06
	.byte			Ds1, v060
	.byte	W06
	.byte		N06	
	.byte	W06
	.byte			En1
	.byte	W06
	.byte			Ds1
	.byte	W30
	.byte		N18	, Fs2, v120
	.byte	W12
	.byte		N06	, Dn1, v060
	.byte	W06
	.byte			Dn1, v052
	.byte	W06
	.byte			Dn1, v072
	.byte	W06
	.byte			Dn1, v052
	.byte	W06
	.byte			Dn1, v060
	.byte	W06
	.byte		N24	, Cs2, v120
	.byte	W54
	.byte			Cs2, v127
	.byte	W12
	.byte		N06	, Dn1, v060
	.byte	W06
	.byte			Dn1, v052
	.byte	W06
	.byte		N12	, Ds1, v072
	.byte	W12
	.byte		N06	, Dn1, v060
	.byte	W06
	.byte			Dn1, v052
	.byte	W06
	.byte		N12	, Ds1, v072
	.byte	W12
	.byte		N06	, Dn1, v060
	.byte	W06
	.byte			Dn1, v052
	.byte	W06
	.byte		N12	, Ds1, v072
	.byte	W12
	.byte		N06	, Dn1, v060
	.byte	W06
	.byte			Dn1, v052
	.byte	W06
	.byte	PATT	
		.word	song0013_3_1
	.byte	PATT	
		.word	song0013_3_1
song0013_3_7:
	.byte		N12	, Ds1, v072
	.byte	W12
	.byte		N06	, Dn1, v060
	.byte	W06
	.byte			Dn1, v052
	.byte	W06
	.byte		N12	, Ds1, v072
	.byte	W12
	.byte		N06	, Dn1, v060
	.byte	W06
	.byte			Dn1, v052
	.byte	W06
	.byte		N12	, En1, v072
	.byte	W12
	.byte		N06	, Ds1, v060
	.byte	W06
	.byte			Ds1, v052
	.byte	W06
	.byte		N12	, En1, v072
	.byte	W12
	.byte		N06	, Ds1, v060
	.byte	W06
	.byte			Ds1, v052
	.byte	W06
	.byte	PEND
song0013_3_8:
	.byte		N24	, Gn2, v127
	.byte	W12
	.byte		N06	, Dn1, v060
	.byte	W06
	.byte			Dn1, v052
	.byte	W06
	.byte		N12	, Ds1, v072
	.byte	W12
	.byte		N06	, Dn1, v060
	.byte	W06
	.byte			Dn1, v052
	.byte	W06
	.byte		N12	, Ds1, v072
	.byte	W12
	.byte		N06	, Dn1, v060
	.byte	W06
	.byte			Dn1, v052
	.byte	W06
	.byte		N12	, Ds1, v072
	.byte	W12
	.byte		N06	, Dn1, v060
	.byte	W06
	.byte			Dn1, v052
	.byte	W06
	.byte	PEND
	.byte	PATT	
		.word	song0013_3_1
	.byte		N24	, Cs2, v127
	.byte	W12
	.byte		N06	, Ds1, v060
	.byte	W06
	.byte			Ds1, v052
	.byte	W06
	.byte		N12	, En1, v072
	.byte	W12
	.byte		N06	, Ds1, v060
	.byte	W06
	.byte			Ds1, v052
	.byte	W06
	.byte			Ds1, v080
	.byte	W06
	.byte		N06	
	.byte	W06
	.byte			En1
	.byte	W06
	.byte			Ds1
	.byte	W06
	.byte		N06	
	.byte	W06
	.byte		N06	
	.byte	W06
	.byte			En1
	.byte	W06
	.byte			Ds1
	.byte	W06
	.byte	PATT	
		.word	song0013_3_1
	.byte		N18	, Fs2, v116
	.byte	W12
	.byte		N06	, Dn1, v060
	.byte	W06
	.byte			Dn1, v052
	.byte	W06
	.byte		N12	, Ds1, v072
	.byte	W12
	.byte		N06	, Dn1, v060
	.byte	W06
	.byte			Dn1, v052
	.byte	W06
	.byte		N12	, Ds1, v072
	.byte	W12
	.byte		N06	, Dn1, v060
	.byte	W06
	.byte			Dn1, v052
	.byte	W06
	.byte		N12	, Ds1, v072
	.byte	W12
	.byte		N06	, Dn1, v060
	.byte	W06
	.byte			Dn1, v052
	.byte	W06
	.byte	PATT	
		.word	song0013_3_7
	.byte	PATT	
		.word	song0013_3_8
	.byte	PATT	
		.word	song0013_3_1
	.byte		N12	, En1, v072
	.byte	W12
	.byte		N06	, Ds1, v060
	.byte	W06
	.byte			Ds1, v052
	.byte	W06
	.byte		N12	, En1, v072
	.byte	W12
	.byte		N06	, Ds1, v060
	.byte	W06
	.byte			Ds1, v052
	.byte	W06
	.byte			Ds1, v080
	.byte	W06
	.byte		N06	
	.byte	W06
	.byte			En1
	.byte	W06
	.byte			Ds1
	.byte	W06
	.byte		N06	
	.byte	W06
	.byte		N06	
	.byte	W06
	.byte			En1
	.byte	W06
	.byte			Ds1
	.byte	W06
	.byte	PATT	
		.word	song0013_3_1
	.byte	W96
	.byte	PATT	
		.word	song0013_3_6
	.byte		N12	, Ds1, v072
	.byte	W12
	.byte		N06	, Dn1, v060
	.byte	W06
	.byte			Dn1, v052
	.byte	W06
	.byte		N12	, Ds1, v072
	.byte	W12
	.byte		N06	, Dn1, v060
	.byte	W06
	.byte			Dn1, v052
	.byte	W06
	.byte		N12	, Ds1, v072
	.byte	W12
	.byte		N06	, Dn1, v060
	.byte	W06
	.byte			Dn1, v052
	.byte	W06
	.byte			Ds1, v060
	.byte	W06
	.byte			Ds1, v052
	.byte	W06
	.byte		N12	, En1, v072
	.byte	W12
	.byte		N18	, Fs2, v112
	.byte	W12
	.byte		N06	, Dn1, v060
	.byte	W06
	.byte			Dn1, v052
	.byte	W06
	.byte		N12	, Ds1, v072
	.byte	W12
	.byte		N06	, Dn1, v060
	.byte	W06
	.byte			Dn1, v052
	.byte	W06
	.byte		N12	, Ds1, v072
	.byte	W12
	.byte		N06	, Dn1, v060
	.byte	W06
	.byte			Dn1, v052
	.byte	W06
	.byte		N12	, Ds1, v072
	.byte	W12
	.byte		N06	, Dn1, v060
	.byte	W06
	.byte			Dn1, v052
	.byte	W06
	.byte	PATT	
		.word	song0013_3_1
	.byte	GOTO	
		.word	song0013_3_9
	.byte	W96
	.byte	FINE

	@********************** Track  4 **********************@

	.global song0013_4
song0013_4:	@ 0x08C576BC
	.byte	KEYSH	, 0
	.byte	VOICE	, 115
	.byte	VOL	, v062
	.byte	PRIO	, 20
	.byte	W03
song0013_4_5:
	.byte	W96
	.byte	W96
	.byte	W96
	.byte		N18	, Cn3, v112
	.byte	W18
	.byte			Gn2
	.byte	W18
	.byte		N24	, As2
	.byte	W24
	.byte			An2
	.byte	W24
	.byte		N48	, Fn2
	.byte	W12
	.byte	VOL	, v061
	.byte	W01
	.byte		v059
	.byte	W01
	.byte		v058
	.byte	W02
	.byte		v056
	.byte	W01
	.byte		v055
	.byte	W01
	.byte		v053
	.byte	W02
	.byte		v051
	.byte	W01
	.byte		v051
	.byte	W02
	.byte		v049
	.byte	W01
	.byte		v048
	.byte	W01
	.byte		v046
	.byte	W02
	.byte		v044
	.byte	W01
	.byte		v043
	.byte	W02
	.byte		v042
	.byte	W01
	.byte		v040
	.byte	W01
	.byte		v039
	.byte	W02
	.byte		v037
	.byte	W01
	.byte		v036
	.byte	W01
	.byte		v034
	.byte	W02
	.byte		v033
	.byte	W01
	.byte		v032
	.byte	W02
	.byte		v030
	.byte	W01
	.byte		v029
	.byte	W01
	.byte		v027
	.byte	W02
	.byte		v025
	.byte	W01
	.byte		v024
	.byte	W02
	.byte		v023
	.byte	W60
	.byte		v062
	.byte	W96
	.byte	W96
	.byte	W96
	.byte	W96
song0013_4_1:
	.byte		N18	, As2, v112
	.byte	W18
	.byte			An2
	.byte	W18
	.byte		N36	, Fn2
	.byte	W48
	.byte		N12	, Ds3
	.byte	W12
	.byte	PEND
song0013_4_2:
	.byte		N36	, Ds3, v112
	.byte	W36
	.byte		N12	, Dn3
	.byte	W12
	.byte		N36	
	.byte	W36
	.byte		N12	, As2
	.byte	W12
	.byte	PEND
song0013_4_3:
	.byte		N18	, As2, v112
	.byte	W18
	.byte			Bn2
	.byte	W18
	.byte		N96	, Cn3
	.byte	W60
	.byte	PEND
	.byte	W96
	.byte	PATT	
		.word	song0013_4_1
song0013_4_4:
	.byte		N36	, Ds3, v112
	.byte	W36
	.byte		N12	, Dn3
	.byte	W12
	.byte		N36	
	.byte	W36
	.byte		N12	, Fn3
	.byte	W12
	.byte	PEND
	.byte		N36	
	.byte	W36
	.byte		N96	, En3
	.byte	W60
	.byte	W96
	.byte	PATT	
		.word	song0013_4_1
	.byte	PATT	
		.word	song0013_4_2
	.byte	PATT	
		.word	song0013_4_3
	.byte	W96
	.byte	PATT	
		.word	song0013_4_1
	.byte	PATT	
		.word	song0013_4_4
	.byte		N18	, Fn3, v112
	.byte	W18
	.byte			Fs3
	.byte	W18
	.byte		N96	, Gn3
	.byte	W36
	.byte	VOL	, v061
	.byte	W02
	.byte		v059
	.byte	W02
	.byte		v058
	.byte	W02
	.byte		v057
	.byte	W02
	.byte		v055
	.byte	W02
	.byte		v055
	.byte	W02
	.byte		v053
	.byte	W02
	.byte		v051
	.byte	W02
	.byte		v051
	.byte	W02
	.byte		v049
	.byte	W02
	.byte		v048
	.byte	W02
	.byte		v047
	.byte	W02
	.byte		v045
	.byte	W02
	.byte		v044
	.byte	W02
	.byte		v043
	.byte	W02
	.byte		v042
	.byte	W02
	.byte		v040
	.byte	W02
	.byte		v039
	.byte	W02
	.byte		v038
	.byte	W02
	.byte		v037
	.byte	W02
	.byte		v036
	.byte	W02
	.byte		v034
	.byte	W02
	.byte		v033
	.byte	W02
	.byte		v032
	.byte	W02
	.byte		v030
	.byte	W02
	.byte		v029
	.byte	W02
	.byte		v028
	.byte	W02
	.byte		v026
	.byte	W02
	.byte		v025
	.byte	W02
	.byte		v024
	.byte	W02
	.byte		v023
	.byte	W36
	.byte		v062
	.byte	W24
	.byte	W96
	.byte	W96
	.byte	W96
	.byte	W96
	.byte	W96
	.byte	W96
	.byte	W96
	.byte	W96
	.byte	W96
	.byte	W96
	.byte	W96
	.byte	W96
	.byte	W96
	.byte	W96
	.byte	W96
	.byte	W96
	.byte	W96
	.byte		N90	, Fn2, v092
	.byte	W88
	.byte	W01
	.byte		N02	, Gn2, v056
	.byte	W02
	.byte			An2, v072
	.byte	W01
	.byte			Bn2, v080
	.byte	W01
	.byte		N01	, Cn3, v084
	.byte	W01
	.byte		N02	, Dn3
	.byte	W01
	.byte		N04	, En3, v092
	.byte	W01
	.byte	W01
	.byte		N92	, Fn3, v072
	.byte	W92
	.byte	W03
	.byte	GOTO	
		.word	song0013_4_5
	.byte	W96
	.byte	FINE

	@********************** Track  5 **********************@

	.global song0013_5
song0013_5:	@ 0x08C577EB
	.byte	KEYSH	, 0
	.byte	VOICE	, 2
	.byte	VOL	, v039
	.byte	PAN	, c_v-30
	.byte	W03
song0013_5_1:
	.byte	W96
	.byte		N06	, Bn1, v112
	.byte	W06
	.byte		N06	
	.byte	W06
	.byte			Fs2
	.byte	W06
	.byte		N06	
	.byte	W06
	.byte			Ds2
	.byte	W06
	.byte		N06	
	.byte	W06
	.byte			Bn2
	.byte	W06
	.byte		N06	
	.byte	W06
	.byte			Fs2
	.byte	W06
	.byte		N06	
	.byte	W06
	.byte			Ds3
	.byte	W06
	.byte		N06	
	.byte	W06
	.byte			Bn2
	.byte	W06
	.byte		N06	
	.byte	W06
	.byte			Fs3
	.byte	W06
	.byte		N06	
	.byte	W06
	.byte	W96
	.byte	W96
	.byte	W96
	.byte			Ds2
	.byte	W06
	.byte		N06	
	.byte	W06
	.byte			Bn2
	.byte	W06
	.byte		N06	
	.byte	W06
	.byte			Fs2
	.byte	W06
	.byte		N06	
	.byte	W06
	.byte			Ds3
	.byte	W06
	.byte		N06	
	.byte	W06
	.byte			Bn2
	.byte	W06
	.byte		N06	
	.byte	W06
	.byte			Fs3
	.byte	W06
	.byte		N06	
	.byte	W06
	.byte			Ds3
	.byte	W06
	.byte		N06	
	.byte	W06
	.byte			Bn3
	.byte	W06
	.byte		N06	
	.byte	W06
	.byte	W96
	.byte		N04	, En6
	.byte	W04
	.byte			En5
	.byte	W04
	.byte			Gs5
	.byte	W04
	.byte			En5
	.byte	W04
	.byte			Gs5
	.byte	W04
	.byte			Gs4
	.byte	W04
	.byte			Gs5
	.byte	W04
	.byte			Gs4
	.byte	W04
	.byte			Bn5
	.byte	W04
	.byte			Bn4
	.byte	W04
	.byte			En5
	.byte	W04
	.byte			Bn4
	.byte	W04
	.byte			En5
	.byte	W04
	.byte			En4
	.byte	W04
	.byte			En5
	.byte	W04
	.byte			En4
	.byte	W04
	.byte			Gs5
	.byte	W04
	.byte			Gs4
	.byte	W04
	.byte			Bn4
	.byte	W04
	.byte			Gs4
	.byte	W04
	.byte			Bn4
	.byte	W04
	.byte			Bn3
	.byte	W04
	.byte			Bn4
	.byte	W04
	.byte			Bn3
	.byte	W04
	.byte			Gs4
	.byte	W04
	.byte			Bn4
	.byte	W04
	.byte			Bn3
	.byte	W04
	.byte			Bn4
	.byte	W04
	.byte			Bn3
	.byte	W04
	.byte			En4
	.byte	W04
	.byte			Bn3
	.byte	W04
	.byte			En4
	.byte	W04
	.byte		N04	
	.byte	W04
	.byte			Gs4
	.byte	W04
	.byte			Gs3
	.byte	W04
	.byte			Gs4
	.byte	W04
	.byte			Gs3
	.byte	W04
	.byte			Bn3
	.byte	W04
	.byte			Gs3
	.byte	W04
	.byte			Bn3
	.byte	W04
	.byte		N04	
	.byte	W04
	.byte			En4
	.byte	W04
	.byte			En3
	.byte	W04
	.byte			En4
	.byte	W04
	.byte			En3
	.byte	W04
	.byte			Gs3
	.byte	W04
	.byte			En3
	.byte	W04
	.byte			Gs3
	.byte	W04
	.byte	W96
	.byte	W96
	.byte	W96
	.byte	W96
	.byte	W96
	.byte	W96
	.byte		N06	, An2
	.byte	W06
	.byte		N06	
	.byte	W06
	.byte			Fs3
	.byte	W06
	.byte		N06	
	.byte	W06
	.byte			Dn3
	.byte	W06
	.byte		N06	
	.byte	W06
	.byte			Gs3
	.byte	W06
	.byte		N06	
	.byte	W06
	.byte			En3
	.byte	W06
	.byte		N06	
	.byte	W06
	.byte			Bn3
	.byte	W06
	.byte		N06	
	.byte	W06
	.byte			Gs3
	.byte	W06
	.byte			Bn3
	.byte	W06
	.byte			Gs4
	.byte	W06
	.byte		N06	
	.byte	W06
	.byte			Bn5
	.byte	W06
	.byte			En5
	.byte	W06
	.byte		N06	
	.byte	W06
	.byte			Gs4
	.byte	W06
	.byte			Bn4
	.byte	W06
	.byte		N06	
	.byte	W06
	.byte			En4
	.byte	W06
	.byte		N06	
	.byte	W06
	.byte			Gs4
	.byte	W06
	.byte			Bn3
	.byte	W06
	.byte		N06	
	.byte	W06
	.byte			En3
	.byte	W06
	.byte			Gs3
	.byte	W06
	.byte		N06	
	.byte	W06
	.byte			Bn2
	.byte	W06
	.byte		N06	
	.byte	W06
	.byte	W96
	.byte	W96
	.byte	W96
	.byte	W96
	.byte	W96
	.byte	W96
	.byte	W96
	.byte	W96
	.byte		N04	, An5
	.byte	W04
	.byte			Fs5
	.byte	W04
	.byte			Dn5
	.byte	W04
	.byte			Fs5
	.byte	W04
	.byte			Dn5
	.byte	W04
	.byte			An4
	.byte	W04
	.byte			Dn5
	.byte	W04
	.byte			An4
	.byte	W04
	.byte			Fs4
	.byte	W04
	.byte			An4
	.byte	W04
	.byte			Fs4
	.byte	W04
	.byte			Dn4
	.byte	W04
	.byte			Fs4
	.byte	W04
	.byte			Dn4
	.byte	W04
	.byte			An3
	.byte	W04
	.byte			Dn4
	.byte	W04
	.byte			An3
	.byte	W04
	.byte			Fs3
	.byte	W04
	.byte			An3
	.byte	W04
	.byte			Fs3
	.byte	W04
	.byte			Dn3
	.byte	W04
	.byte			Fs3
	.byte	W04
	.byte			Dn3
	.byte	W04
	.byte			An2
	.byte	W04
	.byte	W96
	.byte			An5
	.byte	W04
	.byte			En5
	.byte	W04
	.byte			Cn5
	.byte	W04
	.byte			En5
	.byte	W04
	.byte			Cn5
	.byte	W04
	.byte			An4
	.byte	W04
	.byte			Cn5
	.byte	W04
	.byte			An4
	.byte	W04
	.byte			En4
	.byte	W04
	.byte			An4
	.byte	W04
	.byte			En4
	.byte	W04
	.byte			Cn4
	.byte	W04
	.byte			En4
	.byte	W04
	.byte			Cn4
	.byte	W04
	.byte			An3
	.byte	W04
	.byte			Cn4
	.byte	W04
	.byte			An3
	.byte	W04
	.byte			En3
	.byte	W04
	.byte			An3
	.byte	W04
	.byte			En3
	.byte	W04
	.byte			Cn3
	.byte	W04
	.byte			En3
	.byte	W04
	.byte			Cn3
	.byte	W04
	.byte			An2
	.byte	W04
	.byte	W96
	.byte	W96
	.byte	W96
	.byte	W96
	.byte	W96
	.byte	W96
	.byte		N06	, As3, v100
	.byte	W06
	.byte			As4
	.byte	W06
	.byte			As3
	.byte	W06
	.byte			As4
	.byte	W06
	.byte			As5
	.byte	W06
	.byte			As4
	.byte	W06
	.byte			As3
	.byte	W06
	.byte			As4
	.byte	W12
	.byte			As3
	.byte	W06
	.byte			As4
	.byte	W06
	.byte			As3
	.byte	W06
	.byte			Cn6
	.byte	W06
	.byte			Cn5
	.byte	W06
	.byte			Cn4
	.byte	W06
	.byte			Cn5
	.byte	W06
	.byte	W96
	.byte	W96
	.byte	W96
	.byte	W96
	.byte		N04	, En5, v092
	.byte	W04
	.byte			Cs5
	.byte	W04
	.byte			An4
	.byte	W04
	.byte			Cs5
	.byte	W04
	.byte			An4
	.byte	W04
	.byte			En4
	.byte	W04
	.byte			An4
	.byte	W04
	.byte			En4
	.byte	W04
	.byte		N04	
	.byte	W04
	.byte			Cs4
	.byte	W04
	.byte			An3
	.byte	W04
	.byte			Cs4
	.byte	W04
	.byte			An3
	.byte	W04
	.byte			En3
	.byte	W04
	.byte			An3
	.byte	W04
	.byte			En3
	.byte	W04
	.byte			Cs4
	.byte	W04
	.byte			An3
	.byte	W04
	.byte			En3
	.byte	W04
	.byte			An3
	.byte	W04
	.byte			En3
	.byte	W04
	.byte			Cs3
	.byte	W04
	.byte			En3
	.byte	W04
	.byte			Cs3
	.byte	W04
	.byte	W96
	.byte	W96
	.byte	W96
	.byte	W96
	.byte	GOTO	
		.word	song0013_5_1
	.byte	W96
	.byte	FINE

	@********************** Track  6 **********************@

	.global song0013_6
song0013_6:	@ 0x08C579B4
	.byte	KEYSH	, 0
	.byte	VOICE	, 11
	.byte	VOL	, v078
	.byte	PAN	, c_v+30
	.byte	W03
song0013_6_1:
	.byte	W96
	.byte		N06	, Fs1, v112
	.byte	W06
	.byte			Ds2
	.byte	W06
	.byte		N06	
	.byte	W06
	.byte			Bn2
	.byte	W06
	.byte			Bn1
	.byte	W06
	.byte			Fs2
	.byte	W06
	.byte		N06	
	.byte	W06
	.byte			Ds3
	.byte	W06
	.byte			Ds2
	.byte	W06
	.byte			Bn2
	.byte	W06
	.byte		N06	
	.byte	W06
	.byte			Fs3
	.byte	W06
	.byte			Fs2
	.byte	W06
	.byte			Ds3
	.byte	W06
	.byte		N06	
	.byte	W06
	.byte			Bn3
	.byte	W06
	.byte	W96
	.byte	W96
	.byte	W96
	.byte			Bn1
	.byte	W06
	.byte			Fs2
	.byte	W06
	.byte		N06	
	.byte	W06
	.byte			Ds3
	.byte	W06
	.byte			Ds2
	.byte	W06
	.byte			Bn2
	.byte	W06
	.byte		N06	
	.byte	W06
	.byte			Fs3
	.byte	W06
	.byte			Fs2
	.byte	W06
	.byte			Ds3
	.byte	W06
	.byte		N06	
	.byte	W06
	.byte			Bn3
	.byte	W06
	.byte			Bn2
	.byte	W06
	.byte			Fs3
	.byte	W06
	.byte		N06	
	.byte	W06
	.byte			Ds4
	.byte	W06
	.byte	W96
	.byte		N04	, Gs5
	.byte	W04
	.byte			Bn5
	.byte	W04
	.byte			Bn4
	.byte	W04
	.byte			Bn5
	.byte	W04
	.byte			Bn4
	.byte	W04
	.byte			En5
	.byte	W04
	.byte			Bn4
	.byte	W04
	.byte			En5
	.byte	W04
	.byte		N04	
	.byte	W04
	.byte			Gs5
	.byte	W04
	.byte			Gs4
	.byte	W04
	.byte			Gs5
	.byte	W04
	.byte			Gs4
	.byte	W04
	.byte			Bn4
	.byte	W04
	.byte			Gs4
	.byte	W04
	.byte			Bn4
	.byte	W04
	.byte		N04	
	.byte	W04
	.byte			En5
	.byte	W04
	.byte			En4
	.byte	W04
	.byte			En5
	.byte	W04
	.byte			En4
	.byte	W04
	.byte			Gs4
	.byte	W04
	.byte			En4
	.byte	W04
	.byte			Gs4
	.byte	W04
	.byte			En5
	.byte	W04
	.byte			En4
	.byte	W04
	.byte			Gs4
	.byte	W04
	.byte			En4
	.byte	W04
	.byte			Gs4
	.byte	W04
	.byte			Gs3
	.byte	W04
	.byte			Gs4
	.byte	W04
	.byte			Gs3
	.byte	W04
	.byte			Bn4
	.byte	W04
	.byte			Bn3
	.byte	W04
	.byte			En4
	.byte	W04
	.byte			Bn3
	.byte	W04
	.byte			En4
	.byte	W04
	.byte			En3
	.byte	W04
	.byte			En4
	.byte	W04
	.byte			En3
	.byte	W04
	.byte			Gs4
	.byte	W04
	.byte			Gs3
	.byte	W04
	.byte			Bn3
	.byte	W04
	.byte			Gs3
	.byte	W04
	.byte			Bn3
	.byte	W04
	.byte			Bn2
	.byte	W04
	.byte			Bn3
	.byte	W04
	.byte			Bn2
	.byte	W04
	.byte	W96
	.byte	W96
	.byte	W96
	.byte	W96
	.byte	W96
	.byte	W96
	.byte		N06	, Fs2
	.byte	W06
	.byte			Dn3
	.byte	W06
	.byte		N06	
	.byte	W06
	.byte			An3
	.byte	W06
	.byte			An2
	.byte	W06
	.byte			Fs3
	.byte	W06
	.byte			En3
	.byte	W06
	.byte			Bn3
	.byte	W06
	.byte			Bn2
	.byte	W06
	.byte			Gs3
	.byte	W06
	.byte		N06	
	.byte	W06
	.byte			En4
	.byte	W06
	.byte			En3
	.byte	W06
	.byte			En4
	.byte	W06
	.byte		N06	
	.byte	W06
	.byte			Bn4
	.byte	W06
	.byte			Gs5
	.byte	W06
	.byte		N06	
	.byte	W06
	.byte			Bn4
	.byte	W06
	.byte		N06	
	.byte	W06
	.byte			En5
	.byte	W06
	.byte			Gs4
	.byte	W06
	.byte		N06	
	.byte	W06
	.byte			Bn3
	.byte	W06
	.byte			En4
	.byte	W06
	.byte		N06	
	.byte	W06
	.byte			Gs3
	.byte	W06
	.byte		N06	
	.byte	W06
	.byte			Bn3
	.byte	W06
	.byte			En3
	.byte	W06
	.byte		N06	
	.byte	W06
	.byte			Gs2
	.byte	W06
	.byte	W96
	.byte	W96
	.byte	W96
	.byte	W96
	.byte	W96
	.byte	W96
	.byte	W96
	.byte	W96
	.byte	W96
	.byte		N04	, An5
	.byte	W04
	.byte			En5
	.byte	W04
	.byte			Cs5
	.byte	W04
	.byte			En5
	.byte	W04
	.byte			Cs5
	.byte	W04
	.byte			An4
	.byte	W04
	.byte			Cs5
	.byte	W04
	.byte			An4
	.byte	W04
	.byte			En4
	.byte	W04
	.byte			An4
	.byte	W04
	.byte			En4
	.byte	W04
	.byte			Cs4
	.byte	W04
	.byte			En4
	.byte	W04
	.byte			Cs4
	.byte	W04
	.byte			An3
	.byte	W04
	.byte			Cs4
	.byte	W04
	.byte			An3
	.byte	W04
	.byte			En3
	.byte	W04
	.byte			An3
	.byte	W04
	.byte			En3
	.byte	W04
	.byte			Cs3
	.byte	W04
	.byte			En3
	.byte	W04
	.byte			Cs3
	.byte	W04
	.byte			An2
	.byte	W04
	.byte	W96
	.byte			Bn2
	.byte	W04
	.byte			Dn3
	.byte	W04
	.byte			Gn3
	.byte	W04
	.byte			Dn3
	.byte	W04
	.byte			Gn3
	.byte	W04
	.byte			Bn3
	.byte	W04
	.byte			Gn3
	.byte	W04
	.byte			Bn3
	.byte	W04
	.byte			Dn4
	.byte	W04
	.byte			Bn3
	.byte	W04
	.byte			Dn4
	.byte	W04
	.byte			Gn4
	.byte	W04
	.byte			Dn4
	.byte	W04
	.byte			Gn4
	.byte	W04
	.byte			Bn4
	.byte	W04
	.byte			Gn4
	.byte	W04
	.byte			Bn4
	.byte	W04
	.byte			Dn5
	.byte	W04
	.byte			Bn4
	.byte	W04
	.byte			Dn5
	.byte	W04
	.byte			Gn5
	.byte	W04
	.byte			Dn5
	.byte	W04
	.byte			Gn5
	.byte	W04
	.byte			Bn5
	.byte	W04
	.byte	W96
	.byte	W96
	.byte	W96
	.byte	W96
	.byte	W96
	.byte		N06	, As4, v100
	.byte	W06
	.byte			As5
	.byte	W06
	.byte			As4
	.byte	W06
	.byte			As5
	.byte	W06
	.byte			As6
	.byte	W06
	.byte			As5
	.byte	W06
	.byte			As4
	.byte	W06
	.byte			As5
	.byte	W12
	.byte			As4
	.byte	W06
	.byte			As5
	.byte	W06
	.byte			As4
	.byte	W06
	.byte			Cn7
	.byte	W06
	.byte			Cn6
	.byte	W06
	.byte			Cn5
	.byte	W06
	.byte			Cn6
	.byte	W06
	.byte	W96
	.byte	W96
	.byte	W96
	.byte	W96
	.byte		N04	, Cs5, v092
	.byte	W04
	.byte			An4
	.byte	W04
	.byte			En4
	.byte	W04
	.byte			An4
	.byte	W04
	.byte			En4
	.byte	W04
	.byte			Cs4
	.byte	W04
	.byte			En4
	.byte	W04
	.byte			Cs4
	.byte	W04
	.byte			An4
	.byte	W04
	.byte			En4
	.byte	W04
	.byte			Cs4
	.byte	W04
	.byte			En4
	.byte	W04
	.byte			Cs4
	.byte	W04
	.byte			An3
	.byte	W04
	.byte			Cs4
	.byte	W04
	.byte			An3
	.byte	W04
	.byte		N04	
	.byte	W04
	.byte			En3
	.byte	W04
	.byte			Cs3
	.byte	W04
	.byte			En3
	.byte	W04
	.byte			Cs3
	.byte	W04
	.byte			An2
	.byte	W04
	.byte			Cs3
	.byte	W04
	.byte			An2
	.byte	W04
	.byte	W96
	.byte	W96
	.byte	W96
	.byte	W96
	.byte	GOTO	
		.word	song0013_6_1
	.byte	W96
	.byte	FINE

	@********************** Track  7 **********************@

	.global song0013_7
song0013_7:	@ 0x08C57B7D
	.byte	KEYSH	, 0
	.byte	VOICE	, 116
	.byte	PAN	, c_v
	.byte	VOL	, v094
	.byte	W03
song0013_7_1:
	.byte	W96
	.byte	W96
	.byte	W96
	.byte	W96
	.byte	W96
	.byte	W96
	.byte	W96
	.byte	W96
	.byte	W96
	.byte	W96
	.byte	W96
	.byte	W96
	.byte	W96
	.byte	W96
	.byte	W96
	.byte	W96
	.byte	W96
	.byte	W96
	.byte	W96
	.byte	W96
	.byte	W96
	.byte	W96
	.byte	W96
	.byte	W96
	.byte	W96
	.byte	W96
	.byte	W96
	.byte		N96	, Cn3, v112
	.byte	W96
	.byte	W96
	.byte	W96
	.byte	W96
	.byte	W96
	.byte	W96
	.byte	W96
	.byte		N72	, As3
	.byte	W72
	.byte		N24	, Cn4
	.byte	W24
	.byte	W96
	.byte	W96
	.byte	W96
	.byte	W96
	.byte	W96
	.byte	W96
	.byte	W96
	.byte	W96
	.byte	W96
	.byte	GOTO	
		.word	song0013_7_1
	.byte	W96
	.byte	FINE

	@********************** Track  8 **********************@

	.global song0013_8
song0013_8:	@ 0x08C57BC1
	.byte	KEYSH	, 0
	.byte	VOICE	, 74
	.byte	VOL	, v070
	.byte	BENDR	, 4
	.byte	PAN	, c_v+30
	.byte	W03
song0013_8_1:
	.byte	W96
	.byte	W96
	.byte	W96
	.byte	W96
	.byte	W96
	.byte	W96
	.byte	W60
	.byte		N06	, En3, v100
	.byte	W12
	.byte			Fn3
	.byte	W06
	.byte			Fs3
	.byte	W12
	.byte		N24	, En4
	.byte	W06
	.byte	W18
	.byte		N18	, Dn4
	.byte	W18
	.byte		N24	, Cs4
	.byte	W24
	.byte		N96	, Bn3
	.byte	W24
	.byte	W01
	.byte	VOL	, v069
	.byte	W01
	.byte		v068
	.byte	W02
	.byte		v067
	.byte	W01
	.byte		v066
	.byte	W01
	.byte		v066
	.byte	W02
	.byte		v065
	.byte	W01
	.byte		v063
	.byte	W02
	.byte		v062
	.byte	W01
	.byte		v062
	.byte	W01
	.byte		v061
	.byte	W02
	.byte		v060
	.byte	W01
	.byte		v059
	.byte	W02
	.byte		v059
	.byte	W01
	.byte		v057
	.byte	W01
	.byte		v056
	.byte	W02
	.byte		v055
	.byte	W01
	.byte		v055
	.byte	W01
	.byte		v054
	.byte	W02
	.byte		v053
	.byte	W01
	.byte		v051
	.byte	W02
	.byte		v051
	.byte	W01
	.byte		v050
	.byte	W01
	.byte		v049
	.byte	W02
	.byte		v048
	.byte	W01
	.byte		v048
	.byte	W02
	.byte		v047
	.byte	W01
	.byte		v045
	.byte	W01
	.byte		v044
	.byte	W02
	.byte		v044
	.byte	W01
	.byte		v043
	.byte	W01
	.byte		v042
	.byte	W02
	.byte		v041
	.byte	W01
	.byte		v040
	.byte	W02
	.byte		v039
	.byte	W01
	.byte		v038
	.byte	W01
	.byte		v037
	.byte	W02
	.byte		v037
	.byte	W01
	.byte		v036
	.byte	W02
	.byte		v035
	.byte	W01
	.byte		v033
	.byte	W01
	.byte		v033
	.byte	W02
	.byte		v032
	.byte	W01
	.byte		v031
	.byte	W01
	.byte		v030
	.byte	W02
	.byte		v029
	.byte	W01
	.byte		v029
	.byte	W02
	.byte		v027
	.byte	W01
	.byte		v026
	.byte	W01
	.byte		v025
	.byte	W02
	.byte		v025
	.byte	W01
	.byte		v024
	.byte	W02
	.byte		v023
	.byte	W36
	.byte		v070
	.byte	W96
	.byte	W96
	.byte	W96
	.byte	W96
	.byte	W96
	.byte	W96
	.byte	W96
	.byte	W96
	.byte	W96
	.byte	W96
	.byte	W60
	.byte		N06	, Cs2
	.byte	W12
	.byte			En2
	.byte	W06
	.byte			Cs2
	.byte	W12
	.byte		N12	, An2
	.byte	W06
	.byte	W12
	.byte		N06	, Gs2
	.byte	W12
	.byte			An2
	.byte	W12
	.byte			Gs2
	.byte	W06
	.byte		N12	, En2
	.byte	W12
	.byte		N06	, Dn2
	.byte	W06
	.byte			Ds2
	.byte	W06
	.byte			En2
	.byte	W06
	.byte			Cs2
	.byte	W06
	.byte		N18	, An1
	.byte	W18
	.byte	W96
	.byte	W96
	.byte	W96
	.byte	W96
	.byte		N12	, An3
	.byte	W12
	.byte			Gs3
	.byte	W12
	.byte			An3
	.byte	W12
	.byte		N18	, Dn3
	.byte	W24
	.byte		N12	, An3
	.byte	W12
	.byte			Gs3
	.byte	W12
	.byte			Dn3
	.byte	W12
	.byte			An3
	.byte	W12
	.byte			Gs3
	.byte	W12
	.byte			An3
	.byte	W12
	.byte		N18	, En3
	.byte	W24
	.byte		N12	, An3
	.byte	W12
	.byte			Gs3
	.byte	W12
	.byte			En3
	.byte	W12
	.byte		N24	, An3
	.byte	W24
	.byte		N12	, Gs3
	.byte	W12
	.byte		N24	, En3
	.byte	W24
	.byte			Dn3
	.byte	W24
	.byte			Bn2
	.byte	W12
	.byte	W12
	.byte			Dn3
	.byte	W24
	.byte			Gn3
	.byte	W24
	.byte			Bn3
	.byte	W24
	.byte			Dn4
	.byte	W12
	.byte	W12
	.byte		N12	, Cs4
	.byte	W12
	.byte			Dn4
	.byte	W12
	.byte		N24	, Fn3
	.byte	W24
	.byte		N12	, Dn4
	.byte	W12
	.byte			Cs4
	.byte	W12
	.byte			Fn3
	.byte	W12
	.byte			En4
	.byte	W12
	.byte			Ds4
	.byte	W12
	.byte			En4
	.byte	W12
	.byte		N18	, Gn3
	.byte	W24
	.byte		N12	
	.byte	W12
	.byte			Cn4
	.byte	W12
	.byte			En4
	.byte	W12
	.byte	W96
	.byte	W96
	.byte	W96
	.byte	W96
	.byte	W96
	.byte	W96
	.byte	W96
	.byte	W96
	.byte	W96
	.byte	W96
	.byte	W96
	.byte	W96
	.byte	W96
	.byte	GOTO	
		.word	song0013_8_1
	.byte	W96
	.byte	FINE

	@********************** Track  9 **********************@

	.global song0013_9
song0013_9:	@ 0x08C57CED
	.byte	KEYSH	, 0
	.byte	VOICE	, 74
	.byte	VOL	, v070
	.byte	BENDR	, 4
	.byte	PAN	, c_v-30
	.byte	W03
song0013_9_1:
	.byte	W96
	.byte	W96
	.byte	W96
	.byte	W96
	.byte	W96
	.byte	W96
	.byte	W60
	.byte		N06	, En2, v100
	.byte	W12
	.byte			Fn2
	.byte	W06
	.byte			Fs2
	.byte	W12
	.byte		N24	, En3
	.byte	W06
	.byte	W18
	.byte		N18	, Dn3
	.byte	W18
	.byte		N24	, Cs3
	.byte	W24
	.byte		N96	, Bn2
	.byte	W24
	.byte	W01
	.byte	VOL	, v069
	.byte	W01
	.byte		v068
	.byte	W02
	.byte		v067
	.byte	W01
	.byte		v066
	.byte	W01
	.byte		v066
	.byte	W02
	.byte		v065
	.byte	W01
	.byte		v063
	.byte	W02
	.byte		v062
	.byte	W01
	.byte		v062
	.byte	W01
	.byte		v061
	.byte	W02
	.byte		v060
	.byte	W01
	.byte		v059
	.byte	W02
	.byte		v059
	.byte	W01
	.byte		v057
	.byte	W01
	.byte		v056
	.byte	W02
	.byte		v055
	.byte	W01
	.byte		v055
	.byte	W01
	.byte		v054
	.byte	W02
	.byte		v053
	.byte	W01
	.byte		v051
	.byte	W02
	.byte		v051
	.byte	W01
	.byte		v050
	.byte	W01
	.byte		v049
	.byte	W02
	.byte		v048
	.byte	W01
	.byte		v048
	.byte	W02
	.byte		v047
	.byte	W01
	.byte		v045
	.byte	W01
	.byte		v044
	.byte	W02
	.byte		v044
	.byte	W01
	.byte		v043
	.byte	W01
	.byte		v042
	.byte	W02
	.byte		v041
	.byte	W01
	.byte		v040
	.byte	W02
	.byte		v039
	.byte	W01
	.byte		v038
	.byte	W01
	.byte		v037
	.byte	W02
	.byte		v037
	.byte	W01
	.byte		v036
	.byte	W02
	.byte		v035
	.byte	W01
	.byte		v033
	.byte	W01
	.byte		v033
	.byte	W02
	.byte		v032
	.byte	W01
	.byte		v031
	.byte	W01
	.byte		v030
	.byte	W02
	.byte		v029
	.byte	W01
	.byte		v029
	.byte	W02
	.byte		v027
	.byte	W01
	.byte		v026
	.byte	W01
	.byte		v025
	.byte	W02
	.byte		v025
	.byte	W01
	.byte		v024
	.byte	W02
	.byte		v023
	.byte	W36
	.byte		v070
	.byte	W96
	.byte	W96
	.byte	W96
	.byte	W96
	.byte	W96
	.byte	W96
	.byte	W96
	.byte	W96
	.byte	W96
	.byte	W96
	.byte	W60
	.byte		N06	, Cs3
	.byte	W12
	.byte			En3
	.byte	W06
	.byte			Cs3
	.byte	W12
	.byte		N12	, An3
	.byte	W06
	.byte	W12
	.byte		N06	, Gs3
	.byte	W12
	.byte			An3
	.byte	W12
	.byte			Gs3
	.byte	W06
	.byte		N12	, En3
	.byte	W12
	.byte		N06	, Dn3
	.byte	W06
	.byte			Ds3
	.byte	W06
	.byte			En3
	.byte	W06
	.byte			Cs3
	.byte	W06
	.byte		N18	, An2
	.byte	W18
	.byte	W96
	.byte	W96
	.byte	W96
	.byte	W96
	.byte		N12	
	.byte	W12
	.byte			Gs2
	.byte	W12
	.byte			An2
	.byte	W12
	.byte		N18	, Dn2
	.byte	W24
	.byte		N12	, An2
	.byte	W12
	.byte			Gs2
	.byte	W12
	.byte			Dn2
	.byte	W12
	.byte			An2
	.byte	W12
	.byte			Gs2
	.byte	W12
	.byte			An2
	.byte	W12
	.byte		N18	, En2
	.byte	W24
	.byte		N12	, An2
	.byte	W12
	.byte			Gs2
	.byte	W12
	.byte			En2
	.byte	W12
	.byte		N24	, An2
	.byte	W24
	.byte		N12	, Gs2
	.byte	W12
	.byte		N24	, En2
	.byte	W24
	.byte			Dn2
	.byte	W24
	.byte			Bn1
	.byte	W12
	.byte	W12
	.byte			Dn2
	.byte	W24
	.byte			Gn2
	.byte	W24
	.byte			Bn2
	.byte	W36
	.byte	W96
	.byte	W96
	.byte	W96
	.byte	W96
	.byte	W96
	.byte	W96
	.byte	W96
	.byte	W96
	.byte	W96
	.byte	W96
	.byte	W96
	.byte	W96
	.byte	W96
	.byte	W96
	.byte	W96
	.byte	GOTO	
		.word	song0013_9_1
	.byte	W96
	.byte	FINE

	@********************** Track  10 **********************@

	.global song0013_10
song0013_10:	@ 0x08C57DF9
	.byte	KEYSH	, 0
	.byte	VOICE	, 113
	.byte	VOL	, v094
	.byte	PAN	, c_v
	.byte	W03
song0013_10_2:
	.byte		N72	, An2, v112
	.byte	W72
	.byte		N12	, As2
	.byte	W12
	.byte		N96	, Bn2
	.byte	W12
	.byte	W96
song0013_10_1:
	.byte		N72	, Cn3, v112
	.byte	W72
	.byte		N12	, Cs3
	.byte	W12
	.byte			Dn3
	.byte	W12
	.byte	PEND
	.byte		N18	, En3
	.byte	W36
	.byte		N24	, Dn3
	.byte	W48
	.byte		N84	, An2
	.byte	W12
	.byte	W72
	.byte		N12	, As2
	.byte	W12
	.byte		N96	, Bn2
	.byte	W12
	.byte	W96
	.byte	PATT	
		.word	song0013_10_1
	.byte		N18	, En3, v112
	.byte	W96
	.byte	W96
	.byte		N96	, An2
	.byte	W96
	.byte		N48	, Gn3
	.byte	W96
	.byte	W96
	.byte		N36	, An3
	.byte	W96
	.byte	W96
	.byte		N48	, Gn3
	.byte	W96
	.byte	W96
	.byte	W36
	.byte		N36	, An3
	.byte	W60
	.byte		N96	, An2
	.byte	W96
	.byte		N48	, Gn3
	.byte	W96
	.byte	W96
	.byte		N36	, An3
	.byte	W96
	.byte	W96
	.byte		N48	, Gn3
	.byte	W96
	.byte	W96
	.byte	W96
	.byte	W96
	.byte		N96	, An2
	.byte	W96
	.byte	W96
	.byte	W96
	.byte	W96
	.byte	W96
	.byte	W96
	.byte	W96
	.byte			Gn3
	.byte	W96
	.byte	W96
	.byte	W96
	.byte	W96
	.byte		N96	
	.byte	W96
	.byte		N36	
	.byte	W36
	.byte		N60	, An3
	.byte	W60
	.byte	W96
	.byte	W96
	.byte	W96
	.byte	W84
	.byte		N24	, An2
	.byte	W12
	.byte	W60
	.byte		N36	
	.byte	W36
	.byte	GOTO	
		.word	song0013_10_2
	.byte	W96
	.byte	FINE

	@********************** Track  11 **********************@

	.global song0013_11
song0013_11:	@ 0x08C57E7C
	.byte	KEYSH	, 0
	.byte	VOICE	, 114
	.byte	VOL	, v094
	.byte	PAN	, c_v
	.byte	W03
song0013_11_2:
	.byte	W96
	.byte	W96
	.byte	W96
	.byte	W18
	.byte		N18	, Cn3, v112
	.byte	W78
	.byte	W96
	.byte	W96
	.byte	W96
	.byte	W18
	.byte			As3
	.byte	W18
	.byte		N24	
	.byte	W24
	.byte		N48	, Cn4
	.byte	W36
	.byte	W96
	.byte	W96
	.byte	W96
	.byte		N96	, Fn3
	.byte	W96
song0013_11_1:
	.byte	W36
	.byte		N36	, Fn3, v112
	.byte	W36
	.byte		N24	, Ds3
	.byte	W24
	.byte	PEND
	.byte		N96	, Fn3
	.byte	W96
	.byte	W96
	.byte		N36	, As3
	.byte	W96
	.byte	W96
	.byte	W96
	.byte	W96
	.byte		N96	, Fn3
	.byte	W96
	.byte	PATT	
		.word	song0013_11_1
	.byte		N96	, Fn3, v112
	.byte	W96
	.byte	W96
	.byte		N18	, As3
	.byte	W18
	.byte			Bn3
	.byte	W18
	.byte		N60	, Cn4
	.byte	W60
	.byte		N36	
	.byte	W72
	.byte		N24	
	.byte	W24
	.byte		N96	, As2
	.byte	W96
	.byte	W96
	.byte	W96
	.byte	W96
	.byte	W96
	.byte	W96
	.byte	W96
	.byte			Gs3
	.byte	W96
	.byte	W96
	.byte	W96
	.byte	W96
	.byte		N96	
	.byte	W96
	.byte	W96
	.byte	W96
	.byte	W96
	.byte	W96
	.byte	W96
	.byte	W12
	.byte		N12	, Ds3
	.byte	W12
	.byte		N24	
	.byte	W24
	.byte		N12	, Fn3
	.byte	W48
	.byte	W12
	.byte			Fn2
	.byte	W12
	.byte		N12	
	.byte	W12
	.byte		N12	
	.byte	W12
	.byte			Cn3
	.byte	W48
	.byte	GOTO	
		.word	song0013_11_2
	.byte	W96
	.byte	FINE

	@********************** Track  12 **********************@

	.global song0013_12
song0013_12:	@ 0x08C57EF8
	.byte	KEYSH	, 0
	.byte	VOICE	, 112
	.byte	VOL	, v094
	.byte	PAN	, c_v
	.byte	W03
song0013_12_1:
	.byte	W96
	.byte	W96
	.byte	W96
	.byte	W60
	.byte		N24	, Cn3, v112
	.byte	W36
	.byte	W96
	.byte	W96
	.byte	W96
	.byte	W96
	.byte	W96
	.byte	W96
	.byte	W48
	.byte		N48	, Fn3
	.byte	W48
	.byte	W96
	.byte	W96
	.byte	W96
	.byte	W48
	.byte		N48	
	.byte	W48
	.byte	W36
	.byte		N60	, Gn3
	.byte	W60
	.byte		N36	
	.byte	W72
	.byte		N24	
	.byte	W24
	.byte	W96
	.byte	W48
	.byte		N48	, Fn3
	.byte	W48
	.byte	W96
	.byte	W96
	.byte	W96
	.byte	W48
	.byte		N48	
	.byte	W48
	.byte	W96
	.byte	W36
	.byte		N36	, Cn4
	.byte	W60
	.byte	W96
	.byte	W96
	.byte	W96
	.byte		N96	, As2
	.byte	W96
	.byte			Cs3
	.byte	W96
	.byte			Ds3
	.byte	W96
	.byte			Fn3
	.byte	W96
	.byte	W96
	.byte	W96
	.byte	W96
	.byte		N96	
	.byte	W96
	.byte	W96
	.byte	W96
	.byte	W96
	.byte	W96
	.byte	W96
	.byte	W96
	.byte	W60
	.byte		N12	, Cn3
	.byte	W36
	.byte	W96
	.byte	GOTO	
		.word	song0013_12_1
	.byte	W96
	.byte	FINE

	@********************** Track  13 **********************@

	.global song0013_13
song0013_13:	@ 0x08C57F54
	.byte	KEYSH	, 0
	.byte	VOICE	, 103
	.byte	VOL	, v094
	.byte	PAN	, c_v
	.byte	W03
song0013_13_1:
	.byte	W96
	.byte	W96
	.byte	W96
	.byte	W96
	.byte	W96
	.byte	W96
	.byte	W96
	.byte	W96
	.byte	W96
	.byte	W96
	.byte	W96
	.byte	W96
	.byte	W96
	.byte	W96
	.byte	W96
	.byte	W96
	.byte	W96
	.byte	W96
	.byte	W96
	.byte	W96
	.byte	W96
	.byte	W96
	.byte	W96
	.byte	W96
	.byte	W96
	.byte	W96
	.byte	W96
	.byte	W96
	.byte	W84
	.byte	W02
	.byte	BEND	, c_v-37
	.byte		N23	, Gn3, v116
	.byte	W01
	.byte	BEND	, c_v-54
	.byte	W01
	.byte		c_v-49
	.byte	W02
	.byte		c_v-41
	.byte	W01
	.byte		c_v-34
	.byte	W01
	.byte		c_v-22
	.byte	W02
	.byte		c_v
	.byte	W02
	.byte	W13
	.byte		N10	, Fs3
	.byte	W11
	.byte		N11	, Gn3, v092
	.byte	W12
	.byte		N20	, As2, v124
	.byte	W23
	.byte		N10	, Gn3, v096
	.byte	W11
	.byte		N12	, Fs3, v124
	.byte	W12
	.byte		N11	, As2, v112
	.byte	W12
	.byte	BEND	, c_v-10
	.byte	W01
	.byte		c_v-15
	.byte		N11	, An3
	.byte	W01
	.byte	W01
	.byte	BEND	, c_v-17
	.byte	W01
	.byte		c_v-11
	.byte	W01
	.byte		c_v-4
	.byte	W02
	.byte		c_v
	.byte	W06
	.byte		N11	, Gs3, v120
	.byte	W11
	.byte		N12	, An3, v100
	.byte	W13
	.byte		N21	, Cn3, v112
	.byte	W24
	.byte	W01
	.byte		N11	, Cn3, v116
	.byte	W11
	.byte		N12	, Fn3, v104
	.byte	W12
	.byte			An3, v096
	.byte	W13
	.byte		TIE	, Bn3, v104
	.byte	W01
	.byte	BEND	, c_v-7
	.byte	W01
	.byte		c_v-17
	.byte	W02
	.byte		c_v-21
	.byte	W01
	.byte		c_v-20
	.byte	W01
	.byte		c_v-11
	.byte	W02
	.byte		c_v-3
	.byte	W01
	.byte		c_v
	.byte	W60
	.byte	W03
	.byte	VOL	, v092
	.byte	W02
	.byte		v089
	.byte	W02
	.byte		v086
	.byte	W02
	.byte		v084
	.byte	W02
	.byte		v081
	.byte	W02
	.byte		v077
	.byte	W02
	.byte		v075
	.byte	W02
	.byte		v072
	.byte	W02
	.byte		v069
	.byte	W02
	.byte		v066
	.byte	W02
	.byte		v063
	.byte	W02
	.byte		v060
	.byte	W02
	.byte		v058
	.byte	W02
	.byte		v055
	.byte	W02
	.byte		v051
	.byte	W02
	.byte		v049
	.byte	W02
	.byte		v046
	.byte	W02
	.byte		v043
	.byte	W02
	.byte		v040
	.byte	W02
	.byte		v037
	.byte	W02
	.byte		v034
	.byte	W02
	.byte		v032
	.byte	W02
	.byte		v029
	.byte	W02
	.byte		v025
	.byte	W02
	.byte		v023
	.byte	W21
	.byte		EOT	
	.byte	W48
	.byte	W03
	.byte	VOL	, v094
	.byte	W96
	.byte	W96
	.byte	W24
	.byte		N24	, Bn2, v092
	.byte	W24
	.byte			Cn3
	.byte	W24
	.byte			Dn3
	.byte	W24
	.byte			Bn2
	.byte	W24
	.byte		N12	, Cn3
	.byte	W12
	.byte			Dn3
	.byte	W24
	.byte			Bn2
	.byte	W22
	.byte	BEND	, c_v-13
	.byte	W01
	.byte		c_v-20
	.byte	W01
	.byte		c_v-23
	.byte		N36	, Cn3, v112
	.byte	W03
	.byte	BEND	, c_v-22
	.byte	W01
	.byte		c_v-8
	.byte	W02
	.byte		c_v
	.byte	W06
	.byte	W23
	.byte		N12	, Dn3
	.byte	W13
	.byte		N24	, Gn3, v108
	.byte	W23
	.byte		N22	, Fs3
	.byte	W24
	.byte		TIE	, Gn3, v112
	.byte	W13
	.byte	W32
	.byte	W02
	.byte	BEND	, c_v+5
	.byte	W01
	.byte		c_v+21
	.byte	W01
	.byte		c_v+35
	.byte	W02
	.byte		c_v+46
	.byte	W01
	.byte		c_v+63
	.byte	W56
	.byte	W01
	.byte	W72
	.byte		EOT	
	.byte	BEND	, c_v+56
	.byte	W02
	.byte		c_v+49
	.byte	W01
	.byte		c_v+35
	.byte	W01
	.byte		c_v+12
	.byte	W02
	.byte		c_v
	.byte	W18
	.byte	W96
	.byte	W96
	.byte	W96
	.byte	W96
	.byte	GOTO	
		.word	song0013_13_1
	.byte	W96
	.byte	FINE

	@********************** Track  14 **********************@

	.global song0013_14
song0013_14:	@ 0x08C58075
	.byte	KEYSH	, 0
	.byte	VOICE	, 78
	.byte	VOL	, v094
	.byte	PAN	, c_v
	.byte	W03
song0013_14_1:
	.byte	W96
	.byte	W96
	.byte	W96
	.byte	W96
	.byte	W96
	.byte	W96
	.byte	W96
	.byte	W96
	.byte	W96
	.byte	W96
	.byte	W96
	.byte	W96
	.byte	W96
	.byte	W96
	.byte	W96
	.byte	W96
	.byte	W96
	.byte	W96
	.byte	W96
	.byte	W96
	.byte	W96
	.byte	W96
	.byte	W96
	.byte	W96
	.byte	W96
	.byte	W96
	.byte	W96
	.byte	W96
	.byte	W96
	.byte	W24
	.byte		N24	, Fn3, v112
	.byte	W24
	.byte		N06	
	.byte	W12
	.byte		N09	
	.byte	W24
	.byte		N12	, Gn3
	.byte	W12
	.byte	W12
	.byte		N06	
	.byte	W12
	.byte		N06	
	.byte	W24
	.byte		N06	
	.byte	W12
	.byte		N12	
	.byte	W24
	.byte		N96	, An3
	.byte	W12
	.byte	W96
	.byte	W96
	.byte	W96
	.byte	W96
	.byte	W96
	.byte	W96
	.byte	W96
	.byte	W96
	.byte	W96
	.byte	W96
	.byte	W96
	.byte	W96
	.byte	W96
	.byte	GOTO	
		.word	song0013_14_1
	.byte	W96
	.byte	FINE

	@********************** Track  15 **********************@

	.global song0013_15
song0013_15:	@ 0x08C580C7
	.byte	KEYSH	, 0
	.byte	VOICE	, 94
	.byte	VOL	, v094
	.byte	PAN	, c_v
	.byte	W03
song0013_15_1:
	.byte	W96
	.byte	W96
	.byte	W96
	.byte	W96
	.byte	W96
	.byte	W96
	.byte	W96
	.byte	W96
	.byte	W96
	.byte	W96
	.byte	W96
	.byte	W96
	.byte		N06	, An2, v100
	.byte	W06
	.byte			An3
	.byte	W06
	.byte		N06	
	.byte	W06
	.byte			An2
	.byte	W06
	.byte			En2
	.byte	W06
	.byte			En3
	.byte	W06
	.byte		N06	
	.byte	W06
	.byte			En2
	.byte	W06
	.byte			Dn2
	.byte	W06
	.byte			Dn3
	.byte	W06
	.byte		N06	
	.byte	W06
	.byte			Dn2
	.byte	W06
	.byte			En2
	.byte	W06
	.byte			En3
	.byte	W06
	.byte		N06	
	.byte	W06
	.byte			En2
	.byte	W06
	.byte		N03	, An1, v112
	.byte	W03
	.byte		N21	, An2
	.byte	W92
	.byte	W01
	.byte	W96
	.byte	W96
	.byte	W96
	.byte	W96
	.byte	W96
	.byte	W96
	.byte	W96
	.byte	W96
	.byte	W96
	.byte	W96
	.byte	W96
	.byte	W96
	.byte	W96
	.byte	W96
	.byte	W96
	.byte	W96
	.byte	W96
	.byte	W96
	.byte	W96
	.byte	W96
	.byte	W96
	.byte	W96
	.byte	W96
	.byte	W96
	.byte	W96
	.byte	W96
	.byte	W96
	.byte	W96
	.byte	W96
	.byte	W96
	.byte	GOTO	
		.word	song0013_15_1
	.byte	W96
	.byte	FINE

	@********************** Track  16 **********************@

	.global song0013_16
song0013_16:	@ 0x08C5812B
	.byte	KEYSH	, 0
	.byte	VOICE	, 88
	.byte	VOL	, v094
	.byte	PAN	, c_v
	.byte	PRIO	, 10
	.byte	W03
song0013_16_1:
	.byte	W96
	.byte	W96
	.byte	W96
	.byte	W96
	.byte	W96
	.byte	W96
	.byte	W96
	.byte	W96
	.byte	W96
	.byte	W96
	.byte	W96
	.byte	W96
	.byte	W96
	.byte	W96
	.byte	W96
	.byte	W96
	.byte	W96
	.byte	W96
	.byte	W96
	.byte	W96
	.byte	W96
	.byte	W96
	.byte	W96
	.byte	W96
	.byte	W96
	.byte	W96
	.byte	W96
	.byte	W96
	.byte	W96
	.byte	W96
	.byte	W96
	.byte	W23
	.byte		N04	, Fn3, v104
	.byte	W01
	.byte		N24	, Fs3, v124
	.byte	W23
	.byte		N20	, Gn3, v116
	.byte	W22
	.byte		N24	, An3, v120
	.byte	W24
	.byte	W03
	.byte			Fs3, v127
	.byte	W22
	.byte		N13	, Gn3, v108
	.byte	W14
	.byte		N14	, An3, v124
	.byte	W23
	.byte		N15	, Fs3, v127
	.byte	W24
	.byte		N03	, Fs3, v116
	.byte	W01
	.byte		N32	, Gn3, v112
	.byte	W12
	.byte	W21
	.byte		N16	, An3, v116
	.byte	W14
	.byte		N22	, Gn3, v112
	.byte	W24
	.byte		N19	, An3, v100
	.byte	W24
	.byte	W01
	.byte		N05	, An3, v120
	.byte	W01
	.byte		N32	, As3, v116
	.byte	W11
	.byte	W22
	.byte		N14	, An3, v108
	.byte	W13
	.byte		N16	, Gn3
	.byte	W24
	.byte	W01
	.byte		N32	, An3, v116
	.byte	W36
	.byte	W23
	.byte		N08	, Fn3, v127
	.byte	W02
	.byte		N23	, Fs3, v096
	.byte	W23
	.byte		N22	, Gn3, v108
	.byte	W23
	.byte		N21	, An3, v124
	.byte	W24
	.byte		N03	, Fn3, v108
	.byte	W01
	.byte		N24	, Fs3, v120
	.byte	W24
	.byte		N13	, Gn3, v124
	.byte	W11
	.byte		N09	, An3
	.byte	W24
	.byte		N08	, Fs3, v127
	.byte	W24
	.byte		N05	
	.byte	W01
	.byte		N28	, Gn3, v100
	.byte	W12
	.byte	W22
	.byte		N15	, An3, v108
	.byte	W13
	.byte		N02	, Cs4, v127
	.byte	W01
	.byte		N24	, Dn4, v088
	.byte	W24
	.byte		N18	, Cs4, v127
	.byte	W24
	.byte		N40	, Dn4
	.byte	W12
	.byte	W32
	.byte	W02
	.byte		N06	, Ds4, v120
	.byte	W01
	.byte		TIE	, En4, v127
	.byte	W60
	.byte	W01
	.byte	W72
	.byte	BEND	, c_v-10
	.byte	W01
	.byte		c_v-15
	.byte	W01
	.byte		c_v-20
	.byte	W01
	.byte		EOT	
	.byte	W01
	.byte	BEND	, c_v-27
	.byte	W01
	.byte		c_v-31
	.byte	W01
	.byte		c_v-38
	.byte	W02
	.byte		c_v-40
	.byte	W01
	.byte		c_v-41
	.byte	W13
	.byte		c_v
	.byte	W02
	.byte	W96
	.byte	W96
	.byte	W96
	.byte	W96
	.byte	GOTO	
		.word	song0013_16_1
	.byte	W96
	.byte	FINE

	.align 2
	.global song0013
song0013:	@ 0x08C5820C
	.byte	16		@ trackCount
	.byte	0		@ blockCount
	.byte	0		@ priority
	.byte	128		@ reverb

	.word	voicegroup022		@ voicegroup/tone

	.word	song0013_1		@ track
	.word	song0013_2		@ track
	.word	song0013_3		@ track
	.word	song0013_4		@ track
	.word	song0013_5		@ track
	.word	song0013_6		@ track
	.word	song0013_7		@ track
	.word	song0013_8		@ track
	.word	song0013_9		@ track
	.word	song0013_10		@ track
	.word	song0013_11		@ track
	.word	song0013_12		@ track
	.word	song0013_13		@ track
	.word	song0013_14		@ track
	.word	song0013_15		@ track
	.word	song0013_16		@ track
