	.include "MPlayDef.s"

	.section .rodata

	@********************** Track  1 **********************@

	.align 2
	.global song0049_1
song0049_1:	@ 0x08C7BF70
	.byte	KEYSH	, 0
	.byte	TEMPO	, 70
	.byte	VOICE	, 42
	.byte	VOL	, v080
	.byte	PAN	, c_v
	.byte	W03
song0049_1_5:
	.byte		N18	, Dn2, v120
	.byte	W18
	.byte		N06	, Cs2
	.byte	W18
	.byte		N18	, Cn2
	.byte	W18
	.byte		N09	, Bn1
	.byte	W18
	.byte		N06	, As1
	.byte	W12
	.byte		N09	, An1
	.byte	W12
	.byte	PEND
song0049_1_6:
	.byte		N18	, Dn2, v120
	.byte	W18
	.byte		N06	, Cs2
	.byte	W18
	.byte		N18	, Cn2
	.byte	W18
	.byte		N06	, Bn1
	.byte	W18
	.byte			As1
	.byte	W12
	.byte		N09	, An1
	.byte	W12
	.byte	PEND
	.byte	W03
	.byte		N18	, Dn2
	.byte	W18
	.byte		N06	, Cs2
	.byte	W18
	.byte		N18	, Cn2
	.byte	W18
	.byte		N09	, Bn1
	.byte	W18
	.byte		N06	, As1
	.byte	W12
	.byte		N09	, An1
	.byte	W09
	.byte	W03
	.byte		N18	, Dn2
	.byte	W18
	.byte		N06	, Cs2
	.byte	W18
	.byte		N18	, Cn2
	.byte	W18
	.byte		N06	, Bn1
	.byte	W18
	.byte			As1
	.byte	W12
	.byte		N09	, An1
	.byte	W09
song0049_1_1:
	.byte		N06	, Dn2, v127
	.byte	W06
	.byte			Dn3
	.byte	W06
	.byte			Dn2
	.byte	W06
	.byte		N06	
	.byte	W06
	.byte		N06	
	.byte	W06
	.byte			Dn3
	.byte	W06
	.byte			Dn2
	.byte	W06
	.byte		N06	
	.byte	W06
	.byte		N06	
	.byte	W06
	.byte			Dn3
	.byte	W06
	.byte			Dn2
	.byte	W06
	.byte		N06	
	.byte	W06
	.byte		N06	
	.byte	W06
	.byte			Dn3
	.byte	W06
	.byte			Dn2
	.byte	W06
	.byte		N06	
	.byte	W06
	.byte	PEND
song0049_1_2:
	.byte		N06	, Dn2, v127
	.byte	W06
	.byte			Dn3
	.byte	W06
	.byte			Dn2
	.byte	W06
	.byte		N06	
	.byte	W06
	.byte		N06	
	.byte	W06
	.byte			Dn3
	.byte	W06
	.byte			Dn2
	.byte	W06
	.byte		N06	
	.byte	W06
	.byte		N06	
	.byte	W06
	.byte			Dn3
	.byte	W06
	.byte			Dn2
	.byte	W06
	.byte		N06	
	.byte	W06
	.byte		N06	
	.byte	W06
	.byte			Dn4
	.byte	W06
	.byte			Dn3
	.byte	W06
	.byte			Dn2
	.byte	W06
	.byte	PEND
song0049_1_3:
	.byte		N06	, Ds2, v127
	.byte	W06
	.byte			Ds3
	.byte	W06
	.byte			Ds2
	.byte	W06
	.byte		N06	
	.byte	W06
	.byte		N06	
	.byte	W06
	.byte			Ds3
	.byte	W06
	.byte			Ds2
	.byte	W06
	.byte		N06	
	.byte	W06
	.byte		N06	
	.byte	W06
	.byte			Ds3
	.byte	W06
	.byte			Ds2
	.byte	W06
	.byte		N06	
	.byte	W06
	.byte		N06	
	.byte	W06
	.byte			Ds3
	.byte	W06
	.byte			Ds2
	.byte	W06
	.byte		N06	
	.byte	W06
	.byte	PEND
song0049_1_4:
	.byte		N06	, Ds2, v127
	.byte	W06
	.byte			Ds3
	.byte	W06
	.byte			Ds2
	.byte	W06
	.byte		N06	
	.byte	W06
	.byte		N06	
	.byte	W06
	.byte			Ds3
	.byte	W06
	.byte			Ds2
	.byte	W06
	.byte		N06	
	.byte	W06
	.byte		N06	
	.byte	W06
	.byte			Ds3
	.byte	W06
	.byte			Ds2
	.byte	W06
	.byte		N06	
	.byte	W06
	.byte		N06	
	.byte	W06
	.byte			Ds4
	.byte	W06
	.byte			Ds3
	.byte	W06
	.byte			Ds2
	.byte	W06
	.byte	PEND
	.byte	PATT	
		.word	song0049_1_1
	.byte	PATT	
		.word	song0049_1_2
	.byte	PATT	
		.word	song0049_1_3
	.byte	PATT	
		.word	song0049_1_4
	.byte	PATT	
		.word	song0049_1_5
	.byte	PATT	
		.word	song0049_1_6
	.byte	PATT	
		.word	song0049_1_5
	.byte	PATT	
		.word	song0049_1_6
	.byte	PATT	
		.word	song0049_1_1
	.byte	PATT	
		.word	song0049_1_2
	.byte	PATT	
		.word	song0049_1_3
	.byte	PATT	
		.word	song0049_1_4
	.byte	PATT	
		.word	song0049_1_1
	.byte	PATT	
		.word	song0049_1_2
	.byte	PATT	
		.word	song0049_1_3
	.byte	PATT	
		.word	song0049_1_4
	.byte	PATT	
		.word	song0049_1_1
	.byte	PATT	
		.word	song0049_1_2
	.byte	PATT	
		.word	song0049_1_3
	.byte	PATT	
		.word	song0049_1_4
	.byte	PATT	
		.word	song0049_1_1
	.byte	PATT	
		.word	song0049_1_2
	.byte	PATT	
		.word	song0049_1_3
	.byte	PATT	
		.word	song0049_1_4
	.byte	GOTO	
		.word	song0049_1_5
	.byte		N06	, Dn2, v127
	.byte	W06
	.byte			Dn3
	.byte	W06
	.byte			Dn2
	.byte	W06
	.byte		N06	
	.byte	W06
	.byte		N06	
	.byte	W06
	.byte			Dn3
	.byte	W06
	.byte			Dn2
	.byte	W06
	.byte		N06	
	.byte	W06
	.byte	FINE

	@********************** Track  2 **********************@

	.global song0049_2
song0049_2:	@ 0x08C7C0E3
	.byte	KEYSH	, 0
	.byte	VOICE	, 127
	.byte	VOL	, v084
	.byte	PAN	, c_v
	.byte	W03
song0049_2_1:
	.byte		N18	, Ds2, v120
	.byte	W24
	.byte		N18	
	.byte	W24
	.byte		N18	
	.byte	W18
	.byte		N06	, Ds2, v112
	.byte	W06
	.byte		N12	, Ds2, v120
	.byte	W12
	.byte		N12	
	.byte	W12
	.byte	PEND
song0049_2_2:
	.byte		N18	, Ds2, v120
	.byte	W24
	.byte		N18	
	.byte	W24
	.byte		N18	
	.byte	W24
	.byte		N18	
	.byte	W24
	.byte	PEND
	.byte	PATT	
		.word	song0049_2_1
	.byte	PATT	
		.word	song0049_2_2
	.byte	VOICE	, 127
	.byte	VOL	, v084
	.byte	PAN	, c_v
	.byte		N18	, Ds2, v120
	.byte	W24
	.byte		N18	
	.byte	W24
	.byte		N18	
	.byte	W24
	.byte		N18	
	.byte	W24
song0049_2_3:
	.byte		N18	, Ds2, v120
	.byte	W24
	.byte		N18	
	.byte	W24
	.byte		N18	
	.byte	W18
	.byte		N06	, Ds2, v112
	.byte	W30
	.byte	PEND
	.byte	PATT	
		.word	song0049_2_2
	.byte	PATT	
		.word	song0049_2_1
	.byte	PATT	
		.word	song0049_2_2
	.byte	PATT	
		.word	song0049_2_3
	.byte	PATT	
		.word	song0049_2_2
	.byte	PATT	
		.word	song0049_2_1
	.byte	PATT	
		.word	song0049_2_1
	.byte	PATT	
		.word	song0049_2_2
	.byte	PATT	
		.word	song0049_2_1
	.byte	PATT	
		.word	song0049_2_2
	.byte	PATT	
		.word	song0049_2_2
	.byte	PATT	
		.word	song0049_2_3
	.byte	PATT	
		.word	song0049_2_2
	.byte	PATT	
		.word	song0049_2_1
	.byte	PATT	
		.word	song0049_2_2
	.byte	PATT	
		.word	song0049_2_1
	.byte	PATT	
		.word	song0049_2_2
	.byte	PATT	
		.word	song0049_2_1
	.byte	PATT	
		.word	song0049_2_2
	.byte	PATT	
		.word	song0049_2_3
	.byte	PATT	
		.word	song0049_2_2
	.byte	PATT	
		.word	song0049_2_1
	.byte	PATT	
		.word	song0049_2_2
	.byte	PATT	
		.word	song0049_2_3
	.byte	PATT	
		.word	song0049_2_2
	.byte	PATT	
		.word	song0049_2_1
	.byte	GOTO	
		.word	song0049_2_1
	.byte		N18	, Ds2, v120
	.byte	W24
	.byte		N18	
	.byte	W18
	.byte	FINE

	@********************** Track  3 **********************@

	.global song0049_3
song0049_3:	@ 0x08C7C1BF
	.byte	KEYSH	, 0
	.byte	VOICE	, 127
	.byte	VOL	, v080
	.byte	W03
song0049_3_1:
	.byte		N12	, Ds1, v072
	.byte	W12
	.byte		N06	, Dn1, v060
	.byte	W06
	.byte			Dn1, v052
	.byte	W06
	.byte		N12	, Ds1, v072
	.byte	W12
	.byte		N06	, Dn1, v060
	.byte	W06
	.byte			Dn1, v052
	.byte	W06
	.byte		N12	, Ds1, v072
	.byte	W12
	.byte		N06	, Dn1, v060
	.byte	W06
	.byte			Dn1, v052
	.byte	W06
	.byte		N12	, Ds1, v072
	.byte	W12
	.byte		N06	, Dn1, v060
	.byte	W06
	.byte			Dn1, v052
	.byte	W06
	.byte	PEND
	.byte	PATT	
		.word	song0049_3_1
	.byte	PATT	
		.word	song0049_3_1
	.byte	PATT	
		.word	song0049_3_1
	.byte	VOICE	, 127
	.byte	VOL	, v080
	.byte		N24	, Cs2, v127
	.byte	W12
	.byte		N06	, Dn1, v060
	.byte	W06
	.byte			Dn1, v052
	.byte	W06
	.byte		N12	, Ds1, v072
	.byte	W12
	.byte		N06	, Dn1, v060
	.byte	W06
	.byte			Dn1, v052
	.byte	W06
	.byte		N12	, Ds1, v072
	.byte	W12
	.byte		N06	, Dn1, v060
	.byte	W06
	.byte			Dn1, v052
	.byte	W06
	.byte		N12	, Ds1, v072
	.byte	W12
	.byte		N06	, Dn1, v060
	.byte	W06
	.byte			Dn1, v052
	.byte	W06
song0049_3_2:
	.byte		N12	, Ds1, v072
	.byte	W12
	.byte		N06	, Dn1, v060
	.byte	W06
	.byte			Dn1, v052
	.byte	W06
	.byte		N12	, Ds1, v072
	.byte	W12
	.byte		N06	, Dn1, v060
	.byte	W06
	.byte			Dn1, v052
	.byte	W06
	.byte			En1, v080
	.byte	W06
	.byte			Dn1, v060
	.byte	W06
	.byte			Ds1, v072
	.byte	W06
	.byte			Dn1, v060
	.byte	W06
	.byte			En1, v080
	.byte	W06
	.byte			Dn1, v060
	.byte	W06
	.byte			Ds1, v072
	.byte	W06
	.byte			Dn1, v060
	.byte	W06
	.byte	PEND
song0049_3_4:
	.byte		N11	, Ds1, v072
	.byte	W12
	.byte		N06	, Dn1, v060
	.byte	W06
	.byte			Dn1, v052
	.byte	W06
	.byte		N12	, Ds1, v072
	.byte	W12
	.byte		N06	, Dn1, v060
	.byte	W06
	.byte			Dn1, v052
	.byte	W06
	.byte		N12	, Ds1, v072
	.byte	W12
	.byte		N06	, Dn1, v060
	.byte	W06
	.byte			Dn1, v052
	.byte	W06
	.byte		N12	, Ds1, v072
	.byte	W12
	.byte		N06	, Dn1, v060
	.byte	W06
	.byte			Dn1, v052
	.byte	W06
	.byte	PEND
	.byte	PATT	
		.word	song0049_3_2
	.byte		N36	, Fs2, v120
	.byte	W12
	.byte		N06	, Dn1, v060
	.byte	W06
	.byte			Dn1, v052
	.byte	W06
	.byte			Dn1, v072
	.byte	W06
	.byte			Dn1, v052
	.byte	W06
	.byte			Dn1, v060
	.byte	W06
	.byte			Dn1, v052
	.byte	W06
	.byte			Dn1, v072
	.byte	W06
	.byte			Dn1, v052
	.byte	W06
	.byte			Dn1, v060
	.byte	W06
	.byte			Dn1, v052
	.byte	W06
	.byte			Dn1, v072
	.byte	W02
	.byte		N11	, Cs5, v004
	.byte	W04
	.byte		N06	, Dn1, v052
	.byte	W06
	.byte			Dn1, v060
	.byte	W06
	.byte			Dn1, v052
	.byte	W06
song0049_3_5:
	.byte		N06	, Dn1, v072
	.byte	W06
	.byte			Dn1, v052
	.byte	W06
	.byte			Dn1, v060
	.byte	W06
	.byte			Dn1, v052
	.byte	W06
	.byte			Dn1, v072
	.byte	W06
	.byte			Dn1, v052
	.byte	W06
	.byte			Dn1, v060
	.byte	W06
	.byte			Dn1, v052
	.byte	W06
	.byte			Ds1, v072
	.byte	W06
	.byte			Dn1, v052
	.byte	W06
	.byte			Dn1, v060
	.byte	W06
	.byte			Dn1, v052
	.byte	W06
	.byte			Dn1, v072
	.byte	W06
	.byte			Dn1, v052
	.byte	W06
	.byte			Ds1, v072
	.byte	W06
	.byte			Dn1, v052
	.byte	W06
	.byte	PEND
song0049_3_6:
	.byte		N06	, Dn1, v072
	.byte	W06
	.byte			Dn1, v052
	.byte	W06
	.byte			Dn1, v060
	.byte	W06
	.byte			Dn1, v052
	.byte	W06
	.byte			Dn1, v072
	.byte	W06
	.byte			Dn1, v052
	.byte	W06
	.byte			Dn1, v060
	.byte	W06
	.byte			Dn1, v052
	.byte	W06
	.byte			Dn1, v072
	.byte	W06
	.byte			Dn1, v052
	.byte	W06
	.byte			Dn1, v060
	.byte	W06
	.byte			Dn1, v052
	.byte	W06
	.byte			Dn1, v072
	.byte	W06
	.byte			Dn1, v052
	.byte	W06
	.byte			Dn1, v060
	.byte	W06
	.byte			Dn1, v052
	.byte	W06
	.byte	PEND
song0049_3_7:
	.byte		N06	, Dn1, v072
	.byte	W06
	.byte			Dn1, v052
	.byte	W06
	.byte			Dn1, v060
	.byte	W06
	.byte			Dn1, v052
	.byte	W06
	.byte			Dn1, v072
	.byte	W06
	.byte			Dn1, v052
	.byte	W06
	.byte			Dn1, v060
	.byte	W06
	.byte			Dn1, v052
	.byte	W06
	.byte			Dn1, v072
	.byte	W06
	.byte			Dn1, v052
	.byte	W06
	.byte			Ds1, v080
	.byte	W06
	.byte			Dn1, v052
	.byte	W06
	.byte			Dn1, v072
	.byte	W06
	.byte			Dn1, v052
	.byte	W06
	.byte		N12	, Ds1, v080
	.byte	W12
	.byte	PEND
	.byte	PATT	
		.word	song0049_3_1
	.byte	PATT	
		.word	song0049_3_1
	.byte	PATT	
		.word	song0049_3_1
	.byte	PATT	
		.word	song0049_3_1
	.byte		N24	, Cs2, v120
	.byte	W12
	.byte		N06	, Dn1, v060
	.byte	W06
	.byte			Dn1, v052
	.byte	W06
	.byte		N12	, Ds1, v072
	.byte	W12
	.byte		N06	, Dn1, v060
	.byte	W06
	.byte			Dn1, v052
	.byte	W06
	.byte		N12	, Ds1, v072
	.byte	W12
	.byte		N06	, Dn1, v060
	.byte	W06
	.byte			Dn1, v052
	.byte	W06
	.byte		N12	, Ds1, v072
	.byte	W12
	.byte		N06	, Dn1, v060
	.byte	W06
	.byte			Dn1, v052
	.byte	W06
	.byte	PATT	
		.word	song0049_3_1
	.byte	PATT	
		.word	song0049_3_1
	.byte		N12	, Ds1, v072
	.byte	W12
	.byte		N06	, Dn1, v060
	.byte	W06
	.byte			Dn1, v052
	.byte	W06
	.byte		N12	, Ds1, v072
	.byte	W12
	.byte		N06	, Dn1, v060
	.byte	W06
	.byte			Dn1, v052
	.byte	W06
	.byte			Ds1, v060
	.byte	W06
	.byte		N06	
	.byte	W06
	.byte			En1
	.byte	W06
	.byte			Ds1
	.byte	W06
	.byte		N06	
	.byte	W06
	.byte		N06	
	.byte	W06
	.byte			En1
	.byte	W06
	.byte			Ds1
	.byte	W06
	.byte		N24	, Fs2, v120
	.byte	W12
	.byte		N06	, Dn1, v060
	.byte	W06
	.byte			Dn1, v052
	.byte	W06
	.byte		N12	, En1, v072
	.byte	W12
	.byte		N06	, Ds1, v060
	.byte	W06
	.byte			Ds1, v052
	.byte	W06
	.byte		N12	, En1, v072
	.byte	W12
	.byte		N06	, Ds1, v060
	.byte	W06
	.byte			Ds1, v052
	.byte	W06
	.byte		N12	, En1, v072
	.byte	W12
	.byte		N06	, Ds1, v060
	.byte	W06
	.byte			Ds1, v052
	.byte	W06
song0049_3_3:
	.byte		N12	, En1, v072
	.byte	W12
	.byte		N06	, Ds1, v060
	.byte	W06
	.byte			Ds1, v052
	.byte	W06
	.byte		N12	, En1, v072
	.byte	W12
	.byte		N06	, Ds1, v060
	.byte	W06
	.byte			Ds1, v052
	.byte	W06
	.byte		N12	, En1, v072
	.byte	W12
	.byte		N06	, Ds1, v060
	.byte	W06
	.byte			Ds1, v052
	.byte	W06
	.byte		N12	, En1, v072
	.byte	W12
	.byte		N06	, Ds1, v060
	.byte	W06
	.byte			Ds1, v052
	.byte	W06
	.byte	PEND
	.byte	PATT	
		.word	song0049_3_3
	.byte		N12	, En1, v072
	.byte	W12
	.byte		N06	, Ds1, v060
	.byte	W06
	.byte			Ds1, v052
	.byte	W06
	.byte		N12	, En1, v072
	.byte	W12
	.byte		N06	, Ds1, v060
	.byte	W06
	.byte			Ds1, v052
	.byte	W06
	.byte			En1, v060
	.byte	W06
	.byte		N06	
	.byte	W06
	.byte			Fn1
	.byte	W06
	.byte			En1
	.byte	W06
	.byte		N06	
	.byte	W06
	.byte		N06	
	.byte	W06
	.byte			Fn1
	.byte	W06
	.byte			En1
	.byte	W06
	.byte		N24	, Cs2, v127
	.byte	W12
	.byte		N06	, Dn1, v060
	.byte	W06
	.byte			Dn1, v052
	.byte	W06
	.byte		N12	, Ds1, v072
	.byte	W12
	.byte		N06	, Dn1, v060
	.byte	W06
	.byte			Dn1, v052
	.byte	W06
	.byte		N12	, Ds1, v072
	.byte	W12
	.byte		N06	, Dn1, v060
	.byte	W06
	.byte			Dn1, v052
	.byte	W06
	.byte		N12	, Ds1, v072
	.byte	W12
	.byte		N06	, Dn1, v060
	.byte	W06
	.byte			Dn1, v052
	.byte	W06
	.byte	PATT	
		.word	song0049_3_2
	.byte	PATT	
		.word	song0049_3_4
	.byte	PATT	
		.word	song0049_3_2
	.byte		N36	, Fs2, v120
	.byte	W12
	.byte		N06	, Dn1, v060
	.byte	W06
	.byte			Dn1, v052
	.byte	W06
	.byte			Dn1, v072
	.byte	W06
	.byte			Dn1, v052
	.byte	W06
	.byte			Dn1, v060
	.byte	W06
	.byte			Dn1, v052
	.byte	W06
	.byte			Dn1, v072
	.byte	W06
	.byte			Dn1, v052
	.byte	W06
	.byte			Dn1, v060
	.byte	W06
	.byte			Dn1, v052
	.byte	W06
	.byte			Dn1, v072
	.byte	W06
	.byte			Dn1, v052
	.byte	W06
	.byte			Dn1, v060
	.byte	W06
	.byte			Dn1, v052
	.byte	W06
	.byte	PATT	
		.word	song0049_3_5
	.byte	PATT	
		.word	song0049_3_6
	.byte	PATT	
		.word	song0049_3_7
	.byte	GOTO	
		.word	song0049_3_1
	.byte		N24	, Cs2, v120
	.byte	W12
	.byte		N06	, Dn1, v060
	.byte	W06
	.byte			Dn1, v052
	.byte	W06
	.byte		N12	, Ds1, v072
	.byte	W12
	.byte		N06	, Dn1, v060
	.byte	W06
	.byte			Dn1, v052
	.byte	W06
	.byte	FINE

	@********************** Track  4 **********************@

	.global song0049_4
song0049_4:	@ 0x08C7C4E6
	.byte	KEYSH	, 0
	.byte	VOICE	, 93
	.byte	VOL	, v080
	.byte	MOD	, 50
	.byte	LFOS	, 40
	.byte	MODT	, 1
	.byte	PRIO	, 10
	.byte	PAN	, c_v
	.byte	W03
song0049_4_5:
	.byte	W96
	.byte	W96
	.byte	W96
	.byte	W96
song0049_4_1:
	.byte	W12
	.byte		N11	, Fn3, v124
	.byte		N11	, Dn4
	.byte	W12
	.byte		N17	, Fn3, v116
	.byte		N17	, Dn4
	.byte	W18
	.byte		N11	, Fn3, v104
	.byte		N11	, Dn4
	.byte	W12
	.byte		N17	, Fn3, v096
	.byte		N17	, Dn4
	.byte	W18
	.byte			Fn3, v080
	.byte		N17	, Dn4
	.byte	W18
	.byte			Fn3, v068
	.byte		N17	, Dn4
	.byte	W06
	.byte	PEND
song0049_4_2:
	.byte	W12
	.byte		N17	, Fn3, v056
	.byte		N17	, Dn4
	.byte	W18
	.byte			Fn3, v044
	.byte		N17	, Dn4
	.byte	W18
	.byte			Fn3, v028
	.byte		N17	, Dn4
	.byte	W18
	.byte			Fn3, v016
	.byte		N17	, Dn4
	.byte	W18
	.byte		N23	, Fn3, v004
	.byte		N23	, Dn4
	.byte	W12
	.byte	PEND
song0049_4_3:
	.byte	W12
	.byte		N11	, Gn3, v124
	.byte		N11	, Ds4
	.byte	W12
	.byte		N17	, Gn3, v116
	.byte		N17	, Ds4
	.byte	W18
	.byte		N11	, Gn3, v104
	.byte		N11	, Ds4
	.byte	W12
	.byte		N17	, Gn3, v096
	.byte		N17	, Ds4
	.byte	W18
	.byte			Gn3, v080
	.byte		N17	, Ds4
	.byte	W18
	.byte			Gn3, v068
	.byte		N17	, Ds4
	.byte	W06
	.byte	PEND
	.byte	W12
	.byte			Gn3, v056
	.byte		N17	, Ds4
	.byte	W18
	.byte			Gn3, v044
	.byte		N17	, Ds4
	.byte	W18
	.byte			Gn3, v028
	.byte		N17	, Ds4
	.byte	W11
	.byte		N11	, An4, v004
	.byte	W07
	.byte		N17	, Gn3, v016
	.byte		N17	, Ds4
	.byte	W18
	.byte		N11	, Gn3, v004
	.byte		N11	, Ds4
	.byte	W12
	.byte	PATT	
		.word	song0049_4_1
	.byte	PATT	
		.word	song0049_4_2
	.byte	PATT	
		.word	song0049_4_3
song0049_4_4:
	.byte	W12
	.byte		N17	, Gn3, v056
	.byte		N17	, Ds4
	.byte	W18
	.byte			Gn3, v044
	.byte		N17	, Ds4
	.byte	W18
	.byte			Gn3, v028
	.byte		N17	, Ds4
	.byte	W18
	.byte			Gn3, v016
	.byte		N17	, Ds4
	.byte	W18
	.byte		N11	, Gn3, v004
	.byte		N11	, Ds4
	.byte	W12
	.byte	PEND
	.byte	W96
	.byte	W96
	.byte	W96
	.byte	W96
	.byte	PATT	
		.word	song0049_4_1
	.byte	PATT	
		.word	song0049_4_2
	.byte	PATT	
		.word	song0049_4_3
	.byte	PATT	
		.word	song0049_4_4
	.byte	PATT	
		.word	song0049_4_1
	.byte	PATT	
		.word	song0049_4_2
	.byte	PATT	
		.word	song0049_4_3
	.byte	PATT	
		.word	song0049_4_4
	.byte	PATT	
		.word	song0049_4_1
	.byte	PATT	
		.word	song0049_4_2
	.byte	PATT	
		.word	song0049_4_3
	.byte	PATT	
		.word	song0049_4_4
	.byte	PATT	
		.word	song0049_4_1
	.byte	PATT	
		.word	song0049_4_2
	.byte	PATT	
		.word	song0049_4_3
	.byte	PATT	
		.word	song0049_4_4
	.byte	GOTO	
		.word	song0049_4_5
	.byte	W12
	.byte		N11	, Fn3, v124
	.byte		N11	, Dn4
	.byte	W12
	.byte		N17	, Fn3, v116
	.byte		N17	, Dn4
	.byte	W18
	.byte		N11	, Fn3, v104
	.byte		N11	, Dn4
	.byte	W11
	.byte	FINE

	@********************** Track  5 **********************@

	.global song0049_5
song0049_5:	@ 0x08C7C619
	.byte	KEYSH	, 0
	.byte	VOICE	, 85
	.byte	VOL	, v064
	.byte	MOD	, 50
	.byte	LFOS	, 40
	.byte	MODT	, 1
	.byte	PRIO	, 5
	.byte	PAN	, c_v-30
	.byte	W03
song0049_5_2:
	.byte	W96
song0049_5_1:
	.byte		N18	, Dn3, v112
	.byte	W18
	.byte		N06	, Cs3
	.byte	W18
	.byte		N18	, Cn3
	.byte	W18
	.byte		N06	, Bn2
	.byte	W18
	.byte			As2
	.byte	W12
	.byte		N09	, An2
	.byte	W12
	.byte	PEND
	.byte	W96
	.byte	PATT	
		.word	song0049_5_1
	.byte	W96
	.byte	W96
	.byte	W96
	.byte	W96
	.byte	W96
	.byte	W96
	.byte	W96
	.byte	W96
	.byte	W96
	.byte	PATT	
		.word	song0049_5_1
	.byte	W96
	.byte	PATT	
		.word	song0049_5_1
	.byte	W96
	.byte	W96
	.byte	W96
	.byte	W96
	.byte	W96
	.byte	W96
	.byte	W96
	.byte	W96
	.byte	W96
	.byte	W96
	.byte	W96
	.byte	W96
	.byte	W96
	.byte	W96
	.byte	W96
	.byte	W96
	.byte	GOTO	
		.word	song0049_5_2
	.byte	FINE

	@********************** Track  6 **********************@

	.global song0049_6
song0049_6:	@ 0x08C7C66E
	.byte	KEYSH	, 0
	.byte	VOICE	, 2
	.byte	VOL	, v036
	.byte	PAN	, c_v-30
	.byte	MOD	, 2
	.byte	LFOS	, 20
	.byte	MODT	, 0
	.byte	W03
song0049_6_5:
	.byte	W96
	.byte	W96
	.byte	W96
	.byte	W96
	.byte	VOICE	, 2
	.byte	VOL	, v036
	.byte	PAN	, c_v-30
	.byte	MOD	, 2
	.byte	LFOS	, 20
	.byte	MODT	, 0
	.byte	W12
	.byte		N11	, Dn5, v124
	.byte	W12
	.byte		N17	, Dn5, v116
	.byte	W18
	.byte		N11	, Dn5, v104
	.byte	W12
	.byte		N17	, Dn5, v096
	.byte	W18
	.byte			Dn5, v080
	.byte	W18
	.byte			Dn5, v068
	.byte	W06
song0049_6_1:
	.byte	W12
	.byte		N17	, Dn5, v056
	.byte	W18
	.byte			Dn5, v044
	.byte	W18
	.byte			Dn5, v028
	.byte	W18
	.byte			Dn5, v016
	.byte	W18
	.byte		N23	, Dn5, v004
	.byte	W12
	.byte	PEND
	.byte	W12
	.byte		N11	, Ds5, v124
	.byte	W12
	.byte		N17	, Ds5, v116
	.byte	W18
	.byte		N11	, Ds5, v104
	.byte	W12
	.byte		N17	, Ds5, v096
	.byte	W18
	.byte			Ds5, v080
	.byte	W18
	.byte			Ds5, v068
	.byte	W06
song0049_6_2:
	.byte	W12
	.byte		N17	, Ds5, v056
	.byte	W18
	.byte			Ds5, v044
	.byte	W18
	.byte			Ds5, v028
	.byte	W18
	.byte			Ds5, v016
	.byte	W18
	.byte		N05	, Ds5, v004
	.byte	W12
	.byte	PEND
	.byte	VOL	, v036
	.byte	W12
	.byte		N11	, Dn5, v124
	.byte	W12
	.byte		N17	, Dn5, v116
	.byte	W18
	.byte		N11	, Dn5, v104
	.byte	W12
	.byte		N17	, Dn5, v096
	.byte	W18
	.byte			Dn5, v080
	.byte	W18
	.byte			Dn5, v068
	.byte	W06
	.byte	PATT	
		.word	song0049_6_1
	.byte	W12
	.byte		N11	, Ds5, v124
	.byte	W12
	.byte		N17	, Ds5, v116
	.byte	W18
	.byte		N11	, Ds5, v104
	.byte	W12
	.byte			Cs5, v004
	.byte		N17	, Ds5, v096
	.byte	W18
	.byte			Ds5, v080
	.byte	W18
	.byte			Ds5, v068
	.byte	W06
	.byte	PATT	
		.word	song0049_6_2
	.byte	W96
	.byte	W96
	.byte	W96
	.byte	W96
	.byte	VOL	, v066
	.byte	W48
	.byte		N06	, Dn5, v100
	.byte	W06
	.byte			An4
	.byte	W06
	.byte			Fn4
	.byte	W06
	.byte			An4
	.byte	W06
	.byte			Fn4
	.byte	W06
	.byte			Dn4
	.byte	W06
	.byte			Fn4
	.byte	W06
	.byte			Dn4
	.byte	W06
song0049_6_3:
	.byte		N06	, An4, v100
	.byte	W06
	.byte			Fn4
	.byte	W06
	.byte			Dn4
	.byte	W06
	.byte			Fn4
	.byte	W06
	.byte			Dn4
	.byte	W06
	.byte			An3
	.byte	W06
	.byte			Dn4
	.byte	W06
	.byte			An3
	.byte	W06
	.byte			Fn4
	.byte	W06
	.byte			Dn4
	.byte	W06
	.byte			An3
	.byte	W06
	.byte			Dn4
	.byte	W06
	.byte			An3
	.byte	W06
	.byte			Fn3
	.byte	W06
	.byte			An3
	.byte	W06
	.byte			Fn3
	.byte	W06
	.byte	PEND
song0049_6_4:
	.byte		N06	, Ds3, v096
	.byte	W06
	.byte			Gn3, v088
	.byte	W06
	.byte			Ds3, v084
	.byte	W06
	.byte			As2, v076
	.byte	W06
	.byte			Ds3, v068
	.byte	W06
	.byte			As2, v060
	.byte	W06
	.byte			Gn2, v052
	.byte	W06
	.byte			As2, v048
	.byte	W06
	.byte			Gn2, v040
	.byte	W06
	.byte			Ds2, v032
	.byte	W06
	.byte			Gn2, v024
	.byte	W06
	.byte			Ds2, v016
	.byte	W06
	.byte			As1, v012
	.byte	W24
	.byte	PEND
	.byte	W96
	.byte	W48
	.byte			Dn5, v100
	.byte	W06
	.byte			An4
	.byte	W06
	.byte			Fn4
	.byte	W06
	.byte			An4
	.byte	W06
	.byte			Fn4
	.byte	W06
	.byte			Dn4
	.byte	W06
	.byte			Fn4
	.byte	W06
	.byte			Dn4
	.byte	W06
	.byte	PATT	
		.word	song0049_6_3
	.byte	PATT	
		.word	song0049_6_4
	.byte	W92
	.byte	W03
	.byte	VOL	, v083
	.byte	PAN	, c_v
	.byte		N04	, Cs3, v076
	.byte	W01
	.byte	W03
	.byte		TIE	, Dn3, v108
	.byte	W92
	.byte	W01
	.byte	W48
	.byte	W01
	.byte		N28	, An2, v092
	.byte	W01
	.byte		EOT	, Dn3
	.byte	W23
	.byte		N18	, Gn3, v096
	.byte	W16
	.byte		N04	, Fs3, v068
	.byte	W04
	.byte		N06	, Fn3, v108
	.byte	W03
	.byte	W01
	.byte		TIE	, Ds3, v104
	.byte	W92
	.byte	W03
	.byte	W72
	.byte	W02
	.byte		N20	, Fn3, v096
	.byte	W02
	.byte		EOT	, Ds3
	.byte	W14
	.byte		N07	, En3, v092
	.byte	W05
	.byte			Ds3, v100
	.byte	W01
	.byte	W05
	.byte		TIE	, Dn3, v092
	.byte	W90
	.byte	W01
	.byte	W44
	.byte	W03
	.byte		N28	, An2, v088
	.byte	W01
	.byte		EOT	, Dn3
	.byte	W24
	.byte		N19	, Gn3, v096
	.byte	W15
	.byte		N04	, Fs3, v076
	.byte	W04
	.byte		N07	, Fn3, v108
	.byte	W05
	.byte		TIE	, Ds3, v088
	.byte	W96
	.byte	W80
	.byte	W02
	.byte		EOT	
	.byte	W14
	.byte	GOTO	
		.word	song0049_6_5
	.byte	FINE

	@********************** Track  7 **********************@

	.global song0049_7
song0049_7:	@ 0x08C7C803
	.byte	KEYSH	, 0
	.byte	VOICE	, 12
	.byte	VOL	, v036
	.byte	PAN	, c_v+30
	.byte	MOD	, 50
	.byte	LFOS	, 40
	.byte	MODT	, 1
	.byte	W03
song0049_7_6:
	.byte	VOL	, v036
	.byte	PAN	, c_v+30
	.byte	W96
	.byte	W96
	.byte	W96
	.byte	W96
	.byte	VOICE	, 12
	.byte	VOL	, v036
	.byte	PAN	, c_v+30
	.byte	MOD	, 50
	.byte	LFOS	, 40
	.byte	MODT	, 1
	.byte	W03
	.byte	VOL	, v036
	.byte	PAN	, c_v+30
	.byte	W09
	.byte		N11	, Fn4, v124
	.byte	W12
	.byte		N17	, Fn4, v116
	.byte	W18
	.byte		N11	, Fn4, v104
	.byte	W12
	.byte		N17	, Fn4, v096
	.byte	W18
	.byte			Fn4, v080
	.byte	W18
	.byte			Fn4, v068
	.byte	W06
song0049_7_1:
	.byte	W12
	.byte		N17	, Fn4, v056
	.byte	W18
	.byte			Fn4, v044
	.byte	W18
	.byte			Fn4, v028
	.byte	W18
	.byte			Fn4, v016
	.byte	W18
	.byte		N23	, Fn4, v004
	.byte	W12
	.byte	PEND
song0049_7_2:
	.byte	W12
	.byte		N11	, Gn4, v124
	.byte	W12
	.byte		N17	, Gn4, v116
	.byte	W18
	.byte		N11	, Gn4, v104
	.byte	W12
	.byte		N17	, Gn4, v096
	.byte	W18
	.byte			Gn4, v080
	.byte	W18
	.byte			Gn4, v068
	.byte	W06
	.byte	PEND
song0049_7_3:
	.byte	W12
	.byte		N17	, Gn4, v056
	.byte	W18
	.byte			Gn4, v044
	.byte	W18
	.byte			Gn4, v028
	.byte	W18
	.byte			Gn4, v016
	.byte	W18
	.byte		N05	, Gn4, v004
	.byte	W12
	.byte	PEND
	.byte	VOL	, v036
	.byte	W12
	.byte		N11	, Fn4, v124
	.byte	W12
	.byte		N17	, Fn4, v116
	.byte	W18
	.byte		N11	, Fn4, v104
	.byte	W12
	.byte		N17	, Fn4, v096
	.byte	W18
	.byte			Fn4, v080
	.byte	W18
	.byte			Fn4, v068
	.byte	W06
	.byte	PATT	
		.word	song0049_7_1
	.byte	PATT	
		.word	song0049_7_2
	.byte	PATT	
		.word	song0049_7_3
	.byte	W96
	.byte	W96
	.byte	W96
	.byte	W96
	.byte	W06
	.byte	VOL	, v066
	.byte	W48
	.byte		N06	, Dn5, v072
	.byte	W06
	.byte			An4
	.byte	W06
	.byte			Fn4
	.byte	W06
	.byte			An4
	.byte	W06
	.byte			Fn4
	.byte	W06
	.byte			Dn4
	.byte	W06
	.byte			Fn4
	.byte	W06
song0049_7_4:
	.byte		N06	, Dn4, v072
	.byte	W06
	.byte			An4
	.byte	W06
	.byte			Fn4
	.byte	W06
	.byte			Dn4
	.byte	W06
	.byte			Fn4
	.byte	W06
	.byte			Dn4
	.byte	W06
	.byte			An3
	.byte	W06
	.byte			Dn4
	.byte	W06
	.byte			An3
	.byte	W06
	.byte			Fn4
	.byte	W06
	.byte			Dn4
	.byte	W06
	.byte			An3
	.byte	W06
	.byte			Dn4
	.byte	W06
	.byte			An3
	.byte	W06
	.byte			Fn3
	.byte	W06
	.byte			An3
	.byte	W06
	.byte	PEND
song0049_7_5:
	.byte		N06	, Fn3, v072
	.byte	W06
	.byte			Ds3, v068
	.byte	W06
	.byte			Gn3, v060
	.byte	W06
	.byte			Ds3, v052
	.byte	W06
	.byte			As2, v044
	.byte	W06
	.byte			Ds3, v040
	.byte	W06
	.byte			As2, v032
	.byte	W06
	.byte			Gn2, v024
	.byte	W06
	.byte			As2, v016
	.byte	W06
	.byte			Gn2, v008
	.byte	W06
	.byte			Ds2, v004
	.byte	W06
	.byte			Gn2
	.byte	W06
	.byte			Ds2
	.byte	W06
	.byte			As1
	.byte	W18
	.byte	PEND
	.byte	W96
	.byte	W54
	.byte			Dn5, v072
	.byte	W06
	.byte			An4
	.byte	W06
	.byte			Fn4
	.byte	W06
	.byte			An4
	.byte	W06
	.byte			Fn4
	.byte	W06
	.byte			Dn4
	.byte	W06
	.byte			Fn4
	.byte	W06
	.byte	PATT	
		.word	song0049_7_4
	.byte	PATT	
		.word	song0049_7_5
	.byte	W96
	.byte	W96
	.byte	W96
	.byte	W96
	.byte	W96
	.byte	W96
	.byte	W96
	.byte	W96
	.byte	W96
	.byte	GOTO	
		.word	song0049_7_6
	.byte	FINE

	@********************** Track  8 **********************@

	.global song0049_8
song0049_8:	@ 0x08C7C936
	.byte	KEYSH	, 0
	.byte	VOICE	, 72
	.byte	VOL	, v086
	.byte	PAN	, c_v
	.byte	W03
song0049_8_7:
	.byte	W96
	.byte	W96
	.byte	W96
	.byte	W96
song0049_8_1:
	.byte	W01
	.byte		N02	, Dn2, v112
	.byte	W02
	.byte			En2, v116
	.byte	W02
	.byte			Fn2, v120
	.byte	W01
	.byte			Gn2
	.byte	W02
	.byte			An2
	.byte	W01
	.byte		N03	, Bn2, v112
	.byte	W03
	.byte		N08	, Cn3, v124
	.byte	W12
	.byte		N14	, Cn3, v116
	.byte	W18
	.byte		N08	, Cn3, v104
	.byte	W12
	.byte		N14	, Cn3, v096
	.byte	W18
	.byte			Cn3, v080
	.byte	W18
	.byte			Cn3, v068
	.byte	W06
	.byte	PEND
song0049_8_2:
	.byte	W12
	.byte		N14	, Cn3, v056
	.byte	W18
	.byte			Cn3, v044
	.byte	W18
	.byte			Cn3, v028
	.byte	W18
	.byte			Cn3, v016
	.byte	W30
	.byte	PEND
	.byte	W96
	.byte	W90
	.byte		N04	, An1, v124
	.byte	W03
	.byte		N03	, Bn1, v076
	.byte	W02
	.byte		N02	, Cn2, v080
	.byte	W01
	.byte	PATT	
		.word	song0049_8_1
	.byte	PATT	
		.word	song0049_8_2
	.byte	W96
	.byte	W96
	.byte	W96
	.byte	W96
	.byte	W96
	.byte	W96
song0049_8_5:
	.byte	W06
	.byte		N04	, An1, v124
	.byte	W03
	.byte		N03	, Bn1, v076
	.byte	W02
	.byte		N02	, Cn2, v080
	.byte	W02
	.byte			Dn2, v112
	.byte	W02
	.byte			En2, v116
	.byte	W02
	.byte			Fn2, v120
	.byte	W01
	.byte			Gn2
	.byte	W02
	.byte			An2
	.byte	W01
	.byte		N03	, Bn2, v112
	.byte	W03
	.byte		N11	, Cn3, v124
	.byte	W12
	.byte		N17	, Cn3, v116
	.byte	W18
	.byte		N11	, Cn3, v104
	.byte	W12
	.byte		N17	, Cn3, v096
	.byte	W18
	.byte			Cn3, v080
	.byte	W12
	.byte	PEND
song0049_8_6:
	.byte	W06
	.byte		N17	, Cn3, v068
	.byte	W18
	.byte			Cn3, v056
	.byte	W18
	.byte			Cn3, v044
	.byte	W18
	.byte			Cn3, v028
	.byte	W18
	.byte			Cn3, v016
	.byte	W18
	.byte	PEND
	.byte	W96
	.byte	W96
song0049_8_3:
	.byte	W06
	.byte		N04	, An1, v124
	.byte	W03
	.byte		N03	, Bn1, v076
	.byte	W02
	.byte		N02	, Cn2, v080
	.byte	W02
	.byte			Dn2, v112
	.byte	W02
	.byte			En2, v116
	.byte	W02
	.byte			Fn2, v120
	.byte	W01
	.byte			Gn2
	.byte	W02
	.byte			An2
	.byte	W01
	.byte		N03	, Bn2, v112
	.byte	W03
	.byte		N08	, Cn3, v124
	.byte	W12
	.byte		N14	, Cn3, v116
	.byte	W18
	.byte		N08	, Cn3, v104
	.byte	W12
	.byte		N14	, Cn3, v096
	.byte	W18
	.byte			Cn3, v080
	.byte	W12
	.byte	PEND
song0049_8_4:
	.byte	W06
	.byte		N14	, Cn3, v068
	.byte	W18
	.byte			Cn3, v056
	.byte	W18
	.byte			Cn3, v044
	.byte	W18
	.byte			Cn3, v028
	.byte	W18
	.byte			Cn3, v016
	.byte	W18
	.byte	PEND
	.byte	W96
	.byte	W96
	.byte	PATT	
		.word	song0049_8_3
	.byte	PATT	
		.word	song0049_8_4
	.byte	W96
	.byte	W96
	.byte	PATT	
		.word	song0049_8_5
	.byte	PATT	
		.word	song0049_8_6
	.byte	W96
	.byte	W96
	.byte	GOTO	
		.word	song0049_8_7
	.byte	W06
	.byte		N04	, An1, v124
	.byte	W03
	.byte		N03	, Bn1, v076
	.byte	W02
	.byte		N02	, Cn2, v080
	.byte	W02
	.byte			Dn2, v112
	.byte	W02
	.byte			En2, v116
	.byte	W02
	.byte			Fn2, v120
	.byte	W01
	.byte			Gn2
	.byte	W02
	.byte			An2
	.byte	W01
	.byte		N03	, Bn2, v112
	.byte	W03
	.byte		N08	, Cn3, v124
	.byte	W12
	.byte		N14	, Cn3, v116
	.byte	W14
	.byte	FINE

	@********************** Track  9 **********************@

	.global song0049_9
song0049_9:	@ 0x08C7CA6A
	.byte	KEYSH	, 0
	.byte	VOICE	, 73
	.byte	VOL	, v094
	.byte	PAN	, c_v
	.byte	W03
song0049_9_3:
	.byte	W96
	.byte	W96
	.byte	W96
	.byte	W96
	.byte	W96
	.byte	W90
	.byte		N04	, An1, v124
	.byte	W03
	.byte		N03	, Bn1, v076
	.byte	W02
	.byte		N02	, Cn2, v080
	.byte	W01
	.byte	W01
	.byte			Dn2, v112
	.byte	W02
	.byte			En2, v116
	.byte	W02
	.byte			Fn2, v120
	.byte	W01
	.byte			Gn2
	.byte	W02
	.byte			An2
	.byte	W01
	.byte		N03	, Bn2, v112
	.byte	W03
	.byte		N08	, Cn3, v124
	.byte	W12
	.byte		N14	, Cn3, v116
	.byte	W18
	.byte		N08	, Cn3, v104
	.byte	W12
	.byte		N14	, Cn3, v096
	.byte	W18
	.byte			Cn3, v080
	.byte	W18
	.byte			Cn3, v068
	.byte	W06
	.byte	W12
	.byte			Cn3, v056
	.byte	W18
	.byte			Cn3, v044
	.byte	W18
	.byte			Cn3, v028
	.byte	W18
	.byte			Cn3, v016
	.byte	W30
	.byte	W96
	.byte	W96
song0049_9_1:
	.byte	W06
	.byte		N04	, An1, v124
	.byte	W03
	.byte		N03	, Bn1, v076
	.byte	W02
	.byte		N02	, Cn2, v080
	.byte	W02
	.byte			Dn2, v112
	.byte	W02
	.byte			En2, v116
	.byte	W02
	.byte			Fn2, v120
	.byte	W01
	.byte			Gn2
	.byte	W02
	.byte			An2
	.byte	W01
	.byte		N03	, Bn2, v112
	.byte	W03
	.byte		N08	, Cn3, v124
	.byte	W12
	.byte		N14	, Cn3, v116
	.byte	W18
	.byte		N08	, Cn3, v104
	.byte	W12
	.byte		N14	, Cn3, v096
	.byte	W18
	.byte			Cn3, v080
	.byte	W12
	.byte	PEND
song0049_9_2:
	.byte	W06
	.byte		N14	, Cn3, v068
	.byte	W18
	.byte			Cn3, v056
	.byte	W18
	.byte			Cn3, v044
	.byte	W18
	.byte			Cn3, v028
	.byte	W18
	.byte			Cn3, v016
	.byte	W18
	.byte	PEND
	.byte	W96
	.byte	W96
	.byte	W96
	.byte	W96
	.byte	W96
	.byte	W96
	.byte	PATT	
		.word	song0049_9_1
	.byte	PATT	
		.word	song0049_9_2
	.byte	W96
	.byte	W96
	.byte	W06
	.byte		N04	, An1, v124
	.byte	W03
	.byte		N03	, Bn1, v076
	.byte	W02
	.byte		N02	, Cn2, v080
	.byte	W02
	.byte			Dn2, v112
	.byte	W02
	.byte			En2, v116
	.byte	W02
	.byte			Fn2, v120
	.byte	W01
	.byte			Gn2
	.byte	W02
	.byte			An2
	.byte	W01
	.byte		N03	, Bn2, v112
	.byte	W03
	.byte		N11	, Cn3, v124
	.byte	W12
	.byte		N17	, Cn3, v116
	.byte	W18
	.byte		N11	, Cn3, v104
	.byte	W12
	.byte		N17	, Cn3, v096
	.byte	W18
	.byte			Cn3, v080
	.byte	W12
	.byte	W06
	.byte			Cn3, v068
	.byte	W18
	.byte			Cn3, v056
	.byte	W18
	.byte			Cn3, v044
	.byte	W18
	.byte			Cn3, v028
	.byte	W18
	.byte			Cn3, v016
	.byte	W18
	.byte	W96
	.byte	W96
	.byte	PATT	
		.word	song0049_9_1
	.byte	PATT	
		.word	song0049_9_2
	.byte	W96
	.byte	W96
	.byte	PATT	
		.word	song0049_9_1
	.byte	PATT	
		.word	song0049_9_2
	.byte	GOTO	
		.word	song0049_9_3
	.byte	FINE

	@********************** Track  10 **********************@

	.global song0049_10
song0049_10:	@ 0x08C7CB71
	.byte	KEYSH	, 0
	.byte	VOICE	, 106
	.byte	VOL	, v080
	.byte	BENDR	, 12
	.byte	PAN	, c_v
	.byte	W03
song0049_10_1:
	.byte		N18	, Dn3, v088
	.byte	W18
	.byte		N06	, Cs3
	.byte	W18
	.byte		N18	, Cn3
	.byte	W18
	.byte		N09	, Bn2
	.byte	W18
	.byte		N06	, As2
	.byte	W12
	.byte		N09	, An2
	.byte	W12
	.byte	PEND
	.byte	W96
	.byte	PATT	
		.word	song0049_10_1
	.byte	W96
	.byte	W96
	.byte	W96
	.byte	W96
	.byte	W96
	.byte	W96
	.byte	W96
	.byte	W96
	.byte	W96
	.byte	PATT	
		.word	song0049_10_1
	.byte	W96
	.byte	PATT	
		.word	song0049_10_1
	.byte	W96
	.byte	W96
	.byte	W96
	.byte	W96
	.byte	W96
	.byte	W96
	.byte	W96
	.byte	W96
	.byte	W96
	.byte	W96
	.byte	W96
	.byte	W96
	.byte	W96
	.byte	W96
	.byte	W96
	.byte	W96
	.byte	W96
	.byte	GOTO	
		.word	song0049_10_1
	.byte	FINE

	@********************** Track  11 **********************@

	.global song0049_11
song0049_11:	@ 0x08C7CBC1
	.byte	KEYSH	, 0
	.byte	VOICE	, 118
	.byte	VOL	, v076
	.byte	PAN	, c_v
	.byte	PRIO	, 20
	.byte	W03
song0049_11_2:
	.byte	W96
song0049_11_1:
	.byte		N18	, Dn3, v088
	.byte	W18
	.byte		N06	, Cs3
	.byte	W18
	.byte		N18	, Cn3
	.byte	W18
	.byte		N09	, Bn2
	.byte	W18
	.byte		N06	, As2
	.byte	W12
	.byte		N09	, An2
	.byte	W12
	.byte	PEND
	.byte	W96
	.byte	PATT	
		.word	song0049_11_1
	.byte	W96
	.byte	W96
	.byte	W96
	.byte	W96
	.byte	W96
	.byte	W96
	.byte	W96
	.byte	W96
	.byte	W96
	.byte	PATT	
		.word	song0049_11_1
	.byte	W96
	.byte	PATT	
		.word	song0049_11_1
	.byte	W96
	.byte	W96
	.byte	W96
	.byte	W96
	.byte	W96
	.byte	W96
	.byte	W96
	.byte	W96
	.byte	W96
	.byte	W96
	.byte	W96
	.byte	W96
	.byte	W96
	.byte	W96
	.byte	W96
	.byte	W96
	.byte	GOTO	
		.word	song0049_11_2
	.byte	FINE

	@********************** Track  12 **********************@

	.global song0049_12
song0049_12:	@ 0x08C7CC11
	.byte	KEYSH	, 0
	.byte	VOICE	, 86
	.byte	VOL	, v080
	.byte	MOD	, 50
	.byte	LFOS	, 40
	.byte	MODT	, 1
	.byte	PRIO	, 10
	.byte	PAN	, c_v-30
	.byte	W03
song0049_12_1:
	.byte		N18	, Dn3, v120
	.byte	W18
	.byte		N06	, Cs3
	.byte	W18
	.byte		N18	, Cn3
	.byte	W18
	.byte		N09	, Bn2
	.byte	W18
	.byte		N06	, As2
	.byte	W12
	.byte		N09	, An2
	.byte	W11
	.byte	PAN	, c_v+30
	.byte	W01
	.byte	PEND
song0049_12_2:
	.byte		N18	, Dn3, v120
	.byte	W18
	.byte		N06	, Cs3
	.byte	W18
	.byte		N18	, Cn3
	.byte	W18
	.byte		N06	, Bn2
	.byte	W18
	.byte			As2
	.byte	W12
	.byte		N09	, An2
	.byte	W12
	.byte	PEND
	.byte	PATT	
		.word	song0049_12_1
	.byte	PATT	
		.word	song0049_12_2
	.byte	W96
	.byte	W96
	.byte	W96
	.byte	W96
	.byte	W96
	.byte	W96
	.byte	W96
	.byte	W96
	.byte	PATT	
		.word	song0049_12_1
	.byte	PATT	
		.word	song0049_12_2
	.byte	PATT	
		.word	song0049_12_1
	.byte	PATT	
		.word	song0049_12_2
	.byte	W96
	.byte	W96
	.byte	W96
	.byte	W96
	.byte	W96
	.byte	W96
	.byte	W96
	.byte	W96
	.byte	W96
	.byte	W96
	.byte	W96
	.byte	W96
	.byte	W96
	.byte	W96
	.byte	W96
	.byte	W96
	.byte	GOTO	
		.word	song0049_12_1
	.byte	FINE

	.align 2
	.global song0049
song0049:	@ 0x08C7CC88
	.byte	12		@ trackCount
	.byte	0		@ blockCount
	.byte	0		@ priority
	.byte	128		@ reverb

	.word	voicegroup022		@ voicegroup/tone

	.word	song0049_1		@ track
	.word	song0049_2		@ track
	.word	song0049_3		@ track
	.word	song0049_4		@ track
	.word	song0049_5		@ track
	.word	song0049_6		@ track
	.word	song0049_7		@ track
	.word	song0049_8		@ track
	.word	song0049_9		@ track
	.word	song0049_10		@ track
	.word	song0049_11		@ track
	.word	song0049_12		@ track
