	.include "MPlayDef.s"

	.section .rodata

	@********************** Track  1 **********************@

	.align 2
	.global song0036_1
song0036_1:	@ 0x08C74258
	.byte	KEYSH	, 0
	.byte	TEMPO	, 87
	.byte	VOICE	, 68
	.byte	VOL	, v094
	.byte	PAN	, c_v
	.byte	W03
song0036_1_1:
	.byte		N06	, Bn1, v127
	.byte	W06
	.byte			Bn2
	.byte	W06
	.byte			Bn1
	.byte	W06
	.byte		N06	
	.byte	W06
	.byte		N06	
	.byte	W06
	.byte			Bn2
	.byte	W06
	.byte			Bn1
	.byte	W06
	.byte		N06	
	.byte	W06
	.byte		N06	
	.byte	W06
	.byte			Bn2
	.byte	W06
	.byte			Bn1
	.byte	W06
	.byte		N06	
	.byte	W06
	.byte		N06	
	.byte	W06
	.byte			Bn2
	.byte	W06
	.byte			Bn1
	.byte	W06
	.byte		N06	
	.byte	W06
	.byte	PEND
song0036_1_2:
	.byte		N06	, Bn1, v127
	.byte	W06
	.byte			Bn2
	.byte	W06
	.byte			Bn1
	.byte	W06
	.byte		N06	
	.byte	W06
	.byte		N06	
	.byte	W06
	.byte			Bn2
	.byte	W06
	.byte			Bn1
	.byte	W06
	.byte		N06	
	.byte	W06
	.byte		N06	
	.byte	W06
	.byte			Bn2
	.byte	W06
	.byte			Bn1
	.byte	W06
	.byte		N06	
	.byte	W06
	.byte		N06	
	.byte	W06
	.byte			Bn3
	.byte	W06
	.byte			Bn2
	.byte	W06
	.byte			Bn1
	.byte	W06
	.byte	PEND
	.byte	PATT	
		.word	song0036_1_1
	.byte	PATT	
		.word	song0036_1_2
	.byte	PATT	
		.word	song0036_1_1
	.byte	PATT	
		.word	song0036_1_2
	.byte	PATT	
		.word	song0036_1_1
	.byte	PATT	
		.word	song0036_1_2
song0036_1_3:
	.byte		N06	, Fn2, v127
	.byte	W06
	.byte			Fn3
	.byte	W06
	.byte			Fn2
	.byte	W06
	.byte		N06	
	.byte	W06
	.byte		N06	
	.byte	W06
	.byte			Fn3
	.byte	W06
	.byte			Fn2
	.byte	W06
	.byte		N06	
	.byte	W06
	.byte		N06	
	.byte	W06
	.byte			Fn3
	.byte	W06
	.byte			Fn2
	.byte	W06
	.byte		N06	
	.byte	W06
	.byte		N06	
	.byte	W06
	.byte			Fn3
	.byte	W06
	.byte			Fn2
	.byte	W06
	.byte		N06	
	.byte	W06
	.byte	PEND
song0036_1_4:
	.byte		N06	, Fn2, v127
	.byte	W06
	.byte			Fn3
	.byte	W06
	.byte			Fn2
	.byte	W06
	.byte		N06	
	.byte	W06
	.byte		N06	
	.byte	W06
	.byte			Fn3
	.byte	W06
	.byte			Fn2
	.byte	W06
	.byte		N06	
	.byte	W06
	.byte		N06	
	.byte	W06
	.byte			Fn3
	.byte	W06
	.byte			Fn2
	.byte	W06
	.byte		N06	
	.byte	W06
	.byte		N06	
	.byte	W06
	.byte			Fn4
	.byte	W06
	.byte			Fn3
	.byte	W06
	.byte			Fn2
	.byte	W06
	.byte	PEND
	.byte	PATT	
		.word	song0036_1_3
	.byte	PATT	
		.word	song0036_1_4
	.byte	PATT	
		.word	song0036_1_3
	.byte	PATT	
		.word	song0036_1_4
	.byte	PATT	
		.word	song0036_1_3
	.byte		N06	, Fn2, v127
	.byte	W06
	.byte			Fn3
	.byte	W06
	.byte			Fn2
	.byte	W06
	.byte		N06	
	.byte	W06
	.byte		N06	
	.byte	W06
	.byte			Fn3
	.byte	W06
	.byte			Fn2
	.byte	W06
	.byte		N06	
	.byte	W06
	.byte		N06	
	.byte	W06
	.byte			Fn3
	.byte	W06
	.byte			Fn2
	.byte	W06
	.byte		N06	
	.byte	W06
	.byte		N06	
	.byte	W06
	.byte			Fn4
	.byte	W06
	.byte			Fn3
	.byte	W06
	.byte			En2
	.byte	W06
song0036_1_5:
	.byte		N06	, An1, v127
	.byte	W06
	.byte			An2
	.byte	W06
	.byte			An1
	.byte	W06
	.byte		N06	
	.byte	W06
	.byte		N06	
	.byte	W06
	.byte			An2
	.byte	W06
	.byte			An1
	.byte	W06
	.byte		N06	
	.byte	W06
	.byte		N06	
	.byte	W06
	.byte			An2
	.byte	W06
	.byte			An1
	.byte	W06
	.byte		N06	
	.byte	W06
	.byte		N06	
	.byte	W06
	.byte			An2
	.byte	W06
	.byte			An1
	.byte	W06
	.byte		N06	
	.byte	W06
	.byte	PEND
song0036_1_6:
	.byte		N06	, An1, v127
	.byte	W06
	.byte			An2
	.byte	W06
	.byte			An1
	.byte	W06
	.byte		N06	
	.byte	W06
	.byte		N06	
	.byte	W06
	.byte			An2
	.byte	W06
	.byte			An1
	.byte	W06
	.byte		N06	
	.byte	W06
	.byte		N06	
	.byte	W06
	.byte			An2
	.byte	W06
	.byte			An1
	.byte	W06
	.byte		N06	
	.byte	W06
	.byte		N06	
	.byte	W06
	.byte			An3
	.byte	W06
	.byte			An2
	.byte	W06
	.byte			An1
	.byte	W06
	.byte	PEND
	.byte	PATT	
		.word	song0036_1_5
	.byte	PATT	
		.word	song0036_1_6
	.byte	PATT	
		.word	song0036_1_1
	.byte	PATT	
		.word	song0036_1_2
	.byte	PATT	
		.word	song0036_1_1
	.byte	PATT	
		.word	song0036_1_2
	.byte	PATT	
		.word	song0036_1_1
	.byte	PATT	
		.word	song0036_1_2
	.byte	PATT	
		.word	song0036_1_1
	.byte	PATT	
		.word	song0036_1_2
	.byte	PATT	
		.word	song0036_1_1
	.byte	PATT	
		.word	song0036_1_2
	.byte	GOTO	
		.word	song0036_1_1
	.byte	W96
	.byte	FINE

	@********************** Track  2 **********************@

	.global song0036_2
song0036_2:	@ 0x08C743D1
	.byte	KEYSH	, 0
	.byte	VOICE	, 127
	.byte	VOL	, v098
	.byte	W03
song0036_2_1:
	.byte		N18	, Ds2, v120
	.byte	W24
	.byte		N18	
	.byte	W24
	.byte		N18	
	.byte	W24
	.byte		N18	
	.byte	W24
	.byte	PEND
song0036_2_2:
	.byte		N18	, Ds2, v120
	.byte	W24
	.byte		N18	
	.byte	W24
	.byte		N18	
	.byte	W18
	.byte		N06	, Ds2, v112
	.byte	W06
	.byte		N12	, Ds2, v120
	.byte	W12
	.byte		N12	
	.byte	W12
	.byte	PEND
	.byte	PATT	
		.word	song0036_2_1
	.byte	PATT	
		.word	song0036_2_2
	.byte	PATT	
		.word	song0036_2_1
	.byte	PATT	
		.word	song0036_2_2
	.byte	PATT	
		.word	song0036_2_1
	.byte	PATT	
		.word	song0036_2_2
	.byte	PATT	
		.word	song0036_2_1
	.byte	PATT	
		.word	song0036_2_2
	.byte	PATT	
		.word	song0036_2_1
	.byte	PATT	
		.word	song0036_2_2
	.byte	PATT	
		.word	song0036_2_1
	.byte	PATT	
		.word	song0036_2_2
	.byte	PATT	
		.word	song0036_2_1
	.byte	PATT	
		.word	song0036_2_2
	.byte	PATT	
		.word	song0036_2_1
	.byte	PATT	
		.word	song0036_2_2
	.byte	PATT	
		.word	song0036_2_1
	.byte	PATT	
		.word	song0036_2_2
	.byte	PATT	
		.word	song0036_2_1
	.byte	PATT	
		.word	song0036_2_2
	.byte	PATT	
		.word	song0036_2_1
	.byte	PATT	
		.word	song0036_2_2
	.byte	PATT	
		.word	song0036_2_1
	.byte	PATT	
		.word	song0036_2_2
	.byte	PATT	
		.word	song0036_2_1
	.byte		N18	, Ds2, v120
	.byte	W24
	.byte		N18	
	.byte	W24
	.byte		N06	
	.byte	W06
	.byte			Cs1
	.byte	W06
	.byte		N06	
	.byte	W06
	.byte		N06	
	.byte	W06
	.byte		N06	
	.byte	W06
	.byte		N06	
	.byte	W06
	.byte		N06	
	.byte	W06
	.byte		N06	
	.byte	W06
	.byte	PATT	
		.word	song0036_2_1
	.byte	PATT	
		.word	song0036_2_2
	.byte	GOTO	
		.word	song0036_2_1
	.byte	W96
	.byte	FINE

	@********************** Track  3 **********************@

	.global song0036_3
song0036_3:	@ 0x08C7449A
	.byte	KEYSH	, 0
	.byte	VOICE	, 127
	.byte	VOL	, v094
	.byte	W03
song0036_3_4:
	.byte		N24	, Cs2, v120
	.byte	W12
	.byte		N06	, Dn1, v060
	.byte	W06
	.byte			Dn1, v052
	.byte	W06
	.byte		N12	, Ds1, v072
	.byte	W12
	.byte		N06	, Dn1, v060
	.byte	W06
	.byte			Dn1, v052
	.byte	W06
	.byte		N12	, Ds1, v072
	.byte	W12
	.byte		N06	, Dn1, v060
	.byte	W06
	.byte			Dn1, v052
	.byte	W06
	.byte		N12	, Ds1, v072
	.byte	W12
	.byte		N06	, Dn1, v060
	.byte	W06
	.byte			Dn1, v052
	.byte	W06
	.byte	PEND
song0036_3_1:
	.byte		N12	, Ds1, v072
	.byte	W12
	.byte		N06	, Dn1, v060
	.byte	W06
	.byte			Dn1, v052
	.byte	W06
	.byte		N12	, Ds1, v072
	.byte	W12
	.byte		N06	, Dn1, v060
	.byte	W06
	.byte			Dn1, v052
	.byte	W06
	.byte		N12	, Ds1, v072
	.byte	W12
	.byte		N06	, Dn1, v060
	.byte	W06
	.byte			Dn1, v052
	.byte	W06
	.byte		N12	, Ds1, v072
	.byte	W12
	.byte		N06	, Dn1, v060
	.byte	W06
	.byte			Dn1, v052
	.byte	W06
	.byte	PEND
	.byte	PATT	
		.word	song0036_3_1
	.byte		N12	, Ds1, v072
	.byte	W12
	.byte		N06	, Dn1, v060
	.byte	W06
	.byte			Dn1, v052
	.byte	W06
	.byte		N12	, Ds1, v072
	.byte	W12
	.byte		N06	, Dn1, v060
	.byte	W06
	.byte			Dn1, v052
	.byte	W06
	.byte		N12	, Ds1, v072
	.byte	W12
	.byte		N06	, Dn1, v060
	.byte	W06
	.byte			Dn1, v052
	.byte	W06
	.byte		N12	, Ds1, v072
	.byte	W12
	.byte		N06	, Dn1, v060
	.byte	W06
	.byte			En1, v052
	.byte	W06
	.byte		N24	, Cs2, v127
	.byte	W12
	.byte		N06	, Dn1, v060
	.byte	W06
	.byte			Dn1, v052
	.byte	W06
	.byte		N12	, Ds1, v072
	.byte	W12
	.byte		N06	, Dn1, v060
	.byte	W06
	.byte			Dn1, v052
	.byte	W06
	.byte		N12	, Ds1, v072
	.byte	W12
	.byte		N06	, Dn1, v060
	.byte	W06
	.byte			Dn1, v052
	.byte	W06
	.byte		N12	, Ds1, v072
	.byte	W12
	.byte		N06	, Dn1, v060
	.byte	W06
	.byte			Dn1, v052
	.byte	W06
	.byte	PATT	
		.word	song0036_3_1
	.byte	PATT	
		.word	song0036_3_1
song0036_3_2:
	.byte		N11	, Ds1, v072
	.byte	W12
	.byte		N06	, Dn1, v060
	.byte	W06
	.byte			Dn1, v052
	.byte	W06
	.byte		N12	, Ds1, v072
	.byte	W12
	.byte		N06	, Dn1, v060
	.byte	W06
	.byte			Dn1, v052
	.byte	W06
	.byte		N12	, Ds1, v072
	.byte	W12
	.byte		N06	, Dn1, v060
	.byte	W06
	.byte			Dn1, v052
	.byte	W06
	.byte		N12	, Ds1, v072
	.byte	W12
	.byte		N06	, Dn1, v060
	.byte	W06
	.byte			Dn1, v052
	.byte	W06
	.byte	PEND
	.byte	PATT	
		.word	song0036_3_1
song0036_3_3:
	.byte		N12	, Ds1, v072
	.byte	W12
	.byte		N06	, Dn1, v060
	.byte	W06
	.byte			Dn1, v052
	.byte	W06
	.byte		N12	, Ds1, v072
	.byte	W12
	.byte		N06	, Dn1, v060
	.byte	W06
	.byte			Dn1, v052
	.byte	W06
	.byte			En1, v080
	.byte	W06
	.byte			Dn1, v060
	.byte	W06
	.byte			Ds1, v072
	.byte	W06
	.byte			Dn1, v060
	.byte	W06
	.byte			En1, v080
	.byte	W06
	.byte			Dn1, v060
	.byte	W06
	.byte			Ds1, v072
	.byte	W06
	.byte			Dn1, v060
	.byte	W06
	.byte	PEND
	.byte	PATT	
		.word	song0036_3_2
	.byte	PATT	
		.word	song0036_3_3
	.byte		N36	, Fs2, v120
	.byte	W12
	.byte		N06	, Dn1, v060
	.byte	W06
	.byte			Dn1, v052
	.byte	W06
	.byte			Dn1, v072
	.byte	W06
	.byte			Dn1, v052
	.byte	W06
	.byte			Dn1, v060
	.byte	W06
	.byte			Dn1, v052
	.byte	W06
	.byte			Dn1, v072
	.byte	W06
	.byte			Dn1, v052
	.byte	W06
	.byte			Dn1, v060
	.byte	W06
	.byte			Dn1, v052
	.byte	W06
	.byte			Dn1, v072
	.byte	W06
	.byte			Dn1, v052
	.byte	W06
	.byte			Dn1, v060
	.byte	W06
	.byte			Dn1, v052
	.byte	W06
	.byte			Dn1, v072
	.byte	W06
	.byte			Dn1, v052
	.byte	W06
	.byte			Dn1, v060
	.byte	W06
	.byte			Dn1, v052
	.byte	W06
	.byte			Dn1, v072
	.byte	W06
	.byte			Dn1, v052
	.byte	W06
	.byte			Dn1, v060
	.byte	W06
	.byte			Dn1, v052
	.byte	W06
	.byte			Ds1, v072
	.byte	W06
	.byte			Dn1, v052
	.byte	W06
	.byte			Dn1, v060
	.byte	W06
	.byte			Dn1, v052
	.byte	W06
	.byte			Dn1, v072
	.byte	W06
	.byte			Dn1, v052
	.byte	W06
	.byte			Ds1, v072
	.byte	W06
	.byte			Dn1, v052
	.byte	W06
	.byte			Dn1, v072
	.byte	W06
	.byte			Dn1, v052
	.byte	W06
	.byte			Dn1, v060
	.byte	W06
	.byte			Dn1, v052
	.byte	W06
	.byte			Dn1, v072
	.byte	W06
	.byte			Dn1, v052
	.byte	W06
	.byte			Dn1, v060
	.byte	W06
	.byte			Dn1, v052
	.byte	W06
	.byte			Dn1, v072
	.byte	W06
	.byte			Dn1, v052
	.byte	W06
	.byte			Dn1, v060
	.byte	W06
	.byte			Dn1, v052
	.byte	W06
	.byte			Dn1, v072
	.byte	W06
	.byte			Dn1, v052
	.byte	W06
	.byte			Dn1, v060
	.byte	W06
	.byte			Dn1, v052
	.byte	W06
	.byte			Dn1, v072
	.byte	W06
	.byte			Dn1, v052
	.byte	W06
	.byte			Dn1, v060
	.byte	W06
	.byte			Dn1, v052
	.byte	W06
	.byte			Dn1, v072
	.byte	W06
	.byte			Dn1, v052
	.byte	W06
	.byte			Dn1, v060
	.byte	W06
	.byte			Dn1, v052
	.byte	W06
	.byte			Dn1, v072
	.byte	W06
	.byte			Dn1, v052
	.byte	W06
	.byte			Ds1, v080
	.byte	W06
	.byte			Dn1, v052
	.byte	W06
	.byte			Dn1, v072
	.byte	W06
	.byte			Dn1, v052
	.byte	W06
	.byte		N12	, Ds1, v080
	.byte	W12
	.byte	PATT	
		.word	song0036_3_4
	.byte	PATT	
		.word	song0036_3_1
	.byte	PATT	
		.word	song0036_3_1
	.byte		N12	, Ds1, v072
	.byte	W12
	.byte		N06	, Dn1, v060
	.byte	W06
	.byte			Dn1, v052
	.byte	W06
	.byte		N12	, Ds1, v072
	.byte	W12
	.byte		N06	, Dn1, v060
	.byte	W06
	.byte			Dn1, v052
	.byte	W06
	.byte			Ds1, v060
	.byte	W06
	.byte		N06	
	.byte	W06
	.byte			En1
	.byte	W06
	.byte			Ds1
	.byte	W06
	.byte		N06	
	.byte	W06
	.byte		N06	
	.byte	W06
	.byte			En1
	.byte	W06
	.byte			Ds1
	.byte	W06
	.byte		N24	, Fs2, v120
	.byte	W12
	.byte		N06	, Dn1, v060
	.byte	W06
	.byte			Dn1, v052
	.byte	W06
	.byte		N12	, En1, v072
	.byte	W12
	.byte		N06	, Ds1, v060
	.byte	W06
	.byte			Ds1, v052
	.byte	W06
	.byte		N12	, En1, v072
	.byte	W12
	.byte		N06	, Ds1, v060
	.byte	W06
	.byte			Ds1, v052
	.byte	W06
	.byte		N12	, En1, v072
	.byte	W12
	.byte		N06	, Ds1, v060
	.byte	W06
	.byte			Ds1, v052
	.byte	W06
song0036_3_5:
	.byte		N12	, En1, v072
	.byte	W12
	.byte		N06	, Ds1, v060
	.byte	W06
	.byte			Ds1, v052
	.byte	W06
	.byte		N12	, En1, v072
	.byte	W12
	.byte		N06	, Ds1, v060
	.byte	W06
	.byte			Ds1, v052
	.byte	W06
	.byte		N12	, En1, v072
	.byte	W12
	.byte		N06	, Ds1, v060
	.byte	W06
	.byte			Ds1, v052
	.byte	W06
	.byte		N12	, En1, v072
	.byte	W12
	.byte		N06	, Ds1, v060
	.byte	W06
	.byte			Ds1, v052
	.byte	W06
	.byte	PEND
	.byte	PATT	
		.word	song0036_3_5
song0036_3_6:
	.byte		N12	, En1, v072
	.byte	W12
	.byte		N06	, Ds1, v060
	.byte	W06
	.byte			Ds1, v052
	.byte	W06
	.byte		N12	, En1, v072
	.byte	W12
	.byte		N06	, Ds1, v060
	.byte	W06
	.byte			Ds1, v052
	.byte	W06
	.byte			En1, v060
	.byte	W06
	.byte		N06	
	.byte	W06
	.byte			Fn1
	.byte	W06
	.byte			En1
	.byte	W06
	.byte		N06	
	.byte	W06
	.byte		N06	
	.byte	W06
	.byte			Fn1
	.byte	W06
	.byte			En1
	.byte	W06
	.byte	PEND
	.byte		N24	, Fs2, v120
	.byte	W12
	.byte		N06	, Ds1, v060
	.byte	W06
	.byte			Ds1, v052
	.byte	W06
	.byte		N12	, En1, v072
	.byte	W12
	.byte		N06	, Ds1, v060
	.byte	W06
	.byte			Ds1, v052
	.byte	W06
	.byte		N12	, En1, v072
	.byte	W12
	.byte		N06	, Ds1, v060
	.byte	W06
	.byte			Ds1, v052
	.byte	W06
	.byte		N12	, En1, v072
	.byte	W12
	.byte		N06	, Ds1, v060
	.byte	W06
	.byte			Ds1, v052
	.byte	W06
	.byte	PATT	
		.word	song0036_3_5
	.byte	PATT	
		.word	song0036_3_5
	.byte	PATT	
		.word	song0036_3_6
	.byte		N24	, Cs2, v120
	.byte	W12
	.byte		N06	, Ds1, v060
	.byte	W06
	.byte			Ds1, v052
	.byte	W06
	.byte		N12	, En1, v072
	.byte	W12
	.byte		N06	, Ds1, v060
	.byte	W06
	.byte			Ds1, v052
	.byte	W06
	.byte		N12	, En1, v072
	.byte	W12
	.byte		N06	, Ds1, v060
	.byte	W06
	.byte			Ds1, v052
	.byte	W06
	.byte		N12	, En1, v072
	.byte	W12
	.byte		N06	, Ds1, v060
	.byte	W06
	.byte			Ds1, v052
	.byte	W06
	.byte	PATT	
		.word	song0036_3_6
	.byte	GOTO	
		.word	song0036_3_4
	.byte	W96
	.byte	FINE

	@********************** Track  4 **********************@

	.global song0036_4
song0036_4:	@ 0x08C747B9
	.byte	KEYSH	, 0
	.byte	VOICE	, 2
	.byte	VOL	, v047
	.byte	PAN	, c_v-30
	.byte	MOD	, 2
	.byte	W03
song0036_4_7:
	.byte	W96
	.byte	W96
	.byte	W96
	.byte	W96
	.byte	W96
	.byte	W96
	.byte	W96
	.byte	W96
song0036_4_1:
	.byte		N06	, Fn3, v100
	.byte	W06
	.byte		N06	
	.byte	W06
	.byte			Fn4
	.byte	W06
	.byte			Fn3
	.byte	W06
	.byte		N06	
	.byte	W06
	.byte			Fn4
	.byte	W06
	.byte			En4
	.byte	W06
	.byte			En3
	.byte	W06
	.byte			Bn2
	.byte	W06
	.byte			Fn3
	.byte	W06
	.byte			Cn4
	.byte	W06
	.byte			Fn3
	.byte	W06
	.byte			Bn2
	.byte	W06
	.byte			Fn3
	.byte	W06
	.byte			Ds4
	.byte	W06
	.byte			Fn3
	.byte	W06
	.byte	PEND
song0036_4_2:
	.byte		N06	, En3, v100
	.byte	W06
	.byte			Fn3
	.byte	W06
	.byte			As3
	.byte	W06
	.byte			Fn3
	.byte	W06
	.byte			Bn2
	.byte	W06
	.byte			Fn3
	.byte	W06
	.byte			Cs4
	.byte	W06
	.byte			Fn3
	.byte	W06
	.byte			Gs3
	.byte	W06
	.byte			Dn3
	.byte	W06
	.byte			Cn4
	.byte	W06
	.byte			Fn3
	.byte	W06
	.byte			Gs3
	.byte	W06
	.byte			Fn3
	.byte	W06
	.byte		N06	
	.byte	W06
	.byte			Ds3
	.byte	W06
	.byte	PEND
	.byte	PATT	
		.word	song0036_4_1
	.byte	PATT	
		.word	song0036_4_2
	.byte	PATT	
		.word	song0036_4_1
	.byte	PATT	
		.word	song0036_4_2
	.byte	PATT	
		.word	song0036_4_1
	.byte	PATT	
		.word	song0036_4_2
	.byte		N04	, An3, v080
	.byte	W04
	.byte			An4
	.byte	W04
	.byte			An3
	.byte	W04
	.byte			An4
	.byte	W04
	.byte			An3
	.byte	W04
	.byte			An4
	.byte	W04
	.byte			An3
	.byte	W04
	.byte			An4
	.byte	W04
	.byte			An3
	.byte	W04
	.byte			Gs4
	.byte	W04
	.byte			Gs3
	.byte	W04
	.byte			Gs4
	.byte	W04
	.byte			Gs3
	.byte	W04
	.byte			Gs4
	.byte	W04
	.byte			Gs3
	.byte	W04
	.byte			Gs4
	.byte	W04
	.byte			Gs3
	.byte	W04
	.byte			Gs4
	.byte	W04
	.byte			Gn3
	.byte	W04
	.byte			Gn4
	.byte	W04
	.byte			Gn3
	.byte	W04
	.byte			Gn4
	.byte	W04
	.byte			Gn3
	.byte	W04
	.byte			Gn4
	.byte	W04
	.byte			Gn3
	.byte	W04
	.byte			Gn4
	.byte	W04
	.byte			Gn3
	.byte	W04
	.byte			Fs4
	.byte	W04
	.byte			Fs3
	.byte	W04
	.byte			Fs4
	.byte	W04
	.byte			Fs3
	.byte	W04
	.byte			Fs4
	.byte	W04
	.byte			Fs3
	.byte	W04
	.byte			Fs4
	.byte	W04
	.byte			Fs3
	.byte	W04
	.byte			Fs4
	.byte	W04
	.byte			Fn3
	.byte	W04
	.byte			Fn4
	.byte	W04
	.byte			Fn3
	.byte	W04
	.byte			Fn4
	.byte	W04
	.byte			Fn3
	.byte	W04
	.byte			Fn4
	.byte	W04
	.byte			En3
	.byte	W04
	.byte			En4
	.byte	W04
	.byte			En3
	.byte	W04
	.byte			En4
	.byte	W04
	.byte			En3
	.byte	W04
	.byte			En4
	.byte	W04
song0036_4_3:
	.byte		N04	, An4, v080
	.byte	W04
	.byte			En5
	.byte	W04
	.byte			An4
	.byte	W04
	.byte			En5
	.byte	W04
	.byte			An4
	.byte	W04
	.byte			En5
	.byte	W04
	.byte			An4
	.byte	W04
	.byte			En5
	.byte	W04
	.byte			An4
	.byte	W04
	.byte			Ds5
	.byte	W04
	.byte			Gs4
	.byte	W04
	.byte			Ds5
	.byte	W04
	.byte			Gs4
	.byte	W04
	.byte			Ds5
	.byte	W04
	.byte			Gs4
	.byte	W04
	.byte			Ds5
	.byte	W04
	.byte			Gs4
	.byte	W04
	.byte			Ds5
	.byte	W04
	.byte			Gn4
	.byte	W04
	.byte			Dn5
	.byte	W04
	.byte			Gn4
	.byte	W04
	.byte			Dn5
	.byte	W04
	.byte			Gn4
	.byte	W04
	.byte			Dn5
	.byte	W04
	.byte	PEND
song0036_4_4:
	.byte		N04	, Gn4, v080
	.byte	W04
	.byte			Dn5
	.byte	W04
	.byte			Gn4
	.byte	W04
	.byte			Cs5
	.byte	W04
	.byte			Fs4
	.byte	W04
	.byte			Cs5
	.byte	W04
	.byte			Fs4
	.byte	W04
	.byte			Cs5
	.byte	W04
	.byte			Fs4
	.byte	W04
	.byte			Cs5
	.byte	W04
	.byte			Fs4
	.byte	W04
	.byte			Cs5
	.byte	W04
	.byte			Fn4
	.byte	W04
	.byte			Cn5
	.byte	W04
	.byte			Fn4
	.byte	W04
	.byte			Cn5
	.byte	W04
	.byte			Fn4
	.byte	W04
	.byte			Cn5
	.byte	W04
	.byte			En4
	.byte	W04
	.byte			Bn4
	.byte	W04
	.byte			En4
	.byte	W04
	.byte			Bn4
	.byte	W04
	.byte			En4
	.byte	W04
	.byte			Bn4
	.byte	W04
	.byte	PEND
song0036_4_5:
	.byte		N04	, Bn4, v080
	.byte	W04
	.byte			Bn5
	.byte	W04
	.byte			Bn4
	.byte	W04
	.byte			Bn5
	.byte	W04
	.byte			Bn4
	.byte	W04
	.byte			Bn5
	.byte	W04
	.byte			Bn4
	.byte	W04
	.byte			Bn5
	.byte	W04
	.byte			Bn4
	.byte	W04
	.byte			As5
	.byte	W04
	.byte			As4
	.byte	W04
	.byte			As5
	.byte	W04
	.byte			As4
	.byte	W04
	.byte			As5
	.byte	W04
	.byte			As4
	.byte	W04
	.byte			As5
	.byte	W04
	.byte			As4
	.byte	W04
	.byte			As5
	.byte	W04
	.byte			An4
	.byte	W04
	.byte			An5
	.byte	W04
	.byte			An4
	.byte	W04
	.byte			An5
	.byte	W04
	.byte			An4
	.byte	W04
	.byte			An5
	.byte	W04
	.byte	PEND
song0036_4_6:
	.byte		N04	, An4, v080
	.byte	W04
	.byte			An5
	.byte	W04
	.byte			An4
	.byte	W04
	.byte			Gs5
	.byte	W04
	.byte			Gs4
	.byte	W04
	.byte			Gs5
	.byte	W04
	.byte			Gs4
	.byte	W04
	.byte			Gs5
	.byte	W04
	.byte			Gs4
	.byte	W04
	.byte			Gs5
	.byte	W04
	.byte			Gs4
	.byte	W04
	.byte			Gs5
	.byte	W04
	.byte			Gn4
	.byte	W04
	.byte			Gn5
	.byte	W04
	.byte			Gn4
	.byte	W04
	.byte			Gn5
	.byte	W04
	.byte			Gn4
	.byte	W04
	.byte			Gn5
	.byte	W04
	.byte			Fs4
	.byte	W04
	.byte			Fs5
	.byte	W04
	.byte			Fs4
	.byte	W04
	.byte			Fs5
	.byte	W04
	.byte			Fs4
	.byte	W04
	.byte			Fs5
	.byte	W04
	.byte	PEND
	.byte	PATT	
		.word	song0036_4_3
	.byte	PATT	
		.word	song0036_4_4
	.byte	PATT	
		.word	song0036_4_5
	.byte	PATT	
		.word	song0036_4_6
	.byte	PATT	
		.word	song0036_4_3
	.byte	PATT	
		.word	song0036_4_4
	.byte	W96
	.byte	W96
	.byte	GOTO	
		.word	song0036_4_7
	.byte	W96
	.byte	FINE

	@********************** Track  5 **********************@

	.global song0036_5
song0036_5:	@ 0x08C74985
	.byte	KEYSH	, 0
	.byte	VOICE	, 12
	.byte	VOL	, v078
	.byte	PAN	, c_v+30
	.byte	MOD	, 0
	.byte	W03
song0036_5_9:
	.byte	W96
	.byte	W96
	.byte	W96
	.byte	W96
	.byte	W96
	.byte	W96
	.byte	W96
	.byte	W96
song0036_5_1:
	.byte		N06	, Fn3, v080
	.byte	W06
	.byte		N06	
	.byte	W06
	.byte			Fn4
	.byte	W06
	.byte			Fn3
	.byte	W06
	.byte		N06	
	.byte	W06
	.byte			Fn4
	.byte	W06
	.byte			En4
	.byte	W06
	.byte			En3
	.byte	W06
	.byte			Bn2
	.byte	W06
	.byte			Fn3
	.byte	W06
	.byte			Cn4
	.byte	W06
	.byte			Fn3
	.byte	W06
	.byte			Bn2
	.byte	W06
	.byte			Fn3
	.byte	W06
	.byte			Ds4
	.byte	W06
	.byte			Fn3
	.byte	W06
	.byte	PEND
song0036_5_2:
	.byte		N06	, En3, v080
	.byte	W06
	.byte			Fn3
	.byte	W06
	.byte			As3
	.byte	W06
	.byte			Fn3
	.byte	W06
	.byte			Bn2
	.byte	W06
	.byte			Fn3
	.byte	W06
	.byte			Cs4
	.byte	W06
	.byte			Fn3
	.byte	W06
	.byte			Gs3
	.byte	W06
	.byte			Dn3
	.byte	W06
	.byte			Cn4
	.byte	W06
	.byte			Fn3
	.byte	W06
	.byte			Gs3
	.byte	W06
	.byte			Fn3
	.byte	W06
	.byte		N06	
	.byte	W06
	.byte			Ds3
	.byte	W06
	.byte	PEND
song0036_5_3:
	.byte		N12	, Fn3, v080
	.byte	W12
	.byte			Fn4
	.byte	W24
	.byte			En4
	.byte	W24
	.byte			Cn4
	.byte	W24
	.byte			Ds4
	.byte	W12
	.byte	PEND
song0036_5_4:
	.byte	W12
	.byte		N12	, As3, v080
	.byte	W24
	.byte		N24	, Cs4
	.byte	W24
	.byte		N12	, Cn4
	.byte	W12
	.byte			Gs3
	.byte	W12
	.byte			Fn3
	.byte	W12
	.byte	PEND
	.byte	PATT	
		.word	song0036_5_1
	.byte	PATT	
		.word	song0036_5_2
	.byte	PATT	
		.word	song0036_5_3
	.byte	PATT	
		.word	song0036_5_4
	.byte		N04	, An4, v080
	.byte	W04
	.byte			En4
	.byte	W04
	.byte			An4
	.byte	W04
	.byte			En4
	.byte	W04
	.byte			An4
	.byte	W04
	.byte			En4
	.byte	W04
	.byte			An4
	.byte	W04
	.byte			En4
	.byte	W04
	.byte			An4
	.byte	W04
	.byte			Ds4
	.byte	W04
	.byte			Gs4
	.byte	W04
	.byte			Ds4
	.byte	W04
	.byte			Gs4
	.byte	W04
	.byte			Ds4
	.byte	W04
	.byte			Gs4
	.byte	W04
	.byte			Ds4
	.byte	W04
	.byte			Gs4
	.byte	W04
	.byte			Ds4
	.byte	W04
	.byte			Gn4
	.byte	W04
	.byte			Dn4
	.byte	W04
	.byte			Gn4
	.byte	W04
	.byte			Dn4
	.byte	W04
	.byte			Gn4
	.byte	W04
	.byte			Dn4
	.byte	W04
	.byte			Gn4
	.byte	W04
	.byte			Dn4
	.byte	W04
	.byte			Gn4
	.byte	W04
	.byte			Cs4
	.byte	W04
	.byte			Fs4
	.byte	W04
	.byte			Cs4
	.byte	W04
	.byte			Fs4
	.byte	W04
	.byte			Cs4
	.byte	W04
	.byte			Fs4
	.byte	W04
	.byte			Cs4
	.byte	W04
	.byte			Fs4
	.byte	W04
	.byte			Cs4
	.byte	W04
	.byte			Fn4
	.byte	W04
	.byte			Cn4
	.byte	W04
	.byte			Fn4
	.byte	W04
	.byte			Cn4
	.byte	W04
	.byte			Fn4
	.byte	W04
	.byte			Cn4
	.byte	W04
	.byte			En4
	.byte	W04
	.byte			Bn3
	.byte	W04
	.byte			En4
	.byte	W04
	.byte			Bn3
	.byte	W04
	.byte			En4
	.byte	W04
	.byte			Bn3
	.byte	W04
	.byte			An5
	.byte	W04
	.byte			An4
	.byte	W04
	.byte			An5
	.byte	W04
	.byte			An4
	.byte	W04
	.byte			An5
	.byte	W04
	.byte			An4
	.byte	W04
	.byte			An5
	.byte	W04
	.byte			An4
	.byte	W04
	.byte			An5
	.byte	W04
	.byte			Gs4
	.byte	W04
	.byte			Gs5
	.byte	W04
	.byte			Gs4
	.byte	W04
	.byte			Gs5
	.byte	W04
	.byte			Gs4
	.byte	W04
	.byte			Gs5
	.byte	W04
	.byte			Gs4
	.byte	W04
	.byte			Gs5
	.byte	W04
	.byte			Gs4
	.byte	W04
	.byte			Gn5
	.byte	W04
	.byte			Gn4
	.byte	W04
	.byte			Gn5
	.byte	W04
	.byte			Gn4
	.byte	W04
	.byte			Gn5
	.byte	W04
	.byte			Gn4
	.byte	W04
	.byte			Gn5
	.byte	W04
	.byte			Gn4
	.byte	W04
	.byte			Gn5
	.byte	W04
	.byte			Fs4
	.byte	W04
	.byte			Fs5
	.byte	W04
	.byte			Fs4
	.byte	W04
	.byte			Fs5
	.byte	W04
	.byte			Fs4
	.byte	W04
	.byte			Fs5
	.byte	W04
	.byte			Fs4
	.byte	W04
	.byte			Fs5
	.byte	W04
	.byte			Fs4
	.byte	W04
	.byte			Fn5
	.byte	W04
	.byte			Fn4
	.byte	W04
	.byte			Fn5
	.byte	W04
	.byte			Fn4
	.byte	W04
	.byte			Fn5
	.byte	W04
	.byte			Fn4
	.byte	W04
	.byte			En5
	.byte	W04
	.byte			En4
	.byte	W04
	.byte			En5
	.byte	W04
	.byte			En4
	.byte	W04
	.byte			En5
	.byte	W04
	.byte			En4
	.byte	W04
song0036_5_5:
	.byte		N04	, Bn4, v080
	.byte	W04
	.byte			Fs5
	.byte	W04
	.byte			Bn4
	.byte	W04
	.byte			Fs5
	.byte	W04
	.byte			Bn4
	.byte	W04
	.byte			Fs5
	.byte	W04
	.byte			Bn4
	.byte	W04
	.byte			Fs5
	.byte	W04
	.byte			Bn4
	.byte	W04
	.byte			Fn5
	.byte	W04
	.byte			As4
	.byte	W04
	.byte			Fn5
	.byte	W04
	.byte			As4
	.byte	W04
	.byte			Fn5
	.byte	W04
	.byte			As4
	.byte	W04
	.byte			Fn5
	.byte	W04
	.byte			As4
	.byte	W04
	.byte			Fn5
	.byte	W04
	.byte			An4
	.byte	W04
	.byte			En5
	.byte	W04
	.byte			An4
	.byte	W04
	.byte			En5
	.byte	W04
	.byte			An4
	.byte	W04
	.byte			En5
	.byte	W04
	.byte	PEND
song0036_5_6:
	.byte		N04	, An4, v080
	.byte	W04
	.byte			En5
	.byte	W04
	.byte			An4
	.byte	W04
	.byte			Ds5
	.byte	W04
	.byte			Gs4
	.byte	W04
	.byte			Ds5
	.byte	W04
	.byte			Gs4
	.byte	W04
	.byte			Ds5
	.byte	W04
	.byte			Gs4
	.byte	W04
	.byte			Ds5
	.byte	W04
	.byte			Gs4
	.byte	W04
	.byte			Ds5
	.byte	W04
	.byte			Gn4
	.byte	W04
	.byte			Dn5
	.byte	W04
	.byte			Gn4
	.byte	W04
	.byte			Dn5
	.byte	W04
	.byte			Gn4
	.byte	W04
	.byte			Dn5
	.byte	W04
	.byte			Fs4
	.byte	W04
	.byte			Cs5
	.byte	W04
	.byte			Fs4
	.byte	W04
	.byte			Cs5
	.byte	W04
	.byte			Fs4
	.byte	W04
	.byte			Cs5
	.byte	W04
	.byte	PEND
song0036_5_7:
	.byte		N04	, Bn3, v080
	.byte	W04
	.byte			Bn4
	.byte	W04
	.byte			Bn3
	.byte	W04
	.byte			Bn4
	.byte	W04
	.byte			Bn3
	.byte	W04
	.byte			Bn4
	.byte	W04
	.byte			Bn3
	.byte	W04
	.byte			Bn4
	.byte	W04
	.byte			Bn3
	.byte	W04
	.byte			As4
	.byte	W04
	.byte			As3
	.byte	W04
	.byte			As4
	.byte	W04
	.byte			As3
	.byte	W04
	.byte			As4
	.byte	W04
	.byte			As3
	.byte	W04
	.byte			As4
	.byte	W04
	.byte			As3
	.byte	W04
	.byte			As4
	.byte	W04
	.byte			An3
	.byte	W04
	.byte			An4
	.byte	W04
	.byte			An3
	.byte	W04
	.byte			An4
	.byte	W04
	.byte			An3
	.byte	W04
	.byte			An4
	.byte	W04
	.byte	PEND
song0036_5_8:
	.byte		N04	, An3, v080
	.byte	W04
	.byte			An4
	.byte	W04
	.byte			An3
	.byte	W04
	.byte			Gs4
	.byte	W04
	.byte			Gs3
	.byte	W04
	.byte			Gs4
	.byte	W04
	.byte			Gs3
	.byte	W04
	.byte			Gs4
	.byte	W04
	.byte			Gs3
	.byte	W04
	.byte			Gs4
	.byte	W04
	.byte			Gs3
	.byte	W04
	.byte			Gs4
	.byte	W04
	.byte			Gn3
	.byte	W04
	.byte			Gn4
	.byte	W04
	.byte			Gn3
	.byte	W04
	.byte			Gn4
	.byte	W04
	.byte			Gn3
	.byte	W04
	.byte			Gn4
	.byte	W04
	.byte			Fs3
	.byte	W04
	.byte			Fs4
	.byte	W04
	.byte			Fs3
	.byte	W04
	.byte			Fs4
	.byte	W04
	.byte			Fs3
	.byte	W04
	.byte			Fs4
	.byte	W04
	.byte	PEND
	.byte	PATT	
		.word	song0036_5_5
	.byte	PATT	
		.word	song0036_5_6
	.byte	PATT	
		.word	song0036_5_7
	.byte	PATT	
		.word	song0036_5_8
	.byte	W96
	.byte	W96
	.byte	GOTO	
		.word	song0036_5_9
	.byte	W96
	.byte	FINE

	@********************** Track  6 **********************@

	.global song0036_6
song0036_6:	@ 0x08C74BBA
	.byte	KEYSH	, 0
	.byte	VOICE	, 96
	.byte	PAN	, c_v
	.byte	VOL	, v094
	.byte	W03
song0036_6_1:
	.byte		N36	, Dn3, v112
	.byte	W36
	.byte			Ds3
	.byte	W36
	.byte			Fn3
	.byte	W24
	.byte	PEND
song0036_6_2:
	.byte	W12
	.byte		N36	, Gs3, v112
	.byte	W36
	.byte		N24	, An3
	.byte	W24
	.byte			As3
	.byte	W24
	.byte	PEND
	.byte	PATT	
		.word	song0036_6_1
	.byte	PATT	
		.word	song0036_6_2
song0036_6_3:
	.byte		N36	, Dn3, v100
	.byte	W36
	.byte			Ds3
	.byte	W36
	.byte			Fn3
	.byte	W24
	.byte	PEND
song0036_6_4:
	.byte	W12
	.byte		N36	, Gs3, v100
	.byte	W36
	.byte		N24	, An3
	.byte	W24
	.byte			As3
	.byte	W24
	.byte	PEND
	.byte	PATT	
		.word	song0036_6_3
	.byte	PATT	
		.word	song0036_6_4
	.byte		N48	, Fn3, v112
	.byte	W96
song0036_6_5:
	.byte	W60
	.byte		N18	, Fn3, v112
	.byte	W18
	.byte		N18	
	.byte	W18
	.byte	PEND
	.byte		N48	
	.byte	W96
	.byte	W96
	.byte		N48	
	.byte	W96
	.byte	PATT	
		.word	song0036_6_5
	.byte		N48	, Fn3, v112
	.byte	W96
	.byte	W96
song0036_6_6:
	.byte		N36	, An3, v112
	.byte	W36
	.byte			As3
	.byte	W36
	.byte			Cn4
	.byte	W24
	.byte	PEND
song0036_6_7:
	.byte	W12
	.byte		N36	, Fs3, v112
	.byte	W36
	.byte		N24	, Gn3
	.byte	W24
	.byte			Gs3
	.byte	W24
	.byte	PEND
	.byte	PATT	
		.word	song0036_6_6
	.byte	PATT	
		.word	song0036_6_7
song0036_6_8:
	.byte		N36	, Bn3, v112
	.byte	W36
	.byte			Cn4
	.byte	W36
	.byte			Dn4
	.byte	W24
	.byte	PEND
	.byte	PATT	
		.word	song0036_6_2
	.byte	PATT	
		.word	song0036_6_8
	.byte	PATT	
		.word	song0036_6_2
	.byte	PATT	
		.word	song0036_6_8
	.byte	PATT	
		.word	song0036_6_2
	.byte	PATT	
		.word	song0036_6_8
	.byte	PATT	
		.word	song0036_6_2
	.byte	W96
	.byte	W96
	.byte	GOTO	
		.word	song0036_6_1
	.byte	W96
	.byte	FINE

	@********************** Track  7 **********************@

	.global song0036_7
song0036_7:	@ 0x08C74C6D
	.byte	KEYSH	, 0
	.byte	VOICE	, 89
	.byte	VOL	, v094
	.byte	BENDR	, 12
	.byte	W03
song0036_7_1:
	.byte	W96
	.byte	PAN	, c_v+30
	.byte	W96
	.byte	W96
	.byte	W96
	.byte	W96
	.byte	W96
	.byte	W96
	.byte	W96
	.byte	W96
	.byte	W96
	.byte	W96
	.byte	W96
	.byte	W96
	.byte	W96
	.byte		N12	, Fn3, v100
	.byte	W11
	.byte	PAN	, c_v-30
	.byte	W01
	.byte		N12	, Fn4
	.byte	W23
	.byte	PAN	, c_v+30
	.byte	W01
	.byte		N12	, En4
	.byte	W23
	.byte	PAN	, c_v-30
	.byte	W01
	.byte		N12	, Cn4
	.byte	W23
	.byte	PAN	, c_v+30
	.byte	W01
	.byte		N12	, Ds4
	.byte	W12
	.byte	W11
	.byte	PAN	, c_v-30
	.byte	W01
	.byte		N12	, As3
	.byte	W23
	.byte	PAN	, c_v+30
	.byte	W01
	.byte		N24	, Cs4
	.byte	W23
	.byte	PAN	, c_v-30
	.byte	W01
	.byte		N12	, Cn4
	.byte	W11
	.byte	PAN	, c_v+30
	.byte	W01
	.byte		N12	, Gs3
	.byte	W11
	.byte	PAN	, c_v-30
	.byte	W01
	.byte		N12	, Fn3
	.byte	W12
	.byte	W96
	.byte	W96
	.byte	W96
	.byte	W96
	.byte	W96
	.byte	W96
	.byte	W96
	.byte	W92
	.byte	W03
	.byte	PAN	, c_v+30
	.byte	W01
	.byte		N30	, Bn2, v108
	.byte	W32
	.byte	W03
	.byte	PAN	, c_v-30
	.byte	W01
	.byte		N30	, Cn3
	.byte	W32
	.byte	W03
	.byte	PAN	, c_v+30
	.byte	W01
	.byte		N30	, Dn3
	.byte	W24
	.byte	W11
	.byte	PAN	, c_v-30
	.byte	W01
	.byte		N30	, En3
	.byte	W32
	.byte	W03
	.byte	PAN	, c_v+30
	.byte	W01
	.byte		N18	, Fn3
	.byte	W23
	.byte	PAN	, c_v-30
	.byte	W01
	.byte		N18	, Fs3
	.byte	W23
	.byte	PAN	, c_v+30
	.byte	W01
	.byte		N30	, Gn3
	.byte	W32
	.byte	W03
	.byte	PAN	, c_v-30
	.byte	W01
	.byte		N30	, Gs3
	.byte	W32
	.byte	W03
	.byte	PAN	, c_v+30
	.byte	W01
	.byte		N30	, As3
	.byte	W24
	.byte	W11
	.byte	PAN	, c_v-30
	.byte	W01
	.byte		N30	, Bn3
	.byte	W32
	.byte	W03
	.byte	PAN	, c_v+30
	.byte	W01
	.byte		N18	, Cn4
	.byte	W23
	.byte	PAN	, c_v-30
	.byte	W01
	.byte		N18	, Dn4
	.byte	W24
	.byte	W96
	.byte	W96
	.byte	GOTO	
		.word	song0036_7_1
	.byte	W96
	.byte	FINE

	@********************** Track  8 **********************@

	.global song0036_8
song0036_8:	@ 0x08C74D24
	.byte	KEYSH	, 0
	.byte	VOICE	, 106
	.byte	VOL	, v094
	.byte	PAN	, c_v-30
	.byte	W03
song0036_8_2:
	.byte	W96
	.byte	W96
	.byte	W96
	.byte	W96
	.byte	W96
	.byte	W96
	.byte		N36	, Dn4, v100
	.byte	W36
	.byte			Cs4
	.byte	W36
	.byte			Cn4
	.byte	W24
	.byte	W12
	.byte			Bn3
	.byte	W36
	.byte		N24	, An3
	.byte	W24
	.byte			Gs3
	.byte	W24
	.byte		N18	, En4, v104
	.byte	W96
song0036_8_1:
	.byte	W60
	.byte		N18	, En4, v104
	.byte	W18
	.byte		N18	
	.byte	W18
	.byte	PEND
	.byte		N18	
	.byte	W96
	.byte	W96
	.byte		N18	
	.byte	W96
	.byte	PATT	
		.word	song0036_8_1
	.byte		N18	, En4, v104
	.byte	W96
	.byte	W96
	.byte	W96
	.byte	W96
	.byte	W96
	.byte	W96
	.byte	W96
	.byte	W96
	.byte	W96
	.byte	W96
	.byte	W96
	.byte	W96
	.byte	W96
	.byte	W96
	.byte	W96
	.byte	W96
	.byte	GOTO	
		.word	song0036_8_2
	.byte	W96
	.byte	FINE

	@********************** Track  9 **********************@

	.global song0036_9
song0036_9:	@ 0x08C74D73
	.byte	KEYSH	, 0
	.byte	VOICE	, 106
	.byte	VOL	, v094
	.byte	PAN	, c_v+30
	.byte	MOD	, 0
	.byte	W03
song0036_9_4:
	.byte	W96
	.byte	W96
	.byte	W96
	.byte	W96
song0036_9_1:
	.byte		N36	, Dn3, v100
	.byte	W36
	.byte			Cs3
	.byte	W36
	.byte			Cn3
	.byte	W24
	.byte	PEND
song0036_9_2:
	.byte	W12
	.byte		N36	, Bn2, v100
	.byte	W36
	.byte		N24	, An2
	.byte	W24
	.byte			Gs2
	.byte	W24
	.byte	PEND
	.byte	PATT	
		.word	song0036_9_1
	.byte	PATT	
		.word	song0036_9_2
	.byte		N18	, Gs3, v104
	.byte	W96
song0036_9_3:
	.byte	W60
	.byte		N18	, Gs3, v104
	.byte	W18
	.byte		N18	
	.byte	W18
	.byte	PEND
	.byte		N18	
	.byte	W96
	.byte	W96
	.byte		N18	
	.byte	W96
	.byte	PATT	
		.word	song0036_9_3
	.byte		N18	, Gs3, v104
	.byte	W96
	.byte	W96
	.byte	W96
	.byte	W96
	.byte	W96
	.byte	W96
	.byte	W96
	.byte	W96
	.byte	W96
	.byte	W96
	.byte	W96
	.byte	W96
	.byte	W96
	.byte	W96
	.byte	W96
	.byte	W96
	.byte	GOTO	
		.word	song0036_9_4
	.byte	W96
	.byte	FINE

	@********************** Track  10 **********************@

	.global song0036_10
song0036_10:	@ 0x08C74DD0
	.byte	KEYSH	, 0
	.byte	VOICE	, 103
	.byte	VOL	, v090
	.byte	PAN	, c_v
	.byte	W03
song0036_10_1:
	.byte	W96
	.byte	W96
	.byte	W96
	.byte	W96
	.byte	W96
	.byte	W96
	.byte	W96
	.byte	W96
	.byte	W96
	.byte	W96
	.byte	W96
	.byte	W96
	.byte	W96
	.byte	W96
	.byte	W96
	.byte	W96
	.byte	BEND	, c_v-48
	.byte		N36	, Dn3, v080
	.byte	W01
	.byte	BEND	, c_v-37
	.byte	W02
	.byte		c_v-25
	.byte	W01
	.byte		c_v-13
	.byte	W02
	.byte		c_v
	.byte	W30
	.byte		N36	, Ds3
	.byte	W36
	.byte			Fn3, v084
	.byte	W24
	.byte	W12
	.byte			Bn2
	.byte	W36
	.byte		N24	, Cn3
	.byte	W24
	.byte			Cs3
	.byte	W24
	.byte	BEND	, c_v-48
	.byte		N36	, Dn3
	.byte	W01
	.byte	BEND	, c_v-37
	.byte	W02
	.byte		c_v-25
	.byte	W01
	.byte		c_v-13
	.byte	W02
	.byte		c_v
	.byte	W30
	.byte		N36	, Ds3
	.byte	W36
	.byte			Fn3
	.byte	W24
	.byte	W12
	.byte			Bn2, v088
	.byte	W36
	.byte		N24	, Cn3
	.byte	W24
	.byte			Cs3
	.byte	W24
	.byte	BEND	, c_v-48
	.byte		N36	, En3
	.byte	W01
	.byte	BEND	, c_v-37
	.byte	W02
	.byte		c_v-25
	.byte	W01
	.byte		c_v-13
	.byte	W02
	.byte		c_v
	.byte	W30
	.byte		N36	, Fn3
	.byte	W36
	.byte			Gn3
	.byte	W24
	.byte	W12
	.byte			Cs3
	.byte	W36
	.byte		N24	, Dn3, v092
	.byte	W24
	.byte			Ds3
	.byte	W24
	.byte	BEND	, c_v-48
	.byte		N36	, En3
	.byte	W01
	.byte	BEND	, c_v-37
	.byte	W02
	.byte		c_v-25
	.byte	W01
	.byte		c_v-13
	.byte	W02
	.byte		c_v
	.byte	W30
	.byte		N36	, Fn3
	.byte	W36
	.byte			Gn3
	.byte	W24
	.byte	W12
	.byte			Cs3
	.byte	W36
	.byte		N24	, Dn3
	.byte	W24
	.byte			Ds3, v096
	.byte	W24
	.byte	BEND	, c_v-48
	.byte		N36	, En3
	.byte	W01
	.byte	BEND	, c_v-37
	.byte	W02
	.byte		c_v-25
	.byte	W01
	.byte		c_v-13
	.byte	W02
	.byte		c_v
	.byte	W30
	.byte		N36	, Fn3
	.byte	W36
	.byte			Gn3
	.byte	W24
	.byte	W12
	.byte			Cs3
	.byte	W36
	.byte		N24	, Dn3
	.byte	W24
	.byte			Ds3
	.byte	W24
	.byte	BEND	, c_v-48
	.byte		N36	, En3, v100
	.byte	W01
	.byte	BEND	, c_v-37
	.byte	W02
	.byte		c_v-25
	.byte	W01
	.byte		c_v-13
	.byte	W02
	.byte		c_v
	.byte	W30
	.byte		N36	, Fn3
	.byte	W36
	.byte			Gn3
	.byte	W24
	.byte	W12
	.byte			Cs3
	.byte	W36
	.byte		N24	, Dn3
	.byte	W24
	.byte			Ds3
	.byte	W24
	.byte	W96
	.byte	W96
	.byte	GOTO	
		.word	song0036_10_1
	.byte	W96
	.byte	FINE

	@********************** Track  11 **********************@

	.global song0036_11
song0036_11:	@ 0x08C74E9A
	.byte	KEYSH	, 0
	.byte	VOICE	, 117
	.byte	VOL	, v094
	.byte	PAN	, c_v
	.byte	PRIO	, 15
	.byte	W03
song0036_11_1:
	.byte		N36	, Dn2, v112
	.byte	W36
	.byte			Ds2
	.byte	W36
	.byte			Fn2
	.byte	W24
	.byte	PEND
song0036_11_2:
	.byte	W12
	.byte		N36	, Gs2, v112
	.byte	W36
	.byte		N24	, An2
	.byte	W24
	.byte			As2
	.byte	W24
	.byte	PEND
	.byte	PATT	
		.word	song0036_11_1
	.byte	PATT	
		.word	song0036_11_2
song0036_11_3:
	.byte		N36	, Dn2, v100
	.byte	W36
	.byte			Ds2
	.byte	W36
	.byte			Fn2
	.byte	W24
	.byte	PEND
song0036_11_4:
	.byte	W12
	.byte		N36	, Gs2, v100
	.byte	W36
	.byte		N24	, An2
	.byte	W24
	.byte			As2
	.byte	W24
	.byte	PEND
	.byte	PATT	
		.word	song0036_11_3
	.byte	PATT	
		.word	song0036_11_4
	.byte	W96
	.byte	W96
	.byte	W96
	.byte	W96
	.byte	W96
	.byte	W96
	.byte	W96
	.byte	W96
song0036_11_5:
	.byte		N36	, An2, v112
	.byte	W36
	.byte			As2
	.byte	W36
	.byte			Cn3
	.byte	W24
	.byte	PEND
song0036_11_6:
	.byte	W12
	.byte		N36	, Fs2, v112
	.byte	W36
	.byte		N24	, Gn2
	.byte	W24
	.byte			Gs2
	.byte	W24
	.byte	PEND
	.byte	PATT	
		.word	song0036_11_5
	.byte	PATT	
		.word	song0036_11_6
song0036_11_7:
	.byte		N36	, Bn2, v112
	.byte	W36
	.byte			Cn3
	.byte	W36
	.byte			Dn3
	.byte	W24
	.byte	PEND
	.byte	PATT	
		.word	song0036_11_2
	.byte	PATT	
		.word	song0036_11_7
	.byte	PATT	
		.word	song0036_11_2
	.byte	PATT	
		.word	song0036_11_7
	.byte	PATT	
		.word	song0036_11_2
	.byte	PATT	
		.word	song0036_11_7
	.byte	PATT	
		.word	song0036_11_2
	.byte	W96
	.byte	W96
	.byte	GOTO	
		.word	song0036_11_1
	.byte	W96
	.byte	FINE

	.align 2
	.global song0036
song0036:	@ 0x08C74F3C
	.byte	11		@ trackCount
	.byte	0		@ blockCount
	.byte	0		@ priority
	.byte	128		@ reverb

	.word	voicegroup022		@ voicegroup/tone

	.word	song0036_1		@ track
	.word	song0036_2		@ track
	.word	song0036_3		@ track
	.word	song0036_4		@ track
	.word	song0036_5		@ track
	.word	song0036_6		@ track
	.word	song0036_7		@ track
	.word	song0036_8		@ track
	.word	song0036_9		@ track
	.word	song0036_10		@ track
	.word	song0036_11		@ track
