	.include "MPlayDef.s"

	.section .rodata

	@********************** Track  1 **********************@

	.align 2
	.global song0034_1
song0034_1:	@ 0x08C6FC68
	.byte	KEYSH	, 0
	.byte	TEMPO	, 77
	.byte	VOICE	, 123
	.byte	VOL	, v110
	.byte	W84
song0034_1_6:
	.byte		N12	, En2, v127
	.byte	W12
song0034_1_1:
	.byte		N05	, Fn2, v127
	.byte	W07
	.byte			Fs2
	.byte	W05
	.byte		N12	, Gn2
	.byte	W13
	.byte		N06	, Gs2
	.byte	W06
	.byte		N04	, An2
	.byte	W05
	.byte		N06	, Fn2
	.byte	W07
	.byte		N05	, Fs2
	.byte	W05
	.byte		N12	, Gn2
	.byte	W13
	.byte		N06	, As2, v032
	.byte	W06
	.byte		N05	, En3, v076
	.byte	W06
	.byte			Ds3, v127
	.byte	W06
	.byte			Cs3, v076
	.byte	W05
	.byte		N12	, En2, v127
	.byte	W12
	.byte	PEND
	.byte	PATT	
		.word	song0034_1_1
song0034_1_2:
	.byte		N05	, Fn2, v127
	.byte	W07
	.byte			Fs2
	.byte	W05
	.byte		N12	, Gn2
	.byte	W13
	.byte		N06	, Gs2
	.byte	W06
	.byte		N04	, An2
	.byte	W05
	.byte		N06	, Fn2
	.byte	W07
	.byte		N05	, Fs2
	.byte	W05
	.byte		N12	, Gn2
	.byte	W13
	.byte		N06	, As2, v032
	.byte	W06
	.byte		N05	, En3, v076
	.byte	W06
	.byte			Ds3, v127
	.byte	W06
	.byte			Cs3, v076
	.byte	W05
	.byte		N11	, Fn3, v127
	.byte	W12
	.byte	PEND
song0034_1_3:
	.byte		N06	, Fs3, v127
	.byte	W07
	.byte		N05	, Gn3
	.byte	W05
	.byte		N06	, Gs3
	.byte	W06
	.byte		N05	, Fn3
	.byte	W06
	.byte		N06	, An3, v032
	.byte	W07
	.byte		N04	, Gn3, v127
	.byte	W05
	.byte		N06	, An3, v032
	.byte	W07
	.byte		N05	, Fn3, v076
	.byte	W05
	.byte		N06	, Gs3, v127
	.byte	W07
	.byte		N04	, Gn3
	.byte	W05
	.byte		N05	, As3
	.byte	W06
	.byte		N06	, Bn3
	.byte	W07
	.byte		N05	, Cn4
	.byte	W05
	.byte			Cs4
	.byte	W06
	.byte		N12	, En2
	.byte	W12
	.byte	PEND
	.byte	PATT	
		.word	song0034_1_1
	.byte	PATT	
		.word	song0034_1_1
	.byte	PATT	
		.word	song0034_1_1
	.byte	PATT	
		.word	song0034_1_1
	.byte	PATT	
		.word	song0034_1_1
	.byte	PATT	
		.word	song0034_1_1
	.byte		N05	, Fn2, v127
	.byte	W07
	.byte			Fs2
	.byte	W05
	.byte		N12	, Gn2
	.byte	W13
	.byte		N06	, Gs2
	.byte	W06
	.byte		N04	, An2
	.byte	W05
	.byte		N06	, Fn2
	.byte	W07
	.byte		N05	, Fs2
	.byte	W05
	.byte		N12	, Gn2
	.byte	W13
	.byte		N06	, As2, v032
	.byte	W06
	.byte		N05	, En3, v076
	.byte	W06
	.byte			Ds3, v127
	.byte	W06
	.byte			Cs3, v076
	.byte	W05
	.byte		N11	, En2, v127
	.byte	W12
	.byte		N05	, Fn2
	.byte	W06
	.byte			Fs2
	.byte	W06
	.byte		N11	, Gn2
	.byte	W12
	.byte		N05	, Gs2
	.byte	W06
	.byte			An2
	.byte	W06
	.byte			Fn2
	.byte	W06
	.byte			Gn2
	.byte	W06
	.byte			An2
	.byte	W06
	.byte			Gn2
	.byte	W06
	.byte		N02	
	.byte	W03
	.byte		N05	
	.byte	W06
	.byte			Fn2
	.byte	W06
	.byte		N02	
	.byte	W03
	.byte		N02	
	.byte	W03
	.byte		N06	, Gn2
	.byte	W03
	.byte		N12	, En2
	.byte	W12
	.byte	PATT	
		.word	song0034_1_1
	.byte	PATT	
		.word	song0034_1_1
	.byte	PATT	
		.word	song0034_1_1
	.byte	PATT	
		.word	song0034_1_1
	.byte	PATT	
		.word	song0034_1_1
	.byte	PATT	
		.word	song0034_1_1
song0034_1_4:
	.byte		N05	, Fn2, v127
	.byte	W07
	.byte			Fs2
	.byte	W05
	.byte		N12	, Gn2
	.byte	W13
	.byte		N06	, Gs2
	.byte	W06
	.byte		N04	, An2
	.byte	W05
	.byte		N06	, Fn2
	.byte	W07
	.byte		N05	, Fs2
	.byte	W05
	.byte		N12	, Gn2
	.byte	W13
	.byte		N06	, As2, v032
	.byte	W06
	.byte		N05	, En3, v076
	.byte	W06
	.byte			Ds3, v127
	.byte	W06
	.byte			Cs3, v076
	.byte	W05
	.byte		N07	, Cs3, v127
	.byte	W07
	.byte		N04	, Bn2
	.byte	W05
	.byte	PEND
song0034_1_5:
	.byte		N06	, As2, v032
	.byte	W07
	.byte		N05	, Bn2, v127
	.byte	W05
	.byte		N11	, Cn3
	.byte	W12
	.byte			Cs3
	.byte	W12
	.byte		N06	, Dn3
	.byte	W07
	.byte		N05	, Bn2, v048
	.byte	W05
	.byte		N06	, Cs3, v127
	.byte	W07
	.byte		N05	, Cn3
	.byte	W06
	.byte		N06	, Bn2, v048
	.byte	W06
	.byte		N04	, As2, v052
	.byte	W05
	.byte		N06	, Bn2, v048
	.byte	W07
	.byte		N05	, Cn3, v127
	.byte	W05
	.byte		N12	, En2
	.byte	W12
	.byte	PEND
	.byte	PATT	
		.word	song0034_1_1
	.byte	PATT	
		.word	song0034_1_1
	.byte	PATT	
		.word	song0034_1_1
	.byte	PATT	
		.word	song0034_1_1
	.byte	PATT	
		.word	song0034_1_1
	.byte	PATT	
		.word	song0034_1_1
	.byte	PATT	
		.word	song0034_1_2
	.byte	PATT	
		.word	song0034_1_3
	.byte	PATT	
		.word	song0034_1_1
	.byte	PATT	
		.word	song0034_1_1
	.byte	PATT	
		.word	song0034_1_1
	.byte	PATT	
		.word	song0034_1_1
	.byte	PATT	
		.word	song0034_1_1
	.byte	PATT	
		.word	song0034_1_1
	.byte		N05	, Fn2, v127
	.byte	W07
	.byte			Fs2
	.byte	W05
	.byte		N12	, Gn2
	.byte	W13
	.byte		N06	, Gs2
	.byte	W06
	.byte		N04	, An2
	.byte	W05
	.byte		N06	, Fn2
	.byte	W07
	.byte		N05	, Fs2
	.byte	W05
	.byte		N12	, Gn2
	.byte	W13
	.byte		N06	, As2, v032
	.byte	W06
	.byte		N05	, En3, v076
	.byte	W06
	.byte			Ds3, v127
	.byte	W06
	.byte			Cs3, v076
	.byte	W05
	.byte		N11	, Fs4, v127
	.byte	W12
	.byte		N06	, Gn4
	.byte	W07
	.byte		N05	, Gs4
	.byte	W05
	.byte			An4, v048
	.byte	W07
	.byte			As4, v127
	.byte	W05
	.byte		N11	, Bn4
	.byte	W12
	.byte			Cn5
	.byte	W12
	.byte		N06	, Gn4
	.byte	W07
	.byte		N05	, Gs4
	.byte	W05
	.byte		N06	, An4, v048
	.byte	W07
	.byte		N05	, As4, v127
	.byte	W05
	.byte			Gn4
	.byte	W06
	.byte		N06	, Gs4
	.byte	W06
	.byte		N12	, En2
	.byte	W12
	.byte	PATT	
		.word	song0034_1_4
	.byte	PATT	
		.word	song0034_1_5
	.byte	PATT	
		.word	song0034_1_2
	.byte		N06	, Fs3, v127
	.byte	W07
	.byte		N05	, Gn3
	.byte	W05
	.byte		N06	, Gs3
	.byte	W06
	.byte		N05	, Fn3
	.byte	W06
	.byte		N06	, An3, v032
	.byte	W07
	.byte		N04	, Gn3, v127
	.byte	W05
	.byte		N06	, An3, v032
	.byte	W07
	.byte		N05	, Fn3, v076
	.byte	W05
	.byte		N06	, Gs3, v127
	.byte	W07
	.byte		N04	, Gn3
	.byte	W05
	.byte		N05	, As3
	.byte	W06
	.byte		N06	, Bn3
	.byte	W07
	.byte		N05	, Cn4
	.byte	W05
	.byte			Cs4
	.byte	W06
	.byte		N11	, En2
	.byte	W12
	.byte		N11	
	.byte	W12
	.byte		N06	, Gn2
	.byte	W06
	.byte		N05	
	.byte	W06
	.byte		N12	, Dn4
	.byte	W13
	.byte		N09	, Ds4
	.byte	W10
	.byte		N06	, En4
	.byte	W07
	.byte		N05	, Fn4
	.byte	W06
	.byte		N06	, En4
	.byte	W06
	.byte		N05	
	.byte	W06
	.byte		N06	
	.byte	W07
	.byte		N05	, Fn4
	.byte	W05
	.byte		N11	, Fs4
	.byte	W12
	.byte		N06	, Gn4
	.byte	W07
	.byte		N05	, Gs4
	.byte	W05
	.byte			An4, v048
	.byte	W07
	.byte			As4, v127
	.byte	W05
	.byte		N11	, Bn4
	.byte	W12
	.byte			Cn5
	.byte	W12
	.byte		N06	, Gn4
	.byte	W07
	.byte		N05	, Gs4
	.byte	W05
	.byte		N06	, An4, v048
	.byte	W07
	.byte		N05	, As4, v127
	.byte	W05
	.byte			Gn4
	.byte	W06
	.byte		N06	, Gs4
	.byte	W06
	.byte		N11	, Fn3
	.byte	W12
	.byte		N06	, Fs3
	.byte	W07
	.byte		N05	, Gn3
	.byte	W05
	.byte		N06	, Gs3
	.byte	W06
	.byte		N05	, Fn3
	.byte	W06
	.byte		N06	, An3, v032
	.byte	W07
	.byte		N04	, Gn3, v127
	.byte	W05
	.byte		N06	, An3, v032
	.byte	W07
	.byte		N05	, Fn3, v076
	.byte	W05
	.byte		N06	, Gs3, v127
	.byte	W07
	.byte		N04	, Gn3
	.byte	W05
	.byte		N05	, As3
	.byte	W06
	.byte		N06	, Bn3
	.byte	W07
	.byte		N05	, Cn4
	.byte	W05
	.byte			Cs4
	.byte	W06
	.byte		N07	, Cs3
	.byte	W07
	.byte		N04	, Bn2
	.byte	W05
	.byte		N06	, As2, v032
	.byte	W07
	.byte		N05	, Bn2, v127
	.byte	W05
	.byte		N11	, Cn3
	.byte	W12
	.byte			Cs3
	.byte	W12
	.byte		N06	, Dn3
	.byte	W07
	.byte		N05	, Bn2, v048
	.byte	W05
	.byte		N06	, Cs3, v127
	.byte	W07
	.byte		N05	, Cn3
	.byte	W06
	.byte		N06	, Bn2, v048
	.byte	W06
	.byte		N04	, As2, v052
	.byte	W05
	.byte		N06	, Bn2, v048
	.byte	W07
	.byte		N05	, Cn3, v127
	.byte	W05
	.byte	GOTO	
		.word	song0034_1_6
	.byte	FINE

	@********************** Track  2 **********************@

	.global song0034_2
song0034_2:	@ 0x08C6FF6F
	.byte	KEYSH	, 0
	.byte	VOICE	, 127
	.byte	VOL	, v110
	.byte	W84
song0034_2_1:
	.byte		N96	, Cs2, v127
	.byte	W12
	.byte	W96
	.byte	W96
	.byte	W96
	.byte	W84
	.byte		N96	
	.byte	W12
	.byte	W96
	.byte	W96
	.byte	W96
	.byte	W96
	.byte	W96
	.byte	W96
	.byte	W96
	.byte	W84
	.byte		N96	
	.byte	W12
	.byte	W96
	.byte	W96
	.byte	W96
	.byte	W96
	.byte	W96
	.byte	W96
	.byte	W96
	.byte	W84
	.byte		N96	
	.byte	W12
	.byte	W96
	.byte	W96
	.byte	W96
	.byte	W96
	.byte	W96
	.byte	W96
	.byte	W96
	.byte	W84
	.byte		N96	
	.byte	W12
	.byte	W96
	.byte	W96
	.byte	W96
	.byte	W96
	.byte	W96
	.byte	W96
	.byte	W96
	.byte	W96
	.byte	W96
	.byte	W96
	.byte	W96
	.byte	W96
	.byte	W96
	.byte	W96
	.byte	W96
	.byte	W84
	.byte	GOTO	
		.word	song0034_2_1
	.byte	FINE

	@********************** Track  3 **********************@

	.global song0034_3
song0034_3:	@ 0x08C6FFB4
	.byte	KEYSH	, 0
	.byte	VOICE	, 103
	.byte	VOL	, v110
	.byte	PAN	, c_v
	.byte	W12
	.byte		N68	, Ds1, v112
	.byte	W72
song0034_3_16:
	.byte		N32	, Gs1, v127
	.byte	W12
song0034_3_1:
	.byte	W24
	.byte		N56	, Ds2, v127
	.byte	W60
	.byte		N32	, Gs1
	.byte	W12
	.byte	PEND
	.byte	W24
	.byte			Ds2
	.byte	W36
	.byte		N11	
	.byte	W12
	.byte			Ds1
	.byte	W12
	.byte		N32	, Gs1
	.byte	W12
	.byte	PATT	
		.word	song0034_3_1
	.byte	W24
	.byte		N32	, Ds2, v127
	.byte	W36
	.byte		N11	, Ds1
	.byte	W12
	.byte			Ds2
	.byte	W12
	.byte		N32	, Gs2
	.byte	W12
song0034_3_2:
	.byte	W24
	.byte		N56	, Ds2, v127
	.byte	W60
	.byte		N32	, Gn1
	.byte	W12
	.byte	PEND
song0034_3_3:
	.byte	W24
	.byte		N32	, Dn2, v127
	.byte	W36
	.byte		N11	
	.byte	W12
	.byte			Gn1
	.byte	W12
	.byte		N32	, Gs1
	.byte	W12
	.byte	PEND
song0034_3_4:
	.byte	W24
	.byte		N56	, Ds2, v127
	.byte	W60
	.byte		N32	, An1
	.byte	W12
	.byte	PEND
song0034_3_5:
	.byte	W24
	.byte		N32	, En2, v127
	.byte	W36
	.byte		N11	, An1
	.byte	W12
	.byte			En2
	.byte	W12
	.byte		N32	, Gs1
	.byte	W12
	.byte	PEND
song0034_3_6:
	.byte	W24
	.byte		N56	, Ds2, v127
	.byte	W60
	.byte		N32	, Dn2
	.byte	W12
	.byte	PEND
song0034_3_7:
	.byte	W24
	.byte		N32	, Gn1, v127
	.byte	W36
	.byte		N11	
	.byte	W12
	.byte			Dn2
	.byte	W12
	.byte		N32	, Gs1
	.byte	W12
	.byte	PEND
song0034_3_8:
	.byte	W24
	.byte		N56	, Ds2, v127
	.byte	W60
	.byte		N32	, Gs2
	.byte	W12
	.byte	PEND
	.byte	W24
	.byte			Ds2
	.byte	W36
	.byte		N11	
	.byte	W12
	.byte			Gs2
	.byte	W12
	.byte		N32	
	.byte	W12
	.byte	PATT	
		.word	song0034_3_2
	.byte	PATT	
		.word	song0034_3_3
	.byte	PATT	
		.word	song0034_3_4
	.byte	PATT	
		.word	song0034_3_5
	.byte	PATT	
		.word	song0034_3_6
	.byte	PATT	
		.word	song0034_3_7
	.byte	PATT	
		.word	song0034_3_8
	.byte	W24
	.byte		N23	, Ds2, v127
	.byte	W24
	.byte		N11	, Gs1
	.byte	W12
	.byte			An1
	.byte	W12
	.byte			As1
	.byte	W12
	.byte		N32	, Bn1
	.byte	W12
song0034_3_9:
	.byte	W24
	.byte		N56	, Fs2, v127
	.byte	W60
	.byte		N32	, As1
	.byte	W12
	.byte	PEND
song0034_3_10:
	.byte	W24
	.byte		N32	, Fn2, v127
	.byte	W36
	.byte		N11	
	.byte	W12
	.byte			As1
	.byte	W12
	.byte		N32	, Bn1
	.byte	W12
	.byte	PEND
song0034_3_11:
	.byte	W24
	.byte		N56	, Fs2, v127
	.byte	W60
	.byte		N32	, Cn2
	.byte	W12
	.byte	PEND
song0034_3_12:
	.byte	W24
	.byte		N32	, Gn2, v127
	.byte	W36
	.byte		N11	, Cn2
	.byte	W12
	.byte			Gn2
	.byte	W12
	.byte		N32	, Bn1
	.byte	W12
	.byte	PEND
song0034_3_13:
	.byte	W24
	.byte		N56	, Fs2, v127
	.byte	W60
	.byte		N32	, Fn2
	.byte	W12
	.byte	PEND
song0034_3_14:
	.byte	W24
	.byte		N32	, As1, v127
	.byte	W36
	.byte		N11	
	.byte	W12
	.byte			Fn2
	.byte	W12
	.byte		N32	, Bn1
	.byte	W12
	.byte	PEND
song0034_3_15:
	.byte	W24
	.byte		N56	, Fs2, v127
	.byte	W60
	.byte		N32	, Bn2
	.byte	W12
	.byte	PEND
	.byte	W24
	.byte			Fs2
	.byte	W36
	.byte		N11	
	.byte	W12
	.byte			Bn2
	.byte	W12
	.byte		N32	, Bn1
	.byte	W12
	.byte	PATT	
		.word	song0034_3_9
	.byte	PATT	
		.word	song0034_3_10
	.byte	PATT	
		.word	song0034_3_11
	.byte	PATT	
		.word	song0034_3_12
	.byte	PATT	
		.word	song0034_3_13
	.byte	PATT	
		.word	song0034_3_14
	.byte	PATT	
		.word	song0034_3_15
	.byte	W24
	.byte		N32	, Fs2, v127
	.byte	W36
	.byte		N11	
	.byte	W12
	.byte			Bn2
	.byte	W12
	.byte		N16	, Gn2
	.byte	W12
	.byte	W24
	.byte		N22	, Gn1
	.byte	W72
	.byte	W84
	.byte		N18	, Gn2
	.byte	W12
	.byte	W24
	.byte		N22	, Gn1
	.byte	W72
	.byte	W84
	.byte		N18	, Cs2
	.byte	W12
	.byte	W24
	.byte		N19	, Cs1
	.byte	W72
	.byte	W84
	.byte		N18	, Cs2
	.byte	W12
	.byte	W24
	.byte		N17	, Cs1
	.byte	W72
	.byte	W12
	.byte		N44	, Ds2
	.byte	W48
	.byte		N23	, Ds1
	.byte	W24
	.byte	GOTO	
		.word	song0034_3_16
	.byte	FINE

	@********************** Track  4 **********************@

	.global song0034_4
song0034_4:	@ 0x08C7011F
	.byte	KEYSH	, 0
	.byte	VOICE	, 100
	.byte	VOL	, v110
	.byte	BENDR	, 8
	.byte	W84
song0034_4_14:
	.byte	W12
	.byte	W96
	.byte	W96
	.byte	W96
	.byte	W84
	.byte	VOL	, v090
	.byte	W02
	.byte		v089
	.byte	W01
	.byte		v088
	.byte	W01
	.byte		v087
	.byte	W01
	.byte		v086
	.byte	W01
	.byte		v085
	.byte		N06	, En3, v116
	.byte	W01
	.byte	VOL	, v084
	.byte	W01
	.byte		v084
	.byte	W01
	.byte		v083
	.byte	W01
	.byte		v082
	.byte	W01
	.byte		v081
	.byte	W01
song0034_4_1:
	.byte	VOL	, v080
	.byte	W01
	.byte		v079
	.byte	W01
	.byte		v078
	.byte	W01
	.byte		v077
	.byte	W01
	.byte		v077
	.byte	W01
	.byte		v076
	.byte	W01
	.byte		v075
	.byte	W01
	.byte		v074
	.byte	W01
	.byte		v073
	.byte	W01
	.byte		v072
	.byte	W01
	.byte		v071
	.byte	W01
	.byte		v071
	.byte	W01
	.byte		v070
	.byte		N06	, En3, v116
	.byte	W01
	.byte	VOL	, v069
	.byte	W01
	.byte		v068
	.byte	W01
	.byte		v067
	.byte	W01
	.byte		v066
	.byte	W01
	.byte		v065
	.byte	W01
	.byte		v064
	.byte	W01
	.byte		v064
	.byte	W01
	.byte		v063
	.byte	W01
	.byte		v062
	.byte	W01
	.byte		v061
	.byte	W01
	.byte		v060
	.byte	W01
	.byte		v059
	.byte	W01
	.byte		v058
	.byte	W01
	.byte		v058
	.byte	W01
	.byte		v057
	.byte	W01
	.byte		v056
	.byte	W01
	.byte		v055
	.byte	W01
	.byte		v054
	.byte		N06	
	.byte	W01
	.byte	VOL	, v053
	.byte	W01
	.byte		v052
	.byte	W01
	.byte		v051
	.byte	W01
	.byte		v051
	.byte	W01
	.byte		v050
	.byte	W01
	.byte		v049
	.byte	W01
	.byte		v048
	.byte	W01
	.byte		v047
	.byte	W01
	.byte		v046
	.byte	W01
	.byte		v045
	.byte	W01
	.byte		v045
	.byte	W01
	.byte		v044
	.byte	W01
	.byte		v043
	.byte	W01
	.byte		v042
	.byte	W01
	.byte		v041
	.byte	W01
	.byte		v040
	.byte	W01
	.byte		v039
	.byte	W01
	.byte		v038
	.byte		N06	
	.byte	W01
	.byte	VOL	, v038
	.byte	W01
	.byte		v037
	.byte	W01
	.byte		v036
	.byte	W01
	.byte		v035
	.byte	W01
	.byte		v034
	.byte	W01
	.byte		v033
	.byte	W01
	.byte		v032
	.byte	W01
	.byte		v032
	.byte	W01
	.byte		v031
	.byte	W01
	.byte		v030
	.byte	W01
	.byte		v029
	.byte	W01
	.byte		v028
	.byte	W01
	.byte		v027
	.byte	W01
	.byte		v026
	.byte	W01
	.byte		v025
	.byte	W01
	.byte		v025
	.byte	W01
	.byte		v024
	.byte	W01
	.byte		v023
	.byte		N06	
	.byte	W01
	.byte	VOL	, v022
	.byte	W01
	.byte		v021
	.byte	W01
	.byte		v020
	.byte	W01
	.byte		v019
	.byte	W01
	.byte		v019
	.byte	W01
	.byte		v018
	.byte	W01
	.byte		v017
	.byte	W01
	.byte		v016
	.byte	W01
	.byte		v015
	.byte	W01
	.byte		v014
	.byte	W01
	.byte		v013
	.byte	W01
	.byte		v012
	.byte	W01
	.byte		v012
	.byte	W01
	.byte		v011
	.byte	W01
	.byte		v009
	.byte	W02
	.byte		v010
	.byte	W01
	.byte		v011
	.byte	W01
	.byte		v012
	.byte	W01
	.byte		v012
	.byte	W01
	.byte		v013
	.byte	W01
	.byte		v014
	.byte	W01
	.byte		v016
	.byte	W01
	.byte		v017
	.byte		N06	, Ds3
	.byte	W01
	.byte	VOL	, v018
	.byte	W01
	.byte		v019
	.byte	W01
	.byte		v019
	.byte	W01
	.byte		v020
	.byte	W01
	.byte		v021
	.byte	W01
	.byte	PEND
song0034_4_2:
	.byte	VOL	, v022
	.byte	W01
	.byte		v023
	.byte	W01
	.byte		v025
	.byte	W01
	.byte		v025
	.byte	W01
	.byte		v026
	.byte	W01
	.byte		v027
	.byte	W01
	.byte		v028
	.byte	W01
	.byte		v029
	.byte	W01
	.byte		v030
	.byte	W01
	.byte		v031
	.byte	W01
	.byte		v032
	.byte	W01
	.byte		v033
	.byte	W01
	.byte		v034
	.byte		N06	, Ds3, v116
	.byte	W01
	.byte	VOL	, v035
	.byte	W01
	.byte		v036
	.byte	W01
	.byte		v037
	.byte	W01
	.byte		v038
	.byte	W01
	.byte		v038
	.byte	W01
	.byte		v039
	.byte	W01
	.byte		v040
	.byte	W01
	.byte		v042
	.byte	W01
	.byte		v043
	.byte	W01
	.byte		v044
	.byte	W01
	.byte		v045
	.byte	W01
	.byte		v045
	.byte	W01
	.byte		v046
	.byte	W01
	.byte		v047
	.byte	W01
	.byte		v048
	.byte	W01
	.byte		v049
	.byte	W01
	.byte		v051
	.byte	W01
	.byte		v051
	.byte		N06	
	.byte	W01
	.byte	VOL	, v052
	.byte	W01
	.byte		v053
	.byte	W01
	.byte		v054
	.byte	W01
	.byte		v055
	.byte	W01
	.byte		v056
	.byte	W01
	.byte		v057
	.byte	W01
	.byte		v058
	.byte	W01
	.byte		v059
	.byte	W01
	.byte		v060
	.byte	W01
	.byte		v061
	.byte	W01
	.byte		v062
	.byte	W01
	.byte		v063
	.byte	W01
	.byte		v064
	.byte	W01
	.byte		v064
	.byte	W01
	.byte		v065
	.byte	W01
	.byte		v066
	.byte	W01
	.byte		v068
	.byte	W01
	.byte		v069
	.byte		N06	
	.byte	W01
	.byte	VOL	, v070
	.byte	W01
	.byte		v071
	.byte	W01
	.byte		v071
	.byte	W01
	.byte		v072
	.byte	W01
	.byte		v073
	.byte	W01
	.byte		v074
	.byte	W01
	.byte		v075
	.byte	W01
	.byte		v077
	.byte	W01
	.byte		v077
	.byte	W01
	.byte		v078
	.byte	W01
	.byte		v079
	.byte	W01
	.byte		v080
	.byte	W01
	.byte		v081
	.byte	W01
	.byte		v082
	.byte	W01
	.byte		v083
	.byte	W01
	.byte		v084
	.byte	W01
	.byte		v085
	.byte	W01
	.byte		v086
	.byte		N06	
	.byte	W01
	.byte	VOL	, v087
	.byte	W01
	.byte		v088
	.byte	W01
	.byte		v089
	.byte	W15
	.byte		v090
	.byte	W02
	.byte		v089
	.byte	W01
	.byte		v088
	.byte	W01
	.byte		v087
	.byte	W01
	.byte		v086
	.byte	W01
	.byte		v085
	.byte		N06	, En3
	.byte	W01
	.byte	VOL	, v084
	.byte	W01
	.byte		v084
	.byte	W01
	.byte		v083
	.byte	W01
	.byte		v082
	.byte	W01
	.byte		v081
	.byte	W01
	.byte	PEND
song0034_4_3:
	.byte	VOL	, v080
	.byte	W01
	.byte		v079
	.byte	W01
	.byte		v078
	.byte	W01
	.byte		v077
	.byte	W01
	.byte		v077
	.byte	W01
	.byte		v076
	.byte	W01
	.byte		v075
	.byte	W01
	.byte		v074
	.byte	W01
	.byte		v073
	.byte	W01
	.byte		v072
	.byte	W01
	.byte		v071
	.byte	W01
	.byte		v071
	.byte	W01
	.byte		v070
	.byte		N06	, En3, v116
	.byte	W01
	.byte	VOL	, v069
	.byte	W01
	.byte		v068
	.byte	W01
	.byte		v067
	.byte	W01
	.byte		v066
	.byte	W01
	.byte		v065
	.byte	W01
	.byte		v064
	.byte	W01
	.byte		v064
	.byte	W01
	.byte		v063
	.byte	W01
	.byte		v062
	.byte	W01
	.byte		v061
	.byte	W01
	.byte		v060
	.byte	W01
	.byte		v059
	.byte	W01
	.byte		v058
	.byte	W01
	.byte		v058
	.byte	W01
	.byte		v057
	.byte	W01
	.byte		v056
	.byte	W01
	.byte		v055
	.byte	W01
	.byte		v054
	.byte		N06	
	.byte	W01
	.byte	VOL	, v053
	.byte	W01
	.byte		v052
	.byte	W01
	.byte		v051
	.byte	W01
	.byte		v051
	.byte	W01
	.byte		v050
	.byte	W01
	.byte		v049
	.byte	W01
	.byte		v048
	.byte	W01
	.byte		v047
	.byte	W01
	.byte		v046
	.byte	W01
	.byte		v045
	.byte	W01
	.byte		v045
	.byte	W01
	.byte		v044
	.byte	W01
	.byte		v043
	.byte	W01
	.byte		v042
	.byte	W01
	.byte		v041
	.byte	W01
	.byte		v040
	.byte	W01
	.byte		v039
	.byte	W01
	.byte		v038
	.byte		N06	
	.byte	W01
	.byte	VOL	, v038
	.byte	W01
	.byte		v037
	.byte	W01
	.byte		v036
	.byte	W01
	.byte		v035
	.byte	W01
	.byte		v034
	.byte	W01
	.byte		v033
	.byte	W01
	.byte		v032
	.byte	W01
	.byte		v032
	.byte	W01
	.byte		v031
	.byte	W01
	.byte		v030
	.byte	W01
	.byte		v029
	.byte	W01
	.byte		v028
	.byte	W01
	.byte		v027
	.byte	W01
	.byte		v026
	.byte	W01
	.byte		v025
	.byte	W01
	.byte		v025
	.byte	W01
	.byte		v024
	.byte	W01
	.byte		v023
	.byte		N06	
	.byte	W01
	.byte	VOL	, v022
	.byte	W01
	.byte		v021
	.byte	W01
	.byte		v020
	.byte	W01
	.byte		v019
	.byte	W01
	.byte		v019
	.byte	W01
	.byte		v018
	.byte	W01
	.byte		v017
	.byte	W01
	.byte		v016
	.byte	W01
	.byte		v015
	.byte	W01
	.byte		v014
	.byte	W01
	.byte		v013
	.byte	W01
	.byte		v012
	.byte	W01
	.byte		v012
	.byte	W01
	.byte		v011
	.byte	W01
	.byte		v009
	.byte	W02
	.byte		v010
	.byte	W01
	.byte		v011
	.byte	W01
	.byte		v012
	.byte	W01
	.byte		v012
	.byte	W01
	.byte		v013
	.byte	W01
	.byte		v014
	.byte	W01
	.byte		v016
	.byte	W01
	.byte		v017
	.byte		N06	, Fn3
	.byte	W01
	.byte	VOL	, v018
	.byte	W01
	.byte		v019
	.byte	W01
	.byte		v019
	.byte	W01
	.byte		v020
	.byte	W01
	.byte		v021
	.byte	W01
	.byte	PEND
song0034_4_4:
	.byte	VOL	, v022
	.byte	W01
	.byte		v023
	.byte	W01
	.byte		v025
	.byte	W01
	.byte		v025
	.byte	W01
	.byte		v026
	.byte	W01
	.byte		v027
	.byte	W01
	.byte		v028
	.byte	W01
	.byte		v029
	.byte	W01
	.byte		v030
	.byte	W01
	.byte		v031
	.byte	W01
	.byte		v032
	.byte	W01
	.byte		v033
	.byte	W01
	.byte		v034
	.byte		N06	, Fn3, v116
	.byte	W01
	.byte	VOL	, v035
	.byte	W01
	.byte		v036
	.byte	W01
	.byte		v037
	.byte	W01
	.byte		v038
	.byte	W01
	.byte		v038
	.byte	W01
	.byte		v039
	.byte	W01
	.byte		v040
	.byte	W01
	.byte		v042
	.byte	W01
	.byte		v043
	.byte	W01
	.byte		v044
	.byte	W01
	.byte		v045
	.byte	W01
	.byte		v045
	.byte	W01
	.byte		v046
	.byte	W01
	.byte		v047
	.byte	W01
	.byte		v048
	.byte	W01
	.byte		v049
	.byte	W01
	.byte		v051
	.byte	W01
	.byte		v051
	.byte		N06	
	.byte	W01
	.byte	VOL	, v052
	.byte	W01
	.byte		v053
	.byte	W01
	.byte		v054
	.byte	W01
	.byte		v055
	.byte	W01
	.byte		v056
	.byte	W01
	.byte		v057
	.byte	W01
	.byte		v058
	.byte	W01
	.byte		v059
	.byte	W01
	.byte		v060
	.byte	W01
	.byte		v061
	.byte	W01
	.byte		v062
	.byte	W01
	.byte		v063
	.byte	W01
	.byte		v064
	.byte	W01
	.byte		v064
	.byte	W01
	.byte		v065
	.byte	W01
	.byte		v066
	.byte	W01
	.byte		v068
	.byte	W01
	.byte		v069
	.byte		N06	
	.byte	W01
	.byte	VOL	, v070
	.byte	W01
	.byte		v071
	.byte	W01
	.byte		v071
	.byte	W01
	.byte		v072
	.byte	W01
	.byte		v073
	.byte	W01
	.byte		v074
	.byte	W01
	.byte		v075
	.byte	W01
	.byte		v077
	.byte	W01
	.byte		v077
	.byte	W01
	.byte		v078
	.byte	W01
	.byte		v079
	.byte	W01
	.byte		v080
	.byte	W01
	.byte		v081
	.byte	W01
	.byte		v082
	.byte	W01
	.byte		v083
	.byte	W01
	.byte		v084
	.byte	W01
	.byte		v085
	.byte	W01
	.byte		v086
	.byte		N06	
	.byte	W01
	.byte	VOL	, v087
	.byte	W01
	.byte		v088
	.byte	W01
	.byte		v089
	.byte	W15
	.byte		v090
	.byte	W02
	.byte		v089
	.byte	W01
	.byte		v088
	.byte	W01
	.byte		v087
	.byte	W01
	.byte		v086
	.byte	W01
	.byte		v085
	.byte		N06	, En3
	.byte	W01
	.byte	VOL	, v084
	.byte	W01
	.byte		v084
	.byte	W01
	.byte		v083
	.byte	W01
	.byte		v082
	.byte	W01
	.byte		v081
	.byte	W01
	.byte	PEND
	.byte	PATT	
		.word	song0034_4_1
	.byte	PATT	
		.word	song0034_4_2
song0034_4_5:
	.byte	VOL	, v080
	.byte	W01
	.byte		v079
	.byte	W01
	.byte		v078
	.byte	W01
	.byte		v077
	.byte	W01
	.byte		v077
	.byte	W01
	.byte		v076
	.byte	W01
	.byte		v075
	.byte	W01
	.byte		v074
	.byte	W01
	.byte		v073
	.byte	W01
	.byte		v072
	.byte	W01
	.byte		v071
	.byte	W01
	.byte		v071
	.byte	W01
	.byte		v070
	.byte		N06	, En3, v116
	.byte	W01
	.byte	VOL	, v069
	.byte	W01
	.byte		v068
	.byte	W01
	.byte		v067
	.byte	W01
	.byte		v066
	.byte	W01
	.byte		v065
	.byte	W01
	.byte		v064
	.byte	W01
	.byte		v064
	.byte	W01
	.byte		v063
	.byte	W01
	.byte		v062
	.byte	W01
	.byte		v061
	.byte	W01
	.byte		v060
	.byte	W01
	.byte		v059
	.byte	W01
	.byte		v058
	.byte	W01
	.byte		v058
	.byte	W01
	.byte		v057
	.byte	W01
	.byte		v056
	.byte	W01
	.byte		v055
	.byte	W01
	.byte		v054
	.byte		N06	
	.byte	W01
	.byte	VOL	, v053
	.byte	W01
	.byte		v052
	.byte	W01
	.byte		v051
	.byte	W01
	.byte		v051
	.byte	W01
	.byte		v050
	.byte	W01
	.byte		v049
	.byte	W01
	.byte		v048
	.byte	W01
	.byte		v047
	.byte	W01
	.byte		v046
	.byte	W01
	.byte		v045
	.byte	W01
	.byte		v045
	.byte	W01
	.byte		v044
	.byte	W01
	.byte		v043
	.byte	W01
	.byte		v042
	.byte	W01
	.byte		v041
	.byte	W01
	.byte		v040
	.byte	W01
	.byte		v039
	.byte	W01
	.byte		v038
	.byte		N06	
	.byte	W01
	.byte	VOL	, v038
	.byte	W01
	.byte		v037
	.byte	W01
	.byte		v036
	.byte	W01
	.byte		v035
	.byte	W01
	.byte		v034
	.byte	W01
	.byte		v033
	.byte	W01
	.byte		v032
	.byte	W01
	.byte		v032
	.byte	W01
	.byte		v031
	.byte	W01
	.byte		v030
	.byte	W01
	.byte		v029
	.byte	W01
	.byte		v028
	.byte	W01
	.byte		v027
	.byte	W01
	.byte		v026
	.byte	W01
	.byte		v025
	.byte	W01
	.byte		v025
	.byte	W01
	.byte		v024
	.byte	W01
	.byte		v023
	.byte		N06	
	.byte	W01
	.byte	VOL	, v022
	.byte	W01
	.byte		v021
	.byte	W01
	.byte		v020
	.byte	W01
	.byte		v019
	.byte	W01
	.byte		v019
	.byte	W01
	.byte		v018
	.byte	W01
	.byte		v017
	.byte	W01
	.byte		v016
	.byte	W01
	.byte		v015
	.byte	W01
	.byte		v014
	.byte	W01
	.byte		v013
	.byte	W01
	.byte		v012
	.byte	W01
	.byte		v012
	.byte	W01
	.byte		v011
	.byte	W01
	.byte		v009
	.byte	W02
	.byte		v010
	.byte	W01
	.byte		v011
	.byte	W01
	.byte		v012
	.byte	W01
	.byte		v012
	.byte	W01
	.byte		v013
	.byte	W01
	.byte		v014
	.byte	W01
	.byte		v016
	.byte	W01
	.byte		v017
	.byte	W01
	.byte		v018
	.byte	W01
	.byte		v019
	.byte	W01
	.byte		v019
	.byte	W01
	.byte		v020
	.byte	W01
	.byte		v021
	.byte	W01
	.byte	PEND
	.byte		v022
	.byte	W01
	.byte		v023
	.byte	W01
	.byte		v025
	.byte	W01
	.byte		v025
	.byte	W01
	.byte		v026
	.byte	W01
	.byte		v027
	.byte	W01
	.byte		v028
	.byte	W01
	.byte		v029
	.byte	W01
	.byte		v030
	.byte	W01
	.byte		v031
	.byte	W01
	.byte		v032
	.byte	W01
	.byte		v033
	.byte	W01
	.byte		v034
	.byte	W01
	.byte		v035
	.byte	W01
	.byte		v036
	.byte	W01
	.byte		v037
	.byte	W01
	.byte		v038
	.byte	W01
	.byte		v038
	.byte	W01
	.byte		v039
	.byte	W01
	.byte		v040
	.byte	W01
	.byte		v042
	.byte	W01
	.byte		v043
	.byte	W01
	.byte		v044
	.byte	W01
	.byte		v045
	.byte	W01
	.byte		v045
	.byte	W01
	.byte		v046
	.byte	W01
	.byte		v047
	.byte	W01
	.byte		v048
	.byte	W01
	.byte		v049
	.byte	W01
	.byte		v051
	.byte	W01
	.byte		v051
	.byte	W01
	.byte		v052
	.byte	W01
	.byte		v053
	.byte	W01
	.byte		v054
	.byte	W01
	.byte		v055
	.byte	W01
	.byte		v056
	.byte	W01
	.byte		v057
	.byte	W01
	.byte		v058
	.byte	W01
	.byte		v059
	.byte	W01
	.byte		v060
	.byte	W01
	.byte		v061
	.byte	W01
	.byte		v062
	.byte	W01
	.byte		v063
	.byte	W01
	.byte		v064
	.byte	W01
	.byte		v064
	.byte	W01
	.byte		v065
	.byte	W01
	.byte		v066
	.byte	W01
	.byte		v068
	.byte	W01
	.byte		v069
	.byte	W01
	.byte		v070
	.byte	W01
	.byte		v071
	.byte	W01
	.byte		v071
	.byte	W01
	.byte		v072
	.byte	W01
	.byte		v073
	.byte	W01
	.byte		v074
	.byte	W01
	.byte		v075
	.byte	W01
	.byte		v077
	.byte	W01
	.byte		v077
	.byte	W01
	.byte		v078
	.byte	W01
	.byte		v079
	.byte	W01
	.byte		v080
	.byte	W01
	.byte		v081
	.byte	W01
	.byte		v082
	.byte	W01
	.byte		v083
	.byte	W01
	.byte		v084
	.byte	W01
	.byte		v085
	.byte	W01
	.byte		v086
	.byte	W01
	.byte		v087
	.byte	W01
	.byte		v088
	.byte	W01
	.byte		v089
	.byte	W15
	.byte		v090
	.byte	W02
	.byte		v089
	.byte	W01
	.byte		v088
	.byte	W01
	.byte		v087
	.byte	W01
	.byte		v086
	.byte	W01
	.byte		v085
	.byte		N06	
	.byte	W01
	.byte	VOL	, v084
	.byte	W01
	.byte		v084
	.byte	W01
	.byte		v083
	.byte	W01
	.byte		v082
	.byte	W01
	.byte		v081
	.byte	W01
	.byte	PATT	
		.word	song0034_4_1
	.byte	PATT	
		.word	song0034_4_2
	.byte	PATT	
		.word	song0034_4_3
	.byte	PATT	
		.word	song0034_4_4
	.byte	PATT	
		.word	song0034_4_1
	.byte	PATT	
		.word	song0034_4_2
	.byte	PATT	
		.word	song0034_4_5
song0034_4_8:
	.byte	VOL	, v022
	.byte	W01
	.byte		v023
	.byte	W01
	.byte		v025
	.byte	W01
	.byte		v025
	.byte	W01
	.byte		v026
	.byte	W01
	.byte		v027
	.byte	W01
	.byte		v028
	.byte	W01
	.byte		v029
	.byte	W01
	.byte		v030
	.byte	W01
	.byte		v031
	.byte	W01
	.byte		v032
	.byte	W01
	.byte		v033
	.byte	W01
	.byte		v034
	.byte	W01
	.byte		v035
	.byte	W01
	.byte		v036
	.byte	W01
	.byte		v037
	.byte	W01
	.byte		v038
	.byte	W01
	.byte		v038
	.byte	W01
	.byte		v039
	.byte	W01
	.byte		v040
	.byte	W01
	.byte		v042
	.byte	W01
	.byte		v043
	.byte	W01
	.byte		v044
	.byte	W01
	.byte		v045
	.byte	W01
	.byte		v045
	.byte	W01
	.byte		v046
	.byte	W01
	.byte		v047
	.byte	W01
	.byte		v048
	.byte	W01
	.byte		v049
	.byte	W01
	.byte		v051
	.byte	W01
	.byte		v051
	.byte	W01
	.byte		v052
	.byte	W01
	.byte		v053
	.byte	W01
	.byte		v054
	.byte	W01
	.byte		v055
	.byte	W01
	.byte		v056
	.byte	W01
	.byte		v057
	.byte	W01
	.byte		v058
	.byte	W01
	.byte		v059
	.byte	W01
	.byte		v060
	.byte	W01
	.byte		v061
	.byte	W01
	.byte		v062
	.byte	W01
	.byte		v063
	.byte	W01
	.byte		v064
	.byte	W01
	.byte		v064
	.byte	W01
	.byte		v065
	.byte	W01
	.byte		v066
	.byte	W01
	.byte		v068
	.byte	W01
	.byte		v069
	.byte	W01
	.byte		v070
	.byte	W01
	.byte		v071
	.byte	W01
	.byte		v071
	.byte	W01
	.byte		v072
	.byte	W01
	.byte		v073
	.byte	W01
	.byte		v074
	.byte	W01
	.byte		v075
	.byte	W01
	.byte		v077
	.byte	W01
	.byte		v077
	.byte	W01
	.byte		v078
	.byte	W01
	.byte		v079
	.byte	W01
	.byte		v080
	.byte	W01
	.byte		v081
	.byte	W01
	.byte		v082
	.byte	W01
	.byte		v083
	.byte	W01
	.byte		v084
	.byte	W01
	.byte		v085
	.byte	W01
	.byte		v086
	.byte	W01
	.byte		v087
	.byte	W01
	.byte		v088
	.byte	W01
	.byte		v089
	.byte	W15
	.byte		v090
	.byte	W02
	.byte		v089
	.byte	W01
	.byte		v088
	.byte	W01
	.byte		v087
	.byte	W01
	.byte		v086
	.byte	W01
	.byte		v085
	.byte		N06	, Gn3, v116
	.byte	W01
	.byte	VOL	, v084
	.byte	W01
	.byte		v084
	.byte	W01
	.byte		v083
	.byte	W01
	.byte		v082
	.byte	W01
	.byte		v081
	.byte	W01
	.byte	PEND
song0034_4_6:
	.byte	VOL	, v080
	.byte	W01
	.byte		v079
	.byte	W01
	.byte		v078
	.byte	W01
	.byte		v077
	.byte	W01
	.byte		v077
	.byte	W01
	.byte		v076
	.byte	W01
	.byte		v075
	.byte	W01
	.byte		v074
	.byte	W01
	.byte		v073
	.byte	W01
	.byte		v072
	.byte	W01
	.byte		v071
	.byte	W01
	.byte		v071
	.byte	W01
	.byte		v070
	.byte		N06	, Gn3, v116
	.byte	W01
	.byte	VOL	, v069
	.byte	W01
	.byte		v068
	.byte	W01
	.byte		v067
	.byte	W01
	.byte		v066
	.byte	W01
	.byte		v065
	.byte	W01
	.byte		v064
	.byte	W01
	.byte		v064
	.byte	W01
	.byte		v063
	.byte	W01
	.byte		v062
	.byte	W01
	.byte		v061
	.byte	W01
	.byte		v060
	.byte	W01
	.byte		v059
	.byte	W01
	.byte		v058
	.byte	W01
	.byte		v058
	.byte	W01
	.byte		v057
	.byte	W01
	.byte		v056
	.byte	W01
	.byte		v055
	.byte	W01
	.byte		v054
	.byte		N06	
	.byte	W01
	.byte	VOL	, v053
	.byte	W01
	.byte		v052
	.byte	W01
	.byte		v051
	.byte	W01
	.byte		v051
	.byte	W01
	.byte		v050
	.byte	W01
	.byte		v049
	.byte	W01
	.byte		v048
	.byte	W01
	.byte		v047
	.byte	W01
	.byte		v046
	.byte	W01
	.byte		v045
	.byte	W01
	.byte		v045
	.byte	W01
	.byte		v044
	.byte	W01
	.byte		v043
	.byte	W01
	.byte		v042
	.byte	W01
	.byte		v041
	.byte	W01
	.byte		v040
	.byte	W01
	.byte		v039
	.byte	W01
	.byte		v038
	.byte		N06	
	.byte	W01
	.byte	VOL	, v038
	.byte	W01
	.byte		v037
	.byte	W01
	.byte		v036
	.byte	W01
	.byte		v035
	.byte	W01
	.byte		v034
	.byte	W01
	.byte		v033
	.byte	W01
	.byte		v032
	.byte	W01
	.byte		v032
	.byte	W01
	.byte		v031
	.byte	W01
	.byte		v030
	.byte	W01
	.byte		v029
	.byte	W01
	.byte		v028
	.byte	W01
	.byte		v027
	.byte	W01
	.byte		v026
	.byte	W01
	.byte		v025
	.byte	W01
	.byte		v025
	.byte	W01
	.byte		v024
	.byte	W01
	.byte		v023
	.byte		N06	
	.byte	W01
	.byte	VOL	, v022
	.byte	W01
	.byte		v021
	.byte	W01
	.byte		v020
	.byte	W01
	.byte		v019
	.byte	W01
	.byte		v019
	.byte	W01
	.byte		v018
	.byte	W01
	.byte		v017
	.byte	W01
	.byte		v016
	.byte	W01
	.byte		v015
	.byte	W01
	.byte		v014
	.byte	W01
	.byte		v013
	.byte	W01
	.byte		v012
	.byte	W01
	.byte		v012
	.byte	W01
	.byte		v011
	.byte	W01
	.byte		v009
	.byte	W02
	.byte		v010
	.byte	W01
	.byte		v011
	.byte	W01
	.byte		v012
	.byte	W01
	.byte		v012
	.byte	W01
	.byte		v013
	.byte	W01
	.byte		v014
	.byte	W01
	.byte		v016
	.byte	W01
	.byte		v017
	.byte		N06	, Fs3
	.byte	W01
	.byte	VOL	, v018
	.byte	W01
	.byte		v019
	.byte	W01
	.byte		v019
	.byte	W01
	.byte		v020
	.byte	W01
	.byte		v021
	.byte	W01
	.byte	PEND
song0034_4_7:
	.byte	VOL	, v022
	.byte	W01
	.byte		v023
	.byte	W01
	.byte		v025
	.byte	W01
	.byte		v025
	.byte	W01
	.byte		v026
	.byte	W01
	.byte		v027
	.byte	W01
	.byte		v028
	.byte	W01
	.byte		v029
	.byte	W01
	.byte		v030
	.byte	W01
	.byte		v031
	.byte	W01
	.byte		v032
	.byte	W01
	.byte		v033
	.byte	W01
	.byte		v034
	.byte		N06	, Fs3, v116
	.byte	W01
	.byte	VOL	, v035
	.byte	W01
	.byte		v036
	.byte	W01
	.byte		v037
	.byte	W01
	.byte		v038
	.byte	W01
	.byte		v038
	.byte	W01
	.byte		v039
	.byte	W01
	.byte		v040
	.byte	W01
	.byte		v042
	.byte	W01
	.byte		v043
	.byte	W01
	.byte		v044
	.byte	W01
	.byte		v045
	.byte	W01
	.byte		v045
	.byte	W01
	.byte		v046
	.byte	W01
	.byte		v047
	.byte	W01
	.byte		v048
	.byte	W01
	.byte		v049
	.byte	W01
	.byte		v051
	.byte	W01
	.byte		v051
	.byte		N06	
	.byte	W01
	.byte	VOL	, v052
	.byte	W01
	.byte		v053
	.byte	W01
	.byte		v054
	.byte	W01
	.byte		v055
	.byte	W01
	.byte		v056
	.byte	W01
	.byte		v057
	.byte	W01
	.byte		v058
	.byte	W01
	.byte		v059
	.byte	W01
	.byte		v060
	.byte	W01
	.byte		v061
	.byte	W01
	.byte		v062
	.byte	W01
	.byte		v063
	.byte	W01
	.byte		v064
	.byte	W01
	.byte		v064
	.byte	W01
	.byte		v065
	.byte	W01
	.byte		v066
	.byte	W01
	.byte		v068
	.byte	W01
	.byte		v069
	.byte		N06	
	.byte	W01
	.byte	VOL	, v070
	.byte	W01
	.byte		v071
	.byte	W01
	.byte		v071
	.byte	W01
	.byte		v072
	.byte	W01
	.byte		v073
	.byte	W01
	.byte		v074
	.byte	W01
	.byte		v075
	.byte	W01
	.byte		v077
	.byte	W01
	.byte		v077
	.byte	W01
	.byte		v078
	.byte	W01
	.byte		v079
	.byte	W01
	.byte		v080
	.byte	W01
	.byte		v081
	.byte	W01
	.byte		v082
	.byte	W01
	.byte		v083
	.byte	W01
	.byte		v084
	.byte	W01
	.byte		v085
	.byte	W01
	.byte		v086
	.byte		N06	
	.byte	W01
	.byte	VOL	, v087
	.byte	W01
	.byte		v088
	.byte	W01
	.byte		v089
	.byte	W15
	.byte		v090
	.byte	W02
	.byte		v089
	.byte	W01
	.byte		v088
	.byte	W01
	.byte		v087
	.byte	W01
	.byte		v086
	.byte	W01
	.byte		v085
	.byte		N06	, Gn3
	.byte	W01
	.byte	VOL	, v084
	.byte	W01
	.byte		v084
	.byte	W01
	.byte		v083
	.byte	W01
	.byte		v082
	.byte	W01
	.byte		v081
	.byte	W01
	.byte	PEND
song0034_4_9:
	.byte	VOL	, v080
	.byte	W01
	.byte		v079
	.byte	W01
	.byte		v078
	.byte	W01
	.byte		v077
	.byte	W01
	.byte		v077
	.byte	W01
	.byte		v076
	.byte	W01
	.byte		v075
	.byte	W01
	.byte		v074
	.byte	W01
	.byte		v073
	.byte	W01
	.byte		v072
	.byte	W01
	.byte		v071
	.byte	W01
	.byte		v071
	.byte	W01
	.byte		v070
	.byte		N06	, Gn3, v116
	.byte	W01
	.byte	VOL	, v069
	.byte	W01
	.byte		v068
	.byte	W01
	.byte		v067
	.byte	W01
	.byte		v066
	.byte	W01
	.byte		v065
	.byte	W01
	.byte		v064
	.byte	W01
	.byte		v064
	.byte	W01
	.byte		v063
	.byte	W01
	.byte		v062
	.byte	W01
	.byte		v061
	.byte	W01
	.byte		v060
	.byte	W01
	.byte		v059
	.byte	W01
	.byte		v058
	.byte	W01
	.byte		v058
	.byte	W01
	.byte		v057
	.byte	W01
	.byte		v056
	.byte	W01
	.byte		v055
	.byte	W01
	.byte		v054
	.byte		N06	
	.byte	W01
	.byte	VOL	, v053
	.byte	W01
	.byte		v052
	.byte	W01
	.byte		v051
	.byte	W01
	.byte		v051
	.byte	W01
	.byte		v050
	.byte	W01
	.byte		v049
	.byte	W01
	.byte		v048
	.byte	W01
	.byte		v047
	.byte	W01
	.byte		v046
	.byte	W01
	.byte		v045
	.byte	W01
	.byte		v045
	.byte	W01
	.byte		v044
	.byte	W01
	.byte		v043
	.byte	W01
	.byte		v042
	.byte	W01
	.byte		v041
	.byte	W01
	.byte		v040
	.byte	W01
	.byte		v039
	.byte	W01
	.byte		v038
	.byte		N06	
	.byte	W01
	.byte	VOL	, v038
	.byte	W01
	.byte		v037
	.byte	W01
	.byte		v036
	.byte	W01
	.byte		v035
	.byte	W01
	.byte		v034
	.byte	W01
	.byte		v033
	.byte	W01
	.byte		v032
	.byte	W01
	.byte		v032
	.byte	W01
	.byte		v031
	.byte	W01
	.byte		v030
	.byte	W01
	.byte		v029
	.byte	W01
	.byte		v028
	.byte	W01
	.byte		v027
	.byte	W01
	.byte		v026
	.byte	W01
	.byte		v025
	.byte	W01
	.byte		v025
	.byte	W01
	.byte		v024
	.byte	W01
	.byte		v023
	.byte		N06	
	.byte	W01
	.byte	VOL	, v022
	.byte	W01
	.byte		v021
	.byte	W01
	.byte		v020
	.byte	W01
	.byte		v019
	.byte	W01
	.byte		v019
	.byte	W01
	.byte		v018
	.byte	W01
	.byte		v017
	.byte	W01
	.byte		v016
	.byte	W01
	.byte		v015
	.byte	W01
	.byte		v014
	.byte	W01
	.byte		v013
	.byte	W01
	.byte		v012
	.byte	W01
	.byte		v012
	.byte	W01
	.byte		v011
	.byte	W01
	.byte		v009
	.byte	W02
	.byte		v010
	.byte	W01
	.byte		v011
	.byte	W01
	.byte		v012
	.byte	W01
	.byte		v012
	.byte	W01
	.byte		v013
	.byte	W01
	.byte		v014
	.byte	W01
	.byte		v016
	.byte	W01
	.byte		v017
	.byte		N06	, Gs3
	.byte	W01
	.byte	VOL	, v018
	.byte	W01
	.byte		v019
	.byte	W01
	.byte		v019
	.byte	W01
	.byte		v020
	.byte	W01
	.byte		v021
	.byte	W01
	.byte	PEND
song0034_4_10:
	.byte	VOL	, v022
	.byte	W01
	.byte		v023
	.byte	W01
	.byte		v025
	.byte	W01
	.byte		v025
	.byte	W01
	.byte		v026
	.byte	W01
	.byte		v027
	.byte	W01
	.byte		v028
	.byte	W01
	.byte		v029
	.byte	W01
	.byte		v030
	.byte	W01
	.byte		v031
	.byte	W01
	.byte		v032
	.byte	W01
	.byte		v033
	.byte	W01
	.byte		v034
	.byte		N06	, Gs3, v116
	.byte	W01
	.byte	VOL	, v035
	.byte	W01
	.byte		v036
	.byte	W01
	.byte		v037
	.byte	W01
	.byte		v038
	.byte	W01
	.byte		v038
	.byte	W01
	.byte		v039
	.byte	W01
	.byte		v040
	.byte	W01
	.byte		v042
	.byte	W01
	.byte		v043
	.byte	W01
	.byte		v044
	.byte	W01
	.byte		v045
	.byte	W01
	.byte		v045
	.byte	W01
	.byte		v046
	.byte	W01
	.byte		v047
	.byte	W01
	.byte		v048
	.byte	W01
	.byte		v049
	.byte	W01
	.byte		v051
	.byte	W01
	.byte		v051
	.byte		N06	
	.byte	W01
	.byte	VOL	, v052
	.byte	W01
	.byte		v053
	.byte	W01
	.byte		v054
	.byte	W01
	.byte		v055
	.byte	W01
	.byte		v056
	.byte	W01
	.byte		v057
	.byte	W01
	.byte		v058
	.byte	W01
	.byte		v059
	.byte	W01
	.byte		v060
	.byte	W01
	.byte		v061
	.byte	W01
	.byte		v062
	.byte	W01
	.byte		v063
	.byte	W01
	.byte		v064
	.byte	W01
	.byte		v064
	.byte	W01
	.byte		v065
	.byte	W01
	.byte		v066
	.byte	W01
	.byte		v068
	.byte	W01
	.byte		v069
	.byte		N06	
	.byte	W01
	.byte	VOL	, v070
	.byte	W01
	.byte		v071
	.byte	W01
	.byte		v071
	.byte	W01
	.byte		v072
	.byte	W01
	.byte		v073
	.byte	W01
	.byte		v074
	.byte	W01
	.byte		v075
	.byte	W01
	.byte		v077
	.byte	W01
	.byte		v077
	.byte	W01
	.byte		v078
	.byte	W01
	.byte		v079
	.byte	W01
	.byte		v080
	.byte	W01
	.byte		v081
	.byte	W01
	.byte		v082
	.byte	W01
	.byte		v083
	.byte	W01
	.byte		v084
	.byte	W01
	.byte		v085
	.byte	W01
	.byte		v086
	.byte		N06	
	.byte	W01
	.byte	VOL	, v087
	.byte	W01
	.byte		v088
	.byte	W01
	.byte		v089
	.byte	W15
	.byte		v090
	.byte	W02
	.byte		v089
	.byte	W01
	.byte		v088
	.byte	W01
	.byte		v087
	.byte	W01
	.byte		v086
	.byte	W01
	.byte		v085
	.byte		N06	, Gn3
	.byte	W01
	.byte	VOL	, v084
	.byte	W01
	.byte		v084
	.byte	W01
	.byte		v083
	.byte	W01
	.byte		v082
	.byte	W01
	.byte		v081
	.byte	W01
	.byte	PEND
	.byte	PATT	
		.word	song0034_4_6
	.byte	PATT	
		.word	song0034_4_7
song0034_4_11:
	.byte	VOL	, v080
	.byte	W01
	.byte		v079
	.byte	W01
	.byte		v078
	.byte	W01
	.byte		v077
	.byte	W01
	.byte		v077
	.byte	W01
	.byte		v076
	.byte	W01
	.byte		v075
	.byte	W01
	.byte		v074
	.byte	W01
	.byte		v073
	.byte	W01
	.byte		v072
	.byte	W01
	.byte		v071
	.byte	W01
	.byte		v071
	.byte	W01
	.byte		v070
	.byte		N06	, Gn3, v116
	.byte	W01
	.byte	VOL	, v069
	.byte	W01
	.byte		v068
	.byte	W01
	.byte		v067
	.byte	W01
	.byte		v066
	.byte	W01
	.byte		v065
	.byte	W01
	.byte		v064
	.byte	W01
	.byte		v064
	.byte	W01
	.byte		v063
	.byte	W01
	.byte		v062
	.byte	W01
	.byte		v061
	.byte	W01
	.byte		v060
	.byte	W01
	.byte		v059
	.byte	W01
	.byte		v058
	.byte	W01
	.byte		v058
	.byte	W01
	.byte		v057
	.byte	W01
	.byte		v056
	.byte	W01
	.byte		v055
	.byte	W01
	.byte		v054
	.byte		N06	
	.byte	W01
	.byte	VOL	, v053
	.byte	W01
	.byte		v052
	.byte	W01
	.byte		v051
	.byte	W01
	.byte		v051
	.byte	W01
	.byte		v050
	.byte	W01
	.byte		v049
	.byte	W01
	.byte		v048
	.byte	W01
	.byte		v047
	.byte	W01
	.byte		v046
	.byte	W01
	.byte		v045
	.byte	W01
	.byte		v045
	.byte	W01
	.byte		v044
	.byte	W01
	.byte		v043
	.byte	W01
	.byte		v042
	.byte	W01
	.byte		v041
	.byte	W01
	.byte		v040
	.byte	W01
	.byte		v039
	.byte	W01
	.byte		v038
	.byte		N06	
	.byte	W01
	.byte	VOL	, v038
	.byte	W01
	.byte		v037
	.byte	W01
	.byte		v036
	.byte	W01
	.byte		v035
	.byte	W01
	.byte		v034
	.byte	W01
	.byte		v033
	.byte	W01
	.byte		v032
	.byte	W01
	.byte		v032
	.byte	W01
	.byte		v031
	.byte	W01
	.byte		v030
	.byte	W01
	.byte		v029
	.byte	W01
	.byte		v028
	.byte	W01
	.byte		v027
	.byte	W01
	.byte		v026
	.byte	W01
	.byte		v025
	.byte	W01
	.byte		v025
	.byte	W01
	.byte		v024
	.byte	W01
	.byte		v023
	.byte		N06	
	.byte	W01
	.byte	VOL	, v022
	.byte	W01
	.byte		v021
	.byte	W01
	.byte		v020
	.byte	W01
	.byte		v019
	.byte	W01
	.byte		v019
	.byte	W01
	.byte		v018
	.byte	W01
	.byte		v017
	.byte	W01
	.byte		v016
	.byte	W01
	.byte		v015
	.byte	W01
	.byte		v014
	.byte	W01
	.byte		v013
	.byte	W01
	.byte		v012
	.byte	W01
	.byte		v012
	.byte	W01
	.byte		v011
	.byte	W01
	.byte		v009
	.byte	W02
	.byte		v010
	.byte	W01
	.byte		v011
	.byte	W01
	.byte		v012
	.byte	W01
	.byte		v012
	.byte	W01
	.byte		v013
	.byte	W01
	.byte		v014
	.byte	W01
	.byte		v016
	.byte	W01
	.byte		v017
	.byte	W01
	.byte		v018
	.byte	W01
	.byte		v019
	.byte	W01
	.byte		v019
	.byte	W01
	.byte		v020
	.byte	W01
	.byte		v021
	.byte	W01
	.byte	PEND
	.byte	PATT	
		.word	song0034_4_8
	.byte	PATT	
		.word	song0034_4_6
	.byte	PATT	
		.word	song0034_4_7
	.byte	PATT	
		.word	song0034_4_9
	.byte	PATT	
		.word	song0034_4_10
	.byte	PATT	
		.word	song0034_4_6
	.byte	PATT	
		.word	song0034_4_7
	.byte	PATT	
		.word	song0034_4_11
song0034_4_12:
	.byte	VOL	, v022
	.byte	W01
	.byte		v023
	.byte	W01
	.byte		v025
	.byte	W01
	.byte		v025
	.byte	W01
	.byte		v026
	.byte	W01
	.byte		v027
	.byte	W01
	.byte		v028
	.byte	W01
	.byte		v029
	.byte	W01
	.byte		v030
	.byte	W01
	.byte		v031
	.byte	W01
	.byte		v032
	.byte	W01
	.byte		v033
	.byte	W01
	.byte		v034
	.byte	W01
	.byte		v035
	.byte	W01
	.byte		v036
	.byte	W01
	.byte		v037
	.byte	W01
	.byte		v038
	.byte	W01
	.byte		v038
	.byte	W01
	.byte		v039
	.byte	W01
	.byte		v040
	.byte	W01
	.byte		v042
	.byte	W01
	.byte		v043
	.byte	W01
	.byte		v044
	.byte	W01
	.byte		v045
	.byte	W01
	.byte		v045
	.byte	W01
	.byte		v046
	.byte	W01
	.byte		v047
	.byte	W01
	.byte		v048
	.byte	W01
	.byte		v049
	.byte	W01
	.byte		v051
	.byte	W01
	.byte		v051
	.byte	W01
	.byte		v052
	.byte	W01
	.byte		v053
	.byte	W01
	.byte		v054
	.byte	W01
	.byte		v055
	.byte	W01
	.byte		v056
	.byte	W01
	.byte		v057
	.byte	W01
	.byte		v058
	.byte	W01
	.byte		v059
	.byte	W01
	.byte		v060
	.byte	W01
	.byte		v061
	.byte	W01
	.byte		v062
	.byte	W01
	.byte		v063
	.byte	W01
	.byte		v064
	.byte	W01
	.byte		v064
	.byte	W01
	.byte		v065
	.byte	W01
	.byte		v066
	.byte	W01
	.byte		v068
	.byte	W01
	.byte		v069
	.byte	W01
	.byte		v070
	.byte	W01
	.byte		v071
	.byte	W01
	.byte		v071
	.byte	W01
	.byte		v072
	.byte	W01
	.byte		v073
	.byte	W01
	.byte		v074
	.byte	W01
	.byte		v075
	.byte	W01
	.byte		v077
	.byte	W01
	.byte		v077
	.byte	W01
	.byte		v078
	.byte	W01
	.byte		v079
	.byte	W01
	.byte		v080
	.byte	W01
	.byte		v081
	.byte	W01
	.byte		v082
	.byte	W01
	.byte		v083
	.byte	W01
	.byte		v084
	.byte	W01
	.byte		v085
	.byte	W01
	.byte		v086
	.byte	W01
	.byte		v087
	.byte	W01
	.byte		v088
	.byte	W01
	.byte		v089
	.byte	W15
	.byte		v090
	.byte	W02
	.byte		v089
	.byte	W01
	.byte		v088
	.byte	W01
	.byte		v087
	.byte	W01
	.byte		v086
	.byte	W01
	.byte		v085
	.byte	W01
	.byte		v084
	.byte	W01
	.byte		v084
	.byte	W01
	.byte		v083
	.byte	W01
	.byte		v082
	.byte	W01
	.byte		v081
	.byte	W01
	.byte	PEND
song0034_4_13:
	.byte	VOL	, v080
	.byte	W01
	.byte		v079
	.byte	W01
	.byte		v078
	.byte	W01
	.byte		v077
	.byte	W01
	.byte		v077
	.byte	W01
	.byte		v076
	.byte	W01
	.byte		v075
	.byte	W01
	.byte		v074
	.byte	W01
	.byte		v073
	.byte	W01
	.byte		v072
	.byte	W01
	.byte		v071
	.byte	W01
	.byte		v071
	.byte	W01
	.byte		v070
	.byte	W01
	.byte		v069
	.byte	W01
	.byte		v068
	.byte	W01
	.byte		v067
	.byte	W01
	.byte		v066
	.byte	W01
	.byte		v065
	.byte	W01
	.byte		v064
	.byte	W01
	.byte		v064
	.byte	W01
	.byte		v063
	.byte	W01
	.byte		v062
	.byte	W01
	.byte		v061
	.byte	W01
	.byte		v060
	.byte	W01
	.byte		v059
	.byte	W01
	.byte		v058
	.byte	W01
	.byte		v058
	.byte	W01
	.byte		v057
	.byte	W01
	.byte		v056
	.byte	W01
	.byte		v055
	.byte	W01
	.byte		v054
	.byte	W01
	.byte		v053
	.byte	W01
	.byte		v052
	.byte	W01
	.byte		v051
	.byte	W01
	.byte		v051
	.byte	W01
	.byte		v050
	.byte	W01
	.byte		v049
	.byte	W01
	.byte		v048
	.byte	W01
	.byte		v047
	.byte	W01
	.byte		v046
	.byte	W01
	.byte		v045
	.byte	W01
	.byte		v045
	.byte	W01
	.byte		v044
	.byte	W01
	.byte		v043
	.byte	W01
	.byte		v042
	.byte	W01
	.byte		v041
	.byte	W01
	.byte		v040
	.byte	W01
	.byte		v039
	.byte	W01
	.byte		v038
	.byte	W01
	.byte		v038
	.byte	W01
	.byte		v037
	.byte	W01
	.byte		v036
	.byte	W01
	.byte		v035
	.byte	W01
	.byte		v034
	.byte	W01
	.byte		v033
	.byte	W01
	.byte		v032
	.byte	W01
	.byte		v032
	.byte	W01
	.byte		v031
	.byte	W01
	.byte		v030
	.byte	W01
	.byte		v029
	.byte	W01
	.byte		v028
	.byte	W01
	.byte		v027
	.byte	W01
	.byte		v026
	.byte	W01
	.byte		v025
	.byte	W01
	.byte		v025
	.byte	W01
	.byte		v024
	.byte	W01
	.byte		v023
	.byte	W01
	.byte		v022
	.byte	W01
	.byte		v021
	.byte	W01
	.byte		v020
	.byte	W01
	.byte		v019
	.byte	W01
	.byte		v019
	.byte	W01
	.byte		v018
	.byte	W01
	.byte		v017
	.byte	W01
	.byte		v016
	.byte	W01
	.byte		v015
	.byte	W01
	.byte		v014
	.byte	W01
	.byte		v013
	.byte	W01
	.byte		v012
	.byte	W01
	.byte		v012
	.byte	W01
	.byte		v011
	.byte	W01
	.byte		v009
	.byte	W02
	.byte		v010
	.byte	W01
	.byte		v011
	.byte	W01
	.byte		v012
	.byte	W01
	.byte		v012
	.byte	W01
	.byte		v013
	.byte	W01
	.byte		v014
	.byte	W01
	.byte		v016
	.byte	W01
	.byte		v017
	.byte	W01
	.byte		v018
	.byte	W01
	.byte		v019
	.byte	W01
	.byte		v019
	.byte	W01
	.byte		v020
	.byte	W01
	.byte		v021
	.byte	W01
	.byte	PEND
	.byte	PATT	
		.word	song0034_4_12
	.byte	PATT	
		.word	song0034_4_13
	.byte	PATT	
		.word	song0034_4_12
	.byte	PATT	
		.word	song0034_4_13
	.byte	PATT	
		.word	song0034_4_12
	.byte	PATT	
		.word	song0034_4_13
	.byte	VOL	, v022
	.byte	W01
	.byte		v023
	.byte	W01
	.byte		v025
	.byte	W01
	.byte		v025
	.byte	W01
	.byte		v026
	.byte	W01
	.byte		v027
	.byte	W01
	.byte		v028
	.byte	W01
	.byte		v029
	.byte	W01
	.byte		v030
	.byte	W01
	.byte		v031
	.byte	W01
	.byte		v032
	.byte	W01
	.byte		v033
	.byte	W01
	.byte		v034
	.byte	W01
	.byte		v035
	.byte	W01
	.byte		v036
	.byte	W01
	.byte		v037
	.byte	W01
	.byte		v038
	.byte	W01
	.byte		v038
	.byte	W01
	.byte		v039
	.byte	W01
	.byte		v040
	.byte	W01
	.byte		v042
	.byte	W01
	.byte		v043
	.byte	W01
	.byte		v044
	.byte	W01
	.byte		v045
	.byte	W01
	.byte		v045
	.byte	W01
	.byte		v046
	.byte	W01
	.byte		v047
	.byte	W01
	.byte		v048
	.byte	W01
	.byte		v049
	.byte	W01
	.byte		v051
	.byte	W01
	.byte		v051
	.byte	W01
	.byte		v052
	.byte	W01
	.byte		v053
	.byte	W01
	.byte		v054
	.byte	W01
	.byte		v055
	.byte	W01
	.byte		v056
	.byte	W01
	.byte		v057
	.byte	W01
	.byte		v058
	.byte	W01
	.byte		v059
	.byte	W01
	.byte		v060
	.byte	W01
	.byte		v061
	.byte	W01
	.byte		v062
	.byte	W01
	.byte		v063
	.byte	W01
	.byte		v064
	.byte	W01
	.byte		v064
	.byte	W01
	.byte		v065
	.byte	W01
	.byte		v066
	.byte	W01
	.byte		v068
	.byte	W01
	.byte		v069
	.byte	W01
	.byte		v070
	.byte	W01
	.byte		v071
	.byte	W01
	.byte		v071
	.byte	W01
	.byte		v072
	.byte	W01
	.byte		v073
	.byte	W01
	.byte		v074
	.byte	W01
	.byte		v075
	.byte	W01
	.byte		v077
	.byte	W01
	.byte		v077
	.byte	W01
	.byte		v078
	.byte	W01
	.byte		v079
	.byte	W01
	.byte		v080
	.byte	W01
	.byte		v081
	.byte	W01
	.byte		v082
	.byte	W01
	.byte		v083
	.byte	W01
	.byte		v084
	.byte	W01
	.byte		v085
	.byte	W01
	.byte		v086
	.byte	W01
	.byte		v087
	.byte	W01
	.byte		v088
	.byte	W01
	.byte		v089
	.byte	W15
	.byte	GOTO	
		.word	song0034_4_14
	.byte	FINE

	@********************** Track  5 **********************@

	.global song0034_5
song0034_5:	@ 0x08C70C94
	.byte	KEYSH	, 0
	.byte	VOICE	, 101
	.byte	VOL	, v110
	.byte	BENDR	, 8
	.byte	W84
song0034_5_14:
	.byte	W12
	.byte	W96
	.byte	W96
	.byte	W96
	.byte	W84
	.byte	VOL	, v090
	.byte		N06	, En3, v116
	.byte	W02
	.byte	VOL	, v089
	.byte	W01
	.byte		v088
	.byte	W01
	.byte		v087
	.byte	W01
	.byte		v086
	.byte	W01
	.byte		v085
	.byte	W01
	.byte		v084
	.byte	W01
	.byte		v084
	.byte	W01
	.byte		v083
	.byte	W01
	.byte		v082
	.byte	W01
	.byte		v081
	.byte	W01
song0034_5_1:
	.byte	VOL	, v080
	.byte	W01
	.byte		v079
	.byte	W01
	.byte		v078
	.byte	W01
	.byte		v077
	.byte	W01
	.byte		v077
	.byte	W01
	.byte		v076
	.byte	W01
	.byte		v075
	.byte		N06	, En3, v116
	.byte	W01
	.byte	VOL	, v074
	.byte	W01
	.byte		v073
	.byte	W01
	.byte		v072
	.byte	W01
	.byte		v071
	.byte	W01
	.byte		v071
	.byte	W01
	.byte		v070
	.byte	W01
	.byte		v069
	.byte	W01
	.byte		v068
	.byte	W01
	.byte		v067
	.byte	W01
	.byte		v066
	.byte	W01
	.byte		v065
	.byte	W01
	.byte		v064
	.byte	W01
	.byte		v064
	.byte	W01
	.byte		v063
	.byte	W01
	.byte		v062
	.byte	W01
	.byte		v061
	.byte	W01
	.byte		v060
	.byte	W01
	.byte		v059
	.byte		N06	
	.byte	W01
	.byte	VOL	, v058
	.byte	W01
	.byte		v058
	.byte	W01
	.byte		v057
	.byte	W01
	.byte		v056
	.byte	W01
	.byte		v055
	.byte	W01
	.byte		v054
	.byte	W01
	.byte		v053
	.byte	W01
	.byte		v052
	.byte	W01
	.byte		v051
	.byte	W01
	.byte		v051
	.byte	W01
	.byte		v050
	.byte	W01
	.byte		v049
	.byte	W01
	.byte		v048
	.byte	W01
	.byte		v047
	.byte	W01
	.byte		v046
	.byte	W01
	.byte		v045
	.byte	W01
	.byte		v045
	.byte	W01
	.byte		v044
	.byte		N06	
	.byte	W01
	.byte	VOL	, v043
	.byte	W01
	.byte		v042
	.byte	W01
	.byte		v041
	.byte	W01
	.byte		v040
	.byte	W01
	.byte		v039
	.byte	W01
	.byte		v038
	.byte	W01
	.byte		v038
	.byte	W01
	.byte		v037
	.byte	W01
	.byte		v036
	.byte	W01
	.byte		v035
	.byte	W01
	.byte		v034
	.byte	W01
	.byte		v033
	.byte	W01
	.byte		v032
	.byte	W01
	.byte		v032
	.byte	W01
	.byte		v031
	.byte	W01
	.byte		v030
	.byte	W01
	.byte		v029
	.byte	W01
	.byte		v028
	.byte		N06	
	.byte	W01
	.byte	VOL	, v027
	.byte	W01
	.byte		v026
	.byte	W01
	.byte		v025
	.byte	W01
	.byte		v025
	.byte	W01
	.byte		v024
	.byte	W01
	.byte		v023
	.byte	W01
	.byte		v022
	.byte	W01
	.byte		v021
	.byte	W01
	.byte		v020
	.byte	W01
	.byte		v019
	.byte	W01
	.byte		v019
	.byte	W01
	.byte		v018
	.byte	W01
	.byte		v017
	.byte	W01
	.byte		v016
	.byte	W01
	.byte		v015
	.byte	W01
	.byte		v014
	.byte	W01
	.byte		v013
	.byte	W01
	.byte		v012
	.byte	W01
	.byte		v012
	.byte	W01
	.byte		v011
	.byte	W01
	.byte		v009
	.byte	W02
	.byte		v010
	.byte	W01
	.byte		v011
	.byte		N06	, Ds3
	.byte	W01
	.byte	VOL	, v012
	.byte	W01
	.byte		v012
	.byte	W01
	.byte		v013
	.byte	W01
	.byte		v014
	.byte	W01
	.byte		v016
	.byte	W01
	.byte		v017
	.byte	W01
	.byte		v018
	.byte	W01
	.byte		v019
	.byte	W01
	.byte		v019
	.byte	W01
	.byte		v020
	.byte	W01
	.byte		v021
	.byte	W01
	.byte	PEND
song0034_5_2:
	.byte	VOL	, v022
	.byte	W01
	.byte		v023
	.byte	W01
	.byte		v025
	.byte	W01
	.byte		v025
	.byte	W01
	.byte		v026
	.byte	W01
	.byte		v027
	.byte	W01
	.byte		v028
	.byte		N06	, Ds3, v116
	.byte	W01
	.byte	VOL	, v029
	.byte	W01
	.byte		v030
	.byte	W01
	.byte		v031
	.byte	W01
	.byte		v032
	.byte	W01
	.byte		v033
	.byte	W01
	.byte		v034
	.byte	W01
	.byte		v035
	.byte	W01
	.byte		v036
	.byte	W01
	.byte		v037
	.byte	W01
	.byte		v038
	.byte	W01
	.byte		v038
	.byte	W01
	.byte		v039
	.byte	W01
	.byte		v040
	.byte	W01
	.byte		v042
	.byte	W01
	.byte		v043
	.byte	W01
	.byte		v044
	.byte	W01
	.byte		v045
	.byte	W01
	.byte		v045
	.byte		N06	
	.byte	W01
	.byte	VOL	, v046
	.byte	W01
	.byte		v047
	.byte	W01
	.byte		v048
	.byte	W01
	.byte		v049
	.byte	W01
	.byte		v051
	.byte	W01
	.byte		v051
	.byte	W01
	.byte		v052
	.byte	W01
	.byte		v053
	.byte	W01
	.byte		v054
	.byte	W01
	.byte		v055
	.byte	W01
	.byte		v056
	.byte	W01
	.byte		v057
	.byte	W01
	.byte		v058
	.byte	W01
	.byte		v059
	.byte	W01
	.byte		v060
	.byte	W01
	.byte		v061
	.byte	W01
	.byte		v062
	.byte	W01
	.byte		v063
	.byte		N06	
	.byte	W01
	.byte	VOL	, v064
	.byte	W01
	.byte		v064
	.byte	W01
	.byte		v065
	.byte	W01
	.byte		v066
	.byte	W01
	.byte		v068
	.byte	W01
	.byte		v069
	.byte	W01
	.byte		v070
	.byte	W01
	.byte		v071
	.byte	W01
	.byte		v071
	.byte	W01
	.byte		v072
	.byte	W01
	.byte		v073
	.byte	W01
	.byte		v074
	.byte	W01
	.byte		v075
	.byte	W01
	.byte		v077
	.byte	W01
	.byte		v077
	.byte	W01
	.byte		v078
	.byte	W01
	.byte		v079
	.byte	W01
	.byte		v080
	.byte		N06	
	.byte	W01
	.byte	VOL	, v081
	.byte	W01
	.byte		v082
	.byte	W01
	.byte		v083
	.byte	W01
	.byte		v084
	.byte	W01
	.byte		v085
	.byte	W01
	.byte		v086
	.byte	W01
	.byte		v087
	.byte	W01
	.byte		v088
	.byte	W01
	.byte		v089
	.byte	W15
	.byte		v090
	.byte		N06	, En3
	.byte	W02
	.byte	VOL	, v089
	.byte	W01
	.byte		v088
	.byte	W01
	.byte		v087
	.byte	W01
	.byte		v086
	.byte	W01
	.byte		v085
	.byte	W01
	.byte		v084
	.byte	W01
	.byte		v084
	.byte	W01
	.byte		v083
	.byte	W01
	.byte		v082
	.byte	W01
	.byte		v081
	.byte	W01
	.byte	PEND
song0034_5_3:
	.byte	VOL	, v080
	.byte	W01
	.byte		v079
	.byte	W01
	.byte		v078
	.byte	W01
	.byte		v077
	.byte	W01
	.byte		v077
	.byte	W01
	.byte		v076
	.byte	W01
	.byte		v075
	.byte		N06	, En3, v116
	.byte	W01
	.byte	VOL	, v074
	.byte	W01
	.byte		v073
	.byte	W01
	.byte		v072
	.byte	W01
	.byte		v071
	.byte	W01
	.byte		v071
	.byte	W01
	.byte		v070
	.byte	W01
	.byte		v069
	.byte	W01
	.byte		v068
	.byte	W01
	.byte		v067
	.byte	W01
	.byte		v066
	.byte	W01
	.byte		v065
	.byte	W01
	.byte		v064
	.byte	W01
	.byte		v064
	.byte	W01
	.byte		v063
	.byte	W01
	.byte		v062
	.byte	W01
	.byte		v061
	.byte	W01
	.byte		v060
	.byte	W01
	.byte		v059
	.byte		N06	
	.byte	W01
	.byte	VOL	, v058
	.byte	W01
	.byte		v058
	.byte	W01
	.byte		v057
	.byte	W01
	.byte		v056
	.byte	W01
	.byte		v055
	.byte	W01
	.byte		v054
	.byte	W01
	.byte		v053
	.byte	W01
	.byte		v052
	.byte	W01
	.byte		v051
	.byte	W01
	.byte		v051
	.byte	W01
	.byte		v050
	.byte	W01
	.byte		v049
	.byte	W01
	.byte		v048
	.byte	W01
	.byte		v047
	.byte	W01
	.byte		v046
	.byte	W01
	.byte		v045
	.byte	W01
	.byte		v045
	.byte	W01
	.byte		v044
	.byte		N06	
	.byte	W01
	.byte	VOL	, v043
	.byte	W01
	.byte		v042
	.byte	W01
	.byte		v041
	.byte	W01
	.byte		v040
	.byte	W01
	.byte		v039
	.byte	W01
	.byte		v038
	.byte	W01
	.byte		v038
	.byte	W01
	.byte		v037
	.byte	W01
	.byte		v036
	.byte	W01
	.byte		v035
	.byte	W01
	.byte		v034
	.byte	W01
	.byte		v033
	.byte	W01
	.byte		v032
	.byte	W01
	.byte		v032
	.byte	W01
	.byte		v031
	.byte	W01
	.byte		v030
	.byte	W01
	.byte		v029
	.byte	W01
	.byte		v028
	.byte		N06	
	.byte	W01
	.byte	VOL	, v027
	.byte	W01
	.byte		v026
	.byte	W01
	.byte		v025
	.byte	W01
	.byte		v025
	.byte	W01
	.byte		v024
	.byte	W01
	.byte		v023
	.byte	W01
	.byte		v022
	.byte	W01
	.byte		v021
	.byte	W01
	.byte		v020
	.byte	W01
	.byte		v019
	.byte	W01
	.byte		v019
	.byte	W01
	.byte		v018
	.byte	W01
	.byte		v017
	.byte	W01
	.byte		v016
	.byte	W01
	.byte		v015
	.byte	W01
	.byte		v014
	.byte	W01
	.byte		v013
	.byte	W01
	.byte		v012
	.byte	W01
	.byte		v012
	.byte	W01
	.byte		v011
	.byte	W01
	.byte		v009
	.byte	W02
	.byte		v010
	.byte	W01
	.byte		v011
	.byte		N06	, Fn3
	.byte	W01
	.byte	VOL	, v012
	.byte	W01
	.byte		v012
	.byte	W01
	.byte		v013
	.byte	W01
	.byte		v014
	.byte	W01
	.byte		v016
	.byte	W01
	.byte		v017
	.byte	W01
	.byte		v018
	.byte	W01
	.byte		v019
	.byte	W01
	.byte		v019
	.byte	W01
	.byte		v020
	.byte	W01
	.byte		v021
	.byte	W01
	.byte	PEND
song0034_5_4:
	.byte	VOL	, v022
	.byte	W01
	.byte		v023
	.byte	W01
	.byte		v025
	.byte	W01
	.byte		v025
	.byte	W01
	.byte		v026
	.byte	W01
	.byte		v027
	.byte	W01
	.byte		v028
	.byte		N06	, Fn3, v116
	.byte	W01
	.byte	VOL	, v029
	.byte	W01
	.byte		v030
	.byte	W01
	.byte		v031
	.byte	W01
	.byte		v032
	.byte	W01
	.byte		v033
	.byte	W01
	.byte		v034
	.byte	W01
	.byte		v035
	.byte	W01
	.byte		v036
	.byte	W01
	.byte		v037
	.byte	W01
	.byte		v038
	.byte	W01
	.byte		v038
	.byte	W01
	.byte		v039
	.byte	W01
	.byte		v040
	.byte	W01
	.byte		v042
	.byte	W01
	.byte		v043
	.byte	W01
	.byte		v044
	.byte	W01
	.byte		v045
	.byte	W01
	.byte		v045
	.byte		N06	
	.byte	W01
	.byte	VOL	, v046
	.byte	W01
	.byte		v047
	.byte	W01
	.byte		v048
	.byte	W01
	.byte		v049
	.byte	W01
	.byte		v051
	.byte	W01
	.byte		v051
	.byte	W01
	.byte		v052
	.byte	W01
	.byte		v053
	.byte	W01
	.byte		v054
	.byte	W01
	.byte		v055
	.byte	W01
	.byte		v056
	.byte	W01
	.byte		v057
	.byte	W01
	.byte		v058
	.byte	W01
	.byte		v059
	.byte	W01
	.byte		v060
	.byte	W01
	.byte		v061
	.byte	W01
	.byte		v062
	.byte	W01
	.byte		v063
	.byte		N06	
	.byte	W01
	.byte	VOL	, v064
	.byte	W01
	.byte		v064
	.byte	W01
	.byte		v065
	.byte	W01
	.byte		v066
	.byte	W01
	.byte		v068
	.byte	W01
	.byte		v069
	.byte	W01
	.byte		v070
	.byte	W01
	.byte		v071
	.byte	W01
	.byte		v071
	.byte	W01
	.byte		v072
	.byte	W01
	.byte		v073
	.byte	W01
	.byte		v074
	.byte	W01
	.byte		v075
	.byte	W01
	.byte		v077
	.byte	W01
	.byte		v077
	.byte	W01
	.byte		v078
	.byte	W01
	.byte		v079
	.byte	W01
	.byte		v080
	.byte		N06	
	.byte	W01
	.byte	VOL	, v081
	.byte	W01
	.byte		v082
	.byte	W01
	.byte		v083
	.byte	W01
	.byte		v084
	.byte	W01
	.byte		v085
	.byte	W01
	.byte		v086
	.byte	W01
	.byte		v087
	.byte	W01
	.byte		v088
	.byte	W01
	.byte		v089
	.byte	W15
	.byte		v090
	.byte		N06	, En3
	.byte	W02
	.byte	VOL	, v089
	.byte	W01
	.byte		v088
	.byte	W01
	.byte		v087
	.byte	W01
	.byte		v086
	.byte	W01
	.byte		v085
	.byte	W01
	.byte		v084
	.byte	W01
	.byte		v084
	.byte	W01
	.byte		v083
	.byte	W01
	.byte		v082
	.byte	W01
	.byte		v081
	.byte	W01
	.byte	PEND
	.byte	PATT	
		.word	song0034_5_1
	.byte	PATT	
		.word	song0034_5_2
song0034_5_5:
	.byte	VOL	, v080
	.byte	W01
	.byte		v079
	.byte	W01
	.byte		v078
	.byte	W01
	.byte		v077
	.byte	W01
	.byte		v077
	.byte	W01
	.byte		v076
	.byte	W01
	.byte		v075
	.byte		N06	, En3, v116
	.byte	W01
	.byte	VOL	, v074
	.byte	W01
	.byte		v073
	.byte	W01
	.byte		v072
	.byte	W01
	.byte		v071
	.byte	W01
	.byte		v071
	.byte	W01
	.byte		v070
	.byte	W01
	.byte		v069
	.byte	W01
	.byte		v068
	.byte	W01
	.byte		v067
	.byte	W01
	.byte		v066
	.byte	W01
	.byte		v065
	.byte	W01
	.byte		v064
	.byte	W01
	.byte		v064
	.byte	W01
	.byte		v063
	.byte	W01
	.byte		v062
	.byte	W01
	.byte		v061
	.byte	W01
	.byte		v060
	.byte	W01
	.byte		v059
	.byte		N06	
	.byte	W01
	.byte	VOL	, v058
	.byte	W01
	.byte		v058
	.byte	W01
	.byte		v057
	.byte	W01
	.byte		v056
	.byte	W01
	.byte		v055
	.byte	W01
	.byte		v054
	.byte	W01
	.byte		v053
	.byte	W01
	.byte		v052
	.byte	W01
	.byte		v051
	.byte	W01
	.byte		v051
	.byte	W01
	.byte		v050
	.byte	W01
	.byte		v049
	.byte	W01
	.byte		v048
	.byte	W01
	.byte		v047
	.byte	W01
	.byte		v046
	.byte	W01
	.byte		v045
	.byte	W01
	.byte		v045
	.byte	W01
	.byte		v044
	.byte		N06	
	.byte	W01
	.byte	VOL	, v043
	.byte	W01
	.byte		v042
	.byte	W01
	.byte		v041
	.byte	W01
	.byte		v040
	.byte	W01
	.byte		v039
	.byte	W01
	.byte		v038
	.byte	W01
	.byte		v038
	.byte	W01
	.byte		v037
	.byte	W01
	.byte		v036
	.byte	W01
	.byte		v035
	.byte	W01
	.byte		v034
	.byte	W01
	.byte		v033
	.byte	W01
	.byte		v032
	.byte	W01
	.byte		v032
	.byte	W01
	.byte		v031
	.byte	W01
	.byte		v030
	.byte	W01
	.byte		v029
	.byte	W01
	.byte		v028
	.byte		N06	
	.byte	W01
	.byte	VOL	, v027
	.byte	W01
	.byte		v026
	.byte	W01
	.byte		v025
	.byte	W01
	.byte		v025
	.byte	W01
	.byte		v024
	.byte	W01
	.byte		v023
	.byte	W01
	.byte		v022
	.byte	W01
	.byte		v021
	.byte	W01
	.byte		v020
	.byte	W01
	.byte		v019
	.byte	W01
	.byte		v019
	.byte	W01
	.byte		v018
	.byte	W01
	.byte		v017
	.byte	W01
	.byte		v016
	.byte	W01
	.byte		v015
	.byte	W01
	.byte		v014
	.byte	W01
	.byte		v013
	.byte	W01
	.byte		v012
	.byte	W01
	.byte		v012
	.byte	W01
	.byte		v011
	.byte	W01
	.byte		v009
	.byte	W02
	.byte		v010
	.byte	W01
	.byte		v011
	.byte	W01
	.byte		v012
	.byte	W01
	.byte		v012
	.byte	W01
	.byte		v013
	.byte	W01
	.byte		v014
	.byte	W01
	.byte		v016
	.byte	W01
	.byte		v017
	.byte	W01
	.byte		v018
	.byte	W01
	.byte		v019
	.byte	W01
	.byte		v019
	.byte	W01
	.byte		v020
	.byte	W01
	.byte		v021
	.byte	W01
	.byte	PEND
	.byte		v022
	.byte	W01
	.byte		v023
	.byte	W01
	.byte		v025
	.byte	W01
	.byte		v025
	.byte	W01
	.byte		v026
	.byte	W01
	.byte		v027
	.byte	W01
	.byte		v028
	.byte	W01
	.byte		v029
	.byte	W01
	.byte		v030
	.byte	W01
	.byte		v031
	.byte	W01
	.byte		v032
	.byte	W01
	.byte		v033
	.byte	W01
	.byte		v034
	.byte	W01
	.byte		v035
	.byte	W01
	.byte		v036
	.byte	W01
	.byte		v037
	.byte	W01
	.byte		v038
	.byte	W01
	.byte		v038
	.byte	W01
	.byte		v039
	.byte	W01
	.byte		v040
	.byte	W01
	.byte		v042
	.byte	W01
	.byte		v043
	.byte	W01
	.byte		v044
	.byte	W01
	.byte		v045
	.byte	W01
	.byte		v045
	.byte	W01
	.byte		v046
	.byte	W01
	.byte		v047
	.byte	W01
	.byte		v048
	.byte	W01
	.byte		v049
	.byte	W01
	.byte		v051
	.byte	W01
	.byte		v051
	.byte	W01
	.byte		v052
	.byte	W01
	.byte		v053
	.byte	W01
	.byte		v054
	.byte	W01
	.byte		v055
	.byte	W01
	.byte		v056
	.byte	W01
	.byte		v057
	.byte	W01
	.byte		v058
	.byte	W01
	.byte		v059
	.byte	W01
	.byte		v060
	.byte	W01
	.byte		v061
	.byte	W01
	.byte		v062
	.byte	W01
	.byte		v063
	.byte	W01
	.byte		v064
	.byte	W01
	.byte		v064
	.byte	W01
	.byte		v065
	.byte	W01
	.byte		v066
	.byte	W01
	.byte		v068
	.byte	W01
	.byte		v069
	.byte	W01
	.byte		v070
	.byte	W01
	.byte		v071
	.byte	W01
	.byte		v071
	.byte	W01
	.byte		v072
	.byte	W01
	.byte		v073
	.byte	W01
	.byte		v074
	.byte	W01
	.byte		v075
	.byte	W01
	.byte		v077
	.byte	W01
	.byte		v077
	.byte	W01
	.byte		v078
	.byte	W01
	.byte		v079
	.byte	W01
	.byte		v080
	.byte	W01
	.byte		v081
	.byte	W01
	.byte		v082
	.byte	W01
	.byte		v083
	.byte	W01
	.byte		v084
	.byte	W01
	.byte		v085
	.byte	W01
	.byte		v086
	.byte	W01
	.byte		v087
	.byte	W01
	.byte		v088
	.byte	W01
	.byte		v089
	.byte	W15
	.byte		v090
	.byte		N06	
	.byte	W02
	.byte	VOL	, v089
	.byte	W01
	.byte		v088
	.byte	W01
	.byte		v087
	.byte	W01
	.byte		v086
	.byte	W01
	.byte		v085
	.byte	W01
	.byte		v084
	.byte	W01
	.byte		v084
	.byte	W01
	.byte		v083
	.byte	W01
	.byte		v082
	.byte	W01
	.byte		v081
	.byte	W01
	.byte	PATT	
		.word	song0034_5_1
	.byte	PATT	
		.word	song0034_5_2
	.byte	PATT	
		.word	song0034_5_3
	.byte	PATT	
		.word	song0034_5_4
	.byte	PATT	
		.word	song0034_5_1
	.byte	PATT	
		.word	song0034_5_2
	.byte	PATT	
		.word	song0034_5_5
song0034_5_8:
	.byte	VOL	, v022
	.byte	W01
	.byte		v023
	.byte	W01
	.byte		v025
	.byte	W01
	.byte		v025
	.byte	W01
	.byte		v026
	.byte	W01
	.byte		v027
	.byte	W01
	.byte		v028
	.byte	W01
	.byte		v029
	.byte	W01
	.byte		v030
	.byte	W01
	.byte		v031
	.byte	W01
	.byte		v032
	.byte	W01
	.byte		v033
	.byte	W01
	.byte		v034
	.byte	W01
	.byte		v035
	.byte	W01
	.byte		v036
	.byte	W01
	.byte		v037
	.byte	W01
	.byte		v038
	.byte	W01
	.byte		v038
	.byte	W01
	.byte		v039
	.byte	W01
	.byte		v040
	.byte	W01
	.byte		v042
	.byte	W01
	.byte		v043
	.byte	W01
	.byte		v044
	.byte	W01
	.byte		v045
	.byte	W01
	.byte		v045
	.byte	W01
	.byte		v046
	.byte	W01
	.byte		v047
	.byte	W01
	.byte		v048
	.byte	W01
	.byte		v049
	.byte	W01
	.byte		v051
	.byte	W01
	.byte		v051
	.byte	W01
	.byte		v052
	.byte	W01
	.byte		v053
	.byte	W01
	.byte		v054
	.byte	W01
	.byte		v055
	.byte	W01
	.byte		v056
	.byte	W01
	.byte		v057
	.byte	W01
	.byte		v058
	.byte	W01
	.byte		v059
	.byte	W01
	.byte		v060
	.byte	W01
	.byte		v061
	.byte	W01
	.byte		v062
	.byte	W01
	.byte		v063
	.byte	W01
	.byte		v064
	.byte	W01
	.byte		v064
	.byte	W01
	.byte		v065
	.byte	W01
	.byte		v066
	.byte	W01
	.byte		v068
	.byte	W01
	.byte		v069
	.byte	W01
	.byte		v070
	.byte	W01
	.byte		v071
	.byte	W01
	.byte		v071
	.byte	W01
	.byte		v072
	.byte	W01
	.byte		v073
	.byte	W01
	.byte		v074
	.byte	W01
	.byte		v075
	.byte	W01
	.byte		v077
	.byte	W01
	.byte		v077
	.byte	W01
	.byte		v078
	.byte	W01
	.byte		v079
	.byte	W01
	.byte		v080
	.byte	W01
	.byte		v081
	.byte	W01
	.byte		v082
	.byte	W01
	.byte		v083
	.byte	W01
	.byte		v084
	.byte	W01
	.byte		v085
	.byte	W01
	.byte		v086
	.byte	W01
	.byte		v087
	.byte	W01
	.byte		v088
	.byte	W01
	.byte		v089
	.byte	W15
	.byte		v090
	.byte		N06	, Gn3, v116
	.byte	W02
	.byte	VOL	, v089
	.byte	W01
	.byte		v088
	.byte	W01
	.byte		v087
	.byte	W01
	.byte		v086
	.byte	W01
	.byte		v085
	.byte	W01
	.byte		v084
	.byte	W01
	.byte		v084
	.byte	W01
	.byte		v083
	.byte	W01
	.byte		v082
	.byte	W01
	.byte		v081
	.byte	W01
	.byte	PEND
song0034_5_6:
	.byte	VOL	, v080
	.byte	W01
	.byte		v079
	.byte	W01
	.byte		v078
	.byte	W01
	.byte		v077
	.byte	W01
	.byte		v077
	.byte	W01
	.byte		v076
	.byte	W01
	.byte		v075
	.byte		N06	, Gn3, v116
	.byte	W01
	.byte	VOL	, v074
	.byte	W01
	.byte		v073
	.byte	W01
	.byte		v072
	.byte	W01
	.byte		v071
	.byte	W01
	.byte		v071
	.byte	W01
	.byte		v070
	.byte	W01
	.byte		v069
	.byte	W01
	.byte		v068
	.byte	W01
	.byte		v067
	.byte	W01
	.byte		v066
	.byte	W01
	.byte		v065
	.byte	W01
	.byte		v064
	.byte	W01
	.byte		v064
	.byte	W01
	.byte		v063
	.byte	W01
	.byte		v062
	.byte	W01
	.byte		v061
	.byte	W01
	.byte		v060
	.byte	W01
	.byte		v059
	.byte		N06	
	.byte	W01
	.byte	VOL	, v058
	.byte	W01
	.byte		v058
	.byte	W01
	.byte		v057
	.byte	W01
	.byte		v056
	.byte	W01
	.byte		v055
	.byte	W01
	.byte		v054
	.byte	W01
	.byte		v053
	.byte	W01
	.byte		v052
	.byte	W01
	.byte		v051
	.byte	W01
	.byte		v051
	.byte	W01
	.byte		v050
	.byte	W01
	.byte		v049
	.byte	W01
	.byte		v048
	.byte	W01
	.byte		v047
	.byte	W01
	.byte		v046
	.byte	W01
	.byte		v045
	.byte	W01
	.byte		v045
	.byte	W01
	.byte		v044
	.byte		N06	
	.byte	W01
	.byte	VOL	, v043
	.byte	W01
	.byte		v042
	.byte	W01
	.byte		v041
	.byte	W01
	.byte		v040
	.byte	W01
	.byte		v039
	.byte	W01
	.byte		v038
	.byte	W01
	.byte		v038
	.byte	W01
	.byte		v037
	.byte	W01
	.byte		v036
	.byte	W01
	.byte		v035
	.byte	W01
	.byte		v034
	.byte	W01
	.byte		v033
	.byte	W01
	.byte		v032
	.byte	W01
	.byte		v032
	.byte	W01
	.byte		v031
	.byte	W01
	.byte		v030
	.byte	W01
	.byte		v029
	.byte	W01
	.byte		v028
	.byte		N06	
	.byte	W01
	.byte	VOL	, v027
	.byte	W01
	.byte		v026
	.byte	W01
	.byte		v025
	.byte	W01
	.byte		v025
	.byte	W01
	.byte		v024
	.byte	W01
	.byte		v023
	.byte	W01
	.byte		v022
	.byte	W01
	.byte		v021
	.byte	W01
	.byte		v020
	.byte	W01
	.byte		v019
	.byte	W01
	.byte		v019
	.byte	W01
	.byte		v018
	.byte	W01
	.byte		v017
	.byte	W01
	.byte		v016
	.byte	W01
	.byte		v015
	.byte	W01
	.byte		v014
	.byte	W01
	.byte		v013
	.byte	W01
	.byte		v012
	.byte	W01
	.byte		v012
	.byte	W01
	.byte		v011
	.byte	W01
	.byte		v009
	.byte	W02
	.byte		v010
	.byte	W01
	.byte		v011
	.byte		N06	, Fs3
	.byte	W01
	.byte	VOL	, v012
	.byte	W01
	.byte		v012
	.byte	W01
	.byte		v013
	.byte	W01
	.byte		v014
	.byte	W01
	.byte		v016
	.byte	W01
	.byte		v017
	.byte	W01
	.byte		v018
	.byte	W01
	.byte		v019
	.byte	W01
	.byte		v019
	.byte	W01
	.byte		v020
	.byte	W01
	.byte		v021
	.byte	W01
	.byte	PEND
song0034_5_7:
	.byte	VOL	, v022
	.byte	W01
	.byte		v023
	.byte	W01
	.byte		v025
	.byte	W01
	.byte		v025
	.byte	W01
	.byte		v026
	.byte	W01
	.byte		v027
	.byte	W01
	.byte		v028
	.byte		N06	, Fs3, v116
	.byte	W01
	.byte	VOL	, v029
	.byte	W01
	.byte		v030
	.byte	W01
	.byte		v031
	.byte	W01
	.byte		v032
	.byte	W01
	.byte		v033
	.byte	W01
	.byte		v034
	.byte	W01
	.byte		v035
	.byte	W01
	.byte		v036
	.byte	W01
	.byte		v037
	.byte	W01
	.byte		v038
	.byte	W01
	.byte		v038
	.byte	W01
	.byte		v039
	.byte	W01
	.byte		v040
	.byte	W01
	.byte		v042
	.byte	W01
	.byte		v043
	.byte	W01
	.byte		v044
	.byte	W01
	.byte		v045
	.byte	W01
	.byte		v045
	.byte		N06	
	.byte	W01
	.byte	VOL	, v046
	.byte	W01
	.byte		v047
	.byte	W01
	.byte		v048
	.byte	W01
	.byte		v049
	.byte	W01
	.byte		v051
	.byte	W01
	.byte		v051
	.byte	W01
	.byte		v052
	.byte	W01
	.byte		v053
	.byte	W01
	.byte		v054
	.byte	W01
	.byte		v055
	.byte	W01
	.byte		v056
	.byte	W01
	.byte		v057
	.byte	W01
	.byte		v058
	.byte	W01
	.byte		v059
	.byte	W01
	.byte		v060
	.byte	W01
	.byte		v061
	.byte	W01
	.byte		v062
	.byte	W01
	.byte		v063
	.byte		N06	
	.byte	W01
	.byte	VOL	, v064
	.byte	W01
	.byte		v064
	.byte	W01
	.byte		v065
	.byte	W01
	.byte		v066
	.byte	W01
	.byte		v068
	.byte	W01
	.byte		v069
	.byte	W01
	.byte		v070
	.byte	W01
	.byte		v071
	.byte	W01
	.byte		v071
	.byte	W01
	.byte		v072
	.byte	W01
	.byte		v073
	.byte	W01
	.byte		v074
	.byte	W01
	.byte		v075
	.byte	W01
	.byte		v077
	.byte	W01
	.byte		v077
	.byte	W01
	.byte		v078
	.byte	W01
	.byte		v079
	.byte	W01
	.byte		v080
	.byte		N06	
	.byte	W01
	.byte	VOL	, v081
	.byte	W01
	.byte		v082
	.byte	W01
	.byte		v083
	.byte	W01
	.byte		v084
	.byte	W01
	.byte		v085
	.byte	W01
	.byte		v086
	.byte	W01
	.byte		v087
	.byte	W01
	.byte		v088
	.byte	W01
	.byte		v089
	.byte	W15
	.byte		v090
	.byte		N06	, Gn3
	.byte	W02
	.byte	VOL	, v089
	.byte	W01
	.byte		v088
	.byte	W01
	.byte		v087
	.byte	W01
	.byte		v086
	.byte	W01
	.byte		v085
	.byte	W01
	.byte		v084
	.byte	W01
	.byte		v084
	.byte	W01
	.byte		v083
	.byte	W01
	.byte		v082
	.byte	W01
	.byte		v081
	.byte	W01
	.byte	PEND
song0034_5_9:
	.byte	VOL	, v080
	.byte	W01
	.byte		v079
	.byte	W01
	.byte		v078
	.byte	W01
	.byte		v077
	.byte	W01
	.byte		v077
	.byte	W01
	.byte		v076
	.byte	W01
	.byte		v075
	.byte		N06	, Gn3, v116
	.byte	W01
	.byte	VOL	, v074
	.byte	W01
	.byte		v073
	.byte	W01
	.byte		v072
	.byte	W01
	.byte		v071
	.byte	W01
	.byte		v071
	.byte	W01
	.byte		v070
	.byte	W01
	.byte		v069
	.byte	W01
	.byte		v068
	.byte	W01
	.byte		v067
	.byte	W01
	.byte		v066
	.byte	W01
	.byte		v065
	.byte	W01
	.byte		v064
	.byte	W01
	.byte		v064
	.byte	W01
	.byte		v063
	.byte	W01
	.byte		v062
	.byte	W01
	.byte		v061
	.byte	W01
	.byte		v060
	.byte	W01
	.byte		v059
	.byte		N06	
	.byte	W01
	.byte	VOL	, v058
	.byte	W01
	.byte		v058
	.byte	W01
	.byte		v057
	.byte	W01
	.byte		v056
	.byte	W01
	.byte		v055
	.byte	W01
	.byte		v054
	.byte	W01
	.byte		v053
	.byte	W01
	.byte		v052
	.byte	W01
	.byte		v051
	.byte	W01
	.byte		v051
	.byte	W01
	.byte		v050
	.byte	W01
	.byte		v049
	.byte	W01
	.byte		v048
	.byte	W01
	.byte		v047
	.byte	W01
	.byte		v046
	.byte	W01
	.byte		v045
	.byte	W01
	.byte		v045
	.byte	W01
	.byte		v044
	.byte		N06	
	.byte	W01
	.byte	VOL	, v043
	.byte	W01
	.byte		v042
	.byte	W01
	.byte		v041
	.byte	W01
	.byte		v040
	.byte	W01
	.byte		v039
	.byte	W01
	.byte		v038
	.byte	W01
	.byte		v038
	.byte	W01
	.byte		v037
	.byte	W01
	.byte		v036
	.byte	W01
	.byte		v035
	.byte	W01
	.byte		v034
	.byte	W01
	.byte		v033
	.byte	W01
	.byte		v032
	.byte	W01
	.byte		v032
	.byte	W01
	.byte		v031
	.byte	W01
	.byte		v030
	.byte	W01
	.byte		v029
	.byte	W01
	.byte		v028
	.byte		N06	
	.byte	W01
	.byte	VOL	, v027
	.byte	W01
	.byte		v026
	.byte	W01
	.byte		v025
	.byte	W01
	.byte		v025
	.byte	W01
	.byte		v024
	.byte	W01
	.byte		v023
	.byte	W01
	.byte		v022
	.byte	W01
	.byte		v021
	.byte	W01
	.byte		v020
	.byte	W01
	.byte		v019
	.byte	W01
	.byte		v019
	.byte	W01
	.byte		v018
	.byte	W01
	.byte		v017
	.byte	W01
	.byte		v016
	.byte	W01
	.byte		v015
	.byte	W01
	.byte		v014
	.byte	W01
	.byte		v013
	.byte	W01
	.byte		v012
	.byte	W01
	.byte		v012
	.byte	W01
	.byte		v011
	.byte	W01
	.byte		v009
	.byte	W02
	.byte		v010
	.byte	W01
	.byte		v011
	.byte		N06	, Gs3
	.byte	W01
	.byte	VOL	, v012
	.byte	W01
	.byte		v012
	.byte	W01
	.byte		v013
	.byte	W01
	.byte		v014
	.byte	W01
	.byte		v016
	.byte	W01
	.byte		v017
	.byte	W01
	.byte		v018
	.byte	W01
	.byte		v019
	.byte	W01
	.byte		v019
	.byte	W01
	.byte		v020
	.byte	W01
	.byte		v021
	.byte	W01
	.byte	PEND
song0034_5_10:
	.byte	VOL	, v022
	.byte	W01
	.byte		v023
	.byte	W01
	.byte		v025
	.byte	W01
	.byte		v025
	.byte	W01
	.byte		v026
	.byte	W01
	.byte		v027
	.byte	W01
	.byte		v028
	.byte		N06	, Gs3, v116
	.byte	W01
	.byte	VOL	, v029
	.byte	W01
	.byte		v030
	.byte	W01
	.byte		v031
	.byte	W01
	.byte		v032
	.byte	W01
	.byte		v033
	.byte	W01
	.byte		v034
	.byte	W01
	.byte		v035
	.byte	W01
	.byte		v036
	.byte	W01
	.byte		v037
	.byte	W01
	.byte		v038
	.byte	W01
	.byte		v038
	.byte	W01
	.byte		v039
	.byte	W01
	.byte		v040
	.byte	W01
	.byte		v042
	.byte	W01
	.byte		v043
	.byte	W01
	.byte		v044
	.byte	W01
	.byte		v045
	.byte	W01
	.byte		v045
	.byte		N06	
	.byte	W01
	.byte	VOL	, v046
	.byte	W01
	.byte		v047
	.byte	W01
	.byte		v048
	.byte	W01
	.byte		v049
	.byte	W01
	.byte		v051
	.byte	W01
	.byte		v051
	.byte	W01
	.byte		v052
	.byte	W01
	.byte		v053
	.byte	W01
	.byte		v054
	.byte	W01
	.byte		v055
	.byte	W01
	.byte		v056
	.byte	W01
	.byte		v057
	.byte	W01
	.byte		v058
	.byte	W01
	.byte		v059
	.byte	W01
	.byte		v060
	.byte	W01
	.byte		v061
	.byte	W01
	.byte		v062
	.byte	W01
	.byte		v063
	.byte		N06	
	.byte	W01
	.byte	VOL	, v064
	.byte	W01
	.byte		v064
	.byte	W01
	.byte		v065
	.byte	W01
	.byte		v066
	.byte	W01
	.byte		v068
	.byte	W01
	.byte		v069
	.byte	W01
	.byte		v070
	.byte	W01
	.byte		v071
	.byte	W01
	.byte		v071
	.byte	W01
	.byte		v072
	.byte	W01
	.byte		v073
	.byte	W01
	.byte		v074
	.byte	W01
	.byte		v075
	.byte	W01
	.byte		v077
	.byte	W01
	.byte		v077
	.byte	W01
	.byte		v078
	.byte	W01
	.byte		v079
	.byte	W01
	.byte		v080
	.byte		N06	
	.byte	W01
	.byte	VOL	, v081
	.byte	W01
	.byte		v082
	.byte	W01
	.byte		v083
	.byte	W01
	.byte		v084
	.byte	W01
	.byte		v085
	.byte	W01
	.byte		v086
	.byte	W01
	.byte		v087
	.byte	W01
	.byte		v088
	.byte	W01
	.byte		v089
	.byte	W15
	.byte		v090
	.byte		N06	, Gn3
	.byte	W02
	.byte	VOL	, v089
	.byte	W01
	.byte		v088
	.byte	W01
	.byte		v087
	.byte	W01
	.byte		v086
	.byte	W01
	.byte		v085
	.byte	W01
	.byte		v084
	.byte	W01
	.byte		v084
	.byte	W01
	.byte		v083
	.byte	W01
	.byte		v082
	.byte	W01
	.byte		v081
	.byte	W01
	.byte	PEND
	.byte	PATT	
		.word	song0034_5_6
	.byte	PATT	
		.word	song0034_5_7
song0034_5_11:
	.byte	VOL	, v080
	.byte	W01
	.byte		v079
	.byte	W01
	.byte		v078
	.byte	W01
	.byte		v077
	.byte	W01
	.byte		v077
	.byte	W01
	.byte		v076
	.byte	W01
	.byte		v075
	.byte		N06	, Gn3, v116
	.byte	W01
	.byte	VOL	, v074
	.byte	W01
	.byte		v073
	.byte	W01
	.byte		v072
	.byte	W01
	.byte		v071
	.byte	W01
	.byte		v071
	.byte	W01
	.byte		v070
	.byte	W01
	.byte		v069
	.byte	W01
	.byte		v068
	.byte	W01
	.byte		v067
	.byte	W01
	.byte		v066
	.byte	W01
	.byte		v065
	.byte	W01
	.byte		v064
	.byte	W01
	.byte		v064
	.byte	W01
	.byte		v063
	.byte	W01
	.byte		v062
	.byte	W01
	.byte		v061
	.byte	W01
	.byte		v060
	.byte	W01
	.byte		v059
	.byte		N06	
	.byte	W01
	.byte	VOL	, v058
	.byte	W01
	.byte		v058
	.byte	W01
	.byte		v057
	.byte	W01
	.byte		v056
	.byte	W01
	.byte		v055
	.byte	W01
	.byte		v054
	.byte	W01
	.byte		v053
	.byte	W01
	.byte		v052
	.byte	W01
	.byte		v051
	.byte	W01
	.byte		v051
	.byte	W01
	.byte		v050
	.byte	W01
	.byte		v049
	.byte	W01
	.byte		v048
	.byte	W01
	.byte		v047
	.byte	W01
	.byte		v046
	.byte	W01
	.byte		v045
	.byte	W01
	.byte		v045
	.byte	W01
	.byte		v044
	.byte		N06	
	.byte	W01
	.byte	VOL	, v043
	.byte	W01
	.byte		v042
	.byte	W01
	.byte		v041
	.byte	W01
	.byte		v040
	.byte	W01
	.byte		v039
	.byte	W01
	.byte		v038
	.byte	W01
	.byte		v038
	.byte	W01
	.byte		v037
	.byte	W01
	.byte		v036
	.byte	W01
	.byte		v035
	.byte	W01
	.byte		v034
	.byte	W01
	.byte		v033
	.byte	W01
	.byte		v032
	.byte	W01
	.byte		v032
	.byte	W01
	.byte		v031
	.byte	W01
	.byte		v030
	.byte	W01
	.byte		v029
	.byte	W01
	.byte		v028
	.byte		N06	
	.byte	W01
	.byte	VOL	, v027
	.byte	W01
	.byte		v026
	.byte	W01
	.byte		v025
	.byte	W01
	.byte		v025
	.byte	W01
	.byte		v024
	.byte	W01
	.byte		v023
	.byte	W01
	.byte		v022
	.byte	W01
	.byte		v021
	.byte	W01
	.byte		v020
	.byte	W01
	.byte		v019
	.byte	W01
	.byte		v019
	.byte	W01
	.byte		v018
	.byte	W01
	.byte		v017
	.byte	W01
	.byte		v016
	.byte	W01
	.byte		v015
	.byte	W01
	.byte		v014
	.byte	W01
	.byte		v013
	.byte	W01
	.byte		v012
	.byte	W01
	.byte		v012
	.byte	W01
	.byte		v011
	.byte	W01
	.byte		v009
	.byte	W02
	.byte		v010
	.byte	W01
	.byte		v011
	.byte	W01
	.byte		v012
	.byte	W01
	.byte		v012
	.byte	W01
	.byte		v013
	.byte	W01
	.byte		v014
	.byte	W01
	.byte		v016
	.byte	W01
	.byte		v017
	.byte	W01
	.byte		v018
	.byte	W01
	.byte		v019
	.byte	W01
	.byte		v019
	.byte	W01
	.byte		v020
	.byte	W01
	.byte		v021
	.byte	W01
	.byte	PEND
	.byte	PATT	
		.word	song0034_5_8
	.byte	PATT	
		.word	song0034_5_6
	.byte	PATT	
		.word	song0034_5_7
	.byte	PATT	
		.word	song0034_5_9
	.byte	PATT	
		.word	song0034_5_10
	.byte	PATT	
		.word	song0034_5_6
	.byte	PATT	
		.word	song0034_5_7
	.byte	PATT	
		.word	song0034_5_11
song0034_5_12:
	.byte	VOL	, v022
	.byte	W01
	.byte		v023
	.byte	W01
	.byte		v025
	.byte	W01
	.byte		v025
	.byte	W01
	.byte		v026
	.byte	W01
	.byte		v027
	.byte	W01
	.byte		v028
	.byte	W01
	.byte		v029
	.byte	W01
	.byte		v030
	.byte	W01
	.byte		v031
	.byte	W01
	.byte		v032
	.byte	W01
	.byte		v033
	.byte	W01
	.byte		v034
	.byte	W01
	.byte		v035
	.byte	W01
	.byte		v036
	.byte	W01
	.byte		v037
	.byte	W01
	.byte		v038
	.byte	W01
	.byte		v038
	.byte	W01
	.byte		v039
	.byte	W01
	.byte		v040
	.byte	W01
	.byte		v042
	.byte	W01
	.byte		v043
	.byte	W01
	.byte		v044
	.byte	W01
	.byte		v045
	.byte	W01
	.byte		v045
	.byte	W01
	.byte		v046
	.byte	W01
	.byte		v047
	.byte	W01
	.byte		v048
	.byte	W01
	.byte		v049
	.byte	W01
	.byte		v051
	.byte	W01
	.byte		v051
	.byte	W01
	.byte		v052
	.byte	W01
	.byte		v053
	.byte	W01
	.byte		v054
	.byte	W01
	.byte		v055
	.byte	W01
	.byte		v056
	.byte	W01
	.byte		v057
	.byte	W01
	.byte		v058
	.byte	W01
	.byte		v059
	.byte	W01
	.byte		v060
	.byte	W01
	.byte		v061
	.byte	W01
	.byte		v062
	.byte	W01
	.byte		v063
	.byte	W01
	.byte		v064
	.byte	W01
	.byte		v064
	.byte	W01
	.byte		v065
	.byte	W01
	.byte		v066
	.byte	W01
	.byte		v068
	.byte	W01
	.byte		v069
	.byte	W01
	.byte		v070
	.byte	W01
	.byte		v071
	.byte	W01
	.byte		v071
	.byte	W01
	.byte		v072
	.byte	W01
	.byte		v073
	.byte	W01
	.byte		v074
	.byte	W01
	.byte		v075
	.byte	W01
	.byte		v077
	.byte	W01
	.byte		v077
	.byte	W01
	.byte		v078
	.byte	W01
	.byte		v079
	.byte	W01
	.byte		v080
	.byte	W01
	.byte		v081
	.byte	W01
	.byte		v082
	.byte	W01
	.byte		v083
	.byte	W01
	.byte		v084
	.byte	W01
	.byte		v085
	.byte	W01
	.byte		v086
	.byte	W01
	.byte		v087
	.byte	W01
	.byte		v088
	.byte	W01
	.byte		v089
	.byte	W15
	.byte		v090
	.byte	W02
	.byte		v089
	.byte	W01
	.byte		v088
	.byte	W01
	.byte		v087
	.byte	W01
	.byte		v086
	.byte	W01
	.byte		v085
	.byte	W01
	.byte		v084
	.byte	W01
	.byte		v084
	.byte	W01
	.byte		v083
	.byte	W01
	.byte		v082
	.byte	W01
	.byte		v081
	.byte	W01
	.byte	PEND
song0034_5_13:
	.byte	VOL	, v080
	.byte	W01
	.byte		v079
	.byte	W01
	.byte		v078
	.byte	W01
	.byte		v077
	.byte	W01
	.byte		v077
	.byte	W01
	.byte		v076
	.byte	W01
	.byte		v075
	.byte	W01
	.byte		v074
	.byte	W01
	.byte		v073
	.byte	W01
	.byte		v072
	.byte	W01
	.byte		v071
	.byte	W01
	.byte		v071
	.byte	W01
	.byte		v070
	.byte	W01
	.byte		v069
	.byte	W01
	.byte		v068
	.byte	W01
	.byte		v067
	.byte	W01
	.byte		v066
	.byte	W01
	.byte		v065
	.byte	W01
	.byte		v064
	.byte	W01
	.byte		v064
	.byte	W01
	.byte		v063
	.byte	W01
	.byte		v062
	.byte	W01
	.byte		v061
	.byte	W01
	.byte		v060
	.byte	W01
	.byte		v059
	.byte	W01
	.byte		v058
	.byte	W01
	.byte		v058
	.byte	W01
	.byte		v057
	.byte	W01
	.byte		v056
	.byte	W01
	.byte		v055
	.byte	W01
	.byte		v054
	.byte	W01
	.byte		v053
	.byte	W01
	.byte		v052
	.byte	W01
	.byte		v051
	.byte	W01
	.byte		v051
	.byte	W01
	.byte		v050
	.byte	W01
	.byte		v049
	.byte	W01
	.byte		v048
	.byte	W01
	.byte		v047
	.byte	W01
	.byte		v046
	.byte	W01
	.byte		v045
	.byte	W01
	.byte		v045
	.byte	W01
	.byte		v044
	.byte	W01
	.byte		v043
	.byte	W01
	.byte		v042
	.byte	W01
	.byte		v041
	.byte	W01
	.byte		v040
	.byte	W01
	.byte		v039
	.byte	W01
	.byte		v038
	.byte	W01
	.byte		v038
	.byte	W01
	.byte		v037
	.byte	W01
	.byte		v036
	.byte	W01
	.byte		v035
	.byte	W01
	.byte		v034
	.byte	W01
	.byte		v033
	.byte	W01
	.byte		v032
	.byte	W01
	.byte		v032
	.byte	W01
	.byte		v031
	.byte	W01
	.byte		v030
	.byte	W01
	.byte		v029
	.byte	W01
	.byte		v028
	.byte	W01
	.byte		v027
	.byte	W01
	.byte		v026
	.byte	W01
	.byte		v025
	.byte	W01
	.byte		v025
	.byte	W01
	.byte		v024
	.byte	W01
	.byte		v023
	.byte	W01
	.byte		v022
	.byte	W01
	.byte		v021
	.byte	W01
	.byte		v020
	.byte	W01
	.byte		v019
	.byte	W01
	.byte		v019
	.byte	W01
	.byte		v018
	.byte	W01
	.byte		v017
	.byte	W01
	.byte		v016
	.byte	W01
	.byte		v015
	.byte	W01
	.byte		v014
	.byte	W01
	.byte		v013
	.byte	W01
	.byte		v012
	.byte	W01
	.byte		v012
	.byte	W01
	.byte		v011
	.byte	W01
	.byte		v009
	.byte	W02
	.byte		v010
	.byte	W01
	.byte		v011
	.byte	W01
	.byte		v012
	.byte	W01
	.byte		v012
	.byte	W01
	.byte		v013
	.byte	W01
	.byte		v014
	.byte	W01
	.byte		v016
	.byte	W01
	.byte		v017
	.byte	W01
	.byte		v018
	.byte	W01
	.byte		v019
	.byte	W01
	.byte		v019
	.byte	W01
	.byte		v020
	.byte	W01
	.byte		v021
	.byte	W01
	.byte	PEND
	.byte	PATT	
		.word	song0034_5_12
	.byte	PATT	
		.word	song0034_5_13
	.byte	PATT	
		.word	song0034_5_12
	.byte	PATT	
		.word	song0034_5_13
	.byte	PATT	
		.word	song0034_5_12
	.byte	PATT	
		.word	song0034_5_13
	.byte	VOL	, v022
	.byte	W01
	.byte		v023
	.byte	W01
	.byte		v025
	.byte	W01
	.byte		v025
	.byte	W01
	.byte		v026
	.byte	W01
	.byte		v027
	.byte	W01
	.byte		v028
	.byte	W01
	.byte		v029
	.byte	W01
	.byte		v030
	.byte	W01
	.byte		v031
	.byte	W01
	.byte		v032
	.byte	W01
	.byte		v033
	.byte	W01
	.byte		v034
	.byte	W01
	.byte		v035
	.byte	W01
	.byte		v036
	.byte	W01
	.byte		v037
	.byte	W01
	.byte		v038
	.byte	W01
	.byte		v038
	.byte	W01
	.byte		v039
	.byte	W01
	.byte		v040
	.byte	W01
	.byte		v042
	.byte	W01
	.byte		v043
	.byte	W01
	.byte		v044
	.byte	W01
	.byte		v045
	.byte	W01
	.byte		v045
	.byte	W01
	.byte		v046
	.byte	W01
	.byte		v047
	.byte	W01
	.byte		v048
	.byte	W01
	.byte		v049
	.byte	W01
	.byte		v051
	.byte	W01
	.byte		v051
	.byte	W01
	.byte		v052
	.byte	W01
	.byte		v053
	.byte	W01
	.byte		v054
	.byte	W01
	.byte		v055
	.byte	W01
	.byte		v056
	.byte	W01
	.byte		v057
	.byte	W01
	.byte		v058
	.byte	W01
	.byte		v059
	.byte	W01
	.byte		v060
	.byte	W01
	.byte		v061
	.byte	W01
	.byte		v062
	.byte	W01
	.byte		v063
	.byte	W01
	.byte		v064
	.byte	W01
	.byte		v064
	.byte	W01
	.byte		v065
	.byte	W01
	.byte		v066
	.byte	W01
	.byte		v068
	.byte	W01
	.byte		v069
	.byte	W01
	.byte		v070
	.byte	W01
	.byte		v071
	.byte	W01
	.byte		v071
	.byte	W01
	.byte		v072
	.byte	W01
	.byte		v073
	.byte	W01
	.byte		v074
	.byte	W01
	.byte		v075
	.byte	W01
	.byte		v077
	.byte	W01
	.byte		v077
	.byte	W01
	.byte		v078
	.byte	W01
	.byte		v079
	.byte	W01
	.byte		v080
	.byte	W01
	.byte		v081
	.byte	W01
	.byte		v082
	.byte	W01
	.byte		v083
	.byte	W01
	.byte		v084
	.byte	W01
	.byte		v085
	.byte	W01
	.byte		v086
	.byte	W01
	.byte		v087
	.byte	W01
	.byte		v088
	.byte	W01
	.byte		v089
	.byte	W15
	.byte	GOTO	
		.word	song0034_5_14
	.byte	FINE

	@********************** Track  6 **********************@

	.global song0034_6
song0034_6:	@ 0x08C71809
	.byte	KEYSH	, 0
	.byte	VOICE	, 82
	.byte	VOL	, v069
	.byte	MOD	, 0
	.byte	MODT	, 0
	.byte	LFOS	, 32
	.byte	PRIO	, 40
	.byte	W84
song0034_6_5:
	.byte	W12
	.byte	W96
	.byte	W96
	.byte	W96
	.byte	W36
	.byte	MOD	, 1
	.byte	W01
	.byte		4
	.byte	W02
	.byte		8
	.byte	W01
	.byte		12
	.byte	W01
	.byte		14
	.byte	W03
	.byte		9
	.byte	W01
	.byte		4
	.byte	W01
	.byte		0
	.byte	W36
	.byte	W02
	.byte		N68	, Ds3, v092
	.byte	W12
	.byte	W14
	.byte	MOD	, 1
	.byte	W07
	.byte		2
	.byte	W02
	.byte		3
	.byte	W09
	.byte		4
	.byte	W11
	.byte		5
	.byte	W11
	.byte		4
	.byte	W02
	.byte		3
	.byte	W01
	.byte		2
	.byte	W02
	.byte		1
	.byte	W01
	.byte		0
	.byte		N11	, Bn2, v084
	.byte	W12
	.byte			Ds3
	.byte	W12
	.byte		N66	, Dn3, v100
	.byte	W12
	.byte	W13
	.byte	MOD	, 1
	.byte	W08
	.byte		2
	.byte	W03
	.byte		3
	.byte	W04
	.byte		4
	.byte	W07
	.byte		5
	.byte	W07
	.byte		6
	.byte	W13
	.byte		5
	.byte	W02
	.byte		4
	.byte	W01
	.byte		2
	.byte	W01
	.byte		0
	.byte	W01
	.byte		N23	, Dn3, v116
	.byte	W24
	.byte		N68	, Ds3, v100
	.byte	W12
	.byte	W06
	.byte	MOD	, 1
	.byte	W06
	.byte		2
	.byte	W03
	.byte		3
	.byte	W04
	.byte		4
	.byte	W12
	.byte		5
	.byte	W04
	.byte		6
	.byte	W16
	.byte		4
	.byte	W01
	.byte		2
	.byte	W01
	.byte		0
	.byte	W07
	.byte		N11	, Dn3, v108
	.byte	W12
	.byte			Ds3
	.byte	W12
	.byte		N68	, En3
	.byte	W12
	.byte	W11
	.byte	MOD	, 1
	.byte	W02
	.byte		2
	.byte	W02
	.byte		3
	.byte	W08
	.byte		4
	.byte	W04
	.byte		5
	.byte	W10
	.byte		6
	.byte	W05
	.byte		7
	.byte	W08
	.byte		5
	.byte	W01
	.byte		3
	.byte	W01
	.byte		0
	.byte	W08
	.byte		N23	, En3, v124
	.byte	W24
	.byte		N66	, Ds3, v108
	.byte	W12
	.byte	W14
	.byte	MOD	, 1
	.byte	W03
	.byte		2
	.byte	W03
	.byte		3
	.byte	W02
	.byte		4
	.byte	W07
	.byte		5
	.byte	W07
	.byte		6
	.byte	W09
	.byte		7
	.byte	W12
	.byte		5
	.byte	W01
	.byte		3
	.byte	W01
	.byte		0
	.byte	W01
	.byte		N11	, Bn2, v096
	.byte	W12
	.byte			Ds3
	.byte	W12
	.byte		N64	, Dn3, v104
	.byte	W12
	.byte	W04
	.byte	MOD	, 1
	.byte	W03
	.byte		2
	.byte	W04
	.byte		3
	.byte	W05
	.byte		4
	.byte	W06
	.byte		5
	.byte	W08
	.byte		6
	.byte	W05
	.byte		7
	.byte	W16
	.byte		5
	.byte	W01
	.byte		0
	.byte	W08
	.byte		N23	
	.byte	W24
	.byte		TIE	, Ds3, v084
	.byte	W12
song0034_6_1:
	.byte	W08
	.byte	MOD	, 1
	.byte	W24
	.byte	W03
	.byte		2
	.byte	W06
	.byte		3
	.byte	W19
	.byte		4
	.byte	W14
	.byte		5
	.byte	W08
	.byte		6
	.byte	W14
	.byte	PEND
song0034_6_2:
	.byte	W01
	.byte	MOD	, 7
	.byte	W10
	.byte		8
	.byte	W32
	.byte	W02
	.byte		7
	.byte	W01
	.byte		6
	.byte	W02
	.byte		5
	.byte	W02
	.byte		4
	.byte	W03
	.byte		3
	.byte	W01
	.byte		2
	.byte	W03
	.byte		0
	.byte	W15
	.byte	PEND
	.byte		EOT	, Ds3
	.byte	W12
	.byte		N56	, Ds3, v112
	.byte	W12
	.byte	W22
	.byte	MOD	, 1
	.byte	W04
	.byte		2
	.byte	W02
	.byte		4
	.byte	W03
	.byte		5
	.byte	W14
	.byte		6
	.byte	W03
	.byte		N11	, Gs2, v084
	.byte	W03
	.byte	MOD	, 7
	.byte	W09
	.byte		8
	.byte		N11	, Bn2
	.byte	W07
	.byte	MOD	, 7
	.byte	W01
	.byte		5
	.byte	W01
	.byte		3
	.byte	W02
	.byte		0
	.byte	W01
	.byte		N11	, Ds3, v104
	.byte	W12
	.byte		N64	, Dn3, v108
	.byte	W12
	.byte	W14
	.byte	MOD	, 1
	.byte	W02
	.byte		3
	.byte	W01
	.byte		4
	.byte	W04
	.byte		5
	.byte	W03
	.byte		6
	.byte	W03
	.byte		7
	.byte	W08
	.byte		8
	.byte	W04
	.byte		9
	.byte	W04
	.byte		10
	.byte	W02
	.byte		11
	.byte	W05
	.byte		12
	.byte	W07
	.byte		9
	.byte	W01
	.byte		6
	.byte	W01
	.byte		3
	.byte	W01
	.byte		N23	, Dn3, v116
	.byte	W01
	.byte	MOD	, 0
	.byte	W23
	.byte		N68	, Ds3, v108
	.byte	W12
	.byte	W02
	.byte	MOD	, 1
	.byte	W02
	.byte		2
	.byte	W02
	.byte		3
	.byte	W02
	.byte		4
	.byte	W07
	.byte		6
	.byte	W04
	.byte		7
	.byte	W02
	.byte		8
	.byte	W04
	.byte		9
	.byte	W06
	.byte		10
	.byte	W02
	.byte		11
	.byte	W03
	.byte		12
	.byte	W09
	.byte		9
	.byte	W02
	.byte		7
	.byte	W01
	.byte		5
	.byte	W01
	.byte		2
	.byte	W01
	.byte		0
	.byte	W10
	.byte		N11	, Dn3, v104
	.byte	W12
	.byte			Ds3, v100
	.byte	W12
	.byte		N32	, Fs3, v112
	.byte	W12
	.byte	W06
	.byte	MOD	, 1
	.byte	W01
	.byte		2
	.byte	W02
	.byte		3
	.byte	W01
	.byte		4
	.byte	W03
	.byte		5
	.byte	W02
	.byte		7
	.byte	W03
	.byte		8
	.byte	W03
	.byte		9
	.byte	W03
	.byte		N32	, Fn3, v104
	.byte	W07
	.byte	MOD	, 6
	.byte	W01
	.byte		3
	.byte	W02
	.byte		0
	.byte	W24
	.byte	W02
	.byte		N23	, En3
	.byte	W24
	.byte		N56	, Ds3
	.byte	W12
	.byte	W10
	.byte	MOD	, 2
	.byte	W02
	.byte		3
	.byte	W01
	.byte		4
	.byte	W03
	.byte		5
	.byte	W05
	.byte		7
	.byte	W04
	.byte		8
	.byte	W05
	.byte		9
	.byte	W03
	.byte		10
	.byte	W04
	.byte		11
	.byte	W03
	.byte		12
	.byte	W08
	.byte		N11	, Gs2, v068
	.byte	W03
	.byte	MOD	, 10
	.byte	W02
	.byte		6
	.byte	W01
	.byte		3
	.byte	W01
	.byte		0
	.byte	W05
	.byte		N11	, Bn2, v080
	.byte	W12
	.byte			Ds3, v108
	.byte	W12
	.byte		N66	, Dn3, v100
	.byte	W12
	.byte	W03
	.byte	MOD	, 1
	.byte	W04
	.byte		2
	.byte	W03
	.byte		4
	.byte	W02
	.byte		5
	.byte	W03
	.byte		6
	.byte	W01
	.byte		7
	.byte	W05
	.byte		8
	.byte	W04
	.byte		9
	.byte	W04
	.byte		10
	.byte	W03
	.byte		11
	.byte	W15
	.byte		12
	.byte	W02
	.byte		9
	.byte	W02
	.byte		6
	.byte	W01
	.byte		3
	.byte	W01
	.byte		0
	.byte	W07
	.byte		N23	, Dn3, v112
	.byte	W24
	.byte		TIE	, Ds3, v096
	.byte	W12
song0034_6_3:
	.byte	W24
	.byte	W01
	.byte	MOD	, 1
	.byte	W04
	.byte		2
	.byte	W04
	.byte		3
	.byte	W09
	.byte		4
	.byte	W05
	.byte		5
	.byte	W08
	.byte		6
	.byte	W07
	.byte		7
	.byte	W14
	.byte		8
	.byte	W13
	.byte		9
	.byte	W07
	.byte	PEND
song0034_6_4:
	.byte	W54
	.byte	MOD	, 8
	.byte	W03
	.byte		7
	.byte	W01
	.byte		4
	.byte	W01
	.byte	PEND
	.byte		EOT	, Ds3
	.byte	MOD	, 0
	.byte	W24
	.byte	W01
	.byte		N68	, Fs3, v092
	.byte	W12
	.byte	W14
	.byte	MOD	, 1
	.byte	W07
	.byte		2
	.byte	W02
	.byte		3
	.byte	W09
	.byte		4
	.byte	W11
	.byte		5
	.byte	W11
	.byte		4
	.byte	W02
	.byte		3
	.byte	W01
	.byte		2
	.byte	W02
	.byte		1
	.byte	W01
	.byte		0
	.byte		N11	, Dn3, v084
	.byte	W12
	.byte			Fs3
	.byte	W12
	.byte		N66	, Fn3, v100
	.byte	W12
	.byte	W13
	.byte	MOD	, 1
	.byte	W08
	.byte		2
	.byte	W03
	.byte		3
	.byte	W04
	.byte		4
	.byte	W07
	.byte		5
	.byte	W07
	.byte		6
	.byte	W13
	.byte		5
	.byte	W02
	.byte		4
	.byte	W01
	.byte		2
	.byte	W01
	.byte		0
	.byte	W01
	.byte		N23	, Fn3, v116
	.byte	W24
	.byte		N68	, Fs3, v100
	.byte	W12
	.byte	W06
	.byte	MOD	, 1
	.byte	W06
	.byte		2
	.byte	W03
	.byte		3
	.byte	W04
	.byte		4
	.byte	W12
	.byte		5
	.byte	W04
	.byte		6
	.byte	W16
	.byte		4
	.byte	W01
	.byte		2
	.byte	W01
	.byte		0
	.byte	W07
	.byte		N11	, Fn3, v108
	.byte	W12
	.byte			Fs3
	.byte	W12
	.byte		N68	, Gn3
	.byte	W12
	.byte	W11
	.byte	MOD	, 1
	.byte	W02
	.byte		2
	.byte	W02
	.byte		3
	.byte	W08
	.byte		4
	.byte	W04
	.byte		5
	.byte	W10
	.byte		6
	.byte	W05
	.byte		7
	.byte	W08
	.byte		5
	.byte	W01
	.byte		3
	.byte	W01
	.byte		0
	.byte	W08
	.byte		N23	, Gn3, v124
	.byte	W24
	.byte		N66	, Fs3, v108
	.byte	W12
	.byte	W14
	.byte	MOD	, 1
	.byte	W03
	.byte		2
	.byte	W03
	.byte		3
	.byte	W02
	.byte		4
	.byte	W07
	.byte		5
	.byte	W07
	.byte		6
	.byte	W09
	.byte		7
	.byte	W12
	.byte		5
	.byte	W01
	.byte		3
	.byte	W01
	.byte		0
	.byte	W01
	.byte		N11	, Dn3, v096
	.byte	W12
	.byte			Fs3
	.byte	W12
	.byte		N64	, Fn3, v104
	.byte	W12
	.byte	W04
	.byte	MOD	, 1
	.byte	W03
	.byte		2
	.byte	W04
	.byte		3
	.byte	W05
	.byte		4
	.byte	W06
	.byte		5
	.byte	W08
	.byte		6
	.byte	W05
	.byte		7
	.byte	W16
	.byte		5
	.byte	W01
	.byte		0
	.byte	W08
	.byte		N23	
	.byte	W24
	.byte		TIE	, Fs3, v084
	.byte	W12
	.byte	PATT	
		.word	song0034_6_1
	.byte	PATT	
		.word	song0034_6_2
	.byte		EOT	, Fs3
	.byte	W12
	.byte		N56	, Fs3, v112
	.byte	W12
	.byte	W22
	.byte	MOD	, 1
	.byte	W04
	.byte		2
	.byte	W02
	.byte		4
	.byte	W03
	.byte		5
	.byte	W14
	.byte		6
	.byte	W03
	.byte		N11	, Bn2, v084
	.byte	W03
	.byte	MOD	, 7
	.byte	W09
	.byte		8
	.byte		N11	, Dn3
	.byte	W07
	.byte	MOD	, 7
	.byte	W01
	.byte		5
	.byte	W01
	.byte		3
	.byte	W02
	.byte		0
	.byte	W01
	.byte		N11	, Fs3, v104
	.byte	W12
	.byte		N64	, Fn3, v108
	.byte	W12
	.byte	W14
	.byte	MOD	, 1
	.byte	W02
	.byte		3
	.byte	W01
	.byte		4
	.byte	W04
	.byte		5
	.byte	W03
	.byte		6
	.byte	W03
	.byte		7
	.byte	W08
	.byte		8
	.byte	W04
	.byte		9
	.byte	W04
	.byte		10
	.byte	W02
	.byte		11
	.byte	W05
	.byte		12
	.byte	W07
	.byte		9
	.byte	W01
	.byte		6
	.byte	W01
	.byte		3
	.byte	W01
	.byte		N23	, Fn3, v116
	.byte	W01
	.byte	MOD	, 0
	.byte	W23
	.byte		N68	, Fs3, v108
	.byte	W12
	.byte	W02
	.byte	MOD	, 1
	.byte	W02
	.byte		2
	.byte	W02
	.byte		3
	.byte	W02
	.byte		4
	.byte	W07
	.byte		6
	.byte	W04
	.byte		7
	.byte	W02
	.byte		8
	.byte	W04
	.byte		9
	.byte	W06
	.byte		10
	.byte	W02
	.byte		11
	.byte	W03
	.byte		12
	.byte	W09
	.byte		9
	.byte	W02
	.byte		7
	.byte	W01
	.byte		5
	.byte	W01
	.byte		2
	.byte	W01
	.byte		0
	.byte	W10
	.byte		N11	, Fn3, v104
	.byte	W12
	.byte			Fs3, v100
	.byte	W12
	.byte		N32	, An3, v112
	.byte	W12
	.byte	W06
	.byte	MOD	, 1
	.byte	W01
	.byte		2
	.byte	W02
	.byte		3
	.byte	W01
	.byte		4
	.byte	W03
	.byte		5
	.byte	W02
	.byte		7
	.byte	W03
	.byte		8
	.byte	W03
	.byte		9
	.byte	W03
	.byte		N32	, Gs3, v104
	.byte	W07
	.byte	MOD	, 6
	.byte	W01
	.byte		3
	.byte	W02
	.byte		0
	.byte	W24
	.byte	W02
	.byte		N23	, Gn3
	.byte	W24
	.byte		N56	, Fs3
	.byte	W12
	.byte	W10
	.byte	MOD	, 2
	.byte	W02
	.byte		3
	.byte	W01
	.byte		4
	.byte	W03
	.byte		5
	.byte	W05
	.byte		7
	.byte	W04
	.byte		8
	.byte	W05
	.byte		9
	.byte	W03
	.byte		10
	.byte	W04
	.byte		11
	.byte	W03
	.byte		12
	.byte	W08
	.byte		N11	, Bn2, v068
	.byte	W03
	.byte	MOD	, 10
	.byte	W02
	.byte		6
	.byte	W01
	.byte		3
	.byte	W01
	.byte		0
	.byte	W05
	.byte		N11	, Dn3, v080
	.byte	W12
	.byte			Fs3, v108
	.byte	W12
	.byte		N66	, Fn3, v100
	.byte	W12
	.byte	W03
	.byte	MOD	, 1
	.byte	W04
	.byte		2
	.byte	W03
	.byte		4
	.byte	W02
	.byte		5
	.byte	W03
	.byte		6
	.byte	W01
	.byte		7
	.byte	W05
	.byte		8
	.byte	W04
	.byte		9
	.byte	W04
	.byte		10
	.byte	W03
	.byte		11
	.byte	W15
	.byte		12
	.byte	W02
	.byte		9
	.byte	W02
	.byte		6
	.byte	W01
	.byte		3
	.byte	W01
	.byte		0
	.byte	W07
	.byte		N23	, Fn3, v112
	.byte	W24
	.byte		TIE	, Fs3, v096
	.byte	W12
	.byte	PATT	
		.word	song0034_6_3
	.byte	PATT	
		.word	song0034_6_4
	.byte		EOT	, Fs3
	.byte	MOD	, 0
	.byte	W36
	.byte	W01
	.byte	W96
	.byte	W96
	.byte	W96
	.byte	W96
	.byte	W96
	.byte	W96
	.byte	W96
	.byte	W84
	.byte	GOTO	
		.word	song0034_6_5
	.byte	FINE

	@********************** Track  7 **********************@

	.global song0034_7
song0034_7:	@ 0x08C71C0C
	.byte	KEYSH	, 0
	.byte	VOICE	, 2
	.byte	VOL	, v051
	.byte	PAN	, c_v
	.byte	W12
	.byte		N03	, Ds2, v040
	.byte	W03
	.byte			Fn2, v044
	.byte	W03
	.byte			Gn2, v048
	.byte	W03
	.byte			As2
	.byte	W03
	.byte			Ds3, v052
	.byte	W03
	.byte			Fn3
	.byte	W03
	.byte			Gn3, v056
	.byte	W03
	.byte			Fn3, v060
	.byte	W03
	.byte			Ds3
	.byte	W03
	.byte			Fn3, v064
	.byte	W03
	.byte			Gn3, v068
	.byte	W03
	.byte			As3
	.byte	W03
	.byte			Ds4, v072
	.byte	W03
	.byte			Fn4, v076
	.byte	W03
	.byte			Gn4
	.byte	W03
	.byte			Fn4, v080
	.byte	W03
	.byte			Ds4
	.byte	W03
	.byte			Fn4, v084
	.byte	W03
	.byte			Gn4, v088
	.byte	W03
	.byte			As4
	.byte	W03
	.byte			Ds5, v092
	.byte	W03
	.byte			Fn5, v096
	.byte	W03
	.byte			Gn5
	.byte	W03
	.byte			As5, v100
	.byte	W03
song0034_7_5:
	.byte		N03	, Gs5, v092
	.byte	W03
	.byte			Ds5
	.byte	W03
	.byte			Bn4, v088
	.byte	W03
	.byte			As4
	.byte	W03
	.byte			Gs4
	.byte	W03
	.byte			Ds4, v084
	.byte	W03
	.byte			Bn4
	.byte	W03
	.byte			As4, v080
	.byte	W03
	.byte			Gs4
	.byte	W03
	.byte			Ds4
	.byte	W03
	.byte			Bn3, v076
	.byte	W03
	.byte			As3
	.byte	W03
	.byte			Gs4, v072
	.byte	W03
	.byte			Ds4
	.byte	W03
	.byte			Bn3
	.byte	W03
	.byte			As3, v068
	.byte	W03
	.byte			Gs3
	.byte	W03
	.byte			Ds3, v064
	.byte	W03
	.byte			Bn3
	.byte	W03
	.byte			As3
	.byte	W03
	.byte			Gs3, v060
	.byte	W03
	.byte			Ds3
	.byte	W03
	.byte			Bn2, v056
	.byte	W03
	.byte			As2
	.byte	W03
	.byte			Gs3
	.byte	W03
	.byte			Ds3, v052
	.byte	W03
	.byte			Bn2
	.byte	W03
	.byte			As2, v048
	.byte	W03
	.byte			Gs2
	.byte	W03
	.byte			Ds2
	.byte	W03
	.byte			Bn2, v044
	.byte	W03
	.byte			As2
	.byte	W03
	.byte			Gs2, v040
	.byte	W03
	.byte			Ds2
	.byte	W03
	.byte			Bn1
	.byte	W03
	.byte			As1, v036
	.byte	W03
	.byte			Gs1
	.byte	W96
	.byte	W96
	.byte	W84
	.byte		N68	, Gs3, v092
	.byte	W12
	.byte	W14
	.byte	MOD	, 1
	.byte	W07
	.byte		2
	.byte	W02
	.byte		3
	.byte	W09
	.byte		4
	.byte	W11
	.byte		5
	.byte	W11
	.byte		4
	.byte	W02
	.byte		3
	.byte	W01
	.byte		2
	.byte	W02
	.byte		1
	.byte	W01
	.byte		0
	.byte		N11	, Ds3, v084
	.byte	W12
	.byte			Gs3
	.byte	W12
	.byte		N66	, Gn3, v100
	.byte	W12
	.byte	W13
	.byte	MOD	, 1
	.byte	W08
	.byte		2
	.byte	W03
	.byte		3
	.byte	W04
	.byte		4
	.byte	W07
	.byte		5
	.byte	W07
	.byte		6
	.byte	W13
	.byte		5
	.byte	W02
	.byte		4
	.byte	W01
	.byte		2
	.byte	W01
	.byte		0
	.byte	W01
	.byte		N23	, Gn3, v116
	.byte	W24
	.byte		N68	, Gs3, v100
	.byte	W12
	.byte	W06
	.byte	MOD	, 1
	.byte	W06
	.byte		2
	.byte	W03
	.byte		3
	.byte	W04
	.byte		4
	.byte	W12
	.byte		5
	.byte	W04
	.byte		6
	.byte	W16
	.byte		4
	.byte	W01
	.byte		2
	.byte	W01
	.byte		0
	.byte	W07
	.byte		N11	, Gn3, v108
	.byte	W12
	.byte			Gs3
	.byte	W12
	.byte		N68	, An3
	.byte	W12
	.byte	W11
	.byte	MOD	, 1
	.byte	W02
	.byte		2
	.byte	W02
	.byte		3
	.byte	W08
	.byte		4
	.byte	W04
	.byte		5
	.byte	W10
	.byte		6
	.byte	W05
	.byte		7
	.byte	W08
	.byte		5
	.byte	W01
	.byte		3
	.byte	W01
	.byte		0
	.byte	W08
	.byte		N23	, An3, v124
	.byte	W24
	.byte		N66	, Gs3, v108
	.byte	W12
	.byte	W14
	.byte	MOD	, 1
	.byte	W03
	.byte		2
	.byte	W03
	.byte		3
	.byte	W02
	.byte		4
	.byte	W07
	.byte		5
	.byte	W07
	.byte		6
	.byte	W09
	.byte		7
	.byte	W12
	.byte		5
	.byte	W01
	.byte		3
	.byte	W01
	.byte		0
	.byte	W01
	.byte		N11	, Ds3, v096
	.byte	W12
	.byte			Gs3
	.byte	W12
	.byte		N64	, Gn3, v104
	.byte	W12
	.byte	W04
	.byte	MOD	, 1
	.byte	W03
	.byte		2
	.byte	W04
	.byte		3
	.byte	W05
	.byte		4
	.byte	W06
	.byte		5
	.byte	W08
	.byte		6
	.byte	W05
	.byte		7
	.byte	W16
	.byte		5
	.byte	W01
	.byte		0
	.byte	W08
	.byte		N23	
	.byte	W24
	.byte		TIE	, Gs3, v084
	.byte	W12
song0034_7_1:
	.byte	W08
	.byte	MOD	, 1
	.byte	W24
	.byte	W03
	.byte		2
	.byte	W06
	.byte		3
	.byte	W19
	.byte		4
	.byte	W14
	.byte		5
	.byte	W08
	.byte		6
	.byte	W14
	.byte	PEND
song0034_7_2:
	.byte	W01
	.byte	MOD	, 7
	.byte	W10
	.byte		8
	.byte	W32
	.byte	W02
	.byte		7
	.byte	W01
	.byte		6
	.byte	W02
	.byte		5
	.byte	W02
	.byte		4
	.byte	W03
	.byte		3
	.byte	W01
	.byte		2
	.byte	W03
	.byte		0
	.byte	W15
	.byte	PEND
	.byte		EOT	, Gs3
	.byte	W12
	.byte		N56	, Gs3, v112
	.byte	W12
	.byte	W22
	.byte	MOD	, 1
	.byte	W04
	.byte		2
	.byte	W02
	.byte		4
	.byte	W03
	.byte		5
	.byte	W14
	.byte		6
	.byte	W03
	.byte		N11	, Bn2, v084
	.byte	W03
	.byte	MOD	, 7
	.byte	W09
	.byte		8
	.byte		N11	, Ds3
	.byte	W07
	.byte	MOD	, 7
	.byte	W01
	.byte		5
	.byte	W01
	.byte		3
	.byte	W02
	.byte		0
	.byte	W01
	.byte		N11	, Gs3, v104
	.byte	W12
	.byte		N64	, Gn3, v108
	.byte	W12
	.byte	W14
	.byte	MOD	, 1
	.byte	W02
	.byte		3
	.byte	W01
	.byte		4
	.byte	W04
	.byte		5
	.byte	W03
	.byte		6
	.byte	W03
	.byte		7
	.byte	W08
	.byte		8
	.byte	W04
	.byte		9
	.byte	W04
	.byte		10
	.byte	W02
	.byte		11
	.byte	W05
	.byte		12
	.byte	W07
	.byte		9
	.byte	W01
	.byte		6
	.byte	W01
	.byte		3
	.byte	W01
	.byte		N23	, Gn3, v116
	.byte	W01
	.byte	MOD	, 0
	.byte	W23
	.byte		N68	, Gs3, v108
	.byte	W12
	.byte	W02
	.byte	MOD	, 1
	.byte	W02
	.byte		2
	.byte	W02
	.byte		3
	.byte	W02
	.byte		4
	.byte	W07
	.byte		6
	.byte	W04
	.byte		7
	.byte	W02
	.byte		8
	.byte	W04
	.byte		9
	.byte	W06
	.byte		10
	.byte	W02
	.byte		11
	.byte	W03
	.byte		12
	.byte	W09
	.byte		9
	.byte	W02
	.byte		7
	.byte	W01
	.byte		5
	.byte	W01
	.byte		2
	.byte	W01
	.byte		0
	.byte	W10
	.byte		N11	, Gn3, v104
	.byte	W12
	.byte			Gs3, v100
	.byte	W12
	.byte		N32	, Bn3, v112
	.byte	W12
	.byte	W06
	.byte	MOD	, 1
	.byte	W01
	.byte		2
	.byte	W02
	.byte		3
	.byte	W01
	.byte		4
	.byte	W03
	.byte		5
	.byte	W02
	.byte		7
	.byte	W03
	.byte		8
	.byte	W03
	.byte		9
	.byte	W03
	.byte		N32	, As3, v104
	.byte	W07
	.byte	MOD	, 6
	.byte	W01
	.byte		3
	.byte	W02
	.byte		0
	.byte	W24
	.byte	W02
	.byte		N23	, An3
	.byte	W24
	.byte		N56	, Gs3
	.byte	W12
	.byte	W10
	.byte	MOD	, 2
	.byte	W02
	.byte		3
	.byte	W01
	.byte		4
	.byte	W03
	.byte		5
	.byte	W05
	.byte		7
	.byte	W04
	.byte		8
	.byte	W05
	.byte		9
	.byte	W03
	.byte		10
	.byte	W04
	.byte		11
	.byte	W03
	.byte		12
	.byte	W08
	.byte		N11	, Bn2, v068
	.byte	W03
	.byte	MOD	, 10
	.byte	W02
	.byte		6
	.byte	W01
	.byte		3
	.byte	W01
	.byte		0
	.byte	W05
	.byte		N11	, Ds3, v080
	.byte	W12
	.byte			Gs3, v108
	.byte	W12
	.byte		N66	, Gn3, v100
	.byte	W12
	.byte	W03
	.byte	MOD	, 1
	.byte	W04
	.byte		2
	.byte	W03
	.byte		4
	.byte	W02
	.byte		5
	.byte	W03
	.byte		6
	.byte	W01
	.byte		7
	.byte	W05
	.byte		8
	.byte	W04
	.byte		9
	.byte	W04
	.byte		10
	.byte	W03
	.byte		11
	.byte	W15
	.byte		12
	.byte	W02
	.byte		9
	.byte	W02
	.byte		6
	.byte	W01
	.byte		3
	.byte	W01
	.byte		0
	.byte	W07
	.byte		N23	, Gn3, v112
	.byte	W24
	.byte		TIE	, Gs3, v096
	.byte	W12
song0034_7_3:
	.byte	W24
	.byte	W01
	.byte	MOD	, 1
	.byte	W04
	.byte		2
	.byte	W04
	.byte		3
	.byte	W09
	.byte		4
	.byte	W05
	.byte		5
	.byte	W08
	.byte		6
	.byte	W07
	.byte		7
	.byte	W14
	.byte		8
	.byte	W13
	.byte		9
	.byte	W07
	.byte	PEND
song0034_7_4:
	.byte	W54
	.byte	MOD	, 8
	.byte	W03
	.byte		7
	.byte	W01
	.byte		4
	.byte	W01
	.byte	PEND
	.byte		EOT	, Gs3
	.byte	MOD	, 0
	.byte	W24
	.byte	W01
	.byte		N68	, Bn3, v092
	.byte	W12
	.byte	W14
	.byte	MOD	, 1
	.byte	W07
	.byte		2
	.byte	W02
	.byte		3
	.byte	W09
	.byte		4
	.byte	W11
	.byte		5
	.byte	W11
	.byte		4
	.byte	W02
	.byte		3
	.byte	W01
	.byte		2
	.byte	W02
	.byte		1
	.byte	W01
	.byte		0
	.byte		N11	, Fs3, v084
	.byte	W12
	.byte			Bn3
	.byte	W12
	.byte		N66	, As3, v100
	.byte	W12
	.byte	W13
	.byte	MOD	, 1
	.byte	W08
	.byte		2
	.byte	W03
	.byte		3
	.byte	W04
	.byte		4
	.byte	W07
	.byte		5
	.byte	W07
	.byte		6
	.byte	W13
	.byte		5
	.byte	W02
	.byte		4
	.byte	W01
	.byte		2
	.byte	W01
	.byte		0
	.byte	W01
	.byte		N23	, As3, v116
	.byte	W24
	.byte		N68	, Bn3, v100
	.byte	W12
	.byte	W06
	.byte	MOD	, 1
	.byte	W06
	.byte		2
	.byte	W03
	.byte		3
	.byte	W04
	.byte		4
	.byte	W12
	.byte		5
	.byte	W04
	.byte		6
	.byte	W16
	.byte		4
	.byte	W01
	.byte		2
	.byte	W01
	.byte		0
	.byte	W07
	.byte		N11	, As3, v108
	.byte	W12
	.byte			Bn3
	.byte	W12
	.byte		N68	, Cn4
	.byte	W12
	.byte	W11
	.byte	MOD	, 1
	.byte	W02
	.byte		2
	.byte	W02
	.byte		3
	.byte	W08
	.byte		4
	.byte	W04
	.byte		5
	.byte	W10
	.byte		6
	.byte	W05
	.byte		7
	.byte	W08
	.byte		5
	.byte	W01
	.byte		3
	.byte	W01
	.byte		0
	.byte	W08
	.byte		N23	, Cn4, v124
	.byte	W24
	.byte		N66	, Bn3, v108
	.byte	W12
	.byte	W14
	.byte	MOD	, 1
	.byte	W03
	.byte		2
	.byte	W03
	.byte		3
	.byte	W02
	.byte		4
	.byte	W07
	.byte		5
	.byte	W07
	.byte		6
	.byte	W09
	.byte		7
	.byte	W12
	.byte		5
	.byte	W01
	.byte		3
	.byte	W01
	.byte		0
	.byte	W01
	.byte		N11	, Fs3, v096
	.byte	W12
	.byte			Bn3
	.byte	W12
	.byte		N64	, As3, v104
	.byte	W12
	.byte	W04
	.byte	MOD	, 1
	.byte	W03
	.byte		2
	.byte	W04
	.byte		3
	.byte	W05
	.byte		4
	.byte	W06
	.byte		5
	.byte	W08
	.byte		6
	.byte	W05
	.byte		7
	.byte	W16
	.byte		5
	.byte	W01
	.byte		0
	.byte	W08
	.byte		N23	
	.byte	W24
	.byte		TIE	, Bn3, v084
	.byte	W12
	.byte	PATT	
		.word	song0034_7_1
	.byte	PATT	
		.word	song0034_7_2
	.byte		EOT	, Bn3
	.byte	W12
	.byte		N56	, Bn3, v112
	.byte	W12
	.byte	W22
	.byte	MOD	, 1
	.byte	W04
	.byte		2
	.byte	W02
	.byte		4
	.byte	W03
	.byte		5
	.byte	W14
	.byte		6
	.byte	W03
	.byte		N11	, Dn3, v084
	.byte	W03
	.byte	MOD	, 7
	.byte	W09
	.byte		8
	.byte		N11	, Fs3
	.byte	W07
	.byte	MOD	, 7
	.byte	W01
	.byte		5
	.byte	W01
	.byte		3
	.byte	W02
	.byte		0
	.byte	W01
	.byte		N11	, Bn3, v104
	.byte	W12
	.byte		N64	, As3, v108
	.byte	W12
	.byte	W14
	.byte	MOD	, 1
	.byte	W02
	.byte		3
	.byte	W01
	.byte		4
	.byte	W04
	.byte		5
	.byte	W03
	.byte		6
	.byte	W03
	.byte		7
	.byte	W08
	.byte		8
	.byte	W04
	.byte		9
	.byte	W04
	.byte		10
	.byte	W02
	.byte		11
	.byte	W05
	.byte		12
	.byte	W07
	.byte		9
	.byte	W01
	.byte		6
	.byte	W01
	.byte		3
	.byte	W01
	.byte		N23	, As3, v116
	.byte	W01
	.byte	MOD	, 0
	.byte	W23
	.byte		N68	, Bn3, v108
	.byte	W12
	.byte	W02
	.byte	MOD	, 1
	.byte	W02
	.byte		2
	.byte	W02
	.byte		3
	.byte	W02
	.byte		4
	.byte	W07
	.byte		6
	.byte	W04
	.byte		7
	.byte	W02
	.byte		8
	.byte	W04
	.byte		9
	.byte	W06
	.byte		10
	.byte	W02
	.byte		11
	.byte	W03
	.byte		12
	.byte	W09
	.byte		9
	.byte	W02
	.byte		7
	.byte	W01
	.byte		5
	.byte	W01
	.byte		2
	.byte	W01
	.byte		0
	.byte	W10
	.byte		N11	, As3, v104
	.byte	W12
	.byte			Bn3, v100
	.byte	W12
	.byte		N32	, Dn4, v112
	.byte	W12
	.byte	W06
	.byte	MOD	, 1
	.byte	W01
	.byte		2
	.byte	W02
	.byte		3
	.byte	W01
	.byte		4
	.byte	W03
	.byte		5
	.byte	W02
	.byte		7
	.byte	W03
	.byte		8
	.byte	W03
	.byte		9
	.byte	W03
	.byte		N32	, Cs4, v104
	.byte	W07
	.byte	MOD	, 6
	.byte	W01
	.byte		3
	.byte	W02
	.byte		0
	.byte	W24
	.byte	W02
	.byte		N23	, Cn4
	.byte	W24
	.byte		N56	, Bn3
	.byte	W12
	.byte	W10
	.byte	MOD	, 2
	.byte	W02
	.byte		3
	.byte	W01
	.byte		4
	.byte	W03
	.byte		5
	.byte	W05
	.byte		7
	.byte	W04
	.byte		8
	.byte	W05
	.byte		9
	.byte	W03
	.byte		10
	.byte	W04
	.byte		11
	.byte	W03
	.byte		12
	.byte	W08
	.byte		N11	, Dn3, v068
	.byte	W03
	.byte	MOD	, 10
	.byte	W02
	.byte		6
	.byte	W01
	.byte		3
	.byte	W01
	.byte		0
	.byte	W05
	.byte		N11	, Fs3, v080
	.byte	W12
	.byte			Bn3, v108
	.byte	W12
	.byte		N66	, As3, v100
	.byte	W12
	.byte	W03
	.byte	MOD	, 1
	.byte	W04
	.byte		2
	.byte	W03
	.byte		4
	.byte	W02
	.byte		5
	.byte	W03
	.byte		6
	.byte	W01
	.byte		7
	.byte	W05
	.byte		8
	.byte	W04
	.byte		9
	.byte	W04
	.byte		10
	.byte	W03
	.byte		11
	.byte	W15
	.byte		12
	.byte	W02
	.byte		9
	.byte	W02
	.byte		6
	.byte	W01
	.byte		3
	.byte	W01
	.byte		0
	.byte	W07
	.byte		N23	, As3, v112
	.byte	W24
	.byte		TIE	, Bn3, v096
	.byte	W12
	.byte	PATT	
		.word	song0034_7_3
	.byte	PATT	
		.word	song0034_7_4
	.byte		EOT	, Bn3
	.byte	MOD	, 0
	.byte	W36
	.byte	W01
	.byte	W96
	.byte	W96
	.byte	W96
	.byte	W96
	.byte	W96
	.byte	W96
	.byte	W96
	.byte	W12
	.byte		N03	, Ds2, v040
	.byte	W03
	.byte			Fn2, v044
	.byte	W03
	.byte			Gn2, v048
	.byte	W03
	.byte			As2
	.byte	W03
	.byte			Ds3, v052
	.byte	W03
	.byte			Fn3
	.byte	W03
	.byte			Gn3, v056
	.byte	W03
	.byte			Fn3, v060
	.byte	W03
	.byte			Ds3
	.byte	W03
	.byte			Fn3, v064
	.byte	W03
	.byte			Gn3, v068
	.byte	W03
	.byte			As3
	.byte	W03
	.byte			Ds4, v072
	.byte	W03
	.byte			Fn4, v076
	.byte	W03
	.byte			Gn4
	.byte	W03
	.byte			Fn4, v080
	.byte	W03
	.byte			Ds4
	.byte	W03
	.byte			Fn4, v084
	.byte	W03
	.byte			Gn4, v088
	.byte	W03
	.byte			As4
	.byte	W03
	.byte			Ds5, v092
	.byte	W03
	.byte			Fn5, v096
	.byte	W03
	.byte			Gn5
	.byte	W03
	.byte			As5, v100
	.byte	W03
	.byte	GOTO	
		.word	song0034_7_5
	.byte	FINE

	@********************** Track  8 **********************@

	.global song0034_8
song0034_8:	@ 0x08C720D0
	.byte	KEYSH	, 0
	.byte	VOICE	, 63
	.byte	VOL	, v077
	.byte		N04	, As1, v096
	.byte	W04
	.byte			Ds2, v092
	.byte	W04
	.byte			Gs2, v096
	.byte	W04
	.byte		N24	, Gn2, v120
	.byte	W12
	.byte		N04	, As2, v084
	.byte	W04
	.byte			Ds3, v096
	.byte	W04
	.byte			Gs3, v092
	.byte	W04
	.byte		N48	, Gn3, v112
	.byte	W12
	.byte		N04	, As3, v104
	.byte	W04
	.byte			Ds4
	.byte	W04
	.byte			Gs4, v100
	.byte	W04
	.byte		N24	, Gn4, v124
	.byte	W24
song0034_8_1:
	.byte		N18	, Gs3, v112
	.byte		N18	, Gs4
	.byte	W12
	.byte	W96
	.byte	W96
	.byte	W96
	.byte	W96
	.byte	W96
	.byte	W96
	.byte	W96
	.byte	W96
	.byte	W96
	.byte	W96
	.byte	W96
	.byte	W96
	.byte	W96
	.byte	W96
	.byte	W96
	.byte	W96
	.byte	W96
	.byte	W96
	.byte	W96
	.byte	W96
	.byte	W96
	.byte	W96
	.byte	W96
	.byte	W96
	.byte	W96
	.byte	W96
	.byte	W96
	.byte	W96
	.byte	W96
	.byte	W96
	.byte	W96
	.byte	W96
	.byte	W96
	.byte	W96
	.byte	W96
	.byte	W96
	.byte	W96
	.byte	W96
	.byte	W96
	.byte	W96
	.byte	W96
	.byte	W96
	.byte	W96
	.byte		N04	, As1, v096
	.byte	W04
	.byte			Ds2, v092
	.byte	W04
	.byte			Gs2, v096
	.byte	W04
	.byte		N24	, Gn2, v120
	.byte	W12
	.byte		N04	, As2, v084
	.byte	W04
	.byte			Ds3, v096
	.byte	W04
	.byte			Gs3, v092
	.byte	W04
	.byte		N48	, Gn3, v112
	.byte	W12
	.byte		N04	, As3, v104
	.byte	W04
	.byte			Ds4
	.byte	W04
	.byte			Gs4, v100
	.byte	W04
	.byte		N24	, Gn4, v124
	.byte	W24
	.byte	GOTO	
		.word	song0034_8_1
	.byte	FINE

	@********************** Track  9 **********************@

	.global song0034_9
song0034_9:	@ 0x08C7215F
	.byte	KEYSH	, 0
	.byte	VOICE	, 64
	.byte	VOL	, v110
	.byte	W84
song0034_9_1:
	.byte	W12
	.byte	W96
	.byte	W96
	.byte	W96
	.byte	W96
	.byte	W96
	.byte	W96
	.byte	W96
	.byte	W96
	.byte	W96
	.byte	W96
	.byte	W96
	.byte	W96
	.byte	W96
	.byte	W96
	.byte	W96
	.byte	W96
	.byte	W96
	.byte	W96
	.byte	W96
	.byte	W96
	.byte	W96
	.byte	W96
	.byte	W96
	.byte	W96
	.byte	W96
	.byte	W96
	.byte	W96
	.byte	W72
	.byte		N04	, An3, v116
	.byte	W06
	.byte		N03	, An3, v127
	.byte	W12
	.byte		N04	, An3, v120
	.byte	W06
	.byte	W06
	.byte		N16	, An3, v124
	.byte	W18
	.byte		N05	, An3, v112
	.byte	W06
	.byte			An3, v127
	.byte	W42
	.byte		N03	, An3, v112
	.byte	W06
	.byte		N04	, An3, v127
	.byte	W18
	.byte	W48
	.byte		N03	, Gs3, v100
	.byte	W06
	.byte			Gs3, v124
	.byte	W12
	.byte		N13	, Gs3, v104
	.byte	W30
	.byte	W48
	.byte		N04	, An3, v108
	.byte	W06
	.byte			An3, v116
	.byte	W12
	.byte		N06	, An3, v120
	.byte	W30
	.byte	W24
	.byte		N05	, As3, v096
	.byte	W18
	.byte		N03	, As3, v124
	.byte	W18
	.byte		N22	, As3, v116
	.byte	W36
	.byte	W24
	.byte		N04	, An3
	.byte	W24
	.byte			An3, v120
	.byte	W06
	.byte			An3, v080
	.byte	W12
	.byte			An3, v120
	.byte	W30
	.byte	W24
	.byte		N03	, Gs3, v096
	.byte	W36
	.byte		N20	, Gs3, v116
	.byte	W36
	.byte	W24
	.byte		N04	, An3, v108
	.byte	W06
	.byte			An3, v124
	.byte	W12
	.byte			An3, v108
	.byte	W18
	.byte		N23	, An3, v116
	.byte	W24
	.byte		N68	, An3, v120
	.byte	W12
	.byte	W72
	.byte		N05	, An3, v116
	.byte	W06
	.byte			As3, v112
	.byte	W06
	.byte		N12	, Bn3, v124
	.byte	W12
	.byte	W24
	.byte		N13	, Bn3, v127
	.byte	W72
	.byte	W84
	.byte		N12	
	.byte	W12
	.byte	W24
	.byte		N15	
	.byte	W72
	.byte	W84
	.byte		N14	, Cn4
	.byte	W12
	.byte	W24
	.byte		N16	
	.byte	W72
	.byte	W84
	.byte		N12	
	.byte	W12
	.byte	W24
	.byte		N17	
	.byte	W72
	.byte	W12
	.byte		N68	, As2
	.byte	W72
	.byte	GOTO	
		.word	song0034_9_1
	.byte	FINE

	@********************** Track  10 **********************@

	.global song0034_10
song0034_10:	@ 0x08C7221F
	.byte	KEYSH	, 0
	.byte	VOICE	, 61
	.byte	VOL	, v110
	.byte	BENDR	, 12
	.byte	W84
song0034_10_9:
	.byte	W12
	.byte	W78
	.byte	VOL	, v000
	.byte	BEND	, c_v
	.byte	W02
	.byte	VOL	, v000
	.byte	W02
	.byte		v001
	.byte	W01
	.byte		v002
	.byte	W01
	.byte		v003
	.byte		TIE	, As1, v127
	.byte	W01
	.byte	VOL	, v004
	.byte	W01
	.byte		v005
	.byte	W01
	.byte		v006
	.byte	W01
	.byte		v006
	.byte	W01
	.byte		v007
	.byte	W02
	.byte		v008
	.byte	W01
	.byte		v009
	.byte	W01
	.byte		v010
	.byte	W01
	.byte		v011
	.byte	W01
	.byte		v012
	.byte	W01
	.byte		v012
	.byte	W01
	.byte		v013
	.byte	W01
	.byte		v014
	.byte	W02
	.byte		v015
	.byte	W01
	.byte		v016
	.byte	W01
	.byte		v017
	.byte	W01
	.byte		v018
	.byte	W01
	.byte		v019
	.byte	W01
	.byte		v019
	.byte	W01
	.byte		v020
	.byte	W01
	.byte		v021
	.byte	W02
	.byte		v022
	.byte	W01
	.byte		v023
	.byte	W01
	.byte		v024
	.byte	W01
	.byte		v025
	.byte	W01
	.byte		v025
	.byte	W01
	.byte		v026
	.byte	W01
	.byte		v027
	.byte	W01
	.byte		v028
	.byte	W02
	.byte		v029
	.byte	W01
	.byte		v030
	.byte	W01
	.byte		v031
	.byte	W01
	.byte		v032
	.byte	W01
	.byte		v032
	.byte	W01
	.byte		v033
	.byte	W01
	.byte		v034
	.byte	W01
	.byte		v035
	.byte	W02
	.byte		v036
	.byte	W01
	.byte		v037
	.byte	W01
	.byte		v038
	.byte	W01
	.byte		v038
	.byte	W01
	.byte		v039
	.byte	W01
	.byte		v040
	.byte	W01
	.byte		v041
	.byte	W01
	.byte		v042
	.byte	W02
	.byte		v043
	.byte	W01
	.byte		v044
	.byte	W01
	.byte		v045
	.byte	W01
	.byte		v045
	.byte	W01
	.byte		v046
	.byte	W01
	.byte		v047
	.byte	W01
	.byte		v048
	.byte	W01
	.byte		v049
	.byte	W02
	.byte		v050
	.byte	W01
	.byte		v051
	.byte	W01
	.byte		v051
	.byte	W01
	.byte		v052
	.byte	W01
	.byte		v053
	.byte	W01
	.byte		v054
	.byte	W01
	.byte		v055
	.byte	W01
	.byte		v056
	.byte	W02
	.byte		v057
	.byte	W01
	.byte		v058
	.byte	W01
	.byte		v058
	.byte	W01
	.byte		v059
	.byte	W01
	.byte		v060
	.byte	W01
	.byte		v061
	.byte	W01
	.byte		v062
	.byte	W01
	.byte		v063
	.byte	W02
	.byte		v064
	.byte	W01
	.byte		v064
	.byte	W01
	.byte		v065
	.byte	W01
	.byte		v066
	.byte	W01
	.byte		v067
	.byte	W01
	.byte		v068
	.byte	W01
	.byte		v069
	.byte	W01
	.byte		v070
	.byte	W02
	.byte		v071
	.byte	W01
	.byte		v071
	.byte	W01
	.byte		v072
	.byte	W01
	.byte		v073
	.byte	W01
	.byte		v074
	.byte	W01
	.byte		v075
	.byte	W01
	.byte		v076
	.byte	W01
	.byte		v077
	.byte	W02
	.byte		v077
	.byte	W01
	.byte		v078
	.byte	W01
	.byte		v079
	.byte	W08
	.byte		v078
	.byte	W01
	.byte	W03
	.byte		v077
	.byte	W04
	.byte		v077
	.byte	W05
	.byte		v076
	.byte	W04
	.byte		v075
	.byte	W04
	.byte		v074
	.byte	W04
	.byte		v073
	.byte	W05
	.byte		v072
	.byte	W04
	.byte		v071
	.byte	W04
	.byte		v071
	.byte	W04
	.byte		v070
	.byte	W04
	.byte		v069
	.byte	W05
	.byte		v068
	.byte	W04
	.byte		v067
	.byte	W04
	.byte		v066
	.byte	W04
	.byte		v065
	.byte	W05
	.byte		v064
	.byte	W04
	.byte		v064
	.byte	W04
	.byte		v063
	.byte	W04
	.byte		v061
	.byte	W03
	.byte		v060
	.byte	W01
	.byte		v059
	.byte	W02
	.byte		v058
	.byte	W01
	.byte		v058
	.byte	W01
	.byte		v057
	.byte	W01
	.byte		v056
	.byte	W02
	.byte		v055
	.byte	W01
	.byte		v054
	.byte	W01
	.byte		v053
	.byte	W02
	.byte		v052
	.byte	W01
	.byte		v051
	.byte	W01
	.byte		v051
	.byte	W02
	.byte		v050
	.byte	W01
	.byte		v049
	.byte	W01
	.byte		v048
	.byte	W01
	.byte		v047
	.byte	W02
	.byte		v046
	.byte	W01
	.byte		v045
	.byte	W01
	.byte		v045
	.byte	W02
	.byte		v044
	.byte	W01
	.byte		v043
	.byte	W01
	.byte		v042
	.byte	W02
	.byte		v041
	.byte	W01
	.byte		v040
	.byte	W01
	.byte		v039
	.byte	W01
	.byte		v038
	.byte	W02
	.byte		v038
	.byte	W01
	.byte		v037
	.byte	W01
	.byte		v036
	.byte	W02
	.byte		v035
	.byte	W01
	.byte		v034
	.byte	W01
	.byte		v033
	.byte	W02
	.byte		v032
	.byte	W01
	.byte		v032
	.byte	W01
	.byte		v031
	.byte	W01
	.byte		v030
	.byte	W02
	.byte		v029
	.byte	W01
	.byte		v028
	.byte	W01
	.byte		v027
	.byte	W02
	.byte		v026
	.byte	W01
	.byte		v025
	.byte	W01
	.byte		v025
	.byte	W02
	.byte		v024
	.byte	W01
	.byte		v023
	.byte	W01
	.byte		v022
	.byte	W01
	.byte		v021
	.byte	W02
	.byte		v020
	.byte	W01
	.byte		v019
	.byte	W01
	.byte		v019
	.byte	W02
	.byte		v018
	.byte	W01
	.byte		v017
	.byte	W01
	.byte		v016
	.byte	W02
	.byte		v015
	.byte	W01
	.byte		v014
	.byte	W01
	.byte		v013
	.byte	W01
	.byte		v012
	.byte	W02
	.byte		v012
	.byte	W01
	.byte		EOT	
	.byte	VOL	, v011
	.byte	W01
	.byte		v010
	.byte	W02
	.byte		v009
	.byte	W01
	.byte		v008
	.byte	W01
	.byte		v007
	.byte	W02
	.byte		v006
	.byte	W01
	.byte		v006
	.byte	W01
	.byte		v005
	.byte	W01
	.byte		v004
	.byte	W02
	.byte		v003
	.byte	W01
	.byte		v002
	.byte	W01
	.byte		v001
	.byte	W02
	.byte		v000
	.byte	W20
	.byte	W96
	.byte	W96
	.byte	W96
	.byte	W96
	.byte	W96
	.byte	W96
	.byte	W84
	.byte	BEND	, c_v-64
	.byte	W12
	.byte	W19
	.byte	VOL	, v000
	.byte	W17
	.byte		TIE	, As2, v112
	.byte	W04
	.byte	VOL	, v000
	.byte	W01
	.byte		v000
	.byte	W01
	.byte		v002
	.byte	W01
	.byte		v004
	.byte	W01
	.byte		v006
	.byte	W01
	.byte		v007
	.byte	W01
	.byte		v009
	.byte	W01
	.byte		v011
	.byte	W01
	.byte		v012
	.byte	W01
	.byte		v014
	.byte	W01
	.byte		v016
	.byte	W01
	.byte		v018
	.byte	W01
	.byte		v019
	.byte	W01
	.byte		v021
	.byte	W01
	.byte		v022
	.byte	W01
	.byte		v024
	.byte	W01
	.byte		v025
	.byte	W01
	.byte		v027
	.byte	W01
	.byte		v029
	.byte	W01
	.byte		v031
	.byte	W01
	.byte		v032
	.byte	W01
	.byte		v034
	.byte	W01
	.byte		v036
	.byte	W01
	.byte		v038
	.byte	W01
	.byte		v039
	.byte	W01
	.byte		v041
	.byte	W01
	.byte		v043
	.byte	W01
	.byte		v045
	.byte	W01
	.byte		v046
	.byte	W01
	.byte		v049
	.byte	W01
	.byte		v051
	.byte	W01
	.byte		v052
	.byte	W01
	.byte		v054
	.byte	W01
	.byte		v056
	.byte	W01
	.byte		v058
	.byte	BEND	, c_v-64
	.byte	W01
	.byte	VOL	, v059
	.byte	BEND	, c_v-59
	.byte	W01
	.byte	VOL	, v061
	.byte	W01
	.byte		v063
	.byte	BEND	, c_v-53
	.byte	W01
	.byte	VOL	, v065
	.byte	BEND	, c_v-47
	.byte	W01
	.byte	VOL	, v067
	.byte	W01
	.byte		v069
	.byte	BEND	, c_v-41
	.byte	W01
	.byte	VOL	, v071
	.byte	BEND	, c_v-35
	.byte	W01
	.byte	VOL	, v072
	.byte	W01
	.byte		v075
	.byte	BEND	, c_v-29
	.byte	W01
	.byte	VOL	, v077
	.byte	BEND	, c_v-24
	.byte	W01
	.byte	VOL	, v077
	.byte	W01
	.byte		v079
	.byte	BEND	, c_v-18
	.byte	W01
	.byte	VOL	, v082
	.byte	BEND	, c_v-12
	.byte	W01
	.byte	VOL	, v084
	.byte	W01
	.byte		v085
	.byte	BEND	, c_v-6
	.byte	W01
	.byte	VOL	, v087
	.byte	BEND	, c_v
	.byte	W01
	.byte	VOL	, v089
	.byte	W01
	.byte		v091
	.byte	W01
	.byte		v093
	.byte	W01
	.byte		v094
	.byte	W02
song0034_10_1:
	.byte	W23
	.byte	VOL	, v094
	.byte	W02
	.byte		v092
	.byte	W01
	.byte		v091
	.byte	W01
	.byte		v090
	.byte	W01
	.byte		v090
	.byte	W01
	.byte		v088
	.byte	W01
	.byte		v087
	.byte	W01
	.byte		v086
	.byte	W01
	.byte		v085
	.byte	W01
	.byte		v084
	.byte	W01
	.byte		v083
	.byte	W01
	.byte		v082
	.byte	W01
	.byte		v081
	.byte	W01
	.byte		v079
	.byte	W01
	.byte		v078
	.byte	W01
	.byte		v077
	.byte	W01
	.byte		v077
	.byte	W01
	.byte		v075
	.byte	W01
	.byte		v074
	.byte	W01
	.byte		v073
	.byte	W01
	.byte		v072
	.byte	W01
	.byte		v071
	.byte	W01
	.byte		v070
	.byte	W01
	.byte		v069
	.byte	W01
	.byte		v068
	.byte	W01
	.byte		v066
	.byte	W01
	.byte		v065
	.byte	W01
	.byte		v064
	.byte	W02
	.byte		v063
	.byte	W01
	.byte		v062
	.byte	W01
	.byte		v061
	.byte	W01
	.byte		v059
	.byte	W01
	.byte		v058
	.byte	W01
	.byte		v058
	.byte	W01
	.byte		v057
	.byte	W01
	.byte		v056
	.byte	W01
	.byte		v055
	.byte	W01
	.byte		v053
	.byte	W01
	.byte		v052
	.byte	W01
	.byte		v051
	.byte	W01
	.byte		v051
	.byte	W01
	.byte		v050
	.byte	W01
	.byte		v048
	.byte	W01
	.byte		v047
	.byte	W01
	.byte		v046
	.byte	W01
	.byte		v045
	.byte	W01
	.byte		v045
	.byte	W01
	.byte		v044
	.byte	W01
	.byte		v042
	.byte	W01
	.byte		v041
	.byte	W01
	.byte		v040
	.byte	W01
	.byte		v039
	.byte	W01
	.byte		v038
	.byte	W01
	.byte		v038
	.byte	W01
	.byte		v036
	.byte	W01
	.byte		v035
	.byte	W01
	.byte		v034
	.byte	W01
	.byte		v033
	.byte	W01
	.byte	PEND
	.byte		EOT	, As2
	.byte	VOL	, v032
	.byte	W01
	.byte		v031
	.byte		TIE	, An2, v112
	.byte	W01
	.byte	VOL	, v030
	.byte	W01
	.byte		v029
	.byte	W01
	.byte		v028
	.byte	W01
	.byte		v027
	.byte	W01
	.byte		v028
	.byte	W01
	.byte		v030
	.byte	W01
	.byte		v032
	.byte	W01
	.byte		v034
	.byte	W01
	.byte		v037
	.byte	W01
	.byte		v038
	.byte	W01
	.byte		v041
	.byte	W01
song0034_10_2:
	.byte	VOL	, v043
	.byte	W01
	.byte		v045
	.byte	W01
	.byte		v047
	.byte	W01
	.byte		v050
	.byte	W01
	.byte		v051
	.byte	W01
	.byte		v054
	.byte	W01
	.byte		v056
	.byte	W01
	.byte		v058
	.byte	W01
	.byte		v060
	.byte	W01
	.byte		v063
	.byte	W01
	.byte		v064
	.byte	W01
	.byte		v067
	.byte	W01
	.byte		v069
	.byte	W01
	.byte		v071
	.byte	W01
	.byte		v073
	.byte	W01
	.byte		v076
	.byte	W01
	.byte		v077
	.byte	W01
	.byte		v080
	.byte	W01
	.byte		v082
	.byte	W01
	.byte		v084
	.byte	W01
	.byte		v086
	.byte	W01
	.byte		v089
	.byte	W01
	.byte		v090
	.byte	W01
	.byte		v093
	.byte	W01
	.byte		v094
	.byte	W06
	.byte	BEND	, c_v
	.byte	W01
	.byte		c_v-4
	.byte	W01
	.byte		c_v-13
	.byte	W01
	.byte		c_v-18
	.byte	W01
	.byte		c_v-23
	.byte	W01
	.byte		c_v-32
	.byte	W01
	.byte		c_v-36
	.byte	W01
	.byte		c_v-41
	.byte	W01
	.byte		c_v-50
	.byte	W01
	.byte		c_v-55
	.byte	W01
	.byte		c_v-60
	.byte	W01
	.byte		c_v-64
	.byte	W36
	.byte	W03
	.byte		c_v-64
	.byte	W03
	.byte		c_v-62
	.byte	W03
	.byte		c_v-60
	.byte	W03
	.byte		c_v-58
	.byte	W07
	.byte	PEND
song0034_10_3:
	.byte	W01
	.byte	VOL	, v094
	.byte	W02
	.byte		v093
	.byte	W01
	.byte		v092
	.byte	W01
	.byte		v091
	.byte	W01
	.byte		v090
	.byte	W01
	.byte		v090
	.byte	W01
	.byte		v089
	.byte	W01
	.byte		v088
	.byte	W01
	.byte		v087
	.byte	W02
	.byte		v086
	.byte	W01
	.byte		v085
	.byte	W01
	.byte		v084
	.byte	W01
	.byte		v084
	.byte	W01
	.byte		v083
	.byte	W01
	.byte		v082
	.byte	W01
	.byte		v081
	.byte	W01
	.byte		v080
	.byte	W01
	.byte		v079
	.byte	W01
	.byte		v078
	.byte	W02
	.byte		v077
	.byte	W01
	.byte		v077
	.byte	W01
	.byte		v076
	.byte	W01
	.byte		v075
	.byte	W01
	.byte		v074
	.byte	W01
	.byte		v073
	.byte	W01
	.byte		v072
	.byte	W01
	.byte		v071
	.byte	W01
	.byte		v071
	.byte	W01
	.byte		v070
	.byte	W02
	.byte		v069
	.byte	W01
	.byte		v068
	.byte	W01
	.byte		v067
	.byte	W01
	.byte		v066
	.byte	W01
	.byte		v065
	.byte	W01
	.byte		v064
	.byte	W01
	.byte		v064
	.byte	W01
	.byte		v063
	.byte	W01
	.byte		v062
	.byte	W01
	.byte		v061
	.byte	W01
	.byte		v060
	.byte	W02
	.byte		v059
	.byte	W01
	.byte		v058
	.byte	W01
	.byte		v058
	.byte	W02
	.byte		v057
	.byte	W01
	.byte		v056
	.byte	W01
	.byte		v055
	.byte	W01
	.byte		v054
	.byte	W01
	.byte		v053
	.byte	W01
	.byte		v052
	.byte	W01
	.byte		v051
	.byte	W01
	.byte		v051
	.byte	W01
	.byte		v050
	.byte	W01
	.byte		v049
	.byte	W01
	.byte		v048
	.byte	W01
	.byte		v047
	.byte	W01
	.byte		v046
	.byte	W01
	.byte		v045
	.byte	W02
	.byte		v045
	.byte	W01
	.byte		v044
	.byte	W01
	.byte		v043
	.byte	W01
	.byte		v042
	.byte	W01
	.byte		v041
	.byte	W01
	.byte		v040
	.byte	W01
	.byte		v039
	.byte	W01
	.byte		v038
	.byte	W01
	.byte		v038
	.byte	W01
	.byte		v037
	.byte	W01
	.byte		v036
	.byte	W01
	.byte		v035
	.byte	W01
	.byte		v034
	.byte	W02
	.byte		v033
	.byte	W01
	.byte		v032
	.byte	W01
	.byte		v032
	.byte	W01
	.byte		v031
	.byte	W01
	.byte		v030
	.byte	BEND	, c_v-58
	.byte	W01
	.byte	PEND
	.byte		EOT	, An2
	.byte	VOL	, v029
	.byte	BEND	, c_v-61
	.byte		TIE	, Bn2, v112
	.byte	W01
	.byte	VOL	, v028
	.byte	BEND	, c_v-64
	.byte	W01
	.byte	VOL	, v027
	.byte	W01
	.byte		v026
	.byte	W01
	.byte		v028
	.byte	W01
	.byte		v030
	.byte	W01
	.byte		v032
	.byte	W01
	.byte		v033
	.byte	W01
	.byte		v035
	.byte	W01
	.byte		v037
	.byte	W01
	.byte		v038
	.byte	W01
	.byte		v040
	.byte	W01
song0034_10_4:
	.byte	VOL	, v042
	.byte	W01
	.byte		v044
	.byte	W01
	.byte		v045
	.byte	W01
	.byte		v047
	.byte	W01
	.byte		v049
	.byte	W01
	.byte		v051
	.byte	W01
	.byte		v052
	.byte	W01
	.byte		v054
	.byte	W01
	.byte		v056
	.byte	W01
	.byte		v058
	.byte	W01
	.byte		v059
	.byte	W01
	.byte		v061
	.byte	W01
	.byte		v063
	.byte	W01
	.byte		v064
	.byte	W01
	.byte		v066
	.byte	W01
	.byte		v068
	.byte	W01
	.byte		v070
	.byte	W01
	.byte		v071
	.byte	W01
	.byte		v073
	.byte	W01
	.byte		v075
	.byte	W01
	.byte		v077
	.byte	W01
	.byte		v078
	.byte	W01
	.byte		v080
	.byte	W01
	.byte		v082
	.byte	W01
	.byte		v084
	.byte	W01
	.byte		v085
	.byte	W01
	.byte		v087
	.byte	W01
	.byte		v089
	.byte	W01
	.byte		v090
	.byte	W01
	.byte		v092
	.byte	W01
	.byte		v094
	.byte	W01
	.byte	BEND	, c_v-60
	.byte	W01
	.byte		c_v-55
	.byte	W01
	.byte		c_v-50
	.byte	W01
	.byte	VOL	, v093
	.byte	BEND	, c_v-40
	.byte	W01
	.byte		c_v-36
	.byte	W01
	.byte	VOL	, v092
	.byte	BEND	, c_v-31
	.byte	W01
	.byte		c_v-21
	.byte	W01
	.byte		c_v-16
	.byte	W01
	.byte	VOL	, v091
	.byte	BEND	, c_v-12
	.byte	W01
	.byte		c_v-2
	.byte	W01
	.byte	VOL	, v090
	.byte	BEND	, c_v
	.byte	W02
	.byte	VOL	, v090
	.byte	W02
	.byte		v089
	.byte	W02
	.byte		v088
	.byte	W03
	.byte		v087
	.byte	W02
	.byte		v086
	.byte	W02
	.byte		v085
	.byte	W02
	.byte		v084
	.byte	W02
	.byte		v084
	.byte	W03
	.byte		v083
	.byte	W02
	.byte		v082
	.byte	W02
	.byte		v081
	.byte	W02
	.byte		v080
	.byte	W02
	.byte		v079
	.byte	W03
	.byte		v078
	.byte	W02
	.byte		v077
	.byte	W02
	.byte		v077
	.byte	W02
	.byte		v076
	.byte	W02
	.byte		v075
	.byte	W01
	.byte	BEND	, c_v
	.byte	W02
	.byte	VOL	, v074
	.byte	W01
	.byte	BEND	, c_v-2
	.byte	W01
	.byte	VOL	, v073
	.byte	W02
	.byte		v072
	.byte	BEND	, c_v-4
	.byte	W02
	.byte	VOL	, v071
	.byte	BEND	, c_v-6
	.byte	W02
	.byte	VOL	, v071
	.byte	W03
	.byte		v070
	.byte	W02
	.byte	PEND
song0034_10_5:
	.byte	VOL	, v069
	.byte	W02
	.byte		v068
	.byte	W02
	.byte		v067
	.byte	W02
	.byte		v066
	.byte	W03
	.byte		v065
	.byte	W02
	.byte		v064
	.byte	W02
	.byte		v064
	.byte	W02
	.byte		v062
	.byte	W04
	.byte		v061
	.byte	W01
	.byte		v060
	.byte	W02
	.byte		v059
	.byte	W02
	.byte		v058
	.byte	W01
	.byte		v058
	.byte	W02
	.byte		v057
	.byte	W02
	.byte		v056
	.byte	W01
	.byte		v055
	.byte	W02
	.byte		v054
	.byte	W02
	.byte		v053
	.byte	W01
	.byte		v052
	.byte	W02
	.byte		v051
	.byte	W02
	.byte		v051
	.byte	W01
	.byte		v050
	.byte	W02
	.byte		v049
	.byte	W02
	.byte		v048
	.byte	W01
	.byte		v047
	.byte	W02
	.byte		v046
	.byte	W02
	.byte		v045
	.byte	W02
	.byte		v045
	.byte	W01
	.byte		v044
	.byte	W02
	.byte		v043
	.byte	W02
	.byte		v042
	.byte	W01
	.byte		v041
	.byte	W02
	.byte		v040
	.byte	W02
	.byte		v039
	.byte	W01
	.byte		v038
	.byte	W02
	.byte		v038
	.byte	W02
	.byte		v037
	.byte	W01
	.byte		v036
	.byte	W02
	.byte		v035
	.byte	W02
	.byte		v034
	.byte	W01
	.byte		v033
	.byte	W02
	.byte		v032
	.byte	W02
	.byte		v032
	.byte	W01
	.byte		v031
	.byte	W02
	.byte		v030
	.byte	W02
	.byte		v029
	.byte	W01
	.byte		v028
	.byte	W01
	.byte	BEND	, c_v-6
	.byte	W01
	.byte	PEND
	.byte		EOT	, Bn2
	.byte	VOL	, v027
	.byte	BEND	, c_v
	.byte		TIE	, An2, v112
	.byte	W01
	.byte	VOL	, v026
	.byte	W01
	.byte		v027
	.byte	W01
	.byte		v028
	.byte	W01
	.byte		v029
	.byte	W01
	.byte		v031
	.byte	W01
	.byte		v032
	.byte	W01
	.byte		v033
	.byte	W01
	.byte		v034
	.byte	W01
	.byte		v035
	.byte	W01
	.byte		v037
	.byte	W01
	.byte		v038
	.byte	W01
song0034_10_6:
	.byte	VOL	, v038
	.byte	W01
	.byte		v040
	.byte	W01
	.byte		v041
	.byte	W01
	.byte		v043
	.byte	W01
	.byte		v044
	.byte	W01
	.byte		v045
	.byte	W01
	.byte		v046
	.byte	W01
	.byte		v047
	.byte	W01
	.byte		v048
	.byte	W01
	.byte		v050
	.byte	W01
	.byte		v051
	.byte	W01
	.byte		v052
	.byte	W01
	.byte		v053
	.byte	W01
	.byte		v054
	.byte	W01
	.byte		v056
	.byte	W01
	.byte		v057
	.byte	W01
	.byte		v058
	.byte	W01
	.byte		v059
	.byte	W01
	.byte		v060
	.byte	W01
	.byte		v062
	.byte	W01
	.byte		v063
	.byte	W01
	.byte		v064
	.byte	W01
	.byte		v065
	.byte	W01
	.byte		v066
	.byte	W01
	.byte		v068
	.byte	W01
	.byte		v069
	.byte	W01
	.byte		v070
	.byte	W01
	.byte		v071
	.byte	W01
	.byte		v072
	.byte	W01
	.byte		v073
	.byte	W01
	.byte		v075
	.byte	W01
	.byte		v076
	.byte	W01
	.byte		v077
	.byte	BEND	, c_v-7
	.byte	W01
	.byte	VOL	, v078
	.byte	BEND	, c_v-15
	.byte	W01
	.byte	VOL	, v079
	.byte	BEND	, c_v-22
	.byte	W01
	.byte	VOL	, v081
	.byte	BEND	, c_v-37
	.byte	W01
	.byte	VOL	, v082
	.byte	BEND	, c_v-45
	.byte	W01
	.byte	VOL	, v083
	.byte	BEND	, c_v-52
	.byte	W01
	.byte	VOL	, v084
	.byte	BEND	, c_v-64
	.byte	W01
	.byte	VOL	, v085
	.byte	W01
	.byte		v087
	.byte	W01
	.byte		v088
	.byte	W01
	.byte		v089
	.byte	W01
	.byte		v090
	.byte	W01
	.byte		v091
	.byte	W01
	.byte		v093
	.byte	W01
	.byte		v094
	.byte	W36
	.byte	BEND	, c_v-64
	.byte	W03
	.byte		c_v-63
	.byte	W03
	.byte		c_v-61
	.byte	W03
	.byte		c_v-58
	.byte	W05
	.byte	PEND
song0034_10_7:
	.byte	W24
	.byte	VOL	, v094
	.byte	W04
	.byte		v093
	.byte	W01
	.byte		v092
	.byte	W02
	.byte		v091
	.byte	W02
	.byte		v090
	.byte	W01
	.byte		v090
	.byte	W02
	.byte		v089
	.byte	W02
	.byte		v088
	.byte	W02
	.byte		v087
	.byte	W01
	.byte		v086
	.byte	W02
	.byte		v085
	.byte	W02
	.byte		v084
	.byte	W02
	.byte		v084
	.byte	W01
	.byte		v083
	.byte	W02
	.byte		v082
	.byte	W02
	.byte		v081
	.byte	W01
	.byte		v080
	.byte	W02
	.byte		v079
	.byte	W02
	.byte		v078
	.byte	W02
	.byte		v077
	.byte	W01
	.byte		v077
	.byte	W02
	.byte		v076
	.byte	W02
	.byte		v075
	.byte	W02
	.byte		v074
	.byte	W01
	.byte		v073
	.byte	W02
	.byte		v072
	.byte	W02
	.byte		v071
	.byte	W01
	.byte		v071
	.byte	W02
	.byte		v070
	.byte	W02
	.byte		v069
	.byte	W02
	.byte		v068
	.byte	W01
	.byte		v067
	.byte	W02
	.byte		v066
	.byte	W02
	.byte		v065
	.byte	W02
	.byte		v064
	.byte	W01
	.byte		v064
	.byte	W02
	.byte		v063
	.byte	W02
	.byte		v062
	.byte	W01
	.byte		v061
	.byte	W02
	.byte		v060
	.byte	W02
	.byte		v059
	.byte	W01
	.byte	PEND
song0034_10_8:
	.byte	W01
	.byte	VOL	, v058
	.byte	W01
	.byte		v058
	.byte	W02
	.byte		v057
	.byte	W02
	.byte		v056
	.byte	W01
	.byte		v055
	.byte	W02
	.byte		v054
	.byte	W02
	.byte		v053
	.byte	W02
	.byte		v052
	.byte	W01
	.byte		v051
	.byte	W02
	.byte		v051
	.byte	W02
	.byte		v050
	.byte	W02
	.byte		v049
	.byte	W01
	.byte		v048
	.byte	W01
	.byte		v047
	.byte	W01
	.byte		v046
	.byte	W01
	.byte		v045
	.byte	W01
	.byte		v045
	.byte	W01
	.byte		v044
	.byte	W01
	.byte		v043
	.byte	W01
	.byte		v041
	.byte	W01
	.byte		v040
	.byte	W01
	.byte		v039
	.byte	W01
	.byte		v038
	.byte	W01
	.byte		v037
	.byte	W01
	.byte		v036
	.byte	W01
	.byte		v035
	.byte	W01
	.byte		v034
	.byte	W01
	.byte		v033
	.byte	W01
	.byte		v032
	.byte	W01
	.byte		v031
	.byte	W01
	.byte		v030
	.byte	W01
	.byte		v029
	.byte	W01
	.byte		v028
	.byte	W01
	.byte		v026
	.byte	W01
	.byte		v025
	.byte	W01
	.byte		v025
	.byte	W01
	.byte		v024
	.byte	W01
	.byte		v022
	.byte	W01
	.byte		v021
	.byte	W01
	.byte		v020
	.byte	W01
	.byte		v019
	.byte	W01
	.byte		v019
	.byte	W01
	.byte		v017
	.byte	W01
	.byte		v016
	.byte	W01
	.byte		v015
	.byte	W01
	.byte		v014
	.byte	W01
	.byte		v013
	.byte	W01
	.byte		v012
	.byte	W01
	.byte		v011
	.byte	W01
	.byte		v010
	.byte	W01
	.byte		v009
	.byte	W02
	.byte		v007
	.byte	W01
	.byte		v006
	.byte	W01
	.byte		v006
	.byte	W01
	.byte		v005
	.byte	W01
	.byte		v003
	.byte	W01
	.byte		v002
	.byte	W01
	.byte		v001
	.byte	W01
	.byte		v000
	.byte	W16
	.byte	PEND
	.byte		EOT	, An2
	.byte	W12
	.byte	W96
	.byte	W96
	.byte	W96
	.byte	W96
	.byte	W96
	.byte	W96
	.byte	W84
	.byte	BEND	, c_v-64
	.byte	W12
	.byte	W19
	.byte	VOL	, v000
	.byte	W17
	.byte		TIE	, Cs3, v112
	.byte	W04
	.byte	VOL	, v000
	.byte	W01
	.byte		v000
	.byte	W01
	.byte		v002
	.byte	W01
	.byte		v004
	.byte	W01
	.byte		v006
	.byte	W01
	.byte		v007
	.byte	W01
	.byte		v009
	.byte	W01
	.byte		v011
	.byte	W01
	.byte		v012
	.byte	W01
	.byte		v014
	.byte	W01
	.byte		v016
	.byte	W01
	.byte		v018
	.byte	W01
	.byte		v019
	.byte	W01
	.byte		v021
	.byte	W01
	.byte		v022
	.byte	W01
	.byte		v024
	.byte	W01
	.byte		v025
	.byte	W01
	.byte		v027
	.byte	W01
	.byte		v029
	.byte	W01
	.byte		v031
	.byte	W01
	.byte		v032
	.byte	W01
	.byte		v034
	.byte	W01
	.byte		v036
	.byte	W01
	.byte		v038
	.byte	W01
	.byte		v039
	.byte	W01
	.byte		v041
	.byte	W01
	.byte		v043
	.byte	W01
	.byte		v045
	.byte	W01
	.byte		v046
	.byte	W01
	.byte		v049
	.byte	W01
	.byte		v051
	.byte	W01
	.byte		v052
	.byte	W01
	.byte		v054
	.byte	W01
	.byte		v056
	.byte	W01
	.byte		v058
	.byte	BEND	, c_v-64
	.byte	W01
	.byte	VOL	, v059
	.byte	BEND	, c_v-59
	.byte	W01
	.byte	VOL	, v061
	.byte	W01
	.byte		v063
	.byte	BEND	, c_v-53
	.byte	W01
	.byte	VOL	, v065
	.byte	BEND	, c_v-47
	.byte	W01
	.byte	VOL	, v067
	.byte	W01
	.byte		v069
	.byte	BEND	, c_v-41
	.byte	W01
	.byte	VOL	, v071
	.byte	BEND	, c_v-35
	.byte	W01
	.byte	VOL	, v072
	.byte	W01
	.byte		v075
	.byte	BEND	, c_v-29
	.byte	W01
	.byte	VOL	, v077
	.byte	BEND	, c_v-24
	.byte	W01
	.byte	VOL	, v077
	.byte	W01
	.byte		v079
	.byte	BEND	, c_v-18
	.byte	W01
	.byte	VOL	, v082
	.byte	BEND	, c_v-12
	.byte	W01
	.byte	VOL	, v084
	.byte	W01
	.byte		v085
	.byte	BEND	, c_v-6
	.byte	W01
	.byte	VOL	, v087
	.byte	BEND	, c_v
	.byte	W01
	.byte	VOL	, v089
	.byte	W01
	.byte		v091
	.byte	W01
	.byte		v093
	.byte	W01
	.byte		v094
	.byte	W02
	.byte	PATT	
		.word	song0034_10_1
	.byte		EOT	, Cs3
	.byte	VOL	, v032
	.byte	W01
	.byte		v031
	.byte		TIE	, Cn3, v112
	.byte	W01
	.byte	VOL	, v030
	.byte	W01
	.byte		v029
	.byte	W01
	.byte		v028
	.byte	W01
	.byte		v027
	.byte	W01
	.byte		v028
	.byte	W01
	.byte		v030
	.byte	W01
	.byte		v032
	.byte	W01
	.byte		v034
	.byte	W01
	.byte		v037
	.byte	W01
	.byte		v038
	.byte	W01
	.byte		v041
	.byte	W01
	.byte	PATT	
		.word	song0034_10_2
	.byte	PATT	
		.word	song0034_10_3
	.byte		EOT	, Cn3
	.byte	VOL	, v029
	.byte	BEND	, c_v-61
	.byte		TIE	, Dn3, v112
	.byte	W01
	.byte	VOL	, v028
	.byte	BEND	, c_v-64
	.byte	W01
	.byte	VOL	, v027
	.byte	W01
	.byte		v026
	.byte	W01
	.byte		v028
	.byte	W01
	.byte		v030
	.byte	W01
	.byte		v032
	.byte	W01
	.byte		v033
	.byte	W01
	.byte		v035
	.byte	W01
	.byte		v037
	.byte	W01
	.byte		v038
	.byte	W01
	.byte		v040
	.byte	W01
	.byte	PATT	
		.word	song0034_10_4
	.byte	PATT	
		.word	song0034_10_5
	.byte		EOT	, Dn3
	.byte	VOL	, v027
	.byte	BEND	, c_v
	.byte		TIE	, Cn3, v112
	.byte	W01
	.byte	VOL	, v026
	.byte	W01
	.byte		v027
	.byte	W01
	.byte		v028
	.byte	W01
	.byte		v029
	.byte	W01
	.byte		v031
	.byte	W01
	.byte		v032
	.byte	W01
	.byte		v033
	.byte	W01
	.byte		v034
	.byte	W01
	.byte		v035
	.byte	W01
	.byte		v037
	.byte	W01
	.byte		v038
	.byte	W01
	.byte	PATT	
		.word	song0034_10_6
	.byte	PATT	
		.word	song0034_10_7
	.byte	PATT	
		.word	song0034_10_8
	.byte		EOT	, Cn3
	.byte	W12
	.byte	W96
	.byte	W96
	.byte	W96
	.byte	W96
	.byte	W96
	.byte	W96
	.byte	W96
	.byte	W84
	.byte	GOTO	
		.word	song0034_10_9
	.byte	FINE

	@********************** Track  11 **********************@

	.global song0034_11
song0034_11:	@ 0x08C729AE
	.byte	KEYSH	, 0
	.byte	VOICE	, 13
	.byte	VOL	, v082
	.byte	PAN	, c_v
	.byte	W18
	.byte		N03	, Ds2, v004
	.byte	W03
	.byte			Fn2
	.byte	W03
	.byte			Gn2, v008
	.byte	W03
	.byte			As2, v012
	.byte	W03
	.byte			Ds3
	.byte	W03
	.byte			Fn3, v016
	.byte	W03
	.byte			Gn3, v020
	.byte	W03
	.byte			Fn3
	.byte	W03
	.byte			Ds3, v024
	.byte	W03
	.byte			Fn3
	.byte	W03
	.byte			Gn3, v028
	.byte	W03
	.byte			As3, v032
	.byte	W03
	.byte			Ds4
	.byte	W03
	.byte			Fn4, v036
	.byte	W03
	.byte			Gn4, v040
	.byte	W03
	.byte			Fn4
	.byte	W03
	.byte			Ds4, v044
	.byte	W03
	.byte			Fn4, v048
	.byte	W03
	.byte			Gn4
	.byte	W03
	.byte			As4, v052
	.byte	W03
	.byte			Ds5
	.byte	W03
	.byte			Fn5, v056
	.byte	W03
song0034_11_1:
	.byte		N03	, Gn5, v060
	.byte	W03
	.byte			As5
	.byte	W03
	.byte			Gs5, v056
	.byte	W03
	.byte			Ds5, v052
	.byte	W03
	.byte			Bn4
	.byte	W03
	.byte			As4
	.byte	W03
	.byte			Gs4, v048
	.byte	W03
	.byte			Ds4
	.byte	W03
	.byte			Bn4, v044
	.byte	W03
	.byte			As4
	.byte	W03
	.byte			Gs4
	.byte	W03
	.byte			Ds4, v040
	.byte	W03
	.byte			Bn3
	.byte	W03
	.byte			As3, v036
	.byte	W03
	.byte			Gs4
	.byte	W03
	.byte			Ds4
	.byte	W03
	.byte			Bn3, v032
	.byte	W03
	.byte			As3
	.byte	W03
	.byte			Gs3, v028
	.byte	W03
	.byte			Ds3
	.byte	W03
	.byte			Bn3, v024
	.byte	W03
	.byte			As3
	.byte	W03
	.byte			Gs3
	.byte	W03
	.byte			Ds3, v020
	.byte	W03
	.byte			Bn2
	.byte	W03
	.byte			As2, v016
	.byte	W03
	.byte			Gs3
	.byte	W03
	.byte			Ds3
	.byte	W03
	.byte			Bn2, v012
	.byte	W03
	.byte			As2
	.byte	W03
	.byte			Gs2, v008
	.byte	W03
	.byte			Ds2
	.byte	W03
	.byte			Bn2
	.byte	W03
	.byte			As2, v004
	.byte	W03
	.byte			Gs2
	.byte	W03
	.byte			Ds2
	.byte	W03
	.byte			Bn1
	.byte	W03
	.byte			As1
	.byte	W03
	.byte			Gs1
	.byte	W90
	.byte	W96
	.byte	W96
	.byte	W96
	.byte	W96
	.byte	W96
	.byte	W96
	.byte	W96
	.byte	W96
	.byte	W84
	.byte		N06	, Gs2, v036
	.byte	W06
	.byte			As2, v040
	.byte	W06
	.byte			Bn2
	.byte	W06
	.byte			Ds3, v044
	.byte	W06
	.byte			Gs3, v048
	.byte	W06
	.byte			As3
	.byte	W06
	.byte			Bn3, v052
	.byte	W06
	.byte			Ds4, v056
	.byte	W06
	.byte			Gs3
	.byte	W06
	.byte			As3, v060
	.byte	W06
	.byte			Bn3, v064
	.byte	W06
	.byte			Ds4
	.byte	W06
	.byte			Gs4, v068
	.byte	W06
	.byte			As4, v072
	.byte	W06
	.byte			Bn4
	.byte	W06
	.byte			Ds5, v076
	.byte	W06
	.byte			Gs5, v080
	.byte	W06
	.byte			Ds5, v076
	.byte	W06
	.byte			Bn4, v072
	.byte	W06
	.byte			As4
	.byte	W06
	.byte			Bn4, v068
	.byte	W06
	.byte			As4, v064
	.byte	W06
	.byte			Gs4
	.byte	W06
	.byte			Ds4, v060
	.byte	W06
	.byte			Gs4, v056
	.byte	W06
	.byte			Ds4, v052
	.byte	W06
	.byte			Bn3
	.byte	W06
	.byte			As3, v048
	.byte	W06
	.byte			Bn3, v044
	.byte	W06
	.byte			As3
	.byte	W06
	.byte			Gs3, v040
	.byte	W06
	.byte			Ds3, v036
	.byte	W06
	.byte			Gn2, v028
	.byte	W06
	.byte			An2, v032
	.byte	W06
	.byte			As2, v036
	.byte	W06
	.byte			Dn3
	.byte	W06
	.byte			Gn3, v040
	.byte	W06
	.byte			An3
	.byte	W06
	.byte			As3, v044
	.byte	W06
	.byte			Dn4, v048
	.byte	W06
	.byte			Gn3
	.byte	W06
	.byte			An3, v052
	.byte	W06
	.byte			As3, v056
	.byte	W06
	.byte			Dn4
	.byte	W06
	.byte			Gn4, v060
	.byte	W06
	.byte			An4, v064
	.byte	W06
	.byte			As4
	.byte	W06
	.byte			Dn5, v068
	.byte	W06
	.byte			Ds5, v064
	.byte	W06
	.byte			Bn4, v060
	.byte	W06
	.byte			As4
	.byte	W06
	.byte			Gs4, v056
	.byte	W06
	.byte			As4, v052
	.byte	W06
	.byte			Gs4
	.byte	W06
	.byte			Ds4, v048
	.byte	W06
	.byte			Bn3
	.byte	W06
	.byte			Ds4, v044
	.byte	W06
	.byte			Bn3
	.byte	W06
	.byte			As3, v040
	.byte	W06
	.byte			Gs3, v036
	.byte	W06
	.byte			As3
	.byte	W06
	.byte			Gs3, v032
	.byte	W06
	.byte			Ds3
	.byte	W06
	.byte			Bn2, v028
	.byte	W06
	.byte			An2, v024
	.byte	W06
	.byte			Bn2, v028
	.byte	W06
	.byte			Cn3, v032
	.byte	W06
	.byte			En3
	.byte	W06
	.byte			An3, v036
	.byte	W06
	.byte			Bn3
	.byte	W06
	.byte			Cn4, v040
	.byte	W06
	.byte			En4, v044
	.byte	W06
	.byte			An3
	.byte	W06
	.byte			Bn3, v048
	.byte	W06
	.byte			Cn4, v052
	.byte	W06
	.byte			En4
	.byte	W06
	.byte			An4, v056
	.byte	W06
	.byte			Bn4, v060
	.byte	W06
	.byte			Cn5
	.byte	W06
	.byte			En5, v064
	.byte	W06
	.byte			Ds5, v060
	.byte	W06
	.byte			Bn4, v056
	.byte	W06
	.byte			As4
	.byte	W06
	.byte			Gs4, v052
	.byte	W06
	.byte			As4
	.byte	W06
	.byte			Gs4, v048
	.byte	W06
	.byte			Ds4
	.byte	W06
	.byte			Bn3, v044
	.byte	W06
	.byte			Ds4
	.byte	W06
	.byte			Bn3, v040
	.byte	W06
	.byte			As3
	.byte	W06
	.byte			Gs3, v036
	.byte	W06
	.byte			As3
	.byte	W06
	.byte			Gs3, v032
	.byte	W06
	.byte			Ds3
	.byte	W06
	.byte			Bn2, v028
	.byte	W06
	.byte			Gn2, v024
	.byte	W06
	.byte			An2, v028
	.byte	W06
	.byte			As2
	.byte	W06
	.byte			Dn3, v032
	.byte	W06
	.byte			Gn3, v036
	.byte	W06
	.byte			An3
	.byte	W06
	.byte			As3, v040
	.byte	W06
	.byte			Dn4
	.byte	W06
	.byte			Gn3, v044
	.byte	W06
	.byte			An3
	.byte	W06
	.byte			As3, v048
	.byte	W06
	.byte			Dn4, v052
	.byte	W06
	.byte			Gn4
	.byte	W06
	.byte			An4, v056
	.byte	W06
	.byte			As4
	.byte	W06
	.byte			Dn5, v060
	.byte	W06
	.byte			Gs5, v056
	.byte	W06
	.byte			Ds5, v052
	.byte	W06
	.byte			Bn4
	.byte	W06
	.byte			Gs4, v048
	.byte	W06
	.byte			Ds5
	.byte	W06
	.byte			Bn4, v044
	.byte	W06
	.byte			Gs4
	.byte	W06
	.byte			Ds4
	.byte	W06
	.byte			Bn4, v040
	.byte	W06
	.byte			Gs4
	.byte	W06
	.byte			Ds4, v036
	.byte	W06
	.byte			Bn3
	.byte	W06
	.byte			Gs4, v032
	.byte	W06
	.byte			Ds4
	.byte	W06
	.byte			Bn3, v028
	.byte	W06
	.byte			Gs3
	.byte	W06
	.byte			Ds4, v020
	.byte	W06
	.byte			Bn3, v024
	.byte	W06
	.byte			Gs3
	.byte	W06
	.byte			Ds3, v028
	.byte	W06
	.byte			Bn3
	.byte	W06
	.byte			Gs3
	.byte	W06
	.byte			Ds3, v032
	.byte	W06
	.byte			Bn2
	.byte	W06
	.byte			Gs3, v036
	.byte	W06
	.byte			Ds3
	.byte	W06
	.byte			Bn2
	.byte	W06
	.byte			Gs2, v040
	.byte	W06
	.byte		N03	, Ds3, v032
	.byte	W03
	.byte			En3, v040
	.byte	W03
	.byte			Fn3, v048
	.byte	W03
	.byte			Fs3, v056
	.byte	W03
	.byte			Gn3, v068
	.byte	W03
	.byte			Gs3, v076
	.byte	W03
	.byte			An3, v084
	.byte	W03
	.byte			As3, v092
	.byte	W03
	.byte			Bn3, v100
	.byte	W12
	.byte	W96
	.byte	W96
	.byte	W96
	.byte	W96
	.byte	W96
	.byte	W96
	.byte	W84
	.byte		N06	, Bn2, v036
	.byte	W06
	.byte			Cs3, v040
	.byte	W06
	.byte			Dn3
	.byte	W06
	.byte			Fs3, v044
	.byte	W06
	.byte			Bn3, v048
	.byte	W06
	.byte			Cs4
	.byte	W06
	.byte			Dn4, v052
	.byte	W06
	.byte			Fs4, v056
	.byte	W06
	.byte			Bn3
	.byte	W06
	.byte			Cs4, v060
	.byte	W06
	.byte			Dn4, v064
	.byte	W06
	.byte			Fs4
	.byte	W06
	.byte			Bn4, v068
	.byte	W06
	.byte			Cs5, v072
	.byte	W06
	.byte			Dn5
	.byte	W06
	.byte			Fs5, v076
	.byte	W06
	.byte			Bn5, v080
	.byte	W06
	.byte			Fs5, v076
	.byte	W06
	.byte			Dn5, v072
	.byte	W06
	.byte			Cs5
	.byte	W06
	.byte			Dn5, v068
	.byte	W06
	.byte			Cs5, v064
	.byte	W06
	.byte			Bn4
	.byte	W06
	.byte			Fs4, v060
	.byte	W06
	.byte			Bn4, v056
	.byte	W06
	.byte			Fs4, v052
	.byte	W06
	.byte			Dn4
	.byte	W06
	.byte			Cs4, v048
	.byte	W06
	.byte			Dn4, v044
	.byte	W06
	.byte			Cs4
	.byte	W06
	.byte			Bn3, v040
	.byte	W06
	.byte			Fs3, v036
	.byte	W06
	.byte			As2, v028
	.byte	W06
	.byte			Cn3, v032
	.byte	W06
	.byte			Cs3, v036
	.byte	W06
	.byte			Fn3
	.byte	W06
	.byte			As3, v040
	.byte	W06
	.byte			Cn4
	.byte	W06
	.byte			Cs4, v044
	.byte	W06
	.byte			Fn4, v048
	.byte	W06
	.byte			As3
	.byte	W06
	.byte			Cn4, v052
	.byte	W06
	.byte			Cs4, v056
	.byte	W06
	.byte			Fn4
	.byte	W06
	.byte			As4, v060
	.byte	W06
	.byte			Cn5, v064
	.byte	W06
	.byte			Cs5
	.byte	W06
	.byte			Fn5, v068
	.byte	W06
	.byte			Fs5, v064
	.byte	W06
	.byte			Dn5, v060
	.byte	W06
	.byte			Cs5
	.byte	W06
	.byte			Bn4, v056
	.byte	W06
	.byte			Cs5, v052
	.byte	W06
	.byte			Bn4
	.byte	W06
	.byte			Fs4, v048
	.byte	W06
	.byte			Dn4
	.byte	W06
	.byte			Fs4, v044
	.byte	W06
	.byte			Dn4
	.byte	W06
	.byte			Cs4, v040
	.byte	W06
	.byte			Bn3, v036
	.byte	W06
	.byte			Cs4
	.byte	W06
	.byte			Bn3, v032
	.byte	W06
	.byte			Fs3
	.byte	W06
	.byte			Dn3, v028
	.byte	W06
	.byte			Cn3, v024
	.byte	W06
	.byte			Dn3, v028
	.byte	W06
	.byte			Ds3, v032
	.byte	W06
	.byte			Gn3
	.byte	W06
	.byte			Cn4, v036
	.byte	W06
	.byte			Dn4
	.byte	W06
	.byte			Ds4, v040
	.byte	W06
	.byte			Gn4, v044
	.byte	W06
	.byte			Cn4
	.byte	W06
	.byte			Dn4, v048
	.byte	W06
	.byte			Ds4, v052
	.byte	W06
	.byte			Gn4
	.byte	W06
	.byte			Cn5, v056
	.byte	W06
	.byte			Dn5, v060
	.byte	W06
	.byte			Ds5
	.byte	W06
	.byte			Gn5, v064
	.byte	W06
	.byte			Fs5, v060
	.byte	W06
	.byte			Dn5, v056
	.byte	W06
	.byte			Cs5
	.byte	W06
	.byte			Bn4, v052
	.byte	W06
	.byte			Cs5
	.byte	W06
	.byte			Bn4, v048
	.byte	W06
	.byte			Fs4
	.byte	W06
	.byte			Dn4, v044
	.byte	W06
	.byte			Fs4
	.byte	W06
	.byte			Dn4, v040
	.byte	W06
	.byte			Cs4
	.byte	W06
	.byte			Bn3, v036
	.byte	W06
	.byte			Cs4
	.byte	W06
	.byte			Bn3, v032
	.byte	W06
	.byte			Fs3
	.byte	W06
	.byte			Dn3, v028
	.byte	W06
	.byte			As2, v024
	.byte	W06
	.byte			Cn3, v028
	.byte	W06
	.byte			Cs3
	.byte	W06
	.byte			Fn3, v032
	.byte	W06
	.byte			As3, v036
	.byte	W06
	.byte			Cn4
	.byte	W06
	.byte			Cs4, v040
	.byte	W06
	.byte			Fn4
	.byte	W06
	.byte			As3, v044
	.byte	W06
	.byte			Cn4
	.byte	W06
	.byte			Cs4, v048
	.byte	W06
	.byte			Fn4, v052
	.byte	W06
	.byte			As4
	.byte	W06
	.byte			Cn5, v056
	.byte	W06
	.byte			Cs5
	.byte	W06
	.byte			Fn5, v060
	.byte	W06
	.byte			Bn5, v056
	.byte	W06
	.byte			Fs5, v052
	.byte	W06
	.byte			Dn5
	.byte	W06
	.byte			Bn4, v048
	.byte	W06
	.byte			Fs5
	.byte	W06
	.byte			Dn5, v044
	.byte	W06
	.byte			Bn4
	.byte	W06
	.byte			Fs4
	.byte	W06
	.byte			Dn5, v040
	.byte	W06
	.byte			Bn4
	.byte	W06
	.byte			Fs4, v036
	.byte	W06
	.byte			Dn4
	.byte	W06
	.byte			Bn4, v032
	.byte	W06
	.byte			Fs4
	.byte	W06
	.byte			Dn4, v028
	.byte	W06
	.byte			Bn3
	.byte	W06
	.byte			Fs4, v020
	.byte	W06
	.byte			Dn4, v024
	.byte	W06
	.byte			Bn3
	.byte	W06
	.byte			Fs3, v028
	.byte	W06
	.byte			Dn4
	.byte	W06
	.byte			Bn3
	.byte	W06
	.byte			Fs3, v032
	.byte	W06
	.byte			Dn3
	.byte	W06
	.byte			Bn3, v036
	.byte	W06
	.byte			Fs3
	.byte	W06
	.byte			Dn3
	.byte	W06
	.byte			Bn2, v040
	.byte	W06
	.byte		N03	, Fs3, v032
	.byte	W03
	.byte			Gn3, v040
	.byte	W03
	.byte			Gs3, v048
	.byte	W03
	.byte			An3, v056
	.byte	W03
	.byte			As3, v068
	.byte	W03
	.byte			Bn3, v076
	.byte	W03
	.byte			Cn4, v084
	.byte	W03
	.byte			Cs4, v092
	.byte	W03
	.byte			Dn4, v100
	.byte	W12
	.byte	W96
	.byte	W96
	.byte	W96
	.byte	W96
	.byte	W96
	.byte	W96
	.byte	W96
	.byte	W18
	.byte			Ds2, v004
	.byte	W03
	.byte			Fn2
	.byte	W03
	.byte			Gn2, v008
	.byte	W03
	.byte			As2, v012
	.byte	W03
	.byte			Ds3
	.byte	W03
	.byte			Fn3, v016
	.byte	W03
	.byte			Gn3, v020
	.byte	W03
	.byte			Fn3
	.byte	W03
	.byte			Ds3, v024
	.byte	W03
	.byte			Fn3
	.byte	W03
	.byte			Gn3, v028
	.byte	W03
	.byte			As3, v032
	.byte	W03
	.byte			Ds4
	.byte	W03
	.byte			Fn4, v036
	.byte	W03
	.byte			Gn4, v040
	.byte	W03
	.byte			Fn4
	.byte	W03
	.byte			Ds4, v044
	.byte	W03
	.byte			Fn4, v048
	.byte	W03
	.byte			Gn4
	.byte	W03
	.byte			As4, v052
	.byte	W03
	.byte			Ds5
	.byte	W03
	.byte			Fn5, v056
	.byte	W03
	.byte	GOTO	
		.word	song0034_11_1
	.byte	FINE

	@********************** Track  12 **********************@

	.global song0034_12
song0034_12:	@ 0x08C72DC2
	.byte	KEYSH	, 0
	.byte	VOICE	, 96
	.byte	VOL	, v110
	.byte	W84
song0034_12_1:
	.byte	W12
	.byte		N07	, Bn2, v108
	.byte	W24
	.byte		N54	, Bn2, v088
	.byte	W72
	.byte		N13	, Bn2, v100
	.byte	W24
	.byte		N30	, Bn2, v076
	.byte	W36
	.byte		N06	, Bn2, v072
	.byte	W12
	.byte		N05	, Bn2, v044
	.byte	W24
	.byte		N08	, Bn2, v108
	.byte	W24
	.byte		N54	, Bn2, v080
	.byte	W72
	.byte		N08	, Bn2, v116
	.byte	W24
	.byte		N32	, Bn2, v084
	.byte	W36
	.byte		N05	, Bn2, v076
	.byte	W12
	.byte			Bn2, v044
	.byte	W24
	.byte		N08	, Bn2, v120
	.byte	W24
	.byte		N48	, Bn2, v088
	.byte	W72
	.byte		N10	, As2, v104
	.byte	W24
	.byte		N30	
	.byte	W36
	.byte		N04	, As2, v064
	.byte	W12
	.byte		N07	
	.byte	W24
	.byte		N08	, Bn2, v112
	.byte	W24
	.byte		N44	, Bn2, v108
	.byte	W72
	.byte		N11	, Cn3, v104
	.byte	W24
	.byte		N30	, Cn3, v096
	.byte	W36
	.byte		N07	, Cn3, v084
	.byte	W12
	.byte		N09	, Cn3, v080
	.byte	W24
	.byte		N07	, Bn2, v108
	.byte	W24
	.byte		N52	, Bn2, v104
	.byte	W72
	.byte		N09	, As2, v112
	.byte	W24
	.byte		N30	, As2, v100
	.byte	W36
	.byte		N08	, As2, v060
	.byte	W12
	.byte		N07	, As2, v052
	.byte	W24
	.byte		N08	, Bn2, v104
	.byte	W24
	.byte		N54	, Bn2, v096
	.byte	W72
	.byte		N08	
	.byte	W24
	.byte		N32	, Bn2, v108
	.byte	W36
	.byte		N07	, Bn2, v096
	.byte	W36
	.byte			Bn2, v108
	.byte	W24
	.byte		N56	, Bn2, v088
	.byte	W72
	.byte		N11	, As2, v112
	.byte	W24
	.byte		N30	
	.byte	W36
	.byte		N07	, As2, v076
	.byte	W12
	.byte			As2, v088
	.byte	W24
	.byte		N06	, Bn2, v108
	.byte	W24
	.byte		N56	, Bn2, v116
	.byte	W72
	.byte		N07	, Cn3, v127
	.byte	W24
	.byte		N32	, Cn3, v104
	.byte	W36
	.byte		N07	, Cn3, v096
	.byte	W12
	.byte			Cn3, v076
	.byte	W24
	.byte			Bn2, v100
	.byte	W24
	.byte		N56	, Bn2, v108
	.byte	W72
	.byte		N07	, As2, v096
	.byte	W24
	.byte		N30	
	.byte	W36
	.byte		N08	, As2, v084
	.byte	W12
	.byte		N06	, As2, v072
	.byte	W24
	.byte		N07	, Bn2, v104
	.byte	W24
	.byte		N56	, Bn2, v100
	.byte	W72
	.byte		N07	, Bn2, v112
	.byte	W24
	.byte		N21	, Bn2, v100
	.byte	W24
	.byte		N12	, Bn2, v104
	.byte	W12
	.byte		N11	, Cn3, v100
	.byte	W12
	.byte		N09	, Cs3, v104
	.byte	W12
	.byte		N07	, Dn3, v124
	.byte	W12
	.byte	W24
	.byte		N52	, Dn3, v120
	.byte	W72
	.byte		N06	, Cs3, v100
	.byte	W24
	.byte		N30	, Cs3, v116
	.byte	W36
	.byte		N06	, Cs3, v096
	.byte	W12
	.byte			Cs3, v084
	.byte	W24
	.byte			Dn3, v104
	.byte	W24
	.byte		N44	, Dn3, v116
	.byte	W72
	.byte		N07	, Ds3, v112
	.byte	W24
	.byte		N28	
	.byte	W36
	.byte		N07	, Ds3, v092
	.byte	W12
	.byte			Ds3, v096
	.byte	W24
	.byte			Dn3, v108
	.byte	W24
	.byte		N56	, Dn3, v112
	.byte	W72
	.byte		N06	, Cs3, v104
	.byte	W24
	.byte		N24	, Cs3, v108
	.byte	W36
	.byte		N07	, Cs3, v080
	.byte	W12
	.byte			Cs3, v084
	.byte	W24
	.byte		N09	, Dn3, v112
	.byte	W24
	.byte		N56	, Dn3, v116
	.byte	W72
	.byte		N08	, Dn3, v088
	.byte	W24
	.byte		N30	, Dn3, v104
	.byte	W36
	.byte		N09	, Dn3, v080
	.byte	W36
	.byte		N10	, Dn3, v100
	.byte	W24
	.byte		N52	, Dn3, v112
	.byte	W72
	.byte		N07	, Cs3, v108
	.byte	W24
	.byte		N30	, Cs3, v104
	.byte	W36
	.byte		N07	, Cs3, v088
	.byte	W12
	.byte		N06	, Cs3, v084
	.byte	W24
	.byte			Dn3, v112
	.byte	W24
	.byte		N44	, Dn3, v104
	.byte	W72
	.byte		N08	, Ds3, v112
	.byte	W24
	.byte		N28	, Ds3, v104
	.byte	W36
	.byte		N08	, Ds3, v096
	.byte	W12
	.byte		N08	
	.byte	W24
	.byte		N07	, Dn3, v112
	.byte	W24
	.byte		N54	, Dn3, v100
	.byte	W72
	.byte		N07	, Cs3, v104
	.byte	W24
	.byte		N28	, Cs3, v108
	.byte	W36
	.byte		N07	, Cs3, v084
	.byte	W12
	.byte		N10	
	.byte	W24
	.byte		N07	, Dn3, v112
	.byte	W24
	.byte		N56	
	.byte	W72
	.byte		N09	, Dn3, v108
	.byte	W24
	.byte		N30	, Dn3, v120
	.byte	W36
	.byte		N07	, Dn3, v100
	.byte	W12
	.byte		N06	, Dn3, v096
	.byte	W12
	.byte		N12	, En3, v127
	.byte	W12
	.byte	W24
	.byte		N19	
	.byte	W72
	.byte	W84
	.byte		N15	
	.byte	W12
	.byte	W24
	.byte		N16	
	.byte	W72
	.byte	W84
	.byte		N14	, Fn3, v124
	.byte	W12
	.byte	W24
	.byte		N16	, Fn3, v127
	.byte	W72
	.byte	W84
	.byte		N15	
	.byte	W12
	.byte	W24
	.byte		N14	, Fn3, v124
	.byte	W72
	.byte	W12
	.byte		N72	, Ds3, v127
	.byte	W72
	.byte	GOTO	
		.word	song0034_12_1
	.byte	W01
	.byte	FINE

	@********************** Track  13 **********************@

	.global song0034_13
song0034_13:	@ 0x08C72F85
	.byte	KEYSH	, 0
	.byte	VOICE	, 65
	.byte	VOL	, v077
	.byte	W84
song0034_13_1:
	.byte	W12
	.byte	W96
	.byte	W96
	.byte	W96
	.byte	W96
	.byte	W96
	.byte	W96
	.byte	W96
	.byte	W96
	.byte	W96
	.byte	W96
	.byte	W96
	.byte	W36
	.byte		N44	, Ds3, v127
	.byte	W48
	.byte		N92	, Ds4
	.byte	W12
	.byte	W84
	.byte		N44	, Dn4
	.byte	W12
	.byte	W36
	.byte			Dn3
	.byte	W48
	.byte		N92	, Ds3
	.byte	W12
	.byte	W84
	.byte		N44	, En3
	.byte	W12
	.byte	W36
	.byte			En4
	.byte	W48
	.byte		N92	, Ds4
	.byte	W12
	.byte	W84
	.byte		N44	, Dn3
	.byte	W12
	.byte	W36
	.byte			Dn4
	.byte	W48
	.byte		N92	, Ds3
	.byte	W12
	.byte	W84
	.byte		N44	, Ds4
	.byte	W12
	.byte	W36
	.byte			Ds3
	.byte	W48
	.byte		N92	, Fs3
	.byte	W12
	.byte	W96
	.byte	W96
	.byte	W96
	.byte	W96
	.byte	W96
	.byte	W96
	.byte	W96
	.byte	W36
	.byte		N44	
	.byte	W48
	.byte		N92	, Fs4
	.byte	W12
	.byte	W84
	.byte		N44	, Fn4
	.byte	W12
	.byte	W36
	.byte			Fn3
	.byte	W48
	.byte		N92	, Fs3
	.byte	W12
	.byte	W84
	.byte		N44	, Gn3
	.byte	W12
	.byte	W36
	.byte			Gn4
	.byte	W48
	.byte		N92	, Fs4
	.byte	W12
	.byte	W84
	.byte		N44	, Fn3
	.byte	W12
	.byte	W36
	.byte			Fn4
	.byte	W48
	.byte		N92	, Fs3
	.byte	W12
	.byte	W84
	.byte		N44	, Fs4
	.byte	W12
	.byte	W36
	.byte			Fs3
	.byte	W60
	.byte	W96
	.byte	W96
	.byte	W96
	.byte	W96
	.byte	W96
	.byte	W96
	.byte	W96
	.byte	W84
	.byte	GOTO	
		.word	song0034_13_1
	.byte	FINE

	.align 2
	.global song0034
song0034:	@ 0x08C73008
	.byte	13		@ trackCount
	.byte	0		@ blockCount
	.byte	0		@ priority
	.byte	128		@ reverb

	.word	voicegroup014		@ voicegroup/tone

	.word	song0034_1		@ track
	.word	song0034_2		@ track
	.word	song0034_3		@ track
	.word	song0034_4		@ track
	.word	song0034_5		@ track
	.word	song0034_6		@ track
	.word	song0034_7		@ track
	.word	song0034_8		@ track
	.word	song0034_9		@ track
	.word	song0034_10		@ track
	.word	song0034_11		@ track
	.word	song0034_12		@ track
	.word	song0034_13		@ track
