	.include "sound/MPlayDef.s"

	.section .rodata

	@********************** Track  1 **********************@

	.align 2
	.global song002_1
song002_1:	@ 0x0201ADC0
	.byte	KEYSH	, 0
	.byte	TEMPO	, 77
	.byte	VOICE	, 127
	.byte	VOL	, v105
	.byte	W48
	.byte		N06	, Ds2, v127
	.byte	W06
	.byte			En2
	.byte	W06
	.byte		N03	
	.byte	W03
	.byte		N03	
	.byte	W03
	.byte		N06	, Ds2
	.byte	W06
	.byte			En2
	.byte	W06
	.byte			Ds2
	.byte	W06
	.byte			En2
	.byte	W06
	.byte		N06	
	.byte	W06
song002_1_1:
	.byte		N06	, Dn1, v048
	.byte		N24	, Ds2, v127
	.byte	W06
	.byte		N06	, Ds1, v044
	.byte	W06
	.byte		N12	, En1
	.byte	W12
	.byte		N06	, Dn1, v048
	.byte		N24	, Ds2, v127
	.byte		N24	, En2, v112
	.byte	W06
	.byte		N06	, Ds1, v044
	.byte	W06
	.byte		N12	, En1
	.byte	W12
	.byte		N06	, Dn1, v048
	.byte		N24	, Ds2, v127
	.byte	W06
	.byte		N06	, Ds1, v044
	.byte	W06
	.byte		N12	, En1
	.byte	W12
	.byte		N06	, Dn1, v048
	.byte		N24	, Ds2, v127
	.byte		N24	, En2, v112
	.byte	W06
	.byte		N06	, Ds1, v044
	.byte	W06
	.byte		N12	, En1
	.byte	W12
	.byte	PEND
	.byte	PATT	
		.word	song002_1_1
	.byte	PATT	
		.word	song002_1_1
	.byte	PATT	
		.word	song002_1_1
	.byte	PATT	
		.word	song002_1_1
	.byte	PATT	
		.word	song002_1_1
	.byte	PATT	
		.word	song002_1_1
	.byte		N06	, Dn1, v048
	.byte		N24	, Ds2, v127
	.byte	W06
	.byte		N06	, Ds1, v044
	.byte	W06
	.byte		N12	, En1
	.byte	W12
	.byte		N06	, Dn1, v048
	.byte		N24	, Ds2, v127
	.byte		N24	, En2, v112
	.byte	W06
	.byte		N06	, Ds1, v044
	.byte	W06
	.byte		N12	, En1
	.byte	W12
	.byte		N06	, Dn1, v048
	.byte		N12	, Ds2, v127
	.byte	W06
	.byte		N06	, Ds1, v044
	.byte	W06
	.byte		N12	, En1
	.byte		N12	, En2, v127
	.byte	W12
	.byte		N06	, Dn1, v048
	.byte		N06	, En2, v127
	.byte	W06
	.byte			Ds1, v044
	.byte		N11	, Ds2, v127
	.byte	W06
	.byte		N12	, En1, v044
	.byte	W06
	.byte		N06	, En2, v127
	.byte	W06
	.byte	PATT	
		.word	song002_1_1
	.byte	PATT	
		.word	song002_1_1
	.byte	PATT	
		.word	song002_1_1
	.byte	PATT	
		.word	song002_1_1
	.byte	PATT	
		.word	song002_1_1
	.byte	PATT	
		.word	song002_1_1
	.byte	PATT	
		.word	song002_1_1
	.byte		N06	, Dn1, v048
	.byte		N24	, Ds2, v127
	.byte	W06
	.byte		N06	, Ds1, v044
	.byte	W06
	.byte		N12	, En1
	.byte	W12
	.byte		N06	, Dn1, v048
	.byte		N24	, Ds2, v127
	.byte		N24	, En2, v112
	.byte	W06
	.byte		N06	, Ds1, v044
	.byte	W06
	.byte		N12	, En1
	.byte	W12
	.byte		N06	, Dn1, v048
	.byte		N11	, Ds2, v127
	.byte	W06
	.byte		N06	, Ds1, v044
	.byte	W06
	.byte		N12	, En1
	.byte		N11	, En2, v127
	.byte	W12
	.byte		N06	, Dn1, v048
	.byte		N05	, En2, v127
	.byte	W06
	.byte		N06	, Ds1, v044
	.byte		N11	, En2, v127
	.byte	W06
	.byte		N12	, En1, v044
	.byte	W06
	.byte		N06	, En2, v127
	.byte	W06
	.byte	PATT	
		.word	song002_1_1
	.byte	PATT	
		.word	song002_1_1
	.byte	PATT	
		.word	song002_1_1
	.byte	PATT	
		.word	song002_1_1
	.byte	PATT	
		.word	song002_1_1
	.byte	PATT	
		.word	song002_1_1
	.byte	PATT	
		.word	song002_1_1
	.byte	PATT	
		.word	song002_1_1
	.byte	PATT	
		.word	song002_1_1
	.byte		N06	, Dn1, v048
	.byte		N24	, Ds2, v127
	.byte	W06
	.byte		N06	, Ds1, v044
	.byte	W06
	.byte		N12	, En1
	.byte	W12
	.byte		N06	, Dn1, v048
	.byte		N24	, Ds2, v127
	.byte		N24	, En2, v112
	.byte	W06
	.byte		N06	, Ds1, v044
	.byte	W06
	.byte		N12	, En1
	.byte	W12
	.byte		N06	, Dn1, v048
	.byte		N06	, Ds2, v127
	.byte	W06
	.byte			Ds1, v044
	.byte		N06	, En2, v127
	.byte	W06
	.byte		N12	, En1, v044
	.byte		N03	, En2, v127
	.byte	W03
	.byte		N03	
	.byte	W03
	.byte		N06	, Ds2
	.byte	W06
	.byte			Dn1, v048
	.byte		N06	, En2, v127
	.byte	W06
	.byte			Ds1, v044
	.byte		N06	, Ds2, v127
	.byte	W06
	.byte		N12	, En1, v044
	.byte		N06	, En2, v127
	.byte	W06
	.byte		N06	
	.byte	W06
	.byte	GOTO	
		.word	song002_1_1
	.byte	FINE

	@********************** Track  2 **********************@

	.global song002_2
song002_2:	@ 0x0201AF69
	.byte	KEYSH	, 0
	.byte	VOICE	, 42
	.byte	VOL	, v105
	.byte	W96
song002_2_1:
	.byte		N05	, An1, v127
	.byte	W06
	.byte		N05	
	.byte	W06
	.byte			An2
	.byte	W06
	.byte		N05	
	.byte	W06
	.byte			An1
	.byte	W06
	.byte		N05	
	.byte	W06
	.byte			An2
	.byte	W06
	.byte		N05	
	.byte	W06
	.byte			An1
	.byte	W06
	.byte		N05	
	.byte	W06
	.byte			An2
	.byte	W06
	.byte		N05	
	.byte	W06
	.byte			An1
	.byte	W06
	.byte		N05	
	.byte	W06
	.byte			An2
	.byte	W06
	.byte		N05	
	.byte	W06
	.byte	PEND
	.byte	PATT	
		.word	song002_2_1
	.byte		N05	, Fn1, v127
	.byte	W06
	.byte		N05	
	.byte	W06
	.byte			Fn2
	.byte	W06
	.byte		N05	
	.byte	W06
	.byte			Fn1
	.byte	W06
	.byte		N05	
	.byte	W06
	.byte			Fn2
	.byte	W06
	.byte		N05	
	.byte	W06
	.byte			Fn1
	.byte	W06
	.byte		N05	
	.byte	W06
	.byte			Fn2
	.byte	W06
	.byte		N05	
	.byte	W06
	.byte			Fn1
	.byte	W06
	.byte		N05	
	.byte	W06
	.byte			Fn2
	.byte	W06
	.byte		N05	
	.byte	W06
	.byte			Fn1
	.byte	W06
	.byte		N05	
	.byte	W06
	.byte			Fn2
	.byte	W06
	.byte		N05	
	.byte	W06
	.byte			Fn1
	.byte	W06
	.byte		N05	
	.byte	W06
	.byte		N23	, Gn1
	.byte	W24
	.byte		N05	, Gn2
	.byte	W06
	.byte		N05	
	.byte	W06
	.byte			Gn1
	.byte	W06
	.byte		N05	
	.byte	W06
	.byte			Gn2
	.byte	W06
	.byte		N05	
	.byte	W06
	.byte	PATT	
		.word	song002_2_1
	.byte	PATT	
		.word	song002_2_1
	.byte		N05	, Dn1, v127
	.byte	W06
	.byte		N05	
	.byte	W06
	.byte			Dn2
	.byte	W06
	.byte		N05	
	.byte	W06
	.byte			Dn1
	.byte	W06
	.byte		N05	
	.byte	W06
	.byte			Dn2
	.byte	W06
	.byte		N05	
	.byte	W06
	.byte			Dn1
	.byte	W06
	.byte		N05	
	.byte	W06
	.byte			Dn2
	.byte	W06
	.byte		N05	
	.byte	W06
	.byte			Dn1
	.byte	W06
	.byte		N05	
	.byte	W06
	.byte			Dn2
	.byte	W06
	.byte		N05	
	.byte	W06
	.byte			As1
	.byte	W06
	.byte		N05	
	.byte	W06
	.byte			As2
	.byte	W06
	.byte		N05	
	.byte	W06
	.byte			As1
	.byte	W06
	.byte		N05	
	.byte	W06
	.byte		N23	, Cn2
	.byte	W24
	.byte		N05	, Cn3
	.byte	W06
	.byte		N05	
	.byte	W06
	.byte			Cn2
	.byte	W06
	.byte		N05	
	.byte	W06
	.byte			Cn3
	.byte	W06
	.byte		N05	
	.byte	W06
song002_2_4:
	.byte		N05	, Cs2, v127
	.byte	W06
	.byte		N05	
	.byte	W06
	.byte			Cs3
	.byte	W06
	.byte		N05	
	.byte	W06
	.byte			Cs2
	.byte	W06
	.byte		N05	
	.byte	W06
	.byte			Cs3
	.byte	W06
	.byte		N05	
	.byte	W06
	.byte			Cs2
	.byte	W06
	.byte		N05	
	.byte	W06
	.byte			Cs3
	.byte	W06
	.byte		N05	
	.byte	W06
	.byte			Cs2
	.byte	W06
	.byte		N05	
	.byte	W06
	.byte			Cs3
	.byte	W06
	.byte		N05	
	.byte	W06
	.byte	PEND
song002_2_5:
	.byte		N05	, Ds2, v127
	.byte	W06
	.byte		N05	
	.byte	W06
	.byte			Ds3
	.byte	W06
	.byte		N05	
	.byte	W06
	.byte			Ds2
	.byte	W06
	.byte		N05	
	.byte	W06
	.byte			Ds3
	.byte	W06
	.byte		N05	
	.byte	W06
	.byte			Ds2
	.byte	W06
	.byte		N05	
	.byte	W06
	.byte			Ds3
	.byte	W06
	.byte		N05	
	.byte	W06
	.byte			Ds2
	.byte	W06
	.byte		N05	
	.byte	W06
	.byte			Ds3
	.byte	W06
	.byte		N05	
	.byte	W06
	.byte	PEND
song002_2_2:
	.byte		N05	, En2, v127
	.byte	W06
	.byte		N05	
	.byte	W06
	.byte			En3
	.byte	W06
	.byte		N05	
	.byte	W06
	.byte			En2
	.byte	W06
	.byte		N05	
	.byte	W06
	.byte			En3
	.byte	W06
	.byte		N05	
	.byte	W06
	.byte			En2
	.byte	W06
	.byte		N05	
	.byte	W06
	.byte			En3
	.byte	W06
	.byte		N05	
	.byte	W06
	.byte			En2
	.byte	W06
	.byte		N05	
	.byte	W06
	.byte			En3
	.byte	W06
	.byte		N05	
	.byte	W06
	.byte	PEND
	.byte			Fs2
	.byte	W06
	.byte		N05	
	.byte	W06
	.byte			Fs3
	.byte	W06
	.byte		N05	
	.byte	W06
	.byte			Fs2
	.byte	W06
	.byte		N05	
	.byte	W06
	.byte			Fs3
	.byte	W06
	.byte		N05	
	.byte	W06
	.byte			Fs2
	.byte	W06
	.byte		N05	
	.byte	W06
	.byte			Fs3
	.byte	W06
	.byte		N05	
	.byte	W06
	.byte			Fs2
	.byte	W06
	.byte		N05	
	.byte	W06
	.byte			Fs1
	.byte	W06
	.byte		N05	
	.byte	W06
	.byte			Gn1
	.byte	W06
	.byte		N05	
	.byte	W06
	.byte			Gn2
	.byte	W06
	.byte		N05	
	.byte	W06
	.byte			Gn1
	.byte	W06
	.byte		N05	
	.byte	W06
	.byte			Gn2
	.byte	W06
	.byte		N05	
	.byte	W06
	.byte			Gn1
	.byte	W06
	.byte		N05	
	.byte	W06
	.byte			Gn2
	.byte	W06
	.byte		N05	
	.byte	W06
	.byte			Gn1
	.byte	W06
	.byte		N05	
	.byte	W06
	.byte			Gn2
	.byte	W06
	.byte		N05	
	.byte	W06
	.byte	PATT	
		.word	song002_2_1
song002_2_3:
	.byte		N05	, As1, v127
	.byte	W06
	.byte		N05	
	.byte	W06
	.byte			As2
	.byte	W06
	.byte		N05	
	.byte	W06
	.byte			As1
	.byte	W06
	.byte		N05	
	.byte	W06
	.byte			As2
	.byte	W06
	.byte		N05	
	.byte	W06
	.byte			As1
	.byte	W06
	.byte		N05	
	.byte	W06
	.byte			As2
	.byte	W06
	.byte		N05	
	.byte	W06
	.byte			As1
	.byte	W06
	.byte		N05	
	.byte	W06
	.byte			As2
	.byte	W06
	.byte		N05	
	.byte	W06
	.byte	PEND
	.byte			Cn2
	.byte	W06
	.byte		N05	
	.byte	W06
	.byte			Cn3
	.byte	W06
	.byte		N05	
	.byte	W06
	.byte			Cn2
	.byte	W06
	.byte		N05	
	.byte	W06
	.byte			Cn3
	.byte	W06
	.byte		N05	
	.byte	W06
	.byte			Cn2
	.byte	W06
	.byte		N05	
	.byte	W06
	.byte			Cn3
	.byte	W06
	.byte		N05	
	.byte	W06
	.byte			Cn2
	.byte	W06
	.byte		N05	
	.byte	W06
	.byte			Cn3
	.byte	W06
	.byte		N05	
	.byte	W06
	.byte			Dn2
	.byte	W06
	.byte		N05	
	.byte	W06
	.byte			Dn3
	.byte	W06
	.byte		N05	
	.byte	W06
	.byte			Dn2
	.byte	W06
	.byte		N05	
	.byte	W06
	.byte			Dn3
	.byte	W06
	.byte		N05	
	.byte	W06
	.byte			Dn2
	.byte	W06
	.byte		N05	
	.byte	W06
	.byte			Dn3
	.byte	W06
	.byte		N05	
	.byte	W06
	.byte			Dn2
	.byte	W06
	.byte		N05	
	.byte	W06
	.byte			Dn3
	.byte	W06
	.byte		N05	
	.byte	W06
	.byte	PATT	
		.word	song002_2_2
	.byte		N05	, Fn2, v127
	.byte	W06
	.byte		N05	
	.byte	W06
	.byte			Fn3
	.byte	W06
	.byte		N05	
	.byte	W06
	.byte			Fn2
	.byte	W06
	.byte		N05	
	.byte	W06
	.byte			Fn3
	.byte	W06
	.byte		N05	
	.byte	W06
	.byte			Fn2
	.byte	W06
	.byte		N05	
	.byte	W06
	.byte			Fn3
	.byte	W06
	.byte		N05	
	.byte	W06
	.byte			Fn2
	.byte	W06
	.byte		N05	
	.byte	W06
	.byte			Fn3
	.byte	W06
	.byte		N05	
	.byte	W06
	.byte			Gn2
	.byte	W06
	.byte		N05	
	.byte	W06
	.byte			Gn3
	.byte	W06
	.byte		N05	
	.byte	W06
	.byte			Gn2
	.byte	W06
	.byte		N05	
	.byte	W06
	.byte			Gn3
	.byte	W06
	.byte		N05	
	.byte	W06
	.byte			Gn2
	.byte	W06
	.byte		N05	
	.byte	W06
	.byte			Gn3
	.byte	W06
	.byte		N05	
	.byte	W06
	.byte			Gn2
	.byte	W06
	.byte		N05	
	.byte	W06
	.byte			Gn1
	.byte	W06
	.byte		N05	
	.byte	W06
	.byte			Gs1
	.byte	W06
	.byte		N05	
	.byte	W06
	.byte			Gs2
	.byte	W06
	.byte		N05	
	.byte	W06
	.byte			Gs1
	.byte	W06
	.byte		N05	
	.byte	W06
	.byte			Gs2
	.byte	W06
	.byte		N05	
	.byte	W06
	.byte			Gs1
	.byte	W06
	.byte		N05	
	.byte	W06
	.byte			Gs2
	.byte	W06
	.byte		N05	
	.byte	W06
	.byte			Gs1
	.byte	W06
	.byte		N05	
	.byte	W06
	.byte			Gs2
	.byte	W06
	.byte		N05	
	.byte	W06
	.byte	PATT	
		.word	song002_2_3
	.byte		N05	, Bn1, v127
	.byte	W06
	.byte		N05	
	.byte	W06
	.byte			Bn2
	.byte	W06
	.byte		N05	
	.byte	W06
	.byte			Bn1
	.byte	W06
	.byte		N05	
	.byte	W06
	.byte			Bn2
	.byte	W06
	.byte		N05	
	.byte	W06
	.byte			Bn1
	.byte	W06
	.byte		N05	
	.byte	W06
	.byte			Bn2
	.byte	W06
	.byte		N05	
	.byte	W06
	.byte			Bn1
	.byte	W06
	.byte		N05	
	.byte	W06
	.byte			Bn2
	.byte	W06
	.byte		N05	
	.byte	W06
	.byte	PATT	
		.word	song002_2_4
	.byte	PATT	
		.word	song002_2_5
	.byte		N05	, Fn2, v127
	.byte	W06
	.byte		N05	
	.byte	W06
	.byte			Fn3
	.byte	W06
	.byte		N05	
	.byte	W06
	.byte			Fn2
	.byte	W06
	.byte		N05	
	.byte	W06
	.byte		N17	, Gn2
	.byte	W18
	.byte		N05	
	.byte	W06
	.byte			Gn3
	.byte	W06
	.byte		N05	
	.byte	W06
	.byte			Dn3
	.byte	W06
	.byte		N05	
	.byte	W06
	.byte			Gn2
	.byte	W06
	.byte		N05	
	.byte	W06
	.byte	GOTO	
		.word	song002_2_1
	.byte	FINE

	@********************** Track  3 **********************@

	.global song002_3
song002_3:	@ 0x0201B1EC
	.byte	KEYSH	, 0
	.byte	VOICE	, 98
	.byte	VOL	, v099
	.byte	BENDR	, 29
	.byte	BEND	, c_v+63
	.byte		N02	, Gn4, v076
	.byte	W01
	.byte	BEND	, c_v+62
	.byte	W01
	.byte		N02	, Dn4, v084
	.byte	W01
	.byte	BEND	, c_v+60
	.byte	W01
	.byte		c_v+58
	.byte		N02	, Gn4, v092
	.byte	W02
	.byte	BEND	, c_v+56
	.byte		N02	, Dn4, v100
	.byte	W01
	.byte	BEND	, c_v+54
	.byte	W01
	.byte		N02	, Gn4, v108
	.byte	W01
	.byte	BEND	, c_v+52
	.byte	W01
	.byte		c_v+50
	.byte		N02	, Dn4, v116
	.byte	W02
	.byte	BEND	, c_v+48
	.byte		N02	, Gn4, v124
	.byte	W01
	.byte	BEND	, c_v+46
	.byte	W01
	.byte		N02	, Dn4, v120
	.byte	W01
	.byte	BEND	, c_v+44
	.byte	W01
	.byte		c_v+42
	.byte		N02	, Gn4
	.byte	W02
	.byte	BEND	, c_v+40
	.byte		N02	, Dn4, v116
	.byte	W01
	.byte	BEND	, c_v+38
	.byte	W01
	.byte		N02	, Gn4, v112
	.byte	W01
	.byte	BEND	, c_v+36
	.byte	W01
	.byte		c_v+34
	.byte		N02	, Dn4
	.byte	W02
	.byte	BEND	, c_v+32
	.byte		N02	, Gn4, v108
	.byte	W01
	.byte	BEND	, c_v+30
	.byte	W01
	.byte		N02	, Dn4, v104
	.byte	W01
	.byte	BEND	, c_v+28
	.byte	W01
	.byte		c_v+26
	.byte		N02	, Gn4
	.byte	W02
	.byte	BEND	, c_v+24
	.byte		N02	, Dn4, v100
	.byte	W01
	.byte	BEND	, c_v+22
	.byte	W01
	.byte		N02	, Gn4
	.byte	W01
	.byte	BEND	, c_v+20
	.byte	W01
	.byte		c_v+18
	.byte		N02	, Dn4, v096
	.byte	W02
	.byte	BEND	, c_v+16
	.byte		N02	, Gn4, v092
	.byte	W01
	.byte	BEND	, c_v+14
	.byte	W01
	.byte		N02	, Dn4
	.byte	W01
	.byte	BEND	, c_v+12
	.byte	W01
	.byte		c_v+10
	.byte		N02	, Gn4, v088
	.byte	W02
	.byte	BEND	, c_v+8
	.byte		N02	, Dn4, v084
	.byte	W01
	.byte	BEND	, c_v+6
	.byte	W01
	.byte		N02	, Gn4
	.byte	W01
	.byte	BEND	, c_v+4
	.byte	W01
	.byte		c_v+2
	.byte		N02	, Dn4, v080
	.byte	W02
	.byte	BEND	, c_v
	.byte		N02	, Gn4
	.byte	W01
	.byte	BEND	, c_v-2
	.byte	W01
	.byte		N02	, Dn4, v076
	.byte	W01
	.byte	BEND	, c_v-4
	.byte	W01
	.byte		c_v-6
	.byte		N02	, Gn4, v072
	.byte	W02
	.byte	BEND	, c_v-8
	.byte		N02	, Dn4
	.byte	W01
	.byte	BEND	, c_v-10
	.byte	W01
	.byte		N02	, Gn4, v068
	.byte	W01
	.byte	BEND	, c_v-12
	.byte	W01
	.byte		c_v-14
	.byte		N02	, Dn4
	.byte	W02
	.byte	BEND	, c_v-16
	.byte		N02	, Gn4, v064
	.byte	W01
	.byte	BEND	, c_v-18
	.byte	W01
	.byte		N02	, Dn4, v060
	.byte	W01
	.byte	BEND	, c_v-20
	.byte	W01
	.byte		c_v-22
	.byte		N02	, Gn4
	.byte	W02
	.byte	BEND	, c_v-24
	.byte		N02	, Dn4, v056
	.byte	W01
	.byte	BEND	, c_v-26
	.byte	W01
	.byte		N02	, Gn4, v052
	.byte	W01
	.byte	BEND	, c_v-28
	.byte	W01
	.byte		c_v-30
	.byte		N02	, Dn4
	.byte	W02
	.byte	BEND	, c_v-32
	.byte		N02	, Gn4, v048
	.byte	W01
	.byte	BEND	, c_v-34
	.byte	W01
	.byte		N02	, Dn4
	.byte	W01
	.byte	BEND	, c_v-36
	.byte	W01
	.byte		c_v-38
	.byte		N02	, Gn4, v044
	.byte	W02
	.byte	BEND	, c_v-40
	.byte		N02	, Dn4, v040
	.byte	W01
	.byte	BEND	, c_v-42
	.byte	W01
	.byte		N02	, Gn4
	.byte	W01
	.byte	BEND	, c_v-44
	.byte	W01
	.byte		c_v-46
	.byte		N02	, Dn4, v036
	.byte	W02
	.byte	BEND	, c_v-48
	.byte		N02	, Gn4
	.byte	W01
	.byte	BEND	, c_v-50
	.byte	W01
	.byte		N02	, Dn4, v032
	.byte	W01
	.byte	BEND	, c_v-52
	.byte	W01
	.byte		c_v-54
	.byte		N02	, Gn4, v028
	.byte	W02
	.byte	BEND	, c_v-56
	.byte		N02	, Dn4
	.byte	W01
	.byte	BEND	, c_v-58
	.byte	W01
	.byte		N02	, Gn4, v024
	.byte	W01
	.byte	BEND	, c_v-60
	.byte	W01
	.byte		c_v-62
	.byte		N02	, Dn4, v020
	.byte	W01
	.byte	BEND	, c_v-64
	.byte	W01
song002_3_1:
	.byte	VOICE	, 98
	.byte	VOL	, v099
	.byte	BENDR	, 29
	.byte	BEND	, c_v
	.byte	W60
	.byte		N11	, En3, v056
	.byte	W12
	.byte			An3, v096
	.byte	W12
	.byte			Cs4, v108
	.byte	W12
	.byte		N32	, Dn4, v116
	.byte	W36
	.byte		N23	, Cs4, v104
	.byte	W24
	.byte		N11	, An3, v088
	.byte	W12
	.byte			Bn3, v084
	.byte	W12
	.byte		N78	, Cn4, v096
	.byte	W12
	.byte	W84
	.byte		N11	, An3, v056
	.byte	W12
	.byte			Cn4, v104
	.byte	W12
	.byte			Bn3, v084
	.byte	W12
	.byte			An3
	.byte	W12
	.byte		N23	, Bn3, v096
	.byte	W24
	.byte			Gn3, v088
	.byte	W24
	.byte		N56	, An3
	.byte	W12
	.byte	W60
	.byte		N11	, En3, v060
	.byte	W12
	.byte			An3, v096
	.byte	W12
	.byte			Cs4, v112
	.byte	W12
	.byte		N32	, Dn4, v108
	.byte	W36
	.byte		N23	, Cs4, v104
	.byte	W24
	.byte		N11	, An3, v088
	.byte	W12
	.byte			Bn3
	.byte	W12
	.byte		N84	, Cn4, v096
	.byte	W12
	.byte	W84
	.byte		N11	, An3, v080
	.byte	W12
	.byte			Cn4, v104
	.byte	W12
	.byte			Gs3, v096
	.byte	W12
	.byte			Ds3, v076
	.byte	W12
	.byte		N22	, Dn4, v100
	.byte	W24
	.byte		N11	, As3, v088
	.byte	W12
	.byte	VOICE	, 91
	.byte	VOL	, v099
	.byte	BENDR	, 29
	.byte		N20	, Fn3, v076
	.byte	W24
	.byte		N11	, En4, v100
	.byte	W12
	.byte			Ds4, v096
	.byte	W12
	.byte			Cs4, v100
	.byte	W12
	.byte		N23	, Ds4, v104
	.byte	W24
	.byte			Bn3, v088
	.byte	W24
	.byte			Fs3, v096
	.byte	W12
	.byte	W12
	.byte			Bn3, v088
	.byte	W24
	.byte		N40	, Gs3, v080
	.byte	W48
	.byte		N11	, Bn2, v044
	.byte	W12
	.byte		N23	, Gs3, v104
	.byte	W24
	.byte		N11	, Fs3, v080
	.byte	W12
	.byte		N23	, En3, v084
	.byte	W24
	.byte			Gs3
	.byte	W24
	.byte		N66	, Fs3, v092
	.byte	W12
	.byte	W60
	.byte		N11	, Fs3, v068
	.byte	W12
	.byte			Bn3, v076
	.byte	W12
	.byte			Cs4, v104
	.byte	W12
	.byte		N23	, Dn4, v108
	.byte	W24
	.byte		N11	, Cs4, v088
	.byte	W12
	.byte		N23	, Bn3, v060
	.byte	W24
	.byte			Dn4, v096
	.byte	W24
	.byte			Cs4, v092
	.byte	W12
	.byte	W12
	.byte			An3, v076
	.byte	W24
	.byte		N40	, En3, v048
	.byte	W48
	.byte		N10	
	.byte	W12
	.byte		N23	, Fn3, v076
	.byte	W24
	.byte		N11	, As3, v080
	.byte	W12
	.byte		N23	, Dn4, v092
	.byte	W24
	.byte		N22	, Fn4, v088
	.byte	W24
	.byte		N11	, Fn4, v116
	.byte	W12
	.byte		N23	, En4, v100
	.byte	W24
	.byte		N11	, Fn4, v104
	.byte	W12
	.byte		N56	, Gn4, v096
	.byte	W60
	.byte	VOICE	, 98
	.byte	VOL	, v099
	.byte	BENDR	, 29
	.byte		N11	, Fn4, v100
	.byte	W12
	.byte			En4, v096
	.byte	W12
	.byte			Dn4, v100
	.byte	W12
	.byte		N23	, En4, v104
	.byte	W24
	.byte			Cn4, v088
	.byte	W24
	.byte			Gn3, v096
	.byte	W12
	.byte	W12
	.byte			Cn4, v088
	.byte	W24
	.byte		N40	, An3, v080
	.byte	W48
	.byte		N11	, Cn3, v044
	.byte	W12
	.byte		N23	, An3, v104
	.byte	W24
	.byte		N11	, Gn3, v080
	.byte	W12
	.byte		N23	, Fn3, v084
	.byte	W24
	.byte			An3
	.byte	W24
	.byte		N66	, Gn3, v092
	.byte	W12
	.byte	W60
	.byte		N11	, Gn3, v068
	.byte	W12
	.byte			Cn4, v076
	.byte	W12
	.byte			Dn4, v104
	.byte	W12
	.byte		N23	, Ds4, v108
	.byte	W24
	.byte		N11	, Dn4, v088
	.byte	W12
	.byte		N23	, Cn4, v060
	.byte	W24
	.byte			Ds4, v096
	.byte	W24
	.byte			Dn4, v092
	.byte	W12
	.byte	W12
	.byte			As3, v076
	.byte	W24
	.byte		N40	, Fn3, v048
	.byte	W48
	.byte		N10	
	.byte	W12
	.byte		N23	, Fs3, v076
	.byte	W24
	.byte		N11	, Bn3, v080
	.byte	W12
	.byte		N23	, Ds4, v092
	.byte	W24
	.byte		N22	, Fs4, v088
	.byte	W24
	.byte		N11	, Fs4, v116
	.byte	W12
	.byte		N23	, Fn4, v100
	.byte	W24
	.byte		N11	, Fs4, v104
	.byte	W12
	.byte		N56	, Gs4, v096
	.byte	W60
	.byte			Gn4
	.byte	W72
	.byte		N11	, Gn4, v104
	.byte	W12
	.byte			Gs4
	.byte	W12
	.byte	BEND	, c_v+63
	.byte		N02	, Gn4, v076
	.byte	W01
	.byte	BEND	, c_v+62
	.byte	W01
	.byte		N02	, Dn4, v084
	.byte	W01
	.byte	BEND	, c_v+60
	.byte	W01
	.byte		c_v+58
	.byte		N02	, Gn4, v092
	.byte	W02
	.byte	BEND	, c_v+56
	.byte		N02	, Dn4, v100
	.byte	W01
	.byte	BEND	, c_v+54
	.byte	W01
	.byte		N02	, Gn4, v108
	.byte	W01
	.byte	BEND	, c_v+52
	.byte	W01
	.byte		c_v+50
	.byte		N02	, Dn4, v116
	.byte	W02
	.byte	BEND	, c_v+48
	.byte		N02	, Gn4, v124
	.byte	W01
	.byte	BEND	, c_v+46
	.byte	W01
	.byte		N02	, Dn4, v120
	.byte	W01
	.byte	BEND	, c_v+44
	.byte	W01
	.byte		c_v+42
	.byte		N02	, Gn4
	.byte	W02
	.byte	BEND	, c_v+40
	.byte		N02	, Dn4, v116
	.byte	W01
	.byte	BEND	, c_v+38
	.byte	W01
	.byte		N02	, Gn4, v112
	.byte	W01
	.byte	BEND	, c_v+36
	.byte	W01
	.byte		c_v+34
	.byte		N02	, Dn4
	.byte	W02
	.byte	BEND	, c_v+32
	.byte		N02	, Gn4, v108
	.byte	W01
	.byte	BEND	, c_v+30
	.byte	W01
	.byte		N02	, Dn4, v104
	.byte	W01
	.byte	BEND	, c_v+28
	.byte	W01
	.byte		c_v+26
	.byte		N02	, Gn4
	.byte	W02
	.byte	BEND	, c_v+24
	.byte		N02	, Dn4, v100
	.byte	W01
	.byte	BEND	, c_v+22
	.byte	W01
	.byte		N02	, Gn4
	.byte	W01
	.byte	BEND	, c_v+20
	.byte	W01
	.byte		c_v+18
	.byte		N02	, Dn4, v096
	.byte	W02
	.byte	BEND	, c_v+16
	.byte		N02	, Gn4, v092
	.byte	W01
	.byte	BEND	, c_v+14
	.byte	W01
	.byte		N02	, Dn4
	.byte	W01
	.byte	BEND	, c_v+12
	.byte	W01
	.byte		c_v+10
	.byte		N02	, Gn4, v088
	.byte	W02
	.byte	BEND	, c_v+8
	.byte		N02	, Dn4, v084
	.byte	W01
	.byte	BEND	, c_v+6
	.byte	W01
	.byte		N02	, Gn4
	.byte	W01
	.byte	BEND	, c_v+4
	.byte	W01
	.byte		c_v+2
	.byte		N02	, Dn4, v080
	.byte	W02
	.byte	BEND	, c_v
	.byte		N02	, Gn4
	.byte	W01
	.byte	BEND	, c_v-2
	.byte	W01
	.byte		N02	, Dn4, v076
	.byte	W01
	.byte	BEND	, c_v-4
	.byte	W01
	.byte		c_v-6
	.byte		N02	, Gn4, v072
	.byte	W02
	.byte	BEND	, c_v-8
	.byte		N02	, Dn4
	.byte	W01
	.byte	BEND	, c_v-10
	.byte	W01
	.byte		N02	, Gn4, v068
	.byte	W01
	.byte	BEND	, c_v-12
	.byte	W01
	.byte		c_v-14
	.byte		N02	, Dn4
	.byte	W02
	.byte	BEND	, c_v-16
	.byte		N02	, Gn4, v064
	.byte	W01
	.byte	BEND	, c_v-18
	.byte	W01
	.byte		N02	, Dn4, v060
	.byte	W01
	.byte	BEND	, c_v-20
	.byte	W01
	.byte		c_v-22
	.byte		N02	, Gn4
	.byte	W02
	.byte	BEND	, c_v-24
	.byte		N02	, Dn4, v056
	.byte	W01
	.byte	BEND	, c_v-26
	.byte	W01
	.byte		N02	, Gn4, v052
	.byte	W01
	.byte	BEND	, c_v-28
	.byte	W01
	.byte		c_v-30
	.byte		N02	, Dn4
	.byte	W02
	.byte	BEND	, c_v-32
	.byte		N02	, Gn4, v048
	.byte	W01
	.byte	BEND	, c_v-34
	.byte	W01
	.byte		N02	, Dn4
	.byte	W01
	.byte	BEND	, c_v-36
	.byte	W01
	.byte		c_v-38
	.byte		N02	, Gn4, v044
	.byte	W02
	.byte	BEND	, c_v-40
	.byte		N02	, Dn4, v040
	.byte	W01
	.byte	BEND	, c_v-42
	.byte	W01
	.byte		N02	, Gn4
	.byte	W01
	.byte	BEND	, c_v-44
	.byte	W01
	.byte		c_v-46
	.byte		N02	, Dn4, v036
	.byte	W02
	.byte	BEND	, c_v-48
	.byte		N02	, Gn4
	.byte	W01
	.byte	BEND	, c_v-50
	.byte	W01
	.byte		N02	, Dn4, v032
	.byte	W01
	.byte	BEND	, c_v-52
	.byte	W01
	.byte		c_v-54
	.byte		N02	, Gn4, v028
	.byte	W02
	.byte	BEND	, c_v-56
	.byte		N02	, Dn4
	.byte	W01
	.byte	BEND	, c_v-58
	.byte	W01
	.byte		N02	, Gn4, v024
	.byte	W01
	.byte	BEND	, c_v-60
	.byte	W01
	.byte		c_v-62
	.byte		N02	, Dn4, v020
	.byte	W01
	.byte	BEND	, c_v-64
	.byte	W01
	.byte	GOTO	
		.word	song002_3_1
	.byte	FINE

	@********************** Track  4 **********************@

	.global song002_4
song002_4:	@ 0x0201B5FC
	.byte	KEYSH	, 0
	.byte	VOICE	, 100
	.byte	VOL	, v096
	.byte	MOD	, 0
	.byte	LFOS	, 86
	.byte	BENDR	, 53
	.byte	W96
song002_4_1:
	.byte		N44	, An3, v080
	.byte	W60
	.byte		N18	, An3, v096
	.byte	W36
	.byte	W36
	.byte		N36	, An3, v080
	.byte	W48
	.byte		N56	, Fn3, v084
	.byte	W12
	.byte	W60
	.byte		N15	, Fn3, v068
	.byte	W36
	.byte		N11	
	.byte	W24
	.byte		N09	
	.byte	W12
	.byte		N21	, Gn3
	.byte	W36
	.byte		N07	
	.byte	W12
	.byte		N56	, An3, v100
	.byte	W12
	.byte	W60
	.byte		N11	, An3, v080
	.byte	W36
	.byte	W36
	.byte		N36	
	.byte	W48
	.byte		N54	, Fn3, v100
	.byte	W12
	.byte	W60
	.byte		N15	, Fn3, v088
	.byte	W36
	.byte		N11	, Gs3, v104
	.byte	W24
	.byte		N07	, Gs3, v068
	.byte	W12
	.byte		N21	, As3, v092
	.byte	W36
	.byte		N18	, As3, v068
	.byte	W24
	.byte		N96	, En3, v076
	.byte	W96
	.byte	W96
	.byte		N96	
	.byte	W96
	.byte	W48
	.byte		N48	, Fs3
	.byte	W48
	.byte		N96	, Gn3
	.byte	W96
	.byte			An3
	.byte	W96
	.byte			As3
	.byte	W96
	.byte			Cn4
	.byte	W96
	.byte			Fn3
	.byte	W96
	.byte	W96
	.byte		N96	
	.byte	W96
	.byte	W48
	.byte		N48	, Gn3
	.byte	W48
	.byte		N96	, Gs3
	.byte	W96
	.byte			As3
	.byte	W96
	.byte			Bn3
	.byte	W96
	.byte			Cs4
	.byte	W96
	.byte		N30	, Ds3
	.byte	W36
	.byte		N12	
	.byte	W24
	.byte		N30	
	.byte	W36
	.byte			Fn3
	.byte	W36
	.byte		N12	, Gn3
	.byte	W24
	.byte		N36	
	.byte	W36
	.byte	GOTO	
		.word	song002_4_1
	.byte	FINE

	@********************** Track  5 **********************@

	.global song002_5
song002_5:	@ 0x0201B687
	.byte	KEYSH	, 0
	.byte	VOICE	, 101
	.byte	VOL	, v096
	.byte	W96
song002_5_1:
	.byte	W48
	.byte		N14	, Cs3, v076
	.byte	W36
	.byte		N04	, Cs3, v060
	.byte	W12
	.byte	PEND
	.byte		N30	, Bn3, v076
	.byte	W96
song002_5_2:
	.byte	W48
	.byte		N11	, An2, v056
	.byte	W36
	.byte		N09	
	.byte	W12
	.byte	PEND
	.byte	W12
	.byte		N11	, An2, v060
	.byte	W48
	.byte		N14	, Bn2
	.byte	W36
	.byte	PATT	
		.word	song002_5_1
	.byte		N30	, Bn3, v076
	.byte	W96
	.byte	PATT	
		.word	song002_5_2
	.byte	W96
	.byte	W96
	.byte		N96	, Ds3, v076
	.byte	W96
	.byte	W96
	.byte	W96
	.byte	W96
	.byte	W96
	.byte	W96
	.byte	W96
	.byte	W96
	.byte			En3
	.byte	W96
	.byte	W96
	.byte	W96
	.byte	W96
	.byte	W96
	.byte	W96
	.byte	W96
	.byte		N30	, Gn3, v048
	.byte	W36
	.byte		N12	
	.byte	W24
	.byte		N30	
	.byte	W36
	.byte			An3
	.byte	W36
	.byte		N12	, Bn3
	.byte	W24
	.byte		N36	
	.byte	W36
	.byte	GOTO	
		.word	song002_5_1
	.byte	FINE

	@********************** Track  6 **********************@

	.global song002_6
song002_6:	@ 0x0201B6E4
	.byte	KEYSH	, 0
	.byte	VOICE	, 102
	.byte	VOL	, v096
	.byte	W96
song002_6_1:
	.byte	W96
	.byte	W96
	.byte	W96
	.byte	W96
	.byte	W96
	.byte	W96
	.byte	W96
	.byte	W12
	.byte		N11	, Ds3, v080
	.byte	W48
	.byte			Fn3, v060
	.byte	W36
	.byte	W96
	.byte	W96
	.byte	W96
	.byte		N48	, Fs3, v076
	.byte	W96
	.byte		N96	, Dn3
	.byte	W96
	.byte			En3
	.byte	W96
	.byte			Fn3
	.byte	W96
	.byte			Gn3
	.byte	W96
	.byte	W96
	.byte	W96
	.byte	W96
	.byte		N48	
	.byte	W96
	.byte		N96	, Ds3
	.byte	W96
	.byte			Fn3
	.byte	W96
	.byte			Fs3, v056
	.byte	W96
	.byte			Gs3
	.byte	W96
	.byte	W96
	.byte	W96
	.byte	GOTO	
		.word	song002_6_1
	.byte	FINE

	@********************** Track  7 **********************@

	.global song002_7
song002_7:	@ 0x0201B721
	.byte	KEYSH	, 0
	.byte	VOICE	, 99
	.byte	VOL	, v090
	.byte	W96
song002_7_3:
	.byte	MOD	, 0
	.byte		N06	, Cs4, v056
	.byte	W06
	.byte			Cs4, v024
	.byte	W06
	.byte			En4, v028
	.byte	W06
	.byte			Cs4, v024
	.byte	W06
	.byte			Cs5, v052
	.byte	W06
	.byte			An4, v040
	.byte	W06
	.byte			En4, v028
	.byte	W06
	.byte			Cs4, v020
	.byte	W06
	.byte			En4, v040
	.byte	W06
	.byte			An4, v036
	.byte	W06
	.byte			Cs5, v040
	.byte	W06
	.byte			An4, v032
	.byte	W06
	.byte			En5, v072
	.byte	W06
	.byte			Cs5, v060
	.byte	W06
	.byte			An4, v020
	.byte	W06
	.byte			En4
	.byte	W06
song002_7_1:
	.byte		N06	, Dn4, v056
	.byte	W06
	.byte			Dn4, v024
	.byte	W06
	.byte			Fs4, v028
	.byte	W06
	.byte			Dn4, v024
	.byte	W06
	.byte			Dn5, v052
	.byte	W06
	.byte			Bn4, v040
	.byte	W06
	.byte			Fs4, v028
	.byte	W06
	.byte			Dn4, v020
	.byte	W06
	.byte			En4, v040
	.byte	W06
	.byte			An4, v036
	.byte	W06
	.byte			Cs5, v040
	.byte	W06
	.byte			An4, v032
	.byte	W06
	.byte			En5, v072
	.byte	W06
	.byte			Cs5, v060
	.byte	W06
	.byte			An4, v020
	.byte	W06
	.byte			En4
	.byte	W06
	.byte	PEND
song002_7_2:
	.byte		N06	, An3, v056
	.byte	W06
	.byte			An3, v024
	.byte	W06
	.byte			Cn4, v028
	.byte	W06
	.byte			An3, v024
	.byte	W06
	.byte			An4, v052
	.byte	W06
	.byte			Fn4, v040
	.byte	W06
	.byte			Cn4, v028
	.byte	W06
	.byte			An3, v020
	.byte	W06
	.byte			Cn4, v040
	.byte	W06
	.byte			Fn4, v036
	.byte	W06
	.byte			An4, v040
	.byte	W06
	.byte			Fn4, v032
	.byte	W06
	.byte			Cn5, v072
	.byte	W06
	.byte			An4, v060
	.byte	W06
	.byte			Fn4, v020
	.byte	W06
	.byte			Cn4
	.byte	W06
	.byte	PEND
	.byte			An3, v048
	.byte	W06
	.byte			Cn4, v056
	.byte	W06
	.byte			Fn4, v040
	.byte	W06
	.byte			An4, v044
	.byte	W06
	.byte			Cn5
	.byte	W06
	.byte			Fn5, v032
	.byte	W06
	.byte			Bn3, v040
	.byte	W06
	.byte			Dn4, v024
	.byte	W06
	.byte			Gn4, v048
	.byte	W06
	.byte			Bn4, v036
	.byte	W06
	.byte			Dn5
	.byte	W06
	.byte			Bn4, v040
	.byte	W06
	.byte			Gn5, v036
	.byte	W06
	.byte			Dn5, v032
	.byte	W06
	.byte			Bn4, v036
	.byte	W06
	.byte			Gn4
	.byte	W06
	.byte			Cs4, v056
	.byte	W06
	.byte			Cs4, v024
	.byte	W06
	.byte			En4, v028
	.byte	W06
	.byte			Cs4, v024
	.byte	W06
	.byte			Cs5, v052
	.byte	W06
	.byte			An4, v040
	.byte	W06
	.byte			En4, v028
	.byte	W06
	.byte			Cs4, v020
	.byte	W06
	.byte			En4, v040
	.byte	W06
	.byte			An4, v036
	.byte	W06
	.byte			Cs5, v040
	.byte	W06
	.byte			An4, v032
	.byte	W06
	.byte			En5, v072
	.byte	W06
	.byte			Cs5, v060
	.byte	W06
	.byte			An4, v020
	.byte	W06
	.byte			En4
	.byte	W06
	.byte	PATT	
		.word	song002_7_1
	.byte	PATT	
		.word	song002_7_2
	.byte		N06	, Cn4, v024
	.byte	W06
	.byte			Ds4, v044
	.byte	W06
	.byte			Gs4
	.byte	W06
	.byte			Cn5, v048
	.byte	W06
	.byte			Ds5
	.byte	W06
	.byte			Gs5, v060
	.byte	W06
	.byte			Dn4, v056
	.byte	W06
	.byte			Fn4
	.byte	W06
	.byte			As4, v036
	.byte	W06
	.byte			Dn5, v044
	.byte	W06
	.byte			Fn5, v024
	.byte	W06
	.byte			As5, v040
	.byte	W06
	.byte			Dn6, v048
	.byte	W06
	.byte			Fn5, v044
	.byte	W06
	.byte			As5, v060
	.byte	W06
	.byte			Dn5, v048
	.byte	W06
	.byte	MOD	, 2
	.byte		N11	, En5, v068
	.byte	W12
	.byte			Ds5, v064
	.byte	W12
	.byte			Cs5, v068
	.byte	W12
	.byte		N23	, Ds5
	.byte	W24
	.byte			Bn4, v064
	.byte	W24
	.byte			Fs4
	.byte	W12
	.byte	W12
	.byte			Bn4
	.byte	W24
	.byte		N40	, Gs4, v060
	.byte	W48
	.byte		N11	, Bn3, v052
	.byte	W12
	.byte		N23	, Gs4, v068
	.byte	W24
	.byte		N11	, Fs4, v064
	.byte	W12
	.byte		N23	, En4
	.byte	W24
	.byte			Gs4
	.byte	W24
	.byte		N66	, Fs4
	.byte	W12
	.byte	W60
	.byte		N11	, Ds4, v052
	.byte	W12
	.byte			Fs4
	.byte	W12
	.byte			As4
	.byte	W12
	.byte		N23	, Bn4
	.byte	W24
	.byte		N11	, An4
	.byte	W12
	.byte		N23	, Gn4
	.byte	W24
	.byte			Bn4
	.byte	W24
	.byte			An4
	.byte	W12
	.byte	W12
	.byte			En4
	.byte	W24
	.byte		N40	, Cs4
	.byte	W48
	.byte		N10	
	.byte	W12
	.byte		N23	, As3
	.byte	W24
	.byte		N11	, Dn4
	.byte	W12
	.byte		N23	, Fn4
	.byte	W24
	.byte		N22	, As4
	.byte	W24
	.byte		N11	
	.byte	W12
	.byte		N23	, Gn4
	.byte	W24
	.byte		N11	, An4
	.byte	W12
	.byte		N56	, As4
	.byte	W60
	.byte	MOD	, 0
	.byte		N06	, Fn2, v036
	.byte	W06
	.byte			Gn2
	.byte	W06
	.byte			An2, v044
	.byte	W06
	.byte			Dn3, v056
	.byte	W06
	.byte			Fn3, v044
	.byte	W06
	.byte			Gn3
	.byte	W06
	.byte			An3, v036
	.byte	W06
	.byte			Dn4, v040
	.byte	W06
	.byte			Fn4, v036
	.byte	W06
	.byte			Gn4, v016
	.byte	W06
	.byte			An4, v024
	.byte	W06
	.byte			Dn5, v048
	.byte	W06
	.byte			Fn5, v016
	.byte	W06
	.byte			Gn5, v028
	.byte	W06
	.byte			An5, v024
	.byte	W06
	.byte			Dn6, v032
	.byte	W06
	.byte			Cn6, v044
	.byte	W06
	.byte			Gn5, v048
	.byte	W06
	.byte			Fn5, v028
	.byte	W06
	.byte			En5, v060
	.byte	W06
	.byte			Cn5
	.byte	W06
	.byte			Gn4, v048
	.byte	W06
	.byte			Fn4, v016
	.byte	W06
	.byte			En4, v040
	.byte	W06
	.byte			Cn4, v044
	.byte	W06
	.byte			Gn3, v060
	.byte	W06
	.byte			Fn3, v052
	.byte	W06
	.byte			En3, v048
	.byte	W06
	.byte			Cn3
	.byte	W06
	.byte			Gn2, v052
	.byte	W06
	.byte			Fn2
	.byte	W06
	.byte			En2, v056
	.byte	W06
	.byte			Cn2, v048
	.byte	W06
	.byte			Fn2
	.byte	W06
	.byte			Gn2, v040
	.byte	W06
	.byte			An2, v068
	.byte	W06
	.byte			Cn3, v036
	.byte	W06
	.byte			Fn3, v052
	.byte	W06
	.byte			Gn3, v032
	.byte	W06
	.byte			An3, v036
	.byte	W06
	.byte			Cn4, v004
	.byte	W06
	.byte			Fn4, v052
	.byte	W06
	.byte			Gn4, v020
	.byte	W06
	.byte			An4, v036
	.byte	W06
	.byte			Cn5
	.byte	W06
	.byte			Fn5, v052
	.byte	W06
	.byte			Gn5, v048
	.byte	W06
	.byte			An5, v060
	.byte	W06
	.byte			Bn5, v032
	.byte	W06
	.byte			An5, v056
	.byte	W06
	.byte			Gn5, v032
	.byte	W06
	.byte			Dn5, v056
	.byte	W06
	.byte			Bn4, v052
	.byte	W06
	.byte			An4, v044
	.byte	W06
	.byte			Gn4, v060
	.byte	W06
	.byte			Dn4, v052
	.byte	W06
	.byte			Gn4, v072
	.byte	W06
	.byte			Dn4, v068
	.byte	W06
	.byte			Bn3, v032
	.byte	W06
	.byte			Gn3, v044
	.byte	W06
	.byte			Bn3
	.byte	W06
	.byte			Gn3, v064
	.byte	W06
	.byte			Dn3, v028
	.byte	W06
	.byte			Gn2, v044
	.byte	W06
	.byte			Ds2, v036
	.byte	W06
	.byte			Gs2, v064
	.byte	W06
	.byte			As2, v060
	.byte	W06
	.byte			Cn3
	.byte	W06
	.byte			Ds3, v064
	.byte	W06
	.byte			Gs3, v056
	.byte	W06
	.byte			As3, v040
	.byte	W06
	.byte			Cn4, v056
	.byte	W06
	.byte			Ds4, v044
	.byte	W06
	.byte			Gs4, v048
	.byte	W06
	.byte			As4, v032
	.byte	W06
	.byte			Cn5, v060
	.byte	W06
	.byte			Ds5, v036
	.byte	W06
	.byte			Gs5, v060
	.byte	W06
	.byte			As5, v044
	.byte	W06
	.byte			Cn6, v052
	.byte	W06
	.byte			Dn6, v056
	.byte	W06
	.byte			Cn6, v036
	.byte	W06
	.byte			As5, v056
	.byte	W06
	.byte			Fn5, v040
	.byte	W06
	.byte			Dn5, v052
	.byte	W06
	.byte			Cn5, v028
	.byte	W06
	.byte			As4, v052
	.byte	W06
	.byte			Fn4
	.byte	W06
	.byte			Dn4
	.byte	W06
	.byte			Cn4, v036
	.byte	W06
	.byte			As3, v052
	.byte	W06
	.byte			Fn3
	.byte	W06
	.byte			Dn3, v064
	.byte	W06
	.byte			Cn3, v056
	.byte	W06
	.byte			As2, v052
	.byte	W06
	.byte			Fn2, v016
	.byte	W06
	.byte			Fs2, v040
	.byte	W06
	.byte			Bn2, v044
	.byte	W06
	.byte			Cs3
	.byte	W06
	.byte			Ds3, v060
	.byte	W06
	.byte			Fs3, v056
	.byte	W06
	.byte			Bn3, v048
	.byte	W06
	.byte			Cs4, v044
	.byte	W06
	.byte			Ds4, v056
	.byte	W06
	.byte			Fs4, v052
	.byte	W06
	.byte			Bn4, v016
	.byte	W06
	.byte			Cs5, v044
	.byte	W06
	.byte			Ds5
	.byte	W06
	.byte			Fs5, v056
	.byte	W06
	.byte			Bn5, v036
	.byte	W06
	.byte			Fs5, v068
	.byte	W06
	.byte			Ds5, v056
	.byte	W06
	.byte			Gs2, v040
	.byte	W06
	.byte			Cs3, v044
	.byte	W06
	.byte			Ds3
	.byte	W06
	.byte			Fn3, v060
	.byte	W06
	.byte			Gs3, v056
	.byte	W06
	.byte			Cs4, v048
	.byte	W06
	.byte			Ds4, v044
	.byte	W06
	.byte			Fn4, v056
	.byte	W06
	.byte			Gs4, v052
	.byte	W06
	.byte			Cs5, v016
	.byte	W06
	.byte			Ds5, v044
	.byte	W06
	.byte			Fn5
	.byte	W06
	.byte			Gs5, v056
	.byte	W06
	.byte			Cs6, v036
	.byte	W06
	.byte			Gs5, v068
	.byte	W06
	.byte			Fn5, v056
	.byte	W06
	.byte			As2, v040
	.byte	W06
	.byte			Ds3, v044
	.byte	W06
	.byte			Fn3
	.byte	W06
	.byte			Gn3, v060
	.byte	W06
	.byte			As3, v056
	.byte	W06
	.byte			Ds4, v048
	.byte	W06
	.byte			Fn4, v044
	.byte	W06
	.byte			Gn4, v056
	.byte	W06
	.byte			As4, v052
	.byte	W06
	.byte			Ds5, v016
	.byte	W06
	.byte			Fn5, v044
	.byte	W06
	.byte			Gn5
	.byte	W06
	.byte			As5, v056
	.byte	W06
	.byte			Ds6, v036
	.byte	W06
	.byte			As5, v068
	.byte	W06
	.byte			Gn5, v056
	.byte	W06
	.byte		N32	, An4, v072
	.byte	W36
	.byte		N52	, Bn4
	.byte	W60
	.byte	GOTO	
		.word	song002_7_3
	.byte	FINE

	.align 2
	.global song002
song002:	@ 0x0201BA64
	.byte	7		@ trackCount
	.byte	0		@ blockCount
	.byte	0		@ priority
	.byte	128		@ reverb

	.word	voicegroup000		@ voicegroup/tone

	.word	song002_1		@ track
	.word	song002_2		@ track
	.word	song002_3		@ track
	.word	song002_4		@ track
	.word	song002_5		@ track
	.word	song002_6		@ track
	.word	song002_7		@ track
